<?xml version="1.0" encoding="UTF-8" standalone="no"?>
<!DOCTYPE svg PUBLIC "-//W3C//DTD SVG 1.1//EN" "http://www.w3.org/Graphics/SVG/1.1/DTD/svg11.dtd">
<svg xmlns="http://www.w3.org/2000/svg" xmlns:xlink="http://www.w3.org/1999/xlink" version="1.1" width="418.83375pt" height="268.13508pt" viewBox="0 0 418.83375 268.13508">
<g enable-background="new">
<g>
<path transform="matrix(1,0,0,-1,0,268.13508)" d="M 0 0 L 418.83375 0 L 418.83375 268.13508 L 0 268.13508 Z " fill="#f3f3f3"/>
<path transform="matrix(1,0,0,-1,0,268.13508)" d="M 31.340626 24.246876 L 407.18064 24.246876 L 407.18064 257.5269 L 31.340626 257.5269 Z " fill="#f3f3f3"/>
<clipPath id="cp0">
<path transform="matrix(1,0,0,-1,0,268.13508)" d="M 31.340626 24.246876 L 407.18064 24.246876 L 407.18064 257.5269 L 31.340626 257.5269 Z "/>
</clipPath>
<g clip-path="url(#cp0)">
<path transform="matrix(1,0,0,-1,0,268.13508)" stroke-width="1" stroke-linecap="butt" stroke-linejoin="round" fill="none" stroke="#d5d5d5" d="M 31.340626 24.246876 L 31.340626 257.5269 "/>
</g>
<symbol id="font_1_36">
<path transform="matrix(.001,0,0,.001,-.07,.013)" d="M 330 404 C 286 404 251 388 225 358 C 199 328 186 286 186 234 C 186 181 199 139 225 109 C 251 79 286 64 330 64 C 374 64 409 79 435 109 C 461 139 474 181 474 234 C 474 286 461 328 435 358 C 409 388 374 404 330 404 M 526 713 L 526 623 C 501 635 476 644 451 650 C 425 656 400 659 376 659 C 310 659 260 637 226 593 C 192 549 172 482 168 394 C 187 422 211 444 240 459 C 269 474 301 482 336 482 C 409 482 467 459 509 415 C 551 371 573 310 573 234 C 573 159 550 99 506 54 C 462 9 403 -13 330 -13 C 246 -13 181 19 137 83 C 92 147 70 241 70 364 C 70 479 97 571 152 639 C 206 707 280 742 372 742 C 396 742 421 739 447 735 C 472 730 498 723 526 713 "/>
</symbol>
<use xlink:href="#font_1_36" transform="matrix(14,0,0,-14,33.73078,258.21083)" fill="#686868"/>
<clipPath id="cp2">
<path transform="matrix(.014,0,0,-.014,21.020314,258.0288)" d="M -1021 -463 L 1794 -463 L 1794 1233 L -1021 1233 Z "/>
</clipPath>
<g clip-path="url(#cp2)">
<path transform="matrix(.014,0,0,-.014,21.020314,258.0288)" d="M 106 355 L 732 355 L 732 272 L 106 272 L 106 355 " fill="#686868"/>
</g>
<clipPath id="cp3">
<path transform="matrix(1,0,0,-1,0,268.13508)" d="M 31.340626 24.246876 L 407.18064 24.246876 L 407.18064 257.5269 L 31.340626 257.5269 Z "/>
</clipPath>
<g clip-path="url(#cp3)">
<path transform="matrix(1,0,0,-1,0,268.13508)" stroke-width="1" stroke-linecap="butt" stroke-linejoin="round" fill="none" stroke="#d5d5d5" d="M 93.98062 24.246876 L 93.98062 257.5269 "/>
</g>
<symbol id="font_1_34">
<path transform="matrix(.001,0,0,.001,-.049000004,0)" d="M 378 643 L 129 254 L 378 254 L 378 643 M 352 729 L 476 729 L 476 254 L 580 254 L 580 172 L 476 172 L 476 0 L 378 0 L 378 172 L 49 172 L 49 267 L 352 729 "/>
</symbol>
<use xlink:href="#font_1_34" transform="matrix(14,0,0,-14,96.076778,258.0288)" fill="#686868"/>
<clipPath id="cp4">
<path transform="matrix(.014,0,0,-.014,83.66031,258.0288)" d="M -1021 -463 L 1794 -463 L 1794 1233 L -1021 1233 Z "/>
</clipPath>
<g clip-path="url(#cp4)">
<path transform="matrix(.014,0,0,-.014,83.66031,258.0288)" d="M 106 355 L 732 355 L 732 272 L 106 272 L 106 355 " fill="#686868"/>
</g>
<clipPath id="cp5">
<path transform="matrix(1,0,0,-1,0,268.13508)" d="M 31.340626 24.246876 L 407.18064 24.246876 L 407.18064 257.5269 L 31.340626 257.5269 Z "/>
</clipPath>
<g clip-path="url(#cp5)">
<path transform="matrix(1,0,0,-1,0,268.13508)" stroke-width="1" stroke-linecap="butt" stroke-linejoin="round" fill="none" stroke="#d5d5d5" d="M 156.62062 24.246876 L 156.62062 257.5269 "/>
</g>
<symbol id="font_1_32">
<path transform="matrix(.001,0,0,.001,-.07300001,0)" d="M 192 83 L 536 83 L 536 0 L 73 0 L 73 83 C 110 121 161 173 226 239 C 290 304 331 346 348 365 C 380 400 402 430 414 455 C 426 479 433 504 433 528 C 433 566 419 598 392 622 C 365 646 330 659 286 659 C 255 659 222 653 188 643 C 154 632 117 616 78 594 L 78 694 C 118 710 155 722 189 730 C 223 738 255 742 284 742 C 359 742 419 723 464 685 C 509 647 532 597 532 534 C 532 504 526 475 515 449 C 504 422 484 390 454 354 C 446 344 420 317 376 272 C 332 227 271 164 192 83 "/>
</symbol>
<use xlink:href="#font_1_32" transform="matrix(14,0,0,-14,159.05278,258.0288)" fill="#686868"/>
<clipPath id="cp6">
<path transform="matrix(.014,0,0,-.014,146.30031,258.0288)" d="M -1021 -463 L 1794 -463 L 1794 1233 L -1021 1233 Z "/>
</clipPath>
<g clip-path="url(#cp6)">
<path transform="matrix(.014,0,0,-.014,146.30031,258.0288)" d="M 106 355 L 732 355 L 732 272 L 106 272 L 106 355 " fill="#686868"/>
</g>
<clipPath id="cp7">
<path transform="matrix(1,0,0,-1,0,268.13508)" d="M 31.340626 24.246876 L 407.18064 24.246876 L 407.18064 257.5269 L 31.340626 257.5269 Z "/>
</clipPath>
<g clip-path="url(#cp7)">
<path transform="matrix(1,0,0,-1,0,268.13508)" stroke-width="1" stroke-linecap="butt" stroke-linejoin="round" fill="none" stroke="#d5d5d5" d="M 219.26062 24.246876 L 219.26062 257.5269 "/>
</g>
<symbol id="font_1_30">
<path transform="matrix(.001,0,0,.001,-.066,.013)" d="M 318 664 C 267 664 229 639 203 589 C 177 539 165 464 165 364 C 165 264 177 189 203 139 C 229 89 267 64 318 64 C 369 64 407 89 433 139 C 458 189 471 264 471 364 C 471 464 458 539 433 589 C 407 639 369 664 318 664 M 318 742 C 399 742 461 709 505 645 C 548 580 570 486 570 364 C 570 241 548 147 505 83 C 461 19 399 -13 318 -13 C 236 -13 173 19 130 83 C 87 147 66 241 66 364 C 66 486 87 580 130 645 C 173 709 236 742 318 742 "/>
</symbol>
<use xlink:href="#font_1_30" transform="matrix(14,0,0,-14,215.73149,258.21083)" fill="#686868"/>
<clipPath id="cp8">
<path transform="matrix(1,0,0,-1,0,268.13508)" d="M 31.340626 24.246876 L 407.18064 24.246876 L 407.18064 257.5269 L 31.340626 257.5269 Z "/>
</clipPath>
<g clip-path="url(#cp8)">
<path transform="matrix(1,0,0,-1,0,268.13508)" stroke-width="1" stroke-linecap="butt" stroke-linejoin="round" fill="none" stroke="#d5d5d5" d="M 281.90065 24.246876 L 281.90065 257.5269 "/>
</g>
<use xlink:href="#font_1_32" transform="matrix(14,0,0,-14,278.4695,258.0288)" fill="#686868"/>
<clipPath id="cp9">
<path transform="matrix(1,0,0,-1,0,268.13508)" d="M 31.340626 24.246876 L 407.18064 24.246876 L 407.18064 257.5269 L 31.340626 257.5269 Z "/>
</clipPath>
<g clip-path="url(#cp9)">
<path transform="matrix(1,0,0,-1,0,268.13508)" stroke-width="1" stroke-linecap="butt" stroke-linejoin="round" fill="none" stroke="#d5d5d5" d="M 344.54063 24.246876 L 344.54063 257.5269 "/>
</g>
<use xlink:href="#font_1_34" transform="matrix(14,0,0,-14,340.7735,258.0288)" fill="#686868"/>
<clipPath id="cp10">
<path transform="matrix(1,0,0,-1,0,268.13508)" d="M 31.340626 24.246876 L 407.18064 24.246876 L 407.18064 257.5269 L 31.340626 257.5269 Z "/>
</clipPath>
<g clip-path="url(#cp10)">
<path transform="matrix(1,0,0,-1,0,268.13508)" stroke-width="1" stroke-linecap="butt" stroke-linejoin="round" fill="none" stroke="#d5d5d5" d="M 407.18064 24.246876 L 407.18064 257.5269 "/>
</g>
<use xlink:href="#font_1_36" transform="matrix(14,0,0,-14,403.70753,258.21083)" fill="#686868"/>
<clipPath id="cp11">
<path transform="matrix(1,0,0,-1,0,268.13508)" d="M 31.340626 24.246876 L 407.18064 24.246876 L 407.18064 257.5269 L 31.340626 257.5269 Z "/>
</clipPath>
<g clip-path="url(#cp11)">
<path transform="matrix(1,0,0,-1,0,268.13508)" stroke-width="1" stroke-linecap="butt" stroke-linejoin="round" fill="none" stroke="#d5d5d5" d="M 31.340626 26.159007 L 407.18064 26.159007 "/>
</g>
<use xlink:href="#font_1_36" transform="matrix(14,0,0,-14,19.91047,247.47838)" fill="#686868"/>
<clipPath id="cp12">
<path transform="matrix(.014,0,0,-.014,7.2,247.29637)" d="M -1021 -463 L 1794 -463 L 1794 1233 L -1021 1233 Z "/>
</clipPath>
<g clip-path="url(#cp12)">
<path transform="matrix(.014,0,0,-.014,7.2,247.29637)" d="M 106 355 L 732 355 L 732 272 L 106 272 L 106 355 " fill="#686868"/>
</g>
<clipPath id="cp13">
<path transform="matrix(1,0,0,-1,0,268.13508)" d="M 31.340626 24.246876 L 407.18064 24.246876 L 407.18064 257.5269 L 31.340626 257.5269 Z "/>
</clipPath>
<g clip-path="url(#cp13)">
<path transform="matrix(1,0,0,-1,0,268.13508)" stroke-width="1" stroke-linecap="butt" stroke-linejoin="round" fill="none" stroke="#d5d5d5" d="M 31.340626 64.40163 L 407.18064 64.40163 "/>
</g>
<use xlink:href="#font_1_34" transform="matrix(14,0,0,-14,19.61647,209.05376)" fill="#686868"/>
<clipPath id="cp14">
<path transform="matrix(.014,0,0,-.014,7.2,209.05376)" d="M -1021 -463 L 1794 -463 L 1794 1233 L -1021 1233 Z "/>
</clipPath>
<g clip-path="url(#cp14)">
<path transform="matrix(.014,0,0,-.014,7.2,209.05376)" d="M 106 355 L 732 355 L 732 272 L 106 272 L 106 355 " fill="#686868"/>
</g>
<clipPath id="cp15">
<path transform="matrix(1,0,0,-1,0,268.13508)" d="M 31.340626 24.246876 L 407.18064 24.246876 L 407.18064 257.5269 L 31.340626 257.5269 Z "/>
</clipPath>
<g clip-path="url(#cp15)">
<path transform="matrix(1,0,0,-1,0,268.13508)" stroke-width="1" stroke-linecap="butt" stroke-linejoin="round" fill="none" stroke="#d5d5d5" d="M 31.340626 102.64425 L 407.18064 102.64425 "/>
</g>
<use xlink:href="#font_1_32" transform="matrix(14,0,0,-14,19.952469,170.81113)" fill="#686868"/>
<clipPath id="cp16">
<path transform="matrix(.014,0,0,-.014,7.2,170.81113)" d="M -1021 -463 L 1794 -463 L 1794 1233 L -1021 1233 Z "/>
</clipPath>
<g clip-path="url(#cp16)">
<path transform="matrix(.014,0,0,-.014,7.2,170.81113)" d="M 106 355 L 732 355 L 732 272 L 106 272 L 106 355 " fill="#686868"/>
</g>
<clipPath id="cp17">
<path transform="matrix(1,0,0,-1,0,268.13508)" d="M 31.340626 24.246876 L 407.18064 24.246876 L 407.18064 257.5269 L 31.340626 257.5269 Z "/>
</clipPath>
<g clip-path="url(#cp17)">
<path transform="matrix(1,0,0,-1,0,268.13508)" stroke-width="1" stroke-linecap="butt" stroke-linejoin="round" fill="none" stroke="#d5d5d5" d="M 31.340626 140.88687 L 407.18064 140.88687 "/>
</g>
<use xlink:href="#font_1_30" transform="matrix(14,0,0,-14,19.858376,132.75052)" fill="#686868"/>
<clipPath id="cp18">
<path transform="matrix(1,0,0,-1,0,268.13508)" d="M 31.340626 24.246876 L 407.18064 24.246876 L 407.18064 257.5269 L 31.340626 257.5269 Z "/>
</clipPath>
<g clip-path="url(#cp18)">
<path transform="matrix(1,0,0,-1,0,268.13508)" stroke-width="1" stroke-linecap="butt" stroke-linejoin="round" fill="none" stroke="#d5d5d5" d="M 31.340626 179.1295 L 407.18064 179.1295 "/>
</g>
<use xlink:href="#font_1_32" transform="matrix(14,0,0,-14,19.956376,94.32588)" fill="#686868"/>
<clipPath id="cp19">
<path transform="matrix(1,0,0,-1,0,268.13508)" d="M 31.340626 24.246876 L 407.18064 24.246876 L 407.18064 257.5269 L 31.340626 257.5269 Z "/>
</clipPath>
<g clip-path="url(#cp19)">
<path transform="matrix(1,0,0,-1,0,268.13508)" stroke-width="1" stroke-linecap="butt" stroke-linejoin="round" fill="none" stroke="#d5d5d5" d="M 31.340626 217.37212 L 407.18064 217.37212 "/>
</g>
<use xlink:href="#font_1_34" transform="matrix(14,0,0,-14,19.620377,56.083269)" fill="#686868"/>
<clipPath id="cp20">
<path transform="matrix(1,0,0,-1,0,268.13508)" d="M 31.340626 24.246876 L 407.18064 24.246876 L 407.18064 257.5269 L 31.340626 257.5269 Z "/>
</clipPath>
<g clip-path="url(#cp20)">
<path transform="matrix(1,0,0,-1,0,268.13508)" stroke-width="1" stroke-linecap="butt" stroke-linejoin="round" fill="none" stroke="#d5d5d5" d="M 31.340626 255.61475 L 407.18064 255.61475 "/>
</g>
<use xlink:href="#font_1_36" transform="matrix(14,0,0,-14,19.914376,18.022637)" fill="#686868"/>
<clipPath id="cp21">
<path transform="matrix(1,0,0,-1,0,268.13508)" d="M 31.340626 24.246876 L 407.18064 24.246876 L 407.18064 257.5269 L 31.340626 257.5269 Z "/>
</clipPath>
<g clip-path="url(#cp21)">
<path transform="matrix(1,0,0,-1,0,268.13508)" stroke-width="1.7" stroke-linecap="butt" stroke-linejoin="round" fill="none" stroke="#008fd5" d="M 31.340626 140.88687 L 219.26062 140.88687 L 406.55424 255.23232 "/>
</g>
<path transform="matrix(1,0,0,-1,0,268.13508)" stroke-width="3" stroke-linecap="square" stroke-miterlimit="10" stroke-linejoin="miter" fill="none" stroke="#f3f3f3" d="M 31.340626 24.246876 L 31.340626 257.5269 "/>
<path transform="matrix(1,0,0,-1,0,268.13508)" stroke-width="3" stroke-linecap="square" stroke-miterlimit="10" stroke-linejoin="miter" fill="none" stroke="#f3f3f3" d="M 407.18064 24.246876 L 407.18064 257.5269 "/>
<path transform="matrix(1,0,0,-1,0,268.13508)" stroke-width="3" stroke-linecap="square" stroke-miterlimit="10" stroke-linejoin="miter" fill="none" stroke="#f3f3f3" d="M 31.340626 24.246876 L 407.18064 24.246876 "/>
<path transform="matrix(1,0,0,-1,0,268.13508)" stroke-width="3" stroke-linecap="square" stroke-miterlimit="10" stroke-linejoin="miter" fill="none" stroke="#f3f3f3" d="M 31.340626 257.5269 L 407.18064 257.5269 "/>
</g>
</g>
</svg>
