<?xml version="1.0" encoding="UTF-8" standalone="no"?>
<!DOCTYPE svg PUBLIC "-//W3C//DTD SVG 1.1//EN" "http://www.w3.org/Graphics/SVG/1.1/DTD/svg11.dtd">
<svg xmlns="http://www.w3.org/2000/svg" xmlns:xlink="http://www.w3.org/1999/xlink" version="1.1" width="432.1931pt" height="264.72688pt" viewBox="0 0 432.1931 264.72688">
<g enable-background="new">
<g>
<path transform="matrix(1,0,0,-1,0,264.72688)" d="M 0 0 L 432.1931 0 L 432.1931 264.72688 L 0 264.72688 Z " fill="#f3f3f3"/>
<path transform="matrix(1,0,0,-1,0,264.72688)" d="M 44.7 24.246876 L 420.54 24.246876 L 420.54 257.5269 L 44.7 257.5269 Z " fill="#f3f3f3"/>
<clipPath id="cp0">
<path transform="matrix(1,0,0,-1,0,264.72688)" d="M 44.7 24.246876 L 420.54 24.246876 L 420.54 257.5269 L 44.7 257.5269 Z "/>
</clipPath>
<g clip-path="url(#cp0)">
<path transform="matrix(1,0,0,-1,0,264.72688)" stroke-width="1" stroke-linecap="butt" stroke-linejoin="round" fill="none" stroke="#d5d5d5" d="M 44.7 24.246876 L 44.7 257.5269 "/>
</g>
<symbol id="font_1_36">
<path transform="matrix(.001,0,0,.001,-.07,.013)" d="M 330 404 C 286 404 251 388 225 358 C 199 328 186 286 186 234 C 186 181 199 139 225 109 C 251 79 286 64 330 64 C 374 64 409 79 435 109 C 461 139 474 181 474 234 C 474 286 461 328 435 358 C 409 388 374 404 330 404 M 526 713 L 526 623 C 501 635 476 644 451 650 C 425 656 400 659 376 659 C 310 659 260 637 226 593 C 192 549 172 482 168 394 C 187 422 211 444 240 459 C 269 474 301 482 336 482 C 409 482 467 459 509 415 C 551 371 573 310 573 234 C 573 159 550 99 506 54 C 462 9 403 -13 330 -13 C 246 -13 181 19 137 83 C 92 147 70 241 70 364 C 70 479 97 571 152 639 C 206 707 280 742 372 742 C 396 742 421 739 447 735 C 472 730 498 723 526 713 "/>
</symbol>
<use xlink:href="#font_1_36" transform="matrix(14,0,0,-14,47.090158,254.80263)" fill="#686868"/>
<clipPath id="cp2">
<path transform="matrix(.014,0,0,-.014,34.37969,254.62062)" d="M -1021 -463 L 1794 -463 L 1794 1233 L -1021 1233 Z "/>
</clipPath>
<g clip-path="url(#cp2)">
<path transform="matrix(.014,0,0,-.014,34.37969,254.62062)" d="M 106 355 L 732 355 L 732 272 L 106 272 L 106 355 " fill="#686868"/>
</g>
<clipPath id="cp3">
<path transform="matrix(1,0,0,-1,0,264.72688)" d="M 44.7 24.246876 L 420.54 24.246876 L 420.54 257.5269 L 44.7 257.5269 Z "/>
</clipPath>
<g clip-path="url(#cp3)">
<path transform="matrix(1,0,0,-1,0,264.72688)" stroke-width="1" stroke-linecap="butt" stroke-linejoin="round" fill="none" stroke="#d5d5d5" d="M 107.34 24.246876 L 107.34 257.5269 "/>
</g>
<symbol id="font_1_34">
<path transform="matrix(.001,0,0,.001,-.049000004,0)" d="M 378 643 L 129 254 L 378 254 L 378 643 M 352 729 L 476 729 L 476 254 L 580 254 L 580 172 L 476 172 L 476 0 L 378 0 L 378 172 L 49 172 L 49 267 L 352 729 "/>
</symbol>
<use xlink:href="#font_1_34" transform="matrix(14,0,0,-14,109.43615,254.62062)" fill="#686868"/>
<clipPath id="cp4">
<path transform="matrix(.014,0,0,-.014,97.019687,254.62062)" d="M -1021 -463 L 1794 -463 L 1794 1233 L -1021 1233 Z "/>
</clipPath>
<g clip-path="url(#cp4)">
<path transform="matrix(.014,0,0,-.014,97.019687,254.62062)" d="M 106 355 L 732 355 L 732 272 L 106 272 L 106 355 " fill="#686868"/>
</g>
<clipPath id="cp5">
<path transform="matrix(1,0,0,-1,0,264.72688)" d="M 44.7 24.246876 L 420.54 24.246876 L 420.54 257.5269 L 44.7 257.5269 Z "/>
</clipPath>
<g clip-path="url(#cp5)">
<path transform="matrix(1,0,0,-1,0,264.72688)" stroke-width="1" stroke-linecap="butt" stroke-linejoin="round" fill="none" stroke="#d5d5d5" d="M 169.98 24.246876 L 169.98 257.5269 "/>
</g>
<symbol id="font_1_32">
<path transform="matrix(.001,0,0,.001,-.07300001,0)" d="M 192 83 L 536 83 L 536 0 L 73 0 L 73 83 C 110 121 161 173 226 239 C 290 304 331 346 348 365 C 380 400 402 430 414 455 C 426 479 433 504 433 528 C 433 566 419 598 392 622 C 365 646 330 659 286 659 C 255 659 222 653 188 643 C 154 632 117 616 78 594 L 78 694 C 118 710 155 722 189 730 C 223 738 255 742 284 742 C 359 742 419 723 464 685 C 509 647 532 597 532 534 C 532 504 526 475 515 449 C 504 422 484 390 454 354 C 446 344 420 317 376 272 C 332 227 271 164 192 83 "/>
</symbol>
<use xlink:href="#font_1_32" transform="matrix(14,0,0,-14,172.41216,254.62062)" fill="#686868"/>
<clipPath id="cp6">
<path transform="matrix(.014,0,0,-.014,159.65969,254.62062)" d="M -1021 -463 L 1794 -463 L 1794 1233 L -1021 1233 Z "/>
</clipPath>
<g clip-path="url(#cp6)">
<path transform="matrix(.014,0,0,-.014,159.65969,254.62062)" d="M 106 355 L 732 355 L 732 272 L 106 272 L 106 355 " fill="#686868"/>
</g>
<clipPath id="cp7">
<path transform="matrix(1,0,0,-1,0,264.72688)" d="M 44.7 24.246876 L 420.54 24.246876 L 420.54 257.5269 L 44.7 257.5269 Z "/>
</clipPath>
<g clip-path="url(#cp7)">
<path transform="matrix(1,0,0,-1,0,264.72688)" stroke-width="1" stroke-linecap="butt" stroke-linejoin="round" fill="none" stroke="#d5d5d5" d="M 232.62 24.246876 L 232.62 257.5269 "/>
</g>
<symbol id="font_1_30">
<path transform="matrix(.001,0,0,.001,-.066,.013)" d="M 318 664 C 267 664 229 639 203 589 C 177 539 165 464 165 364 C 165 264 177 189 203 139 C 229 89 267 64 318 64 C 369 64 407 89 433 139 C 458 189 471 264 471 364 C 471 464 458 539 433 589 C 407 639 369 664 318 664 M 318 742 C 399 742 461 709 505 645 C 548 580 570 486 570 364 C 570 241 548 147 505 83 C 461 19 399 -13 318 -13 C 236 -13 173 19 130 83 C 87 147 66 241 66 364 C 66 486 87 580 130 645 C 173 709 236 742 318 742 "/>
</symbol>
<use xlink:href="#font_1_30" transform="matrix(14,0,0,-14,229.09087,254.80263)" fill="#686868"/>
<clipPath id="cp8">
<path transform="matrix(1,0,0,-1,0,264.72688)" d="M 44.7 24.246876 L 420.54 24.246876 L 420.54 257.5269 L 44.7 257.5269 Z "/>
</clipPath>
<g clip-path="url(#cp8)">
<path transform="matrix(1,0,0,-1,0,264.72688)" stroke-width="1" stroke-linecap="butt" stroke-linejoin="round" fill="none" stroke="#d5d5d5" d="M 295.26 24.246876 L 295.26 257.5269 "/>
</g>
<use xlink:href="#font_1_32" transform="matrix(14,0,0,-14,291.8289,254.62062)" fill="#686868"/>
<clipPath id="cp9">
<path transform="matrix(1,0,0,-1,0,264.72688)" d="M 44.7 24.246876 L 420.54 24.246876 L 420.54 257.5269 L 44.7 257.5269 Z "/>
</clipPath>
<g clip-path="url(#cp9)">
<path transform="matrix(1,0,0,-1,0,264.72688)" stroke-width="1" stroke-linecap="butt" stroke-linejoin="round" fill="none" stroke="#d5d5d5" d="M 357.9 24.246876 L 357.9 257.5269 "/>
</g>
<use xlink:href="#font_1_34" transform="matrix(14,0,0,-14,354.13288,254.62062)" fill="#686868"/>
<clipPath id="cp10">
<path transform="matrix(1,0,0,-1,0,264.72688)" d="M 44.7 24.246876 L 420.54 24.246876 L 420.54 257.5269 L 44.7 257.5269 Z "/>
</clipPath>
<g clip-path="url(#cp10)">
<path transform="matrix(1,0,0,-1,0,264.72688)" stroke-width="1" stroke-linecap="butt" stroke-linejoin="round" fill="none" stroke="#d5d5d5" d="M 420.54 24.246876 L 420.54 257.5269 "/>
</g>
<use xlink:href="#font_1_36" transform="matrix(14,0,0,-14,417.0669,254.80263)" fill="#686868"/>
<clipPath id="cp11">
<path transform="matrix(1,0,0,-1,0,264.72688)" d="M 44.7 24.246876 L 420.54 24.246876 L 420.54 257.5269 L 44.7 257.5269 Z "/>
</clipPath>
<g clip-path="url(#cp11)">
<path transform="matrix(1,0,0,-1,0,264.72688)" stroke-width="1" stroke-linecap="butt" stroke-linejoin="round" fill="none" stroke="#d5d5d5" d="M 44.7 34.85051 L 420.54 34.85051 "/>
</g>
<symbol id="font_1_31">
<path transform="matrix(.001,0,0,.001,-.11000001,0)" d="M 124 83 L 285 83 L 285 639 L 110 604 L 110 694 L 284 729 L 383 729 L 383 83 L 544 83 L 544 0 L 124 0 L 124 83 "/>
</symbol>
<symbol id="font_1_2e">
<path transform="matrix(.001,0,0,.001,-.10700001,0)" d="M 107 124 L 210 124 L 210 0 L 107 0 L 107 124 "/>
</symbol>
<use xlink:href="#font_1_31" transform="matrix(14,0,0,-14,20.47047,235.19667)" fill="#686868"/>
<use xlink:href="#font_1_2e" transform="matrix(14,0,0,-14,29.33247,235.19667)" fill="#686868"/>
<use xlink:href="#font_1_30" transform="matrix(14,0,0,-14,33.21047,235.37868)" fill="#686868"/>
<clipPath id="cp12">
<path transform="matrix(.014,0,0,-.014,7.2,235.19667)" d="M -1021 -463 L 1794 -463 L 1794 1233 L -1021 1233 Z "/>
</clipPath>
<g clip-path="url(#cp12)">
<path transform="matrix(.014,0,0,-.014,7.2,235.19667)" d="M 106 355 L 732 355 L 732 272 L 106 272 L 106 355 " fill="#686868"/>
</g>
<clipPath id="cp13">
<path transform="matrix(1,0,0,-1,0,264.72688)" d="M 44.7 24.246876 L 420.54 24.246876 L 420.54 257.5269 L 44.7 257.5269 Z "/>
</clipPath>
<g clip-path="url(#cp13)">
<path transform="matrix(1,0,0,-1,0,264.72688)" stroke-width="1" stroke-linecap="butt" stroke-linejoin="round" fill="none" stroke="#d5d5d5" d="M 44.7 87.86869 L 420.54 87.86869 "/>
</g>
<symbol id="font_1_35">
<path transform="matrix(.001,0,0,.001,-.07700001,.013)" d="M 108 729 L 495 729 L 495 646 L 198 646 L 198 467 C 212 472 227 476 241 478 C 255 480 270 482 284 482 C 365 482 429 459 477 415 C 525 370 549 310 549 234 C 549 155 524 94 475 51 C 426 8 357 -13 269 -13 C 238 -13 207 -10 175 -6 C 143 -1 111 6 77 17 L 77 116 C 106 100 136 88 168 80 C 199 72 232 69 267 69 C 323 69 368 83 401 113 C 433 143 450 183 450 234 C 450 284 433 324 401 354 C 368 384 323 399 267 399 C 241 399 214 396 188 390 C 162 384 135 375 108 363 L 108 729 "/>
</symbol>
<use xlink:href="#font_1_30" transform="matrix(14,0,0,-14,19.85447,182.3605)" fill="#686868"/>
<use xlink:href="#font_1_2e" transform="matrix(14,0,0,-14,29.33247,182.1785)" fill="#686868"/>
<use xlink:href="#font_1_35" transform="matrix(14,0,0,-14,33.364469,182.3605)" fill="#686868"/>
<clipPath id="cp14">
<path transform="matrix(.014,0,0,-.014,7.2,182.1785)" d="M -1021 -463 L 1794 -463 L 1794 1233 L -1021 1233 Z "/>
</clipPath>
<g clip-path="url(#cp14)">
<path transform="matrix(.014,0,0,-.014,7.2,182.1785)" d="M 106 355 L 732 355 L 732 272 L 106 272 L 106 355 " fill="#686868"/>
</g>
<clipPath id="cp15">
<path transform="matrix(1,0,0,-1,0,264.72688)" d="M 44.7 24.246876 L 420.54 24.246876 L 420.54 257.5269 L 44.7 257.5269 Z "/>
</clipPath>
<g clip-path="url(#cp15)">
<path transform="matrix(1,0,0,-1,0,264.72688)" stroke-width="1" stroke-linecap="butt" stroke-linejoin="round" fill="none" stroke="#d5d5d5" d="M 44.7 140.88687 L 420.54 140.88687 "/>
</g>
<use xlink:href="#font_1_30" transform="matrix(14,0,0,-14,19.858376,129.34232)" fill="#686868"/>
<use xlink:href="#font_1_2e" transform="matrix(14,0,0,-14,29.336377,129.16031)" fill="#686868"/>
<use xlink:href="#font_1_30" transform="matrix(14,0,0,-14,33.214376,129.34232)" fill="#686868"/>
<clipPath id="cp16">
<path transform="matrix(1,0,0,-1,0,264.72688)" d="M 44.7 24.246876 L 420.54 24.246876 L 420.54 257.5269 L 44.7 257.5269 Z "/>
</clipPath>
<g clip-path="url(#cp16)">
<path transform="matrix(1,0,0,-1,0,264.72688)" stroke-width="1" stroke-linecap="butt" stroke-linejoin="round" fill="none" stroke="#d5d5d5" d="M 44.7 193.90506 L 420.54 193.90506 "/>
</g>
<use xlink:href="#font_1_30" transform="matrix(14,0,0,-14,19.858376,76.32412)" fill="#686868"/>
<use xlink:href="#font_1_2e" transform="matrix(14,0,0,-14,29.336377,76.14212)" fill="#686868"/>
<use xlink:href="#font_1_35" transform="matrix(14,0,0,-14,33.368375,76.32412)" fill="#686868"/>
<clipPath id="cp17">
<path transform="matrix(1,0,0,-1,0,264.72688)" d="M 44.7 24.246876 L 420.54 24.246876 L 420.54 257.5269 L 44.7 257.5269 Z "/>
</clipPath>
<g clip-path="url(#cp17)">
<path transform="matrix(1,0,0,-1,0,264.72688)" stroke-width="1" stroke-linecap="butt" stroke-linejoin="round" fill="none" stroke="#d5d5d5" d="M 44.7 246.92324 L 420.54 246.92324 "/>
</g>
<use xlink:href="#font_1_31" transform="matrix(14,0,0,-14,20.474377,23.123948)" fill="#686868"/>
<use xlink:href="#font_1_2e" transform="matrix(14,0,0,-14,29.336377,23.123948)" fill="#686868"/>
<use xlink:href="#font_1_30" transform="matrix(14,0,0,-14,33.214376,23.305947)" fill="#686868"/>
<clipPath id="cp18">
<path transform="matrix(1,0,0,-1,0,264.72688)" d="M 44.7 24.246876 L 420.54 24.246876 L 420.54 257.5269 L 44.7 257.5269 Z "/>
</clipPath>
<g clip-path="url(#cp18)">
<path transform="matrix(1,0,0,-1,0,264.72688)" stroke-width="1.7" stroke-linecap="butt" stroke-linejoin="round" fill="none" stroke="#008fd5" d="M -1 34.850584 L 114.2304 34.96092 L 132.396 35.202299 L 143.0448 35.543775 L 151.188 36.014009 L 157.452 36.58157 L 163.0896 37.322946 L 167.4744 38.109586 L 171.2328 38.976404 L 174.9912 40.068017 L 178.1232 41.18866 L 181.2552 42.541059 L 184.3872 44.16895 L 186.8928 45.703058 L 189.3984 47.474008 L 191.904 49.512887 L 194.4096 51.853 L 196.9152 54.529367 L 199.4208 57.577936 L 201.9264 61.034505 L 204.432 64.93325 L 206.9376 69.30492 L 209.4432 74.17461 L 211.9488 79.55932 L 214.4544 85.46533 L 216.96 91.88565 L 220.092 100.59847 L 223.224 109.99715 L 226.9824 122.00383 L 232.62 140.88687 L 239.5104 163.84566 L 243.2688 175.61139 L 246.4008 184.74823 L 249.5328 193.16153 L 252.0384 199.32649 L 254.544 204.97183 L 257.0496 210.09752 L 259.5552 214.7155 L 262.0608 218.84717 L 264.5664 222.52072 L 267.072 225.76888 L 269.5776 228.62683 L 272.0832 231.13062 L 274.5888 233.31583 L 277.0944 235.2167 L 279.6 236.86551 L 282.1056 238.29209 L 285.2376 239.80413 L 288.3696 241.05892 L 291.5016 242.09775 L 295.26 243.10886 L 299.6448 244.02767 L 304.656 244.81273 L 310.2936 245.44635 L 317.184 245.9697 L 325.3272 246.3553 L 336.6024 246.64643 L 353.5152 246.82915 L 386.088 246.91149 L 433.1931 246.92266 "/>
</g>
<path transform="matrix(1,0,0,-1,0,264.72688)" stroke-width="3" stroke-linecap="square" stroke-miterlimit="10" stroke-linejoin="miter" fill="none" stroke="#f3f3f3" d="M 44.7 24.246876 L 44.7 257.5269 "/>
<path transform="matrix(1,0,0,-1,0,264.72688)" stroke-width="3" stroke-linecap="square" stroke-miterlimit="10" stroke-linejoin="miter" fill="none" stroke="#f3f3f3" d="M 420.54 24.246876 L 420.54 257.5269 "/>
<path transform="matrix(1,0,0,-1,0,264.72688)" stroke-width="3" stroke-linecap="square" stroke-miterlimit="10" stroke-linejoin="miter" fill="none" stroke="#f3f3f3" d="M 44.7 24.246876 L 420.54 24.246876 "/>
<path transform="matrix(1,0,0,-1,0,264.72688)" stroke-width="3" stroke-linecap="square" stroke-miterlimit="10" stroke-linejoin="miter" fill="none" stroke="#f3f3f3" d="M 44.7 257.5269 L 420.54 257.5269 "/>
</g>
</g>
</svg>
