<?xml version="1.0" encoding="UTF-8" standalone="no"?>
<!DOCTYPE svg PUBLIC "-//W3C//DTD SVG 1.1//EN" "http://www.w3.org/Graphics/SVG/1.1/DTD/svg11.dtd">
<svg xmlns="http://www.w3.org/2000/svg" xmlns:xlink="http://www.w3.org/1999/xlink" version="1.1" width="432.1931pt" height="285.93pt" viewBox="0 0 432.1931 285.93">
<g enable-background="new">
<g>
<path transform="matrix(1,0,0,-1,0,285.93)" d="M 0 0 L 432.1931 0 L 432.1931 285.93 L 0 285.93 Z " fill="#f3f3f3"/>
<path transform="matrix(1,0,0,-1,0,285.93)" d="M 44.7 24.246876 L 420.54 24.246876 L 420.54 257.5269 L 44.7 257.5269 Z " fill="#f3f3f3"/>
<clipPath id="cp0">
<path transform="matrix(1,0,0,-1,0,285.93)" d="M 44.7 24.246876 L 420.54 24.246876 L 420.54 257.5269 L 44.7 257.5269 Z "/>
</clipPath>
<g clip-path="url(#cp0)">
<path transform="matrix(1,0,0,-1,0,285.93)" stroke-width="1" stroke-linecap="butt" stroke-linejoin="round" fill="none" stroke="#d5d5d5" d="M 44.7 24.246876 L 44.7 257.5269 "/>
</g>
<symbol id="font_1_36">
<path transform="matrix(.001,0,0,.001,-.07,.013)" d="M 330 404 C 286 404 251 388 225 358 C 199 328 186 286 186 234 C 186 181 199 139 225 109 C 251 79 286 64 330 64 C 374 64 409 79 435 109 C 461 139 474 181 474 234 C 474 286 461 328 435 358 C 409 388 374 404 330 404 M 526 713 L 526 623 C 501 635 476 644 451 650 C 425 656 400 659 376 659 C 310 659 260 637 226 593 C 192 549 172 482 168 394 C 187 422 211 444 240 459 C 269 474 301 482 336 482 C 409 482 467 459 509 415 C 551 371 573 310 573 234 C 573 159 550 99 506 54 C 462 9 403 -13 330 -13 C 246 -13 181 19 137 83 C 92 147 70 241 70 364 C 70 479 97 571 152 639 C 206 707 280 742 372 742 C 396 742 421 739 447 735 C 472 730 498 723 526 713 "/>
</symbol>
<use xlink:href="#font_1_36" transform="matrix(14,0,0,-14,47.090158,276.00575)" fill="#686868"/>
<clipPath id="cp2">
<path transform="matrix(.014,0,0,-.014,34.37969,275.82374)" d="M -1021 -463 L 1794 -463 L 1794 1233 L -1021 1233 Z "/>
</clipPath>
<g clip-path="url(#cp2)">
<path transform="matrix(.014,0,0,-.014,34.37969,275.82374)" d="M 106 355 L 732 355 L 732 272 L 106 272 L 106 355 " fill="#686868"/>
</g>
<clipPath id="cp3">
<path transform="matrix(1,0,0,-1,0,285.93)" d="M 44.7 24.246876 L 420.54 24.246876 L 420.54 257.5269 L 44.7 257.5269 Z "/>
</clipPath>
<g clip-path="url(#cp3)">
<path transform="matrix(1,0,0,-1,0,285.93)" stroke-width="1" stroke-linecap="butt" stroke-linejoin="round" fill="none" stroke="#d5d5d5" d="M 107.34 24.246876 L 107.34 257.5269 "/>
</g>
<symbol id="font_1_34">
<path transform="matrix(.001,0,0,.001,-.049000004,0)" d="M 378 643 L 129 254 L 378 254 L 378 643 M 352 729 L 476 729 L 476 254 L 580 254 L 580 172 L 476 172 L 476 0 L 378 0 L 378 172 L 49 172 L 49 267 L 352 729 "/>
</symbol>
<use xlink:href="#font_1_34" transform="matrix(14,0,0,-14,109.43615,275.82374)" fill="#686868"/>
<clipPath id="cp4">
<path transform="matrix(.014,0,0,-.014,97.019687,275.82374)" d="M -1021 -463 L 1794 -463 L 1794 1233 L -1021 1233 Z "/>
</clipPath>
<g clip-path="url(#cp4)">
<path transform="matrix(.014,0,0,-.014,97.019687,275.82374)" d="M 106 355 L 732 355 L 732 272 L 106 272 L 106 355 " fill="#686868"/>
</g>
<clipPath id="cp5">
<path transform="matrix(1,0,0,-1,0,285.93)" d="M 44.7 24.246876 L 420.54 24.246876 L 420.54 257.5269 L 44.7 257.5269 Z "/>
</clipPath>
<g clip-path="url(#cp5)">
<path transform="matrix(1,0,0,-1,0,285.93)" stroke-width="1" stroke-linecap="butt" stroke-linejoin="round" fill="none" stroke="#d5d5d5" d="M 169.98 24.246876 L 169.98 257.5269 "/>
</g>
<symbol id="font_1_32">
<path transform="matrix(.001,0,0,.001,-.07300001,0)" d="M 192 83 L 536 83 L 536 0 L 73 0 L 73 83 C 110 121 161 173 226 239 C 290 304 331 346 348 365 C 380 400 402 430 414 455 C 426 479 433 504 433 528 C 433 566 419 598 392 622 C 365 646 330 659 286 659 C 255 659 222 653 188 643 C 154 632 117 616 78 594 L 78 694 C 118 710 155 722 189 730 C 223 738 255 742 284 742 C 359 742 419 723 464 685 C 509 647 532 597 532 534 C 532 504 526 475 515 449 C 504 422 484 390 454 354 C 446 344 420 317 376 272 C 332 227 271 164 192 83 "/>
</symbol>
<use xlink:href="#font_1_32" transform="matrix(14,0,0,-14,172.41216,275.82374)" fill="#686868"/>
<clipPath id="cp6">
<path transform="matrix(.014,0,0,-.014,159.65969,275.82374)" d="M -1021 -463 L 1794 -463 L 1794 1233 L -1021 1233 Z "/>
</clipPath>
<g clip-path="url(#cp6)">
<path transform="matrix(.014,0,0,-.014,159.65969,275.82374)" d="M 106 355 L 732 355 L 732 272 L 106 272 L 106 355 " fill="#686868"/>
</g>
<clipPath id="cp7">
<path transform="matrix(1,0,0,-1,0,285.93)" d="M 44.7 24.246876 L 420.54 24.246876 L 420.54 257.5269 L 44.7 257.5269 Z "/>
</clipPath>
<g clip-path="url(#cp7)">
<path transform="matrix(1,0,0,-1,0,285.93)" stroke-width="1" stroke-linecap="butt" stroke-linejoin="round" fill="none" stroke="#d5d5d5" d="M 232.62 24.246876 L 232.62 257.5269 "/>
</g>
<symbol id="font_1_30">
<path transform="matrix(.001,0,0,.001,-.066,.013)" d="M 318 664 C 267 664 229 639 203 589 C 177 539 165 464 165 364 C 165 264 177 189 203 139 C 229 89 267 64 318 64 C 369 64 407 89 433 139 C 458 189 471 264 471 364 C 471 464 458 539 433 589 C 407 639 369 664 318 664 M 318 742 C 399 742 461 709 505 645 C 548 580 570 486 570 364 C 570 241 548 147 505 83 C 461 19 399 -13 318 -13 C 236 -13 173 19 130 83 C 87 147 66 241 66 364 C 66 486 87 580 130 645 C 173 709 236 742 318 742 "/>
</symbol>
<use xlink:href="#font_1_30" transform="matrix(14,0,0,-14,229.09087,276.00575)" fill="#686868"/>
<clipPath id="cp8">
<path transform="matrix(1,0,0,-1,0,285.93)" d="M 44.7 24.246876 L 420.54 24.246876 L 420.54 257.5269 L 44.7 257.5269 Z "/>
</clipPath>
<g clip-path="url(#cp8)">
<path transform="matrix(1,0,0,-1,0,285.93)" stroke-width="1" stroke-linecap="butt" stroke-linejoin="round" fill="none" stroke="#d5d5d5" d="M 295.26 24.246876 L 295.26 257.5269 "/>
</g>
<use xlink:href="#font_1_32" transform="matrix(14,0,0,-14,291.8289,275.82374)" fill="#686868"/>
<clipPath id="cp9">
<path transform="matrix(1,0,0,-1,0,285.93)" d="M 44.7 24.246876 L 420.54 24.246876 L 420.54 257.5269 L 44.7 257.5269 Z "/>
</clipPath>
<g clip-path="url(#cp9)">
<path transform="matrix(1,0,0,-1,0,285.93)" stroke-width="1" stroke-linecap="butt" stroke-linejoin="round" fill="none" stroke="#d5d5d5" d="M 357.9 24.246876 L 357.9 257.5269 "/>
</g>
<use xlink:href="#font_1_34" transform="matrix(14,0,0,-14,354.13288,275.82374)" fill="#686868"/>
<clipPath id="cp10">
<path transform="matrix(1,0,0,-1,0,285.93)" d="M 44.7 24.246876 L 420.54 24.246876 L 420.54 257.5269 L 44.7 257.5269 Z "/>
</clipPath>
<g clip-path="url(#cp10)">
<path transform="matrix(1,0,0,-1,0,285.93)" stroke-width="1" stroke-linecap="butt" stroke-linejoin="round" fill="none" stroke="#d5d5d5" d="M 420.54 24.246876 L 420.54 257.5269 "/>
</g>
<use xlink:href="#font_1_36" transform="matrix(14,0,0,-14,417.0669,276.00575)" fill="#686868"/>
<clipPath id="cp11">
<path transform="matrix(1,0,0,-1,0,285.93)" d="M 44.7 24.246876 L 420.54 24.246876 L 420.54 257.5269 L 44.7 257.5269 Z "/>
</clipPath>
<g clip-path="url(#cp11)">
<path transform="matrix(1,0,0,-1,0,285.93)" stroke-width="1" stroke-linecap="butt" stroke-linejoin="round" fill="none" stroke="#d5d5d5" d="M 44.7 24.246876 L 420.54 24.246876 "/>
</g>
<symbol id="font_1_2e">
<path transform="matrix(.001,0,0,.001,-.10700001,0)" d="M 107 124 L 210 124 L 210 0 L 107 0 L 107 124 "/>
</symbol>
<use xlink:href="#font_1_30" transform="matrix(14,0,0,-14,19.85447,267.18544)" fill="#686868"/>
<use xlink:href="#font_1_2e" transform="matrix(14,0,0,-14,29.33247,267.00343)" fill="#686868"/>
<use xlink:href="#font_1_32" transform="matrix(14,0,0,-14,33.308469,267.00343)" fill="#686868"/>
<clipPath id="cp12">
<path transform="matrix(.014,0,0,-.014,7.2,267.00343)" d="M -1021 -463 L 1794 -463 L 1794 1233 L -1021 1233 Z "/>
</clipPath>
<g clip-path="url(#cp12)">
<path transform="matrix(.014,0,0,-.014,7.2,267.00343)" d="M 106 355 L 732 355 L 732 272 L 106 272 L 106 355 " fill="#686868"/>
</g>
<clipPath id="cp13">
<path transform="matrix(1,0,0,-1,0,285.93)" d="M 44.7 24.246876 L 420.54 24.246876 L 420.54 257.5269 L 44.7 257.5269 Z "/>
</clipPath>
<g clip-path="url(#cp13)">
<path transform="matrix(1,0,0,-1,0,285.93)" stroke-width="1" stroke-linecap="butt" stroke-linejoin="round" fill="none" stroke="#d5d5d5" d="M 44.7 60.136106 L 420.54 60.136106 "/>
</g>
<use xlink:href="#font_1_30" transform="matrix(14,0,0,-14,19.858376,231.2962)" fill="#686868"/>
<use xlink:href="#font_1_2e" transform="matrix(14,0,0,-14,29.336377,231.1142)" fill="#686868"/>
<use xlink:href="#font_1_30" transform="matrix(14,0,0,-14,33.214376,231.2962)" fill="#686868"/>
<clipPath id="cp14">
<path transform="matrix(1,0,0,-1,0,285.93)" d="M 44.7 24.246876 L 420.54 24.246876 L 420.54 257.5269 L 44.7 257.5269 Z "/>
</clipPath>
<g clip-path="url(#cp14)">
<path transform="matrix(1,0,0,-1,0,285.93)" stroke-width="1" stroke-linecap="butt" stroke-linejoin="round" fill="none" stroke="#d5d5d5" d="M 44.7 96.02534 L 420.54 96.02534 "/>
</g>
<use xlink:href="#font_1_30" transform="matrix(14,0,0,-14,19.858376,195.40699)" fill="#686868"/>
<use xlink:href="#font_1_2e" transform="matrix(14,0,0,-14,29.336377,195.22498)" fill="#686868"/>
<use xlink:href="#font_1_32" transform="matrix(14,0,0,-14,33.312376,195.22498)" fill="#686868"/>
<clipPath id="cp15">
<path transform="matrix(1,0,0,-1,0,285.93)" d="M 44.7 24.246876 L 420.54 24.246876 L 420.54 257.5269 L 44.7 257.5269 Z "/>
</clipPath>
<g clip-path="url(#cp15)">
<path transform="matrix(1,0,0,-1,0,285.93)" stroke-width="1" stroke-linecap="butt" stroke-linejoin="round" fill="none" stroke="#d5d5d5" d="M 44.7 131.91457 L 420.54 131.91457 "/>
</g>
<use xlink:href="#font_1_30" transform="matrix(14,0,0,-14,19.858376,159.51775)" fill="#686868"/>
<use xlink:href="#font_1_2e" transform="matrix(14,0,0,-14,29.336377,159.33574)" fill="#686868"/>
<use xlink:href="#font_1_34" transform="matrix(14,0,0,-14,32.976377,159.33574)" fill="#686868"/>
<clipPath id="cp16">
<path transform="matrix(1,0,0,-1,0,285.93)" d="M 44.7 24.246876 L 420.54 24.246876 L 420.54 257.5269 L 44.7 257.5269 Z "/>
</clipPath>
<g clip-path="url(#cp16)">
<path transform="matrix(1,0,0,-1,0,285.93)" stroke-width="1" stroke-linecap="butt" stroke-linejoin="round" fill="none" stroke="#d5d5d5" d="M 44.7 167.8038 L 420.54 167.8038 "/>
</g>
<use xlink:href="#font_1_30" transform="matrix(14,0,0,-14,19.858376,123.6285)" fill="#686868"/>
<use xlink:href="#font_1_2e" transform="matrix(14,0,0,-14,29.336377,123.4465)" fill="#686868"/>
<use xlink:href="#font_1_36" transform="matrix(14,0,0,-14,33.270376,123.6285)" fill="#686868"/>
<clipPath id="cp17">
<path transform="matrix(1,0,0,-1,0,285.93)" d="M 44.7 24.246876 L 420.54 24.246876 L 420.54 257.5269 L 44.7 257.5269 Z "/>
</clipPath>
<g clip-path="url(#cp17)">
<path transform="matrix(1,0,0,-1,0,285.93)" stroke-width="1" stroke-linecap="butt" stroke-linejoin="round" fill="none" stroke="#d5d5d5" d="M 44.7 203.69303 L 420.54 203.69303 "/>
</g>
<symbol id="font_1_38">
<path transform="matrix(.001,0,0,.001,-.068,.013)" d="M 318 346 C 271 346 234 333 207 308 C 180 283 167 249 167 205 C 167 161 180 126 207 101 C 234 76 271 64 318 64 C 364 64 401 76 428 102 C 455 127 469 161 469 205 C 469 249 455 283 429 308 C 402 333 365 346 318 346 M 219 388 C 177 398 144 418 120 447 C 96 476 85 511 85 553 C 85 611 105 657 147 691 C 188 725 245 742 318 742 C 390 742 447 725 489 691 C 530 657 551 611 551 553 C 551 511 539 476 515 447 C 491 418 459 398 417 388 C 464 377 501 355 528 323 C 554 291 568 251 568 205 C 568 134 546 80 503 43 C 459 5 398 -13 318 -13 C 237 -13 175 5 132 43 C 89 80 68 134 68 205 C 68 251 81 291 108 323 C 134 355 171 377 219 388 M 183 544 C 183 506 194 476 218 455 C 242 434 275 424 318 424 C 360 424 393 434 417 455 C 441 476 453 506 453 544 C 453 582 441 611 417 632 C 393 653 360 664 318 664 C 275 664 242 653 218 632 C 194 611 183 582 183 544 "/>
</symbol>
<use xlink:href="#font_1_30" transform="matrix(14,0,0,-14,19.858376,87.73928)" fill="#686868"/>
<use xlink:href="#font_1_2e" transform="matrix(14,0,0,-14,29.336377,87.55728)" fill="#686868"/>
<use xlink:href="#font_1_38" transform="matrix(14,0,0,-14,33.242376,87.73928)" fill="#686868"/>
<clipPath id="cp18">
<path transform="matrix(1,0,0,-1,0,285.93)" d="M 44.7 24.246876 L 420.54 24.246876 L 420.54 257.5269 L 44.7 257.5269 Z "/>
</clipPath>
<g clip-path="url(#cp18)">
<path transform="matrix(1,0,0,-1,0,285.93)" stroke-width="1" stroke-linecap="butt" stroke-linejoin="round" fill="none" stroke="#d5d5d5" d="M 44.7 239.58226 L 420.54 239.58226 "/>
</g>
<symbol id="font_1_31">
<path transform="matrix(.001,0,0,.001,-.11000001,0)" d="M 124 83 L 285 83 L 285 639 L 110 604 L 110 694 L 284 729 L 383 729 L 383 83 L 544 83 L 544 0 L 124 0 L 124 83 "/>
</symbol>
<use xlink:href="#font_1_31" transform="matrix(14,0,0,-14,20.474377,51.668046)" fill="#686868"/>
<use xlink:href="#font_1_2e" transform="matrix(14,0,0,-14,29.336377,51.668046)" fill="#686868"/>
<use xlink:href="#font_1_30" transform="matrix(14,0,0,-14,33.214376,51.850046)" fill="#686868"/>
<clipPath id="cp19">
<path transform="matrix(1,0,0,-1,0,285.93)" d="M 44.7 24.246876 L 420.54 24.246876 L 420.54 257.5269 L 44.7 257.5269 Z "/>
</clipPath>
<g clip-path="url(#cp19)">
<path transform="matrix(1,0,0,-1,0,285.93)" stroke-width="1.7" stroke-linecap="butt" stroke-linejoin="round" fill="none" stroke="#008fd5" d="M -1 60.239385 L 35.9304 60.471048 L 58.4808 60.821516 L 74.7672 61.28297 L 87.9216 61.86993 L 98.5704 62.5529 L 107.9664 63.36748 L 116.1096 64.281688 L 123.6264 65.33916 L 130.5168 66.52517 L 136.7808 67.81351 L 143.0448 69.33003 L 148.6824 70.91174 L 154.32 72.71643 L 159.9576 74.75669 L 165.5952 77.03822 L 171.2328 79.55675 L 177.4968 82.61084 L 184.3872 86.22252 L 205.6848 97.626918 L 210.696 99.92075 L 215.0808 101.65541 L 218.8392 102.89331 L 222.5976 103.867168 L 225.7296 104.45774 L 228.8616 104.83505 L 231.9936 104.99166 L 235.1256 104.92445 L 238.2576 104.63477 L 241.3896 104.12834 L 244.5216 103.41505 L 248.28 102.305469 L 252.0384 100.94734 L 256.4232 99.095027 L 261.4344 96.69895 L 267.6984 93.42127 L 289.6224 81.668628 L 295.8864 78.69169 L 301.524 76.25092 L 307.1616 74.049907 L 312.7992 72.0892 L 318.4368 70.3605 L 324.0744 68.84952 L 330.3384 67.40428 L 336.6024 66.1791 L 343.4928 65.05326 L 351.0096 64.05105 L 359.1528 63.185815 L 368.5488 62.41578 L 379.1976 61.770818 L 391.7256 61.23856 L 407.3856 60.808046 L 427.4304 60.491678 L 433.1931 60.432126 "/>
</g>
<path transform="matrix(1,0,0,-1,0,285.93)" stroke-width="3" stroke-linecap="square" stroke-miterlimit="10" stroke-linejoin="miter" fill="none" stroke="#f3f3f3" d="M 44.7 24.246876 L 44.7 257.5269 "/>
<path transform="matrix(1,0,0,-1,0,285.93)" stroke-width="3" stroke-linecap="square" stroke-miterlimit="10" stroke-linejoin="miter" fill="none" stroke="#f3f3f3" d="M 420.54 24.246876 L 420.54 257.5269 "/>
<path transform="matrix(1,0,0,-1,0,285.93)" stroke-width="3" stroke-linecap="square" stroke-miterlimit="10" stroke-linejoin="miter" fill="none" stroke="#f3f3f3" d="M 44.7 24.246876 L 420.54 24.246876 "/>
<path transform="matrix(1,0,0,-1,0,285.93)" stroke-width="3" stroke-linecap="square" stroke-miterlimit="10" stroke-linejoin="miter" fill="none" stroke="#f3f3f3" d="M 44.7 257.5269 L 420.54 257.5269 "/>
<symbol id="font_1_73">
<path transform="matrix(.001,0,0,.001,-.054,.013)" d="M 443 531 L 443 446 C 417 458 391 468 364 475 C 336 481 308 485 279 485 C 234 485 200 478 178 464 C 156 450 145 430 145 403 C 145 382 153 366 169 354 C 185 342 217 330 265 320 L 296 313 C 360 299 405 279 432 255 C 458 230 472 195 472 151 C 472 100 452 60 412 31 C 372 1 316 -13 246 -13 C 216 -13 186 -10 154 -5 C 122 0 89 8 54 20 L 54 113 C 87 95 120 82 152 74 C 184 65 216 61 248 61 C 290 61 323 68 346 82 C 368 96 380 117 380 144 C 380 168 371 187 355 200 C 339 213 303 226 247 238 L 216 245 C 160 257 119 275 95 299 C 70 323 58 356 58 399 C 58 450 76 490 112 518 C 148 546 200 560 268 560 C 301 560 332 557 362 552 C 391 547 418 540 443 531 "/>
</symbol>
<symbol id="font_1_69">
<path transform="matrix(.001,0,0,.001,-.094000007,0)" d="M 94 547 L 184 547 L 184 0 L 94 0 L 94 547 M 94 760 L 184 760 L 184 646 L 94 646 L 94 760 "/>
</symbol>
<symbol id="font_1_67">
<path transform="matrix(.001,0,0,.001,-.055000005,.20700002)" d="M 454 280 C 454 344 440 395 414 431 C 387 467 349 485 301 485 C 253 485 215 467 188 431 C 161 395 148 344 148 280 C 148 215 161 165 188 129 C 215 93 253 75 301 75 C 349 75 387 93 414 129 C 440 165 454 215 454 280 M 544 68 C 544 -24 523 -93 482 -139 C 440 -184 377 -207 292 -207 C 260 -207 231 -204 203 -200 C 175 -195 147 -188 121 -178 L 121 -91 C 147 -105 173 -115 199 -122 C 225 -129 251 -133 278 -133 C 336 -133 380 -117 410 -87 C 439 -56 454 -10 454 52 L 454 96 C 435 64 411 40 382 24 C 353 8 319 0 279 0 C 211 0 157 25 116 76 C 75 127 55 195 55 280 C 55 364 75 432 116 483 C 157 534 211 560 279 560 C 319 560 353 552 382 536 C 411 520 435 496 454 464 L 454 547 L 544 547 L 544 68 "/>
</symbol>
<symbol id="font_1_6d">
<path transform="matrix(.001,0,0,.001,-.091000009,0)" d="M 520 442 C 542 482 569 511 600 531 C 631 550 668 560 711 560 C 767 560 811 540 842 500 C 873 460 889 403 889 330 L 889 0 L 799 0 L 799 327 C 799 379 789 418 771 444 C 752 469 724 482 686 482 C 639 482 602 466 575 435 C 548 404 535 362 535 309 L 535 0 L 445 0 L 445 327 C 445 379 435 418 417 444 C 398 469 369 482 331 482 C 285 482 248 466 221 435 C 194 404 181 362 181 309 L 181 0 L 91 0 L 91 547 L 181 547 L 181 462 C 201 495 226 520 255 536 C 283 552 317 560 357 560 C 397 560 430 550 458 530 C 486 510 506 480 520 442 "/>
</symbol>
<symbol id="font_1_6f">
<path transform="matrix(.001,0,0,.001,-.055000005,.013)" d="M 306 484 C 258 484 220 465 192 427 C 164 389 150 338 150 273 C 150 207 163 156 191 118 C 219 80 257 62 306 62 C 354 62 392 80 420 118 C 448 156 462 207 462 273 C 462 337 448 389 420 427 C 392 465 354 484 306 484 M 306 560 C 384 560 445 534 490 484 C 534 433 557 363 557 273 C 557 183 534 113 490 63 C 445 12 384 -13 306 -13 C 227 -13 165 12 121 63 C 77 113 55 183 55 273 C 55 363 77 433 121 484 C 165 534 227 560 306 560 "/>
</symbol>
<symbol id="font_1_64">
<path transform="matrix(.001,0,0,.001,-.055000005,.013)" d="M 454 464 L 454 760 L 544 760 L 544 0 L 454 0 L 454 82 C 435 49 411 25 382 10 C 353 -5 319 -13 279 -13 C 213 -13 159 13 117 65 C 75 117 55 187 55 273 C 55 359 75 428 117 481 C 159 533 213 560 279 560 C 319 560 353 552 382 536 C 411 520 435 496 454 464 M 148 273 C 148 207 161 155 188 117 C 215 79 253 61 301 61 C 348 61 385 79 413 117 C 440 155 454 207 454 273 C 454 339 440 390 413 428 C 385 466 348 485 301 485 C 253 485 215 466 188 428 C 161 390 148 339 148 273 "/>
</symbol>
<use xlink:href="#font_1_73" transform="matrix(20.16,0,0,-20.16,194.13051,22.665186)"/>
<use xlink:href="#font_1_69" transform="matrix(20.16,0,0,-20.16,205.44026,22.403107)"/>
<use xlink:href="#font_1_67" transform="matrix(20.16,0,0,-20.16,210.2585,26.576228)"/>
<use xlink:href="#font_1_6d" transform="matrix(20.16,0,0,-20.16,223.78588,22.403107)"/>
<use xlink:href="#font_1_6f" transform="matrix(20.16,0,0,-20.16,242.69596,22.665186)"/>
<use xlink:href="#font_1_69" transform="matrix(20.16,0,0,-20.16,255.82012,22.403107)"/>
<use xlink:href="#font_1_64" transform="matrix(20.16,0,0,-20.16,260.63838,22.665186)"/>
</g>
</g>
</svg>
