<?xml version="1.0" encoding="UTF-8"?>
<svg xmlns="http://www.w3.org/2000/svg" xmlns:xlink="http://www.w3.org/1999/xlink" width="377.907pt" height="219.576pt" viewBox="0 0 377.907 219.576" version="1.1">
<defs>
<clipPath id="clip1">
  <path d="M 0 0 L 377.90625 0 L 377.90625 219.574219 L 0 219.574219 Z M 0 0 "/>
</clipPath>
</defs>
<g id="surface1">
<g clip-path="url(#clip1)" clip-rule="nonzero">
<path style=" stroke:none;fill-rule:nonzero;fill:rgb(94.099426%,94.099426%,94.099426%);fill-opacity:1;" d="M 0 219.574219 L 377.90625 219.574219 L 377.90625 0 L 0 0 Z M 0 219.574219 "/>
</g>
<path style=" stroke:none;fill-rule:nonzero;fill:rgb(0%,0%,0%);fill-opacity:1;" d="M 209.199219 86.078125 C 210.699219 87.519531 211.449219 89.4375 212.339844 91.214844 C 213.839844 94.117188 215.105469 97.140625 216.710938 99.988281 C 217.933594 102.164062 218.03125 104.617188 218.160156 107.015625 L 218.164062 107.019531 C 218.207031 108.734375 218.15625 110.453125 218.011719 112.164062 C 217.914062 113.71875 217.582031 115.253906 217.039062 116.714844 C 216.347656 118.621094 215.710938 120.546875 215.171875 122.496094 L 215.171875 122.5 C 214.324219 125.09375 213.132812 127.566406 211.621094 129.839844 C 209.445312 133.625 206.878906 137.179688 203.972656 140.4375 C 203.695312 140.71875 203.445312 141.023438 203.222656 141.347656 C 200.460938 145.707031 196.539062 148.652344 191.972656 150.828125 L 191.972656 150.824219 C 188.214844 152.53125 184.285156 153.828125 180.25 154.703125 C 176.515625 155.488281 172.722656 155.953125 168.910156 156.089844 C 165.949219 156.261719 163 156.34375 160.03125 156.34375 L 160.03125 156.347656 C 155.417969 156.289062 150.867188 155.265625 146.671875 153.347656 C 142.988281 151.660156 139.488281 149.597656 136.226562 147.195312 C 134.304688 145.839844 132.640625 144.152344 131.3125 142.207031 C 128.710938 138.410156 126.136719 134.59375 124.667969 130.207031 C 123.765625 127.714844 123.183594 125.117188 122.941406 122.476562 C 122.859375 121.230469 122.582031 120 122.550781 118.726562 C 122.484375 116.078125 122.550781 113.429688 122.511719 110.785156 L 122.515625 110.785156 C 122.492188 108.601562 122.660156 106.425781 123.015625 104.273438 C 123.25 102.652344 123.707031 101.070312 124.382812 99.578125 C 125.367188 97.457031 126.28125 95.304688 127.210938 93.164062 C 128.09375 91.34375 129.070312 89.566406 130.136719 87.839844 C 132.703125 83.265625 136.390625 79.71875 140.472656 76.589844 L 140.46875 76.589844 C 143.6875 74.257812 147.246094 72.429688 151.015625 71.167969 C 152.898438 70.46875 154.847656 69.953125 156.769531 69.351562 C 157.285156 69.867188 158.1875 69.71875 158.597656 70.410156 C 156.8125 71.421875 154.773438 71.671875 152.867188 72.332031 C 148.820312 73.757812 144.976562 75.710938 141.4375 78.136719 C 138.101562 80.386719 135.558594 83.453125 133 86.507812 C 132.761719 86.8125 132.550781 87.140625 132.363281 87.480469 C 130.878906 89.769531 129.582031 92.171875 128.476562 94.664062 C 128.082031 95.765625 127.625 96.839844 127.105469 97.882812 C 125.175781 101.464844 124.183594 105.476562 124.210938 109.546875 C 124.210938 111.183594 124.316406 112.816406 124.269531 114.445312 C 124.191406 117.167969 124.320312 119.898438 124.660156 122.601562 C 125.035156 125.859375 125.886719 129.039062 127.1875 132.046875 C 128.175781 134.296875 129.601562 136.222656 130.765625 138.339844 C 132.5 141.40625 134.898438 144.046875 137.785156 146.0625 C 142.265625 149.320312 147.277344 151.773438 152.597656 153.308594 C 153.640625 153.609375 154.71875 153.789062 155.785156 154.058594 C 156.070312 154.4375 156.546875 154.628906 157.015625 154.546875 L 166.359375 154.546875 C 166.753906 154.574219 167.140625 154.449219 167.441406 154.195312 C 168.855469 153.746094 170.34375 153.570312 171.828125 153.675781 C 175.285156 153.675781 178.578125 152.925781 181.9375 152.175781 C 185.953125 151.230469 189.820312 149.734375 193.425781 147.734375 C 196.441406 146.238281 199.054688 144.046875 201.0625 141.347656 C 202.359375 139.488281 203.816406 137.777344 205.203125 136 C 205.726562 135.324219 206.253906 134.640625 206.703125 133.929688 C 208.0625 131.84375 209.394531 129.738281 210.738281 127.636719 C 211.980469 125.746094 212.90625 123.667969 213.484375 121.476562 C 213.867188 119.976562 214.535156 118.542969 214.984375 117.066406 C 215.515625 115.363281 216.214844 113.691406 216.207031 111.863281 L 216.207031 105.113281 L 216.203125 105.113281 C 216.199219 103.460938 215.769531 101.839844 214.960938 100.402344 C 213.296875 97.574219 212.035156 94.550781 210.519531 91.648438 C 209.722656 90.148438 208.882812 88.648438 208.058594 87.148438 L 208.058594 87.152344 C 208.574219 86.96875 208.988281 86.582031 209.199219 86.078125 "/>
<path style=" stroke:none;fill-rule:nonzero;fill:rgb(0%,0%,0%);fill-opacity:1;" d="M 49.457031 201.203125 C 48.707031 200.730469 47.6875 201.789062 47.09375 200.851562 C 46.636719 200.101562 47.242188 199.351562 47.257812 198.601562 C 47.304688 195.089844 47.386719 191.589844 47.398438 188.101562 C 47.398438 183.429688 47.359375 178.75 47.398438 174.078125 C 47.398438 170.734375 47.527344 167.394531 47.570312 164.050781 C 47.570312 163.195312 47.457031 162.339844 47.441406 161.484375 C 47.382812 158.605469 47.441406 155.722656 47.292969 152.84375 C 47.082031 148.019531 47.332031 143.199219 47.023438 138.375 L 47.027344 138.375 C 46.882812 135.878906 46.882812 133.375 47.027344 130.875 C 47.164062 128.234375 46.96875 125.578125 46.953125 122.933594 L 46.953125 110.785156 C 46.953125 106.285156 46.816406 101.785156 46.8125 97.246094 C 46.8125 94.246094 46.941406 91.171875 46.960938 88.132812 C 46.945312 82.832031 46.9375 77.535156 46.9375 72.234375 C 46.9375 66.078125 46.917969 59.925781 46.878906 53.777344 C 46.878906 49.976562 46.707031 46.171875 46.742188 42.378906 C 46.78125 38.117188 46.863281 33.851562 47.273438 29.628906 C 47.414062 28.128906 47.136719 26.667969 47.601562 25.226562 L 48.488281 23.953125 L 48.488281 23.949219 C 48.875 24.972656 49.007812 26.078125 48.878906 27.164062 C 48.738281 31.453125 48.535156 35.742188 48.480469 40.035156 C 48.4375 47.101562 48.4375 54.195312 48.398438 61.289062 C 48.398438 66.589844 48.292969 71.894531 48.277344 77.1875 C 48.277344 81.46875 48.335938 85.761719 48.335938 90.042969 C 48.335938 92.382812 48.207031 94.714844 48.222656 97.054688 C 48.222656 103.054688 48.3125 109.054688 48.351562 115.054688 C 48.398438 121.757812 48.398438 128.457031 48.480469 135.164062 C 48.578125 142.800781 48.757812 150.441406 48.894531 158.078125 C 48.992188 163.378906 49.121094 168.683594 49.15625 173.984375 C 49.195312 179.285156 49.15625 184.433594 49.15625 189.660156 C 49.15625 192.464844 49.027344 195.277344 49.035156 198.082031 C 49.035156 199.140625 48.832031 200.25 49.449219 201.238281 Z M 49.457031 201.203125 "/>
<path style=" stroke:none;fill-rule:nonzero;fill:rgb(0%,0%,0%);fill-opacity:1;" d="M 319.75 201.359375 C 319.640625 201.25 319.503906 201.167969 319.351562 201.128906 C 317.507812 201.59375 315.675781 201.070312 313.847656 201.039062 C 312.019531 201.007812 310.277344 200.746094 308.484375 200.617188 C 305.996094 200.4375 303.503906 200.28125 300.984375 200.121094 C 297.175781 199.882812 293.355469 199.65625 289.546875 199.371094 C 282.46875 198.90625 275.371094 198.621094 268.277344 198.484375 C 264.527344 198.410156 260.777344 198.246094 257.027344 198.132812 C 251.882812 197.984375 246.738281 197.832031 241.59375 197.71875 C 236.839844 197.613281 232.078125 197.597656 227.34375 197.484375 C 222.199219 197.363281 217.054688 197.574219 211.910156 197.378906 C 208.566406 197.25 205.207031 197.460938 201.851562 197.476562 C 195.925781 197.476562 189.992188 197.476562 184.070312 197.523438 L 184.066406 197.527344 C 181.5625 197.726562 179.039062 197.59375 176.566406 197.136719 C 175.886719 196.964844 175.164062 197.035156 174.527344 197.332031 C 173.953125 197.5625 173.328125 197.652344 172.710938 197.597656 C 172.027344 197.597656 172.027344 197.597656 172.148438 196.53125 C 172.757812 196.410156 173.371094 196.328125 173.988281 196.285156 C 178.273438 196.238281 182.554688 196.210938 186.835938 196.203125 C 195.722656 196.179688 204.605469 196.15625 213.492188 196.144531 C 220.511719 196.144531 227.53125 196.09375 234.542969 196.144531 C 240.460938 196.210938 246.378906 196.429688 252.296875 196.59375 C 259.226562 196.789062 266.164062 197.15625 273.09375 197.164062 C 277.773438 197.164062 282.4375 197.492188 287.117188 197.5625 C 291.316406 197.628906 295.503906 198.066406 299.703125 198.3125 C 303.59375 198.53125 307.484375 198.726562 311.375 198.890625 L 311.371094 198.886719 C 313.9375 198.96875 316.492188 199.21875 319.023438 199.636719 C 319.175781 199.617188 319.320312 199.566406 319.449219 199.484375 C 319.9375 200.09375 319.742188 200.746094 319.75 201.359375 "/>
<path style=" stroke:none;fill-rule:nonzero;fill:rgb(0%,0%,0%);fill-opacity:1;" d="M 172.1875 196.582031 C 172.066406 197.648438 172.066406 197.65625 172.75 197.648438 C 173.367188 197.703125 173.988281 197.613281 174.566406 197.386719 C 175.203125 197.085938 175.921875 197.019531 176.605469 197.191406 C 179.078125 197.648438 181.597656 197.777344 184.105469 197.582031 C 181.058594 197.582031 178.023438 197.628906 174.984375 197.6875 C 169.058594 197.808594 163.132812 197.957031 157.210938 198.085938 C 152.921875 198.175781 148.632812 198.242188 144.339844 198.347656 C 140.050781 198.453125 135.902344 198.347656 131.726562 198.796875 C 127.839844 199.179688 123.949219 199.089844 120.070312 199.480469 C 117.070312 199.789062 114.003906 199.863281 110.964844 200.003906 C 105.121094 200.28125 99.273438 200.394531 93.429688 200.648438 C 84.941406 201.015625 76.441406 201.195312 67.929688 201.847656 C 65.058594 202.066406 62.167969 202.011719 59.296875 202.3125 C 58.519531 202.390625 57.738281 202.375 56.964844 202.269531 C 54.882812 201.9375 52.757812 201.953125 50.679688 202.304688 C 49.742188 202.484375 49.585938 202.304688 49.449219 201.21875 L 49.449219 201.265625 C 50.769531 200.441406 52.253906 200.410156 53.730469 200.425781 C 55.679688 200.425781 57.621094 200.589844 59.566406 200.539062 C 64.566406 200.417969 69.566406 200.253906 74.566406 200.042969 C 80.484375 199.804688 86.394531 199.464844 92.3125 199.234375 C 95.816406 199.097656 99.324219 199.097656 102.8125 198.988281 C 105.460938 198.898438 108.109375 198.710938 110.746094 198.589844 C 112.148438 198.53125 113.574219 198.65625 114.953125 198.460938 C 118.824219 197.898438 122.746094 198.371094 126.609375 197.710938 L 126.609375 197.707031 C 127.308594 197.644531 128.007812 197.625 128.710938 197.65625 L 139.699219 197.25 C 144.296875 197.078125 148.894531 196.875 153.5 196.738281 C 158.105469 196.601562 162.851562 196.460938 167.53125 196.511719 L 167.53125 196.515625 C 169.082031 196.441406 170.636719 196.464844 172.1875 196.582031 "/>
<path style=" stroke:none;fill-rule:nonzero;fill:rgb(0%,0%,0%);fill-opacity:1;" d="M 158.597656 70.410156 C 158.183594 69.71875 157.277344 69.871094 156.769531 69.351562 L 156.765625 69.351562 C 157.582031 68.902344 158.503906 68.679688 159.4375 68.707031 C 159.757812 68.824219 160.117188 68.742188 160.359375 68.507812 C 161.160156 68.277344 162 68.203125 162.828125 68.289062 C 163.113281 68.375 163.421875 68.292969 163.628906 68.078125 C 165.929688 67.125 168.355469 67.269531 170.761719 67.246094 C 170.917969 67.21875 171.078125 67.242188 171.21875 67.3125 C 172.285156 68.355469 173.550781 67.808594 174.734375 67.746094 C 176.285156 67.664062 177.839844 67.394531 179.390625 67.4375 C 181.949219 67.511719 184.503906 67.765625 186.851562 68.984375 C 190.03125 70.632812 193.226562 72.246094 196.03125 74.519531 C 196.136719 75.367188 196.78125 75.316406 197.382812 75.328125 L 198.367188 75.859375 L 198.371094 75.863281 C 198.269531 76.054688 198.183594 76.253906 198.109375 76.457031 C 198.050781 76.550781 198.046875 76.667969 198.085938 76.773438 C 198.128906 76.875 198.21875 76.953125 198.324219 76.980469 C 198.542969 77.015625 198.75 76.871094 198.789062 76.652344 C 198.828125 76.511719 198.855469 76.367188 198.871094 76.222656 C 199.269531 76.285156 199.617188 76.519531 199.824219 76.859375 L 200.238281 77.175781 L 200.792969 77.453125 C 200.867188 77.566406 200.988281 77.636719 201.121094 77.648438 C 202.714844 78.734375 204.152344 80.03125 205.398438 81.503906 C 205.398438 81.980469 205.785156 82.367188 206.261719 82.367188 L 206.335938 82.425781 L 206.335938 84.675781 L 206.1875 84.816406 L 206.183594 84.820312 C 205.84375 84.679688 205.574219 84.410156 205.433594 84.070312 C 205.472656 83.859375 205.5 83.644531 205.546875 83.433594 C 205.675781 82.839844 205.367188 82.855469 204.96875 83.019531 C 204.832031 83.070312 204.714844 83.148438 204.585938 83.214844 L 201.585938 80.539062 L 201.585938 80.535156 C 201.511719 80.183594 201.199219 79.933594 200.835938 79.945312 L 195.503906 76.546875 C 195.363281 76.308594 195.105469 76.167969 194.828125 76.179688 C 194.707031 76.171875 194.601562 76.085938 194.566406 75.96875 C 194.492188 75.855469 194.371094 75.777344 194.238281 75.757812 C 191.875 74.429688 189.566406 73.035156 187.152344 71.789062 L 187.148438 71.789062 C 185.296875 70.808594 183.246094 70.25 181.148438 70.15625 C 177.667969 70.097656 174.191406 70.300781 170.738281 70.761719 C 170.359375 70.847656 169.976562 70.910156 169.59375 70.949219 C 168.695312 70.949219 167.882812 70.769531 167.671875 69.675781 C 167.535156 68.925781 167.035156 68.925781 166.433594 69.03125 C 166.207031 69.078125 165.976562 69.097656 165.742188 69.136719 C 165.203125 69.195312 164.617188 69.03125 164.160156 69.472656 L 163.066406 69.644531 C 162.675781 69.570312 162.269531 69.625 161.914062 69.804688 C 160.84375 70.167969 159.726562 70.375 158.597656 70.410156 "/>
<path style=" stroke:none;fill-rule:nonzero;fill:rgb(96.099854%,16.099548%,30.599976%);fill-opacity:1;" d="M 302.628906 37.011719 C 302.546875 39.964844 302.628906 40.011719 305.628906 39.9375 C 307.03125 39.9375 308.410156 40.371094 309.820312 40.125 C 309.957031 40.179688 310.058594 40.289062 310.105469 40.425781 C 310.148438 40.574219 310.132812 40.730469 310.066406 40.867188 C 309.699219 41.390625 309.101562 41.703125 308.460938 41.707031 C 307.074219 41.910156 305.679688 42.074219 304.289062 42.246094 C 303.90625 42.292969 303.539062 42.296875 303.117188 42.320312 L 303.121094 42.324219 C 302.21875 42.292969 301.433594 42.933594 301.277344 43.824219 C 300.835938 45.390625 300.300781 46.9375 299.777344 48.488281 C 299.675781 48.886719 299.277344 49.128906 298.878906 49.035156 C 298.644531 49.011719 298.429688 48.894531 298.28125 48.710938 C 298.132812 48.527344 298.066406 48.292969 298.089844 48.0625 C 298.109375 47.90625 298.140625 47.753906 298.179688 47.601562 C 298.359375 46.6875 298.539062 45.773438 298.726562 44.855469 C 298.863281 44.1875 298.832031 43.617188 298.074219 43.355469 L 298.074219 43.359375 C 297.785156 43.269531 297.523438 43.101562 297.324219 42.871094 C 296.527344 41.640625 295.425781 41.695312 294.226562 42.039062 C 293.933594 42.132812 293.636719 42.210938 293.335938 42.269531 C 293.09375 42.320312 292.855469 42.167969 292.800781 41.925781 C 292.722656 41.714844 292.722656 41.480469 292.800781 41.265625 C 293.59375 40.070312 295.0625 39.511719 296.449219 39.886719 C 296.972656 40.015625 297.484375 40.222656 298.007812 40.367188 C 299.027344 40.644531 299.777344 40.367188 299.988281 39.324219 C 300.316406 37.742188 300.65625 36.121094 299.671875 34.585938 L 299.671875 34.582031 C 299.496094 34.367188 299.453125 34.070312 299.5625 33.8125 C 299.675781 33.554688 299.917969 33.382812 300.199219 33.359375 C 300.730469 33.203125 301.304688 33.292969 301.765625 33.601562 C 302.226562 33.914062 302.527344 34.414062 302.582031 34.964844 C 302.644531 35.648438 302.65625 36.332031 302.628906 37.011719 "/>
<path style=" stroke:none;fill-rule:nonzero;fill:rgb(0%,0%,0%);fill-opacity:1;" d="M 48.503906 23.917969 L 47.628906 25.207031 C 47.53125 24.277344 47.53125 23.300781 46.269531 23.078125 C 45.972656 22.984375 45.710938 22.804688 45.519531 22.5625 C 45.277344 22.332031 45.242188 21.960938 45.4375 21.691406 C 45.578125 21.515625 45.773438 21.390625 45.992188 21.339844 C 46.222656 21.300781 46.453125 21.300781 46.683594 21.339844 C 48.136719 21.453125 48.273438 21.339844 48.183594 19.898438 C 48.074219 18.816406 47.910156 17.738281 47.6875 16.671875 C 47.613281 16.238281 47.550781 15.636719 46.988281 15.59375 C 46.425781 15.546875 46.285156 16.089844 46.15625 16.539062 C 45.929688 17.363281 45.742188 18.203125 45.496094 19.023438 C 45.171875 20.082031 44.632812 20.359375 43.546875 20.089844 L 43.546875 20.085938 C 43.320312 20.042969 43.128906 19.898438 43.023438 19.691406 C 42.917969 19.488281 42.910156 19.246094 43.007812 19.035156 C 44.015625 17.367188 44.730469 15.539062 45.121094 13.628906 C 45.246094 13.097656 45.429688 12.582031 45.671875 12.089844 C 45.878906 11.574219 46.339844 11.203125 46.890625 11.109375 C 47.441406 11.011719 48 11.210938 48.371094 11.625 C 48.753906 12.023438 49.011719 12.519531 49.121094 13.058594 C 49.765625 15.707031 50.226562 18.394531 50.5 21.105469 C 50.65625 21.984375 50.21875 22.859375 49.425781 23.265625 C 49.066406 23.398438 48.75 23.621094 48.503906 23.917969 "/>
<path style=" stroke:none;fill-rule:nonzero;fill:rgb(0%,0%,0%);fill-opacity:1;" d="M 94.457031 110.617188 C 93.910156 111.636719 93.585938 111.808594 92.957031 111.277344 C 92.328125 110.746094 91.996094 110.265625 91.503906 109.777344 C 91.195312 109.476562 91.113281 108.792969 90.519531 108.988281 C 89.925781 109.183594 90.191406 109.789062 89.980469 110.1875 L 89.980469 110.191406 C 89.914062 110.332031 89.875 110.484375 89.867188 110.640625 C 89.902344 110.878906 89.820312 111.121094 89.648438 111.289062 C 89.472656 111.457031 89.226562 111.53125 88.988281 111.488281 C 88.511719 111.410156 88.140625 111.03125 88.074219 110.550781 C 87.882812 109.710938 87.910156 108.835938 88.15625 108.007812 C 88.554688 106.5 88.804688 104.957031 88.90625 103.402344 C 88.933594 103.171875 89 102.949219 89.09375 102.734375 C 89.15625 102.445312 89.386719 102.222656 89.675781 102.160156 C 89.964844 102.101562 90.265625 102.21875 90.4375 102.457031 C 90.839844 102.828125 91.117188 103.3125 91.234375 103.847656 C 91.542969 105.054688 91.910156 106.246094 92.269531 107.441406 L 92.265625 107.4375 C 92.28125 107.75 92.503906 108.011719 92.808594 108.082031 C 93.207031 108 93.480469 107.628906 93.4375 107.222656 C 93.4375 106.601562 93.390625 105.976562 93.386719 105.355469 L 93.386719 105.351562 C 93.355469 104.96875 93.371094 104.582031 93.429688 104.199219 C 93.53125 103.992188 93.695312 103.824219 93.902344 103.726562 C 94.1875 103.570312 94.542969 103.648438 94.734375 103.914062 C 95.246094 104.511719 95.492188 105.289062 95.417969 106.074219 C 95.417969 107.074219 95.40625 108.074219 95.378906 109.074219 C 94.851562 109.421875 94.511719 109.988281 94.457031 110.617188 "/>
<path style=" stroke:none;fill-rule:nonzero;fill:rgb(0%,0%,0%);fill-opacity:1;" d="M 81.0625 101.394531 C 81.761719 101.222656 82.5 101.480469 82.9375 102.054688 C 83.066406 102.199219 83.121094 102.394531 83.085938 102.585938 C 83.050781 102.773438 82.929688 102.9375 82.757812 103.027344 C 82.046875 103.335938 81.304688 103.566406 80.589844 103.875 C 79.398438 104.386719 79.195312 104.902344 79.710938 106.035156 C 79.90625 106.460938 80.136719 106.867188 80.339844 107.289062 L 80.34375 107.289062 C 80.734375 108.144531 80.898438 109.082031 80.828125 110.019531 C 80.78125 111.390625 79.882812 112.589844 78.578125 113.019531 C 77.394531 113.601562 75.960938 113.125 75.363281 111.945312 C 74.992188 111.425781 75.027344 110.71875 75.445312 110.234375 C 75.980469 109.683594 76.84375 109.628906 77.449219 110.101562 C 77.632812 110.289062 77.898438 110.375 78.160156 110.332031 C 78.421875 110.292969 78.648438 110.128906 78.765625 109.890625 C 79.253906 109.054688 79.167969 108.007812 78.558594 107.257812 C 78.054688 106.566406 77.480469 105.929688 77.058594 105.203125 C 76.699219 104.523438 76.683594 103.714844 77.019531 103.027344 C 77.355469 102.335938 77.996094 101.847656 78.753906 101.707031 C 79.515625 101.566406 80.289062 101.5 81.0625 101.394531 "/>
<path style=" stroke:none;fill-rule:nonzero;fill:rgb(0%,0%,0%);fill-opacity:1;" d="M 229.699219 139.425781 C 229.558594 139.699219 229.394531 139.964844 229.21875 140.214844 C 228.984375 140.585938 228.605469 140.835938 228.171875 140.902344 C 227.738281 140.96875 227.300781 140.84375 226.96875 140.558594 C 226.21875 139.996094 225.625 139.320312 224.957031 138.699219 C 224.417969 138.933594 224.648438 139.375 224.613281 139.710938 C 224.574219 140.046875 224.613281 140.460938 224.613281 140.875 C 224.667969 141.140625 224.613281 141.417969 224.453125 141.636719 C 224.296875 141.859375 224.054688 142.003906 223.785156 142.042969 C 223.515625 142.078125 223.246094 142 223.035156 141.824219 C 222.828125 141.652344 222.699219 141.398438 222.683594 141.128906 C 222.523438 140.054688 222.453125 138.972656 222.476562 137.886719 C 222.640625 136.582031 222.640625 135.261719 222.476562 133.957031 C 222.371094 133.488281 222.59375 133.003906 223.015625 132.773438 C 223.15625 132.636719 223.351562 132.570312 223.546875 132.589844 C 223.742188 132.605469 223.917969 132.707031 224.035156 132.863281 C 224.890625 134.148438 225.664062 135.488281 226.34375 136.875 C 226.621094 137.390625 226.644531 138.488281 227.574219 138.195312 C 228.203125 137.992188 227.925781 137.109375 227.964844 136.523438 C 228.003906 135.9375 227.917969 135.445312 227.90625 134.894531 C 227.90625 133.808594 227.90625 133.808594 229.347656 133.867188 L 229.34375 133.867188 C 229.601562 134.328125 229.734375 134.84375 229.726562 135.367188 C 229.703125 136.726562 229.710938 138.074219 229.699219 139.425781 "/>
<path style=" stroke:none;fill-rule:nonzero;fill:rgb(96.099854%,16.099548%,30.599976%);fill-opacity:1;" d="M 214.515625 36.007812 C 214.457031 36.136719 214.363281 36.246094 214.246094 36.324219 C 213.789062 36.398438 213.324219 36.429688 212.859375 36.414062 C 211.417969 36.324219 210.128906 36.953125 208.773438 37.246094 C 208.378906 37.339844 208.097656 37.6875 208.089844 38.09375 C 207.859375 39.15625 207.496094 40.1875 207.011719 41.160156 C 206.9375 41.480469 206.636719 41.691406 206.3125 41.648438 C 205.917969 41.570312 205.632812 41.21875 205.636719 40.816406 C 205.621094 40.585938 205.640625 40.351562 205.699219 40.125 C 205.789062 39.75 205.9375 39.375 206.007812 39 C 206.15625 38.152344 205.773438 37.816406 204.996094 38.09375 C 204.628906 38.222656 204.246094 38.394531 203.917969 38.527344 L 203.914062 38.527344 C 203.765625 38.585938 203.613281 38.621094 203.453125 38.625 C 203.058594 38.640625 202.683594 38.441406 202.480469 38.101562 C 202.242188 37.769531 202.292969 37.3125 202.59375 37.035156 C 203.199219 36.324219 204.011719 35.820312 204.917969 35.589844 C 205.648438 35.484375 206.164062 34.820312 206.085938 34.089844 L 206.085938 31.988281 C 206.085938 31.601562 206.121094 31.214844 206.183594 30.832031 C 206.265625 30.433594 206.625 30.152344 207.03125 30.171875 C 207.433594 30.136719 207.8125 30.378906 207.949219 30.757812 C 208.070312 31.125 208.140625 31.503906 208.15625 31.890625 L 208.15625 33.527344 C 208.085938 33.921875 208.207031 34.332031 208.484375 34.628906 C 208.757812 34.921875 209.160156 35.070312 209.558594 35.027344 C 210.796875 35.140625 212.042969 35.167969 213.308594 35.230469 L 213.308594 35.226562 C 213.703125 35.203125 214.085938 35.34375 214.367188 35.617188 C 214.441406 35.738281 214.492188 35.871094 214.515625 36.007812 "/>
<path style=" stroke:none;fill-rule:nonzero;fill:rgb(0%,0%,0%);fill-opacity:1;" d="M 23.6875 20.160156 C 23.6875 19.410156 23.640625 18.601562 23.6875 17.835938 C 23.710938 17.519531 23.867188 17.230469 24.117188 17.039062 C 24.367188 16.847656 24.691406 16.773438 25 16.839844 C 25.484375 16.875 25.851562 17.296875 25.816406 17.785156 C 25.527344 19.085938 25.570312 20.4375 25.9375 21.722656 C 26.015625 22.101562 26.136719 22.46875 26.296875 22.824219 C 26.40625 23.167969 26.667969 23.4375 27.011719 23.554688 C 27.351562 23.671875 27.726562 23.621094 28.023438 23.414062 C 28.304688 23.144531 28.6875 23.007812 29.078125 23.035156 C 29.371094 23.121094 29.566406 23.398438 29.546875 23.699219 C 29.074219 24.539062 28.527344 25.335938 27.425781 25.273438 C 26.324219 25.214844 25.574219 25.339844 25.175781 26.429688 L 25.171875 26.429688 C 25.074219 26.550781 24.945312 26.640625 24.796875 26.695312 C 24.523438 26.859375 24.1875 26.863281 23.910156 26.707031 C 23.628906 26.554688 23.457031 26.261719 23.453125 25.945312 C 23.453125 25.398438 23.542969 24.859375 23.589844 24.308594 C 23.636719 23.761719 23.6875 23.402344 23.640625 22.957031 C 23.703125 22.554688 23.449219 22.167969 23.050781 22.074219 C 22.824219 22.019531 22.589844 22.058594 22.394531 22.183594 C 22.199219 22.308594 22.066406 22.507812 22.023438 22.734375 C 21.875 23.25 21.496094 23.664062 20.996094 23.855469 C 20.496094 24.046875 19.933594 23.992188 19.480469 23.707031 C 19.058594 23.464844 18.886719 22.949219 19.074219 22.5 C 19.449219 21.457031 20.347656 20.6875 21.4375 20.476562 C 22.140625 20.324219 22.847656 20.273438 23.6875 20.160156 "/>
<path style=" stroke:none;fill-rule:nonzero;fill:rgb(0%,0%,0%);fill-opacity:1;" d="M 343.292969 198.292969 C 343.871094 197.96875 344.269531 197.738281 344.679688 197.542969 C 344.980469 197.28125 345.421875 197.253906 345.753906 197.476562 C 346.183594 197.847656 346.324219 198.453125 346.105469 198.976562 C 345.972656 199.257812 345.789062 199.511719 345.566406 199.726562 C 345.28125 199.980469 344.921875 200.152344 344.613281 200.386719 C 343.414062 201.273438 343.472656 201.632812 344.9375 202.359375 L 344.933594 202.359375 C 345.078125 202.40625 345.214844 202.480469 345.332031 202.574219 C 345.441406 202.683594 345.496094 202.828125 345.488281 202.980469 C 345.445312 203.199219 345.320312 203.394531 345.136719 203.527344 C 343.554688 204.136719 342.632812 203.753906 341.808594 202.101562 C 341.757812 201.921875 341.628906 201.769531 341.453125 201.699219 C 341.277344 201.628906 341.078125 201.644531 340.914062 201.742188 C 340.042969 202.070312 339.1875 202.441406 338.296875 202.71875 C 338.140625 202.75 337.980469 202.710938 337.855469 202.617188 C 337.730469 202.519531 337.648438 202.375 337.636719 202.214844 C 337.46875 201.515625 337.75 200.785156 338.34375 200.378906 C 338.667969 200.167969 339.042969 200.035156 339.339844 199.792969 C 339.640625 199.554688 340.136719 199.46875 339.902344 198.953125 C 339.710938 198.703125 339.386719 198.597656 339.085938 198.691406 C 338.847656 198.699219 338.621094 198.605469 338.460938 198.429688 C 338.300781 198.253906 338.222656 198.019531 338.253906 197.785156 C 338.21875 197.140625 338.613281 196.554688 339.21875 196.34375 C 340.585938 195.875 342.09375 196.445312 342.804688 197.699219 Z M 343.292969 198.292969 "/>
<path style=" stroke:none;fill-rule:nonzero;fill:rgb(0%,0%,0%);fill-opacity:1;" d="M 213.953125 138.40625 C 214.515625 138.65625 215.058594 138.941406 215.582031 139.261719 C 215.976562 139.523438 216.222656 139.957031 216.246094 140.429688 C 216.273438 140.902344 216.074219 141.359375 215.710938 141.660156 C 214.761719 142.476562 213.546875 142.914062 212.296875 142.890625 C 211.980469 142.925781 211.667969 142.800781 211.457031 142.5625 C 211.246094 142.320312 211.167969 141.992188 211.246094 141.683594 C 211.453125 141.113281 211.261719 140.472656 210.773438 140.109375 C 210.609375 139.9375 210.523438 139.703125 210.539062 139.464844 C 210.554688 139.226562 210.664062 139.007812 210.851562 138.855469 C 211.273438 138.398438 211.707031 137.964844 212.105469 137.484375 L 212.101562 137.484375 C 212.3125 137.289062 212.445312 137.019531 212.46875 136.734375 C 212.273438 136.253906 211.839844 136.53125 211.480469 136.597656 C 211.109375 136.6875 210.726562 136.710938 210.347656 136.671875 C 210.035156 136.589844 209.8125 136.3125 209.792969 135.992188 C 209.703125 135.679688 209.863281 135.355469 210.167969 135.242188 C 211.324219 134.8125 212.503906 134.453125 213.699219 134.160156 C 214.710938 133.941406 215.550781 135.226562 215.117188 136.238281 C 214.824219 136.914062 214.40625 137.574219 213.953125 138.40625 M 213.382812 140.851562 L 213.386719 140.851562 C 213.488281 140.859375 213.589844 140.824219 213.667969 140.753906 C 213.742188 140.683594 213.789062 140.585938 213.789062 140.484375 C 213.730469 140.347656 213.613281 140.246094 213.46875 140.214844 C 213.25 140.167969 213.023438 140.167969 212.808594 140.214844 C 212.683594 140.269531 212.59375 140.378906 212.566406 140.511719 C 212.636719 140.644531 212.757812 140.738281 212.898438 140.785156 C 213.054688 140.828125 213.21875 140.851562 213.386719 140.851562 Z M 213.382812 140.851562 "/>
<path style=" stroke:none;fill-rule:nonzero;fill:rgb(0%,0%,0%);fill-opacity:1;" d="M 319.75 201.359375 C 319.75 200.746094 319.953125 200.09375 319.457031 199.558594 L 319.457031 199.5625 C 319.316406 199.09375 319.464844 198.589844 319.832031 198.269531 C 320.207031 198.480469 320.492188 198.074219 320.84375 198.132812 L 320.84375 198.136719 C 321.117188 198.6875 321.261719 199.292969 321.273438 199.90625 C 321.445312 202 321.867188 202.207031 323.792969 201.277344 L 323.996094 201.171875 C 324.3125 201.023438 324.53125 200.71875 324.5625 200.367188 C 324.59375 200.015625 324.4375 199.675781 324.152344 199.472656 C 323.570312 198.96875 322.863281 198.628906 322.105469 198.488281 L 322.40625 197.867188 C 322.5625 197.597656 322.539062 197.261719 322.34375 197.019531 C 322.042969 196.710938 321.78125 196.972656 321.59375 197.199219 C 321.105469 197.761719 320.46875 197.550781 319.875 197.582031 L 319.878906 197.582031 C 319.527344 197.164062 319.445312 196.578125 319.667969 196.082031 C 319.691406 195.914062 319.792969 195.769531 319.9375 195.683594 C 320.082031 195.597656 320.261719 195.585938 320.417969 195.644531 C 322.179688 196.207031 323.980469 196.671875 325.433594 197.933594 C 326.4375 198.730469 326.851562 200.058594 326.484375 201.285156 C 326.324219 202.230469 325.664062 203.015625 324.761719 203.332031 C 323.742188 203.699219 322.707031 204.023438 321.664062 204.335938 L 321.664062 204.339844 C 321.195312 204.480469 320.691406 204.261719 320.476562 203.820312 C 319.953125 203.113281 319.695312 202.242188 319.75 201.359375 "/>
<path style=" stroke:none;fill-rule:nonzero;fill:rgb(96.099854%,16.099548%,30.599976%);fill-opacity:1;" d="M 254.378906 40.367188 C 254.734375 40.363281 255.066406 40.546875 255.257812 40.847656 C 255.648438 41.4375 255.851562 42.132812 255.835938 42.839844 L 255.835938 44.476562 C 255.832031 45.046875 256.277344 45.523438 256.847656 45.554688 C 257.53125 45.683594 258.210938 45.84375 258.878906 46.035156 C 259.101562 46.136719 259.203125 46.394531 259.113281 46.621094 C 259.078125 46.769531 258.984375 46.894531 258.851562 46.964844 C 258.484375 47.078125 258.101562 47.140625 257.71875 47.152344 C 256.421875 47.089844 255.246094 47.90625 254.851562 49.140625 C 254.671875 49.574219 254.535156 50.019531 254.339844 50.445312 L 254.34375 50.445312 C 254.21875 50.742188 253.90625 50.910156 253.59375 50.851562 C 253.1875 50.828125 252.863281 50.503906 252.84375 50.101562 C 252.816406 49.945312 252.816406 49.789062 252.84375 49.636719 C 253.023438 48.886719 252.902344 48.25 251.996094 48.023438 C 251.78125 47.933594 251.597656 47.785156 251.460938 47.597656 C 251.242188 47.371094 251.144531 47.046875 251.203125 46.738281 C 251.265625 46.425781 251.472656 46.164062 251.761719 46.035156 C 251.972656 45.933594 252.199219 45.867188 252.429688 45.832031 C 252.703125 45.808594 252.957031 45.667969 253.125 45.449219 C 253.289062 45.230469 253.355469 44.949219 253.308594 44.679688 L 253.308594 41.632812 C 253.332031 41.328125 253.429688 41.03125 253.59375 40.769531 C 253.738281 40.480469 254.058594 40.316406 254.378906 40.367188 "/>
<path style=" stroke:none;fill-rule:nonzero;fill:rgb(96.099854%,16.099548%,30.599976%);fill-opacity:1;" d="M 252.78125 114.75 C 252.640625 114.886719 252.484375 115.003906 252.308594 115.097656 C 251.492188 115.363281 250.625 115.457031 249.765625 115.367188 C 248.671875 115.308594 247.742188 115.507812 247.328125 116.703125 L 247.328125 116.699219 C 247.257812 116.839844 247.164062 116.964844 247.046875 117.070312 C 246.921875 117.21875 246.734375 117.300781 246.539062 117.292969 C 246.34375 117.28125 246.164062 117.183594 246.054688 117.023438 C 245.863281 116.324219 245.171875 115.886719 244.457031 116.011719 C 244.226562 116.003906 244 115.929688 243.8125 115.792969 C 243.484375 115.566406 243.28125 115.199219 243.265625 114.804688 C 243.242188 114.398438 243.519531 114.039062 243.917969 113.957031 C 244.136719 113.871094 244.359375 113.800781 244.585938 113.738281 C 245.46875 113.5625 246.054688 112.714844 245.898438 111.824219 C 245.847656 110.894531 245.898438 109.949219 245.898438 109.019531 C 245.882812 108.785156 245.972656 108.550781 246.144531 108.386719 C 246.3125 108.21875 246.546875 108.132812 246.78125 108.152344 C 247.019531 108.105469 247.261719 108.160156 247.457031 108.304688 C 247.648438 108.445312 247.777344 108.664062 247.800781 108.902344 C 247.898438 109.75 247.941406 110.605469 247.9375 111.457031 C 247.9375 113.136719 248.003906 113.257812 249.773438 113.382812 L 249.773438 113.386719 C 250.714844 113.449219 251.628906 113.703125 252.46875 114.136719 C 252.703125 114.242188 252.832031 114.496094 252.78125 114.75 "/>
<path style=" stroke:none;fill-rule:nonzero;fill:rgb(0%,0%,0%);fill-opacity:1;" d="M 34.9375 23.28125 C 35.6875 23.234375 35.925781 22.351562 36.625 22.171875 C 36.917969 22.078125 37.234375 22.125 37.488281 22.296875 C 37.628906 22.371094 37.730469 22.507812 37.757812 22.664062 C 37.789062 22.820312 37.742188 22.980469 37.636719 23.101562 C 37.316406 23.628906 37.054688 24.191406 36.851562 24.773438 C 36.632812 25.183594 36.359375 25.5625 36.039062 25.898438 C 34.988281 26.933594 33.878906 26.648438 33.347656 25.253906 C 32.988281 24.316406 33.023438 23.25 32.410156 22.367188 C 32.191406 22.429688 31.96875 22.476562 31.742188 22.507812 C 30.917969 22.582031 30.496094 22.34375 30.316406 21.707031 C 30.253906 21.484375 30.214844 21.253906 30.199219 21.023438 C 30.125 20.027344 30.476562 19.382812 31.203125 19.140625 C 32.035156 18.816406 32.980469 19.128906 33.453125 19.890625 C 33.8125 20.578125 34.113281 21.292969 34.359375 22.027344 C 34.429688 22.492188 34.628906 22.925781 34.9375 23.28125 "/>
<path style=" stroke:none;fill-rule:nonzero;fill:rgb(14.498901%,45.098877%,72.898865%);fill-opacity:1;" d="M 84.574219 59.867188 C 84.347656 59.546875 84.265625 59.148438 84.339844 58.761719 C 84.402344 58.492188 84.597656 58.273438 84.859375 58.179688 C 85.121094 58.085938 85.410156 58.132812 85.628906 58.296875 C 87.625 60.425781 88.449219 62.675781 86.019531 64.949219 C 85.269531 65.679688 84.117188 65.792969 83.238281 65.226562 C 82.0625 64.414062 81.515625 62.957031 81.863281 61.570312 C 82.082031 60.886719 82.714844 60.417969 83.433594 60.414062 C 83.816406 60.453125 84.191406 60.53125 84.558594 60.652344 C 85.082031 61.710938 85.082031 61.710938 84.28125 62.257812 C 84.222656 62.304688 84.132812 62.308594 84.070312 62.347656 C 83.886719 62.414062 83.742188 62.566406 83.691406 62.753906 C 83.640625 62.941406 83.6875 63.144531 83.816406 63.292969 C 84.085938 63.597656 84.546875 63.628906 84.859375 63.367188 C 85.835938 62.714844 86.359375 61.371094 85.316406 60.40625 C 85.078125 60.210938 84.832031 60.03125 84.574219 59.867188 "/>
<path style=" stroke:none;fill-rule:nonzero;fill:rgb(0%,0%,0%);fill-opacity:1;" d="M 234.886719 134.769531 C 235.210938 134.753906 235.46875 134.484375 235.472656 134.160156 C 235.472656 133.546875 235.390625 132.921875 235.332031 132.308594 L 235.328125 132.308594 C 235.261719 132 235.394531 131.683594 235.660156 131.511719 C 236.015625 131.324219 236.449219 131.363281 236.761719 131.617188 C 236.949219 131.757812 237.101562 131.941406 237.203125 132.152344 C 237.457031 132.546875 237.625 132.988281 237.707031 133.449219 C 237.773438 135.558594 237.707031 137.664062 236.5 139.523438 C 236.390625 139.734375 236.199219 139.890625 235.96875 139.953125 C 235.738281 140.015625 235.492188 139.976562 235.292969 139.847656 C 234.683594 139.5 234.128906 139.066406 233.648438 138.554688 C 233.3125 138.195312 232.753906 138.160156 232.375 138.472656 C 232.042969 137.875 232.019531 137.15625 232.316406 136.539062 C 232.472656 136.800781 232.550781 136.921875 232.617188 137.050781 C 233.21875 138.175781 233.238281 138.183594 234.167969 137.441406 L 234.167969 137.4375 C 234.40625 137.261719 234.65625 137.101562 234.917969 136.957031 C 235.796875 136.265625 235.796875 135.710938 234.917969 135.042969 L 234.917969 135.046875 C 234.882812 134.957031 234.871094 134.863281 234.886719 134.769531 "/>
<path style=" stroke:none;fill-rule:nonzero;fill:rgb(14.498901%,45.098877%,72.898865%);fill-opacity:1;" d="M 108.550781 27.796875 C 108.390625 29.152344 107.585938 30.347656 106.390625 31.007812 C 105.730469 31.472656 104.851562 31.472656 104.191406 31.007812 C 103.464844 30.507812 103.136719 29.601562 103.382812 28.757812 C 103.480469 27.722656 104.136719 26.824219 105.09375 26.414062 C 105.683594 26.242188 106.160156 25.8125 106.398438 25.246094 C 106.492188 25.019531 106.699219 24.863281 106.941406 24.839844 C 107.183594 24.8125 107.421875 24.917969 107.558594 25.117188 C 108.339844 25.839844 108.566406 26.339844 108.550781 27.796875 M 105.964844 28.496094 L 105.898438 28.300781 L 105.894531 28.296875 C 105.769531 28.339844 105.652344 28.402344 105.542969 28.476562 C 105.394531 28.617188 105.453125 28.769531 105.664062 28.753906 L 105.664062 28.757812 C 105.78125 28.695312 105.886719 28.605469 105.960938 28.492188 Z M 105.964844 28.496094 "/>
<path style=" stroke:none;fill-rule:nonzero;fill:rgb(0%,0%,0%);fill-opacity:1;" d="M 99.527344 105.367188 C 99.734375 105.601562 99.949219 105.820312 100.179688 106.027344 C 100.515625 106.304688 100.832031 106.851562 101.304688 106.664062 C 101.964844 106.394531 101.632812 105.742188 101.574219 105.246094 L 101.574219 105.25 C 101.445312 104.5625 101.421875 103.863281 101.507812 103.171875 C 101.550781 102.855469 101.785156 102.597656 102.09375 102.519531 C 102.484375 102.457031 102.875 102.632812 103.089844 102.96875 C 103.144531 103.023438 103.183594 103.09375 103.203125 103.171875 C 103.421875 104.671875 103.636719 106.21875 103.824219 107.746094 C 103.839844 108.058594 103.804688 108.371094 103.710938 108.667969 C 103.335938 110.265625 102.585938 110.601562 101.273438 109.6875 C 100.347656 109.125 99.535156 108.390625 98.882812 107.519531 C 98.714844 107.160156 98.308594 106.972656 97.921875 107.078125 C 97.613281 106.449219 98.042969 106.328125 98.507812 106.261719 C 98.765625 106.296875 99.023438 106.21875 99.21875 106.046875 C 99.414062 105.875 99.527344 105.628906 99.527344 105.367188 "/>
<path style=" stroke:none;fill-rule:nonzero;fill:rgb(0%,0%,0%);fill-opacity:1;" d="M 234.886719 134.769531 C 234.878906 134.859375 234.894531 134.953125 234.933594 135.039062 C 234.828125 135.675781 234.371094 136.3125 234.933594 136.953125 L 234.933594 136.949219 C 234.671875 137.09375 234.421875 137.253906 234.183594 137.429688 C 233.253906 138.179688 233.230469 138.179688 232.632812 137.039062 C 232.566406 136.910156 232.484375 136.792969 232.332031 136.527344 L 232.328125 136.53125 C 232.035156 137.148438 232.058594 137.867188 232.390625 138.464844 C 232.488281 138.804688 232.4375 139.167969 232.246094 139.464844 L 230.429688 139.464844 L 230.28125 139.503906 L 230.28125 139.5 C 230.414062 137.625 230.367188 135.738281 230.148438 133.867188 C 230.304688 133.523438 230.488281 133.191406 230.703125 132.878906 C 230.8125 132.710938 230.988281 132.601562 231.183594 132.578125 C 231.382812 132.554688 231.578125 132.621094 231.722656 132.757812 C 232.285156 133.273438 232.78125 133.867188 233.296875 134.429688 C 234.484375 134.078125 234.484375 134.078125 234.886719 134.769531 "/>
<path style=" stroke:none;fill-rule:nonzero;fill:rgb(14.498901%,45.098877%,72.898865%);fill-opacity:1;" d="M 102.355469 58.464844 C 102.355469 58.855469 102.355469 59.214844 102.296875 59.628906 L 102.296875 59.625 C 102.199219 60.472656 101.757812 61.242188 101.074219 61.75 C 100.390625 62.257812 99.527344 62.457031 98.6875 62.304688 C 97.8125 62.183594 97.078125 61.589844 96.78125 60.757812 C 96.445312 59.714844 96.210938 58.613281 97.304688 57.796875 L 97.308594 57.796875 C 97.617188 57.832031 97.898438 58 98.074219 58.257812 C 98.25 58.515625 98.304688 58.835938 98.222656 59.136719 C 98.152344 59.527344 98.308594 59.921875 98.628906 60.152344 C 99.292969 60.40625 100.050781 60.1875 100.472656 59.609375 C 100.632812 59.386719 100.675781 59.097656 100.59375 58.835938 C 100.511719 58.574219 100.3125 58.363281 100.050781 58.269531 C 99.519531 57.960938 98.894531 57.804688 98.867188 57.03125 C 99.855469 55.90625 100.113281 55.855469 100.996094 56.703125 C 101.429688 57.117188 101.804688 57.59375 102.210938 58.046875 L 102.210938 58.042969 C 102.140625 58.199219 102.203125 58.382812 102.355469 58.464844 "/>
<path style=" stroke:none;fill-rule:nonzero;fill:rgb(14.498901%,45.098877%,72.898865%);fill-opacity:1;" d="M 117.527344 84.871094 C 117.527344 83.738281 118.089844 82.6875 118.367188 81.570312 C 118.492188 81.277344 118.8125 81.121094 119.117188 81.203125 C 120.441406 81.449219 121.550781 82.347656 122.074219 83.589844 C 122.734375 85.089844 121.625 86.589844 119.824219 86.851562 C 119.238281 86.984375 118.628906 86.832031 118.175781 86.441406 C 117.722656 86.050781 117.480469 85.46875 117.527344 84.871094 M 119.597656 85.328125 C 120.117188 85.316406 120.542969 84.902344 120.566406 84.382812 C 120.578125 83.921875 120.261719 83.519531 119.816406 83.414062 C 119.433594 83.53125 119.191406 83.898438 119.238281 84.292969 C 119.191406 84.519531 119.191406 84.75 119.238281 84.976562 C 119.261719 85.160156 119.40625 85.304688 119.589844 85.328125 Z M 119.597656 85.328125 "/>
<path style=" stroke:none;fill-rule:nonzero;fill:rgb(14.498901%,45.098877%,72.898865%);fill-opacity:1;" d="M 72.121094 92.324219 C 71.578125 92.34375 71.039062 92.210938 70.570312 91.9375 C 70.042969 91.777344 69.644531 91.335938 69.535156 90.796875 C 69.535156 90.046875 70.128906 90.046875 70.675781 89.957031 C 70.996094 89.945312 71.253906 89.679688 71.253906 89.355469 C 71.191406 88.796875 71.539062 88.277344 72.078125 88.117188 C 72.765625 87.96875 73.484375 88.101562 74.078125 88.476562 C 74.613281 88.808594 74.957031 89.378906 75 90.007812 C 75.039062 90.636719 74.777344 91.246094 74.289062 91.644531 C 74.101562 91.78125 73.902344 91.898438 73.691406 91.996094 C 73.203125 92.234375 72.664062 92.347656 72.121094 92.324219 "/>
<path style=" stroke:none;fill-rule:nonzero;fill:rgb(0%,0%,0%);fill-opacity:1;" d="M 99.527344 105.367188 C 99.527344 105.628906 99.414062 105.875 99.21875 106.046875 C 99.023438 106.21875 98.765625 106.296875 98.507812 106.261719 C 98.042969 106.261719 97.617188 106.449219 97.921875 107.078125 L 97.636719 111.046875 L 97.765625 111.503906 C 97.847656 111.621094 97.847656 111.78125 97.765625 111.902344 L 95.90625 111.84375 L 95.859375 111.273438 L 95.859375 111.269531 C 95.898438 110.503906 95.71875 109.742188 95.34375 109.074219 C 96.046875 107.972656 96.535156 106.824219 95.964844 105.503906 C 96.03125 104.894531 96.0625 104.28125 96.183594 103.679688 C 96.378906 102.742188 97.179688 102.515625 97.878906 103.214844 C 98.574219 103.804688 99.140625 104.539062 99.527344 105.367188 "/>
<path style=" stroke:none;fill-rule:nonzero;fill:rgb(0%,0%,0%);fill-opacity:1;" d="M 106.425781 149.859375 C 106.402344 149.667969 106.402344 149.472656 106.425781 149.28125 C 106.46875 149.136719 106.566406 149.015625 106.699219 148.945312 C 106.835938 148.917969 106.976562 148.957031 107.078125 149.054688 C 107.238281 149.226562 107.367188 149.421875 107.460938 149.632812 C 108.628906 152.429688 110.449219 154.902344 112.773438 156.847656 C 112.960938 157 112.992188 157.273438 112.847656 157.464844 C 112.699219 157.75 112.363281 157.886719 112.058594 157.777344 C 111.914062 157.734375 111.773438 157.664062 111.65625 157.570312 C 110.9375 157.113281 110.265625 156.585938 109.652344 155.992188 C 108.152344 154.238281 106.710938 152.398438 106.433594 149.992188 Z M 106.425781 149.859375 "/>
<path style=" stroke:none;fill-rule:nonzero;fill:rgb(0%,0%,0%);fill-opacity:1;" d="M 129.789062 168.164062 C 127.867188 167.882812 126.011719 167.261719 124.308594 166.328125 C 123.46875 165.902344 122.796875 165.199219 122.410156 164.339844 C 122.324219 164.132812 122.324219 163.898438 122.410156 163.6875 C 122.605469 163.429688 122.953125 163.347656 123.242188 163.492188 C 123.394531 163.53125 123.535156 163.597656 123.65625 163.695312 C 125.472656 165.089844 127.644531 165.742188 129.65625 166.695312 C 130.007812 166.851562 130.40625 166.996094 130.714844 167.175781 L 130.710938 167.175781 C 130.929688 167.28125 131.023438 167.542969 130.921875 167.761719 C 130.800781 167.945312 130.625 168.09375 130.421875 168.179688 C 130.210938 168.203125 130 168.199219 129.789062 168.164062 "/>
<path style=" stroke:none;fill-rule:nonzero;fill:rgb(14.498901%,45.098877%,72.898865%);fill-opacity:1;" d="M 165.863281 50.339844 C 166.078125 49.050781 166.890625 47.9375 168.054688 47.339844 C 168.902344 47.117188 169.773438 47.613281 170.011719 48.457031 C 170.332031 49.785156 169.714844 51.160156 168.511719 51.804688 C 168 52.234375 167.273438 52.304688 166.6875 51.980469 C 166.097656 51.65625 165.773438 51.003906 165.863281 50.339844 M 168.277344 49.484375 C 168.203125 49.304688 168.066406 49.265625 167.941406 49.433594 C 167.8125 49.582031 167.722656 49.765625 167.6875 49.957031 C 167.6875 50.128906 167.867188 50.144531 168.023438 50.015625 L 168.023438 50.019531 C 168.203125 49.902344 168.300781 49.699219 168.28125 49.484375 Z M 168.277344 49.484375 "/>
<path style=" stroke:none;fill-rule:nonzero;fill:rgb(0%,0%,0%);fill-opacity:1;" d="M 351.59375 202.621094 C 351.59375 204.121094 350.84375 205.726562 350.6875 207.421875 C 350.636719 207.738281 350.363281 207.976562 350.042969 207.984375 C 349.648438 208.046875 349.265625 207.832031 349.113281 207.464844 C 348.820312 206.832031 348.714844 206.128906 348.8125 205.441406 C 348.96875 204.214844 349.304688 203.019531 349.808594 201.894531 C 349.933594 201.425781 350.390625 201.128906 350.867188 201.203125 C 351.378906 201.277344 351.625 201.707031 351.59375 202.621094 "/>
<path style=" stroke:none;fill-rule:nonzero;fill:rgb(0%,0%,0%);fill-opacity:1;" d="M 205.53125 52.367188 C 205.519531 52.539062 205.425781 52.699219 205.277344 52.796875 C 205.132812 52.894531 204.949219 52.917969 204.78125 52.859375 C 203.003906 51.953125 200.964844 51.554688 199.433594 50.160156 C 199.261719 50.003906 199.035156 49.851562 199.199219 49.628906 L 199.203125 49.628906 C 199.328125 49.433594 199.535156 49.304688 199.765625 49.285156 C 200.453125 49.382812 201.128906 49.523438 201.796875 49.710938 C 203.125 50.15625 204.34375 50.886719 205.359375 51.847656 C 205.460938 52.003906 205.519531 52.179688 205.53125 52.367188 "/>
<path style=" stroke:none;fill-rule:nonzero;fill:rgb(0%,0%,0%);fill-opacity:1;" d="M 217.34375 58.726562 C 217.257812 58.941406 217.042969 59.078125 216.8125 59.0625 C 216.65625 59.070312 216.503906 59.019531 216.386719 58.921875 C 215.222656 57.503906 213.582031 56.785156 212.082031 55.855469 C 211.828125 55.699219 211.542969 55.511719 211.730469 55.105469 L 211.726562 55.101562 C 211.871094 54.832031 212.175781 54.679688 212.476562 54.734375 C 214.601562 54.949219 216.449219 56.289062 217.308594 58.246094 C 217.351562 58.402344 217.363281 58.566406 217.34375 58.726562 "/>
<path style=" stroke:none;fill-rule:nonzero;fill:rgb(0%,0%,0%);fill-opacity:1;" d="M 143.957031 174.75 C 142.351562 174.472656 140.671875 173.804688 139.832031 171.878906 C 139.589844 171.628906 139.597656 171.226562 139.847656 170.984375 C 140.097656 170.742188 140.496094 170.75 140.738281 171 C 141.910156 172.183594 143.453125 172.753906 144.847656 173.566406 L 144.851562 173.566406 C 145.164062 173.667969 145.34375 173.996094 145.253906 174.316406 C 145.128906 174.609375 144.824219 174.792969 144.503906 174.765625 L 143.957031 174.765625 Z M 143.957031 174.75 "/>
<path style=" stroke:none;fill-rule:nonzero;fill:rgb(0%,0%,0%);fill-opacity:1;" d="M 99.78125 135.457031 C 99.960938 135.570312 100.109375 135.71875 100.226562 135.894531 C 100.445312 136.546875 100.609375 137.222656 100.796875 137.882812 C 101.011719 139.011719 101.324219 140.121094 101.734375 141.195312 C 101.738281 141.339844 101.675781 141.480469 101.558594 141.570312 C 101.425781 141.636719 101.265625 141.636719 101.132812 141.570312 C 100.839844 141.464844 100.578125 141.28125 100.382812 141.039062 C 99.613281 139.707031 99.121094 138.230469 98.933594 136.703125 C 98.871094 136.316406 99.011719 135.921875 99.308594 135.660156 C 99.460938 135.578125 99.621094 135.511719 99.78125 135.457031 "/>
<path style=" stroke:none;fill-rule:nonzero;fill:rgb(0%,0%,0%);fill-opacity:1;" d="M 96.109375 124.484375 C 96.183594 123.875 96.011719 123.082031 96.859375 122.746094 C 97.390625 122.527344 97.855469 123.261719 97.917969 124.472656 L 97.914062 124.472656 C 97.910156 125.558594 98.046875 126.644531 98.320312 127.695312 C 98.382812 127.929688 98.253906 128.175781 98.027344 128.257812 C 97.894531 128.34375 97.730469 128.371094 97.578125 128.335938 C 97.421875 128.296875 97.289062 128.199219 97.210938 128.0625 C 96.585938 126.964844 96.210938 125.746094 96.109375 124.484375 "/>
<path style=" stroke:none;fill-rule:nonzero;fill:rgb(0%,0%,0%);fill-opacity:1;" d="M 86.425781 107.625 C 86.433594 107.859375 86.300781 108.078125 86.085938 108.171875 L 84.144531 108.921875 C 83.019531 109.335938 82.417969 108.988281 82.1875 107.78125 L 82.1875 107.785156 C 82.089844 107.316406 82.347656 106.851562 82.796875 106.6875 C 83.660156 106.339844 84.613281 106.265625 85.523438 106.472656 C 86.058594 106.59375 86.4375 107.078125 86.425781 107.625 "/>
<path style=" stroke:none;fill-rule:nonzero;fill:rgb(0%,0%,0%);fill-opacity:1;" d="M 240.878906 110.460938 C 240.738281 109.492188 240.871094 108.5 241.261719 107.601562 C 241.359375 107.410156 241.539062 107.277344 241.75 107.234375 C 241.957031 107.328125 242.109375 107.507812 242.171875 107.722656 C 242.609375 109.285156 242.5625 110.945312 242.035156 112.476562 C 241.941406 112.800781 241.613281 112.996094 241.285156 112.929688 C 241.101562 112.921875 240.925781 112.835938 240.8125 112.691406 C 240.699219 112.546875 240.65625 112.359375 240.691406 112.179688 C 240.78125 111.601562 240.828125 111.070312 240.878906 110.460938 "/>
<path style=" stroke:none;fill-rule:nonzero;fill:rgb(0%,0%,0%);fill-opacity:1;" d="M 223.898438 152.101562 C 223.964844 151.351562 223.996094 150.765625 224.101562 150.152344 C 224.207031 149.53125 224.515625 148.964844 224.980469 148.539062 C 225.589844 147.953125 226.40625 147.660156 226.59375 148.015625 C 226.917969 148.601562 226.496094 149.058594 226.25 149.515625 L 226.246094 149.511719 C 225.828125 150.171875 225.554688 150.914062 225.445312 151.6875 C 225.375 152.070312 225.246094 152.441406 225.0625 152.785156 C 224.992188 153.023438 224.75 153.164062 224.507812 153.105469 C 224.296875 153.03125 224.121094 152.890625 224.003906 152.699219 C 223.933594 152.507812 223.894531 152.304688 223.898438 152.101562 "/>
<path style=" stroke:none;fill-rule:nonzero;fill:rgb(0%,0%,0%);fill-opacity:1;" d="M 218.597656 160.792969 C 218.527344 160.992188 218.433594 161.175781 218.3125 161.347656 C 217.960938 161.753906 217.5625 162.097656 217.203125 162.511719 C 216.996094 162.792969 216.6875 162.984375 216.339844 163.03125 C 215.992188 163.082031 215.640625 162.988281 215.363281 162.773438 C 215.179688 162.699219 215.039062 162.550781 214.976562 162.363281 C 214.914062 162.171875 214.9375 161.964844 215.042969 161.796875 C 215.488281 160.984375 216.148438 160.304688 216.949219 159.832031 C 217.246094 159.671875 217.605469 159.65625 217.917969 159.785156 C 218.234375 159.914062 218.472656 160.175781 218.574219 160.5 C 218.589844 160.597656 218.597656 160.695312 218.597656 160.792969 "/>
<path style=" stroke:none;fill-rule:nonzero;fill:rgb(0%,0%,0%);fill-opacity:1;" d="M 170.460938 43.515625 C 169.851562 43.515625 169.238281 43.554688 168.632812 43.515625 C 168.308594 43.492188 168.0625 43.210938 168.085938 42.886719 C 168.09375 42.664062 168.203125 42.457031 168.378906 42.324219 C 169.222656 41.984375 170.085938 41.699219 170.964844 41.46875 C 171.738281 41.300781 172.523438 41.71875 172.808594 42.457031 C 172.914062 42.667969 172.914062 42.910156 172.8125 43.117188 C 172.710938 43.324219 172.519531 43.476562 172.292969 43.523438 C 171.683594 43.523438 171.070312 43.472656 170.464844 43.441406 L 170.464844 43.523438 Z M 170.460938 43.515625 "/>
<path style=" stroke:none;fill-rule:nonzero;fill:rgb(0%,0%,0%);fill-opacity:1;" d="M 240.4375 88.207031 C 240.34375 88.402344 240.210938 88.570312 240.046875 88.710938 C 239.851562 88.800781 239.621094 88.800781 239.425781 88.710938 C 238.503906 87.324219 237.234375 86.101562 237.175781 84.277344 C 237.179688 84.125 237.253906 83.984375 237.371094 83.886719 C 237.488281 83.808594 237.640625 83.792969 237.773438 83.84375 C 238.875 85.03125 239.757812 86.40625 240.386719 87.902344 C 240.4375 88.027344 240.4375 88.101562 240.4375 88.207031 "/>
<path style=" stroke:none;fill-rule:nonzero;fill:rgb(0%,0%,0%);fill-opacity:1;" d="M 102.933594 86.429688 C 103.273438 86.417969 103.582031 86.636719 103.683594 86.964844 C 103.789062 87.339844 103.734375 87.742188 103.53125 88.074219 C 102.976562 88.90625 102.398438 89.722656 101.828125 90.550781 L 101.828125 90.546875 C 101.636719 90.796875 101.324219 90.917969 101.011719 90.871094 C 100.898438 90.890625 100.777344 90.859375 100.6875 90.785156 C 100.59375 90.714844 100.539062 90.605469 100.53125 90.488281 C 100.757812 89.035156 101.144531 87.628906 102.355469 86.640625 C 102.535156 86.535156 102.730469 86.464844 102.933594 86.429688 "/>
<path style=" stroke:none;fill-rule:nonzero;fill:rgb(0%,0%,0%);fill-opacity:1;" d="M 156.910156 174.351562 L 158.304688 174.351562 C 158.707031 174.289062 159.085938 174.554688 159.160156 174.953125 C 159.175781 175.273438 158.992188 175.570312 158.703125 175.703125 C 157.605469 176.328125 156.289062 176.4375 155.101562 176.003906 C 154.886719 175.910156 154.710938 175.75 154.59375 175.546875 C 154.375 175.3125 154.339844 174.960938 154.511719 174.691406 C 154.636719 174.503906 154.828125 174.371094 155.050781 174.316406 C 155.664062 174.269531 156.296875 174.316406 156.910156 174.316406 L 156.910156 174.363281 Z M 156.910156 174.351562 "/>
<path style=" stroke:none;fill-rule:nonzero;fill:rgb(0%,0%,0%);fill-opacity:1;" d="M 236.003906 79.089844 C 235.941406 79.25 235.839844 79.394531 235.710938 79.507812 C 235.5 79.589844 235.265625 79.605469 235.046875 79.546875 C 233.5 78.742188 232.519531 77.160156 232.488281 75.421875 C 232.507812 75.269531 232.582031 75.132812 232.699219 75.03125 C 232.789062 74.957031 232.90625 74.925781 233.023438 74.945312 C 233.140625 74.96875 233.238281 75.039062 233.296875 75.144531 C 233.589844 75.496094 233.820312 75.894531 234.097656 76.285156 L 234.101562 76.285156 C 234.566406 77.101562 235.128906 77.855469 235.78125 78.535156 C 235.894531 78.699219 235.972656 78.890625 236.003906 79.089844 "/>
<path style=" stroke:none;fill-rule:nonzero;fill:rgb(0%,0%,0%);fill-opacity:1;" d="M 239.140625 123.511719 C 238.988281 124.648438 238.738281 125.769531 238.390625 126.863281 C 238.351562 127.011719 238.265625 127.144531 238.140625 127.238281 C 237.972656 127.386719 237.761719 127.480469 237.535156 127.5 C 237.324219 127.429688 237.144531 127.292969 237.015625 127.109375 C 236.914062 126.996094 236.859375 126.847656 236.859375 126.691406 C 237.03125 125.191406 237.144531 123.632812 238.300781 122.445312 C 238.464844 122.273438 238.667969 122.085938 238.886719 122.257812 C 239.023438 122.417969 239.117188 122.617188 239.148438 122.828125 C 239.167969 123.054688 239.164062 123.285156 239.140625 123.511719 "/>
<path style=" stroke:none;fill-rule:nonzero;fill:rgb(0%,0%,0%);fill-opacity:1;" d="M 242.117188 100.019531 C 242.066406 100.410156 241.96875 100.640625 241.703125 100.664062 C 241.488281 100.710938 241.261719 100.667969 241.074219 100.546875 C 240.277344 99.21875 239.90625 97.679688 240.015625 96.136719 C 240.007812 95.980469 240.066406 95.828125 240.179688 95.71875 C 240.292969 95.609375 240.445312 95.550781 240.601562 95.566406 C 240.824219 95.597656 241.015625 95.722656 241.136719 95.910156 C 241.636719 97.234375 241.964844 98.613281 242.117188 100.019531 "/>
<path style=" stroke:none;fill-rule:nonzero;fill:rgb(0%,0%,0%);fill-opacity:1;" d="M 223.9375 63.75 C 224.078125 63.714844 224.226562 63.714844 224.363281 63.75 C 225.609375 64.792969 226.726562 65.941406 227.046875 67.621094 L 227.050781 67.621094 C 227.078125 67.84375 227.007812 68.066406 226.855469 68.226562 C 226.671875 68.347656 226.4375 68.363281 226.238281 68.273438 C 225.109375 67.128906 224.214844 65.773438 223.609375 64.285156 C 223.5625 64.046875 223.707031 63.816406 223.9375 63.75 "/>
<path style=" stroke:none;fill-rule:nonzero;fill:rgb(0%,0%,0%);fill-opacity:1;" d="M 108.820312 72.609375 C 109.0625 72.59375 109.28125 72.746094 109.351562 72.976562 C 109.441406 73.265625 109.441406 73.578125 109.351562 73.867188 C 108.933594 74.789062 108.585938 75.738281 108.308594 76.710938 C 108.226562 76.925781 108.0625 77.105469 107.851562 77.207031 C 107.636719 77.277344 107.40625 77.277344 107.191406 77.207031 C 107.058594 77.140625 106.96875 77.007812 106.953125 76.859375 C 107.253906 75.59375 107.1875 74.210938 108.03125 73.109375 C 108.191406 72.820312 108.488281 72.632812 108.820312 72.609375 "/>
<path style=" stroke:none;fill-rule:nonzero;fill:rgb(0%,0%,0%);fill-opacity:1;" d="M 182.941406 172.386719 C 182.460938 172.488281 181.964844 172.386719 181.5625 172.101562 C 181.390625 171.957031 181.273438 171.75 181.234375 171.527344 C 181.261719 171.296875 181.394531 171.089844 181.59375 170.972656 C 182.734375 170.359375 183.992188 170.636719 185.203125 170.558594 C 185.503906 170.558594 185.617188 170.972656 185.503906 171.308594 L 185.5 171.308594 C 185.402344 171.605469 185.179688 171.84375 184.890625 171.960938 C 184.277344 172.234375 183.613281 172.378906 182.941406 172.386719 "/>
<path style=" stroke:none;fill-rule:nonzero;fill:rgb(0%,0%,0%);fill-opacity:1;" d="M 95.90625 111.839844 L 97.765625 111.898438 C 97.367188 113.292969 96.738281 114.628906 96.753906 116.128906 L 96.753906 116.132812 C 96.757812 116.289062 96.6875 116.4375 96.566406 116.539062 C 96.445312 116.636719 96.285156 116.675781 96.128906 116.640625 C 95.9375 116.65625 95.746094 116.589844 95.601562 116.457031 C 95.460938 116.324219 95.378906 116.136719 95.378906 115.945312 C 95.296875 114.554688 95.476562 113.164062 95.90625 111.839844 "/>
<path style=" stroke:none;fill-rule:nonzero;fill:rgb(0%,0%,0%);fill-opacity:1;" d="M 170.058594 173.003906 C 170.242188 172.96875 170.425781 172.953125 170.613281 172.949219 C 170.996094 172.980469 171.308594 173.273438 171.363281 173.65625 C 171.3125 173.96875 171.054688 174.207031 170.738281 174.234375 C 170.0625 174.363281 169.492188 174.847656 168.742188 174.765625 L 168.746094 174.765625 C 168.359375 174.777344 167.988281 174.621094 167.726562 174.339844 C 167.488281 174.128906 167.410156 173.796875 167.523438 173.507812 C 167.640625 173.3125 167.832031 173.175781 168.054688 173.132812 C 168.609375 173.054688 169.1875 173.054688 170.058594 173.003906 "/>
<path style=" stroke:none;fill-rule:nonzero;fill:rgb(0%,0%,0%);fill-opacity:1;" d="M 218.753906 139.5 C 218.308594 139.519531 217.882812 139.300781 217.628906 138.929688 C 217.492188 138.742188 217.445312 138.5 217.5 138.273438 C 217.554688 138.046875 217.707031 137.851562 217.914062 137.746094 C 218.578125 137.542969 219.253906 137.390625 219.941406 137.28125 C 220.261719 137.269531 220.542969 137.496094 220.601562 137.8125 C 220.738281 138.09375 220.6875 138.433594 220.472656 138.660156 C 219.960938 139.246094 219.191406 139.15625 218.753906 139.5 "/>
<path style=" stroke:none;fill-rule:nonzero;fill:rgb(0%,0%,0%);fill-opacity:1;" d="M 127.9375 57.570312 C 127.710938 57.484375 127.566406 57.265625 127.578125 57.023438 C 127.59375 56.714844 127.761719 56.4375 128.019531 56.273438 C 128.894531 55.640625 129.886719 55.191406 130.9375 54.953125 C 131.042969 54.914062 131.164062 54.917969 131.265625 54.972656 C 131.367188 55.023438 131.445312 55.113281 131.476562 55.222656 C 131.507812 55.441406 131.441406 55.660156 131.296875 55.824219 C 130.453125 56.597656 129.457031 57.191406 128.371094 57.5625 C 128.230469 57.59375 128.082031 57.59375 127.9375 57.570312 "/>
<path style=" stroke:none;fill-rule:nonzero;fill:rgb(0%,0%,0%);fill-opacity:1;" d="M 204.804688 167.101562 C 205.003906 167.160156 205.1875 167.257812 205.34375 167.394531 C 205.429688 167.605469 205.429688 167.839844 205.34375 168.054688 C 204.792969 168.800781 204.042969 169.382812 203.183594 169.734375 C 202.722656 169.882812 202.222656 169.652344 202.039062 169.199219 C 201.898438 169.011719 201.847656 168.769531 201.902344 168.539062 C 201.957031 168.308594 202.113281 168.113281 202.324219 168.007812 C 203.183594 167.648438 204.0625 167.371094 204.804688 167.101562 "/>
<path style=" stroke:none;fill-rule:nonzero;fill:rgb(0%,0%,0%);fill-opacity:1;" d="M 117.476562 64.410156 C 117.476562 64.589844 117.425781 64.769531 117.332031 64.921875 C 116.800781 65.46875 116.234375 65.984375 115.636719 66.457031 C 115.507812 66.550781 115.347656 66.582031 115.191406 66.554688 C 115.035156 66.523438 114.898438 66.433594 114.8125 66.300781 C 114.667969 66.125 114.613281 65.894531 114.664062 65.671875 C 115.136719 64.78125 115.640625 63.902344 116.734375 63.625 C 116.949219 63.574219 117.175781 63.644531 117.328125 63.804688 C 117.480469 63.96875 117.535156 64.199219 117.476562 64.410156 "/>
<path style=" stroke:none;fill-rule:nonzero;fill:rgb(0%,0%,0%);fill-opacity:1;" d="M 179.117188 43.652344 C 178.785156 43.625 178.457031 43.554688 178.140625 43.433594 C 177.714844 43.210938 177.542969 42.691406 177.746094 42.257812 C 177.78125 42.066406 177.894531 41.898438 178.058594 41.800781 C 178.222656 41.699219 178.421875 41.675781 178.609375 41.730469 C 178.902344 41.8125 179.1875 41.917969 179.460938 42.046875 C 180.332031 42.390625 180.847656 42.855469 180.683594 43.179688 C 180.363281 43.785156 179.738281 43.523438 179.117188 43.652344 "/>
<path style=" stroke:none;fill-rule:nonzero;fill:rgb(0%,0%,0%);fill-opacity:1;" d="M 193.9375 47.363281 C 193.894531 47.5 193.820312 47.625 193.71875 47.730469 C 193.53125 47.867188 193.3125 47.949219 193.082031 47.972656 C 192.0625 47.902344 191.203125 47.195312 190.9375 46.207031 C 190.921875 45.980469 190.984375 45.753906 191.109375 45.5625 C 191.199219 45.445312 191.34375 45.386719 191.492188 45.398438 C 192.398438 45.820312 193.214844 46.417969 193.890625 47.152344 C 193.917969 47.222656 193.933594 47.292969 193.9375 47.363281 "/>
<path style=" stroke:none;fill-rule:nonzero;fill:rgb(0%,0%,0%);fill-opacity:1;" d="M 155.988281 44.785156 C 155.988281 44.785156 155.6875 44.707031 155.433594 44.617188 C 155.160156 44.476562 155.054688 44.140625 155.191406 43.867188 C 155.921875 43.070312 157.066406 42.792969 158.078125 43.171875 C 158.277344 43.292969 158.414062 43.492188 158.453125 43.71875 C 158.53125 44.03125 158.363281 44.351562 158.066406 44.46875 C 157.414062 44.765625 156.695312 44.871094 155.988281 44.785156 "/>
<path style=" stroke:none;fill-rule:nonzero;fill:rgb(0%,0%,0%);fill-opacity:1;" d="M 145.898438 48.160156 C 145.734375 49.007812 144.949219 49.59375 144.085938 49.507812 C 143.871094 49.4375 143.695312 49.277344 143.597656 49.074219 C 143.503906 48.878906 143.503906 48.652344 143.597656 48.457031 C 144.101562 48.097656 144.632812 47.777344 145.1875 47.507812 C 145.371094 47.488281 145.550781 47.550781 145.6875 47.675781 C 145.824219 47.796875 145.902344 47.972656 145.898438 48.160156 "/>
<path style=" stroke:none;fill-rule:nonzero;fill:rgb(0%,0%,0%);fill-opacity:1;" d="M 230.433594 139.457031 L 232.25 139.457031 L 232.246094 139.457031 C 232.417969 139.972656 232.398438 140.535156 232.195312 141.039062 C 232.09375 141.339844 231.8125 141.542969 231.496094 141.546875 C 231.1875 141.574219 230.886719 141.441406 230.695312 141.195312 C 230.332031 140.691406 230.234375 140.042969 230.433594 139.457031 "/>
<path style=" stroke:none;fill-rule:nonzero;fill:rgb(0%,0%,0%);fill-opacity:1;" d="M 209.199219 86.078125 C 208.980469 86.570312 208.566406 86.945312 208.058594 87.121094 L 206.214844 84.832031 L 206.363281 84.691406 L 208.1875 84.691406 L 208.683594 85.246094 C 208.703125 85.378906 208.78125 85.5 208.890625 85.574219 Z M 209.199219 86.078125 "/>
<path style=" stroke:none;fill-rule:nonzero;fill:rgb(0%,0%,0%);fill-opacity:1;" d="M 208.1875 84.707031 L 206.363281 84.707031 L 206.363281 82.457031 C 207.195312 82.996094 207.832031 83.78125 208.1875 84.707031 "/>
<path style=" stroke:none;fill-rule:nonzero;fill:rgb(0%,0%,0%);fill-opacity:1;" d="M 230.148438 133.851562 C 230.367188 135.722656 230.414062 137.609375 230.28125 139.484375 L 229.695312 139.425781 C 229.695312 138.074219 229.695312 136.71875 229.753906 135.367188 L 229.757812 135.367188 C 229.761719 134.84375 229.632812 134.328125 229.375 133.867188 Z M 230.148438 133.851562 "/>
<path style=" stroke:none;fill-rule:nonzero;fill:rgb(0%,0%,0%);fill-opacity:1;" d="M 319.863281 197.574219 C 320.457031 197.574219 321.101562 197.753906 321.582031 197.191406 C 321.777344 196.964844 322.03125 196.703125 322.332031 197.011719 L 322.328125 197.011719 C 322.523438 197.253906 322.546875 197.589844 322.390625 197.859375 L 322.089844 198.480469 L 320.828125 198.128906 C 320.476562 198.070312 320.191406 198.472656 319.816406 198.265625 Z M 319.863281 197.574219 "/>
<path style=" stroke:none;fill-rule:nonzero;fill:rgb(0%,0%,0%);fill-opacity:1;" d="M 95.972656 105.457031 C 96.542969 106.785156 96.054688 107.925781 95.351562 109.027344 C 95.351562 108.027344 95.363281 107.027344 95.390625 106.027344 Z M 95.972656 105.457031 "/>
<path style=" stroke:none;fill-rule:nonzero;fill:rgb(0%,0%,0%);fill-opacity:1;" d="M 95.34375 109.066406 C 95.71875 109.734375 95.898438 110.496094 95.859375 111.261719 C 95.695312 111.128906 95.550781 110.972656 95.441406 110.789062 C 95.195312 110.167969 94.839844 110.355469 94.457031 110.617188 C 94.5 109.992188 94.828125 109.421875 95.34375 109.066406 "/>
<path style=" stroke:none;fill-rule:nonzero;fill:rgb(0%,0%,0%);fill-opacity:1;" d="M 197.402344 75.339844 C 196.792969 75.339844 196.15625 75.339844 196.050781 74.53125 C 196.539062 74.707031 197.125 74.777344 197.402344 75.339844 "/>
<path style=" stroke:none;fill-rule:nonzero;fill:rgb(0%,0%,0%);fill-opacity:1;" d="M 198.878906 76.207031 C 198.863281 76.351562 198.835938 76.496094 198.796875 76.636719 C 198.757812 76.855469 198.550781 77.003906 198.332031 76.964844 C 198.226562 76.9375 198.136719 76.859375 198.09375 76.757812 C 198.054688 76.652344 198.058594 76.539062 198.113281 76.441406 C 198.191406 76.238281 198.277344 76.039062 198.378906 75.847656 C 198.613281 75.820312 198.832031 75.976562 198.878906 76.207031 "/>
<path style=" stroke:none;fill-rule:nonzero;fill:rgb(0%,0%,0%);fill-opacity:1;" d="M 206.265625 82.382812 C 205.792969 82.382812 205.40625 81.996094 205.40625 81.519531 C 205.792969 81.683594 206.101562 81.992188 206.265625 82.382812 "/>
<path style=" stroke:none;fill-rule:nonzero;fill:rgb(0%,0%,0%);fill-opacity:1;" d="M 163.644531 68.078125 C 163.4375 68.292969 163.128906 68.375 162.84375 68.289062 C 163.023438 68.03125 163.363281 67.941406 163.644531 68.078125 "/>
<path style=" stroke:none;fill-rule:nonzero;fill:rgb(0%,0%,0%);fill-opacity:1;" d="M 160.382812 68.507812 C 160.132812 68.753906 159.765625 68.832031 159.4375 68.707031 C 159.683594 68.457031 160.054688 68.378906 160.382812 68.507812 "/>
<path style=" stroke:none;fill-rule:nonzero;fill:rgb(0%,0%,0%);fill-opacity:1;" d="M 201.128906 77.664062 C 200.996094 77.652344 200.875 77.582031 200.800781 77.46875 C 200.871094 77.441406 200.949219 77.445312 201.011719 77.484375 C 201.078125 77.523438 201.121094 77.589844 201.128906 77.664062 "/>
<path style=" stroke:none;fill-rule:nonzero;fill:rgb(0%,0%,0%);fill-opacity:1;" d="M 200.246094 77.191406 L 199.832031 76.875 Z M 200.246094 77.191406 "/>
<path style=" stroke:none;fill-rule:nonzero;fill:rgb(0%,0%,0%);fill-opacity:1;" d="M 208.9375 85.582031 C 208.824219 85.507812 208.75 85.386719 208.726562 85.253906 C 208.878906 85.296875 208.996094 85.375 208.9375 85.582031 "/>
<path style=" stroke:none;fill-rule:nonzero;fill:rgb(0%,0%,0%);fill-opacity:1;" d="M 97.765625 111.503906 L 97.636719 111.046875 C 97.714844 111.132812 97.78125 111.230469 97.839844 111.332031 C 97.832031 111.394531 97.804688 111.453125 97.765625 111.503906 "/>
<path style=" stroke:none;fill-rule:nonzero;fill:rgb(0%,0%,0%);fill-opacity:1;" d="M 155.792969 154.019531 L 167.441406 154.15625 C 167.140625 154.410156 166.753906 154.535156 166.359375 154.507812 L 157.023438 154.507812 C 156.554688 154.589844 156.078125 154.402344 155.792969 154.019531 "/>
<path style=" stroke:none;fill-rule:nonzero;fill:rgb(0%,0%,0%);fill-opacity:1;" d="M 205.464844 84.082031 C 205.078125 83.929688 204.769531 83.625 204.617188 83.234375 C 204.746094 83.167969 204.871094 83.09375 205 83.039062 C 205.40625 82.875 205.703125 82.859375 205.578125 83.453125 C 205.539062 83.65625 205.503906 83.867188 205.464844 84.082031 "/>
<path style=" stroke:none;fill-rule:nonzero;fill:rgb(0%,0%,0%);fill-opacity:1;" d="M 165.84375 69.160156 C 165.386719 69.492188 164.8125 69.617188 164.261719 69.496094 C 164.6875 69.054688 165.300781 69.210938 165.84375 69.160156 "/>
<path style=" stroke:none;fill-rule:nonzero;fill:rgb(0%,0%,0%);fill-opacity:1;" d="M 163.1875 69.667969 C 162.84375 69.882812 162.421875 69.941406 162.03125 69.824219 C 162.390625 69.648438 162.796875 69.59375 163.1875 69.667969 "/>
<path style=" stroke:none;fill-rule:nonzero;fill:rgb(0%,0%,0%);fill-opacity:1;" d="M 195.578125 76.5625 C 195.296875 76.609375 195.019531 76.457031 194.90625 76.195312 C 195.179688 76.183594 195.441406 76.324219 195.578125 76.5625 "/>
<path style=" stroke:none;fill-rule:nonzero;fill:rgb(0%,0%,0%);fill-opacity:1;" d="M 201.648438 80.550781 L 200.898438 79.957031 C 201.257812 79.949219 201.570312 80.199219 201.648438 80.550781 "/>
<path style=" stroke:none;fill-rule:nonzero;fill:rgb(0%,0%,0%);fill-opacity:1;" d="M 194.640625 75.984375 C 194.496094 76.007812 194.351562 75.917969 194.3125 75.773438 C 194.449219 75.792969 194.566406 75.867188 194.640625 75.984375 "/>
<path style=" stroke:none;fill-rule:nonzero;fill:rgb(0%,0%,0%);fill-opacity:1;" d="M 213.386719 140.851562 C 213.222656 140.871094 213.058594 140.871094 212.898438 140.851562 C 212.757812 140.808594 212.636719 140.710938 212.566406 140.582031 C 212.59375 140.449219 212.683594 140.335938 212.808594 140.28125 C 213.023438 140.234375 213.25 140.234375 213.46875 140.28125 C 213.613281 140.3125 213.730469 140.414062 213.789062 140.550781 C 213.753906 140.742188 213.578125 140.871094 213.386719 140.851562 "/>
<path style=" stroke:none;fill-rule:nonzero;fill:rgb(0%,0%,0%);fill-opacity:1;" d="M 234.941406 136.957031 C 234.371094 136.320312 234.828125 135.683594 234.941406 135.042969 C 235.816406 135.707031 235.816406 136.253906 234.941406 136.957031 "/>
<path style=" stroke:none;fill-rule:nonzero;fill:rgb(0%,0%,0%);fill-opacity:1;" d="M 105.960938 28.492188 C 105.882812 28.605469 105.777344 28.695312 105.65625 28.757812 C 105.445312 28.757812 105.386719 28.628906 105.535156 28.480469 L 105.535156 28.476562 C 105.644531 28.402344 105.761719 28.339844 105.886719 28.296875 Z M 105.960938 28.492188 "/>
<path style=" stroke:none;fill-rule:nonzero;fill:rgb(96.099854%,16.099548%,30.599976%);fill-opacity:1;" d="M 181.984375 105.617188 C 181.355469 105.65625 180.742188 105.84375 180.199219 106.15625 C 179.121094 106.621094 178.527344 106.304688 178.203125 105.660156 C 177.941406 105.144531 178.203125 104.722656 179.207031 104.054688 C 179.984375 103.535156 180.855469 103.179688 181.773438 103.007812 C 182.007812 102.96875 182.214844 102.832031 182.339844 102.628906 C 182.464844 102.429688 182.496094 102.183594 182.425781 101.957031 C 182.199219 101.050781 182.101562 100.121094 182.140625 99.1875 C 182.101562 98.707031 182.417969 98.265625 182.890625 98.152344 C 183.363281 98.058594 183.847656 98.265625 184.105469 98.679688 C 184.625 99.367188 184.933594 100.1875 184.996094 101.046875 C 184.996094 102.246094 185.609375 102.683594 186.644531 102.875 L 186.648438 102.878906 C 187.175781 103.007812 187.695312 103.171875 188.199219 103.375 C 188.597656 103.410156 188.914062 103.726562 188.949219 104.125 C 188.882812 104.519531 188.515625 104.796875 188.117188 104.746094 C 187.351562 104.769531 186.589844 104.910156 185.867188 105.164062 C 185.476562 105.273438 185.222656 105.648438 185.265625 106.050781 C 185.265625 106.515625 185.414062 106.964844 185.453125 107.429688 C 185.542969 108.199219 185.59375 108.972656 185.605469 109.75 C 185.578125 110.132812 185.464844 110.507812 185.273438 110.84375 C 185.109375 111.214844 184.703125 111.417969 184.308594 111.332031 C 183.90625 111.28125 183.617188 110.917969 183.65625 110.511719 C 183.714844 109.085938 183.132812 107.773438 182.972656 106.386719 C 182.894531 105.910156 182.464844 105.574219 181.984375 105.617188 "/>
<path style=" stroke:none;fill-rule:nonzero;fill:rgb(0%,0%,0%);fill-opacity:1;" d="M 171.558594 82.109375 C 171.601562 82.8125 171.46875 83.515625 171.167969 84.152344 C 170.417969 85.601562 169.667969 87.054688 168.917969 88.523438 C 168.78125 88.890625 168.535156 89.203125 168.210938 89.421875 C 168.035156 89.550781 167.816406 89.605469 167.597656 89.582031 C 167.402344 89.464844 167.273438 89.269531 167.238281 89.046875 C 167.230469 88.664062 167.28125 88.28125 167.378906 87.910156 C 167.816406 86.25 168.4375 84.640625 169.226562 83.117188 C 170.179688 81.183594 169.300781 80.777344 167.578125 80.695312 L 167.574219 80.695312 C 167.109375 80.722656 166.644531 80.78125 166.1875 80.875 C 165.296875 80.964844 164.738281 81.265625 164.828125 82.335938 C 164.804688 82.570312 164.652344 82.769531 164.433594 82.851562 C 164.214844 82.933594 163.96875 82.890625 163.796875 82.734375 C 162.566406 81.714844 162.5 80.207031 163.796875 79.382812 C 165.566406 78.167969 167.839844 77.96875 169.796875 78.847656 C 171.042969 79.421875 171.761719 80.753906 171.558594 82.109375 "/>
<path style=" stroke:none;fill-rule:nonzero;fill:rgb(96.099854%,16.099548%,30.599976%);fill-opacity:1;" d="M 170.558594 124.824219 C 170.542969 124.96875 170.488281 125.109375 170.402344 125.226562 C 168.902344 125.742188 168.625 126.882812 168.59375 128.332031 C 168.59375 129.40625 168.382812 130.484375 168.367188 131.578125 L 168.371094 131.582031 C 168.363281 131.902344 168.152344 132.183594 167.84375 132.277344 C 167.65625 132.34375 167.449219 132.328125 167.269531 132.238281 C 167.089844 132.152344 166.957031 131.996094 166.890625 131.804688 C 166.753906 131.445312 166.667969 131.066406 166.628906 130.679688 C 166.515625 129.988281 166.441406 129.292969 166.335938 128.601562 C 166.253906 128.078125 166.441406 127.460938 166 127.054688 C 165.558594 126.648438 164.988281 127.121094 164.5 127.195312 L 164.5 127.199219 C 164.269531 127.222656 164.035156 127.222656 163.800781 127.199219 C 163.527344 127.179688 163.277344 127.019531 163.152344 126.773438 C 163.023438 126.527344 163.035156 126.230469 163.179688 125.992188 C 163.496094 125.453125 163.988281 125.035156 164.574219 124.808594 C 164.925781 124.660156 165.324219 124.628906 165.699219 124.507812 C 165.972656 124.464844 166.21875 124.316406 166.378906 124.09375 C 166.542969 123.867188 166.609375 123.589844 166.5625 123.316406 C 166.5625 122.851562 166.40625 122.394531 166.367188 121.9375 C 166.308594 121.53125 166.558594 121.148438 166.953125 121.042969 C 167.324219 120.886719 167.753906 120.984375 168.023438 121.285156 C 168.285156 121.570312 168.464844 121.917969 168.550781 122.296875 C 168.699219 123.375 169.121094 124.179688 170.277344 124.441406 L 170.273438 124.441406 C 170.402344 124.539062 170.5 124.671875 170.558594 124.824219 "/>
<path style=" stroke:none;fill-rule:nonzero;fill:rgb(14.498901%,45.098877%,72.898865%);fill-opacity:1;" d="M 136.636719 104.109375 C 136.722656 103.730469 136.769531 103.34375 136.78125 102.953125 C 136.707031 102.253906 137.066406 101.96875 137.53125 101.5 C 138.910156 100.203125 140.480469 100.667969 141.894531 100.898438 C 143.761719 101.183594 144.4375 103.957031 143.164062 105.457031 C 142.054688 106.683594 140.445312 107.335938 138.796875 107.226562 C 137.296875 107.175781 136.734375 106.476562 136.644531 105.027344 C 136.621094 104.640625 136.636719 104.25 136.636719 104.109375 M 139.636719 102.25 C 139.492188 102.289062 139.359375 102.355469 139.238281 102.445312 C 138.40625 103.398438 138.0625 104.800781 138.625 105.144531 C 139.503906 105.691406 140.261719 105.046875 141.003906 104.71875 C 141.746094 104.390625 142.1875 103.707031 141.964844 103.316406 L 141.960938 103.3125 C 141.671875 102.9375 141.167969 102.796875 140.726562 102.96875 C 140.328125 103.011719 139.949219 102.789062 139.796875 102.421875 C 139.75 102.355469 139.699219 102.292969 139.636719 102.242188 Z M 139.636719 102.25 "/>
<path style=" stroke:none;fill-rule:nonzero;fill:rgb(0%,0%,0%);fill-opacity:1;" d="M 169.800781 113.597656 C 169.871094 114.324219 169.433594 115.003906 168.746094 115.246094 C 168.167969 115.480469 167.582031 115.679688 167 115.875 L 166.996094 115.875 C 166.140625 116.039062 165.261719 115.761719 164.65625 115.132812 C 164.054688 114.507812 163.804688 113.621094 163.996094 112.769531 C 164.125 112.007812 164.554688 111.324219 165.191406 110.882812 C 165.722656 110.558594 166.179688 110.132812 166.691406 109.796875 L 166.691406 109.792969 C 167.023438 109.507812 167.46875 109.398438 167.898438 109.492188 C 168.324219 109.585938 168.683594 109.875 168.863281 110.273438 C 169.429688 111.292969 169.753906 112.429688 169.800781 113.597656 "/>
<path style=" stroke:none;fill-rule:nonzero;fill:rgb(0%,0%,0%);fill-opacity:1;" d="M 168.910156 96.886719 L 168.910156 97.222656 C 168.871094 98.054688 168.488281 98.617188 167.972656 98.617188 C 167.34375 98.542969 166.820312 98.09375 166.660156 97.476562 C 166.660156 97.402344 166.621094 97.328125 166.601562 97.25 L 166.601562 97.253906 C 166.390625 96.648438 166.589844 95.976562 167.09375 95.582031 C 167.367188 95.417969 167.707031 95.417969 167.980469 95.582031 C 168.539062 95.769531 168.914062 96.296875 168.910156 96.886719 "/>
</g>
</svg>
