<?xml version="1.0" encoding="UTF-8" standalone="no"?>
<!DOCTYPE svg PUBLIC "-//W3C//DTD SVG 1.1//EN" "http://www.w3.org/Graphics/SVG/1.1/DTD/svg11.dtd">
<svg xmlns="http://www.w3.org/2000/svg" xmlns:xlink="http://www.w3.org/1999/xlink" version="1.1" width="455.8181pt" height="285.18pt" viewBox="0 0 455.8181 285.18">
<g enable-background="new">
<g>
<path transform="matrix(1,0,0,-1,0,285.18)" d="M 0 0 L 455.8181 0 L 455.8181 285.18 L 0 285.18 Z " fill="#f3f3f3"/>
<path transform="matrix(1,0,0,-1,0,285.18)" d="M 72.77812 44.7 L 448.61814 44.7 L 448.61814 277.98 L 72.77812 277.98 Z " fill="#f3f3f3"/>
<clipPath id="cp0">
<path transform="matrix(1,0,0,-1,0,285.18)" d="M 72.77812 44.7 L 448.6181 44.7 L 448.6181 277.98 L 72.77812 277.98 Z "/>
</clipPath>
<g clip-path="url(#cp0)">
<path transform="matrix(1,0,0,-1,0,285.18)" stroke-width="1" stroke-linecap="butt" stroke-linejoin="round" fill="none" stroke="#d5d5d5" d="M 89.86176 44.7 L 89.86176 277.98 "/>
</g>
<symbol id="font_1_31">
<path transform="matrix(.001,0,0,.001,-.11000001,0)" d="M 124 83 L 285 83 L 285 639 L 110 604 L 110 694 L 284 729 L 383 729 L 383 83 L 544 83 L 544 0 L 124 0 L 124 83 "/>
</symbol>
<symbol id="font_1_30">
<path transform="matrix(.001,0,0,.001,-.066,.013)" d="M 318 664 C 267 664 229 639 203 589 C 177 539 165 464 165 364 C 165 264 177 189 203 139 C 229 89 267 64 318 64 C 369 64 407 89 433 139 C 458 189 471 264 471 364 C 471 464 458 539 433 589 C 407 639 369 664 318 664 M 318 742 C 399 742 461 709 505 645 C 548 580 570 486 570 364 C 570 241 548 147 505 83 C 461 19 399 -13 318 -13 C 236 -13 173 19 130 83 C 87 147 66 241 66 364 C 66 486 87 580 130 645 C 173 709 236 742 318 742 "/>
</symbol>
<use xlink:href="#font_1_31" transform="matrix(14,0,0,-14,88.358798,254.62062)" fill="#686868"/>
<use xlink:href="#font_1_30" transform="matrix(14,0,0,-14,96.6468,254.80263)" fill="#686868"/>
<clipPath id="cp2">
<path transform="matrix(.014,0,0,-.014,75.088329,254.62062)" d="M -1021 -463 L 1794 -463 L 1794 1233 L -1021 1233 Z "/>
</clipPath>
<g clip-path="url(#cp2)">
<path transform="matrix(.014,0,0,-.014,75.088329,254.62062)" d="M 106 355 L 732 355 L 732 272 L 106 272 L 106 355 " fill="#686868"/>
</g>
<clipPath id="cp3">
<path transform="matrix(1,0,0,-1,0,285.18)" d="M 72.77812 44.7 L 448.6181 44.7 L 448.6181 277.98 L 72.77812 277.98 Z "/>
</clipPath>
<g clip-path="url(#cp3)">
<path transform="matrix(1,0,0,-1,0,285.18)" stroke-width="1" stroke-linecap="butt" stroke-linejoin="round" fill="none" stroke="#d5d5d5" d="M 175.36545 44.7 L 175.36545 277.98 "/>
</g>
<symbol id="font_1_35">
<path transform="matrix(.001,0,0,.001,-.07700001,.013)" d="M 108 729 L 495 729 L 495 646 L 198 646 L 198 467 C 212 472 227 476 241 478 C 255 480 270 482 284 482 C 365 482 429 459 477 415 C 525 370 549 310 549 234 C 549 155 524 94 475 51 C 426 8 357 -13 269 -13 C 238 -13 207 -10 175 -6 C 143 -1 111 6 77 17 L 77 116 C 106 100 136 88 168 80 C 199 72 232 69 267 69 C 323 69 368 83 401 113 C 433 143 450 183 450 234 C 450 284 433 324 401 354 C 368 384 323 399 267 399 C 241 399 214 396 188 390 C 162 384 135 375 108 363 L 108 729 "/>
</symbol>
<use xlink:href="#font_1_35" transform="matrix(14,0,0,-14,177.8536,254.80263)" fill="#686868"/>
<clipPath id="cp4">
<path transform="matrix(.014,0,0,-.014,165.04514,254.62062)" d="M -1021 -463 L 1794 -463 L 1794 1233 L -1021 1233 Z "/>
</clipPath>
<g clip-path="url(#cp4)">
<path transform="matrix(.014,0,0,-.014,165.04514,254.62062)" d="M 106 355 L 732 355 L 732 272 L 106 272 L 106 355 " fill="#686868"/>
</g>
<clipPath id="cp5">
<path transform="matrix(1,0,0,-1,0,285.18)" d="M 72.77812 44.7 L 448.6181 44.7 L 448.6181 277.98 L 72.77812 277.98 Z "/>
</clipPath>
<g clip-path="url(#cp5)">
<path transform="matrix(1,0,0,-1,0,285.18)" stroke-width="1" stroke-linecap="butt" stroke-linejoin="round" fill="none" stroke="#d5d5d5" d="M 260.86915 44.7 L 260.86915 277.98 "/>
</g>
<use xlink:href="#font_1_30" transform="matrix(14,0,0,-14,257.34004,254.80263)" fill="#686868"/>
<clipPath id="cp6">
<path transform="matrix(1,0,0,-1,0,285.18)" d="M 72.77812 44.7 L 448.6181 44.7 L 448.6181 277.98 L 72.77812 277.98 Z "/>
</clipPath>
<g clip-path="url(#cp6)">
<path transform="matrix(1,0,0,-1,0,285.18)" stroke-width="1" stroke-linecap="butt" stroke-linejoin="round" fill="none" stroke="#d5d5d5" d="M 346.37284 44.7 L 346.37284 277.98 "/>
</g>
<use xlink:href="#font_1_35" transform="matrix(14,0,0,-14,342.99769,254.80263)" fill="#686868"/>
<clipPath id="cp7">
<path transform="matrix(1,0,0,-1,0,285.18)" d="M 72.77812 44.7 L 448.6181 44.7 L 448.6181 277.98 L 72.77812 277.98 Z "/>
</clipPath>
<g clip-path="url(#cp7)">
<path transform="matrix(1,0,0,-1,0,285.18)" stroke-width="1" stroke-linecap="butt" stroke-linejoin="round" fill="none" stroke="#d5d5d5" d="M 431.8765 44.7 L 431.8765 277.98 "/>
</g>
<use xlink:href="#font_1_31" transform="matrix(14,0,0,-14,424.51026,254.62062)" fill="#686868"/>
<use xlink:href="#font_1_30" transform="matrix(14,0,0,-14,432.79826,254.80263)" fill="#686868"/>
<symbol id="font_8_b2">
<path transform="matrix(.001,0,0,.001,-.045,.010000001)" d="M 123 141 C 123 118 127 97 135 78 C 143 59 155 44 172 32 C 188 20 208 15 230 15 C 244 15 260 18 277 25 C 294 31 310 38 325 46 C 339 54 347 58 347 58 C 351 58 354 56 356 52 C 358 48 359 44 359 40 C 359 36 358 34 356 33 C 314 4 271 -10 229 -10 C 193 -10 161 -2 133 14 C 105 30 83 52 68 82 C 52 111 45 143 45 178 C 45 212 52 245 66 276 C 80 307 99 334 124 358 C 148 381 176 399 208 412 C 239 424 272 431 306 431 L 363 431 C 373 431 378 426 378 416 C 378 410 376 406 372 402 C 368 398 364 396 359 396 L 304 396 C 277 396 253 390 231 378 C 209 366 191 350 177 329 C 162 308 151 285 143 259 L 320 259 C 324 259 328 257 331 254 C 333 251 335 248 335 244 C 335 238 333 234 329 230 C 325 226 321 224 316 224 L 134 224 C 126 189 123 161 123 141 "/>
</symbol>
<use xlink:href="#font_8_b2" transform="matrix(16.8,0,0,-16.8,257.95414,273.8511)" fill="#686868"/>
<clipPath id="cp9">
<path transform="matrix(1,0,0,-1,0,285.18)" d="M 72.77812 44.7 L 448.6181 44.7 L 448.6181 277.98 L 72.77812 277.98 Z "/>
</clipPath>
<g clip-path="url(#cp9)">
<path transform="matrix(1,0,0,-1,0,285.18)" stroke-width="1" stroke-linecap="butt" stroke-linejoin="round" fill="none" stroke="#d5d5d5" d="M 72.77812 55.303636 L 448.61814 55.303636 "/>
</g>
<symbol id="font_1_2e">
<path transform="matrix(.001,0,0,.001,-.10700001,0)" d="M 107 124 L 210 124 L 210 0 L 107 0 L 107 124 "/>
</symbol>
<use xlink:href="#font_1_30" transform="matrix(14,0,0,-14,30.124,235.37868)" fill="#686868"/>
<use xlink:href="#font_1_2e" transform="matrix(14,0,0,-14,39.602,235.19667)" fill="#686868"/>
<use xlink:href="#font_1_30" transform="matrix(14,0,0,-14,43.48,235.37868)" fill="#686868"/>
<use xlink:href="#font_1_30" transform="matrix(14,0,0,-14,52.384,235.37868)" fill="#686868"/>
<use xlink:href="#font_1_30" transform="matrix(14,0,0,-14,61.288,235.37868)" fill="#686868"/>
<clipPath id="cp10">
<path transform="matrix(1,0,0,-1,0,285.18)" d="M 72.77812 44.7 L 448.6181 44.7 L 448.6181 277.98 L 72.77812 277.98 Z "/>
</clipPath>
<g clip-path="url(#cp10)">
<path transform="matrix(1,0,0,-1,0,285.18)" stroke-width="1" stroke-linecap="butt" stroke-linejoin="round" fill="none" stroke="#d5d5d5" d="M 72.77812 108.46239 L 448.61814 108.46239 "/>
</g>
<symbol id="font_1_32">
<path transform="matrix(.001,0,0,.001,-.07300001,0)" d="M 192 83 L 536 83 L 536 0 L 73 0 L 73 83 C 110 121 161 173 226 239 C 290 304 331 346 348 365 C 380 400 402 430 414 455 C 426 479 433 504 433 528 C 433 566 419 598 392 622 C 365 646 330 659 286 659 C 255 659 222 653 188 643 C 154 632 117 616 78 594 L 78 694 C 118 710 155 722 189 730 C 223 738 255 742 284 742 C 359 742 419 723 464 685 C 509 647 532 597 532 534 C 532 504 526 475 515 449 C 504 422 484 390 454 354 C 446 344 420 317 376 272 C 332 227 271 164 192 83 "/>
</symbol>
<use xlink:href="#font_1_30" transform="matrix(14,0,0,-14,30.124,182.21993)" fill="#686868"/>
<use xlink:href="#font_1_2e" transform="matrix(14,0,0,-14,39.602,182.03792)" fill="#686868"/>
<use xlink:href="#font_1_30" transform="matrix(14,0,0,-14,43.48,182.21993)" fill="#686868"/>
<use xlink:href="#font_1_30" transform="matrix(14,0,0,-14,52.384,182.21993)" fill="#686868"/>
<use xlink:href="#font_1_32" transform="matrix(14,0,0,-14,61.385999,182.03792)" fill="#686868"/>
<clipPath id="cp11">
<path transform="matrix(1,0,0,-1,0,285.18)" d="M 72.77812 44.7 L 448.6181 44.7 L 448.6181 277.98 L 72.77812 277.98 Z "/>
</clipPath>
<g clip-path="url(#cp11)">
<path transform="matrix(1,0,0,-1,0,285.18)" stroke-width="1" stroke-linecap="butt" stroke-linejoin="round" fill="none" stroke="#d5d5d5" d="M 72.77812 161.62114 L 448.61814 161.62114 "/>
</g>
<symbol id="font_1_34">
<path transform="matrix(.001,0,0,.001,-.049000004,0)" d="M 378 643 L 129 254 L 378 254 L 378 643 M 352 729 L 476 729 L 476 254 L 580 254 L 580 172 L 476 172 L 476 0 L 378 0 L 378 172 L 49 172 L 49 267 L 352 729 "/>
</symbol>
<use xlink:href="#font_1_30" transform="matrix(14,0,0,-14,30.124,129.06118)" fill="#686868"/>
<use xlink:href="#font_1_2e" transform="matrix(14,0,0,-14,39.602,128.87917)" fill="#686868"/>
<use xlink:href="#font_1_30" transform="matrix(14,0,0,-14,43.48,129.06118)" fill="#686868"/>
<use xlink:href="#font_1_30" transform="matrix(14,0,0,-14,52.384,129.06118)" fill="#686868"/>
<use xlink:href="#font_1_34" transform="matrix(14,0,0,-14,61.05,128.87917)" fill="#686868"/>
<clipPath id="cp12">
<path transform="matrix(1,0,0,-1,0,285.18)" d="M 72.77812 44.7 L 448.6181 44.7 L 448.6181 277.98 L 72.77812 277.98 Z "/>
</clipPath>
<g clip-path="url(#cp12)">
<path transform="matrix(1,0,0,-1,0,285.18)" stroke-width="1" stroke-linecap="butt" stroke-linejoin="round" fill="none" stroke="#d5d5d5" d="M 72.77812 214.77989 L 448.61814 214.77989 "/>
</g>
<symbol id="font_1_36">
<path transform="matrix(.001,0,0,.001,-.07,.013)" d="M 330 404 C 286 404 251 388 225 358 C 199 328 186 286 186 234 C 186 181 199 139 225 109 C 251 79 286 64 330 64 C 374 64 409 79 435 109 C 461 139 474 181 474 234 C 474 286 461 328 435 358 C 409 388 374 404 330 404 M 526 713 L 526 623 C 501 635 476 644 451 650 C 425 656 400 659 376 659 C 310 659 260 637 226 593 C 192 549 172 482 168 394 C 187 422 211 444 240 459 C 269 474 301 482 336 482 C 409 482 467 459 509 415 C 551 371 573 310 573 234 C 573 159 550 99 506 54 C 462 9 403 -13 330 -13 C 246 -13 181 19 137 83 C 92 147 70 241 70 364 C 70 479 97 571 152 639 C 206 707 280 742 372 742 C 396 742 421 739 447 735 C 472 730 498 723 526 713 "/>
</symbol>
<use xlink:href="#font_1_30" transform="matrix(14,0,0,-14,30.124,75.90241)" fill="#686868"/>
<use xlink:href="#font_1_2e" transform="matrix(14,0,0,-14,39.602,75.72041)" fill="#686868"/>
<use xlink:href="#font_1_30" transform="matrix(14,0,0,-14,43.48,75.90241)" fill="#686868"/>
<use xlink:href="#font_1_30" transform="matrix(14,0,0,-14,52.384,75.90241)" fill="#686868"/>
<use xlink:href="#font_1_36" transform="matrix(14,0,0,-14,61.343999,75.90241)" fill="#686868"/>
<clipPath id="cp13">
<path transform="matrix(1,0,0,-1,0,285.18)" d="M 72.77812 44.7 L 448.6181 44.7 L 448.6181 277.98 L 72.77812 277.98 Z "/>
</clipPath>
<g clip-path="url(#cp13)">
<path transform="matrix(1,0,0,-1,0,285.18)" stroke-width="1" stroke-linecap="butt" stroke-linejoin="round" fill="none" stroke="#d5d5d5" d="M 72.77812 267.93864 L 448.61814 267.93864 "/>
</g>
<symbol id="font_1_38">
<path transform="matrix(.001,0,0,.001,-.068,.013)" d="M 318 346 C 271 346 234 333 207 308 C 180 283 167 249 167 205 C 167 161 180 126 207 101 C 234 76 271 64 318 64 C 364 64 401 76 428 102 C 455 127 469 161 469 205 C 469 249 455 283 429 308 C 402 333 365 346 318 346 M 219 388 C 177 398 144 418 120 447 C 96 476 85 511 85 553 C 85 611 105 657 147 691 C 188 725 245 742 318 742 C 390 742 447 725 489 691 C 530 657 551 611 551 553 C 551 511 539 476 515 447 C 491 418 459 398 417 388 C 464 377 501 355 528 323 C 554 291 568 251 568 205 C 568 134 546 80 503 43 C 459 5 398 -13 318 -13 C 237 -13 175 5 132 43 C 89 80 68 134 68 205 C 68 251 81 291 108 323 C 134 355 171 377 219 388 M 183 544 C 183 506 194 476 218 455 C 242 434 275 424 318 424 C 360 424 393 434 417 455 C 441 476 453 506 453 544 C 453 582 441 611 417 632 C 393 653 360 664 318 664 C 275 664 242 653 218 632 C 194 611 183 582 183 544 "/>
</symbol>
<use xlink:href="#font_1_30" transform="matrix(14,0,0,-14,30.124,22.743676)" fill="#686868"/>
<use xlink:href="#font_1_2e" transform="matrix(14,0,0,-14,39.602,22.561676)" fill="#686868"/>
<use xlink:href="#font_1_30" transform="matrix(14,0,0,-14,43.48,22.743676)" fill="#686868"/>
<use xlink:href="#font_1_30" transform="matrix(14,0,0,-14,52.384,22.743676)" fill="#686868"/>
<use xlink:href="#font_1_38" transform="matrix(14,0,0,-14,61.315999,22.743676)" fill="#686868"/>
<symbol id="font_8_70">
<path transform="matrix(.001,0,0,.001,.033,.193)" d="M -24 -193 C -30 -193 -33 -188 -33 -180 C -31 -165 -26 -158 -20 -158 C 0 -158 14 -156 22 -152 C 30 -148 37 -139 42 -124 L 155 325 C 159 337 162 353 162 373 C 162 401 152 416 133 416 C 112 416 96 403 86 378 C 76 353 66 322 57 284 C 57 280 54 278 49 278 L 37 278 C 35 278 34 279 32 281 C 30 283 29 286 29 288 C 36 317 43 342 50 362 C 56 382 67 400 81 417 C 95 433 112 442 134 442 C 156 442 176 435 194 422 C 211 409 222 392 227 370 C 245 391 265 408 287 422 C 309 435 332 442 356 442 C 384 442 408 434 429 419 C 449 404 465 384 475 360 C 485 336 491 310 491 282 C 491 239 480 195 458 149 C 436 103 406 65 369 35 C 331 5 291 -10 248 -10 C 228 -10 211 -4 195 6 C 179 16 166 31 158 49 L 113 -128 C 111 -138 110 -143 110 -145 C 110 -153 132 -158 176 -158 C 182 -158 186 -162 186 -171 C 184 -179 182 -185 180 -188 C 178 -191 175 -193 169 -193 L -24 -193 M 249 15 C 272 15 293 24 313 43 C 333 62 349 84 362 108 C 370 126 379 147 387 173 C 395 199 402 226 408 256 C 414 285 417 308 417 326 C 417 341 415 355 411 369 C 407 382 400 393 391 402 C 381 411 369 416 354 416 C 329 416 306 407 284 390 C 262 372 243 351 226 325 L 226 322 L 171 101 C 175 77 184 56 197 40 C 210 23 227 15 249 15 "/>
</symbol>
<use xlink:href="#font_8_70" transform="matrix(0,-16.8,-16.8,-0,23.03615,138.8944)" fill="#686868"/>
<symbol id="font_e_28">
<path transform="matrix(.001,0,0,.001,-.097,.24900002)" d="M 310 -247 C 272 -217 240 -184 214 -146 C 187 -108 165 -67 148 -25 C 131 17 118 62 110 109 C 101 155 97 202 97 250 C 97 298 101 345 110 392 C 118 438 131 483 149 527 C 166 570 188 611 215 649 C 242 687 274 720 310 748 C 310 749 311 750 315 750 L 324 750 C 326 750 327 749 329 747 C 331 745 332 743 332 741 C 332 738 331 736 330 735 C 297 703 270 668 248 632 C 226 596 209 557 196 516 C 183 474 174 432 168 388 C 162 344 159 298 159 250 C 159 38 215 -122 329 -232 C 331 -234 332 -236 332 -240 C 332 -242 331 -244 329 -246 C 327 -248 326 -249 324 -249 L 315 -249 C 311 -249 310 -248 310 -247 "/>
</symbol>
<use xlink:href="#font_e_28" transform="matrix(0,-16.8,-16.8,-0,23.976952,128.26276)" fill="#686868"/>
<use xlink:href="#font_8_b2" transform="matrix(0,-16.8,-16.8,-0,19.96175,122.61609)" fill="#686868"/>
<symbol id="font_e_29">
<path transform="matrix(.001,0,0,.001,-.056,.24900002)" d="M 65 -249 C 59 -249 56 -246 56 -240 C 56 -237 56 -235 58 -234 C 172 -122 229 38 229 250 C 229 462 172 623 60 733 C 57 734 56 737 56 741 C 56 743 57 745 59 747 C 61 749 63 750 65 750 L 74 750 C 76 750 77 749 79 748 C 127 710 167 664 199 610 C 231 556 254 498 269 437 C 283 376 291 314 291 250 C 291 202 287 156 279 110 C 271 64 258 20 241 -24 C 223 -68 201 -108 175 -146 C 148 -184 116 -217 79 -247 C 77 -248 76 -249 74 -249 L 65 -249 "/>
</symbol>
<use xlink:href="#font_e_29" transform="matrix(0,-16.8,-16.8,-0,23.976952,115.632167)" fill="#686868"/>
<clipPath id="cp15">
<path transform="matrix(1,0,0,-1,0,285.18)" d="M 72.77812 44.7 L 448.6181 44.7 L 448.6181 277.98 L 72.77812 277.98 Z "/>
</clipPath>
<g clip-path="url(#cp15)">
<path transform="matrix(1,0,0,-1,0,285.18)" stroke-width="1.7" stroke-linecap="butt" stroke-linejoin="round" fill="none" stroke="#008fd5" d="M 89.86176 55.303636 L 194.17626 55.40924 L 199.6485 55.65313 L 203.06864 56.00462 L 205.80477 56.49218 L 208.19887 57.150945 L 210.25095 57.957799 L 211.96103 58.854284 L 213.6711 60.0063 L 215.38117 61.470125 L 216.74924 62.908056 L 218.1173 64.62146 L 219.48535 66.648097 L 220.85341 69.027408 L 222.22147 71.79982 L 223.58953 75.00581 L 224.95758 78.68477 L 226.66767 84.00456 L 228.37773 90.18418 L 230.0878 97.27255 L 231.79788 105.29895 L 233.84998 116.17296 L 235.90206 128.35256 L 238.29616 144.04528 L 241.03227 163.51964 L 249.58264 225.87082 L 251.63474 238.60457 L 253.3448 247.81002 L 254.71286 254.06984 L 256.08094 259.22395 L 257.10697 262.30583 L 258.13304 264.67915 L 258.81706 265.85493 L 259.50108 266.69883 L 260.1851 267.2068 L 260.86915 267.37638 L 261.55317 267.2068 L 262.23719 266.69883 L 262.92124 265.85493 L 263.60527 264.67915 L 264.6313 262.30583 L 265.65736 259.22395 L 266.68339 255.46608 L 268.05146 249.4727 L 269.4195 242.45717 L 271.12959 232.44167 L 273.18168 218.95352 L 275.9178 199.29154 L 283.4421 144.04528 L 285.8362 128.35256 L 287.8883 116.17296 L 289.9404 105.29895 L 291.65046 97.27255 L 293.36054 90.18418 L 295.07063 84.00456 L 296.78068 78.68477 L 298.49076 74.16148 L 300.20085 70.36194 L 301.9109 67.20829 L 303.27897 65.09724 L 304.98905 62.908056 L 306.6991 61.14947 L 308.40919 59.752859 L 310.11927 58.65621 L 311.8293 57.804735 L 313.8814 57.040239 L 316.2755 56.417829 L 319.01164 55.958669 L 322.4318 55.628919 L 327.22 55.41778 L 335.42835 55.319437 L 367.91975 55.30364 L 431.5345 55.303636 "/>
</g>
<path transform="matrix(1,0,0,-1,0,285.18)" stroke-width="3" stroke-linecap="square" stroke-miterlimit="10" stroke-linejoin="miter" fill="none" stroke="#f3f3f3" d="M 72.77812 44.7 L 72.77812 277.98 "/>
<path transform="matrix(1,0,0,-1,0,285.18)" stroke-width="3" stroke-linecap="square" stroke-miterlimit="10" stroke-linejoin="miter" fill="none" stroke="#f3f3f3" d="M 448.61814 44.7 L 448.61814 277.98 "/>
<path transform="matrix(1,0,0,-1,0,285.18)" stroke-width="3" stroke-linecap="square" stroke-miterlimit="10" stroke-linejoin="miter" fill="none" stroke="#f3f3f3" d="M 72.77812 44.7 L 448.61814 44.7 "/>
<path transform="matrix(1,0,0,-1,0,285.18)" stroke-width="3" stroke-linecap="square" stroke-miterlimit="10" stroke-linejoin="miter" fill="none" stroke="#f3f3f3" d="M 72.77812 277.98 L 448.61814 277.98 "/>
</g>
</g>
</svg>
