<?xml version="1.0" encoding="UTF-8" standalone="no"?>
<!DOCTYPE svg PUBLIC "-//W3C//DTD SVG 1.1//EN" "http://www.w3.org/Graphics/SVG/1.1/DTD/svg11.dtd">
<svg xmlns="http://www.w3.org/2000/svg" xmlns:xlink="http://www.w3.org/1999/xlink" version="1.1" width="305pt" height="315pt" viewBox="0 0 305 315">
<g enable-background="new">
<path transform="matrix(.1,0,0,-.1,-480,675)" d="M 0 0 L 10240 0 L 10240 7680 L 0 7680 Z " fill="#ffffff"/>
<clipPath id="cp0">
<path transform="matrix(.1,0,0,-.1,-480,675)" d="M 745 3675 L 3755 3675 L 3755 6685 L 745 6685 Z "/>
</clipPath>
<g clip-path="url(#cp0)">
<path transform="matrix(.1,0,0,-.1,-480,675)" d="M 750 5930 L 1500 5930 L 1500 6680 L 750 6680 Z " fill="#0caf3f"/>
<path transform="matrix(.1,0,0,-.1,-480,675)" d="M 1500 5930 L 2250 5930 L 2250 6680 L 1500 6680 Z " fill="#0caf3f"/>
<path transform="matrix(.1,0,0,-.1,-480,675)" d="M 2250 5930 L 3000 5930 L 3000 6680 L 2250 6680 Z " fill="#eed716"/>
<path transform="matrix(.1,0,0,-.1,-480,675)" d="M 3000 5930 L 3750 5930 L 3750 6680 L 3000 6680 Z " fill="#eed716"/>
<path transform="matrix(.1,0,0,-.1,-480,675)" d="M 750 5180 L 1500 5180 L 1500 5930 L 750 5930 Z " fill="#0caf3f"/>
<path transform="matrix(.1,0,0,-.1,-480,675)" d="M 1500 5180 L 2250 5180 L 2250 5930 L 1500 5930 Z " fill="#0caf3f"/>
<path transform="matrix(.1,0,0,-.1,-480,675)" d="M 2250 5180 L 3000 5180 L 3000 5930 L 2250 5930 Z " fill="#eed716"/>
<path transform="matrix(.1,0,0,-.1,-480,675)" d="M 3000 5180 L 3750 5180 L 3750 5930 L 3000 5930 Z " fill="#eed716"/>
<path transform="matrix(.1,0,0,-.1,-480,675)" d="M 750 4430 L 1500 4430 L 1500 5180 L 750 5180 Z " fill="#c0c0c0"/>
<path transform="matrix(.1,0,0,-.1,-480,675)" d="M 1500 4430 L 2250 4430 L 2250 5180 L 1500 5180 Z " fill="#c0c0c0"/>
<path transform="matrix(.1,0,0,-.1,-480,675)" d="M 2250 4430 L 3000 4430 L 3000 5180 L 2250 5180 Z " fill="#2273ba"/>
<path transform="matrix(.1,0,0,-.1,-480,675)" d="M 3000 4430 L 3750 4430 L 3750 5180 L 3000 5180 Z " fill="#2273ba"/>
<path transform="matrix(.1,0,0,-.1,-480,675)" d="M 750 3680 L 1500 3680 L 1500 4430 L 750 4430 Z " fill="#c0c0c0"/>
<path transform="matrix(.1,0,0,-.1,-480,675)" d="M 1500 3680 L 2250 3680 L 2250 4430 L 1500 4430 Z " fill="#c0c0c0"/>
<path transform="matrix(.1,0,0,-.1,-480,675)" d="M 2250 3680 L 3000 3680 L 3000 4430 L 2250 4430 Z " fill="#2273ba"/>
<path transform="matrix(.1,0,0,-.1,-480,675)" d="M 3000 3680 L 3750 3680 L 3750 4430 L 3000 4430 Z " fill="#2273ba"/>
</g>
<clipPath id="cp1">
<path transform="matrix(.1,0,0,-.1,-480,675)" d="M 755 5935 L 1495 5935 L 1495 6675 L 755 6675 Z "/>
</clipPath>
<g clip-path="url(#cp1)">
<symbol id="font_2_3">
<path d="M .24200003 .72800007 C .29200004 .728 .33266668 .7163334 .364 .693 C .396 .6703334 .4206667 .64100006 .43800003 .605 C .456 .5696667 .46800003 .5306667 .47400005 .48800005 C .48066674 .44533337 .48400007 .40400005 .48400004 .36400003 C .48400007 .32400004 .48066674 .28266669 .47400005 .24000001 C .46800003 .19733334 .456 .158 .43800003 .122 C .4206667 .08666667 .396 .05733334 .364 .034 C .33266668 .011333334 .29200004 .0000000009313226 .24200003 .0000000009313226 C .19200002 .0000000009313226 .15100001 .011333334 .119 .034 C .08766667 .05733334 .063 .08666667 .044999999 .122 C .027666668 .158 .015666668 .19733334 .009 .24000001 C .0029999999 .28266669 0 .32400004 0 .36400003 C 0 .40400005 .0029999999 .44533337 .009 .48800005 C .015666668 .5306667 .027666668 .5696667 .044999999 .605 C .063 .64100006 .08766667 .6703334 .119 .693 C .15100001 .7163334 .19200002 .728 .24200003 .72800007 M .24200003 .095 C .26666669 .095 .28733335 .102 .304 .116000007 C .32066668 .13066668 .33366666 .15000002 .343 .17400001 C .35300002 .19866668 .36 .22733335 .364 .26000003 C .368 .29266668 .37 .32733337 .37 .36400003 C .37 .4006667 .368 .43500004 .364 .467 C .36 .4996667 .35300002 .52833339 .343 .55300006 C .33366666 .5776667 .32066668 .59700009 .304 .611 C .28733335 .6256667 .26666669 .633 .24200003 .633 C .21666669 .633 .19566667 .6256667 .179 .611 C .163 .59700009 .15000002 .5776667 .14000002 .55300006 C .13066668 .52833339 .124000009 .4996667 .120000008 .467 C .116000007 .43500004 .114 .4006667 .11400001 .36400003 C .114 .32733337 .116000007 .29266668 .120000008 .26000003 C .124000009 .22733335 .13066668 .19866668 .14000002 .17400001 C .15000002 .15000002 .163 .13066668 .179 .116000007 C .19566667 .102 .21666669 .095 .24200003 .095 Z "/>
</symbol>
<use xlink:href="#font_2_3" transform="matrix(22,0,0,-22,-373.208,53.308)"/>
</g>
<clipPath id="cp3">
<path transform="matrix(.1,0,0,-.1,-480,675)" d="M 1505 5935 L 2245 5935 L 2245 6675 L 1505 6675 Z "/>
</clipPath>
<g clip-path="url(#cp3)">
<symbol id="font_4_3">
<path d="M .31800003 0 L .31800003 .70000007 L .20500002 .70000007 C .20100002 .67333337 .19266667 .651 .18 .633 C .16733335 .615 .15166669 .6003334 .13300002 .58900007 C .11500001 .5783334 .09433334 .57066676 .07100001 .56600007 C .048333344 .56200006 .024666673 .5603333 0 .56100007 L 0 .45400004 L .176 .45400004 L .176 0 L .31800003 0 Z "/>
</symbol>
<symbol id="font_4_2">
<path d="M .142 .36600004 C .142 .37800003 .142 .39233337 .142 .40900005 C .14266669 .42633335 .14400001 .44400005 .14600002 .46200005 C .148 .48000003 .15133333 .4976667 .156 .51500007 C .16066669 .53300008 .16700001 .549 .17500001 .563 C .18366666 .5770001 .19433336 .58833339 .20700002 .59700009 C .22033334 .6056667 .23666668 .61 .256 .61 C .27533338 .61 .2916667 .6056667 .305 .59700009 C .31833337 .58833339 .32933335 .5770001 .33800004 .563 C .3466667 .549 .35300002 .53300008 .35700003 .51500007 C .36166669 .4976667 .365 .48000003 .367 .46200005 C .3696667 .44400005 .37100003 .42633335 .37100003 .40900005 C .37166668 .39233337 .372 .37800003 .372 .36600004 C .372 .34600006 .37133337 .3216667 .37000004 .293 C .36866669 .26500003 .36433337 .23766668 .35700003 .21100001 C .35033337 .185 .33900003 .16266668 .323 .14400001 C .3076667 .12533336 .28533338 .11600002 .256 .11600001 C .22733335 .11600002 .20533335 .12533336 .19000001 .14400001 C .17466669 .16266668 .16333334 .185 .156 .21100001 C .14933335 .23766668 .14533335 .26500003 .14400001 .293 C .14266669 .3216667 .142 .34600006 .142 .36600004 M 0 .36600004 C 0 .296 .0066666665 .23733334 .02 .19 C .033999999 .14333333 .052666669 .106000009 .076000008 .07800001 C .09933334 .05 .12633334 .030000002 .157 .018000002 C .18833335 .0060000007 .22133334 0 .256 0 C .29133336 0 .32433335 .0060000007 .35500003 .018000002 C .38633336 .030000002 .4136667 .05 .43700005 .07800001 C .46100006 .106000009 .47966669 .14333333 .493 .19 C .507 .23733334 .514 .296 .514 .36600004 C .514 .43400003 .507 .49100004 .493 .53700008 C .47966669 .58366677 .46100006 .62100008 .43700005 .64900007 C .4136667 .67700007 .38633336 .697 .35500003 .70900008 C .32433335 .721 .29133336 .72700008 .256 .72700008 C .22133334 .72700008 .18833335 .721 .157 .70900008 C .12633334 .697 .09933334 .67700007 .076000008 .64900007 C .052666669 .62100008 .033999999 .58366677 .02 .53700008 C .0066666665 .49100004 0 .43400003 0 .36600004 Z "/>
</symbol>
<use xlink:href="#font_4_3" transform="matrix(22,0,0,-22,-303.372,53)"/>
<use xlink:href="#font_4_2" transform="matrix(22,0,0,-22,-292.306,53.286)"/>
<path transform="matrix(.1,0,0,-.1,-480,675)" stroke-width="11" stroke-linecap="butt" stroke-miterlimit="10" stroke-linejoin="miter" fill="none" stroke="#000000" d="M 1752.68 6197.12 L 1997.32 6197.12 "/>
</g>
<clipPath id="cp5">
<path transform="matrix(.1,0,0,-.1,-480,675)" d="M 2255 5935 L 2995 5935 L 2995 6675 L 2255 6675 Z "/>
</clipPath>
<g clip-path="url(#cp5)">
<symbol id="font_4_6">
<path d="M .24900002 .35000003 C .23100002 .35000003 .21500002 .3536667 .20100002 .36100004 C .18766667 .36900006 .17666668 .37900005 .16800002 .39100004 C .15933335 .4036667 .15266669 .41766668 .14800002 .43300004 C .14400001 .44900004 .142 .46533338 .142 .48200003 C .142 .49800004 .14433335 .5136667 .149 .52900007 C .15366668 .5443334 .16066668 .558 .17000002 .57000008 C .17933335 .5820001 .19066668 .5916667 .20400001 .59900006 C .21733333 .6063333 .23233335 .61 .24900002 .61 C .26700003 .61 .28300003 .6063333 .29700003 .59900006 C .31100003 .5916667 .32266668 .5816667 .33200003 .56900009 C .342 .5570001 .34933339 .54300007 .35400004 .527 C .35933338 .5116667 .36200003 .49600003 .36200003 .48000003 C .36200003 .46266667 .35966669 .446 .35500003 .43000005 C .35033337 .41466669 .34333337 .40100003 .33400003 .38900004 C .3246667 .377 .31300003 .36733333 .29900003 .36 C .28500004 .35333336 .26833336 .35000003 .24900002 .35000003 M .14700002 .193 L .011999998 .193 C .015999999 .16233333 .024333334 .135 .037 .111 C .049666674 .087000008 .06600001 .06666667 .08600001 .05 C .106000009 .033333336 .12900001 .021 .15500002 .013 C .18100001 .0043333338 .209 0 .23900002 0 C .289 0 .33133338 .0106666679 .36600004 .032 C .40066669 .054 .42900003 .082333337 .45100004 .117 C .47300003 .15233334 .489 .19166668 .49900005 .23500002 C .509 .27833335 .514 .3216667 .514 .36500005 C .514 .40900005 .51 .45266668 .502 .49600003 C .49400006 .5393334 .4796667 .57800009 .45900003 .61200007 C .43833337 .6466667 .4106667 .6743334 .37600003 .69500008 C .342 .7163334 .29833336 .72700008 .245 .72700008 C .20833333 .72700008 .17500001 .7203334 .14500001 .707 C .11500001 .6936667 .08900001 .6753333 .067 .65200009 C .045666666 .6293334 .029 .60233339 .017 .57100006 C .005666667 .54033336 0 .507 0 .47100006 C 0 .44300006 .0043333338 .41533337 .013 .38800005 C .021666667 .36066673 .035333337 .33633337 .054 .31500004 C .07400001 .293 .09833334 .27533338 .127 .26200003 C .15566668 .24933334 .18500002 .24299999 .21500002 .243 C .24900002 .24299999 .279 .249 .305 .261 C .331 .273 .3536667 .293 .37300004 .32100005 L .37500004 .31900005 C .37366668 .29966668 .3706667 .2776667 .36600004 .25300003 C .36200003 .22833336 .35500003 .205 .34500004 .183 C .33500005 .16166668 .3216667 .14333333 .305 .128 C .28833337 .113333348 .26700006 .106000009 .24100003 .106000009 C .21633335 .106000009 .19566667 .11466667 .179 .132 C .16233336 .14933335 .15166669 .16966667 .14700002 .193 Z "/>
</symbol>
<use xlink:href="#font_4_6" transform="matrix(22,0,0,-22,-223.538,53.286)"/>
<path transform="matrix(.1,0,0,-.1,-480,675)" stroke-width="11" stroke-linecap="butt" stroke-miterlimit="10" stroke-linejoin="miter" fill="none" stroke="#000000" d="M 2563.84 6197.12 L 2686.16 6197.12 "/>
</g>
<clipPath id="cp6">
<path transform="matrix(.1,0,0,-.1,-480,675)" d="M 3005 5935 L 3745 5935 L 3745 6675 L 3005 6675 Z "/>
</clipPath>
<g clip-path="url(#cp6)">
<symbol id="font_2_6">
<path d="M .19700001 .42400003 C .21566667 .42333333 .23433335 .42466668 .25300003 .42800004 C .27166669 .4313334 .28833337 .43700005 .30300004 .44500003 C .31766669 .4536667 .32933335 .46533338 .33800004 .48000003 C .34733335 .4946667 .35200004 .5126667 .35200004 .53400006 C .35200004 .564 .3416667 .588 .32100005 .606 C .30100004 .624 .27500005 .633 .24300002 .633 C .223 .633 .20566668 .629 .19100002 .62100008 C .17633336 .61300006 .16399999 .602 .154 .588 C .14466667 .5746667 .13766666 .5593333 .133 .542 C .12833333 .52533337 .12633334 .508 .127 .49 L .013000002 .49 C .014333335 .524 .020666669 .5553334 .031999999 .58400008 C .043333334 .6133334 .058666666 .6386667 .078 .66 C .09800001 .68133339 .12200001 .698 .15 .71000006 C .17800002 .72200009 .20966667 .728 .24500002 .72800007 C .27233336 .728 .29900003 .72400006 .32500003 .716 C .3516667 .708 .3753334 .6963334 .39600004 .68100008 C .41733337 .66566678 .43433336 .6460001 .44700004 .62200006 C .4596667 .59866669 .466 .57166668 .46600003 .541 C .466 .5056667 .45800004 .47466669 .44200004 .448 C .42600004 .42200003 .40100003 .403 .36700005 .391 L .36700005 .38900004 C .40700007 .381 .43800006 .36100004 .46000005 .32900004 C .48266674 .29766668 .49400006 .25933335 .49400006 .214 C .49400006 .18066667 .4873334 .15066667 .474 .124000009 C .4606667 .098 .44266669 .075666669 .42000006 .057000005 C .39733339 .039 .37100006 .025 .34100003 .0150000019 C .31100003 .0050000015 .27933336 .0000000009313226 .246 .0000000009313226 C .20533334 .0000000009313226 .16966667 .0056666678 .139 .017 C .109 .029000005 .08366666 .04566667 .063 .067 C .043 .08833333 .027666666 .114 .016999999 .14400001 C .006333333 .17400001 .0006666668 .20733334 0 .244 L .11400001 .244 C .11266667 .20133335 .123 .16566669 .14500001 .13700001 C .16766668 .109000008 .20133335 .095 .246 .095 C .284 .095 .3156667 .10566667 .34100003 .127 C .367 .149 .38000003 .18 .38000003 .22000002 C .38000003 .24733335 .3746667 .26900003 .36400003 .28500004 C .35333336 .30100004 .3393334 .313 .32200004 .321 C .3046667 .3296667 .28500004 .33500005 .263 .337 C .24166668 .339 .21966668 .3396667 .19700001 .33900003 L .19700001 .42400003 Z "/>
</symbol>
<use xlink:href="#font_2_6" transform="matrix(22,0,0,-22,-148.318,53.308)"/>
</g>
<clipPath id="cp7">
<path transform="matrix(.1,0,0,-.1,-480,675)" d="M 755 5185 L 1495 5185 L 1495 5925 L 755 5925 Z "/>
</clipPath>
<g clip-path="url(#cp7)">
<symbol id="font_2_7">
<path d="M .088 .256 L .3 .256 L .3 .564 L .29800005 .564 L .088 .256 M .49800004 .16600001 L .40800003 .16600001 L .40800003 0 L .3 0 L .3 .16600001 L 0 .16600001 L 0 .279 L .3 .70000007 L .40800003 .70000007 L .40800003 .256 L .49800004 .256 L .49800004 .16600001 Z "/>
</symbol>
<use xlink:href="#font_2_7" transform="matrix(22,0,0,-22,-373.472,128)"/>
</g>
<clipPath id="cp8">
<path transform="matrix(.1,0,0,-.1,-480,675)" d="M 1505 5185 L 2245 5185 L 2245 5925 L 1505 5925 Z "/>
</clipPath>
<g clip-path="url(#cp8)">
<use xlink:href="#font_2_6" transform="matrix(22,0,0,-22,-298.318,128.308)"/>
</g>
<clipPath id="cp9">
<path transform="matrix(.1,0,0,-.1,-480,675)" d="M 2255 5185 L 2995 5185 L 2995 5925 L 2255 5925 Z "/>
</clipPath>
<g clip-path="url(#cp9)">
<symbol id="font_2_5">
<path d="M .47800002 0 L 0 0 C .000666668 .058000003 .014666668 .10866668 .042 .15200001 C .06933334 .19533335 .10666666 .233 .154 .26500003 C .17666668 .28166668 .20033334 .2976667 .225 .31300003 C .24966669 .32900004 .27233336 .34600006 .293 .36400003 C .31366668 .38200007 .33066667 .40133337 .344 .42200003 C .35733334 .44333337 .36433337 .46766673 .365 .49500004 C .365 .50766667 .36333335 .52099999 .36 .535 C .35733334 .5496667 .3516667 .563 .34300003 .57500007 C .33433334 .5876667 .32233335 .59800007 .307 .606 C .29166667 .6146667 .27166669 .619 .24700001 .619 C .22433333 .619 .20533334 .61433336 .19000001 .605 C .17533334 .5963333 .16333334 .58400008 .154 .568 C .14533334 .55266669 .13866668 .53433337 .134 .513 C .13000001 .4916667 .12766667 .4686667 .127 .44400005 L .013 .44400005 C .013 .4826667 .018000002 .5183334 .028 .551 C .03866667 .58433338 .05433334 .613 .075 .637 C .09566667 .661 .120666678 .6796667 .15 .693 C .18 .707 .21466668 .71400007 .254 .71400007 C .29666669 .71400007 .33233337 .707 .361 .693 C .38966669 .6790001 .41266669 .6613334 .43 .64000007 C .44800005 .6186667 .4606667 .5953334 .46800003 .57000008 C .47533334 .5453334 .479 .5216667 .479 .499 C .479 .47100006 .47466669 .44566668 .466 .423 C .45733334 .40033338 .44566668 .37933336 .43100003 .36 C .41633336 .34133337 .39966668 .32400004 .381 .30800004 C .36233334 .29200004 .34300003 .277 .323 .263 C .303 .24900002 .28300003 .23566668 .263 .223 C .24300002 .21033335 .22433335 .19766669 .207 .185 C .19033335 .17233335 .17566668 .15900001 .163 .14500001 C .15033335 .13166668 .14166667 .11733333 .13700001 .102000009 L .47800002 .102000009 L .47800002 0 Z "/>
</symbol>
<use xlink:href="#font_2_5" transform="matrix(22,0,0,-22,-223.142,128)"/>
</g>
<clipPath id="cp10">
<path transform="matrix(.1,0,0,-.1,-480,675)" d="M 3005 5185 L 3745 5185 L 3745 5925 L 3005 5925 Z "/>
</clipPath>
<g clip-path="url(#cp10)">
<symbol id="font_2_4">
<path d="M 0 .58400008 C .023999999 .58400008 .04733333 .586 .07 .59000006 C .09266666 .59400007 .113000009 .6006667 .13100001 .61 C .14966668 .6193333 .16533335 .63133338 .178 .646 C .19133334 .6606667 .2 .6786668 .204 .70000007 L .29700003 .70000007 L .29700003 0 L .172 0 L .172 .49400003 L 0 .49400003 L 0 .58400008 Z "/>
</symbol>
<use xlink:href="#font_2_4" transform="matrix(22,0,0,-22,-147.834,128)"/>
</g>
<clipPath id="cp11">
<path transform="matrix(.1,0,0,-.1,-480,675)" d="M 755 4435 L 1495 4435 L 1495 5175 L 755 5175 Z "/>
</clipPath>
<g clip-path="url(#cp11)">
<use xlink:href="#font_4_3" transform="matrix(22,0,0,-22,-378.372,203)"/>
<use xlink:href="#font_4_2" transform="matrix(22,0,0,-22,-367.306,203.286)"/>
<path transform="matrix(.1,0,0,-.1,-480,675)" stroke-width="11" stroke-linecap="butt" stroke-miterlimit="10" stroke-linejoin="miter" fill="none" stroke="#000000" d="M 1002.68 4697.12 L 1247.32 4697.12 "/>
</g>
<clipPath id="cp12">
<path transform="matrix(.1,0,0,-.1,-480,675)" d="M 1505 4435 L 2245 4435 L 2245 5175 L 1505 5175 Z "/>
</clipPath>
<g clip-path="url(#cp12)">
<use xlink:href="#font_2_5" transform="matrix(22,0,0,-22,-298.142,203)"/>
</g>
<clipPath id="cp13">
<path transform="matrix(.1,0,0,-.1,-480,675)" d="M 2255 4435 L 2995 4435 L 2995 5175 L 2255 5175 Z "/>
</clipPath>
<g clip-path="url(#cp13)">
<use xlink:href="#font_4_3" transform="matrix(22,0,0,-22,-228.372,203)"/>
<use xlink:href="#font_4_2" transform="matrix(22,0,0,-22,-217.306,203.286)"/>
<path transform="matrix(.1,0,0,-.1,-480,675)" stroke-width="11" stroke-linecap="butt" stroke-miterlimit="10" stroke-linejoin="miter" fill="none" stroke="#000000" d="M 2502.68 4697.12 L 2747.32 4697.12 "/>
</g>
<clipPath id="cp14">
<path transform="matrix(.1,0,0,-.1,-480,675)" d="M 3005 4435 L 3745 4435 L 3745 5175 L 3005 5175 Z "/>
</clipPath>
<g clip-path="url(#cp14)">
<use xlink:href="#font_2_6" transform="matrix(22,0,0,-22,-148.318,203.308)"/>
</g>
<clipPath id="cp15">
<path transform="matrix(.1,0,0,-.1,-480,675)" d="M 755 3685 L 1495 3685 L 1495 4425 L 755 4425 Z "/>
</clipPath>
<g clip-path="url(#cp15)">
<use xlink:href="#font_2_6" transform="matrix(22,0,0,-22,-373.318,278.308)"/>
</g>
<clipPath id="cp16">
<path transform="matrix(.1,0,0,-.1,-480,675)" d="M 1505 3685 L 2245 3685 L 2245 4425 L 1505 4425 Z "/>
</clipPath>
<g clip-path="url(#cp16)">
<symbol id="font_2_1">
<path d="M 0 .107999999 L .291 .107999999 L .291 0 L 0 0 L 0 .107999999 Z "/>
</symbol>
<use xlink:href="#font_2_1" transform="matrix(22,0,0,-22,-301.922,273.204)"/>
<use xlink:href="#font_2_4" transform="matrix(22,0,0,-22,-293.27604,278)"/>
</g>
<clipPath id="cp17">
<path transform="matrix(.1,0,0,-.1,-480,675)" d="M 2255 3685 L 2995 3685 L 2995 4425 L 2255 4425 Z "/>
</clipPath>
<g clip-path="url(#cp17)">
<use xlink:href="#font_2_1" transform="matrix(22,0,0,-22,-226.922,273.204)"/>
<use xlink:href="#font_2_6" transform="matrix(22,0,0,-22,-218.75998,278.308)"/>
</g>
<clipPath id="cp18">
<path transform="matrix(.1,0,0,-.1,-480,675)" d="M 3005 3685 L 3745 3685 L 3745 4425 L 3005 4425 Z "/>
</clipPath>
<g clip-path="url(#cp18)">
<use xlink:href="#font_2_1" transform="matrix(22,0,0,-22,-151.922,273.204)"/>
<use xlink:href="#font_2_6" transform="matrix(22,0,0,-22,-143.75998,278.308)"/>
</g>
<clipPath id="cp19">
<path transform="matrix(.1,0,0,-.1,-480,675)" d="M 2245 3675 L 2255 3675 L 2255 6685 L 2245 6685 Z "/>
</clipPath>
<g clip-path="url(#cp19)">
<path transform="matrix(.1,0,0,-.1,-480,675)" stroke-width="10" stroke-linecap="butt" stroke-dasharray="20,20" stroke-miterlimit="4" stroke-linejoin="miter" fill="none" stroke="#5d5d5d" d="M 2250 6685 L 2250 3675 "/>
</g>
<clipPath id="cp20">
<path transform="matrix(.1,0,0,-.1,-480,675)" d="M 2995 3675 L 3005 3675 L 3005 6685 L 2995 6685 Z "/>
</clipPath>
<g clip-path="url(#cp20)">
<path transform="matrix(.1,0,0,-.1,-480,675)" stroke-width="10" stroke-linecap="butt" stroke-dasharray="20,20" stroke-miterlimit="4" stroke-linejoin="miter" fill="none" stroke="#5d5d5d" d="M 3000 6685 L 3000 3675 "/>
</g>
<clipPath id="cp21">
<path transform="matrix(.1,0,0,-.1,-480,675)" d="M 745 5175 L 3755 5175 L 3755 5185 L 745 5185 Z "/>
</clipPath>
<g clip-path="url(#cp21)">
<path transform="matrix(.1,0,0,-.1,-480,675)" stroke-width="10" stroke-linecap="butt" stroke-dasharray="20,20" stroke-miterlimit="4" stroke-linejoin="miter" fill="none" stroke="#5d5d5d" d="M 745 5180 L 3755 5180 "/>
</g>
<clipPath id="cp22">
<path transform="matrix(.1,0,0,-.1,-480,675)" d="M 745 4425 L 3755 4425 L 3755 4435 L 745 4435 Z "/>
</clipPath>
<g clip-path="url(#cp22)">
<path transform="matrix(.1,0,0,-.1,-480,675)" stroke-width="10" stroke-linecap="butt" stroke-dasharray="20,20" stroke-miterlimit="4" stroke-linejoin="miter" fill="none" stroke="#5d5d5d" d="M 745 4430 L 3755 4430 "/>
</g>
<clipPath id="cp23">
<path transform="matrix(.1,0,0,-.1,-480,675)" d="M 1495 3675 L 1505 3675 L 1505 6685 L 1495 6685 Z "/>
</clipPath>
<g clip-path="url(#cp23)">
<path transform="matrix(.1,0,0,-.1,-480,675)" stroke-width="10" stroke-linecap="butt" stroke-dasharray="20,20" stroke-miterlimit="4" stroke-linejoin="miter" fill="none" stroke="#5d5d5d" d="M 1500 6685 L 1500 3675 "/>
</g>
<clipPath id="cp24">
<path transform="matrix(.1,0,0,-.1,-480,675)" d="M 745 5925 L 3755 5925 L 3755 5935 L 745 5935 Z "/>
</clipPath>
<g clip-path="url(#cp24)">
<path transform="matrix(.1,0,0,-.1,-480,675)" stroke-width="10" stroke-linecap="butt" stroke-dasharray="20,20" stroke-miterlimit="4" stroke-linejoin="miter" fill="none" stroke="#5d5d5d" d="M 745 5930 L 3755 5930 "/>
</g>
<clipPath id="cp25">
<path transform="matrix(.1,0,0,-.1,-480,675)" d="M 745 3675 L 755 3675 L 755 6685 L 745 6685 Z "/>
</clipPath>
<g clip-path="url(#cp25)">
<path transform="matrix(.1,0,0,-.1,-480,675)" stroke-width="10" stroke-linecap="butt" stroke-dasharray="20,20" stroke-miterlimit="4" stroke-linejoin="miter" fill="none" stroke="#5e5e5e" d="M 750 6685 L 750 3675 "/>
</g>
<clipPath id="cp26">
<path transform="matrix(.1,0,0,-.1,-480,675)" d="M 3745 3675 L 3755 3675 L 3755 6685 L 3745 6685 Z "/>
</clipPath>
<g clip-path="url(#cp26)">
<path transform="matrix(.1,0,0,-.1,-480,675)" stroke-width="10" stroke-linecap="butt" stroke-dasharray="20,20" stroke-miterlimit="4" stroke-linejoin="miter" fill="none" stroke="#5e5e5e" d="M 3750 6685 L 3750 3675 "/>
</g>
<clipPath id="cp27">
<path transform="matrix(.1,0,0,-.1,-480,675)" d="M 745 6675 L 3755 6675 L 3755 6685 L 745 6685 Z "/>
</clipPath>
<g clip-path="url(#cp27)">
<path transform="matrix(.1,0,0,-.1,-480,675)" stroke-width="10" stroke-linecap="butt" stroke-dasharray="20,20" stroke-miterlimit="4" stroke-linejoin="miter" fill="none" stroke="#5e5e5e" d="M 745 6680 L 3755 6680 "/>
</g>
<clipPath id="cp28">
<path transform="matrix(.1,0,0,-.1,-480,675)" d="M 745 3675 L 3755 3675 L 3755 3685 L 745 3685 Z "/>
</clipPath>
<g clip-path="url(#cp28)">
<path transform="matrix(.1,0,0,-.1,-480,675)" stroke-width="10" stroke-linecap="butt" stroke-dasharray="20,20" stroke-miterlimit="4" stroke-linejoin="miter" fill="none" stroke="#5d5d5d" d="M 745 3680 L 3755 3680 "/>
</g>
<clipPath id="cp29">
<path transform="matrix(.1,0,0,-.1,-480,675)" d="M 4825 3675 L 7835 3675 L 7835 6685 L 4825 6685 Z "/>
</clipPath>
<g clip-path="url(#cp29)">
<path transform="matrix(.1,0,0,-.1,-480,675)" d="M 4830 5180 L 6330 5180 L 6330 6680 L 4830 6680 Z " fill="#0caf3f"/>
<path transform="matrix(.1,0,0,-.1,-480,675)" d="M 6330 5180 L 7830 5180 L 7830 6680 L 6330 6680 Z " fill="#eed716"/>
<path transform="matrix(.1,0,0,-.1,-480,675)" d="M 4830 3680 L 6330 3680 L 6330 5180 L 4830 5180 Z " fill="#c0c0c0"/>
<path transform="matrix(.1,0,0,-.1,-480,675)" d="M 6330 3680 L 7830 3680 L 7830 5180 L 6330 5180 Z " fill="#2273ba"/>
</g>
<clipPath id="cp30">
<path transform="matrix(.1,0,0,-.1,-480,675)" d="M 4835 5185 L 6325 5185 L 6325 6675 L 4835 6675 Z "/>
</clipPath>
<g clip-path="url(#cp30)">
<use xlink:href="#font_2_4" transform="matrix(22,0,0,-22,67.166,90)"/>
<use xlink:href="#font_2_3" transform="matrix(22,0,0,-22,79.023998,90.308)"/>
</g>
<clipPath id="cp31">
<path transform="matrix(.1,0,0,-.1,-480,675)" d="M 6335 5185 L 7825 5185 L 7825 6675 L 6335 6675 Z "/>
</clipPath>
<g clip-path="url(#cp31)">
<symbol id="font_2_a">
<path d="M .127 .191 C .12966667 .16233333 .13966668 .139 .157 .12100001 C .17500001 .10366666 .199 .095 .229 .095 C .25966669 .095 .284 .10300001 .30200003 .119 C .32066668 .13566667 .335 .156 .345 .18 C .35500003 .20466668 .36166669 .23066668 .365 .25800003 C .36900006 .286 .372 .3116667 .374 .335 L .372 .337 C .35666669 .30966667 .33566667 .2886667 .30900003 .27400003 C .28233335 .26000003 .253 .25300003 .22100002 .25300003 C .18766667 .25300003 .15733333 .25866667 .13 .27 C .10333333 .28133334 .08033334 .29700003 .061000006 .317 C .041666669 .33766667 .026666666 .36233334 .015999999 .391 C .005333333 .42033337 0 .45300005 0 .48900003 C 0 .523 .005333333 .5543334 .015999999 .583 C .026666666 .61233338 .042333336 .6376667 .063 .65900006 C .083666678 .68100008 .109000008 .698 .139 .71000006 C .16900002 .72200009 .20300001 .728 .241 .72800007 C .29033334 .728 .331 .7183334 .363 .69900009 C .395 .6803334 .42 .65433338 .43800003 .62100008 C .45666669 .58833339 .4696667 .5496667 .47700004 .50500008 C .48433338 .46033336 .488 .41266669 .488 .36200003 C .488 .32000003 .48333336 .2776667 .474 .23500002 C .46533335 .19233334 .45066668 .15333334 .43 .118 C .40933336 .083333339 .382 .055000005 .34800003 .033000005 C .31466667 .011000003 .27333335 .0000000009313226 .224 .0000000009313226 C .19600003 .0000000009313226 .1696667 .004666668 .14500001 .014000001 C .12033334 .023333334 .09833334 .036333335 .079 .053000004 C .06033333 .06966667 .044999999 .089666668 .033 .113000009 C .021 .13633333 .014333334 .16233333 .013 .191 L .127 .191 M .236 .633 C .21533335 .633 .19733334 .629 .18200001 .62100008 C .16666667 .6136667 .154 .60333338 .144 .59000006 C .134 .5766667 .12633334 .56133338 .121 .544 C .116333339 .5266667 .114 .5086667 .114 .49 C .114 .47066669 .116333339 .45200003 .121 .43400003 C .12633334 .41666667 .134 .40133334 .144 .388 C .154 .3746667 .16666667 .36366669 .18200001 .35500003 C .19733334 .34700004 .21533335 .34300003 .236 .34300003 C .25733335 .34300003 .276 .34700004 .292 .35500003 C .308 .363 .321 .37366668 .331 .38700003 C .34166668 .40100003 .34966669 .41666667 .35500003 .43400003 C .36033336 .45200003 .363 .47066669 .363 .49 C .363 .5086667 .36033336 .5266667 .35500003 .544 C .34966669 .56133338 .34166668 .57633337 .331 .58900007 C .321 .60233339 .308 .61300006 .292 .62100008 C .276 .629 .25733335 .633 .236 .633 Z "/>
</symbol>
<use xlink:href="#font_2_a" transform="matrix(22,0,0,-22,222.748,90.308)"/>
</g>
<clipPath id="cp32">
<path transform="matrix(.1,0,0,-.1,-480,675)" d="M 4835 3685 L 6325 3685 L 6325 5175 L 4835 5175 Z "/>
</clipPath>
<g clip-path="url(#cp32)">
<use xlink:href="#font_2_4" transform="matrix(22,0,0,-22,67.166,240)"/>
<use xlink:href="#font_2_3" transform="matrix(22,0,0,-22,79.023998,240.308)"/>
</g>
<clipPath id="cp33">
<path transform="matrix(.1,0,0,-.1,-480,675)" d="M 6335 3685 L 7825 3685 L 7825 5175 L 6335 5175 Z "/>
</clipPath>
<g clip-path="url(#cp33)">
<use xlink:href="#font_2_4" transform="matrix(22,0,0,-22,217.166,240)"/>
<use xlink:href="#font_2_3" transform="matrix(22,0,0,-22,229.024,240.308)"/>
</g>
<clipPath id="cp34">
<path transform="matrix(.1,0,0,-.1,-480,675)" d="M 6325 5180 L 6335 5180 L 6335 6685 L 6325 6685 Z "/>
</clipPath>
<g clip-path="url(#cp34)">
<path transform="matrix(.1,0,0,-.1,-480,675)" stroke-width="10" stroke-linecap="butt" stroke-dasharray="20,20" stroke-miterlimit="4" stroke-linejoin="miter" fill="none" stroke="#5d5d5d" d="M 6330 6685 L 6330 5180 "/>
</g>
<clipPath id="cp35">
<path transform="matrix(.1,0,0,-.1,-480,675)" d="M 6325 3675 L 6335 3675 L 6335 5180 L 6325 5180 Z "/>
</clipPath>
<g clip-path="url(#cp35)">
<path transform="matrix(.1,0,0,-.1,-480,675)" stroke-width="10" stroke-linecap="butt" stroke-dasharray="20,20" stroke-miterlimit="4" stroke-linejoin="miter" fill="none" stroke="#5d5d5d" d="M 6330 6685 L 6330 3675 "/>
</g>
<clipPath id="cp36">
<path transform="matrix(.1,0,0,-.1,-480,675)" d="M 4825 5175 L 6330 5175 L 6330 5185 L 4825 5185 Z "/>
</clipPath>
<g clip-path="url(#cp36)">
<path transform="matrix(.1,0,0,-.1,-480,675)" stroke-width="10" stroke-linecap="butt" stroke-dasharray="20,20" stroke-miterlimit="4" stroke-linejoin="miter" fill="none" stroke="#5d5d5d" d="M 4825 5180 L 6330 5180 "/>
</g>
<clipPath id="cp37">
<path transform="matrix(.1,0,0,-.1,-480,675)" d="M 6330 5175 L 7835 5175 L 7835 5185 L 6330 5185 Z "/>
</clipPath>
<g clip-path="url(#cp37)">
<path transform="matrix(.1,0,0,-.1,-480,675)" stroke-width="10" stroke-linecap="butt" stroke-dasharray="20,20" stroke-miterlimit="4" stroke-linejoin="miter" fill="none" stroke="#5d5d5d" d="M 4825 5180 L 7835 5180 "/>
</g>
<clipPath id="cp38">
<path transform="matrix(.1,0,0,-.1,-480,675)" d="M 4825 3675 L 4835 3675 L 4835 6685 L 4825 6685 Z "/>
</clipPath>
<g clip-path="url(#cp38)">
<path transform="matrix(.1,0,0,-.1,-480,675)" stroke-width="10" stroke-linecap="butt" stroke-dasharray="20,20" stroke-miterlimit="4" stroke-linejoin="miter" fill="none" stroke="#5e5e5e" d="M 4830 6685 L 4830 3675 "/>
</g>
<clipPath id="cp39">
<path transform="matrix(.1,0,0,-.1,-480,675)" d="M 7825 5180 L 7835 5180 L 7835 6685 L 7825 6685 Z "/>
</clipPath>
<g clip-path="url(#cp39)">
<path transform="matrix(.1,0,0,-.1,-480,675)" stroke-width="10" stroke-linecap="butt" stroke-dasharray="20,20" stroke-miterlimit="4" stroke-linejoin="miter" fill="none" stroke="#5d5d5d" d="M 7830 6685 L 7830 5180 "/>
</g>
<clipPath id="cp40">
<path transform="matrix(.1,0,0,-.1,-480,675)" d="M 7825 3675 L 7835 3675 L 7835 5180 L 7825 5180 Z "/>
</clipPath>
<g clip-path="url(#cp40)">
<path transform="matrix(.1,0,0,-.1,-480,675)" stroke-width="10" stroke-linecap="butt" stroke-dasharray="20,20" stroke-miterlimit="4" stroke-linejoin="miter" fill="none" stroke="#5d5d5d" d="M 7830 6685 L 7830 3675 "/>
</g>
<clipPath id="cp41">
<path transform="matrix(.1,0,0,-.1,-480,675)" d="M 4825 6675 L 7835 6675 L 7835 6685 L 4825 6685 Z "/>
</clipPath>
<g clip-path="url(#cp41)">
<path transform="matrix(.1,0,0,-.1,-480,675)" stroke-width="10" stroke-linecap="butt" stroke-dasharray="20,20" stroke-miterlimit="4" stroke-linejoin="miter" fill="none" stroke="#5e5e5e" d="M 4825 6680 L 7835 6680 "/>
</g>
<clipPath id="cp42">
<path transform="matrix(.1,0,0,-.1,-480,675)" d="M 4825 3675 L 6330 3675 L 6330 3685 L 4825 3685 Z "/>
</clipPath>
<g clip-path="url(#cp42)">
<path transform="matrix(.1,0,0,-.1,-480,675)" stroke-width="10" stroke-linecap="butt" stroke-dasharray="20,20" stroke-miterlimit="4" stroke-linejoin="miter" fill="none" stroke="#5d5d5d" d="M 4825 3680 L 6330 3680 "/>
</g>
<clipPath id="cp43">
<path transform="matrix(.1,0,0,-.1,-480,675)" d="M 6330 3675 L 7835 3675 L 7835 3685 L 6330 3685 Z "/>
</clipPath>
<g clip-path="url(#cp43)">
<path transform="matrix(.1,0,0,-.1,-480,675)" stroke-width="10" stroke-linecap="butt" stroke-dasharray="20,20" stroke-miterlimit="4" stroke-linejoin="miter" fill="none" stroke="#5d5d5d" d="M 4825 3680 L 7835 3680 "/>
</g>
</g>
</svg>
