<?xml version="1.0" encoding="UTF-8"?>
<svg xmlns="http://www.w3.org/2000/svg" xmlns:xlink="http://www.w3.org/1999/xlink" width="1030pt" height="826.969pt" viewBox="0 0 1030 826.969" version="1.1">
<defs>
<clipPath id="clip1">
  <path d="M 1 0 L 1030 0 L 1030 826.96875 L 1 826.96875 Z M 1 0 "/>
</clipPath>
</defs>
<g id="surface1">
<g clip-path="url(#clip1)" clip-rule="nonzero">
<path style=" stroke:none;fill-rule:nonzero;fill:rgb(94.099426%,94.099426%,94.099426%);fill-opacity:1;" d="M 1 826.96875 L 1030 826.96875 L 1030 0 L 1 0 Z M 1 826.96875 "/>
</g>
<path style=" stroke:none;fill-rule:nonzero;fill:rgb(7.798767%,68.998718%,24.299622%);fill-opacity:1;" d="M 245.5 597.71875 C 246.25 587.21875 246.25 577.46875 247 566.96875 C 246.875 561.707031 247.125 556.445312 247.75 551.21875 L 248.5 553.46875 L 249.25 553.46875 C 250.75 543.71875 253 533.96875 253.75 524.96875 C 255.25 506.96875 257.5 488.96875 260.5 470.96875 C 262.75 457.46875 263.5 444.71875 264.25 431.21875 C 265 413.96875 266.5 395.96875 269.5 378.71875 C 273.25 358.46875 276.25 338.96875 279.25 318.71875 C 281.609375 299.519531 286.136719 280.648438 292.75 262.46875 C 295.191406 255.347656 297.195312 248.085938 298.75 240.71875 C 300.25 231.71875 303.25 221.96875 306.25 213.71875 C 307.714844 207.929688 309.988281 202.375 313 197.21875 C 319 187.46875 326.5 178.46875 334 170.21875 C 341.25 162.183594 349.289062 154.894531 358 148.46875 C 360.25 146.96875 363.25 144.71875 365.5 143.21875 C 369.25 143.21875 367.75 145.46875 367 146.96875 C 367 147.71875 366.25 147.71875 365.5 148.46875 C 362.5 149.21875 360.25 151.46875 358 153.71875 C 351.25 159.71875 344.5 166.46875 337.75 173.21875 C 328 182.96875 319.75 194.21875 314.5 206.96875 C 309.25 218.96875 304.75 230.96875 302.5 243.71875 C 300.296875 254.675781 297.289062 265.453125 293.5 275.96875 C 290.5 284.96875 288.25 293.96875 287.5 302.96875 C 286 311.21875 283.75 319.46875 283 327.71875 C 280.75 347.21875 275.5 365.96875 272.5 385.46875 C 271 395.21875 269.5 405.71875 269.5 415.46875 C 268.75 436.46875 268 456.71875 265 477.71875 C 262.75 494.96875 261.25 512.96875 259 530.21875 C 257.5 543.71875 255.25 557.21875 253 570.71875 C 251.5 579.71875 250.75 588.71875 249.25 598.46875 C 249.25 600.71875 248.5 602.96875 248.5 604.46875 C 248.5 605.21875 248.5 606.71875 246.25 605.96875 C 244.75 602.21875 244.75 599.96875 245.5 597.71875 "/>
<path style=" stroke:none;fill-rule:nonzero;fill:rgb(7.798767%,68.998718%,24.299622%);fill-opacity:1;" d="M 362.921875 149.21875 C 363.671875 147.667969 365.171875 146.113281 362.171875 145.339844 C 371.972656 139.136719 382.535156 133.707031 393.851562 130.609375 C 404.1875 126.796875 414.773438 123.6875 425.53125 121.304688 C 444.386719 117.425781 464 115.101562 483.605469 113.550781 C 492.65625 112.800781 502.460938 112 511.511719 110.445312 C 525.085938 108.894531 538.660156 106.566406 551.488281 105.015625 C 567.328125 103.464844 582.410156 100.367188 598.25 97.261719 C 624.648438 92.613281 651.042969 87.953125 677.441406 82.53125 C 694.03125 79.425781 709.871094 76.328125 726.460938 73.222656 C 737.769531 70.898438 748.332031 69.34375 759.648438 67.019531 C 780.011719 63.140625 799.625 60.816406 819.984375 58.492188 C 821.929688 57.910156 823.957031 57.65625 825.984375 57.742188 C 825.234375 60.066406 823.734375 62.390625 820.734375 62.390625 C 810.933594 63.140625 800.371094 64.714844 790.570312 65.496094 C 764.929688 69.375 739.285156 74.804688 713.644531 79.453125 C 692.507812 83.285156 671.386719 87.957031 650.273438 91.835938 C 618.585938 98.039062 586.921875 104.242188 554.492188 108.898438 C 529.605469 112.003906 504.714844 115.882812 479.070312 118.207031 C 463.988281 119.757812 448.90625 121.3125 433.816406 123.636719 C 420.199219 126.066406 406.820312 129.699219 393.84375 134.488281 C 383.8125 137.765625 374.199219 142.191406 365.183594 147.671875 C 365.183594 149.21875 363.675781 149.21875 362.921875 149.21875 "/>
<path style=" stroke:none;fill-rule:nonzero;fill:rgb(14.498901%,45.098877%,72.898865%);fill-opacity:1;" d="M 445.75 66.71875 C 459.25 67.46875 472.75 65.96875 486.25 65.96875 L 502.75 65.96875 L 524.5 65.21875 C 526 65.21875 527.5 64.46875 528.25 66.71875 C 512.5 66.71875 496.75 66.71875 481.75 67.46875 C 473.5 68.21875 465.25 68.96875 457 71.21875 C 454 71.96875 451 72.71875 448 72.71875 C 442 73.46875 436 74.21875 429.25 75.71875 C 421.75 76.46875 414.25 76.46875 407.5 76.46875 C 403 75.71875 398.5 75.71875 394.75 77.21875 C 391.75 77.96875 388.75 78.71875 385.75 78.71875 C 384.25 78.71875 382 78.71875 380.5 79.46875 C 365.5 83.21875 349.75 84.71875 334 84.71875 C 331.914062 84.769531 329.863281 85.28125 328 86.21875 C 324.410156 87.582031 320.492188 87.84375 316.75 86.96875 C 314.5 86.21875 312.25 86.21875 310.75 86.96875 C 308.5 87.71875 305.5 87.71875 303.25 87.71875 C 296.5 87.71875 289.75 88.46875 283.75 90.71875 C 278.5 92.21875 273.25 95.21875 270.25 99.71875 C 267.25 101.21875 266.5 103.46875 266.5 104.96875 C 265.601562 109.558594 264.347656 114.070312 262.75 118.46875 C 260.53125 125.808594 259.023438 133.34375 258.25 140.96875 C 257.351562 145.804688 256.097656 150.566406 254.5 155.21875 C 253 150.71875 254.5 146.21875 253 142.46875 L 253 141.71875 C 254.445312 138.9375 255.214844 135.855469 255.25 132.71875 C 255.25 128.21875 256.75 124.46875 258.25 119.96875 C 260.449219 114.167969 261.960938 108.125 262.75 101.96875 C 262.75 98.03125 265.117188 94.484375 268.75 92.96875 C 271 91.46875 274 89.96875 276.25 88.46875 C 279.898438 87.121094 283.664062 86.117188 287.5 85.46875 C 290.5 83.96875 294.25 83.96875 298 84.71875 C 300.25 84.71875 303.25 84.71875 305.5 83.96875 C 308.707031 83.21875 312.042969 83.21875 315.25 83.96875 C 316.917969 84.71875 318.832031 84.71875 320.5 83.96875 C 329.5 81.71875 337.75 80.96875 346.75 80.21875 C 356.5 78.71875 366.25 78.71875 376 75.71875 C 382.75 74.21875 390.25 73.46875 397.75 71.96875 C 399.230469 72.851562 401.132812 72.535156 402.25 71.21875 C 408.25 71.21875 414.25 71.21875 419.5 70.46875 C 424.75 70.46875 430 69.71875 435.25 66.71875 C 439 65.21875 442.75 65.21875 445.75 66.71875 "/>
<path style=" stroke:none;fill-rule:nonzero;fill:rgb(96.099854%,16.099548%,30.599976%);fill-opacity:1;" d="M 544.75 325.46875 C 542.5 324.71875 540.25 324.71875 538.75 326.21875 C 526.804688 330.714844 516.21875 338.203125 508 347.96875 L 483.25 374.96875 C 477.375 380.9375 472.101562 387.46875 467.5 394.46875 C 460 407.21875 451 418.46875 442.75 430.46875 C 436 439.46875 428.5 448.46875 421 457.46875 C 412.132812 468.015625 404.578125 479.601562 398.5 491.96875 C 397.75 493.46875 395.5 494.96875 394 494.21875 C 393.25 492.71875 393.25 491.21875 394 490.46875 C 400 481.46875 404.5 471.71875 410.5 463.46875 C 417.039062 454.359375 424.046875 445.597656 431.5 437.21875 C 435.25 433.46875 438.25 428.96875 441.25 424.46875 C 445 418.46875 449.5 413.21875 454 407.96875 C 457.75 400.46875 463 393.71875 467.5 386.96875 C 475 379.46875 481 371.21875 487.75 363.71875 C 494.5 356.21875 500.5 348.71875 507.25 341.96875 C 517.027344 331.554688 529.480469 324.027344 543.25 320.21875 C 545.390625 319.523438 547.410156 318.511719 549.25 317.21875 C 556.75 311.21875 565 307.46875 572.5 301.46875 C 580 295.46875 589 290.96875 597.25 284.96875 C 610.636719 276.082031 622.113281 264.605469 631 251.21875 C 634 246.71875 637.75 242.21875 640.75 237.71875 C 641.539062 236.890625 642.0625 235.847656 642.25 234.71875 C 642.304688 233.914062 642.945312 233.273438 643.75 233.21875 C 646 231.71875 648.25 229.46875 650.5 227.96875 C 651.25 226.46875 652.75 225.71875 654.25 226.46875 C 648.25 235.46875 641.5 243.71875 634.75 252.71875 C 629.644531 260.222656 623.871094 267.253906 617.5 273.71875 C 606.40625 284.195312 594.0625 293.265625 580.75 300.71875 C 571 306.71875 562 313.46875 552.25 320.21875 C 550 320.96875 547.75 321.71875 546.25 323.96875 C 547 323.96875 546.25 324.71875 544.75 325.46875 "/>
<path style=" stroke:none;fill-rule:nonzero;fill:rgb(35.699463%,35.699463%,35.699463%);fill-opacity:1;" d="M 242.5 663.71875 C 242.5 654.71875 243.25 646.46875 243.25 637.46875 L 243.25 633.71875 C 243.25 622.46875 244 611.96875 244 601.46875 C 243.949219 600.175781 244.207031 598.890625 244.75 597.71875 C 245.5 584.96875 247 572.96875 247 560.21875 C 246.378906 557.261719 246.125 554.238281 246.25 551.21875 L 246.25 534.71875 C 247 524.96875 247 515.21875 247 505.46875 C 247 491.96875 246.25 478.46875 246.25 464.96875 C 246.25 456.71875 245.5 449.21875 245.5 441.71875 L 245.5 431.21875 C 244.75 423.238281 244.75 415.199219 245.5 407.21875 C 246.25 404.21875 244 400.46875 248.5 398.96875 C 250 398.96875 250 396.71875 247.75 397.46875 C 245.5 398.21875 245.5 396.71875 245.5 395.21875 L 245.5 386.21875 C 247 362.21875 247.75 338.96875 249.25 314.96875 C 250 299.21875 250.75 283.46875 253.75 266.96875 C 255.277344 259.3125 256.03125 251.523438 256 243.71875 C 256 239.96875 256 236.21875 257.5 233.21875 L 259 233.21875 C 261.25 232.46875 265 233.96875 265 231.71875 C 265 229.46875 261.25 229.46875 259 229.46875 L 258.25 229.46875 C 256.75 229.46875 256 227.96875 256 226.46875 L 256 175.46875 C 256 169.46875 255.25 162.71875 255.25 156.71875 L 255.25 151.46875 C 256 149.21875 255.25 146.21875 253.75 143.96875 C 253 143.21875 252.25 143.96875 252.25 144.71875 C 251.5 146.96875 251.5 148.46875 250.75 150.71875 L 250.75 159.71875 C 250 166.46875 250.75 173.21875 250.75 180.71875 C 250.75 192.71875 250 205.46875 250.75 218.21875 L 250.75 221.21875 C 250.75 223.46875 250.75 226.46875 249.25 229.46875 C 247.75 230.96875 244.75 228.71875 242.5 228.71875 C 241 227.96875 239.5 228.71875 239.5 230.21875 C 239.570312 231.429688 240.539062 232.398438 241.75 232.46875 C 244 232.46875 245.5 233.21875 247.75 233.21875 L 248.5 233.21875 C 249.117188 233.386719 249.632812 233.8125 249.921875 234.382812 C 250.207031 234.957031 250.234375 235.625 250 236.21875 C 249.25 247.46875 249.25 257.96875 247.75 268.46875 C 247 272.96875 247 278.21875 246.25 282.71875 C 244 300.71875 244 319.46875 242.5 337.46875 C 241 353.21875 241 368.96875 240.25 384.71875 C 240.375 388.234375 240.121094 391.753906 239.5 395.21875 C 239.5 395.417969 239.421875 395.609375 239.28125 395.75 C 239.140625 395.890625 238.949219 395.96875 238.75 395.96875 C 235.59375 396.027344 232.683594 394.28125 231.25 391.46875 C 231.050781 391.46875 230.859375 391.390625 230.71875 391.25 C 230.578125 391.109375 230.5 390.917969 230.5 390.71875 C 229.382812 389.402344 227.480469 389.085938 226 389.96875 C 224.5 390.71875 226 392.21875 226.75 393.71875 C 229.359375 396.980469 233.113281 399.128906 237.25 399.71875 L 238 399.71875 C 239.5 399.71875 240.25 401.21875 240.25 402.71875 C 240.25 416.96875 240.25 430.46875 241 444.71875 C 241 462.71875 241.75 480.71875 241.75 498.71875 C 241.75 512.21875 242.5 524.96875 241.75 538.46875 C 241 547.46875 241 555.71875 241 564.71875 C 241 570.71875 241 577.46875 240.25 583.46875 C 241 587.96875 240.25 592.46875 239.5 596.96875 C 239.5 602.96875 238.75 608.21875 238.75 614.96875 L 238.75 635.21875 C 238 644.96875 238 653.96875 238 662.96875 C 237.25 665.21875 238.75 667.46875 241 668.96875 C 243.25 668.21875 244.75 665.96875 242.5 663.71875 "/>
<path style=" stroke:none;fill-rule:nonzero;fill:rgb(35.699463%,35.699463%,35.699463%);fill-opacity:1;" d="M 523.390625 673.441406 C 523.011719 673.464844 522.632812 673.476562 522.25 673.46875 C 522.023438 673.46875 521.804688 673.46875 521.59375 673.472656 C 522.160156 673.261719 522.882812 673.378906 523.390625 673.441406 M 826 674.21875 L 767.5 674.21875 C 742.75 674.21875 717.25 674.21875 692.5 673.46875 C 673.75 672.71875 655 672.71875 636.25 671.96875 C 613.75 671.21875 591.25 671.96875 568.75 671.96875 L 538.75 671.96875 C 537.25 671.96875 535 671.96875 534.25 670.46875 C 532 666.71875 531.25 666.71875 529.75 671.21875 C 528.25 671.96875 527.5 671.96875 528.25 671.96875 C 518.5 671.96875 509.5 672.71875 499.75 672.71875 C 483.25 672.71875 466 672.71875 449.5 673.46875 C 429.25 674.21875 408.25 674.96875 388 676.46875 C 387.378906 676.558594 386.753906 676.347656 386.3125 675.90625 C 385.871094 675.464844 385.660156 674.839844 385.75 674.21875 C 385.75 672.71875 385.75 671.96875 385 671.21875 C 384.25 669.71875 383.5 667.46875 381.25 668.21875 C 379.75 668.96875 379.75 671.21875 380.5 672.71875 C 382 676.46875 379.75 676.46875 377.5 676.46875 C 356.5 677.21875 335.5 677.21875 314.5 678.71875 L 262.75 680.96875 C 261.210938 681.085938 259.667969 680.832031 258.25 680.21875 C 259 678.71875 259 677.21875 259.75 675.71875 C 259.75 673.46875 259 673.46875 257.5 673.46875 C 256.734375 672.613281 256.734375 671.324219 257.5 670.46875 C 257.5 669.71875 257.5 668.21875 256 668.21875 C 255.195312 668.273438 254.554688 668.914062 254.5 669.71875 L 254.5 671.96875 C 255.25 674.21875 254.5 675.71875 253 677.21875 C 252.585938 677.21875 252.25 677.554688 252.25 677.96875 C 251.5 678.71875 250 678.71875 248.5 677.96875 C 246.890625 677.859375 245.609375 676.578125 245.5 674.96875 C 244.75 673.46875 243.25 671.96875 241.75 671.96875 C 240.25 674.21875 239.5 677.21875 240.25 679.46875 C 239.5 680.96875 240.25 682.46875 241.75 683.21875 C 243.25 684.71875 243.25 681.71875 244.75 681.71875 C 245.5 684.71875 247.75 686.96875 250.75 686.96875 C 264.25 686.96875 278.5 686.96875 292 685.46875 C 301.75 685.46875 311.5 684.71875 321.25 683.96875 C 339.25 682.46875 358 682.46875 376.75 681.71875 C 378.25 681.71875 379.75 681.71875 380.5 683.96875 C 380.554688 684.773438 381.195312 685.414062 382 685.46875 C 382.804688 685.414062 383.445312 684.773438 383.5 683.96875 C 383.5 680.96875 385.75 680.96875 387.25 680.96875 L 409.75 680.21875 C 426.25 679.46875 442 677.96875 458.5 677.96875 L 508.75 677.96875 C 515.433594 677.25 522.171875 677.226562 528.859375 677.882812 C 528.90625 677.914062 528.953125 677.9375 529 677.96875 C 529 680.96875 529.75 683.96875 530.5 686.96875 C 530.410156 687.589844 530.621094 688.214844 531.0625 688.65625 C 531.503906 689.097656 532.128906 689.308594 532.75 689.21875 C 534.25 688.46875 534.25 687.71875 534.25 686.21875 L 534.25 679.46875 C 534.25 677.96875 536.5 676.46875 538 677.21875 C 544 677.96875 550.75 677.21875 556.75 677.21875 C 589.75 677.21875 623.5 677.21875 656.5 677.96875 C 686.5 677.96875 716.5 678.71875 746.5 679.46875 C 763 680.21875 779.5 680.21875 796 680.21875 C 805.75 680.21875 816.25 680.96875 826 680.21875 C 827.5 680.21875 829 680.21875 829 677.96875 C 829 675.71875 827.5 674.21875 826 674.21875 "/>
<path style=" stroke:none;fill-rule:nonzero;fill:rgb(35.699463%,35.699463%,35.699463%);fill-opacity:1;" d="M 820.046875 359.882812 C 820.183594 364.6875 820.601562 369.214844 820.71875 374.039062 C 820.484375 369.320312 820.15625 364.601562 820.046875 359.882812 M 820.007812 408.554688 C 820.03125 401.609375 820.152344 395.035156 820.75 388.46875 C 820.824219 387.433594 820.859375 386.398438 820.894531 385.363281 C 820.8125 393.09375 820.28125 400.824219 820.007812 408.554688 M 825.25 241.46875 C 827.5 213.71875 831.25 185.96875 832.75 158.21875 C 833.5 141.71875 835.75 125.21875 836.5 108.71875 C 836.625 101.945312 837.128906 95.1875 838 88.46875 C 838.75 77.96875 839.5 66.71875 840.25 55.46875 C 840.25 53.96875 839.5 51.71875 838 51.71875 C 835.75 51.71875 836.5 53.96875 836.5 55.46875 C 835.75 62.21875 835.75 69.71875 835 76.46875 C 832 99.71875 831.25 122.96875 829 146.21875 C 826.75 163.46875 826.75 180.71875 824.5 197.21875 C 821.5 221.96875 820 247.46875 818.5 272.21875 C 817.75 289.46875 817.75 306.71875 817.75 323.96875 C 817 334.203125 817 344.484375 817.75 354.71875 L 818.5 358.46875 C 819.25 363.1875 819.25 368 818.5 372.71875 C 819.25 379.449219 819.25 386.238281 818.5 392.96875 L 818.5 421.46875 C 818.5 431.96875 817.75 442.46875 818.5 452.96875 C 818.5 469.46875 820 486.71875 820.75 503.21875 C 821.5 527.96875 824.5 552.71875 826.75 576.71875 C 829 599.21875 829.75 622.46875 829.75 645.71875 L 829.75 646.46875 C 829.75 648.71875 831.25 650.96875 833.5 650.96875 C 836.5 650.96875 835 653.21875 835 654.71875 C 833.5 660.117188 833.5 665.820312 835 671.21875 L 835 673.46875 C 837.25 672.71875 837.25 672.71875 837.25 670.46875 C 836.5 664.742188 836.5 658.945312 837.25 653.21875 C 837.945312 651.554688 837.304688 649.632812 835.75 648.71875 C 832.75 647.21875 833.5 644.96875 833.5 642.71875 C 834.25 634.484375 834.25 626.203125 833.5 617.96875 C 832.921875 617.371094 832.648438 616.542969 832.75 615.71875 C 831.25 600.71875 829.75 584.96875 828.25 569.21875 C 827.5 555.71875 825.25 542.21875 824.5 527.96875 C 823.75 513.71875 822.25 498.71875 821.5 483.71875 C 821.5 472.46875 820 460.46875 820 449.21875 L 820 423.71875 C 820.75 436.46875 820 450.71875 820.75 462.71875 L 823 498.71875 C 823.75 510.71875 824.5 522.71875 826 534.71875 C 829 554.21875 829.75 572.96875 832 592.46875 C 832.75 599.21875 833.5 606.71875 834.25 614.21875 C 834.25 615.71875 834.25 617.96875 836.5 617.96875 L 836.5 616.46875 C 834.25 593.21875 832.75 569.21875 829.75 545.96875 C 826.75 518.21875 825.25 489.71875 823.75 461.96875 C 822.375 442.5 822.125 422.96875 823 403.46875 C 823.75 371.21875 822.25 339.71875 823 307.46875 C 823 285.71875 823.75 263.21875 825.25 241.46875 "/>
<path style=" stroke:none;fill-rule:nonzero;fill:rgb(35.699463%,35.699463%,35.699463%);fill-opacity:1;" d="M 253.75 74.96875 C 255.25 75.71875 256.75 76.46875 258.25 76.46875 C 269.5 77.21875 281.5 77.21875 292.75 75.71875 C 309.25 74.96875 325.75 73.46875 343 72.71875 C 360.25 71.96875 377.5 70.46875 394.75 69.71875 C 397 69.71875 398.5 68.96875 398.5 71.21875 C 399.25 71.96875 400.75 73.46875 401.5 73.46875 C 402.25 73.46875 402.25 71.96875 402.25 71.21875 C 403.152344 70.101562 404.574219 69.53125 406 69.71875 C 410.5 68.96875 415 68.96875 420.25 68.96875 C 425.5 69.71875 430.75 68.96875 436 67.46875 C 439 67.46875 442.75 66.71875 445.75 66.71875 C 446.625 66.71875 447.5 66.679688 448.378906 66.621094 C 448.25 66.65625 448.128906 66.683594 448 66.71875 C 447.25 66.71875 445 66.71875 445.75 68.96875 C 448.75 69.71875 451 70.46875 454 69.71875 C 463 69.71875 471.25 68.96875 480.25 68.21875 C 493.75 67.46875 507.25 68.21875 520.75 67.46875 C 523.027344 67.347656 525.304688 67.601562 527.5 68.21875 L 529 70.46875 C 529 71.96875 530.5 71.96875 531.25 71.96875 C 532.75 71.21875 532 70.46875 532 69.71875 C 532 66.71875 533.5 66.71875 535.75 66.71875 C 545.5 65.96875 555.25 66.71875 565 65.96875 C 578.5 64.46875 592.75 64.46875 606.25 64.46875 L 633.25 64.46875 C 645.25 63.71875 658 64.46875 670.75 63.71875 C 673.75 62.96875 676.75 63.71875 678.25 65.96875 C 679.75 67.46875 680.5 66.71875 681.25 65.21875 C 682.585938 63.734375 684.503906 62.914062 686.5 62.96875 C 698.5 60.71875 710.5 62.21875 723.25 60.71875 C 736 59.21875 749.5 58.46875 762.25 56.96875 C 775 55.46875 788.5 54.71875 802 53.96875 C 810.25 52.46875 819.25 52.46875 827.5 54.71875 C 829 55.46875 829.75 53.96875 829.75 52.46875 C 829.75 50.21875 827.5 48.71875 825.25 48.71875 C 821.03125 48.09375 816.765625 47.84375 812.5 47.96875 C 801.25 47.96875 790.75 49.46875 780.25 50.21875 C 775.984375 50.09375 771.71875 50.34375 767.5 50.96875 C 764.074219 51.886719 760.546875 52.390625 757 52.46875 C 745 53.96875 733 53.96875 721 56.21875 L 713.5 56.21875 C 706 56.21875 697.75 56.96875 690.25 56.96875 C 686.5 56.96875 681.25 58.46875 679 52.46875 C 679 51.71875 677.5 50.96875 676.75 51.71875 C 676 51.71875 675.25 53.21875 675.25 53.96875 C 675.25 56.96875 673.75 57.71875 670.75 57.71875 L 631 57.71875 C 619.761719 56.96875 608.488281 56.96875 597.25 57.71875 C 577 58.46875 556.75 58.46875 535.75 59.96875 C 533.5 59.96875 532 59.21875 532 56.96875 C 532.089844 56.347656 531.878906 55.722656 531.4375 55.28125 C 530.996094 54.839844 530.371094 54.628906 529.75 54.71875 C 529 54.71875 528.25 55.46875 528.25 56.96875 L 528.25 57.71875 C 527.5 59.96875 526 60.71875 524.5 60.71875 C 519.25 60.71875 513.25 61.46875 507.25 61.46875 L 478.75 62.21875 L 475.75 62.21875 C 452.5 62.96875 430 63.71875 407.5 65.21875 C 404.5 65.21875 403 64.46875 403 61.46875 L 403 60.71875 C 402.890625 59.109375 401.609375 57.828125 400 57.71875 C 397.75 58.46875 398.5 60.71875 398.5 62.21875 C 398.5 65.96875 397 66.71875 394 66.71875 C 379.75 67.46875 366.25 68.96875 352 68.96875 C 325.75 68.96875 300.25 71.96875 274 71.96875 C 268 72.71875 262 71.96875 256 71.21875 C 254.5 71.21875 253 69.71875 252.25 71.21875 C 252.25 72.71875 252.25 74.21875 253.75 74.96875 "/>
<path style=" stroke:none;fill-rule:nonzero;fill:rgb(96.099854%,16.099548%,30.599976%);fill-opacity:1;" d="M 814.75 71.96875 C 810.371094 76.1875 806.589844 80.980469 803.5 86.21875 C 796.75 95.96875 788.5 104.96875 778 111.71875 C 775 113.96875 772.75 115.46875 769 116.21875 C 756.164062 120.003906 744.363281 126.671875 734.5 135.71875 C 727.75 140.96875 721.75 147.71875 716.5 154.46875 C 709 163.46875 701.5 172.46875 692.5 179.96875 C 685 187.46875 677.5 195.71875 671.5 203.96875 C 670.65625 206.609375 668.753906 208.78125 666.25 209.96875 C 663.390625 212.078125 660.859375 214.609375 658.75 217.46875 C 658 218.96875 656.5 220.46875 654.25 219.71875 C 654.25 218.21875 655 216.71875 655.75 215.21875 C 661.75 206.21875 669.25 198.71875 675.25 190.46875 C 681.25 182.21875 689.5 175.46875 696.25 167.96875 C 703.75 160.46875 710.5 152.96875 716.5 143.96875 C 719.5 140.21875 723.25 136.46875 727 134.21875 C 735.25 127.46875 743.5 120.71875 752.5 115.46875 C 755.617188 113.894531 758.882812 112.640625 762.25 111.71875 C 773.101562 108.652344 782.777344 102.378906 790 93.71875 C 791.5 85.46875 800.5 83.21875 803.5 75.71875 C 804.0625 74.589844 804.824219 73.574219 805.75 72.71875 C 809.5 72.71875 811.75 71.96875 814.75 71.96875 "/>
<path style=" stroke:none;fill-rule:nonzero;fill:rgb(96.099854%,16.099548%,30.599976%);fill-opacity:1;" d="M 255.25 673.46875 C 253.75 671.96875 255.25 669.71875 253.75 668.21875 C 253 666.71875 253.75 664.46875 255.25 662.96875 C 263.5 653.96875 267.25 642.71875 274.75 633.71875 C 277.023438 630.539062 279.53125 627.53125 282.25 624.71875 C 288.085938 618.964844 292.683594 612.070312 295.75 604.46875 C 298 599.96875 301.75 595.46875 305.5 591.71875 C 310.75 587.96875 315.25 582.71875 319.75 578.21875 C 322.175781 575.808594 324.957031 573.78125 328 572.21875 C 330.78125 570.910156 333.316406 569.132812 335.5 566.96875 C 337 565.46875 339.25 564.71875 340.75 563.21875 C 348.25 556.46875 354.25 548.96875 361.75 541.46875 C 366.394531 536.820312 370.660156 531.804688 374.5 526.46875 C 379.75 518.96875 383.5 509.96875 388 501.71875 C 388 500.21875 389.5 499.46875 390.25 498.71875 C 391 498.71875 391.75 499.46875 392.5 500.21875 C 387.25 511.46875 381.25 522.71875 374.5 532.46875 C 364.75 544.46875 353.5 554.96875 343.75 565.46875 C 339.304688 569.140625 334.535156 572.40625 329.5 575.21875 C 328.75 575.96875 328.75 578.21875 326.5 577.46875 C 324.25 576.71875 323.5 578.21875 322.75 578.96875 C 318.25 584.96875 312.25 590.21875 306.25 594.71875 C 301.574219 597.992188 298.136719 602.75 296.5 608.21875 C 294.25 614.96875 289.75 620.96875 285.25 625.46875 C 278.5 632.21875 273.25 640.46875 268.75 649.46875 C 268 650.21875 268 651.71875 268 652.46875 C 268.75 653.96875 267.25 656.21875 265.75 656.96875 C 259.75 661.46875 256 666.71875 255.25 673.46875 "/>
<path style=" stroke:none;fill-rule:nonzero;fill:rgb(0%,0%,0%);fill-opacity:1;" d="M 451.75 755.96875 C 454.75 755.96875 457.75 756.71875 460.75 757.46875 C 462.15625 758.1875 463.027344 759.640625 463 761.21875 C 463 763.46875 460.75 762.71875 459.25 762.71875 C 455.5 762.71875 451 762.71875 447.25 764.21875 C 445.75 764.21875 444.25 765.71875 444.25 767.96875 C 444.25 769.46875 445.75 770.21875 447.25 770.21875 L 448 770.21875 C 450.769531 770.09375 453.546875 770.347656 456.25 770.96875 C 457 770.96875 458.5 771.71875 458.5 772.46875 C 458.5 773.96875 457.75 773.96875 457 773.96875 C 455.5 774.71875 454 775.46875 452.5 775.46875 C 450.921875 775.441406 449.46875 776.3125 448.75 777.71875 L 448.75 779.96875 C 449.5 783.71875 449.5 788.21875 450.25 791.96875 C 450.25 793.46875 450.25 794.96875 448.75 794.96875 C 447.25 794.96875 446.5 794.21875 445.75 792.71875 C 445.160156 790.011719 444.910156 787.238281 445 784.46875 C 445 781.46875 443.5 777.71875 442 775.46875 C 440.683594 774.351562 440.367188 772.449219 441.25 770.96875 C 442 769.46875 441.25 767.96875 441.25 767.21875 C 439.75 761.21875 441.25 759.71875 446.5 758.21875 C 448 755.96875 450.25 755.96875 451.75 755.96875 "/>
<path style=" stroke:none;fill-rule:nonzero;fill:rgb(0%,0%,0%);fill-opacity:1;" d="M 142.75 320.21875 L 134.5 320.21875 C 133 320.21875 132.25 320.21875 133 321.71875 C 133.75 323.21875 133.75 325.46875 131.5 326.21875 C 129.835938 326.914062 127.914062 326.273438 127 324.71875 L 127 323.96875 C 126.25 319.46875 122.5 319.46875 119.5 320.21875 L 112 320.21875 C 110.5 320.21875 109 320.21875 109 317.96875 C 109 316.46875 110.5 315.71875 112 315.71875 C 115 315.71875 118 314.96875 121 314.96875 C 124 314.96875 124.75 314.21875 124 311.21875 C 123.878906 308.941406 124.132812 306.664062 124.75 304.46875 C 125.5 302.96875 125.5 301.46875 127 301.46875 C 128.5 301.46875 128.5 303.71875 129.25 305.21875 C 130 306.71875 130 309.71875 130 311.96875 C 130.109375 313.578125 131.390625 314.859375 133 314.96875 L 154 314.96875 C 155.5 314.96875 158.5 314.21875 159.25 316.46875 C 160 318.71875 156.25 318.71875 154.75 318.71875 C 151 320.21875 148 320.21875 142.75 320.21875 "/>
<path style=" stroke:none;fill-rule:nonzero;fill:rgb(14.498901%,45.098877%,72.898865%);fill-opacity:1;" d="M 243.25 538.46875 C 244 547.203125 244 555.984375 243.25 564.71875 C 242.625 568.9375 242.375 573.203125 242.5 577.46875 C 241.875 583.949219 241.625 590.460938 241.75 596.96875 C 241 609.71875 241 622.46875 239.5 635.21875 C 237.253906 617.816406 236.5 600.25 237.25 582.71875 C 236.605469 567.730469 238.636719 552.746094 243.25 538.46875 "/>
<path style=" stroke:none;fill-rule:nonzero;fill:rgb(0%,0%,0%);fill-opacity:1;" d="M 574.75 761.21875 C 575.5 758.21875 577.75 755.96875 580 755.96875 C 582.25 755.96875 584.5 753.71875 584.5 750.71875 L 584.5 749.96875 C 584.5 746.21875 584.5 741.71875 585.25 737.96875 C 586 736.46875 586 733.46875 588.25 734.21875 C 589.183594 734.460938 589.964844 735.097656 590.394531 735.957031 C 590.824219 736.820312 590.863281 737.828125 590.5 738.71875 L 590.5 739.46875 C 589.75 743.21875 589.75 746.96875 589 750.71875 C 588.25 752.96875 589.75 754.46875 591.25 755.96875 C 593.5 756.71875 594.25 758.96875 591.25 759.71875 C 589.84375 760.4375 588.972656 761.890625 589 763.46875 C 588.25 770.21875 589 776.21875 590.5 782.96875 C 591.25 783.71875 591.25 785.21875 589.75 785.96875 C 588.25 786.71875 587.5 785.96875 586.75 784.46875 L 586.75 783.71875 C 585.214844 779.644531 584.453125 775.320312 584.5 770.96875 L 584.5 764.96875 C 584.5 762.71875 585.25 761.96875 583.75 761.96875 C 582.574219 761.992188 581.472656 762.542969 580.75 763.46875 C 580 764.21875 579.25 766.46875 577.75 765.71875 C 575.5 764.96875 574.75 763.46875 574.75 761.21875 "/>
<path style=" stroke:none;fill-rule:nonzero;fill:rgb(0%,0%,0%);fill-opacity:1;" d="M 614.5 792.71875 C 604 792.71875 598.75 788.21875 599.5 779.21875 C 600.25 773.96875 602.5 769.46875 606.25 766.46875 C 607.75 764.21875 610.75 764.21875 613 766.46875 C 615.25 768.71875 615.25 772.46875 613 775.46875 C 611.664062 776.953125 609.746094 777.773438 607.75 777.71875 C 606.25 777.71875 604.75 779.21875 604.75 781.46875 C 604.75 782.96875 605.5 784.46875 607 784.46875 C 611.074219 786.003906 615.398438 786.765625 619.75 786.71875 C 621.25 786.71875 622 786.71875 622.75 788.21875 C 622.726562 789.394531 622.175781 790.496094 621.25 791.21875 C 619.75 792.71875 617.5 792.71875 614.5 792.71875 "/>
<path style=" stroke:none;fill-rule:nonzero;fill:rgb(96.099854%,16.099548%,30.599976%);fill-opacity:1;" d="M 736 260.21875 C 735.25 261.71875 733.75 262.46875 732.25 261.71875 C 730.75 258.71875 730.75 255.71875 730.75 252.71875 C 730.75 251.21875 731.5 249.71875 732.25 247.46875 C 733.75 245.96875 734.5 247.46875 735.25 248.21875 C 736 248.96875 736.75 249.71875 737.5 248.21875 C 738.292969 245.992188 740.386719 244.496094 742.75 244.46875 C 745.75 245.21875 744.25 248.96875 744.25 251.21875 C 744.25 251.96875 743.5 253.46875 744.25 254.21875 C 745 254.96875 746.5 253.46875 746.5 252.71875 C 746.5 251.96875 748.75 249.71875 750.25 248.21875 C 751 246.71875 752.5 245.96875 754 246.71875 C 754.75 247.46875 755.5 248.21875 755.5 248.96875 C 755.5 250.46875 756.25 251.21875 756.25 252.71875 C 756.285156 255.855469 757.054688 258.9375 758.5 261.71875 C 759.25 262.46875 759.25 263.21875 758.5 264.71875 C 757.75 265.46875 756.25 264.71875 755.5 263.96875 C 754 262.46875 753.25 261.71875 753.25 260.21875 C 752.5 257.21875 751 257.21875 749.5 259.46875 C 748.75 260.21875 748 260.96875 747.25 260.96875 C 743.5 263.21875 742.75 263.21875 741.25 258.71875 C 740.5 257.21875 742 254.96875 739.75 254.96875 C 737.5 254.96875 738.25 257.21875 737.5 258.71875 C 736.75 258.71875 736.75 259.46875 736 260.21875 "/>
<path style=" stroke:none;fill-rule:nonzero;fill:rgb(0%,0%,0%);fill-opacity:1;" d="M 570.25 776.96875 C 569.5 780.71875 571 782.21875 574.75 780.71875 C 575.5 779.96875 577 780.71875 577 781.46875 C 577.75 782.21875 577 783.71875 576.25 784.46875 C 575.589844 785.800781 574.410156 786.796875 572.988281 787.222656 C 571.566406 787.648438 570.03125 787.46875 568.75 786.71875 L 566.5 784.46875 C 566.5 782.96875 565 782.21875 563.5 782.96875 C 562.75 782.96875 562.75 783.71875 562 783.71875 C 559.75 784.46875 556.75 786.71875 554.5 783.71875 C 552.25 781.46875 552.25 777.71875 553.75 774.71875 C 555.25 770.96875 559 767.96875 562.75 766.46875 C 564.414062 765.773438 566.335938 766.414062 567.25 767.96875 C 569.238281 770.542969 570.292969 773.714844 570.25 776.96875 "/>
<path style=" stroke:none;fill-rule:nonzero;fill:rgb(0%,0%,0%);fill-opacity:1;" d="M 531.25 695.96875 L 532.75 695.96875 C 534.25 695.96875 536.5 695.96875 536.5 697.46875 C 536.390625 699.078125 535.109375 700.359375 533.5 700.46875 C 530.5 701.21875 527.5 701.96875 524.5 701.96875 C 523.324219 701.992188 522.222656 702.542969 521.5 703.46875 C 521.5 704.96875 522.25 705.71875 523 705.71875 L 524.5 707.21875 C 528.25 710.21875 529.75 714.71875 527.5 718.46875 C 524.5 722.21875 519.25 723.71875 514.75 722.96875 C 513.25 722.96875 511.75 721.46875 511 720.71875 C 510.234375 719.863281 510.234375 718.574219 511 717.71875 C 511.75 716.96875 513.25 716.21875 514 716.96875 C 514.75 716.96875 516.25 717.71875 517 717.71875 C 519.386719 717.839844 521.664062 716.703125 523 714.71875 C 523.75 712.46875 520.75 711.71875 519.25 710.21875 C 517 708.71875 515.5 707.21875 514.75 704.96875 C 513.25 701.96875 514 698.96875 517 696.71875 C 517.75 695.96875 518.5 695.96875 520 695.96875 C 521.9375 695.351562 523.972656 695.097656 526 695.21875 C 527.691406 695.785156 529.46875 696.039062 531.25 695.96875 "/>
<path style=" stroke:none;fill-rule:nonzero;fill:rgb(0%,0%,0%);fill-opacity:1;" d="M 190.75 217.46875 L 190.75 218.96875 C 190 221.96875 190.75 223.46875 193.75 222.71875 C 194.5 221.96875 195.25 222.71875 196 223.46875 C 196.75 224.96875 195.25 224.96875 194.5 225.71875 C 191.5 227.96875 188.5 231.71875 188.5 235.46875 C 188.589844 236.089844 188.378906 236.714844 187.9375 237.15625 C 187.496094 237.597656 186.871094 237.808594 186.25 237.71875 L 185.5 237.71875 C 184 236.96875 184.75 235.46875 184.75 234.71875 C 184.75 233.96875 184.75 230.96875 182.5 231.71875 C 181 232.46875 180.25 231.71875 179.5 230.21875 C 179.5 228.71875 180.25 227.21875 181.75 227.21875 C 184 226.46875 185.5 225.71875 186.25 223.46875 C 187 219.757812 187 215.929688 186.25 212.21875 C 186.339844 211.597656 186.128906 210.972656 185.6875 210.53125 C 185.246094 210.089844 184.621094 209.878906 184 209.96875 C 183.25 209.96875 183.25 209.96875 182.5 210.71875 C 181 211.46875 179.5 212.96875 178 213.71875 C 177.355469 214.347656 176.449219 214.632812 175.558594 214.484375 C 174.671875 214.335938 173.90625 213.773438 173.5 212.96875 C 172 211.46875 174.25 210.71875 175 209.21875 C 175.855469 208.292969 176.871094 207.53125 178 206.96875 C 181.152344 203.96875 186.097656 203.96875 189.25 206.96875 C 190.75 208.46875 191.5 209.96875 191.5 211.46875 C 191.5 213.71875 191.5 215.96875 190.75 217.46875 "/>
<path style=" stroke:none;fill-rule:nonzero;fill:rgb(0%,0%,0%);fill-opacity:1;" d="M 130 486.71875 C 129.25 477.984375 129.25 469.203125 130 460.46875 C 130 455.96875 130.75 451.46875 133 447.71875 C 133.75 446.96875 133.75 446.21875 135.25 446.21875 C 136 446.21875 136.75 447.71875 136.75 448.46875 C 136 461.207031 136 473.980469 136.75 486.71875 L 136.75 490.46875 C 136.75 491.96875 134.5 493.46875 133 493.46875 C 130.75 493.46875 130.75 491.96875 130 490.46875 C 129.25 488.96875 130 488.21875 130 486.71875 "/>
<path style=" stroke:none;fill-rule:nonzero;fill:rgb(35.699463%,35.699463%,35.699463%);fill-opacity:1;" d="M 253 141.71875 L 253 142.46875 C 252.316406 144.847656 251.308594 147.117188 250 149.21875 C 247 125.21875 241.75 101.96875 240.25 77.21875 C 240.25 75.71875 238.75 71.96875 241 71.96875 C 243.25 71.96875 243.25 74.96875 243.25 76.46875 C 244.75 94.46875 247.75 112.46875 250.75 129.71875 C 251.5 134.21875 252.25 137.96875 253 141.71875 "/>
<path style=" stroke:none;fill-rule:nonzero;fill:rgb(0%,0%,0%);fill-opacity:1;" d="M 326.5 578.21875 C 327.355469 577.292969 328.371094 576.53125 329.5 575.96875 C 327.933594 582.519531 324.554688 588.496094 319.75 593.21875 C 314.5 599.21875 308.5 605.96875 304 612.71875 C 297.25 621.71875 290.5 629.96875 283.75 638.96875 C 282.160156 641.28125 279.746094 642.890625 277 643.46875 C 277.75 641.21875 278.5 638.21875 280.75 636.71875 C 292.75 621.71875 304.75 606.71875 316 591.71875 C 319.75 587.96875 322.75 582.71875 326.5 578.21875 "/>
<path style=" stroke:none;fill-rule:nonzero;fill:rgb(0%,0%,0%);fill-opacity:1;" d="M 369.25 733.46875 C 367.75 733.46875 367 733.46875 366.25 732.71875 C 364.75 732.71875 364 731.21875 364.75 730.46875 C 364.75 729.71875 366.25 728.96875 367 728.96875 C 370 728.96875 372.25 727.46875 374.5 725.96875 C 376 723.71875 373 721.46875 372.25 719.21875 C 369.980469 713.214844 373 706.503906 379 704.21875 L 379.75 704.21875 C 382 703.46875 383.5 702.71875 385.75 702.71875 C 387.03125 702.144531 388.535156 702.445312 389.5 703.46875 L 389.5 704.21875 C 390.25 705.71875 389.5 707.21875 388 707.96875 L 386.5 707.96875 C 384.25 708.71875 381.25 709.46875 379 710.96875 C 376 711.71875 374.5 714.71875 375.25 716.96875 C 375.328125 717.539062 375.59375 718.066406 376 718.46875 C 376.75 719.96875 377.5 720.71875 377.5 722.21875 C 379.058594 725.363281 378.105469 729.175781 375.25 731.21875 C 374.5 731.96875 373 731.96875 372.25 731.96875 Z M 369.25 733.46875 "/>
<path style=" stroke:none;fill-rule:nonzero;fill:rgb(0%,0%,0%);fill-opacity:1;" d="M 160 64.46875 C 156.253906 68.128906 151.949219 71.164062 147.25 73.46875 C 145.75 73.46875 145 74.21875 143.5 74.21875 C 141.921875 74.246094 140.46875 73.375 139.75 71.96875 C 139 69.71875 141.25 69.71875 142.75 69.71875 C 148.105469 68.179688 152.996094 65.34375 157 61.46875 C 158.5 58.46875 160 55.46875 160 52.46875 C 160 50.96875 160 49.46875 161.5 49.46875 C 163.109375 49.578125 164.390625 50.859375 164.5 52.46875 C 164.5 56.96875 165.25 61.46875 164.5 65.96875 C 164.5 68.96875 164.5 72.71875 166 75.71875 C 166.75 77.21875 166.75 78.71875 165.25 79.46875 C 163.75 80.21875 163 79.46875 162.25 77.96875 C 160.773438 73.621094 160.015625 69.0625 160 64.46875 "/>
<path style=" stroke:none;fill-rule:nonzero;fill:rgb(0%,0%,0%);fill-opacity:1;" d="M 151 309.71875 C 147.4375 309.8125 144.0625 308.125 142 305.21875 C 140.5 303.71875 140.5 301.46875 141.25 299.21875 C 142.75 297.71875 144.25 296.21875 146.5 296.96875 C 148.75 296.96875 150.25 298.46875 151 300.71875 C 153.25 305.21875 155.5 305.96875 158.5 301.46875 C 160.75 299.21875 161.5 296.21875 163 292.46875 C 163 291.71875 163 290.96875 163.75 290.96875 C 164.5 290.96875 165.25 291.71875 166 292.46875 C 168.3125 296.972656 167.398438 302.457031 163.75 305.96875 C 160.75 308.21875 156.25 309.71875 151 309.71875 "/>
<path style=" stroke:none;fill-rule:nonzero;fill:rgb(0%,0%,0%);fill-opacity:1;" d="M 204.25 389.21875 C 205.425781 389.242188 206.527344 389.792969 207.25 390.71875 C 208 391.46875 208 392.96875 209.5 392.21875 C 211 391.46875 211.75 389.96875 212.5 387.71875 C 212.5 386.21875 211.75 385.46875 211 385.46875 C 210.585938 385.46875 210.25 385.132812 210.25 384.71875 C 209.5 383.96875 207.25 384.71875 207.25 383.21875 C 207.25 381.71875 209.5 381.71875 211 381.71875 C 212.5 381.71875 214.75 382.46875 215.5 383.21875 C 216.25 383.96875 217 384.71875 217.75 383.96875 C 218.105469 383.703125 218.316406 383.285156 218.316406 382.84375 C 218.316406 382.402344 218.105469 381.984375 217.75 381.71875 C 217 380.21875 216.25 377.96875 215.5 376.46875 C 214.75 374.96875 214 374.96875 215.5 374.21875 C 216.355469 373.453125 217.644531 373.453125 218.5 374.21875 C 220 374.96875 220.75 375.71875 222.25 374.21875 C 223 373.46875 224.5 374.21875 226 374.21875 C 226.925781 374.941406 227.476562 376.042969 227.5 377.21875 C 226 382.46875 223.75 386.96875 222.25 392.21875 C 222.25 392.96875 221.5 392.96875 220.75 393.71875 C 217.648438 394.378906 214.628906 395.382812 211.75 396.71875 C 205.75 396.71875 203.5 394.46875 204.25 389.21875 "/>
<path style=" stroke:none;fill-rule:nonzero;fill:rgb(79.598999%,79.598999%,79.598999%);fill-opacity:1;" d="M 768.25 51.71875 C 764.824219 52.636719 761.296875 53.140625 757.75 53.21875 C 749.5 53.96875 741.25 54.71875 732.25 55.46875 C 727 56.96875 722.5 56.96875 717.25 57.71875 C 709.75 56.96875 701.5 59.21875 694 58.46875 C 691 58.46875 688 59.21875 685 59.21875 C 682 59.21875 679.75 57.71875 679 54.71875 C 679 53.21875 679 52.46875 677.5 52.46875 C 676.75 52.46875 676 53.96875 676 54.71875 C 676.75 58.46875 675.25 59.21875 672.25 58.46875 C 658.75 56.96875 645.25 57.71875 632.5 57.71875 C 644.5 56.96875 657.25 56.21875 669.25 56.21875 L 673.75 56.21875 C 675.25 56.21875 676 56.21875 676.75 54.71875 L 676.75 53.21875 C 676 51.71875 676.75 50.21875 678.25 50.21875 C 679.75 50.21875 681.25 50.96875 681.25 52.46875 C 682 54.71875 684.25 56.21875 686.5 55.46875 C 710.5 54.71875 734.5 53.21875 759.25 51.71875 Z M 768.25 51.71875 "/>
<path style=" stroke:none;fill-rule:nonzero;fill:rgb(14.498901%,45.098877%,72.898865%);fill-opacity:1;" d="M 304.75 95.21875 L 309.25 95.21875 C 310.460938 95.0625 311.648438 95.652344 312.25 96.71875 C 312.25 98.21875 310.75 98.96875 309.25 98.96875 L 304 99.71875 C 302.789062 99.789062 301.820312 100.757812 301.75 101.96875 C 301.75 103.46875 303.25 102.71875 304 102.71875 L 306.25 102.71875 C 307.75 102.71875 309.25 101.96875 310 103.46875 C 310.75 104.96875 308.5 105.71875 307 106.46875 L 304 106.46875 C 300.25 105.71875 300.25 107.96875 300.25 110.96875 C 300.25 113.96875 302.5 113.96875 304.75 113.96875 C 306.25 113.96875 307.75 113.21875 308.5 113.21875 C 310 112.46875 310.75 113.21875 311.5 114.71875 C 312.25 115.46875 311.5 116.96875 310.75 117.71875 C 307.75 119.96875 303.25 119.96875 300.25 118.46875 C 297.300781 116.859375 295.773438 113.496094 296.5 110.21875 C 297.25 106.46875 297.25 101.96875 297.25 98.21875 C 297.25 97.46875 298 95.96875 298.75 95.96875 L 299.5 95.96875 Z M 304.75 95.21875 "/>
<path style=" stroke:none;fill-rule:nonzero;fill:rgb(96.099854%,16.099548%,30.599976%);fill-opacity:1;" d="M 705.25 257.21875 C 704.5 257.96875 703.75 259.46875 702.25 260.21875 C 700.75 262.46875 698.5 263.21875 696.25 261.71875 C 694 260.21875 693.25 257.96875 694 255.71875 C 694.75 251.96875 697 249.71875 700 248.21875 C 701.28125 247.644531 702.785156 247.945312 703.75 248.96875 C 704.5 250.46875 703.75 251.21875 702.25 251.96875 C 700.75 252.71875 699.25 253.46875 699.25 255.71875 C 699.25 256.46875 700 256.46875 700.75 256.46875 C 703 256.46875 704.5 254.96875 705.25 252.71875 C 706 248.96875 706.75 244.46875 707.5 240.71875 C 707.382812 239.179688 707.636719 237.636719 708.25 236.21875 C 709 234.71875 709 232.46875 710.5 233.21875 C 712 233.96875 712.75 235.46875 712 236.96875 C 711.25 240.71875 711.25 244.46875 710.5 248.21875 C 710.5 250.46875 709.75 252.71875 709.75 254.96875 C 709.75 256.46875 709.75 257.21875 711.25 257.96875 C 712.75 258.71875 713.5 258.71875 712.75 260.96875 C 712 262.46875 710.5 263.21875 709 262.46875 C 707.5 260.21875 706 258.71875 705.25 257.21875 "/>
<path style=" stroke:none;fill-rule:nonzero;fill:rgb(14.498901%,45.098877%,72.898865%);fill-opacity:1;" d="M 347.5 109.46875 C 349 110.96875 350.5 110.96875 352.75 110.96875 C 353.574219 110.867188 354.402344 111.140625 355 111.71875 C 355 112.46875 354.25 113.21875 353.5 113.96875 C 350.953125 115.46875 347.796875 115.46875 345.25 113.96875 C 343.84375 113.21875 342.15625 113.21875 340.75 113.96875 C 337.75 116.21875 333.25 115.46875 331.75 112.46875 C 331.75 112.269531 331.671875 112.078125 331.53125 111.9375 C 331.390625 111.796875 331.199219 111.71875 331 111.71875 C 329.5 107.21875 331 102.71875 334.75 100.46875 C 335.5 99.71875 337 100.46875 337.75 101.21875 C 338.5 101.96875 338.5 102.71875 338.5 104.21875 C 337.75 104.96875 337.75 105.71875 337 105.71875 C 335.5 106.46875 335.5 107.96875 336.25 109.46875 C 337.667969 110.796875 339.765625 111.097656 341.5 110.21875 C 343 110.21875 342.25 108.71875 342.25 107.96875 C 342.25 104.96875 343.75 101.21875 346.75 99.71875 C 347.433594 99 348.382812 98.59375 349.375 98.59375 C 350.367188 98.59375 351.316406 99 352 99.71875 C 353.328125 101.136719 353.628906 103.234375 352.75 104.96875 C 351.25 106.46875 349.75 108.71875 347.5 109.46875 "/>
<path style=" stroke:none;fill-rule:nonzero;fill:rgb(0%,0%,0%);fill-opacity:1;" d="M 188.5 401.21875 C 187 400.46875 184.75 402.71875 184.75 399.71875 C 184.75 397.46875 187 398.21875 188.5 397.46875 L 191.5 397.46875 C 193.75 397.46875 195.25 396.71875 196 394.46875 C 196.75 392.21875 196 389.21875 193.75 388.46875 C 191.628906 387.816406 189.867188 386.328125 188.875 384.34375 C 187.882812 382.359375 187.746094 380.054688 188.5 377.96875 L 188.5 376.46875 C 184.75 372.71875 188.5 372.71875 190.75 371.21875 C 193.75 369.71875 196.75 368.96875 200.5 368.21875 L 203.5 368.21875 C 204.25 368.21875 205.75 368.96875 205.75 369.71875 C 205.75 371.21875 205 371.21875 204.25 371.21875 C 202 371.96875 199 372.71875 196.75 374.21875 C 193.894531 376.261719 192.941406 380.074219 194.5 383.21875 L 196.75 385.46875 C 198.871094 386.917969 200.453125 389.027344 201.25 391.46875 C 202.75 395.21875 200.5 398.96875 197.5 400.46875 L 196 400.46875 C 192.25 400.46875 190.75 401.21875 188.5 401.21875 "/>
<path style=" stroke:none;fill-rule:nonzero;fill:rgb(14.498901%,45.098877%,72.898865%);fill-opacity:1;" d="M 247.75 533.96875 C 247 530.21875 247 525.71875 247 521.96875 C 246.25 500.21875 246.25 478.46875 246.25 456.71875 C 246.25 440.96875 244.75 425.96875 245.5 410.21875 L 245.5 406.46875 C 245.5 415.46875 245.5 424.46875 246.25 433.46875 C 247.75 457.46875 247.75 481.46875 250 505.46875 C 250 515.21875 250 524.96875 247.75 533.96875 "/>
<path style=" stroke:none;fill-rule:nonzero;fill:rgb(0%,0%,0%);fill-opacity:1;" d="M 205.75 215.21875 C 205.75 218.96875 206.5 223.46875 206.5 227.21875 C 206.5 230.21875 205.75 233.96875 203.5 236.21875 C 202.75 237.71875 200.5 239.21875 199 238.46875 C 196.75 238.46875 195.25 236.96875 194.5 234.71875 C 194.5 233.96875 193.75 233.21875 194.5 232.46875 C 194.765625 232.113281 195.183594 231.902344 195.625 231.902344 C 196.066406 231.902344 196.484375 232.113281 196.75 232.46875 C 199 235.46875 199.75 232.46875 200.5 230.96875 C 202 227.21875 202.75 222.71875 201.25 218.21875 C 200.5 215.773438 200.5 213.164062 201.25 210.71875 L 201.25 209.21875 C 200.5 204.71875 201.25 203.96875 205.75 202.46875 C 207.25 201.71875 209.5 201.71875 211 201.71875 C 212.5 201.71875 213.25 202.46875 213.25 203.21875 C 213.25 204.71875 212.5 204.71875 211 204.71875 L 209.5 205.46875 C 205.75 209.21875 205.75 209.21875 205.75 215.21875 "/>
<path style=" stroke:none;fill-rule:nonzero;fill:rgb(14.498901%,45.098877%,72.898865%);fill-opacity:1;" d="M 681.25 64.46875 C 681.25 61.46875 683.5 61.46875 685 61.46875 C 695.5 60.71875 706 59.96875 716.5 59.96875 C 730.75 59.21875 744.25 58.46875 758.5 56.96875 L 763 56.96875 C 757.636719 58.5 752.078125 59.257812 746.5 59.21875 C 741.25 59.96875 735.25 60.71875 730 62.21875 C 727.75 62.96875 724 62.96875 721 62.96875 C 708.25 62.96875 694.75 63.71875 681.25 64.46875 "/>
<path style=" stroke:none;fill-rule:nonzero;fill:rgb(0%,0%,0%);fill-opacity:1;" d="M 148 359.21875 C 147.25 362.96875 149.5 366.71875 154 367.46875 L 164.5 367.46875 C 166 366.71875 167.5 367.46875 167.5 368.96875 C 167.390625 370.578125 166.109375 371.859375 164.5 371.96875 C 161.5 371.96875 158.5 372.71875 155.5 372.71875 C 152.5 372.71875 149.5 373.46875 146.5 374.21875 C 145 374.96875 143.5 374.96875 142.75 373.46875 C 142 371.96875 143.5 371.21875 144.25 371.21875 C 145 371.21875 145 369.71875 144.25 368.96875 C 141.25 365.820312 141.25 360.867188 144.25 357.71875 C 145 356.21875 145.75 353.96875 148 354.71875 C 150.25 355.46875 148 357.71875 148 359.21875 "/>
<path style=" stroke:none;fill-rule:nonzero;fill:rgb(14.498901%,45.098877%,72.898865%);fill-opacity:1;" d="M 248.5 267.71875 C 247.75 274.46875 247.75 281.96875 247 288.71875 C 246.25 295.46875 246.25 303.71875 246.25 311.21875 C 244.75 336.71875 243.25 362.21875 242.5 387.71875 C 243.25 389.96875 242.5 392.21875 241.75 394.46875 C 241.75 383.21875 242.5 371.96875 242.5 359.96875 C 242.5 347.96875 242.5 338.21875 243.25 327.71875 C 243.25 311.21875 244.75 294.71875 247 278.21875 C 246.25 275.21875 247 271.46875 248.5 267.71875 "/>
<path style=" stroke:none;fill-rule:nonzero;fill:rgb(0%,0%,0%);fill-opacity:1;" d="M 200.5 71.96875 C 195.953125 72.746094 191.621094 69.746094 190.75 65.21875 L 190.75 62.96875 C 190.75 61.46875 191.5 60.71875 192.25 60.71875 C 193.75 60.71875 193.75 62.21875 193.75 62.96875 C 193.75 65.21875 195.25 67.46875 197.5 67.46875 C 200.175781 67.53125 202.800781 66.742188 205 65.21875 C 205.765625 64.363281 205.765625 63.074219 205 62.21875 C 203.5 59.96875 201.25 59.21875 199 58.46875 C 197.5 58.46875 195.25 57.71875 196 55.46875 C 196.75 53.96875 198.25 52.46875 200.5 53.21875 C 206.5 53.21875 211 57.71875 211 62.96875 C 210.25 68.21875 206.5 71.96875 201.25 71.96875 Z M 200.5 71.96875 "/>
<path style=" stroke:none;fill-rule:nonzero;fill:rgb(0%,0%,0%);fill-opacity:1;" d="M 838.75 711.71875 C 837.25 718.46875 837.25 724.46875 837.25 731.21875 C 837.25 731.96875 837.25 733.46875 835.75 733.46875 C 835 733.46875 833.5 733.46875 833.5 731.96875 C 832 728.96875 832 725.96875 832 722.96875 C 832 719.21875 830.5 719.96875 828.25 721.46875 C 825.722656 723.164062 822.9375 724.429688 820 725.21875 C 818.5 725.96875 817 725.21875 817 723.71875 L 817 722.96875 C 816.25 720.71875 818.5 721.46875 819.25 720.71875 C 826 719.96875 831.25 714.71875 833.5 708.71875 C 833.570312 707.507812 834.539062 706.539062 835.75 706.46875 C 839.5 706.46875 838.75 708.71875 838.75 711.71875 "/>
<path style=" stroke:none;fill-rule:nonzero;fill:rgb(0%,0%,0%);fill-opacity:1;" d="M 358 711.71875 C 358 714.71875 356.5 717.71875 355 720.71875 C 352.75 725.21875 353.5 725.21875 358 726.71875 C 358.75 726.71875 359.5 726.71875 360.25 728.21875 C 360.25 728.96875 359.5 729.71875 358.75 730.46875 C 357.632812 731.785156 355.730469 732.101562 354.25 731.21875 C 352 730.46875 349.75 728.96875 349.75 726.71875 L 349.75 722.96875 C 351.25 720.71875 350.5 717.71875 348.25 716.96875 C 346.75 714.71875 346.75 711.71875 348.25 710.21875 C 349.886719 707.761719 352.871094 706.570312 355.75 707.21875 C 356.5 706.46875 358 708.71875 358 711.71875 "/>
<path style=" stroke:none;fill-rule:nonzero;fill:rgb(0%,0%,0%);fill-opacity:1;" d="M 178.75 65.96875 C 181 65.96875 182.5 64.46875 183.25 62.21875 C 183.25 59.96875 181.75 58.46875 179.5 57.71875 C 178.75 56.96875 175.75 56.21875 177.25 53.21875 C 178.75 51.71875 181 50.96875 183.25 52.46875 L 184 53.21875 C 186.871094 56.261719 188.480469 60.285156 188.5 64.46875 C 186.25 68.21875 183.25 71.21875 178.75 71.96875 C 175.75 72.71875 173.5 71.21875 173.5 68.96875 C 173.5625 66.402344 174.070312 63.863281 175 61.46875 C 174.910156 60.847656 175.121094 60.222656 175.5625 59.78125 C 176.003906 59.339844 176.628906 59.128906 177.25 59.21875 C 178 59.21875 178.75 59.96875 178.75 61.46875 C 179.5 62.875 179.5 64.5625 178.75 65.96875 "/>
<path style=" stroke:none;fill-rule:nonzero;fill:rgb(14.498901%,45.098877%,72.898865%);fill-opacity:1;" d="M 372.25 92.21875 C 372.085938 94.921875 370.707031 97.402344 368.5 98.96875 C 367.09375 99.6875 366.222656 101.140625 366.25 102.71875 C 367 104.96875 368.5 106.46875 370.75 106.46875 C 371.5 106.46875 373 106.46875 373 107.96875 C 373 109.46875 371.5 110.21875 370 110.21875 C 367.75 110.96875 365.5 110.21875 364 107.96875 C 359.5 101.21875 359.5 92.96875 364 86.96875 C 366.25 83.96875 368.5 83.96875 370 87.71875 C 372.25 88.46875 372.25 90.71875 372.25 92.21875 "/>
<path style=" stroke:none;fill-rule:nonzero;fill:rgb(14.498901%,45.098877%,72.898865%);fill-opacity:1;" d="M 422.5 102.71875 C 422.5 95.96875 424 89.96875 424 83.21875 C 424 82.46875 424.75 80.96875 425.5 80.96875 C 426.25 80.96875 427.75 81.71875 427.75 82.46875 C 427.75 84.71875 428.5 87.71875 428.5 89.96875 C 428.5 92.21875 428.5 93.71875 431.5 92.96875 L 434.5 92.96875 C 436 92.96875 437.5 92.96875 437.5 94.46875 C 437.429688 95.679688 436.460938 96.648438 435.25 96.71875 C 430.75 96.71875 427 101.21875 427.75 105.71875 L 427.75 106.46875 C 427.75 107.96875 427.75 109.46875 426.25 109.46875 C 424.75 109.46875 424 107.96875 424 106.46875 C 422.5 105.71875 422.5 104.21875 422.5 102.71875 "/>
<path style=" stroke:none;fill-rule:nonzero;fill:rgb(0%,0%,0%);fill-opacity:1;" d="M 215.5 220.46875 C 216.421875 217.296875 216.925781 214.019531 217 210.71875 C 217 209.21875 217 207.71875 218.5 207.71875 C 220.078125 207.691406 221.53125 208.5625 222.25 209.96875 C 223 210.71875 223 211.46875 223 212.96875 C 222.25 219.71875 220.75 225.71875 219.25 231.71875 C 219.171875 232.289062 218.90625 232.816406 218.5 233.21875 C 217.75 234.71875 217 236.96875 214.75 236.21875 C 212.5 235.46875 214.75 233.21875 214.75 231.71875 C 214.75 230.21875 214.75 228.71875 215.5 227.96875 C 216.195312 226.304688 215.554688 224.382812 214 223.46875 C 212.5 222.71875 210.25 221.96875 211 220.46875 C 211.75 218.96875 214 219.71875 215.5 220.46875 "/>
<path style=" stroke:none;fill-rule:nonzero;fill:rgb(14.498901%,45.098877%,72.898865%);fill-opacity:1;" d="M 250 157.46875 C 251.359375 160.269531 251.625 163.480469 250.75 166.46875 C 250.75 180.71875 251.5 195.71875 250.75 209.96875 L 250.75 215.96875 C 248.636719 205.605469 247.632812 195.046875 247.75 184.46875 C 247.75 176.21875 247.75 166.46875 250 157.46875 "/>
<path style=" stroke:none;fill-rule:nonzero;fill:rgb(14.498901%,45.098877%,72.898865%);fill-opacity:1;" d="M 385 90.71875 C 384.882812 94.074219 383.550781 97.273438 381.25 99.71875 C 379 102.71875 379.75 105.71875 383.5 106.46875 C 384.25 106.46875 385.75 105.71875 385.75 107.96875 C 385.839844 108.589844 385.628906 109.214844 385.1875 109.65625 C 384.746094 110.097656 384.121094 110.308594 383.5 110.21875 C 382 110.96875 379.75 110.21875 378.25 109.46875 C 375.484375 106.734375 374.347656 102.753906 375.25 98.96875 C 376 96.71875 376 94.46875 376.75 92.21875 C 376.648438 91.394531 376.921875 90.566406 377.5 89.96875 C 378.25 86.96875 379.75 85.46875 382 85.46875 C 384.25 85.46875 384.25 87.71875 385 89.21875 Z M 385 90.71875 "/>
<path style=" stroke:none;fill-rule:nonzero;fill:rgb(0%,0%,0%);fill-opacity:1;" d="M 539.5 762.71875 C 542.246094 762.808594 544.644531 764.605469 545.5 767.21875 C 546.25 769.46875 544.75 769.46875 543.25 769.46875 C 540.25 768.71875 538 770.21875 537.25 773.21875 L 537.25 782.96875 C 537.25 783.71875 537.25 785.21875 535.75 785.21875 C 534.25 785.21875 533.5 784.46875 533.5 783.71875 C 532 778.46875 532.75 773.21875 531.25 767.96875 C 533.230469 765.230469 536.183594 763.355469 539.5 762.71875 "/>
<path style=" stroke:none;fill-rule:nonzero;fill:rgb(0%,0%,0%);fill-opacity:1;" d="M 226 52.46875 C 226.75 50.21875 227.5 47.96875 229.75 49.46875 C 231.574219 50.535156 232.234375 52.847656 231.25 54.71875 C 228.886719 60.019531 225.585938 64.847656 221.5 68.96875 C 220.75 70.46875 220 70.46875 219.25 70.46875 C 218.5 69.71875 217.75 68.96875 218.5 68.21875 C 219.25 65.21875 220.75 62.96875 222.25 60.71875 C 223 59.21875 223.75 57.71875 222.25 56.21875 C 221.5 55.46875 221.5 54.71875 220.75 53.96875 C 220 53.21875 220 50.96875 220.75 50.21875 C 222.25 49.46875 223 50.21875 223.75 51.71875 C 224.5 51.71875 225.25 52.46875 226 52.46875 "/>
<path style=" stroke:none;fill-rule:nonzero;fill:rgb(0%,0%,0%);fill-opacity:1;" d="M 889.75 713.96875 C 889.75 715.46875 889 716.96875 888.25 718.46875 C 885.25 722.96875 882.25 726.71875 879.25 730.46875 C 878.5 731.21875 877.75 731.96875 877 731.21875 C 876.25 730.46875 876.25 729.71875 876.25 728.21875 C 876.4375 727.089844 876.960938 726.046875 877.75 725.21875 C 879.25 723.71875 878.5 722.21875 877.75 720.71875 L 877 719.96875 C 875.5 719.21875 875.5 718.46875 875.5 716.96875 L 875.5 716.21875 C 876.25 715.46875 877.75 714.71875 878.5 715.46875 C 880.75 716.96875 882.25 715.46875 883.75 713.96875 C 884.5 713.21875 884.5 712.46875 885.25 711.71875 C 886 710.96875 886.75 710.21875 888.25 710.96875 C 889.175781 711.691406 889.726562 712.792969 889.75 713.96875 "/>
<path style=" stroke:none;fill-rule:nonzero;fill:rgb(96.099854%,16.099548%,30.599976%);fill-opacity:1;" d="M 684.25 253.46875 C 686.5 252.71875 686.5 249.71875 689.5 250.46875 C 692.5 251.21875 691 254.21875 691 256.46875 C 691 257.96875 691 260.21875 691.75 261.71875 C 692.53125 262.554688 692.511719 263.859375 691.699219 264.667969 C 690.890625 265.480469 689.585938 265.5 688.75 264.71875 C 688.75 264.519531 688.671875 264.328125 688.53125 264.1875 C 688.390625 264.046875 688.199219 263.96875 688 263.96875 C 686.5 261.71875 685.75 260.21875 682.75 262.46875 C 681.25 263.21875 679.75 262.46875 679 260.96875 C 678.25 257.21875 678.25 253.46875 680.5 249.71875 C 681.25 248.21875 682.75 248.96875 683.5 249.71875 C 683.449219 251.011719 683.707031 252.296875 684.25 253.46875 "/>
<path style=" stroke:none;fill-rule:nonzero;fill:rgb(14.498901%,45.098877%,72.898865%);fill-opacity:1;" d="M 327.25 101.96875 C 327.304688 103.964844 326.484375 105.882812 325 107.21875 C 322.925781 109.1875 322.605469 112.378906 324.25 114.71875 C 324.605469 114.984375 324.816406 115.402344 324.816406 115.84375 C 324.816406 116.285156 324.605469 116.703125 324.25 116.96875 C 323.5 117.71875 322.75 116.96875 322 116.21875 C 320.5 115.46875 319 113.96875 317.5 113.96875 C 316.695312 113.914062 316.054688 113.273438 316 112.46875 L 316 111.71875 C 317.304688 109.558594 317 106.789062 315.25 104.96875 C 314.5 104.21875 314.5 102.71875 315.25 101.21875 C 316.75 100.46875 317.5 101.21875 318.25 101.96875 C 321.25 104.21875 322 104.21875 322.75 100.46875 C 323.5 98.96875 322.75 97.46875 325 97.46875 C 327.25 98.21875 328 99.71875 327.25 101.96875 "/>
<path style=" stroke:none;fill-rule:nonzero;fill:rgb(14.498901%,45.098877%,72.898865%);fill-opacity:1;" d="M 387.25 104.21875 C 387.25 100.46875 388.75 96.71875 391.75 95.21875 C 393.46875 93.71875 396.03125 93.71875 397.75 95.21875 C 398.535156 96.078125 398.90625 97.238281 398.761719 98.390625 C 398.617188 99.546875 397.972656 100.582031 397 101.21875 C 396.25 102.71875 394.75 103.46875 393.25 104.21875 C 392.5 104.96875 391 104.96875 391 106.46875 C 391 107.96875 392.5 108.71875 394 107.96875 C 394.75 107.96875 397 107.21875 397 108.71875 C 396.890625 110.328125 395.609375 111.609375 394 111.71875 C 391 112.46875 387.25 110.21875 386.5 107.21875 C 387.023438 106.308594 387.28125 105.269531 387.25 104.21875 "/>
<path style=" stroke:none;fill-rule:nonzero;fill:rgb(0%,0%,0%);fill-opacity:1;" d="M 541 708.71875 L 541 710.96875 C 541 712.46875 542.5 712.46875 543.25 711.71875 C 544 711.71875 544 710.96875 544 710.21875 L 544 709.46875 C 543.25 707.96875 542.5 707.21875 541.75 705.71875 C 540.984375 704.863281 540.984375 703.574219 541.75 702.71875 C 543.25 701.96875 543.25 702.71875 544 703.46875 C 545.253906 704.785156 546.269531 706.304688 547 707.96875 C 549.25 710.96875 548.5 714.71875 545.5 716.21875 L 544.75 716.21875 C 541.75 717.71875 537.25 716.96875 535.75 713.21875 L 535.75 712.46875 C 535 710.96875 535 708.71875 535.75 706.46875 C 536.5 704.96875 536.5 702.71875 538.75 702.71875 C 541 702.71875 541 707.21875 541 708.71875 "/>
<path style=" stroke:none;fill-rule:nonzero;fill:rgb(14.498901%,45.098877%,72.898865%);fill-opacity:1;" d="M 401.5 103.46875 C 401.5 101.96875 402.25 100.46875 403 98.96875 C 403.070312 97.757812 404.039062 96.789062 405.25 96.71875 C 406.75 96.71875 407.5 98.21875 407.5 99.71875 C 408.25 101.21875 409 100.46875 409.75 99.71875 C 415 96.71875 417.25 98.21875 418.75 104.21875 C 419.5 105.71875 418.75 107.21875 417.25 107.96875 C 415.75 108.71875 415 107.96875 414.25 106.46875 L 414.25 105.71875 C 413.5 102.71875 412 103.46875 410.5 104.96875 L 407.5 107.21875 C 406.75 107.96875 404.5 108.71875 403.75 107.96875 C 402.25 106.46875 401.5 104.96875 401.5 103.46875 "/>
<path style=" stroke:none;fill-rule:nonzero;fill:rgb(0%,0%,0%);fill-opacity:1;" d="M 157.75 471.71875 L 169 471.71875 C 170.5 471.71875 171.25 471.71875 172 473.21875 C 172.75 474.71875 171.25 475.46875 169.75 475.46875 C 168.25 476.21875 166.75 476.21875 164.5 476.21875 C 158.5 476.21875 151.75 475.46875 145.75 475.46875 C 144.25 475.46875 142 475.46875 142.75 473.96875 C 143.46875 472.5625 144.921875 471.691406 146.5 471.71875 Z M 157.75 471.71875 "/>
<path style=" stroke:none;fill-rule:nonzero;fill:rgb(0%,0%,0%);fill-opacity:1;" d="M 392.5 724.46875 C 390.25 723.71875 389.5 722.96875 390.25 721.46875 C 391 719.96875 394 716.21875 390.25 713.96875 C 389.5 713.21875 390.25 711.71875 391 711.71875 L 392.5 711.71875 C 394.75 713.96875 396.25 712.46875 397.75 710.96875 C 399.25 709.46875 400 706.46875 402.25 708.71875 C 403.75 710.21875 404.5 713.21875 403 714.71875 L 393.25 724.46875 Z M 392.5 724.46875 "/>
<path style=" stroke:none;fill-rule:nonzero;fill:rgb(0%,0%,0%);fill-opacity:1;" d="M 569.5 704.21875 C 569.5 705.71875 569.5 706.46875 568.75 707.21875 C 566.5 708.71875 567.25 713.96875 562 713.21875 C 561.25 713.96875 559.75 714.71875 559 715.46875 C 558.164062 716.25 556.859375 716.230469 556.050781 715.417969 C 555.238281 714.609375 555.21875 713.304688 556 712.46875 C 558.25 710.21875 559 707.96875 557.5 704.96875 C 556.75 702.71875 558.25 701.96875 559.75 703.46875 C 561.15625 704.21875 562.84375 704.21875 564.25 703.46875 C 565.078125 702.679688 566.121094 702.15625 567.25 701.96875 C 569.5 701.21875 570.25 702.71875 569.5 704.21875 "/>
<path style=" stroke:none;fill-rule:nonzero;fill:rgb(0%,0%,0%);fill-opacity:1;" d="M 847 727.46875 C 844 727.46875 841.75 725.96875 841.75 722.96875 C 841.648438 722.144531 841.921875 721.316406 842.5 720.71875 C 842.5 719.96875 844 719.21875 844.75 718.46875 C 845.554688 718.523438 846.195312 719.164062 846.25 719.96875 L 846.25 720.71875 C 846.25 722.96875 847.75 722.96875 849.25 722.21875 C 850.449219 721.652344 851.289062 720.527344 851.5 719.21875 L 851.5 718.46875 C 850.75 717.71875 850 716.21875 848.5 716.21875 C 847 716.21875 846.25 714.71875 847 713.96875 L 847 713.21875 C 847.75 711.71875 849.25 712.46875 850.75 712.46875 C 853.75 713.96875 856 717.71875 856 721.46875 C 854.484375 725.101562 850.9375 727.46875 847 727.46875 "/>
<path style=" stroke:none;fill-rule:nonzero;fill:rgb(14.498901%,45.098877%,72.898865%);fill-opacity:1;" d="M 247 678.71875 C 245.5 679.46875 244 678.71875 243.25 677.21875 L 243.25 676.46875 C 243.25 674.96875 241.75 672.71875 240.25 671.96875 L 240.25 669.71875 C 241 668.21875 241.75 666.71875 241.75 665.21875 C 241.75 655.46875 242.5 645.71875 242.5 635.96875 C 242.398438 635.144531 242.671875 634.316406 243.25 633.71875 C 244.1875 634.746094 244.722656 636.078125 244.75 637.46875 C 244.75 639.71875 245.5 642.71875 245.5 644.96875 C 245.5 655.46875 247.75 665.96875 247.75 677.21875 C 247.695312 677.792969 247.429688 678.328125 247 678.71875 "/>
<path style=" stroke:none;fill-rule:nonzero;fill:rgb(14.498901%,45.098877%,72.898865%);fill-opacity:1;" d="M 814.75 71.96875 C 812.5 72.71875 809.5 73.46875 808 74.96875 C 807.25 75.71875 807.25 74.96875 807.25 74.21875 C 807.296875 72.265625 808.464844 70.515625 810.25 69.71875 C 814.75 67.46875 817.75 63.71875 822.25 62.21875 L 826.75 57.71875 C 828.25 58.46875 829.75 59.96875 831.25 61.46875 C 831.25 63.71875 828.25 63.71875 826.75 65.21875 C 823 67.46875 819.25 69.71875 814.75 71.96875 "/>
<path style=" stroke:none;fill-rule:nonzero;fill:rgb(0%,0%,0%);fill-opacity:1;" d="M 446.5 435.71875 C 439.75 445.46875 435.25 455.96875 424 461.21875 C 430.882812 452.191406 438.402344 443.671875 446.5 435.71875 "/>
<path style=" stroke:none;fill-rule:nonzero;fill:rgb(96.099854%,16.099548%,30.599976%);fill-opacity:1;" d="M 642.25 259.46875 L 642.25 257.96875 C 639.25 252.71875 643.75 250.46875 646.75 248.21875 C 648.25 246.71875 649.75 246.71875 652 247.46875 C 652.804688 247.523438 653.445312 248.164062 653.5 248.96875 C 653.5 249.71875 653.5 250.46875 652 250.46875 C 648.25 252.71875 645.25 257.21875 646 261.71875 C 646 263.21875 646 266.21875 643.75 265.46875 C 641.5 264.71875 642.25 261.71875 642.25 259.46875 "/>
<path style=" stroke:none;fill-rule:nonzero;fill:rgb(14.498901%,45.098877%,72.898865%);fill-opacity:1;" d="M 631 62.96875 C 639.25 62.21875 646.75 62.21875 655 62.21875 C 661 62.21875 667.75 62.21875 673.75 61.46875 C 676 60.71875 677.5 62.21875 678.25 63.71875 L 678.25 64.46875 C 664.75 64.46875 652 62.21875 639.25 62.96875 C 636.550781 63.722656 633.699219 63.722656 631 62.96875 "/>
<path style=" stroke:none;fill-rule:nonzero;fill:rgb(0%,0%,0%);fill-opacity:1;" d="M 478 399.71875 C 475 408.71875 468.25 416.21875 460 420.71875 C 465.25 413.21875 471.25 405.71875 478 399.71875 "/>
<path style=" stroke:none;fill-rule:nonzero;fill:rgb(0%,0%,0%);fill-opacity:1;" d="M 655.75 220.46875 C 658.609375 218.359375 661.140625 215.828125 663.25 212.96875 C 664 211.46875 665.5 210.71875 667 209.96875 L 668.5 209.96875 C 669.25 210.71875 668.5 210.71875 667.75 211.46875 L 655 225.71875 C 652.75 227.21875 650.5 229.46875 648.25 230.96875 C 647.105469 231.882812 645.84375 232.640625 644.5 233.21875 C 643.75 233.21875 643.75 232.46875 643.75 231.71875 C 645.859375 228.859375 648.390625 226.328125 651.25 224.21875 C 652 221.96875 653.5 221.21875 655.75 220.46875 "/>
<path style=" stroke:none;fill-rule:nonzero;fill:rgb(0%,0%,0%);fill-opacity:1;" d="M 703.75 176.21875 C 708.25 170.21875 714.25 164.96875 720.25 160.46875 C 720.25 164.96875 711.25 173.96875 703.75 176.21875 "/>
<path style=" stroke:none;fill-rule:nonzero;fill:rgb(35.699463%,35.699463%,35.699463%);fill-opacity:1;" d="M 834.25 650.96875 C 835 650.21875 835 649.46875 836.5 649.46875 C 837.25 649.46875 838 650.96875 838 651.71875 C 838 653.96875 837.25 656.96875 837.25 659.21875 C 836.5 662.171875 836.5 665.265625 837.25 668.21875 C 838.128906 669.953125 837.828125 672.050781 836.5 673.46875 C 834.238281 667.234375 833.464844 660.554688 834.25 653.96875 C 833.5 653.21875 834.25 651.71875 834.25 650.96875 "/>
<path style=" stroke:none;fill-rule:nonzero;fill:rgb(0%,0%,0%);fill-opacity:1;" d="M 485.5 391.46875 C 488.5 386.21875 493 381.71875 498.25 377.96875 C 497.5 384.71875 492.25 390.71875 485.5 391.46875 "/>
<path style=" stroke:none;fill-rule:nonzero;fill:rgb(0%,0%,0%);fill-opacity:1;" d="M 508 365.96875 C 511 360.71875 514.75 356.21875 520 353.21875 C 519.25 359.96875 514.75 365.21875 508 365.96875 "/>
<path style=" stroke:none;fill-rule:nonzero;fill:rgb(0%,0%,0%);fill-opacity:1;" d="M 544.75 325.46875 L 551.5 318.71875 C 553 317.96875 553 317.96875 553.75 319.46875 L 547 327.71875 L 544.75 329.96875 C 543.25 331.46875 541 332.21875 540.25 331.46875 C 539.5 330.71875 541.75 329.21875 542.5 327.71875 Z M 544.75 325.46875 "/>
<path style=" stroke:none;fill-rule:nonzero;fill:rgb(0%,0%,0%);fill-opacity:1;" d="M 745.75 134.96875 C 748.75 129.71875 752.5 125.21875 758.5 122.96875 C 757.886719 126.046875 756.328125 128.855469 754.042969 131.007812 C 751.757812 133.15625 748.859375 134.542969 745.75 134.96875 "/>
<path style=" stroke:none;fill-rule:nonzero;fill:rgb(61.199951%,41.598511%,8.599854%);fill-opacity:1;" d="M 253 266.96875 C 253.75 256.46875 253.75 245.96875 254.5 235.46875 C 254.5 234.71875 254.5 233.21875 256 233.96875 C 255.996094 244.011719 255.246094 254.039062 253.75 263.96875 C 253.75 264.71875 253.75 266.21875 253 266.96875 "/>
<path style=" stroke:none;fill-rule:nonzero;fill:rgb(0%,0%,0%);fill-opacity:1;" d="M 392.5 500.96875 C 391.75 500.96875 390.25 500.96875 390.25 499.46875 C 390.25 496.46875 391 494.21875 394 492.71875 C 396.25 492.71875 397 490.46875 399.25 490.46875 C 398.5 494.96875 396.25 498.71875 392.5 500.96875 "/>
<path style=" stroke:none;fill-rule:nonzero;fill:rgb(0%,0%,0%);fill-opacity:1;" d="M 265 657.71875 L 267.25 653.21875 C 268.75 651.71875 270.25 650.21875 272.5 649.46875 C 273.25 653.21875 271.75 656.96875 268 658.46875 L 266.5 658.46875 C 265 659.21875 265 658.46875 265 657.71875 "/>
<path style=" stroke:none;fill-rule:nonzero;fill:rgb(79.598999%,79.598999%,79.598999%);fill-opacity:1;" d="M 817.75 404.96875 L 817.75 453.71875 C 817 452.21875 817 449.96875 817 448.46875 L 817 407.96875 C 817 406.46875 817.75 405.71875 817.75 404.96875 "/>
<path style=" stroke:none;fill-rule:nonzero;fill:rgb(0%,0%,0%);fill-opacity:1;" d="M 234.25 72.71875 C 234.25 71.21875 234.25 69.71875 235.75 69.71875 C 238 69.71875 239.5 71.96875 239.5 73.46875 C 239.5 74.96875 238.75 75.71875 237.25 76.46875 C 235 75.71875 233.5 74.21875 234.25 72.71875 "/>
<path style=" stroke:none;fill-rule:nonzero;fill:rgb(79.598999%,79.598999%,79.598999%);fill-opacity:1;" d="M 817.75 358.46875 C 818.328125 359.066406 818.601562 359.894531 818.5 360.71875 L 818.5 391.46875 C 818.601562 392.292969 818.328125 393.121094 817.75 393.71875 Z M 817.75 358.46875 "/>
<path style=" stroke:none;fill-rule:nonzero;fill:rgb(0%,0%,0%);fill-opacity:1;" d="M 223.75 236.96875 C 222.25 236.96875 220.75 235.46875 220 233.96875 C 220 233.21875 220.75 231.71875 221.5 231.71875 L 222.25 231.71875 C 223.859375 231.828125 225.140625 233.109375 225.25 234.71875 C 226 236.21875 224.5 236.96875 223.75 236.96875 "/>
<path style=" stroke:none;fill-rule:nonzero;fill:rgb(0%,0%,0%);fill-opacity:1;" d="M 409.75 734.21875 C 409.839844 734.839844 409.628906 735.464844 409.1875 735.90625 C 408.746094 736.347656 408.121094 736.558594 407.5 736.46875 C 405.890625 736.359375 404.609375 735.078125 404.5 733.46875 C 404.5 731.96875 405.25 731.21875 406 731.21875 L 406.75 731.21875 C 409.75 730.46875 409.75 731.96875 409.75 734.21875 "/>
<path style=" stroke:none;fill-rule:nonzero;fill:rgb(0%,0%,0%);fill-opacity:1;" d="M 573.25 719.21875 C 573.25 720.71875 572.5 722.21875 571 722.21875 C 570.378906 722.308594 569.753906 722.097656 569.3125 721.65625 C 568.871094 721.214844 568.660156 720.589844 568.75 719.96875 L 568.75 719.21875 C 568.75 717.71875 569.5 716.96875 571 716.21875 L 571.75 716.21875 C 572.5 716.21875 574 716.96875 574 717.71875 C 573.25 718.46875 573.25 718.46875 573.25 719.21875 "/>
<path style=" stroke:none;fill-rule:nonzero;fill:rgb(54.499817%,54.499817%,54.499817%);fill-opacity:1;" d="M 667.75 211.46875 C 667.75 210.71875 668.5 209.96875 667 209.96875 L 672.25 203.96875 C 672.25 204.71875 675.25 203.21875 673.75 205.46875 C 672.144531 207.828125 670.109375 209.863281 667.75 211.46875 "/>
<path style=" stroke:none;fill-rule:nonzero;fill:rgb(96.099854%,16.099548%,30.599976%);fill-opacity:1;" d="M 736 260.21875 L 738.25 253.46875 C 738.25 252.71875 739.75 251.96875 740.5 251.96875 C 742 251.96875 741.25 253.46875 741.25 254.21875 L 741.25 257.96875 L 739.75 254.96875 C 737.5 255.71875 738.25 259.46875 736 260.21875 "/>
<path style=" stroke:none;fill-rule:nonzero;fill:rgb(54.499817%,54.499817%,54.499817%);fill-opacity:1;" d="M 888.25 733.46875 C 889 733.46875 889.75 734.21875 889.75 735.71875 C 889.75 736.46875 889.75 737.21875 889 737.21875 L 888.25 737.21875 C 887.445312 737.164062 886.804688 736.523438 886.75 735.71875 C 886.75 734.21875 886.75 733.46875 888.25 733.46875 "/>
<path style=" stroke:none;fill-rule:nonzero;fill:rgb(7.798767%,68.998718%,24.299622%);fill-opacity:1;" d="M 247 678.71875 C 246.386719 677.300781 246.132812 675.757812 246.25 674.21875 L 244 633.71875 C 244 624.71875 244.75 614.96875 244.75 605.96875 C 244.625 603.199219 244.878906 600.421875 245.5 597.71875 L 245.5 604.46875 C 246.25 605.96875 247 608.21875 246.25 609.71875 C 246.25 617.96875 246.25 626.21875 247 634.46875 C 247.003906 642.273438 247.757812 650.058594 249.25 657.71875 C 249.25 660.71875 250 663.71875 252.25 665.96875 C 253 667.46875 253 668.96875 252.25 669.71875 L 252.25 671.96875 C 251.5 673.46875 251.5 674.96875 251.5 677.21875 C 250.75 679.46875 250 680.21875 247 678.71875 "/>
<path style=" stroke:none;fill-rule:nonzero;fill:rgb(14.498901%,45.098877%,72.898865%);fill-opacity:1;" d="M 241 596.96875 C 240.421875 596.371094 240.148438 595.542969 240.25 594.71875 C 241 585.71875 241 575.96875 241.75 566.96875 C 241.75 566.21875 242.5 564.71875 243.25 564.71875 C 243.246094 575.507812 242.496094 586.285156 241 596.96875 "/>
<path style=" stroke:none;fill-rule:nonzero;fill:rgb(7.798767%,68.998718%,24.299622%);fill-opacity:1;" d="M 364.75 146.96875 C 362.878906 148.972656 360.566406 150.511719 358 151.46875 C 359.5 149.21875 361.75 146.96875 364.75 146.96875 "/>
<path style=" stroke:none;fill-rule:nonzero;fill:rgb(14.498901%,45.098877%,72.898865%);fill-opacity:1;" d="M 250.75 677.21875 C 250.75 675.71875 249.25 672.71875 252.25 671.96875 C 255.25 674.21875 253 675.71875 250.75 677.21875 "/>
<path style=" stroke:none;fill-rule:nonzero;fill:rgb(0%,0%,0%);fill-opacity:1;" d="M 643.75 233.96875 C 639.25 238.46875 634.75 242.21875 631 247.46875 C 626.5 253.46875 621.25 258.71875 614.5 262.46875 C 613.75 262.46875 613 263.21875 612.25 263.21875 C 622 251.96875 633.25 241.46875 643.75 231.71875 Z M 643.75 233.96875 "/>
<path style=" stroke:none;fill-rule:nonzero;fill:rgb(89.7995%,68.199158%,21.598816%);fill-opacity:1;" d="M 490.898438 209.96875 L 499.148438 203.96875 C 509.648438 198.71875 520.75 194.21875 532 189.71875 C 544 185.21875 556 179.96875 568 176.21875 C 576.25 173.21875 584.5 170.21875 593.5 167.21875 C 604 163.46875 615.25 158.96875 625.75 154.46875 C 638.5 148.46875 651.25 142.46875 664 135.71875 C 672.25 131.21875 679.75 125.96875 688 122.21875 C 698.5 117.71875 709 113.96875 719.5 109.46875 C 735.25 101.96875 751.75 97.46875 768.25 90.71875 C 777.25 87.71875 786.25 83.96875 795.25 80.21875 C 798.25 77.96875 801.25 77.21875 805 77.21875 L 808 74.21875 C 808.847656 72.621094 810.152344 71.316406 811.75 70.46875 C 810.25 70.46875 808.75 70.46875 808.75 71.96875 C 802.75 74.21875 797.5 77.21875 791.5 79.46875 C 776.5 85.46875 760.75 91.46875 745 97.46875 C 733 101.96875 721 107.21875 709 111.71875 L 686.5 120.71875 C 671.5 128.21875 658 136.46875 643 143.21875 C 631.75 148.46875 621.25 152.96875 609.25 158.21875 C 597.25 163.46875 585.25 165.71875 574 170.21875 C 558.25 175.46875 543.25 181.46875 527.5 187.46875 C 514.796875 191.96875 507.363281 194.453125 496.148438 201.171875 C 495.976562 200.707031 494.054688 203.136719 493.148438 202.535156 C 491.648438 204.035156 487 205.46875 485.5 206.21875 C 464.5 221.21875 445 239.21875 429.25 260.21875 C 418.773438 274.308594 410.664062 290.015625 405.25 306.71875 C 403 312.71875 400.75 319.46875 398.5 325.46875 C 390.414062 341.15625 381.136719 356.199219 370.75 370.46875 C 359.5 388.46875 347.5 407.21875 337 425.96875 C 331 437.96875 322.75 449.96875 317.5 461.21875 C 312.25 472.46875 305.5 483.71875 299.5 494.96875 C 291.25 511.46875 284.5 528.71875 278.5 545.96875 C 271 566.96875 265 587.96875 259.75 608.96875 C 256.171875 621.484375 253.660156 634.28125 252.25 647.21875 C 252.234375 651.8125 251.476562 656.371094 250 660.71875 C 250.121094 658.441406 249.867188 656.164062 249.25 653.96875 C 247.75 647.96875 247.75 641.21875 246.25 635.21875 C 246.25 644.21875 247.75 653.96875 248.5 661.46875 L 250 662.96875 C 251.484375 664.304688 252.304688 666.222656 252.25 668.21875 L 255.25 662.21875 C 256.75 653.96875 257.5 645.71875 258.25 637.46875 C 261.203125 621.785156 264.957031 606.265625 269.5 590.96875 C 271.050781 582.789062 273.308594 574.757812 276.25 566.96875 C 278.5 558.71875 281.5 550.46875 284.5 542.21875 C 288.25 533.96875 291.25 524.21875 295 515.96875 C 298.75 507.71875 302.5 499.46875 306.25 491.96875 C 308.5 485.96875 312.25 480.71875 315.25 474.71875 C 322.75 461.21875 328.75 447.71875 337 434.96875 C 342.25 426.71875 346.75 416.96875 352 408.71875 C 358 398.21875 364 387.71875 370.75 377.96875 C 377.5 368.21875 382.75 358.46875 389.5 349.46875 C 396.25 341.21875 400.75 331.46875 404.5 321.71875 C 406.75 315.71875 409 308.96875 411.25 302.21875 C 417.25 288.71875 424 275.21875 433 263.21875 C 440.5 253.46875 448.75 243.71875 457.75 235.46875 "/>
<path style=" stroke:none;fill-rule:nonzero;fill:rgb(0%,0%,0%);fill-opacity:1;" d="M 335.5 567.71875 L 344.5 554.96875 C 345.25 554.21875 345.25 552.71875 346.75 553.46875 C 348.25 554.21875 346.75 554.96875 346 555.71875 C 343.75 557.96875 342.25 560.96875 340 563.96875 C 339.054688 565.765625 337.4375 567.113281 335.5 567.71875 "/>
<path style=" stroke:none;fill-rule:nonzero;fill:rgb(0%,0%,0%);fill-opacity:1;" d="M 165.25 437.21875 C 160 436.46875 154.75 436.46875 148.75 436.46875 C 150.25 434.21875 151.75 431.96875 152.5 429.71875 C 153.25 428.21875 153.25 426.71875 153.25 424.46875 C 151.75 419.21875 146.5 415.46875 141.25 416.21875 C 135.910156 416.972656 131.503906 420.789062 130 425.96875 C 127.75 430.976562 127.75 436.710938 130 441.71875 C 130 442.46875 130.75 443.21875 131.5 443.96875 C 133.839844 445.613281 137.03125 445.292969 139 443.21875 C 139.722656 442.292969 140.824219 441.742188 142 441.71875 C 149.5 440.96875 157.75 440.96875 165.25 440.96875 C 166.75 440.96875 169 440.96875 169 439.46875 C 169 437.21875 166.75 437.21875 165.25 437.21875 M 145.75 431.96875 C 145.75 434.96875 143.5 437.96875 140.5 437.96875 L 139.75 437.96875 C 138.25 437.96875 137.5 440.21875 136 439.46875 C 134.5 437.96875 133.75 435.71875 134.5 434.21875 C 134.5 429.71875 136 425.21875 139.75 422.21875 C 140.867188 420.902344 142.769531 420.585938 144.25 421.46875 C 145 422.21875 145 422.21875 145 422.96875 C 146.5 425.21875 147.25 428.96875 145.75 431.96875 "/>
<path style=" stroke:none;fill-rule:nonzero;fill:rgb(0%,0%,0%);fill-opacity:1;" d="M 497.5 761.21875 C 496.921875 759.875 496.164062 758.613281 495.25 757.46875 C 490 752.21875 481.75 751.46875 476.5 756.71875 C 475 758.21875 474.25 760.46875 475 761.96875 C 475.75 763.46875 477.25 764.96875 478.75 764.96875 C 478 766.105469 478 767.582031 478.75 768.71875 C 480.121094 773.855469 480.375 779.226562 479.5 784.46875 L 479.5 787.46875 C 479.5 788.21875 481 789.71875 481.75 788.96875 C 482.5 788.96875 483.25 787.46875 483.25 786.71875 C 483.839844 784.011719 484.089844 781.238281 484 778.46875 L 484 776.96875 C 484 774.71875 486.25 773.21875 488.5 773.21875 C 490.304688 772.605469 492.0625 771.855469 493.75 770.96875 C 496.75 769.46875 498.25 764.96875 497.5 761.21875 M 487 767.21875 C 485.5 767.96875 483.25 767.96875 482.5 766.46875 L 482.5 765.71875 C 481.777344 764.792969 480.675781 764.242188 479.5 764.21875 C 479.5 761.21875 482.5 758.96875 484.75 759.71875 L 485.5 759.71875 C 488.5 759.71875 492.25 758.96875 493 761.96875 C 493 765.71875 489.25 766.46875 487 767.21875 "/>
<path style=" stroke:none;fill-rule:nonzero;fill:rgb(0%,0%,0%);fill-opacity:1;" d="M 226.75 718.46875 C 225.082031 717.71875 223.167969 717.71875 221.5 718.46875 C 220 719.96875 219.25 722.21875 220.75 723.71875 C 222.25 725.96875 220.75 725.96875 220 727.46875 C 217 731.21875 215.5 734.96875 215.5 739.46875 L 215.5 741.71875 C 217 746.21875 221.5 749.21875 226 747.71875 C 235 745.46875 240.25 740.96875 240.25 734.96875 C 238.75 728.21875 233.5 722.21875 226.75 718.46875 M 234.25 736.46875 C 232 738.71875 227.5 740.96875 223 741.71875 C 220.75 741.71875 220 740.96875 220 739.46875 C 220.625 737.425781 221.375 735.421875 222.25 733.46875 C 223 731.21875 225.25 729.71875 223 727.46875 C 222.25 726.71875 223 725.96875 223.75 725.96875 C 229 726.71875 232.75 730.46875 235 734.96875 C 235 735.71875 235 736.46875 234.25 736.46875 "/>
<path style=" stroke:none;fill-rule:nonzero;fill:rgb(0%,0%,0%);fill-opacity:1;" d="M 163.75 347.21875 C 163 344.96875 161.5 342.71875 160 340.46875 C 160.75 340.46875 161.5 339.71875 162.25 338.96875 C 163.75 338.21875 164.5 335.96875 164.5 333.71875 C 163.84375 331.5625 162.15625 329.875 160 329.21875 C 159.25 329.21875 157.75 328.46875 157.75 330.71875 C 157.75 335.21875 157.75 335.21875 154 334.46875 L 150.25 334.46875 C 148.457031 334.863281 146.898438 335.957031 145.914062 337.503906 C 144.929688 339.050781 144.601562 340.929688 145 342.71875 C 146.5 348.71875 151.75 353.96875 157.75 354.71875 C 159.25 355.46875 161.5 354.71875 162.25 353.96875 C 165.25 353.21875 166 350.21875 163.75 347.21875 M 151.75 341.21875 C 155.292969 342.589844 157.855469 345.722656 158.5 349.46875 C 154.957031 348.097656 152.394531 344.964844 151.75 341.21875 "/>
<path style=" stroke:none;fill-rule:nonzero;fill:rgb(96.099854%,16.099548%,30.599976%);fill-opacity:1;" d="M 669.25 249.71875 C 665.5 247.46875 660.25 248.96875 658 252.71875 C 654.960938 255.035156 654.296875 259.34375 656.5 262.46875 C 659.261719 264.523438 663.117188 264.203125 665.5 261.71875 C 667 260.21875 668.5 260.21875 670 262.46875 C 670 263.21875 671.5 263.96875 672.25 263.96875 C 673.054688 263.914062 673.695312 263.273438 673.75 262.46875 C 673.75 260.21875 674.5 257.21875 674.5 254.96875 C 673.75 251.21875 673 251.96875 669.25 249.71875 M 660.25 259.46875 C 659.835938 259.46875 659.5 259.132812 659.5 258.71875 L 659.5 257.96875 C 660.292969 255.742188 662.386719 254.246094 664.75 254.21875 C 665.5 254.21875 666.25 254.21875 666.25 254.96875 L 666.25 255.71875 C 665.5 257.21875 663.25 258.71875 660.25 259.46875 "/>
<path style=" stroke:none;fill-rule:nonzero;fill:rgb(14.498901%,45.098877%,72.898865%);fill-opacity:1;" d="M 369.25 89.96875 C 370 92.21875 369.25 93.71875 367.75 95.21875 C 367.179688 94.339844 367.015625 93.257812 367.300781 92.25 C 367.589844 91.246094 368.300781 90.410156 369.25 89.96875 "/>
<path style=" stroke:none;fill-rule:nonzero;fill:rgb(96.099854%,16.099548%,30.599976%);fill-opacity:1;" d="M 732.25 247.46875 C 730.75 247.46875 731.5 249.71875 730.75 249.71875 C 725.5 243.71875 726.25 244.46875 720.25 248.96875 L 719.5 249.71875 C 718.0625 251.085938 717.25 252.984375 717.25 254.96875 C 717.25 256.953125 718.0625 258.851562 719.5 260.21875 C 721 261.71875 724 261.71875 726.25 260.96875 C 728.5 260.21875 730 257.96875 731.5 256.46875 C 730.75 258.71875 731.5 260.21875 733 261.71875 C 731.5 257.21875 731.5 251.96875 732.25 247.46875 M 726.25 254.21875 C 726.140625 255.828125 724.859375 257.109375 723.25 257.21875 C 722.445312 257.164062 721.804688 256.523438 721.75 255.71875 L 721.75 254.96875 C 722.597656 253.371094 723.902344 252.066406 725.5 251.21875 C 726.25 251.96875 726.25 253.46875 726.25 254.21875 "/>
<path style=" stroke:none;fill-rule:nonzero;fill:rgb(0%,0%,0%);fill-opacity:1;" d="M 862 716.21875 C 859 716.96875 856 719.21875 856.75 722.96875 C 856.648438 727.421875 859.851562 731.265625 864.25 731.96875 L 865 731.96875 C 868 731.96875 869.5 728.96875 869.5 725.96875 C 869.5 721.46875 866.5 716.96875 862 716.21875 M 863.5 725.96875 C 862 725.21875 861.25 724.46875 861.25 722.96875 C 861.273438 721.792969 861.824219 720.691406 862.75 719.96875 C 863.5 721.46875 864.25 722.96875 864.25 724.46875 C 865 725.21875 865 726.71875 863.5 725.96875 "/>
<path style=" stroke:none;fill-rule:nonzero;fill:rgb(7.798767%,68.998718%,24.299622%);fill-opacity:1;" d="M 492.25 149.21875 C 493.753906 142.804688 493.753906 136.132812 492.25 129.71875 C 491.5 127.46875 490 128.21875 489.25 128.96875 C 487.703125 130.574219 485.371094 131.15625 483.25 130.46875 C 482.628906 130.558594 482.003906 130.347656 481.5625 129.90625 C 481.121094 129.464844 480.910156 128.839844 481 128.21875 L 481 127.46875 C 481.75 124.46875 484 121.46875 487 120.71875 C 489.25 119.21875 492.25 120.71875 493 122.96875 L 493 123.71875 C 497.449219 132.558594 498.257812 142.789062 495.25 152.21875 C 494.5 155.96875 492.25 155.96875 489.25 153.71875 C 486.25 150.71875 484.75 146.21875 485.5 142.46875 C 485.554688 141.664062 486.195312 141.023438 487 140.96875 C 488.5 140.96875 488.5 141.71875 488.5 143.21875 C 489.25 144.71875 490 146.96875 492.25 149.21875 "/>
<path style=" stroke:none;fill-rule:nonzero;fill:rgb(7.798767%,68.998718%,24.299622%);fill-opacity:1;" d="M 525.25 125.21875 C 525.25 122.96875 524.5 121.46875 522.25 120.71875 C 520 119.96875 519.25 122.21875 518.5 123.71875 C 518.5 124.46875 517.75 124.46875 517 125.21875 C 515.5 126.71875 514.75 127.46875 513.25 124.46875 C 514 122.96875 512.5 121.46875 511 121.46875 C 509.5 120.71875 508.75 121.46875 507.25 122.21875 C 506.5 123.71875 508 123.71875 508.75 124.46875 C 508.949219 124.46875 509.140625 124.546875 509.28125 124.6875 C 509.421875 124.828125 509.5 125.019531 509.5 125.21875 C 510.21875 125.902344 510.625 126.851562 510.625 127.84375 C 510.625 128.835938 510.21875 129.785156 509.5 130.46875 C 508.78125 131.875 507.328125 132.746094 505.75 132.71875 C 504.25 131.96875 505.75 130.46875 505.75 128.96875 C 505.75 127.46875 505.75 125.96875 504.25 125.96875 C 501.871094 127.722656 500.476562 130.511719 500.5 133.46875 L 500.5 134.21875 C 501.25 136.46875 502.75 137.21875 505 137.21875 C 507.25 137.21875 509.5 135.71875 511 134.21875 C 511.75 133.46875 513.25 132.71875 514 133.46875 C 515.5 134.96875 517.75 134.96875 519.25 134.96875 C 523 134.21875 526 130.46875 525.25 126.71875 Z M 525.25 125.21875 "/>
<path style=" stroke:none;fill-rule:nonzero;fill:rgb(89.7995%,68.199158%,21.598816%);fill-opacity:1;" d="M 511.75 215.21875 C 510.25 215.96875 509.5 215.21875 508.75 213.71875 L 508.75 212.96875 C 508.75 211.46875 510.25 211.46875 511.75 211.46875 C 514.75 211.46875 517.75 209.21875 517.75 206.21875 C 518.570312 202.546875 520.386719 199.175781 523 196.46875 C 524.027344 195.53125 525.359375 194.996094 526.75 194.96875 C 527.5 194.96875 529 195.71875 529 196.46875 C 528.945312 197.273438 528.304688 197.914062 527.5 197.96875 C 523.75 200.96875 520.75 205.46875 520.75 210.71875 C 520.75 212.21875 522.25 212.21875 523 212.21875 C 523.414062 212.21875 523.75 212.554688 523.75 212.96875 C 523.75 213.382812 523.414062 213.71875 523 213.71875 C 520.75 212.96875 519.25 214.46875 518.5 215.96875 C 517 218.96875 517 221.96875 517.75 225.71875 C 518.5 227.21875 519.25 227.96875 517.75 228.71875 C 516.574219 228.695312 515.472656 228.144531 514.75 227.21875 C 514 224.011719 514 220.675781 514.75 217.46875 C 513.25 215.21875 513.25 215.21875 511.75 215.21875 "/>
<path style=" stroke:none;fill-rule:nonzero;fill:rgb(89.7995%,68.199158%,21.598816%);fill-opacity:1;" d="M 531.25 211.46875 C 533.5 212.21875 536.5 212.21875 535.75 215.96875 C 535.75 218.21875 535.75 219.71875 538.75 218.96875 C 539.5 218.96875 540.25 218.96875 540.25 219.71875 C 540.351562 220.542969 540.078125 221.371094 539.5 221.96875 C 538.082031 223.296875 535.984375 223.597656 534.25 222.71875 L 533.5 221.96875 C 532.75 220.46875 531.25 220.46875 530.5 221.21875 C 530.085938 221.21875 529.75 221.554688 529.75 221.96875 C 529 223.46875 526.75 224.21875 524.5 222.71875 C 523.171875 221.300781 522.871094 219.203125 523.75 217.46875 C 525.25 214.46875 527.5 212.21875 531.25 211.46875 "/>
<path style=" stroke:none;fill-rule:nonzero;fill:rgb(89.7995%,68.199158%,21.598816%);fill-opacity:1;" d="M 553 218.21875 C 552.90625 214.65625 554.59375 211.28125 557.5 209.21875 C 559.75 207.71875 562.75 206.96875 565 208.46875 C 565.75 208.46875 566.5 208.46875 566.5 209.21875 C 566.445312 210.023438 565.804688 210.664062 565 210.71875 C 559 210.71875 558.25 215.21875 556.75 219.71875 C 556 221.21875 556 222.71875 553.75 221.96875 C 551.5 221.21875 553 219.71875 553 218.21875 "/>
<path style=" stroke:none;fill-rule:nonzero;fill:rgb(0%,0%,0%);fill-opacity:1;" d="M 592 281.21875 C 589 287.21875 584.5 291.71875 579.25 296.21875 C 578.394531 296.984375 577.105469 296.984375 576.25 296.21875 C 575.5 295.46875 576.25 294.71875 577 294.71875 C 581.441406 289.632812 586.476562 285.101562 592 281.21875 "/>
<path style=" stroke:none;fill-rule:nonzero;fill:rgb(89.7995%,68.199158%,21.598816%);fill-opacity:1;" d="M 547.75 215.21875 L 547.75 218.96875 C 547.851562 219.792969 547.578125 220.621094 547 221.21875 L 546.25 221.21875 C 545.5 221.21875 544.75 220.46875 544 219.71875 C 543.25 216.71875 543.25 212.96875 544.75 209.96875 C 544.75 209.21875 545.5 209.21875 546.25 209.21875 C 547.054688 209.273438 547.695312 209.914062 547.75 210.71875 Z M 547.75 215.21875 "/>
<path style=" stroke:none;fill-rule:nonzero;fill:rgb(0%,0%,0%);fill-opacity:1;" d="M 376.75 516.71875 C 376.855469 520.761719 373.984375 524.269531 370 524.96875 C 370.644531 521.222656 373.207031 518.089844 376.75 516.71875 "/>
<path style=" stroke:none;fill-rule:nonzero;fill:rgb(89.7995%,68.199158%,21.598816%);fill-opacity:1;" d="M 547.75 199.46875 C 547.75 200.21875 547.75 201.71875 546.25 200.96875 C 544.75 200.96875 544 199.46875 544.75 198.71875 C 544.75 197.96875 544.75 196.46875 546.25 196.46875 C 547.039062 197.296875 547.5625 198.339844 547.75 199.46875 "/>
<path style=" stroke:none;fill-rule:nonzero;fill:rgb(7.798767%,68.998718%,24.299622%);fill-opacity:1;" d="M 549.25 130.46875 C 546.34375 126.320312 545.511719 121.0625 547 116.21875 C 547 114.71875 547.75 111.71875 546.25 111.71875 C 545.238281 111.65625 544.246094 112.03125 543.53125 112.75 C 542.8125 113.464844 542.4375 114.457031 542.5 115.46875 C 542.5 117.71875 541.75 119.96875 541 122.96875 C 536.5 119.96875 534.25 120.71875 530.5 124.46875 C 527.5 127.46875 527.5 131.21875 529.75 134.21875 C 532.75 136.46875 536.5 134.96875 538.75 131.96875 C 542.5 128.21875 542.5 128.21875 546.25 131.96875 C 547 133.46875 548.5 133.46875 550 133.46875 C 550.75 132.71875 549.25 131.21875 549.25 130.46875 M 533.5 131.21875 C 532.75 131.21875 532.75 131.21875 532 130.46875 C 532.714844 127.5 535.03125 125.183594 538 124.46875 C 538.75 124.46875 539.5 124.46875 538.75 125.21875 C 538 128.21875 535.75 129.71875 533.5 131.21875 "/>
</g>
</svg>
