<?xml version="1.0" encoding="UTF-8" standalone="no"?>
<!DOCTYPE svg PUBLIC "-//W3C//DTD SVG 1.1//EN" "http://www.w3.org/Graphics/SVG/1.1/DTD/svg11.dtd">
<svg xmlns="http://www.w3.org/2000/svg" xmlns:xlink="http://www.w3.org/1999/xlink" version="1.1" width="605pt" height="620pt" viewBox="0 0 605 620">
<g enable-background="new">
<path transform="matrix(.1,0,0,-.1,-70,675)" d="M 0 0 L 10240 0 L 10240 7680 L 0 7680 Z " fill="#ffffff"/>
<clipPath id="cp0">
<path transform="matrix(.1,0,0,-.1,-70,675)" d="M 745 710.234 L 6719.77 710.234 L 6719.77 6685.004 L 745 6685.004 Z "/>
</clipPath>
<g clip-path="url(#cp0)">
<path transform="matrix(.1,0,0,-.1,-70,675)" d="M 750 6307.2 L 1122.797 6307.2 L 1122.797 6679.997 L 750 6679.997 Z " fill="#ffffff"/>
<path transform="matrix(.1,0,0,-.1,-70,675)" d="M 1122.8 6307.2 L 1495.6011 6307.2 L 1495.6011 6679.997 L 1122.8 6679.997 Z " fill="#ffffff"/>
<path transform="matrix(.1,0,0,-.1,-70,675)" d="M 1495.6 6307.2 L 1868.397 6307.2 L 1868.397 6679.997 L 1495.6 6679.997 Z " fill="#ffffff"/>
<path transform="matrix(.1,0,0,-.1,-70,675)" d="M 1868.39 6307.2 L 2241.187 6307.2 L 2241.187 6679.997 L 1868.39 6679.997 Z " fill="#ffffff"/>
<path transform="matrix(.1,0,0,-.1,-70,675)" d="M 2241.19 6307.2 L 2613.9869 6307.2 L 2613.9869 6679.997 L 2241.19 6679.997 Z " fill="#ffffff"/>
<path transform="matrix(.1,0,0,-.1,-70,675)" d="M 2613.99 6307.2 L 2986.787 6307.2 L 2986.787 6679.997 L 2613.99 6679.997 Z " fill="#ffffff"/>
<path transform="matrix(.1,0,0,-.1,-70,675)" d="M 2986.79 6307.2 L 3359.587 6307.2 L 3359.587 6679.997 L 2986.79 6679.997 Z " fill="#ffffff"/>
<path transform="matrix(.1,0,0,-.1,-70,675)" d="M 3359.59 6307.2 L 3732.3873 6307.2 L 3732.3873 6679.997 L 3359.59 6679.997 Z " fill="#ffffff"/>
<path transform="matrix(.1,0,0,-.1,-70,675)" d="M 3732.38 6307.2 L 4105.177 6307.2 L 4105.177 6679.997 L 3732.38 6679.997 Z " fill="#ffffff"/>
<path transform="matrix(.1,0,0,-.1,-70,675)" d="M 4105.18 6307.2 L 4477.981 6307.2 L 4477.981 6679.997 L 4105.18 6679.997 Z " fill="#ffffff"/>
<path transform="matrix(.1,0,0,-.1,-70,675)" d="M 4477.98 6307.2 L 4850.777 6307.2 L 4850.777 6679.997 L 4477.98 6679.997 Z " fill="#ffffff"/>
<path transform="matrix(.1,0,0,-.1,-70,675)" d="M 4850.78 6307.2 L 5223.5769 6307.2 L 5223.5769 6679.997 L 4850.78 6679.997 Z " fill="#ffffff"/>
<path transform="matrix(.1,0,0,-.1,-70,675)" d="M 5223.57 6307.2 L 5596.3669 6307.2 L 5596.3669 6679.997 L 5223.57 6679.997 Z " fill="#ffffff"/>
<path transform="matrix(.1,0,0,-.1,-70,675)" d="M 5596.37 6307.2 L 5969.171 6307.2 L 5969.171 6679.997 L 5596.37 6679.997 Z " fill="#ffffff"/>
<path transform="matrix(.1,0,0,-.1,-70,675)" d="M 5969.17 6307.2 L 6341.967 6307.2 L 6341.967 6679.997 L 5969.17 6679.997 Z " fill="#ffffff"/>
<path transform="matrix(.1,0,0,-.1,-70,675)" d="M 6341.97 6307.2 L 6714.767 6307.2 L 6714.767 6679.997 L 6341.97 6679.997 Z " fill="#ffffff"/>
<path transform="matrix(.1,0,0,-.1,-70,675)" d="M 750 5934.41 L 1122.797 5934.41 L 1122.797 6307.207 L 750 6307.207 Z " fill="#ffffff"/>
<path transform="matrix(.1,0,0,-.1,-70,675)" d="M 1122.8 5934.41 L 1495.6011 5934.41 L 1495.6011 6307.207 L 1122.8 6307.207 Z " fill="#0076ba"/>
<path transform="matrix(.1,0,0,-.1,-70,675)" d="M 1495.6 5934.41 L 1868.397 5934.41 L 1868.397 6307.207 L 1495.6 6307.207 Z " fill="#ffffff"/>
<path transform="matrix(.1,0,0,-.1,-70,675)" d="M 1868.39 5934.41 L 2241.187 5934.41 L 2241.187 6307.207 L 1868.39 6307.207 Z " fill="#ffffff"/>
<path transform="matrix(.1,0,0,-.1,-70,675)" d="M 2241.19 5934.41 L 2613.9869 5934.41 L 2613.9869 6307.207 L 2241.19 6307.207 Z " fill="#ffffff"/>
<path transform="matrix(.1,0,0,-.1,-70,675)" d="M 2613.99 5934.41 L 2986.787 5934.41 L 2986.787 6307.207 L 2613.99 6307.207 Z " fill="#0076ba"/>
<path transform="matrix(.1,0,0,-.1,-70,675)" d="M 2986.79 5934.41 L 3359.587 5934.41 L 3359.587 6307.207 L 2986.79 6307.207 Z " fill="#ffffff"/>
<path transform="matrix(.1,0,0,-.1,-70,675)" d="M 3359.59 5934.41 L 3732.3873 5934.41 L 3732.3873 6307.207 L 3359.59 6307.207 Z " fill="#ffffff"/>
<path transform="matrix(.1,0,0,-.1,-70,675)" d="M 3732.38 5934.41 L 4105.177 5934.41 L 4105.177 6307.207 L 3732.38 6307.207 Z " fill="#ffffff"/>
<path transform="matrix(.1,0,0,-.1,-70,675)" d="M 4105.18 5934.41 L 4477.981 5934.41 L 4477.981 6307.207 L 4105.18 6307.207 Z " fill="#0076ba"/>
<path transform="matrix(.1,0,0,-.1,-70,675)" d="M 4477.98 5934.41 L 4850.777 5934.41 L 4850.777 6307.207 L 4477.98 6307.207 Z " fill="#ffffff"/>
<path transform="matrix(.1,0,0,-.1,-70,675)" d="M 4850.78 5934.41 L 5223.5769 5934.41 L 5223.5769 6307.207 L 4850.78 6307.207 Z " fill="#ffffff"/>
<path transform="matrix(.1,0,0,-.1,-70,675)" d="M 5223.57 5934.41 L 5596.3669 5934.41 L 5596.3669 6307.207 L 5223.57 6307.207 Z " fill="#ffffff"/>
<path transform="matrix(.1,0,0,-.1,-70,675)" d="M 5596.37 5934.41 L 5969.171 5934.41 L 5969.171 6307.207 L 5596.37 6307.207 Z " fill="#0076ba"/>
<path transform="matrix(.1,0,0,-.1,-70,675)" d="M 5969.17 5934.41 L 6341.967 5934.41 L 6341.967 6307.207 L 5969.17 6307.207 Z " fill="#ffffff"/>
<path transform="matrix(.1,0,0,-.1,-70,675)" d="M 6341.97 5934.41 L 6714.767 5934.41 L 6714.767 6307.207 L 6341.97 6307.207 Z " fill="#ffffff"/>
<path transform="matrix(.1,0,0,-.1,-70,675)" d="M 750 5561.61 L 1122.797 5561.61 L 1122.797 5934.4069 L 750 5934.4069 Z " fill="#ffffff"/>
<path transform="matrix(.1,0,0,-.1,-70,675)" d="M 1122.8 5561.61 L 1495.6011 5561.61 L 1495.6011 5934.4069 L 1122.8 5934.4069 Z " fill="#ffffff"/>
<path transform="matrix(.1,0,0,-.1,-70,675)" d="M 1495.6 5561.61 L 1868.397 5561.61 L 1868.397 5934.4069 L 1495.6 5934.4069 Z " fill="#ffffff"/>
<path transform="matrix(.1,0,0,-.1,-70,675)" d="M 1868.39 5561.61 L 2241.187 5561.61 L 2241.187 5934.4069 L 1868.39 5934.4069 Z " fill="#ffffff"/>
<path transform="matrix(.1,0,0,-.1,-70,675)" d="M 2241.19 5561.61 L 2613.9869 5561.61 L 2613.9869 5934.4069 L 2241.19 5934.4069 Z " fill="#ffffff"/>
<path transform="matrix(.1,0,0,-.1,-70,675)" d="M 2613.99 5561.61 L 2986.787 5561.61 L 2986.787 5934.4069 L 2613.99 5934.4069 Z " fill="#ffffff"/>
<path transform="matrix(.1,0,0,-.1,-70,675)" d="M 2986.79 5561.61 L 3359.587 5561.61 L 3359.587 5934.4069 L 2986.79 5934.4069 Z " fill="#ffffff"/>
<path transform="matrix(.1,0,0,-.1,-70,675)" d="M 3359.59 5561.61 L 3732.3873 5561.61 L 3732.3873 5934.4069 L 3359.59 5934.4069 Z " fill="#ffffff"/>
<path transform="matrix(.1,0,0,-.1,-70,675)" d="M 3732.38 5561.61 L 4105.177 5561.61 L 4105.177 5934.4069 L 3732.38 5934.4069 Z " fill="#ffffff"/>
<path transform="matrix(.1,0,0,-.1,-70,675)" d="M 4105.18 5561.61 L 4477.981 5561.61 L 4477.981 5934.4069 L 4105.18 5934.4069 Z " fill="#ffffff"/>
<path transform="matrix(.1,0,0,-.1,-70,675)" d="M 4477.98 5561.61 L 4850.777 5561.61 L 4850.777 5934.4069 L 4477.98 5934.4069 Z " fill="#ffffff"/>
<path transform="matrix(.1,0,0,-.1,-70,675)" d="M 4850.78 5561.61 L 5223.5769 5561.61 L 5223.5769 5934.4069 L 4850.78 5934.4069 Z " fill="#ffffff"/>
<path transform="matrix(.1,0,0,-.1,-70,675)" d="M 5223.57 5561.61 L 5596.3669 5561.61 L 5596.3669 5934.4069 L 5223.57 5934.4069 Z " fill="#ffffff"/>
<path transform="matrix(.1,0,0,-.1,-70,675)" d="M 5596.37 5561.61 L 5969.171 5561.61 L 5969.171 5934.4069 L 5596.37 5934.4069 Z " fill="#ffffff"/>
<path transform="matrix(.1,0,0,-.1,-70,675)" d="M 5969.17 5561.61 L 6341.967 5561.61 L 6341.967 5934.4069 L 5969.17 5934.4069 Z " fill="#ffffff"/>
<path transform="matrix(.1,0,0,-.1,-70,675)" d="M 6341.97 5561.61 L 6714.767 5561.61 L 6714.767 5934.4069 L 6341.97 5934.4069 Z " fill="#ffffff"/>
<path transform="matrix(.1,0,0,-.1,-70,675)" d="M 750 5188.81 L 1122.797 5188.81 L 1122.797 5561.607 L 750 5561.607 Z " fill="#ffffff"/>
<path transform="matrix(.1,0,0,-.1,-70,675)" d="M 1122.8 5188.81 L 1495.6011 5188.81 L 1495.6011 5561.607 L 1122.8 5561.607 Z " fill="#ffffff"/>
<path transform="matrix(.1,0,0,-.1,-70,675)" d="M 1495.6 5188.81 L 1868.397 5188.81 L 1868.397 5561.607 L 1495.6 5561.607 Z " fill="#ffffff"/>
<path transform="matrix(.1,0,0,-.1,-70,675)" d="M 1868.39 5188.81 L 2241.187 5188.81 L 2241.187 5561.607 L 1868.39 5561.607 Z " fill="#ffffff"/>
<path transform="matrix(.1,0,0,-.1,-70,675)" d="M 2241.19 5188.81 L 2613.9869 5188.81 L 2613.9869 5561.607 L 2241.19 5561.607 Z " fill="#ffffff"/>
<path transform="matrix(.1,0,0,-.1,-70,675)" d="M 2613.99 5188.81 L 2986.787 5188.81 L 2986.787 5561.607 L 2613.99 5561.607 Z " fill="#ffffff"/>
<path transform="matrix(.1,0,0,-.1,-70,675)" d="M 2986.79 5188.81 L 3359.587 5188.81 L 3359.587 5561.607 L 2986.79 5561.607 Z " fill="#ffffff"/>
<path transform="matrix(.1,0,0,-.1,-70,675)" d="M 3359.59 5188.81 L 3732.3873 5188.81 L 3732.3873 5561.607 L 3359.59 5561.607 Z " fill="#ffffff"/>
<path transform="matrix(.1,0,0,-.1,-70,675)" d="M 3732.38 5188.81 L 4105.177 5188.81 L 4105.177 5561.607 L 3732.38 5561.607 Z " fill="#ffffff"/>
<path transform="matrix(.1,0,0,-.1,-70,675)" d="M 4105.18 5188.81 L 4477.981 5188.81 L 4477.981 5561.607 L 4105.18 5561.607 Z " fill="#ffffff"/>
<path transform="matrix(.1,0,0,-.1,-70,675)" d="M 4477.98 5188.81 L 4850.777 5188.81 L 4850.777 5561.607 L 4477.98 5561.607 Z " fill="#ffffff"/>
<path transform="matrix(.1,0,0,-.1,-70,675)" d="M 4850.78 5188.81 L 5223.5769 5188.81 L 5223.5769 5561.607 L 4850.78 5561.607 Z " fill="#ffffff"/>
<path transform="matrix(.1,0,0,-.1,-70,675)" d="M 5223.57 5188.81 L 5596.3669 5188.81 L 5596.3669 5561.607 L 5223.57 5561.607 Z " fill="#ffffff"/>
<path transform="matrix(.1,0,0,-.1,-70,675)" d="M 5596.37 5188.81 L 5969.171 5188.81 L 5969.171 5561.607 L 5596.37 5561.607 Z " fill="#ffffff"/>
<path transform="matrix(.1,0,0,-.1,-70,675)" d="M 5969.17 5188.81 L 6341.967 5188.81 L 6341.967 5561.607 L 5969.17 5561.607 Z " fill="#ffffff"/>
<path transform="matrix(.1,0,0,-.1,-70,675)" d="M 6341.97 5188.81 L 6714.767 5188.81 L 6714.767 5561.607 L 6341.97 5561.607 Z " fill="#ffffff"/>
<path transform="matrix(.1,0,0,-.1,-70,675)" d="M 750 4816.01 L 1122.797 4816.01 L 1122.797 5188.8068 L 750 5188.8068 Z " fill="#ffffff"/>
<path transform="matrix(.1,0,0,-.1,-70,675)" d="M 1122.8 4816.01 L 1495.6011 4816.01 L 1495.6011 5188.8068 L 1122.8 5188.8068 Z " fill="#ffffff"/>
<path transform="matrix(.1,0,0,-.1,-70,675)" d="M 1495.6 4816.01 L 1868.397 4816.01 L 1868.397 5188.8068 L 1495.6 5188.8068 Z " fill="#ffffff"/>
<path transform="matrix(.1,0,0,-.1,-70,675)" d="M 1868.39 4816.01 L 2241.187 4816.01 L 2241.187 5188.8068 L 1868.39 5188.8068 Z " fill="#ffffff"/>
<path transform="matrix(.1,0,0,-.1,-70,675)" d="M 2241.19 4816.01 L 2613.9869 4816.01 L 2613.9869 5188.8068 L 2241.19 5188.8068 Z " fill="#ffffff"/>
<path transform="matrix(.1,0,0,-.1,-70,675)" d="M 2613.99 4816.01 L 2986.787 4816.01 L 2986.787 5188.8068 L 2613.99 5188.8068 Z " fill="#ffffff"/>
<path transform="matrix(.1,0,0,-.1,-70,675)" d="M 2986.79 4816.01 L 3359.587 4816.01 L 3359.587 5188.8068 L 2986.79 5188.8068 Z " fill="#ffffff"/>
<path transform="matrix(.1,0,0,-.1,-70,675)" d="M 3359.59 4816.01 L 3732.3873 4816.01 L 3732.3873 5188.8068 L 3359.59 5188.8068 Z " fill="#ffffff"/>
<path transform="matrix(.1,0,0,-.1,-70,675)" d="M 3732.38 4816.01 L 4105.177 4816.01 L 4105.177 5188.8068 L 3732.38 5188.8068 Z " fill="#ffffff"/>
<path transform="matrix(.1,0,0,-.1,-70,675)" d="M 4105.18 4816.01 L 4477.981 4816.01 L 4477.981 5188.8068 L 4105.18 5188.8068 Z " fill="#ffffff"/>
<path transform="matrix(.1,0,0,-.1,-70,675)" d="M 4477.98 4816.01 L 4850.777 4816.01 L 4850.777 5188.8068 L 4477.98 5188.8068 Z " fill="#ffffff"/>
<path transform="matrix(.1,0,0,-.1,-70,675)" d="M 4850.78 4816.01 L 5223.5769 4816.01 L 5223.5769 5188.8068 L 4850.78 5188.8068 Z " fill="#ffffff"/>
<path transform="matrix(.1,0,0,-.1,-70,675)" d="M 5223.57 4816.01 L 5596.3669 4816.01 L 5596.3669 5188.8068 L 5223.57 5188.8068 Z " fill="#ffffff"/>
<path transform="matrix(.1,0,0,-.1,-70,675)" d="M 5596.37 4816.01 L 5969.171 4816.01 L 5969.171 5188.8068 L 5596.37 5188.8068 Z " fill="#ffffff"/>
<path transform="matrix(.1,0,0,-.1,-70,675)" d="M 5969.17 4816.01 L 6341.967 4816.01 L 6341.967 5188.8068 L 5969.17 5188.8068 Z " fill="#ffffff"/>
<path transform="matrix(.1,0,0,-.1,-70,675)" d="M 6341.97 4816.01 L 6714.767 4816.01 L 6714.767 5188.8068 L 6341.97 5188.8068 Z " fill="#ffffff"/>
<path transform="matrix(.1,0,0,-.1,-70,675)" d="M 750 4443.21 L 1122.797 4443.21 L 1122.797 4816.007 L 750 4816.007 Z " fill="#ffffff"/>
<path transform="matrix(.1,0,0,-.1,-70,675)" d="M 1122.8 4443.21 L 1495.6011 4443.21 L 1495.6011 4816.007 L 1122.8 4816.007 Z " fill="#0076ba"/>
<path transform="matrix(.1,0,0,-.1,-70,675)" d="M 1495.6 4443.21 L 1868.397 4443.21 L 1868.397 4816.007 L 1495.6 4816.007 Z " fill="#ffffff"/>
<path transform="matrix(.1,0,0,-.1,-70,675)" d="M 1868.39 4443.21 L 2241.187 4443.21 L 2241.187 4816.007 L 1868.39 4816.007 Z " fill="#ffffff"/>
<path transform="matrix(.1,0,0,-.1,-70,675)" d="M 2241.19 4443.21 L 2613.9869 4443.21 L 2613.9869 4816.007 L 2241.19 4816.007 Z " fill="#ffffff"/>
<path transform="matrix(.1,0,0,-.1,-70,675)" d="M 2613.99 4443.21 L 2986.787 4443.21 L 2986.787 4816.007 L 2613.99 4816.007 Z " fill="#0076ba"/>
<path transform="matrix(.1,0,0,-.1,-70,675)" d="M 2986.79 4443.21 L 3359.587 4443.21 L 3359.587 4816.007 L 2986.79 4816.007 Z " fill="#ffffff"/>
<path transform="matrix(.1,0,0,-.1,-70,675)" d="M 3359.59 4443.21 L 3732.3873 4443.21 L 3732.3873 4816.007 L 3359.59 4816.007 Z " fill="#ffffff"/>
<path transform="matrix(.1,0,0,-.1,-70,675)" d="M 3732.38 4443.21 L 4105.177 4443.21 L 4105.177 4816.007 L 3732.38 4816.007 Z " fill="#ffffff"/>
<path transform="matrix(.1,0,0,-.1,-70,675)" d="M 4105.18 4443.21 L 4477.981 4443.21 L 4477.981 4816.007 L 4105.18 4816.007 Z " fill="#0076ba"/>
<path transform="matrix(.1,0,0,-.1,-70,675)" d="M 4477.98 4443.21 L 4850.777 4443.21 L 4850.777 4816.007 L 4477.98 4816.007 Z " fill="#ffffff"/>
<path transform="matrix(.1,0,0,-.1,-70,675)" d="M 4850.78 4443.21 L 5223.5769 4443.21 L 5223.5769 4816.007 L 4850.78 4816.007 Z " fill="#ffffff"/>
<path transform="matrix(.1,0,0,-.1,-70,675)" d="M 5223.57 4443.21 L 5596.3669 4443.21 L 5596.3669 4816.007 L 5223.57 4816.007 Z " fill="#ffffff"/>
<path transform="matrix(.1,0,0,-.1,-70,675)" d="M 5596.37 4443.21 L 5969.171 4443.21 L 5969.171 4816.007 L 5596.37 4816.007 Z " fill="#0076ba"/>
<path transform="matrix(.1,0,0,-.1,-70,675)" d="M 5969.17 4443.21 L 6341.967 4443.21 L 6341.967 4816.007 L 5969.17 4816.007 Z " fill="#ffffff"/>
<path transform="matrix(.1,0,0,-.1,-70,675)" d="M 6341.97 4443.21 L 6714.767 4443.21 L 6714.767 4816.007 L 6341.97 4816.007 Z " fill="#ffffff"/>
<path transform="matrix(.1,0,0,-.1,-70,675)" d="M 750 4070.41 L 1122.797 4070.41 L 1122.797 4443.211 L 750 4443.211 Z " fill="#ffffff"/>
<path transform="matrix(.1,0,0,-.1,-70,675)" d="M 1122.8 4070.41 L 1495.6011 4070.41 L 1495.6011 4443.211 L 1122.8 4443.211 Z " fill="#ffffff"/>
<path transform="matrix(.1,0,0,-.1,-70,675)" d="M 1495.6 4070.41 L 1868.397 4070.41 L 1868.397 4443.211 L 1495.6 4443.211 Z " fill="#ffffff"/>
<path transform="matrix(.1,0,0,-.1,-70,675)" d="M 1868.39 4070.41 L 2241.187 4070.41 L 2241.187 4443.211 L 1868.39 4443.211 Z " fill="#ffffff"/>
<path transform="matrix(.1,0,0,-.1,-70,675)" d="M 2241.19 4070.41 L 2613.9869 4070.41 L 2613.9869 4443.211 L 2241.19 4443.211 Z " fill="#ffffff"/>
<path transform="matrix(.1,0,0,-.1,-70,675)" d="M 2613.99 4070.41 L 2986.787 4070.41 L 2986.787 4443.211 L 2613.99 4443.211 Z " fill="#ffffff"/>
<path transform="matrix(.1,0,0,-.1,-70,675)" d="M 2986.79 4070.41 L 3359.587 4070.41 L 3359.587 4443.211 L 2986.79 4443.211 Z " fill="#ffffff"/>
<path transform="matrix(.1,0,0,-.1,-70,675)" d="M 3359.59 4070.41 L 3732.3873 4070.41 L 3732.3873 4443.211 L 3359.59 4443.211 Z " fill="#ffffff"/>
<path transform="matrix(.1,0,0,-.1,-70,675)" d="M 3732.38 4070.41 L 4105.177 4070.41 L 4105.177 4443.211 L 3732.38 4443.211 Z " fill="#ffffff"/>
<path transform="matrix(.1,0,0,-.1,-70,675)" d="M 4105.18 4070.41 L 4477.981 4070.41 L 4477.981 4443.211 L 4105.18 4443.211 Z " fill="#ffffff"/>
<path transform="matrix(.1,0,0,-.1,-70,675)" d="M 4477.98 4070.41 L 4850.777 4070.41 L 4850.777 4443.211 L 4477.98 4443.211 Z " fill="#ffffff"/>
<path transform="matrix(.1,0,0,-.1,-70,675)" d="M 4850.78 4070.41 L 5223.5769 4070.41 L 5223.5769 4443.211 L 4850.78 4443.211 Z " fill="#ffffff"/>
<path transform="matrix(.1,0,0,-.1,-70,675)" d="M 5223.57 4070.41 L 5596.3669 4070.41 L 5596.3669 4443.211 L 5223.57 4443.211 Z " fill="#ffffff"/>
<path transform="matrix(.1,0,0,-.1,-70,675)" d="M 5596.37 4070.41 L 5969.171 4070.41 L 5969.171 4443.211 L 5596.37 4443.211 Z " fill="#ffffff"/>
<path transform="matrix(.1,0,0,-.1,-70,675)" d="M 5969.17 4070.41 L 6341.967 4070.41 L 6341.967 4443.211 L 5969.17 4443.211 Z " fill="#ffffff"/>
<path transform="matrix(.1,0,0,-.1,-70,675)" d="M 6341.97 4070.41 L 6714.767 4070.41 L 6714.767 4443.211 L 6341.97 4443.211 Z " fill="#ffffff"/>
<path transform="matrix(.1,0,0,-.1,-70,675)" d="M 750 3697.62 L 1122.797 3697.62 L 1122.797 4070.417 L 750 4070.417 Z " fill="#ffffff"/>
<path transform="matrix(.1,0,0,-.1,-70,675)" d="M 1122.8 3697.62 L 1495.6011 3697.62 L 1495.6011 4070.417 L 1122.8 4070.417 Z " fill="#ffffff"/>
<path transform="matrix(.1,0,0,-.1,-70,675)" d="M 1495.6 3697.62 L 1868.397 3697.62 L 1868.397 4070.417 L 1495.6 4070.417 Z " fill="#ffffff"/>
<path transform="matrix(.1,0,0,-.1,-70,675)" d="M 1868.39 3697.62 L 2241.187 3697.62 L 2241.187 4070.417 L 1868.39 4070.417 Z " fill="#ffffff"/>
<path transform="matrix(.1,0,0,-.1,-70,675)" d="M 2241.19 3697.62 L 2613.9869 3697.62 L 2613.9869 4070.417 L 2241.19 4070.417 Z " fill="#ffffff"/>
<path transform="matrix(.1,0,0,-.1,-70,675)" d="M 2613.99 3697.62 L 2986.787 3697.62 L 2986.787 4070.417 L 2613.99 4070.417 Z " fill="#ffffff"/>
<path transform="matrix(.1,0,0,-.1,-70,675)" d="M 2986.79 3697.62 L 3359.587 3697.62 L 3359.587 4070.417 L 2986.79 4070.417 Z " fill="#ffffff"/>
<path transform="matrix(.1,0,0,-.1,-70,675)" d="M 3359.59 3697.62 L 3732.3873 3697.62 L 3732.3873 4070.417 L 3359.59 4070.417 Z " fill="#ffffff"/>
<path transform="matrix(.1,0,0,-.1,-70,675)" d="M 3732.38 3697.62 L 4105.177 3697.62 L 4105.177 4070.417 L 3732.38 4070.417 Z " fill="#ffffff"/>
<path transform="matrix(.1,0,0,-.1,-70,675)" d="M 4105.18 3697.62 L 4477.981 3697.62 L 4477.981 4070.417 L 4105.18 4070.417 Z " fill="#ffffff"/>
<path transform="matrix(.1,0,0,-.1,-70,675)" d="M 4477.98 3697.62 L 4850.777 3697.62 L 4850.777 4070.417 L 4477.98 4070.417 Z " fill="#ffffff"/>
<path transform="matrix(.1,0,0,-.1,-70,675)" d="M 4850.78 3697.62 L 5223.5769 3697.62 L 5223.5769 4070.417 L 4850.78 4070.417 Z " fill="#ffffff"/>
<path transform="matrix(.1,0,0,-.1,-70,675)" d="M 5223.57 3697.62 L 5596.3669 3697.62 L 5596.3669 4070.417 L 5223.57 4070.417 Z " fill="#ffffff"/>
<path transform="matrix(.1,0,0,-.1,-70,675)" d="M 5596.37 3697.62 L 5969.171 3697.62 L 5969.171 4070.417 L 5596.37 4070.417 Z " fill="#ffffff"/>
<path transform="matrix(.1,0,0,-.1,-70,675)" d="M 5969.17 3697.62 L 6341.967 3697.62 L 6341.967 4070.417 L 5969.17 4070.417 Z " fill="#ffffff"/>
<path transform="matrix(.1,0,0,-.1,-70,675)" d="M 6341.97 3697.62 L 6714.767 3697.62 L 6714.767 4070.417 L 6341.97 4070.417 Z " fill="#ffffff"/>
<path transform="matrix(.1,0,0,-.1,-70,675)" d="M 750 3324.82 L 1122.797 3324.82 L 1122.797 3697.6173 L 750 3697.6173 Z " fill="#ffffff"/>
<path transform="matrix(.1,0,0,-.1,-70,675)" d="M 1122.8 3324.82 L 1495.6011 3324.82 L 1495.6011 3697.6173 L 1122.8 3697.6173 Z " fill="#ffffff"/>
<path transform="matrix(.1,0,0,-.1,-70,675)" d="M 1495.6 3324.82 L 1868.397 3324.82 L 1868.397 3697.6173 L 1495.6 3697.6173 Z " fill="#ffffff"/>
<path transform="matrix(.1,0,0,-.1,-70,675)" d="M 1868.39 3324.82 L 2241.187 3324.82 L 2241.187 3697.6173 L 1868.39 3697.6173 Z " fill="#ffffff"/>
<path transform="matrix(.1,0,0,-.1,-70,675)" d="M 2241.19 3324.82 L 2613.9869 3324.82 L 2613.9869 3697.6173 L 2241.19 3697.6173 Z " fill="#ffffff"/>
<path transform="matrix(.1,0,0,-.1,-70,675)" d="M 2613.99 3324.82 L 2986.787 3324.82 L 2986.787 3697.6173 L 2613.99 3697.6173 Z " fill="#ffffff"/>
<path transform="matrix(.1,0,0,-.1,-70,675)" d="M 2986.79 3324.82 L 3359.587 3324.82 L 3359.587 3697.6173 L 2986.79 3697.6173 Z " fill="#ffffff"/>
<path transform="matrix(.1,0,0,-.1,-70,675)" d="M 3359.59 3324.82 L 3732.3873 3324.82 L 3732.3873 3697.6173 L 3359.59 3697.6173 Z " fill="#ffffff"/>
<path transform="matrix(.1,0,0,-.1,-70,675)" d="M 3732.38 3324.82 L 4105.177 3324.82 L 4105.177 3697.6173 L 3732.38 3697.6173 Z " fill="#ffffff"/>
<path transform="matrix(.1,0,0,-.1,-70,675)" d="M 4105.18 3324.82 L 4477.981 3324.82 L 4477.981 3697.6173 L 4105.18 3697.6173 Z " fill="#ffffff"/>
<path transform="matrix(.1,0,0,-.1,-70,675)" d="M 4477.98 3324.82 L 4850.777 3324.82 L 4850.777 3697.6173 L 4477.98 3697.6173 Z " fill="#ffffff"/>
<path transform="matrix(.1,0,0,-.1,-70,675)" d="M 4850.78 3324.82 L 5223.5769 3324.82 L 5223.5769 3697.6173 L 4850.78 3697.6173 Z " fill="#ffffff"/>
<path transform="matrix(.1,0,0,-.1,-70,675)" d="M 5223.57 3324.82 L 5596.3669 3324.82 L 5596.3669 3697.6173 L 5223.57 3697.6173 Z " fill="#ffffff"/>
<path transform="matrix(.1,0,0,-.1,-70,675)" d="M 5596.37 3324.82 L 5969.171 3324.82 L 5969.171 3697.6173 L 5596.37 3697.6173 Z " fill="#ffffff"/>
<path transform="matrix(.1,0,0,-.1,-70,675)" d="M 5969.17 3324.82 L 6341.967 3324.82 L 6341.967 3697.6173 L 5969.17 3697.6173 Z " fill="#ffffff"/>
<path transform="matrix(.1,0,0,-.1,-70,675)" d="M 6341.97 3324.82 L 6714.767 3324.82 L 6714.767 3697.6173 L 6341.97 3697.6173 Z " fill="#ffffff"/>
<path transform="matrix(.1,0,0,-.1,-70,675)" d="M 750 2952.02 L 1122.797 2952.02 L 1122.797 3324.821 L 750 3324.821 Z " fill="#ffffff"/>
<path transform="matrix(.1,0,0,-.1,-70,675)" d="M 1122.8 2952.02 L 1495.6011 2952.02 L 1495.6011 3324.821 L 1122.8 3324.821 Z " fill="#0076ba"/>
<path transform="matrix(.1,0,0,-.1,-70,675)" d="M 1495.6 2952.02 L 1868.397 2952.02 L 1868.397 3324.821 L 1495.6 3324.821 Z " fill="#ffffff"/>
<path transform="matrix(.1,0,0,-.1,-70,675)" d="M 1868.39 2952.02 L 2241.187 2952.02 L 2241.187 3324.821 L 1868.39 3324.821 Z " fill="#ffffff"/>
<path transform="matrix(.1,0,0,-.1,-70,675)" d="M 2241.19 2952.02 L 2613.9869 2952.02 L 2613.9869 3324.821 L 2241.19 3324.821 Z " fill="#ffffff"/>
<path transform="matrix(.1,0,0,-.1,-70,675)" d="M 2613.99 2952.02 L 2986.787 2952.02 L 2986.787 3324.821 L 2613.99 3324.821 Z " fill="#0076ba"/>
<path transform="matrix(.1,0,0,-.1,-70,675)" d="M 2986.79 2952.02 L 3359.587 2952.02 L 3359.587 3324.821 L 2986.79 3324.821 Z " fill="#ffffff"/>
<path transform="matrix(.1,0,0,-.1,-70,675)" d="M 3359.59 2952.02 L 3732.3873 2952.02 L 3732.3873 3324.821 L 3359.59 3324.821 Z " fill="#ffffff"/>
<path transform="matrix(.1,0,0,-.1,-70,675)" d="M 3732.38 2952.02 L 4105.177 2952.02 L 4105.177 3324.821 L 3732.38 3324.821 Z " fill="#ffffff"/>
<path transform="matrix(.1,0,0,-.1,-70,675)" d="M 4105.18 2952.02 L 4477.981 2952.02 L 4477.981 3324.821 L 4105.18 3324.821 Z " fill="#0076ba"/>
<path transform="matrix(.1,0,0,-.1,-70,675)" d="M 4477.98 2952.02 L 4850.777 2952.02 L 4850.777 3324.821 L 4477.98 3324.821 Z " fill="#ffffff"/>
<path transform="matrix(.1,0,0,-.1,-70,675)" d="M 4850.78 2952.02 L 5223.5769 2952.02 L 5223.5769 3324.821 L 4850.78 3324.821 Z " fill="#ffffff"/>
<path transform="matrix(.1,0,0,-.1,-70,675)" d="M 5223.57 2952.02 L 5596.3669 2952.02 L 5596.3669 3324.821 L 5223.57 3324.821 Z " fill="#ffffff"/>
<path transform="matrix(.1,0,0,-.1,-70,675)" d="M 5596.37 2952.02 L 5969.171 2952.02 L 5969.171 3324.821 L 5596.37 3324.821 Z " fill="#0076ba"/>
<path transform="matrix(.1,0,0,-.1,-70,675)" d="M 5969.17 2952.02 L 6341.967 2952.02 L 6341.967 3324.821 L 5969.17 3324.821 Z " fill="#ffffff"/>
<path transform="matrix(.1,0,0,-.1,-70,675)" d="M 6341.97 2952.02 L 6714.767 2952.02 L 6714.767 3324.821 L 6341.97 3324.821 Z " fill="#ffffff"/>
<path transform="matrix(.1,0,0,-.1,-70,675)" d="M 750 2579.22 L 1122.797 2579.22 L 1122.797 2952.021 L 750 2952.021 Z " fill="#ffffff"/>
<path transform="matrix(.1,0,0,-.1,-70,675)" d="M 1122.8 2579.22 L 1495.6011 2579.22 L 1495.6011 2952.021 L 1122.8 2952.021 Z " fill="#ffffff"/>
<path transform="matrix(.1,0,0,-.1,-70,675)" d="M 1495.6 2579.22 L 1868.397 2579.22 L 1868.397 2952.021 L 1495.6 2952.021 Z " fill="#ffffff"/>
<path transform="matrix(.1,0,0,-.1,-70,675)" d="M 1868.39 2579.22 L 2241.187 2579.22 L 2241.187 2952.021 L 1868.39 2952.021 Z " fill="#ffffff"/>
<path transform="matrix(.1,0,0,-.1,-70,675)" d="M 2241.19 2579.22 L 2613.9869 2579.22 L 2613.9869 2952.021 L 2241.19 2952.021 Z " fill="#ffffff"/>
<path transform="matrix(.1,0,0,-.1,-70,675)" d="M 2613.99 2579.22 L 2986.787 2579.22 L 2986.787 2952.021 L 2613.99 2952.021 Z " fill="#ffffff"/>
<path transform="matrix(.1,0,0,-.1,-70,675)" d="M 2986.79 2579.22 L 3359.587 2579.22 L 3359.587 2952.021 L 2986.79 2952.021 Z " fill="#ffffff"/>
<path transform="matrix(.1,0,0,-.1,-70,675)" d="M 3359.59 2579.22 L 3732.3873 2579.22 L 3732.3873 2952.021 L 3359.59 2952.021 Z " fill="#ffffff"/>
<path transform="matrix(.1,0,0,-.1,-70,675)" d="M 3732.38 2579.22 L 4105.177 2579.22 L 4105.177 2952.021 L 3732.38 2952.021 Z " fill="#ffffff"/>
<path transform="matrix(.1,0,0,-.1,-70,675)" d="M 4105.18 2579.22 L 4477.981 2579.22 L 4477.981 2952.021 L 4105.18 2952.021 Z " fill="#ffffff"/>
<path transform="matrix(.1,0,0,-.1,-70,675)" d="M 4477.98 2579.22 L 4850.777 2579.22 L 4850.777 2952.021 L 4477.98 2952.021 Z " fill="#ffffff"/>
<path transform="matrix(.1,0,0,-.1,-70,675)" d="M 4850.78 2579.22 L 5223.5769 2579.22 L 5223.5769 2952.021 L 4850.78 2952.021 Z " fill="#ffffff"/>
<path transform="matrix(.1,0,0,-.1,-70,675)" d="M 5223.57 2579.22 L 5596.3669 2579.22 L 5596.3669 2952.021 L 5223.57 2952.021 Z " fill="#ffffff"/>
<path transform="matrix(.1,0,0,-.1,-70,675)" d="M 5596.37 2579.22 L 5969.171 2579.22 L 5969.171 2952.021 L 5596.37 2952.021 Z " fill="#ffffff"/>
<path transform="matrix(.1,0,0,-.1,-70,675)" d="M 5969.17 2579.22 L 6341.967 2579.22 L 6341.967 2952.021 L 5969.17 2952.021 Z " fill="#ffffff"/>
<path transform="matrix(.1,0,0,-.1,-70,675)" d="M 6341.97 2579.22 L 6714.767 2579.22 L 6714.767 2952.021 L 6341.97 2952.021 Z " fill="#ffffff"/>
<path transform="matrix(.1,0,0,-.1,-70,675)" d="M 750 2206.43 L 1122.797 2206.43 L 1122.797 2579.227 L 750 2579.227 Z " fill="#ffffff"/>
<path transform="matrix(.1,0,0,-.1,-70,675)" d="M 1122.8 2206.43 L 1495.6011 2206.43 L 1495.6011 2579.227 L 1122.8 2579.227 Z " fill="#ffffff"/>
<path transform="matrix(.1,0,0,-.1,-70,675)" d="M 1495.6 2206.43 L 1868.397 2206.43 L 1868.397 2579.227 L 1495.6 2579.227 Z " fill="#ffffff"/>
<path transform="matrix(.1,0,0,-.1,-70,675)" d="M 1868.39 2206.43 L 2241.187 2206.43 L 2241.187 2579.227 L 1868.39 2579.227 Z " fill="#ffffff"/>
<path transform="matrix(.1,0,0,-.1,-70,675)" d="M 2241.19 2206.43 L 2613.9869 2206.43 L 2613.9869 2579.227 L 2241.19 2579.227 Z " fill="#ffffff"/>
<path transform="matrix(.1,0,0,-.1,-70,675)" d="M 2613.99 2206.43 L 2986.787 2206.43 L 2986.787 2579.227 L 2613.99 2579.227 Z " fill="#ffffff"/>
<path transform="matrix(.1,0,0,-.1,-70,675)" d="M 2986.79 2206.43 L 3359.587 2206.43 L 3359.587 2579.227 L 2986.79 2579.227 Z " fill="#ffffff"/>
<path transform="matrix(.1,0,0,-.1,-70,675)" d="M 3359.59 2206.43 L 3732.3873 2206.43 L 3732.3873 2579.227 L 3359.59 2579.227 Z " fill="#ffffff"/>
<path transform="matrix(.1,0,0,-.1,-70,675)" d="M 3732.38 2206.43 L 4105.177 2206.43 L 4105.177 2579.227 L 3732.38 2579.227 Z " fill="#ffffff"/>
<path transform="matrix(.1,0,0,-.1,-70,675)" d="M 4105.18 2206.43 L 4477.981 2206.43 L 4477.981 2579.227 L 4105.18 2579.227 Z " fill="#ffffff"/>
<path transform="matrix(.1,0,0,-.1,-70,675)" d="M 4477.98 2206.43 L 4850.777 2206.43 L 4850.777 2579.227 L 4477.98 2579.227 Z " fill="#ffffff"/>
<path transform="matrix(.1,0,0,-.1,-70,675)" d="M 4850.78 2206.43 L 5223.5769 2206.43 L 5223.5769 2579.227 L 4850.78 2579.227 Z " fill="#ffffff"/>
<path transform="matrix(.1,0,0,-.1,-70,675)" d="M 5223.57 2206.43 L 5596.3669 2206.43 L 5596.3669 2579.227 L 5223.57 2579.227 Z " fill="#ffffff"/>
<path transform="matrix(.1,0,0,-.1,-70,675)" d="M 5596.37 2206.43 L 5969.171 2206.43 L 5969.171 2579.227 L 5596.37 2579.227 Z " fill="#ffffff"/>
<path transform="matrix(.1,0,0,-.1,-70,675)" d="M 5969.17 2206.43 L 6341.967 2206.43 L 6341.967 2579.227 L 5969.17 2579.227 Z " fill="#ffffff"/>
<path transform="matrix(.1,0,0,-.1,-70,675)" d="M 6341.97 2206.43 L 6714.767 2206.43 L 6714.767 2579.227 L 6341.97 2579.227 Z " fill="#ffffff"/>
<path transform="matrix(.1,0,0,-.1,-70,675)" d="M 750 1833.63 L 1122.797 1833.63 L 1122.797 2206.427 L 750 2206.427 Z " fill="#ffffff"/>
<path transform="matrix(.1,0,0,-.1,-70,675)" d="M 1122.8 1833.63 L 1495.6011 1833.63 L 1495.6011 2206.427 L 1122.8 2206.427 Z " fill="#ffffff"/>
<path transform="matrix(.1,0,0,-.1,-70,675)" d="M 1495.6 1833.63 L 1868.397 1833.63 L 1868.397 2206.427 L 1495.6 2206.427 Z " fill="#ffffff"/>
<path transform="matrix(.1,0,0,-.1,-70,675)" d="M 1868.39 1833.63 L 2241.187 1833.63 L 2241.187 2206.427 L 1868.39 2206.427 Z " fill="#ffffff"/>
<path transform="matrix(.1,0,0,-.1,-70,675)" d="M 2241.19 1833.63 L 2613.9869 1833.63 L 2613.9869 2206.427 L 2241.19 2206.427 Z " fill="#ffffff"/>
<path transform="matrix(.1,0,0,-.1,-70,675)" d="M 2613.99 1833.63 L 2986.787 1833.63 L 2986.787 2206.427 L 2613.99 2206.427 Z " fill="#ffffff"/>
<path transform="matrix(.1,0,0,-.1,-70,675)" d="M 2986.79 1833.63 L 3359.587 1833.63 L 3359.587 2206.427 L 2986.79 2206.427 Z " fill="#ffffff"/>
<path transform="matrix(.1,0,0,-.1,-70,675)" d="M 3359.59 1833.63 L 3732.3873 1833.63 L 3732.3873 2206.427 L 3359.59 2206.427 Z " fill="#ffffff"/>
<path transform="matrix(.1,0,0,-.1,-70,675)" d="M 3732.38 1833.63 L 4105.177 1833.63 L 4105.177 2206.427 L 3732.38 2206.427 Z " fill="#ffffff"/>
<path transform="matrix(.1,0,0,-.1,-70,675)" d="M 4105.18 1833.63 L 4477.981 1833.63 L 4477.981 2206.427 L 4105.18 2206.427 Z " fill="#ffffff"/>
<path transform="matrix(.1,0,0,-.1,-70,675)" d="M 4477.98 1833.63 L 4850.777 1833.63 L 4850.777 2206.427 L 4477.98 2206.427 Z " fill="#ffffff"/>
<path transform="matrix(.1,0,0,-.1,-70,675)" d="M 4850.78 1833.63 L 5223.5769 1833.63 L 5223.5769 2206.427 L 4850.78 2206.427 Z " fill="#ffffff"/>
<path transform="matrix(.1,0,0,-.1,-70,675)" d="M 5223.57 1833.63 L 5596.3669 1833.63 L 5596.3669 2206.427 L 5223.57 2206.427 Z " fill="#ffffff"/>
<path transform="matrix(.1,0,0,-.1,-70,675)" d="M 5596.37 1833.63 L 5969.171 1833.63 L 5969.171 2206.427 L 5596.37 2206.427 Z " fill="#ffffff"/>
<path transform="matrix(.1,0,0,-.1,-70,675)" d="M 5969.17 1833.63 L 6341.967 1833.63 L 6341.967 2206.427 L 5969.17 2206.427 Z " fill="#ffffff"/>
<path transform="matrix(.1,0,0,-.1,-70,675)" d="M 6341.97 1833.63 L 6714.767 1833.63 L 6714.767 2206.427 L 6341.97 2206.427 Z " fill="#ffffff"/>
<path transform="matrix(.1,0,0,-.1,-70,675)" d="M 750 1460.83 L 1122.797 1460.83 L 1122.797 1833.631 L 750 1833.631 Z " fill="#ffffff"/>
<path transform="matrix(.1,0,0,-.1,-70,675)" d="M 1122.8 1460.83 L 1495.6011 1460.83 L 1495.6011 1833.631 L 1122.8 1833.631 Z " fill="#0076ba"/>
<path transform="matrix(.1,0,0,-.1,-70,675)" d="M 1495.6 1460.83 L 1868.397 1460.83 L 1868.397 1833.631 L 1495.6 1833.631 Z " fill="#ffffff"/>
<path transform="matrix(.1,0,0,-.1,-70,675)" d="M 1868.39 1460.83 L 2241.187 1460.83 L 2241.187 1833.631 L 1868.39 1833.631 Z " fill="#ffffff"/>
<path transform="matrix(.1,0,0,-.1,-70,675)" d="M 2241.19 1460.83 L 2613.9869 1460.83 L 2613.9869 1833.631 L 2241.19 1833.631 Z " fill="#ffffff"/>
<path transform="matrix(.1,0,0,-.1,-70,675)" d="M 2613.99 1460.83 L 2986.787 1460.83 L 2986.787 1833.631 L 2613.99 1833.631 Z " fill="#0076ba"/>
<path transform="matrix(.1,0,0,-.1,-70,675)" d="M 2986.79 1460.83 L 3359.587 1460.83 L 3359.587 1833.631 L 2986.79 1833.631 Z " fill="#ffffff"/>
<path transform="matrix(.1,0,0,-.1,-70,675)" d="M 3359.59 1460.83 L 3732.3873 1460.83 L 3732.3873 1833.631 L 3359.59 1833.631 Z " fill="#ffffff"/>
<path transform="matrix(.1,0,0,-.1,-70,675)" d="M 3732.38 1460.83 L 4105.177 1460.83 L 4105.177 1833.631 L 3732.38 1833.631 Z " fill="#ffffff"/>
<path transform="matrix(.1,0,0,-.1,-70,675)" d="M 4105.18 1460.83 L 4477.981 1460.83 L 4477.981 1833.631 L 4105.18 1833.631 Z " fill="#0076ba"/>
<path transform="matrix(.1,0,0,-.1,-70,675)" d="M 4477.98 1460.83 L 4850.777 1460.83 L 4850.777 1833.631 L 4477.98 1833.631 Z " fill="#ffffff"/>
<path transform="matrix(.1,0,0,-.1,-70,675)" d="M 4850.78 1460.83 L 5223.5769 1460.83 L 5223.5769 1833.631 L 4850.78 1833.631 Z " fill="#ffffff"/>
<path transform="matrix(.1,0,0,-.1,-70,675)" d="M 5223.57 1460.83 L 5596.3669 1460.83 L 5596.3669 1833.631 L 5223.57 1833.631 Z " fill="#ffffff"/>
<path transform="matrix(.1,0,0,-.1,-70,675)" d="M 5596.37 1460.83 L 5969.171 1460.83 L 5969.171 1833.631 L 5596.37 1833.631 Z " fill="#0076ba"/>
<path transform="matrix(.1,0,0,-.1,-70,675)" d="M 5969.17 1460.83 L 6341.967 1460.83 L 6341.967 1833.631 L 5969.17 1833.631 Z " fill="#ffffff"/>
<path transform="matrix(.1,0,0,-.1,-70,675)" d="M 6341.97 1460.83 L 6714.767 1460.83 L 6714.767 1833.631 L 6341.97 1833.631 Z " fill="#ffffff"/>
<path transform="matrix(.1,0,0,-.1,-70,675)" d="M 750 1088.03 L 1122.797 1088.03 L 1122.797 1460.827 L 750 1460.827 Z " fill="#ffffff"/>
<path transform="matrix(.1,0,0,-.1,-70,675)" d="M 1122.8 1088.03 L 1495.6011 1088.03 L 1495.6011 1460.827 L 1122.8 1460.827 Z " fill="#ffffff"/>
<path transform="matrix(.1,0,0,-.1,-70,675)" d="M 1495.6 1088.03 L 1868.397 1088.03 L 1868.397 1460.827 L 1495.6 1460.827 Z " fill="#ffffff"/>
<path transform="matrix(.1,0,0,-.1,-70,675)" d="M 1868.39 1088.03 L 2241.187 1088.03 L 2241.187 1460.827 L 1868.39 1460.827 Z " fill="#ffffff"/>
<path transform="matrix(.1,0,0,-.1,-70,675)" d="M 2241.19 1088.03 L 2613.9869 1088.03 L 2613.9869 1460.827 L 2241.19 1460.827 Z " fill="#ffffff"/>
<path transform="matrix(.1,0,0,-.1,-70,675)" d="M 2613.99 1088.03 L 2986.787 1088.03 L 2986.787 1460.827 L 2613.99 1460.827 Z " fill="#ffffff"/>
<path transform="matrix(.1,0,0,-.1,-70,675)" d="M 2986.79 1088.03 L 3359.587 1088.03 L 3359.587 1460.827 L 2986.79 1460.827 Z " fill="#ffffff"/>
<path transform="matrix(.1,0,0,-.1,-70,675)" d="M 3359.59 1088.03 L 3732.3873 1088.03 L 3732.3873 1460.827 L 3359.59 1460.827 Z " fill="#ffffff"/>
<path transform="matrix(.1,0,0,-.1,-70,675)" d="M 3732.38 1088.03 L 4105.177 1088.03 L 4105.177 1460.827 L 3732.38 1460.827 Z " fill="#ffffff"/>
<path transform="matrix(.1,0,0,-.1,-70,675)" d="M 4105.18 1088.03 L 4477.981 1088.03 L 4477.981 1460.827 L 4105.18 1460.827 Z " fill="#ffffff"/>
<path transform="matrix(.1,0,0,-.1,-70,675)" d="M 4477.98 1088.03 L 4850.777 1088.03 L 4850.777 1460.827 L 4477.98 1460.827 Z " fill="#ffffff"/>
<path transform="matrix(.1,0,0,-.1,-70,675)" d="M 4850.78 1088.03 L 5223.5769 1088.03 L 5223.5769 1460.827 L 4850.78 1460.827 Z " fill="#ffffff"/>
<path transform="matrix(.1,0,0,-.1,-70,675)" d="M 5223.57 1088.03 L 5596.3669 1088.03 L 5596.3669 1460.827 L 5223.57 1460.827 Z " fill="#ffffff"/>
<path transform="matrix(.1,0,0,-.1,-70,675)" d="M 5596.37 1088.03 L 5969.171 1088.03 L 5969.171 1460.827 L 5596.37 1460.827 Z " fill="#ffffff"/>
<path transform="matrix(.1,0,0,-.1,-70,675)" d="M 5969.17 1088.03 L 6341.967 1088.03 L 6341.967 1460.827 L 5969.17 1460.827 Z " fill="#ffffff"/>
<path transform="matrix(.1,0,0,-.1,-70,675)" d="M 6341.97 1088.03 L 6714.767 1088.03 L 6714.767 1460.827 L 6341.97 1460.827 Z " fill="#ffffff"/>
<path transform="matrix(.1,0,0,-.1,-70,675)" d="M 750 715.234 L 1122.797 715.234 L 1122.797 1088.031 L 750 1088.031 Z " fill="#ffffff"/>
<path transform="matrix(.1,0,0,-.1,-70,675)" d="M 1122.8 715.234 L 1495.6011 715.234 L 1495.6011 1088.031 L 1122.8 1088.031 Z " fill="#ffffff"/>
<path transform="matrix(.1,0,0,-.1,-70,675)" d="M 1495.6 715.234 L 1868.397 715.234 L 1868.397 1088.031 L 1495.6 1088.031 Z " fill="#ffffff"/>
<path transform="matrix(.1,0,0,-.1,-70,675)" d="M 1868.39 715.234 L 2241.187 715.234 L 2241.187 1088.031 L 1868.39 1088.031 Z " fill="#ffffff"/>
<path transform="matrix(.1,0,0,-.1,-70,675)" d="M 2241.19 715.234 L 2613.9869 715.234 L 2613.9869 1088.031 L 2241.19 1088.031 Z " fill="#ffffff"/>
<path transform="matrix(.1,0,0,-.1,-70,675)" d="M 2613.99 715.234 L 2986.787 715.234 L 2986.787 1088.031 L 2613.99 1088.031 Z " fill="#ffffff"/>
<path transform="matrix(.1,0,0,-.1,-70,675)" d="M 2986.79 715.234 L 3359.587 715.234 L 3359.587 1088.031 L 2986.79 1088.031 Z " fill="#ffffff"/>
<path transform="matrix(.1,0,0,-.1,-70,675)" d="M 3359.59 715.234 L 3732.3873 715.234 L 3732.3873 1088.031 L 3359.59 1088.031 Z " fill="#ffffff"/>
<path transform="matrix(.1,0,0,-.1,-70,675)" d="M 3732.38 715.234 L 4105.177 715.234 L 4105.177 1088.031 L 3732.38 1088.031 Z " fill="#ffffff"/>
<path transform="matrix(.1,0,0,-.1,-70,675)" d="M 4105.18 715.234 L 4477.981 715.234 L 4477.981 1088.031 L 4105.18 1088.031 Z " fill="#ffffff"/>
<path transform="matrix(.1,0,0,-.1,-70,675)" d="M 4477.98 715.234 L 4850.777 715.234 L 4850.777 1088.031 L 4477.98 1088.031 Z " fill="#ffffff"/>
<path transform="matrix(.1,0,0,-.1,-70,675)" d="M 4850.78 715.234 L 5223.5769 715.234 L 5223.5769 1088.031 L 4850.78 1088.031 Z " fill="#ffffff"/>
<path transform="matrix(.1,0,0,-.1,-70,675)" d="M 5223.57 715.234 L 5596.3669 715.234 L 5596.3669 1088.031 L 5223.57 1088.031 Z " fill="#ffffff"/>
<path transform="matrix(.1,0,0,-.1,-70,675)" d="M 5596.37 715.234 L 5969.171 715.234 L 5969.171 1088.031 L 5596.37 1088.031 Z " fill="#ffffff"/>
<path transform="matrix(.1,0,0,-.1,-70,675)" d="M 5969.17 715.234 L 6341.967 715.234 L 6341.967 1088.031 L 5969.17 1088.031 Z " fill="#ffffff"/>
<path transform="matrix(.1,0,0,-.1,-70,675)" d="M 6341.97 715.234 L 6714.767 715.234 L 6714.767 1088.031 L 6341.97 1088.031 Z " fill="#ffffff"/>
</g>
<clipPath id="cp1">
<path transform="matrix(.1,0,0,-.1,-70,675)" d="M 1490.6 710.234 L 1500.6 710.234 L 1500.6 6685.004 L 1490.6 6685.004 Z "/>
</clipPath>
<g clip-path="url(#cp1)">
<path transform="matrix(.1,0,0,-.1,-70,675)" stroke-width="10" stroke-linecap="butt" stroke-dasharray="20,20" stroke-miterlimit="4" stroke-linejoin="miter" fill="none" stroke="#5d5d5d" d="M 1495.6 6685 L 1495.6 710.234 "/>
</g>
<clipPath id="cp2">
<path transform="matrix(.1,0,0,-.1,-70,675)" d="M 1863.39 710.234 L 1873.39 710.234 L 1873.39 6685.004 L 1863.39 6685.004 Z "/>
</clipPath>
<g clip-path="url(#cp2)">
<path transform="matrix(.1,0,0,-.1,-70,675)" stroke-width="10" stroke-linecap="butt" stroke-dasharray="20,20" stroke-miterlimit="4" stroke-linejoin="miter" fill="none" stroke="#5d5d5d" d="M 1868.39 6685 L 1868.39 710.234 "/>
</g>
<clipPath id="cp3">
<path transform="matrix(.1,0,0,-.1,-70,675)" d="M 2236.19 710.234 L 2246.19 710.234 L 2246.19 6685.004 L 2236.19 6685.004 Z "/>
</clipPath>
<g clip-path="url(#cp3)">
<path transform="matrix(.1,0,0,-.1,-70,675)" stroke-width="10" stroke-linecap="butt" stroke-dasharray="20,20" stroke-miterlimit="4" stroke-linejoin="miter" fill="none" stroke="#5d5d5d" d="M 2241.19 6685 L 2241.19 710.234 "/>
</g>
<clipPath id="cp4">
<path transform="matrix(.1,0,0,-.1,-70,675)" d="M 2608.99 710.234 L 2618.99 710.234 L 2618.99 6685.004 L 2608.99 6685.004 Z "/>
</clipPath>
<g clip-path="url(#cp4)">
<path transform="matrix(.1,0,0,-.1,-70,675)" stroke-width="10" stroke-linecap="butt" stroke-dasharray="20,20" stroke-miterlimit="4" stroke-linejoin="miter" fill="none" stroke="#5d5d5d" d="M 2613.99 6685 L 2613.99 710.234 "/>
</g>
<clipPath id="cp5">
<path transform="matrix(.1,0,0,-.1,-70,675)" d="M 2981.79 710.234 L 2991.79 710.234 L 2991.79 6685.004 L 2981.79 6685.004 Z "/>
</clipPath>
<g clip-path="url(#cp5)">
<path transform="matrix(.1,0,0,-.1,-70,675)" stroke-width="10" stroke-linecap="butt" stroke-dasharray="20,20" stroke-miterlimit="4" stroke-linejoin="miter" fill="none" stroke="#5d5d5d" d="M 2986.79 6685 L 2986.79 710.234 "/>
</g>
<clipPath id="cp6">
<path transform="matrix(.1,0,0,-.1,-70,675)" d="M 3354.59 710.234 L 3364.59 710.234 L 3364.59 6685.004 L 3354.59 6685.004 Z "/>
</clipPath>
<g clip-path="url(#cp6)">
<path transform="matrix(.1,0,0,-.1,-70,675)" stroke-width="10" stroke-linecap="butt" stroke-dasharray="20,20" stroke-miterlimit="4" stroke-linejoin="miter" fill="none" stroke="#5d5d5d" d="M 3359.59 6685 L 3359.59 710.234 "/>
</g>
<clipPath id="cp7">
<path transform="matrix(.1,0,0,-.1,-70,675)" d="M 3727.38 710.234 L 3737.38 710.234 L 3737.38 6685.004 L 3727.38 6685.004 Z "/>
</clipPath>
<g clip-path="url(#cp7)">
<path transform="matrix(.1,0,0,-.1,-70,675)" stroke-width="10" stroke-linecap="butt" stroke-dasharray="20,20" stroke-miterlimit="4" stroke-linejoin="miter" fill="none" stroke="#5d5d5d" d="M 3732.38 6685 L 3732.38 710.234 "/>
</g>
<clipPath id="cp8">
<path transform="matrix(.1,0,0,-.1,-70,675)" d="M 4100.18 710.234 L 4110.18 710.234 L 4110.18 6685.004 L 4100.18 6685.004 Z "/>
</clipPath>
<g clip-path="url(#cp8)">
<path transform="matrix(.1,0,0,-.1,-70,675)" stroke-width="10" stroke-linecap="butt" stroke-dasharray="20,20" stroke-miterlimit="4" stroke-linejoin="miter" fill="none" stroke="#5d5d5d" d="M 4105.18 6685 L 4105.18 710.234 "/>
</g>
<clipPath id="cp9">
<path transform="matrix(.1,0,0,-.1,-70,675)" d="M 4472.98 710.234 L 4482.98 710.234 L 4482.98 6685.004 L 4472.98 6685.004 Z "/>
</clipPath>
<g clip-path="url(#cp9)">
<path transform="matrix(.1,0,0,-.1,-70,675)" stroke-width="10" stroke-linecap="butt" stroke-dasharray="20,20" stroke-miterlimit="4" stroke-linejoin="miter" fill="none" stroke="#5d5d5d" d="M 4477.98 6685 L 4477.98 710.234 "/>
</g>
<clipPath id="cp10">
<path transform="matrix(.1,0,0,-.1,-70,675)" d="M 4845.78 710.234 L 4855.78 710.234 L 4855.78 6685.004 L 4845.78 6685.004 Z "/>
</clipPath>
<g clip-path="url(#cp10)">
<path transform="matrix(.1,0,0,-.1,-70,675)" stroke-width="10" stroke-linecap="butt" stroke-dasharray="20,20" stroke-miterlimit="4" stroke-linejoin="miter" fill="none" stroke="#5d5d5d" d="M 4850.78 6685 L 4850.78 710.234 "/>
</g>
<clipPath id="cp11">
<path transform="matrix(.1,0,0,-.1,-70,675)" d="M 5218.57 710.234 L 5228.57 710.234 L 5228.57 6685.004 L 5218.57 6685.004 Z "/>
</clipPath>
<g clip-path="url(#cp11)">
<path transform="matrix(.1,0,0,-.1,-70,675)" stroke-width="10" stroke-linecap="butt" stroke-dasharray="20,20" stroke-miterlimit="4" stroke-linejoin="miter" fill="none" stroke="#5d5d5d" d="M 5223.57 6685 L 5223.57 710.234 "/>
</g>
<clipPath id="cp12">
<path transform="matrix(.1,0,0,-.1,-70,675)" d="M 5591.37 710.234 L 5601.37 710.234 L 5601.37 6685.004 L 5591.37 6685.004 Z "/>
</clipPath>
<g clip-path="url(#cp12)">
<path transform="matrix(.1,0,0,-.1,-70,675)" stroke-width="10" stroke-linecap="butt" stroke-dasharray="20,20" stroke-miterlimit="4" stroke-linejoin="miter" fill="none" stroke="#5d5d5d" d="M 5596.37 6685 L 5596.37 710.234 "/>
</g>
<clipPath id="cp13">
<path transform="matrix(.1,0,0,-.1,-70,675)" d="M 5964.17 710.234 L 5974.17 710.234 L 5974.17 6685.004 L 5964.17 6685.004 Z "/>
</clipPath>
<g clip-path="url(#cp13)">
<path transform="matrix(.1,0,0,-.1,-70,675)" stroke-width="10" stroke-linecap="butt" stroke-dasharray="20,20" stroke-miterlimit="4" stroke-linejoin="miter" fill="none" stroke="#5d5d5d" d="M 5969.17 6685 L 5969.17 710.234 "/>
</g>
<clipPath id="cp14">
<path transform="matrix(.1,0,0,-.1,-70,675)" d="M 6336.97 710.234 L 6346.97 710.234 L 6346.97 6685.004 L 6336.97 6685.004 Z "/>
</clipPath>
<g clip-path="url(#cp14)">
<path transform="matrix(.1,0,0,-.1,-70,675)" stroke-width="10" stroke-linecap="butt" stroke-dasharray="20,20" stroke-miterlimit="4" stroke-linejoin="miter" fill="none" stroke="#5d5d5d" d="M 6341.97 6685 L 6341.97 710.234 "/>
</g>
<clipPath id="cp15">
<path transform="matrix(.1,0,0,-.1,-70,675)" d="M 745 5929.41 L 6719.77 5929.41 L 6719.77 5939.41 L 745 5939.41 Z "/>
</clipPath>
<g clip-path="url(#cp15)">
<path transform="matrix(.1,0,0,-.1,-70,675)" stroke-width="10" stroke-linecap="butt" stroke-dasharray="20,20" stroke-miterlimit="4" stroke-linejoin="miter" fill="none" stroke="#5d5d5d" d="M 745 5934.41 L 6719.77 5934.41 "/>
</g>
<clipPath id="cp16">
<path transform="matrix(.1,0,0,-.1,-70,675)" d="M 745 5556.61 L 6719.77 5556.61 L 6719.77 5566.61 L 745 5566.61 Z "/>
</clipPath>
<g clip-path="url(#cp16)">
<path transform="matrix(.1,0,0,-.1,-70,675)" stroke-width="10" stroke-linecap="butt" stroke-dasharray="20,20" stroke-miterlimit="4" stroke-linejoin="miter" fill="none" stroke="#5d5d5d" d="M 745 5561.61 L 6719.77 5561.61 "/>
</g>
<clipPath id="cp17">
<path transform="matrix(.1,0,0,-.1,-70,675)" d="M 745 5183.81 L 6719.77 5183.81 L 6719.77 5193.81 L 745 5193.81 Z "/>
</clipPath>
<g clip-path="url(#cp17)">
<path transform="matrix(.1,0,0,-.1,-70,675)" stroke-width="10" stroke-linecap="butt" stroke-dasharray="20,20" stroke-miterlimit="4" stroke-linejoin="miter" fill="none" stroke="#5d5d5d" d="M 745 5188.81 L 6719.77 5188.81 "/>
</g>
<clipPath id="cp18">
<path transform="matrix(.1,0,0,-.1,-70,675)" d="M 745 4811.01 L 6719.77 4811.01 L 6719.77 4821.01 L 745 4821.01 Z "/>
</clipPath>
<g clip-path="url(#cp18)">
<path transform="matrix(.1,0,0,-.1,-70,675)" stroke-width="10" stroke-linecap="butt" stroke-dasharray="20,20" stroke-miterlimit="4" stroke-linejoin="miter" fill="none" stroke="#5d5d5d" d="M 745 4816.01 L 6719.77 4816.01 "/>
</g>
<clipPath id="cp19">
<path transform="matrix(.1,0,0,-.1,-70,675)" d="M 745 4438.21 L 6719.77 4438.21 L 6719.77 4448.21 L 745 4448.21 Z "/>
</clipPath>
<g clip-path="url(#cp19)">
<path transform="matrix(.1,0,0,-.1,-70,675)" stroke-width="10" stroke-linecap="butt" stroke-dasharray="20,20" stroke-miterlimit="4" stroke-linejoin="miter" fill="none" stroke="#5d5d5d" d="M 745 4443.21 L 6719.77 4443.21 "/>
</g>
<clipPath id="cp20">
<path transform="matrix(.1,0,0,-.1,-70,675)" d="M 745 4065.41 L 6719.77 4065.41 L 6719.77 4075.41 L 745 4075.41 Z "/>
</clipPath>
<g clip-path="url(#cp20)">
<path transform="matrix(.1,0,0,-.1,-70,675)" stroke-width="10" stroke-linecap="butt" stroke-dasharray="20,20" stroke-miterlimit="4" stroke-linejoin="miter" fill="none" stroke="#5d5d5d" d="M 745 4070.41 L 6719.77 4070.41 "/>
</g>
<clipPath id="cp21">
<path transform="matrix(.1,0,0,-.1,-70,675)" d="M 745 3692.62 L 6719.77 3692.62 L 6719.77 3702.62 L 745 3702.62 Z "/>
</clipPath>
<g clip-path="url(#cp21)">
<path transform="matrix(.1,0,0,-.1,-70,675)" stroke-width="10" stroke-linecap="butt" stroke-dasharray="20,20" stroke-miterlimit="4" stroke-linejoin="miter" fill="none" stroke="#5d5d5d" d="M 745 3697.62 L 6719.77 3697.62 "/>
</g>
<clipPath id="cp22">
<path transform="matrix(.1,0,0,-.1,-70,675)" d="M 745 3319.82 L 6719.77 3319.82 L 6719.77 3329.82 L 745 3329.82 Z "/>
</clipPath>
<g clip-path="url(#cp22)">
<path transform="matrix(.1,0,0,-.1,-70,675)" stroke-width="10" stroke-linecap="butt" stroke-dasharray="20,20" stroke-miterlimit="4" stroke-linejoin="miter" fill="none" stroke="#5d5d5d" d="M 745 3324.82 L 6719.77 3324.82 "/>
</g>
<clipPath id="cp23">
<path transform="matrix(.1,0,0,-.1,-70,675)" d="M 745 2947.02 L 6719.77 2947.02 L 6719.77 2957.02 L 745 2957.02 Z "/>
</clipPath>
<g clip-path="url(#cp23)">
<path transform="matrix(.1,0,0,-.1,-70,675)" stroke-width="10" stroke-linecap="butt" stroke-dasharray="20,20" stroke-miterlimit="4" stroke-linejoin="miter" fill="none" stroke="#5d5d5d" d="M 745 2952.02 L 6719.77 2952.02 "/>
</g>
<clipPath id="cp24">
<path transform="matrix(.1,0,0,-.1,-70,675)" d="M 745 2574.22 L 6719.77 2574.22 L 6719.77 2584.22 L 745 2584.22 Z "/>
</clipPath>
<g clip-path="url(#cp24)">
<path transform="matrix(.1,0,0,-.1,-70,675)" stroke-width="10" stroke-linecap="butt" stroke-dasharray="20,20" stroke-miterlimit="4" stroke-linejoin="miter" fill="none" stroke="#5d5d5d" d="M 745 2579.22 L 6719.77 2579.22 "/>
</g>
<clipPath id="cp25">
<path transform="matrix(.1,0,0,-.1,-70,675)" d="M 745 2201.43 L 6719.77 2201.43 L 6719.77 2211.43 L 745 2211.43 Z "/>
</clipPath>
<g clip-path="url(#cp25)">
<path transform="matrix(.1,0,0,-.1,-70,675)" stroke-width="10" stroke-linecap="butt" stroke-dasharray="20,20" stroke-miterlimit="4" stroke-linejoin="miter" fill="none" stroke="#5d5d5d" d="M 745 2206.43 L 6719.77 2206.43 "/>
</g>
<clipPath id="cp26">
<path transform="matrix(.1,0,0,-.1,-70,675)" d="M 745 1828.63 L 6719.77 1828.63 L 6719.77 1838.63 L 745 1838.63 Z "/>
</clipPath>
<g clip-path="url(#cp26)">
<path transform="matrix(.1,0,0,-.1,-70,675)" stroke-width="10" stroke-linecap="butt" stroke-dasharray="20,20" stroke-miterlimit="4" stroke-linejoin="miter" fill="none" stroke="#5d5d5d" d="M 745 1833.63 L 6719.77 1833.63 "/>
</g>
<clipPath id="cp27">
<path transform="matrix(.1,0,0,-.1,-70,675)" d="M 745 1455.83 L 6719.77 1455.83 L 6719.77 1465.83 L 745 1465.83 Z "/>
</clipPath>
<g clip-path="url(#cp27)">
<path transform="matrix(.1,0,0,-.1,-70,675)" stroke-width="10" stroke-linecap="butt" stroke-dasharray="20,20" stroke-miterlimit="4" stroke-linejoin="miter" fill="none" stroke="#5d5d5d" d="M 745 1460.83 L 6719.77 1460.83 "/>
</g>
<clipPath id="cp28">
<path transform="matrix(.1,0,0,-.1,-70,675)" d="M 745 1083.03 L 6719.77 1083.03 L 6719.77 1093.03 L 745 1093.03 Z "/>
</clipPath>
<g clip-path="url(#cp28)">
<path transform="matrix(.1,0,0,-.1,-70,675)" stroke-width="10" stroke-linecap="butt" stroke-dasharray="20,20" stroke-miterlimit="4" stroke-linejoin="miter" fill="none" stroke="#5d5d5d" d="M 745 1088.03 L 6719.77 1088.03 "/>
</g>
<clipPath id="cp29">
<path transform="matrix(.1,0,0,-.1,-70,675)" d="M 1117.8 710.234 L 1127.8 710.234 L 1127.8 6685.004 L 1117.8 6685.004 Z "/>
</clipPath>
<g clip-path="url(#cp29)">
<path transform="matrix(.1,0,0,-.1,-70,675)" stroke-width="10" stroke-linecap="butt" stroke-dasharray="20,20" stroke-miterlimit="4" stroke-linejoin="miter" fill="none" stroke="#5d5d5d" d="M 1122.8 6685 L 1122.8 710.234 "/>
</g>
<clipPath id="cp30">
<path transform="matrix(.1,0,0,-.1,-70,675)" d="M 745 6302.2 L 6719.77 6302.2 L 6719.77 6312.2 L 745 6312.2 Z "/>
</clipPath>
<g clip-path="url(#cp30)">
<path transform="matrix(.1,0,0,-.1,-70,675)" stroke-width="10" stroke-linecap="butt" stroke-dasharray="20,20" stroke-miterlimit="4" stroke-linejoin="miter" fill="none" stroke="#5d5d5d" d="M 745 6307.2 L 6719.77 6307.2 "/>
</g>
<clipPath id="cp31">
<path transform="matrix(.1,0,0,-.1,-70,675)" d="M 745 710.234 L 755 710.234 L 755 6685.004 L 745 6685.004 Z "/>
</clipPath>
<g clip-path="url(#cp31)">
<path transform="matrix(.1,0,0,-.1,-70,675)" stroke-width="10" stroke-linecap="butt" stroke-dasharray="20,20" stroke-miterlimit="4" stroke-linejoin="miter" fill="none" stroke="#5e5e5e" d="M 750 6685 L 750 710.234 "/>
</g>
<clipPath id="cp32">
<path transform="matrix(.1,0,0,-.1,-70,675)" d="M 6709.77 710.234 L 6719.77 710.234 L 6719.77 6685.004 L 6709.77 6685.004 Z "/>
</clipPath>
<g clip-path="url(#cp32)">
<path transform="matrix(.1,0,0,-.1,-70,675)" stroke-width="10" stroke-linecap="butt" stroke-dasharray="20,20" stroke-miterlimit="4" stroke-linejoin="miter" fill="none" stroke="#5e5e5e" d="M 6714.77 6685 L 6714.77 710.234 "/>
</g>
<clipPath id="cp33">
<path transform="matrix(.1,0,0,-.1,-70,675)" d="M 745 6675 L 6719.77 6675 L 6719.77 6685 L 745 6685 Z "/>
</clipPath>
<g clip-path="url(#cp33)">
<path transform="matrix(.1,0,0,-.1,-70,675)" stroke-width="10" stroke-linecap="butt" stroke-dasharray="20,20" stroke-miterlimit="4" stroke-linejoin="miter" fill="none" stroke="#5e5e5e" d="M 745 6680 L 6719.77 6680 "/>
</g>
<clipPath id="cp34">
<path transform="matrix(.1,0,0,-.1,-70,675)" d="M 745 710.234 L 6719.77 710.234 L 6719.77 720.234 L 745 720.234 Z "/>
</clipPath>
<g clip-path="url(#cp34)">
<path transform="matrix(.1,0,0,-.1,-70,675)" stroke-width="10" stroke-linecap="butt" stroke-dasharray="20,20" stroke-miterlimit="4" stroke-linejoin="miter" fill="none" stroke="#5e5e5e" d="M 745 715.234 L 6719.77 715.234 "/>
</g>
</g>
</svg>
