<?xml version="1.0" encoding="UTF-8" standalone="no"?>
<!DOCTYPE svg PUBLIC "-//W3C//DTD SVG 1.1//EN" "http://www.w3.org/Graphics/SVG/1.1/DTD/svg11.dtd">
<svg xmlns="http://www.w3.org/2000/svg" xmlns:xlink="http://www.w3.org/1999/xlink" version="1.1" width="420.45875pt" height="264.72688pt" viewBox="0 0 420.45875 264.72688">
<g enable-background="new">
<g>
<path transform="matrix(1,0,0,-1,0,264.72688)" d="M 0 0 L 420.45875 0 L 420.45875 264.72688 L 0 264.72688 Z " fill="#f3f3f3"/>
<path transform="matrix(1,0,0,-1,0,264.72688)" d="M 32.965627 24.246876 L 408.80564 24.246876 L 408.80564 257.5269 L 32.965627 257.5269 Z " fill="#f3f3f3"/>
<clipPath id="cp0">
<path transform="matrix(1,0,0,-1,0,264.72688)" d="M 32.965627 24.246876 L 408.80564 24.246876 L 408.80564 257.5269 L 32.965627 257.5269 Z "/>
</clipPath>
<g clip-path="url(#cp0)">
<path transform="matrix(1,0,0,-1,0,264.72688)" stroke-width="1" stroke-linecap="butt" stroke-linejoin="round" fill="none" stroke="#d5d5d5" d="M 32.965627 24.246876 L 32.965627 257.5269 "/>
</g>
<symbol id="font_1_36">
<path transform="matrix(.001,0,0,.001,-.07,.013)" d="M 330 404 C 286 404 251 388 225 358 C 199 328 186 286 186 234 C 186 181 199 139 225 109 C 251 79 286 64 330 64 C 374 64 409 79 435 109 C 461 139 474 181 474 234 C 474 286 461 328 435 358 C 409 388 374 404 330 404 M 526 713 L 526 623 C 501 635 476 644 451 650 C 425 656 400 659 376 659 C 310 659 260 637 226 593 C 192 549 172 482 168 394 C 187 422 211 444 240 459 C 269 474 301 482 336 482 C 409 482 467 459 509 415 C 551 371 573 310 573 234 C 573 159 550 99 506 54 C 462 9 403 -13 330 -13 C 246 -13 181 19 137 83 C 92 147 70 241 70 364 C 70 479 97 571 152 639 C 206 707 280 742 372 742 C 396 742 421 739 447 735 C 472 730 498 723 526 713 "/>
</symbol>
<use xlink:href="#font_1_36" transform="matrix(14,0,0,-14,35.35578,254.80263)" fill="#686868"/>
<clipPath id="cp2">
<path transform="matrix(.014,0,0,-.014,22.645314,254.62062)" d="M -1021 -463 L 1794 -463 L 1794 1233 L -1021 1233 Z "/>
</clipPath>
<g clip-path="url(#cp2)">
<path transform="matrix(.014,0,0,-.014,22.645314,254.62062)" d="M 106 355 L 732 355 L 732 272 L 106 272 L 106 355 " fill="#686868"/>
</g>
<clipPath id="cp3">
<path transform="matrix(1,0,0,-1,0,264.72688)" d="M 32.965627 24.246876 L 408.80564 24.246876 L 408.80564 257.5269 L 32.965627 257.5269 Z "/>
</clipPath>
<g clip-path="url(#cp3)">
<path transform="matrix(1,0,0,-1,0,264.72688)" stroke-width="1" stroke-linecap="butt" stroke-linejoin="round" fill="none" stroke="#d5d5d5" d="M 95.60562 24.246876 L 95.60562 257.5269 "/>
</g>
<symbol id="font_1_34">
<path transform="matrix(.001,0,0,.001,-.049000004,0)" d="M 378 643 L 129 254 L 378 254 L 378 643 M 352 729 L 476 729 L 476 254 L 580 254 L 580 172 L 476 172 L 476 0 L 378 0 L 378 172 L 49 172 L 49 267 L 352 729 "/>
</symbol>
<use xlink:href="#font_1_34" transform="matrix(14,0,0,-14,97.701778,254.62062)" fill="#686868"/>
<clipPath id="cp4">
<path transform="matrix(.014,0,0,-.014,85.28531,254.62062)" d="M -1021 -463 L 1794 -463 L 1794 1233 L -1021 1233 Z "/>
</clipPath>
<g clip-path="url(#cp4)">
<path transform="matrix(.014,0,0,-.014,85.28531,254.62062)" d="M 106 355 L 732 355 L 732 272 L 106 272 L 106 355 " fill="#686868"/>
</g>
<clipPath id="cp5">
<path transform="matrix(1,0,0,-1,0,264.72688)" d="M 32.965627 24.246876 L 408.80564 24.246876 L 408.80564 257.5269 L 32.965627 257.5269 Z "/>
</clipPath>
<g clip-path="url(#cp5)">
<path transform="matrix(1,0,0,-1,0,264.72688)" stroke-width="1" stroke-linecap="butt" stroke-linejoin="round" fill="none" stroke="#d5d5d5" d="M 158.24562 24.246876 L 158.24562 257.5269 "/>
</g>
<symbol id="font_1_32">
<path transform="matrix(.001,0,0,.001,-.07300001,0)" d="M 192 83 L 536 83 L 536 0 L 73 0 L 73 83 C 110 121 161 173 226 239 C 290 304 331 346 348 365 C 380 400 402 430 414 455 C 426 479 433 504 433 528 C 433 566 419 598 392 622 C 365 646 330 659 286 659 C 255 659 222 653 188 643 C 154 632 117 616 78 594 L 78 694 C 118 710 155 722 189 730 C 223 738 255 742 284 742 C 359 742 419 723 464 685 C 509 647 532 597 532 534 C 532 504 526 475 515 449 C 504 422 484 390 454 354 C 446 344 420 317 376 272 C 332 227 271 164 192 83 "/>
</symbol>
<use xlink:href="#font_1_32" transform="matrix(14,0,0,-14,160.67778,254.62062)" fill="#686868"/>
<clipPath id="cp6">
<path transform="matrix(.014,0,0,-.014,147.92531,254.62062)" d="M -1021 -463 L 1794 -463 L 1794 1233 L -1021 1233 Z "/>
</clipPath>
<g clip-path="url(#cp6)">
<path transform="matrix(.014,0,0,-.014,147.92531,254.62062)" d="M 106 355 L 732 355 L 732 272 L 106 272 L 106 355 " fill="#686868"/>
</g>
<clipPath id="cp7">
<path transform="matrix(1,0,0,-1,0,264.72688)" d="M 32.965627 24.246876 L 408.80564 24.246876 L 408.80564 257.5269 L 32.965627 257.5269 Z "/>
</clipPath>
<g clip-path="url(#cp7)">
<path transform="matrix(1,0,0,-1,0,264.72688)" stroke-width="1" stroke-linecap="butt" stroke-linejoin="round" fill="none" stroke="#d5d5d5" d="M 220.88562 24.246876 L 220.88562 257.5269 "/>
</g>
<symbol id="font_1_30">
<path transform="matrix(.001,0,0,.001,-.066,.013)" d="M 318 664 C 267 664 229 639 203 589 C 177 539 165 464 165 364 C 165 264 177 189 203 139 C 229 89 267 64 318 64 C 369 64 407 89 433 139 C 458 189 471 264 471 364 C 471 464 458 539 433 589 C 407 639 369 664 318 664 M 318 742 C 399 742 461 709 505 645 C 548 580 570 486 570 364 C 570 241 548 147 505 83 C 461 19 399 -13 318 -13 C 236 -13 173 19 130 83 C 87 147 66 241 66 364 C 66 486 87 580 130 645 C 173 709 236 742 318 742 "/>
</symbol>
<use xlink:href="#font_1_30" transform="matrix(14,0,0,-14,217.35649,254.80263)" fill="#686868"/>
<clipPath id="cp8">
<path transform="matrix(1,0,0,-1,0,264.72688)" d="M 32.965627 24.246876 L 408.80564 24.246876 L 408.80564 257.5269 L 32.965627 257.5269 Z "/>
</clipPath>
<g clip-path="url(#cp8)">
<path transform="matrix(1,0,0,-1,0,264.72688)" stroke-width="1" stroke-linecap="butt" stroke-linejoin="round" fill="none" stroke="#d5d5d5" d="M 283.52565 24.246876 L 283.52565 257.5269 "/>
</g>
<use xlink:href="#font_1_32" transform="matrix(14,0,0,-14,280.0945,254.62062)" fill="#686868"/>
<clipPath id="cp9">
<path transform="matrix(1,0,0,-1,0,264.72688)" d="M 32.965627 24.246876 L 408.80564 24.246876 L 408.80564 257.5269 L 32.965627 257.5269 Z "/>
</clipPath>
<g clip-path="url(#cp9)">
<path transform="matrix(1,0,0,-1,0,264.72688)" stroke-width="1" stroke-linecap="butt" stroke-linejoin="round" fill="none" stroke="#d5d5d5" d="M 346.16563 24.246876 L 346.16563 257.5269 "/>
</g>
<use xlink:href="#font_1_34" transform="matrix(14,0,0,-14,342.3985,254.62062)" fill="#686868"/>
<clipPath id="cp10">
<path transform="matrix(1,0,0,-1,0,264.72688)" d="M 32.965627 24.246876 L 408.80564 24.246876 L 408.80564 257.5269 L 32.965627 257.5269 Z "/>
</clipPath>
<g clip-path="url(#cp10)">
<path transform="matrix(1,0,0,-1,0,264.72688)" stroke-width="1" stroke-linecap="butt" stroke-linejoin="round" fill="none" stroke="#d5d5d5" d="M 408.80564 24.246876 L 408.80564 257.5269 "/>
</g>
<use xlink:href="#font_1_36" transform="matrix(14,0,0,-14,405.33253,254.80263)" fill="#686868"/>
<clipPath id="cp11">
<path transform="matrix(1,0,0,-1,0,264.72688)" d="M 32.965627 24.246876 L 408.80564 24.246876 L 408.80564 257.5269 L 32.965627 257.5269 Z "/>
</clipPath>
<g clip-path="url(#cp11)">
<path transform="matrix(1,0,0,-1,0,264.72688)" stroke-width="1" stroke-linecap="butt" stroke-linejoin="round" fill="none" stroke="#d5d5d5" d="M 32.965627 43.686876 L 408.80564 43.686876 "/>
</g>
<symbol id="font_1_2e">
<path transform="matrix(.001,0,0,.001,-.10700001,0)" d="M 107 124 L 210 124 L 210 0 L 107 0 L 107 124 "/>
</symbol>
<use xlink:href="#font_1_30" transform="matrix(14,0,0,-14,8.124,226.54232)" fill="#686868"/>
<use xlink:href="#font_1_2e" transform="matrix(14,0,0,-14,17.602002,226.3603)" fill="#686868"/>
<use xlink:href="#font_1_30" transform="matrix(14,0,0,-14,21.48,226.54232)" fill="#686868"/>
<clipPath id="cp12">
<path transform="matrix(1,0,0,-1,0,264.72688)" d="M 32.965627 24.246876 L 408.80564 24.246876 L 408.80564 257.5269 L 32.965627 257.5269 Z "/>
</clipPath>
<g clip-path="url(#cp12)">
<path transform="matrix(1,0,0,-1,0,264.72688)" stroke-width="1" stroke-linecap="butt" stroke-linejoin="round" fill="none" stroke="#d5d5d5" d="M 32.965627 82.56687 L 408.80564 82.56687 "/>
</g>
<use xlink:href="#font_1_30" transform="matrix(14,0,0,-14,8.124,187.66233)" fill="#686868"/>
<use xlink:href="#font_1_2e" transform="matrix(14,0,0,-14,17.602002,187.48032)" fill="#686868"/>
<use xlink:href="#font_1_32" transform="matrix(14,0,0,-14,21.578,187.48032)" fill="#686868"/>
<clipPath id="cp13">
<path transform="matrix(1,0,0,-1,0,264.72688)" d="M 32.965627 24.246876 L 408.80564 24.246876 L 408.80564 257.5269 L 32.965627 257.5269 Z "/>
</clipPath>
<g clip-path="url(#cp13)">
<path transform="matrix(1,0,0,-1,0,264.72688)" stroke-width="1" stroke-linecap="butt" stroke-linejoin="round" fill="none" stroke="#d5d5d5" d="M 32.965627 121.44688 L 408.80564 121.44688 "/>
</g>
<use xlink:href="#font_1_30" transform="matrix(14,0,0,-14,8.124,148.78232)" fill="#686868"/>
<use xlink:href="#font_1_2e" transform="matrix(14,0,0,-14,17.602002,148.60031)" fill="#686868"/>
<use xlink:href="#font_1_34" transform="matrix(14,0,0,-14,21.242,148.60031)" fill="#686868"/>
<clipPath id="cp14">
<path transform="matrix(1,0,0,-1,0,264.72688)" d="M 32.965627 24.246876 L 408.80564 24.246876 L 408.80564 257.5269 L 32.965627 257.5269 Z "/>
</clipPath>
<g clip-path="url(#cp14)">
<path transform="matrix(1,0,0,-1,0,264.72688)" stroke-width="1" stroke-linecap="butt" stroke-linejoin="round" fill="none" stroke="#d5d5d5" d="M 32.965627 160.32688 L 408.80564 160.32688 "/>
</g>
<use xlink:href="#font_1_30" transform="matrix(14,0,0,-14,8.124,109.902309)" fill="#686868"/>
<use xlink:href="#font_1_2e" transform="matrix(14,0,0,-14,17.602002,109.72031)" fill="#686868"/>
<use xlink:href="#font_1_36" transform="matrix(14,0,0,-14,21.536,109.902309)" fill="#686868"/>
<clipPath id="cp15">
<path transform="matrix(1,0,0,-1,0,264.72688)" d="M 32.965627 24.246876 L 408.80564 24.246876 L 408.80564 257.5269 L 32.965627 257.5269 Z "/>
</clipPath>
<g clip-path="url(#cp15)">
<path transform="matrix(1,0,0,-1,0,264.72688)" stroke-width="1" stroke-linecap="butt" stroke-linejoin="round" fill="none" stroke="#d5d5d5" d="M 32.965627 199.20688 L 408.80564 199.20688 "/>
</g>
<symbol id="font_1_38">
<path transform="matrix(.001,0,0,.001,-.068,.013)" d="M 318 346 C 271 346 234 333 207 308 C 180 283 167 249 167 205 C 167 161 180 126 207 101 C 234 76 271 64 318 64 C 364 64 401 76 428 102 C 455 127 469 161 469 205 C 469 249 455 283 429 308 C 402 333 365 346 318 346 M 219 388 C 177 398 144 418 120 447 C 96 476 85 511 85 553 C 85 611 105 657 147 691 C 188 725 245 742 318 742 C 390 742 447 725 489 691 C 530 657 551 611 551 553 C 551 511 539 476 515 447 C 491 418 459 398 417 388 C 464 377 501 355 528 323 C 554 291 568 251 568 205 C 568 134 546 80 503 43 C 459 5 398 -13 318 -13 C 237 -13 175 5 132 43 C 89 80 68 134 68 205 C 68 251 81 291 108 323 C 134 355 171 377 219 388 M 183 544 C 183 506 194 476 218 455 C 242 434 275 424 318 424 C 360 424 393 434 417 455 C 441 476 453 506 453 544 C 453 582 441 611 417 632 C 393 653 360 664 318 664 C 275 664 242 653 218 632 C 194 611 183 582 183 544 "/>
</symbol>
<use xlink:href="#font_1_30" transform="matrix(14,0,0,-14,8.124,71.0223)" fill="#686868"/>
<use xlink:href="#font_1_2e" transform="matrix(14,0,0,-14,17.602002,70.8403)" fill="#686868"/>
<use xlink:href="#font_1_38" transform="matrix(14,0,0,-14,21.508,71.0223)" fill="#686868"/>
<clipPath id="cp16">
<path transform="matrix(1,0,0,-1,0,264.72688)" d="M 32.965627 24.246876 L 408.80564 24.246876 L 408.80564 257.5269 L 32.965627 257.5269 Z "/>
</clipPath>
<g clip-path="url(#cp16)">
<path transform="matrix(1,0,0,-1,0,264.72688)" stroke-width="1" stroke-linecap="butt" stroke-linejoin="round" fill="none" stroke="#d5d5d5" d="M 32.965627 238.08687 L 408.80564 238.08687 "/>
</g>
<symbol id="font_1_31">
<path transform="matrix(.001,0,0,.001,-.11000001,0)" d="M 124 83 L 285 83 L 285 639 L 110 604 L 110 694 L 284 729 L 383 729 L 383 83 L 544 83 L 544 0 L 124 0 L 124 83 "/>
</symbol>
<use xlink:href="#font_1_31" transform="matrix(14,0,0,-14,8.74,31.960312)" fill="#686868"/>
<use xlink:href="#font_1_2e" transform="matrix(14,0,0,-14,17.602002,31.960312)" fill="#686868"/>
<use xlink:href="#font_1_30" transform="matrix(14,0,0,-14,21.48,32.14231)" fill="#686868"/>
<clipPath id="cp17">
<path transform="matrix(1,0,0,-1,0,264.72688)" d="M 32.965627 24.246876 L 408.80564 24.246876 L 408.80564 257.5269 L 32.965627 257.5269 Z "/>
</clipPath>
<g clip-path="url(#cp17)">
<path transform="matrix(1,0,0,-1,0,264.72688)" stroke-width="1.7" stroke-linecap="butt" stroke-linejoin="round" fill="none" stroke="#008fd5" d="M -1 43.849657 L 29.207226 44.113317 L 49.252027 44.494028 L 64.28562 44.987966 L 76.187229 45.583574 L 86.209629 46.28929 L 94.979228 47.11538 L 103.12242 48.11024 L 110.012828 49.168039 L 116.276828 50.34005 L 121.91443 51.59877 L 127.552028 53.08371 L 132.56324 54.622446 L 137.57444 56.39584 L 141.95923 58.163446 L 146.34403 60.15461 L 150.72882 62.391176 L 155.11363 64.895298 L 159.49843 67.688869 L 163.25682 70.32964 L 167.01523 73.21063 L 170.77362 76.3425 L 174.53203 79.73396 L 178.29042 83.39119 L 182.67523 87.99772 L 187.06003 92.968448 L 191.44483 98.2939 L 195.82962 103.95583 L 200.84082 110.8028 L 206.47843 118.916919 L 213.36882 129.27855 L 237.79843 166.51122 L 243.43602 174.44168 L 248.44722 181.09311 L 252.83203 186.56555 L 257.21684 191.68996 L 261.60163 196.4532 L 265.98643 200.85047 L 269.7448 204.32997 L 273.50325 207.54752 L 277.26164 210.51103 L 281.02003 213.23059 L 285.40483 216.11077 L 289.7896 218.69538 L 294.17445 221.00614 L 298.55924 223.06516 L 302.94404 224.89444 L 307.95524 226.73108 L 312.96644 228.3258 L 318.60404 229.86574 L 324.24165 231.17183 L 330.5056 232.38858 L 337.39604 233.48726 L 344.9128 234.45034 L 353.05604 235.27085 L 362.45204 235.99285 L 373.72724 236.62116 L 386.88163 237.12133 L 403.16804 237.51168 L 421.45875 237.76567 "/>
</g>
<path transform="matrix(1,0,0,-1,0,264.72688)" stroke-width="3" stroke-linecap="square" stroke-miterlimit="10" stroke-linejoin="miter" fill="none" stroke="#f3f3f3" d="M 32.965627 24.246876 L 32.965627 257.5269 "/>
<path transform="matrix(1,0,0,-1,0,264.72688)" stroke-width="3" stroke-linecap="square" stroke-miterlimit="10" stroke-linejoin="miter" fill="none" stroke="#f3f3f3" d="M 408.80564 24.246876 L 408.80564 257.5269 "/>
<path transform="matrix(1,0,0,-1,0,264.72688)" stroke-width="3" stroke-linecap="square" stroke-miterlimit="10" stroke-linejoin="miter" fill="none" stroke="#f3f3f3" d="M 32.965627 24.246876 L 408.80564 24.246876 "/>
<path transform="matrix(1,0,0,-1,0,264.72688)" stroke-width="3" stroke-linecap="square" stroke-miterlimit="10" stroke-linejoin="miter" fill="none" stroke="#f3f3f3" d="M 32.965627 257.5269 L 408.80564 257.5269 "/>
</g>
</g>
</svg>
