<?xml version="1.0" encoding="UTF-8" standalone="no"?>
<!DOCTYPE svg PUBLIC "-//W3C//DTD SVG 1.1//EN" "http://www.w3.org/Graphics/SVG/1.1/DTD/svg11.dtd">
<svg xmlns="http://www.w3.org/2000/svg" xmlns:xlink="http://www.w3.org/1999/xlink" version="1.1" width="315pt" height="320pt" viewBox="0 0 315 320">
<g enable-background="new">
<path transform="matrix(.1,0,0,-.1,-475,675)" d="M 0 0 L 10240 0 L 10240 7680 L 0 7680 Z " fill="#ffffff"/>
<clipPath id="cp0">
<path transform="matrix(.1,0,0,-.1,-475,675)" d="M 745 3675 L 3755 3675 L 3755 6685 L 745 6685 Z "/>
</clipPath>
<g clip-path="url(#cp0)">
<path transform="matrix(.1,0,0,-.1,-475,675)" d="M 750 6080 L 1350 6080 L 1350 6680 L 750 6680 Z " fill="#ffffff"/>
<path transform="matrix(.1,0,0,-.1,-475,675)" d="M 1350 6080 L 1950 6080 L 1950 6680 L 1350 6680 Z " fill="#ffffff"/>
<path transform="matrix(.1,0,0,-.1,-475,675)" d="M 1950 6080 L 2550 6080 L 2550 6680 L 1950 6680 Z " fill="#ffffff"/>
<path transform="matrix(.1,0,0,-.1,-475,675)" d="M 2550 6080 L 3150 6080 L 3150 6680 L 2550 6680 Z " fill="#ffffff"/>
<path transform="matrix(.1,0,0,-.1,-475,675)" d="M 3150 6080 L 3750 6080 L 3750 6680 L 3150 6680 Z " fill="#ffffff"/>
<path transform="matrix(.1,0,0,-.1,-475,675)" d="M 750 5480 L 1350 5480 L 1350 6080 L 750 6080 Z " fill="#ffffff"/>
<path transform="matrix(.1,0,0,-.1,-475,675)" d="M 1350 5480 L 1950 5480 L 1950 6080 L 1350 6080 Z " fill="#ffffff"/>
<path transform="matrix(.1,0,0,-.1,-475,675)" d="M 1950 5480 L 2550 5480 L 2550 6080 L 1950 6080 Z " fill="#ffffff"/>
<path transform="matrix(.1,0,0,-.1,-475,675)" d="M 2550 5480 L 3150 5480 L 3150 6080 L 2550 6080 Z " fill="#ffffff"/>
<path transform="matrix(.1,0,0,-.1,-475,675)" d="M 3150 5480 L 3750 5480 L 3750 6080 L 3150 6080 Z " fill="#ffffff"/>
<path transform="matrix(.1,0,0,-.1,-475,675)" d="M 750 4880 L 1350 4880 L 1350 5480 L 750 5480 Z " fill="#ffffff"/>
<path transform="matrix(.1,0,0,-.1,-475,675)" d="M 1350 4880 L 1950 4880 L 1950 5480 L 1350 5480 Z " fill="#ffffff"/>
<path transform="matrix(.1,0,0,-.1,-475,675)" d="M 1950 4880 L 2550 4880 L 2550 5480 L 1950 5480 Z " fill="#ffffff"/>
<path transform="matrix(.1,0,0,-.1,-475,675)" d="M 2550 4880 L 3150 4880 L 3150 5480 L 2550 5480 Z " fill="#ffffff"/>
<path transform="matrix(.1,0,0,-.1,-475,675)" d="M 3150 4880 L 3750 4880 L 3750 5480 L 3150 5480 Z " fill="#ffffff"/>
<path transform="matrix(.1,0,0,-.1,-475,675)" d="M 750 4280 L 1350 4280 L 1350 4880 L 750 4880 Z " fill="#ffffff"/>
<path transform="matrix(.1,0,0,-.1,-475,675)" d="M 1350 4280 L 1950 4280 L 1950 4880 L 1350 4880 Z " fill="#ffffff"/>
<path transform="matrix(.1,0,0,-.1,-475,675)" d="M 1950 4280 L 2550 4280 L 2550 4880 L 1950 4880 Z " fill="#ffffff"/>
<path transform="matrix(.1,0,0,-.1,-475,675)" d="M 2550 4280 L 3150 4280 L 3150 4880 L 2550 4880 Z " fill="#ffffff"/>
<path transform="matrix(.1,0,0,-.1,-475,675)" d="M 3150 4280 L 3750 4280 L 3750 4880 L 3150 4880 Z " fill="#ffffff"/>
<path transform="matrix(.1,0,0,-.1,-475,675)" d="M 750 3680 L 1350 3680 L 1350 4280 L 750 4280 Z " fill="#ffffff"/>
<path transform="matrix(.1,0,0,-.1,-475,675)" d="M 1350 3680 L 1950 3680 L 1950 4280 L 1350 4280 Z " fill="#ffffff"/>
<path transform="matrix(.1,0,0,-.1,-475,675)" d="M 1950 3680 L 2550 3680 L 2550 4280 L 1950 4280 Z " fill="#ffffff"/>
<path transform="matrix(.1,0,0,-.1,-475,675)" d="M 2550 3680 L 3150 3680 L 3150 4280 L 2550 4280 Z " fill="#ffffff"/>
<path transform="matrix(.1,0,0,-.1,-475,675)" d="M 3150 3680 L 3750 3680 L 3750 4280 L 3150 4280 Z " fill="#ffffff"/>
</g>
<clipPath id="cp1">
<path transform="matrix(.1,0,0,-.1,-475,675)" d="M 755 6085 L 1345 6085 L 1345 6675 L 755 6675 Z "/>
</clipPath>
<g clip-path="url(#cp1)">
<symbol id="font_2_2">
<path d="M .24200003 .72800007 C .29200004 .728 .33266668 .7163334 .364 .693 C .396 .6703334 .4206667 .64100006 .43800003 .605 C .456 .5696667 .46800003 .5306667 .47400005 .48800005 C .48066674 .44533337 .48400007 .40400005 .48400004 .36400003 C .48400007 .32400004 .48066674 .28266669 .47400005 .24000001 C .46800003 .19733334 .456 .158 .43800003 .122 C .4206667 .08666667 .396 .05733334 .364 .034 C .33266668 .011333334 .29200004 .0000000009313226 .24200003 .0000000009313226 C .19200002 .0000000009313226 .15100001 .011333334 .119 .034 C .08766667 .05733334 .063 .08666667 .044999999 .122 C .027666668 .158 .015666668 .19733334 .009 .24000001 C .0029999999 .28266669 0 .32400004 0 .36400003 C 0 .40400005 .0029999999 .44533337 .009 .48800005 C .015666668 .5306667 .027666668 .5696667 .044999999 .605 C .063 .64100006 .08766667 .6703334 .119 .693 C .15100001 .7163334 .19200002 .728 .24200003 .72800007 M .24200003 .095 C .26666669 .095 .28733335 .102 .304 .116000007 C .32066668 .13066668 .33366666 .15000002 .343 .17400001 C .35300002 .19866668 .36 .22733335 .364 .26000003 C .368 .29266668 .37 .32733337 .37 .36400003 C .37 .4006667 .368 .43500004 .364 .467 C .36 .4996667 .35300002 .52833339 .343 .55300006 C .33366666 .5776667 .32066668 .59700009 .304 .611 C .28733335 .6256667 .26666669 .633 .24200003 .633 C .21666669 .633 .19566667 .6256667 .179 .611 C .163 .59700009 .15000002 .5776667 .14000002 .55300006 C .13066668 .52833339 .124000009 .4996667 .120000008 .467 C .116000007 .43500004 .114 .4006667 .11400001 .36400003 C .114 .32733337 .116000007 .29266668 .120000008 .26000003 C .124000009 .22733335 .13066668 .19866668 .14000002 .17400001 C .15000002 .15000002 .163 .13066668 .179 .116000007 C .19566667 .102 .21666669 .095 .24200003 .095 Z "/>
</symbol>
<use xlink:href="#font_2_2" transform="matrix(22,0,0,-22,-375.208,45.308)"/>
</g>
<clipPath id="cp3">
<path transform="matrix(.1,0,0,-.1,-475,675)" d="M 1355 6085 L 1945 6085 L 1945 6675 L 1355 6675 Z "/>
</clipPath>
<g clip-path="url(#cp3)">
<symbol id="font_2_3">
<path d="M 0 .58400008 C .023999999 .58400008 .04733333 .586 .07 .59000006 C .09266666 .59400007 .113000009 .6006667 .13100001 .61 C .14966668 .6193333 .16533335 .63133338 .178 .646 C .19133334 .6606667 .2 .6786668 .204 .70000007 L .29700003 .70000007 L .29700003 0 L .172 0 L .172 .49400003 L 0 .49400003 L 0 .58400008 Z "/>
</symbol>
<use xlink:href="#font_2_3" transform="matrix(22,0,0,-22,-320.834,45)"/>
<use xlink:href="#font_2_2" transform="matrix(22,0,0,-22,-308.976,45.308)"/>
</g>
<clipPath id="cp4">
<path transform="matrix(.1,0,0,-.1,-475,675)" d="M 1955 6085 L 2545 6085 L 2545 6675 L 1955 6675 Z "/>
</clipPath>
<g clip-path="url(#cp4)">
<symbol id="font_2_b">
<path d="M .127 .191 C .12966667 .16233333 .13966668 .139 .157 .12100001 C .17500001 .10366666 .199 .095 .229 .095 C .25966669 .095 .284 .10300001 .30200003 .119 C .32066668 .13566667 .335 .156 .345 .18 C .35500003 .20466668 .36166669 .23066668 .365 .25800003 C .36900006 .286 .372 .3116667 .374 .335 L .372 .337 C .35666669 .30966667 .33566667 .2886667 .30900003 .27400003 C .28233335 .26000003 .253 .25300003 .22100002 .25300003 C .18766667 .25300003 .15733333 .25866667 .13 .27 C .10333333 .28133334 .08033334 .29700003 .061000006 .317 C .041666669 .33766667 .026666666 .36233334 .015999999 .391 C .005333333 .42033337 0 .45300005 0 .48900003 C 0 .523 .005333333 .5543334 .015999999 .583 C .026666666 .61233338 .042333336 .6376667 .063 .65900006 C .083666678 .68100008 .109000008 .698 .139 .71000006 C .16900002 .72200009 .20300001 .728 .241 .72800007 C .29033334 .728 .331 .7183334 .363 .69900009 C .395 .6803334 .42 .65433338 .43800003 .62100008 C .45666669 .58833339 .4696667 .5496667 .47700004 .50500008 C .48433338 .46033336 .488 .41266669 .488 .36200003 C .488 .32000003 .48333336 .2776667 .474 .23500002 C .46533335 .19233334 .45066668 .15333334 .43 .118 C .40933336 .083333339 .382 .055000005 .34800003 .033000005 C .31466667 .011000003 .27333335 .0000000009313226 .224 .0000000009313226 C .19600003 .0000000009313226 .1696667 .004666668 .14500001 .014000001 C .12033334 .023333334 .09833334 .036333335 .079 .053000004 C .06033333 .06966667 .044999999 .089666668 .033 .113000009 C .021 .13633333 .014333334 .16233333 .013 .191 L .127 .191 M .236 .633 C .21533335 .633 .19733334 .629 .18200001 .62100008 C .16666667 .6136667 .154 .60333338 .144 .59000006 C .134 .5766667 .12633334 .56133338 .121 .544 C .116333339 .5266667 .114 .5086667 .114 .49 C .114 .47066669 .116333339 .45200003 .121 .43400003 C .12633334 .41666667 .134 .40133334 .144 .388 C .154 .3746667 .16666667 .36366669 .18200001 .35500003 C .19733334 .34700004 .21533335 .34300003 .236 .34300003 C .25733335 .34300003 .276 .34700004 .292 .35500003 C .308 .363 .321 .37366668 .331 .38700003 C .34166668 .40100003 .34966669 .41666667 .35500003 .43400003 C .36033336 .45200003 .363 .47066669 .363 .49 C .363 .5086667 .36033336 .5266667 .35500003 .544 C .34966669 .56133338 .34166668 .57633337 .331 .58900007 C .321 .60233339 .308 .61300006 .292 .62100008 C .276 .629 .25733335 .633 .236 .633 Z "/>
</symbol>
<use xlink:href="#font_2_b" transform="matrix(22,0,0,-22,-255.252,45.308)"/>
</g>
<clipPath id="cp5">
<path transform="matrix(.1,0,0,-.1,-475,675)" d="M 2555 6085 L 3145 6085 L 3145 6675 L 2555 6675 Z "/>
</clipPath>
<g clip-path="url(#cp5)">
<symbol id="font_2_5">
<path d="M .19700001 .42400003 C .21566667 .42333333 .23433335 .42466668 .25300003 .42800004 C .27166669 .4313334 .28833337 .43700005 .30300004 .44500003 C .31766669 .4536667 .32933335 .46533338 .33800004 .48000003 C .34733335 .4946667 .35200004 .5126667 .35200004 .53400006 C .35200004 .564 .3416667 .588 .32100005 .606 C .30100004 .624 .27500005 .633 .24300002 .633 C .223 .633 .20566668 .629 .19100002 .62100008 C .17633336 .61300006 .16399999 .602 .154 .588 C .14466667 .5746667 .13766666 .5593333 .133 .542 C .12833333 .52533337 .12633334 .508 .127 .49 L .013000002 .49 C .014333335 .524 .020666669 .5553334 .031999999 .58400008 C .043333334 .6133334 .058666666 .6386667 .078 .66 C .09800001 .68133339 .12200001 .698 .15 .71000006 C .17800002 .72200009 .20966667 .728 .24500002 .72800007 C .27233336 .728 .29900003 .72400006 .32500003 .716 C .3516667 .708 .3753334 .6963334 .39600004 .68100008 C .41733337 .66566678 .43433336 .6460001 .44700004 .62200006 C .4596667 .59866669 .466 .57166668 .46600003 .541 C .466 .5056667 .45800004 .47466669 .44200004 .448 C .42600004 .42200003 .40100003 .403 .36700005 .391 L .36700005 .38900004 C .40700007 .381 .43800006 .36100004 .46000005 .32900004 C .48266674 .29766668 .49400006 .25933335 .49400006 .214 C .49400006 .18066667 .4873334 .15066667 .474 .124000009 C .4606667 .098 .44266669 .075666669 .42000006 .057000005 C .39733339 .039 .37100006 .025 .34100003 .0150000019 C .31100003 .0050000015 .27933336 .0000000009313226 .246 .0000000009313226 C .20533334 .0000000009313226 .16966667 .0056666678 .139 .017 C .109 .029000005 .08366666 .04566667 .063 .067 C .043 .08833333 .027666666 .114 .016999999 .14400001 C .006333333 .17400001 .0006666668 .20733334 0 .244 L .11400001 .244 C .11266667 .20133335 .123 .16566669 .14500001 .13700001 C .16766668 .109000008 .20133335 .095 .246 .095 C .284 .095 .3156667 .10566667 .34100003 .127 C .367 .149 .38000003 .18 .38000003 .22000002 C .38000003 .24733335 .3746667 .26900003 .36400003 .28500004 C .35333336 .30100004 .3393334 .313 .32200004 .321 C .3046667 .3296667 .28500004 .33500005 .263 .337 C .24166668 .339 .21966668 .3396667 .19700001 .33900003 L .19700001 .42400003 Z "/>
</symbol>
<use xlink:href="#font_2_5" transform="matrix(22,0,0,-22,-195.318,45.308)"/>
</g>
<clipPath id="cp6">
<path transform="matrix(.1,0,0,-.1,-475,675)" d="M 3155 6085 L 3745 6085 L 3745 6675 L 3155 6675 Z "/>
</clipPath>
<g clip-path="url(#cp6)">
<symbol id="font_2_6">
<path d="M .088 .256 L .3 .256 L .3 .564 L .29800005 .564 L .088 .256 M .49800004 .16600001 L .40800003 .16600001 L .40800003 0 L .3 0 L .3 .16600001 L 0 .16600001 L 0 .279 L .3 .70000007 L .40800003 .70000007 L .40800003 .256 L .49800004 .256 L .49800004 .16600001 Z "/>
</symbol>
<use xlink:href="#font_2_6" transform="matrix(22,0,0,-22,-135.472,45)"/>
</g>
<clipPath id="cp7">
<path transform="matrix(.1,0,0,-.1,-475,675)" d="M 755 5485 L 1345 5485 L 1345 6075 L 755 6075 Z "/>
</clipPath>
<g clip-path="url(#cp7)">
<use xlink:href="#font_2_6" transform="matrix(22,0,0,-22,-375.472,105)"/>
</g>
<clipPath id="cp8">
<path transform="matrix(.1,0,0,-.1,-475,675)" d="M 1355 5485 L 1945 5485 L 1945 6075 L 1355 6075 Z "/>
</clipPath>
<g clip-path="url(#cp8)">
<use xlink:href="#font_2_5" transform="matrix(22,0,0,-22,-315.318,105.308)"/>
</g>
<clipPath id="cp9">
<path transform="matrix(.1,0,0,-.1,-475,675)" d="M 1955 5485 L 2545 5485 L 2545 6075 L 1955 6075 Z "/>
</clipPath>
<g clip-path="url(#cp9)">
<symbol id="font_2_4">
<path d="M .47800002 0 L 0 0 C .000666668 .058000003 .014666668 .10866668 .042 .15200001 C .06933334 .19533335 .10666666 .233 .154 .26500003 C .17666668 .28166668 .20033334 .2976667 .225 .31300003 C .24966669 .32900004 .27233336 .34600006 .293 .36400003 C .31366668 .38200007 .33066667 .40133337 .344 .42200003 C .35733334 .44333337 .36433337 .46766673 .365 .49500004 C .365 .50766667 .36333335 .52099999 .36 .535 C .35733334 .5496667 .3516667 .563 .34300003 .57500007 C .33433334 .5876667 .32233335 .59800007 .307 .606 C .29166667 .6146667 .27166669 .619 .24700001 .619 C .22433333 .619 .20533334 .61433336 .19000001 .605 C .17533334 .5963333 .16333334 .58400008 .154 .568 C .14533334 .55266669 .13866668 .53433337 .134 .513 C .13000001 .4916667 .12766667 .4686667 .127 .44400005 L .013 .44400005 C .013 .4826667 .018000002 .5183334 .028 .551 C .03866667 .58433338 .05433334 .613 .075 .637 C .09566667 .661 .120666678 .6796667 .15 .693 C .18 .707 .21466668 .71400007 .254 .71400007 C .29666669 .71400007 .33233337 .707 .361 .693 C .38966669 .6790001 .41266669 .6613334 .43 .64000007 C .44800005 .6186667 .4606667 .5953334 .46800003 .57000008 C .47533334 .5453334 .479 .5216667 .479 .499 C .479 .47100006 .47466669 .44566668 .466 .423 C .45733334 .40033338 .44566668 .37933336 .43100003 .36 C .41633336 .34133337 .39966668 .32400004 .381 .30800004 C .36233334 .29200004 .34300003 .277 .323 .263 C .303 .24900002 .28300003 .23566668 .263 .223 C .24300002 .21033335 .22433335 .19766669 .207 .185 C .19033335 .17233335 .17566668 .15900001 .163 .14500001 C .15033335 .13166668 .14166667 .11733333 .13700001 .102000009 L .47800002 .102000009 L .47800002 0 Z "/>
</symbol>
<use xlink:href="#font_2_4" transform="matrix(22,0,0,-22,-255.142,105)"/>
</g>
<clipPath id="cp10">
<path transform="matrix(.1,0,0,-.1,-475,675)" d="M 2555 5485 L 3145 5485 L 3145 6075 L 2555 6075 Z "/>
</clipPath>
<g clip-path="url(#cp10)">
<use xlink:href="#font_2_3" transform="matrix(22,0,0,-22,-194.834,105)"/>
</g>
<clipPath id="cp11">
<path transform="matrix(.1,0,0,-.1,-475,675)" d="M 3155 5485 L 3745 5485 L 3745 6075 L 3155 6075 Z "/>
</clipPath>
<g clip-path="url(#cp11)">
<symbol id="font_2_7">
<path d="M .088 .71400007 L .45000003 .71400007 L .45000003 .61200007 L .17300001 .61200007 L .13700001 .43400003 L .13900002 .432 C .15433336 .44933335 .17366667 .46233336 .19700001 .47100003 C .22100002 .48033334 .24466668 .485 .268 .485 C .3026667 .485 .33366669 .479 .36100004 .467 C .38833336 .4556667 .41133336 .43933336 .43000005 .418 C .4486667 .39733336 .46266673 .3726667 .47200004 .344 C .48200003 .31533335 .48700003 .28433336 .48700003 .25100003 C .48700003 .223 .48233334 .194 .47300003 .164 C .4643334 .13466667 .45000006 .10766667 .43000005 .083000008 C .4106667 .059000005 .3856667 .039 .35500003 .023000002 C .32433335 .007666668 .28766669 .0000000009313226 .245 .0000000009313226 C .21100001 .0000000009313226 .17933335 .004666668 .15 .014000001 C .12133334 .022666669 .09600001 .036000004 .074 .054000006 C .052000006 .072000008 .034333338 .094000007 .021000002 .120000008 C .008333334 .14666668 .0013333336 .17766668 0 .21300002 L .11400001 .21300002 C .11733335 .17500001 .13033335 .14566668 .15300001 .12500002 C .17566669 .105 .2056667 .095 .24300003 .095 C .26700003 .095 .28733335 .099 .30400003 .107 C .3206667 .115 .33400003 .126 .344 .14 C .35466669 .154 .36200003 .17033334 .36600004 .18900001 C .3706667 .20766668 .37300004 .22766668 .37300004 .24900002 C .37300004 .26833336 .37033335 .28666667 .365 .30400003 C .35966669 .322 .3516667 .33766667 .34100003 .351 C .33033336 .36433337 .31633336 .375 .29900003 .38300003 C .28233335 .39100004 .26266668 .395 .24000001 .395 C .216 .395 .19333335 .39033333 .17200002 .381 C .15133335 .37233333 .13633335 .35566668 .127 .331 L .013 .331 L .088 .71400007 Z "/>
</symbol>
<use xlink:href="#font_2_7" transform="matrix(22,0,0,-22,-135.23,105.308)"/>
</g>
<clipPath id="cp12">
<path transform="matrix(.1,0,0,-.1,-475,675)" d="M 755 4885 L 1345 4885 L 1345 5475 L 755 5475 Z "/>
</clipPath>
<g clip-path="url(#cp12)">
<use xlink:href="#font_2_3" transform="matrix(22,0,0,-22,-380.834,165)"/>
<use xlink:href="#font_2_2" transform="matrix(22,0,0,-22,-368.976,165.308)"/>
</g>
<clipPath id="cp13">
<path transform="matrix(.1,0,0,-.1,-475,675)" d="M 1355 4885 L 1945 4885 L 1945 5475 L 1355 5475 Z "/>
</clipPath>
<g clip-path="url(#cp13)">
<use xlink:href="#font_2_4" transform="matrix(22,0,0,-22,-315.142,165)"/>
</g>
<clipPath id="cp14">
<path transform="matrix(.1,0,0,-.1,-475,675)" d="M 1955 4885 L 2545 4885 L 2545 5475 L 1955 5475 Z "/>
</clipPath>
<g clip-path="url(#cp14)">
<use xlink:href="#font_2_3" transform="matrix(22,0,0,-22,-260.834,165)"/>
<use xlink:href="#font_2_2" transform="matrix(22,0,0,-22,-248.976,165.308)"/>
</g>
<clipPath id="cp15">
<path transform="matrix(.1,0,0,-.1,-475,675)" d="M 2555 4885 L 3145 4885 L 3145 5475 L 2555 5475 Z "/>
</clipPath>
<g clip-path="url(#cp15)">
<use xlink:href="#font_2_5" transform="matrix(22,0,0,-22,-195.318,165.308)"/>
</g>
<clipPath id="cp16">
<path transform="matrix(.1,0,0,-.1,-475,675)" d="M 3155 4885 L 3745 4885 L 3745 5475 L 3155 5475 Z "/>
</clipPath>
<g clip-path="url(#cp16)">
<use xlink:href="#font_2_2" transform="matrix(22,0,0,-22,-135.208,165.308)"/>
</g>
<clipPath id="cp17">
<path transform="matrix(.1,0,0,-.1,-475,675)" d="M 755 4285 L 1345 4285 L 1345 4875 L 755 4875 Z "/>
</clipPath>
<g clip-path="url(#cp17)">
<use xlink:href="#font_2_5" transform="matrix(22,0,0,-22,-375.318,225.308)"/>
</g>
<clipPath id="cp18">
<path transform="matrix(.1,0,0,-.1,-475,675)" d="M 1355 4285 L 1945 4285 L 1945 4875 L 1355 4875 Z "/>
</clipPath>
<g clip-path="url(#cp18)">
<symbol id="font_2_1">
<path d="M 0 .107999999 L .291 .107999999 L .291 0 L 0 0 L 0 .107999999 Z "/>
</symbol>
<use xlink:href="#font_2_1" transform="matrix(22,0,0,-22,-318.922,220.204)"/>
<use xlink:href="#font_2_3" transform="matrix(22,0,0,-22,-310.27604,225)"/>
</g>
<clipPath id="cp19">
<path transform="matrix(.1,0,0,-.1,-475,675)" d="M 1955 4285 L 2545 4285 L 2545 4875 L 1955 4875 Z "/>
</clipPath>
<g clip-path="url(#cp19)">
<use xlink:href="#font_2_1" transform="matrix(22,0,0,-22,-258.922,220.204)"/>
<use xlink:href="#font_2_5" transform="matrix(22,0,0,-22,-250.76,225.308)"/>
</g>
<clipPath id="cp20">
<path transform="matrix(.1,0,0,-.1,-475,675)" d="M 2555 4285 L 3145 4285 L 3145 4875 L 2555 4875 Z "/>
</clipPath>
<g clip-path="url(#cp20)">
<use xlink:href="#font_2_1" transform="matrix(22,0,0,-22,-198.922,220.204)"/>
<use xlink:href="#font_2_5" transform="matrix(22,0,0,-22,-190.75998,225.308)"/>
</g>
<clipPath id="cp21">
<path transform="matrix(.1,0,0,-.1,-475,675)" d="M 3155 4285 L 3745 4285 L 3745 4875 L 3155 4875 Z "/>
</clipPath>
<g clip-path="url(#cp21)">
<use xlink:href="#font_2_1" transform="matrix(22,0,0,-22,-138.922,220.204)"/>
<use xlink:href="#font_2_6" transform="matrix(22,0,0,-22,-130.91399,225)"/>
</g>
<clipPath id="cp22">
<path transform="matrix(.1,0,0,-.1,-475,675)" d="M 755 3685 L 1345 3685 L 1345 4275 L 755 4275 Z "/>
</clipPath>
<g clip-path="url(#cp22)">
<use xlink:href="#font_2_1" transform="matrix(22,0,0,-22,-378.922,280.204)"/>
<use xlink:href="#font_2_6" transform="matrix(22,0,0,-22,-370.914,285)"/>
</g>
<clipPath id="cp23">
<path transform="matrix(.1,0,0,-.1,-475,675)" d="M 1355 3685 L 1945 3685 L 1945 4275 L 1355 4275 Z "/>
</clipPath>
<g clip-path="url(#cp23)">
<use xlink:href="#font_2_1" transform="matrix(22,0,0,-22,-325.922,280.204)"/>
<use xlink:href="#font_2_3" transform="matrix(22,0,0,-22,-317.27604,285)"/>
<use xlink:href="#font_2_2" transform="matrix(22,0,0,-22,-305.41804,285.308)"/>
</g>
<clipPath id="cp24">
<path transform="matrix(.1,0,0,-.1,-475,675)" d="M 1955 3685 L 2545 3685 L 2545 4275 L 1955 4275 Z "/>
</clipPath>
<g clip-path="url(#cp24)">
<symbol id="font_2_a">
<path d="M .24700003 .638 C .21633335 .638 .19033332 .6286667 .169 .61 C .14766668 .592 .13700001 .5656667 .13700001 .531 C .13700001 .4976667 .14733334 .472 .16800002 .45400004 C .18866666 .4366667 .21500002 .42800007 .24700003 .42800004 C .279 .42800007 .30533336 .4366667 .32600004 .45400004 C .3466667 .472 .35700003 .4976667 .35700003 .531 C .35700003 .5656667 .34633336 .592 .32500003 .61 C .30366669 .6286667 .2776667 .638 .24700003 .638 M .24700003 .0000000009313226 C .21166669 .0000000009313226 .17866667 .0050000015 .148 .0150000019 C .118 .025 .092 .039333337 .07 .058000007 C .047999998 .07733334 .030666667 .10066667 .018000002 .128 C .0060000007 .15533334 0 .186 0 .22000002 C 0 .26400004 .011333334 .301 .034 .331 C .05733333 .36100004 .08866667 .381 .128 .391 L .128 .393 C .09600001 .405 .07133334 .42333333 .053999999 .448 C .037333337 .47333337 .029000001 .503 .029000001 .537 C .029000001 .59700009 .04766667 .6436667 .085 .67700007 C .123 .711 .177 .728 .24700003 .72800007 C .31700004 .728 .3706667 .711 .40800003 .67700007 C .446 .6436667 .46500004 .59700009 .46500004 .537 C .46500004 .503 .45633338 .47333337 .43900005 .448 C .42233337 .42333333 .39800004 .405 .36600004 .393 L .36600004 .391 C .40533338 .381 .4363334 .36100004 .45900003 .331 C .4823334 .301 .49400006 .26400004 .49400006 .22000002 C .49400006 .186 .48766674 .15533334 .47500006 .128 C .46300007 .10066667 .446 .07733334 .42400003 .058000007 C .40200005 .039333337 .3756667 .025 .34500004 .0150000019 C .31500004 .0050000015 .28233338 .0000000009313226 .24700003 .0000000009313226 M .24700003 .09 C .28500004 .09 .3166667 .10133334 .34200005 .124000009 C .36733339 .14666668 .38000003 .17866667 .38000003 .22000002 C .38000003 .25866667 .36733339 .28866668 .34200005 .31 C .3166667 .33200003 .28500004 .34300003 .24700003 .34300003 C .209 .34300003 .17733336 .33200003 .15200001 .31 C .12666668 .28866668 .114 .25866667 .11400001 .22000002 C .114 .17866667 .12666668 .14666668 .15200001 .124000009 C .17733336 .10133334 .209 .09 .24700003 .09 Z "/>
</symbol>
<use xlink:href="#font_2_1" transform="matrix(22,0,0,-22,-258.922,280.204)"/>
<use xlink:href="#font_2_a" transform="matrix(22,0,0,-22,-250.76,285.308)"/>
</g>
<clipPath id="cp25">
<path transform="matrix(.1,0,0,-.1,-475,675)" d="M 2555 3685 L 3145 3685 L 3145 4275 L 2555 4275 Z "/>
</clipPath>
<g clip-path="url(#cp25)">
<use xlink:href="#font_2_1" transform="matrix(22,0,0,-22,-198.922,280.204)"/>
<use xlink:href="#font_2_3" transform="matrix(22,0,0,-22,-190.27599,285)"/>
</g>
<clipPath id="cp26">
<path transform="matrix(.1,0,0,-.1,-475,675)" d="M 3155 3685 L 3745 3685 L 3745 4275 L 3155 4275 Z "/>
</clipPath>
<g clip-path="url(#cp26)">
<use xlink:href="#font_2_1" transform="matrix(22,0,0,-22,-138.922,280.204)"/>
<use xlink:href="#font_2_4" transform="matrix(22,0,0,-22,-130.58399,285)"/>
</g>
<clipPath id="cp27">
<path transform="matrix(.1,0,0,-.1,-475,675)" d="M 1945 3675 L 1955 3675 L 1955 6685 L 1945 6685 Z "/>
</clipPath>
<g clip-path="url(#cp27)">
<path transform="matrix(.1,0,0,-.1,-475,675)" stroke-width="10" stroke-linecap="butt" stroke-dasharray="20,20" stroke-miterlimit="4" stroke-linejoin="miter" fill="none" stroke="#5d5d5d" d="M 1950 6685 L 1950 3675 "/>
</g>
<clipPath id="cp28">
<path transform="matrix(.1,0,0,-.1,-475,675)" d="M 2545 3675 L 2555 3675 L 2555 6685 L 2545 6685 Z "/>
</clipPath>
<g clip-path="url(#cp28)">
<path transform="matrix(.1,0,0,-.1,-475,675)" stroke-width="10" stroke-linecap="butt" stroke-dasharray="20,20" stroke-miterlimit="4" stroke-linejoin="miter" fill="none" stroke="#5d5d5d" d="M 2550 6685 L 2550 3675 "/>
</g>
<clipPath id="cp29">
<path transform="matrix(.1,0,0,-.1,-475,675)" d="M 3145 3675 L 3155 3675 L 3155 6685 L 3145 6685 Z "/>
</clipPath>
<g clip-path="url(#cp29)">
<path transform="matrix(.1,0,0,-.1,-475,675)" stroke-width="10" stroke-linecap="butt" stroke-dasharray="20,20" stroke-miterlimit="4" stroke-linejoin="miter" fill="none" stroke="#5d5d5d" d="M 3150 6685 L 3150 3675 "/>
</g>
<clipPath id="cp30">
<path transform="matrix(.1,0,0,-.1,-475,675)" d="M 745 5475 L 3755 5475 L 3755 5485 L 745 5485 Z "/>
</clipPath>
<g clip-path="url(#cp30)">
<path transform="matrix(.1,0,0,-.1,-475,675)" stroke-width="10" stroke-linecap="butt" stroke-dasharray="20,20" stroke-miterlimit="4" stroke-linejoin="miter" fill="none" stroke="#5d5d5d" d="M 745 5480 L 3755 5480 "/>
</g>
<clipPath id="cp31">
<path transform="matrix(.1,0,0,-.1,-475,675)" d="M 745 4875 L 3755 4875 L 3755 4885 L 745 4885 Z "/>
</clipPath>
<g clip-path="url(#cp31)">
<path transform="matrix(.1,0,0,-.1,-475,675)" stroke-width="10" stroke-linecap="butt" stroke-dasharray="20,20" stroke-miterlimit="4" stroke-linejoin="miter" fill="none" stroke="#5d5d5d" d="M 745 4880 L 3755 4880 "/>
</g>
<clipPath id="cp32">
<path transform="matrix(.1,0,0,-.1,-475,675)" d="M 745 4275 L 3755 4275 L 3755 4285 L 745 4285 Z "/>
</clipPath>
<g clip-path="url(#cp32)">
<path transform="matrix(.1,0,0,-.1,-475,675)" stroke-width="10" stroke-linecap="butt" stroke-dasharray="20,20" stroke-miterlimit="4" stroke-linejoin="miter" fill="none" stroke="#5d5d5d" d="M 745 4280 L 3755 4280 "/>
</g>
<clipPath id="cp33">
<path transform="matrix(.1,0,0,-.1,-475,675)" d="M 1345 3675 L 1355 3675 L 1355 6685 L 1345 6685 Z "/>
</clipPath>
<g clip-path="url(#cp33)">
<path transform="matrix(.1,0,0,-.1,-475,675)" stroke-width="10" stroke-linecap="butt" stroke-dasharray="20,20" stroke-miterlimit="4" stroke-linejoin="miter" fill="none" stroke="#5d5d5d" d="M 1350 6685 L 1350 3675 "/>
</g>
<clipPath id="cp34">
<path transform="matrix(.1,0,0,-.1,-475,675)" d="M 745 6075 L 3755 6075 L 3755 6085 L 745 6085 Z "/>
</clipPath>
<g clip-path="url(#cp34)">
<path transform="matrix(.1,0,0,-.1,-475,675)" stroke-width="10" stroke-linecap="butt" stroke-dasharray="20,20" stroke-miterlimit="4" stroke-linejoin="miter" fill="none" stroke="#5d5d5d" d="M 745 6080 L 3755 6080 "/>
</g>
<clipPath id="cp35">
<path transform="matrix(.1,0,0,-.1,-475,675)" d="M 745 3675 L 755 3675 L 755 6685 L 745 6685 Z "/>
</clipPath>
<g clip-path="url(#cp35)">
<path transform="matrix(.1,0,0,-.1,-475,675)" stroke-width="10" stroke-linecap="butt" stroke-dasharray="20,20" stroke-miterlimit="4" stroke-linejoin="miter" fill="none" stroke="#5e5e5e" d="M 750 6685 L 750 3675 "/>
</g>
<clipPath id="cp36">
<path transform="matrix(.1,0,0,-.1,-475,675)" d="M 3745 3675 L 3755 3675 L 3755 6685 L 3745 6685 Z "/>
</clipPath>
<g clip-path="url(#cp36)">
<path transform="matrix(.1,0,0,-.1,-475,675)" stroke-width="10" stroke-linecap="butt" stroke-dasharray="20,20" stroke-miterlimit="4" stroke-linejoin="miter" fill="none" stroke="#5e5e5e" d="M 3750 6685 L 3750 3675 "/>
</g>
<clipPath id="cp37">
<path transform="matrix(.1,0,0,-.1,-475,675)" d="M 745 6675 L 3755 6675 L 3755 6685 L 745 6685 Z "/>
</clipPath>
<g clip-path="url(#cp37)">
<path transform="matrix(.1,0,0,-.1,-475,675)" stroke-width="10" stroke-linecap="butt" stroke-dasharray="20,20" stroke-miterlimit="4" stroke-linejoin="miter" fill="none" stroke="#5e5e5e" d="M 745 6680 L 3755 6680 "/>
</g>
<clipPath id="cp38">
<path transform="matrix(.1,0,0,-.1,-475,675)" d="M 745 3675 L 3755 3675 L 3755 3685 L 745 3685 Z "/>
</clipPath>
<g clip-path="url(#cp38)">
<path transform="matrix(.1,0,0,-.1,-475,675)" stroke-width="10" stroke-linecap="butt" stroke-dasharray="20,20" stroke-miterlimit="4" stroke-linejoin="miter" fill="none" stroke="#5e5e5e" d="M 745 3680 L 3755 3680 "/>
</g>
<clipPath id="cp39">
<path transform="matrix(.1,0,0,-.1,-475,675)" d="M 4825 3675 L 7835 3675 L 7835 6685 L 4825 6685 Z "/>
</clipPath>
<g clip-path="url(#cp39)">
<path transform="matrix(.1,0,0,-.1,-475,675)" d="M 4830 6080 L 5430 6080 L 5430 6680 L 4830 6680 Z " fill="#d6d5d5"/>
<path transform="matrix(.1,0,0,-.1,-475,675)" d="M 5430 6080 L 6030 6080 L 6030 6680 L 5430 6680 Z " fill="#d6d5d5"/>
<path transform="matrix(.1,0,0,-.1,-475,675)" d="M 6030 6080 L 6630 6080 L 6630 6680 L 6030 6680 Z " fill="#d6d5d5"/>
<path transform="matrix(.1,0,0,-.1,-475,675)" d="M 6630 6080 L 7230 6080 L 7230 6680 L 6630 6680 Z " fill="#d6d5d5"/>
<path transform="matrix(.1,0,0,-.1,-475,675)" d="M 7230 6080 L 7830 6080 L 7830 6680 L 7230 6680 Z " fill="#d6d5d5"/>
<path transform="matrix(.1,0,0,-.1,-475,675)" d="M 4830 5480 L 5430 5480 L 5430 6080 L 4830 6080 Z " fill="#d6d5d5"/>
<path transform="matrix(.1,0,0,-.1,-475,675)" d="M 5430 5480 L 6030 5480 L 6030 6080 L 5430 6080 Z " fill="#0076ba"/>
<path transform="matrix(.1,0,0,-.1,-475,675)" d="M 6030 5480 L 6630 5480 L 6630 6080 L 6030 6080 Z " fill="#0076ba"/>
<path transform="matrix(.1,0,0,-.1,-475,675)" d="M 6630 5480 L 7230 5480 L 7230 6080 L 6630 6080 Z " fill="#0076ba"/>
<path transform="matrix(.1,0,0,-.1,-475,675)" d="M 7230 5480 L 7830 5480 L 7830 6080 L 7230 6080 Z " fill="#d6d5d5"/>
<path transform="matrix(.1,0,0,-.1,-475,675)" d="M 4830 4880 L 5430 4880 L 5430 5480 L 4830 5480 Z " fill="#d6d5d5"/>
<path transform="matrix(.1,0,0,-.1,-475,675)" d="M 5430 4880 L 6030 4880 L 6030 5480 L 5430 5480 Z " fill="#0076ba"/>
<path transform="matrix(.1,0,0,-.1,-475,675)" d="M 6030 4880 L 6630 4880 L 6630 5480 L 6030 5480 Z " fill="#0076ba"/>
<path transform="matrix(.1,0,0,-.1,-475,675)" d="M 6630 4880 L 7230 4880 L 7230 5480 L 6630 5480 Z " fill="#0076ba"/>
<path transform="matrix(.1,0,0,-.1,-475,675)" d="M 7230 4880 L 7830 4880 L 7830 5480 L 7230 5480 Z " fill="#d6d5d5"/>
<path transform="matrix(.1,0,0,-.1,-475,675)" d="M 4830 4280 L 5430 4280 L 5430 4880 L 4830 4880 Z " fill="#d6d5d5"/>
<path transform="matrix(.1,0,0,-.1,-475,675)" d="M 5430 4280 L 6030 4280 L 6030 4880 L 5430 4880 Z " fill="#0076ba"/>
<path transform="matrix(.1,0,0,-.1,-475,675)" d="M 6030 4280 L 6630 4280 L 6630 4880 L 6030 4880 Z " fill="#0076ba"/>
<path transform="matrix(.1,0,0,-.1,-475,675)" d="M 6630 4280 L 7230 4280 L 7230 4880 L 6630 4880 Z " fill="#0076ba"/>
<path transform="matrix(.1,0,0,-.1,-475,675)" d="M 7230 4280 L 7830 4280 L 7830 4880 L 7230 4880 Z " fill="#d6d5d5"/>
<path transform="matrix(.1,0,0,-.1,-475,675)" d="M 4830 3680 L 5430 3680 L 5430 4280 L 4830 4280 Z " fill="#d6d5d5"/>
<path transform="matrix(.1,0,0,-.1,-475,675)" d="M 5430 3680 L 6030 3680 L 6030 4280 L 5430 4280 Z " fill="#d6d5d5"/>
<path transform="matrix(.1,0,0,-.1,-475,675)" d="M 6030 3680 L 6630 3680 L 6630 4280 L 6030 4280 Z " fill="#d6d5d5"/>
<path transform="matrix(.1,0,0,-.1,-475,675)" d="M 6630 3680 L 7230 3680 L 7230 4280 L 6630 4280 Z " fill="#d6d5d5"/>
<path transform="matrix(.1,0,0,-.1,-475,675)" d="M 7230 3680 L 7830 3680 L 7830 4280 L 7230 4280 Z " fill="#d6d5d5"/>
</g>
<clipPath id="cp40">
<path transform="matrix(.1,0,0,-.1,-475,675)" d="M 5435 5485 L 6025 5485 L 6025 6075 L 5435 6075 Z "/>
</clipPath>
<g clip-path="url(#cp40)">
<symbol id="font_2_8">
<path d="M .361 .537 C .35833336 .5656667 .34800003 .5886667 .33 .606 C .31266669 .624 .289 .633 .259 .633 C .23833335 .633 .22033334 .629 .20500002 .62100008 C .19033332 .6136667 .17766667 .6036667 .167 .591 C .157 .5783334 .14866668 .5636667 .14200002 .54700008 C .13600002 .531 .13100001 .514 .127 .49600003 C .123 .47800002 .120000008 .46000005 .11800001 .44200004 C .116666678 .42466668 .11533334 .40833334 .114 .393 L .116000007 .391 C .13133334 .41900004 .15233334 .43966667 .17900002 .453 C .20633334 .467 .23566668 .474 .26700003 .474 C .30166669 .474 .33266668 .46800003 .36 .45600004 C .38733337 .444 .41033338 .42733336 .42900003 .40600003 C .44833336 .3853334 .46300004 .36066667 .47300003 .33200003 C .483 .30333335 .488 .27233336 .488 .23900001 C .488 .205 .48233334 .17333335 .471 .14400001 C .46033336 .11533334 .4446667 .09 .42400003 .068 C .40333335 .04666667 .37866668 .030000002 .35 .018000002 C .32133333 .006000001 .28966669 .0000000009313226 .255 .0000000009313226 C .20366667 .0000000009313226 .16133334 .009333334 .12799999 .028 C .09533334 .047333335 .06933334 .07333334 .050000006 .106000009 C .031333336 .13933334 .018333333 .17800002 .011 .222 C .0036666666 .26666669 0 .31466667 0 .36600004 C 0 .40800003 .0043333338 .45033337 .013 .49300004 C .022333334 .5356667 .037333337 .57433339 .058000007 .609 C .078666668 .64433339 .10566667 .67300006 .139 .69500008 C .173 .717 .21466667 .728 .264 .72800007 C .292 .728 .31833334 .72333338 .343 .71400007 C .3676667 .7046667 .38933338 .69166669 .40800003 .675 C .42733336 .65833339 .443 .6383334 .455 .615 C .467 .5916667 .47366668 .5656667 .475 .537 L .361 .537 M .25100003 .095 C .27166669 .095 .28966669 .099 .305 .107 C .32033334 .115666668 .333 .12666667 .343 .14 C .35366667 .15333335 .36133335 .16866668 .366 .186 C .37133337 .20400001 .37399999 .22233336 .374 .24100001 C .37399999 .25966669 .37133337 .2776667 .366 .29500003 C .36133335 .31233336 .35366667 .32733334 .343 .34 C .333 .35333336 .32033334 .364 .305 .372 C .28966669 .38 .27166669 .38399998 .25100003 .384 C .23033333 .38399998 .21200001 .38 .19600001 .372 C .18066669 .36466668 .16766668 .3543333 .157 .34100003 C .14633334 .32833336 .13833334 .31333337 .13300002 .296 C .12766667 .27866668 .125 .26033334 .125 .24100001 C .125 .22166668 .12766667 .20333334 .13300002 .186 C .13833334 .16866668 .14633334 .15300001 .157 .139 C .16766668 .12566667 .18066669 .115 .19600001 .107 C .21200001 .099 .23033333 .095 .25100003 .095 Z "/>
</symbol>
<use xlink:href="#font_2_8" transform="matrix(22,0,0,-22,92.748,105.308)" fill="#ffffff"/>
</g>
<clipPath id="cp41">
<path transform="matrix(.1,0,0,-.1,-475,675)" d="M 6035 5485 L 6625 5485 L 6625 6075 L 6035 6075 Z "/>
</clipPath>
<g clip-path="url(#cp41)">
<use xlink:href="#font_2_3" transform="matrix(22,0,0,-22,147.166,105)" fill="#ffffff"/>
<use xlink:href="#font_2_7" transform="matrix(22,0,0,-22,159.002,105.308)" fill="#ffffff"/>
</g>
<clipPath id="cp42">
<path transform="matrix(.1,0,0,-.1,-475,675)" d="M 6635 5485 L 7225 5485 L 7225 6075 L 6635 6075 Z "/>
</clipPath>
<g clip-path="url(#cp42)">
<use xlink:href="#font_2_b" transform="matrix(22,0,0,-22,212.748,105.308)" fill="#ffffff"/>
</g>
<clipPath id="cp43">
<path transform="matrix(.1,0,0,-.1,-475,675)" d="M 5435 4885 L 6025 4885 L 6025 5475 L 5435 5475 Z "/>
</clipPath>
<g clip-path="url(#cp43)">
<use xlink:href="#font_2_3" transform="matrix(22,0,0,-22,87.166,165)" fill="#ffffff"/>
<use xlink:href="#font_2_6" transform="matrix(22,0,0,-22,98.759998,165)" fill="#ffffff"/>
</g>
<clipPath id="cp44">
<path transform="matrix(.1,0,0,-.1,-475,675)" d="M 6035 4885 L 6625 4885 L 6625 5475 L 6035 5475 Z "/>
</clipPath>
<g clip-path="url(#cp44)">
<use xlink:href="#font_2_1" transform="matrix(22,0,0,-22,142.078,160.204)" fill="#ffffff"/>
<use xlink:href="#font_2_5" transform="matrix(22,0,0,-22,150.23999,165.308)" fill="#ffffff"/>
<use xlink:href="#font_2_8" transform="matrix(22,0,0,-22,162.53798,165.308)" fill="#ffffff"/>
</g>
<clipPath id="cp45">
<path transform="matrix(.1,0,0,-.1,-475,675)" d="M 6635 4885 L 7225 4885 L 7225 5475 L 6635 5475 Z "/>
</clipPath>
<g clip-path="url(#cp45)">
<use xlink:href="#font_2_1" transform="matrix(22,0,0,-22,209.078,160.204)" fill="#ffffff"/>
<use xlink:href="#font_2_6" transform="matrix(22,0,0,-22,217.08599,165)" fill="#ffffff"/>
</g>
<clipPath id="cp46">
<path transform="matrix(.1,0,0,-.1,-475,675)" d="M 5435 4285 L 6025 4285 L 6025 4875 L 5435 4875 Z "/>
</clipPath>
<g clip-path="url(#cp46)">
<use xlink:href="#font_2_1" transform="matrix(22,0,0,-22,89.078,220.204)" fill="#ffffff"/>
<use xlink:href="#font_2_6" transform="matrix(22,0,0,-22,97.08598,225)" fill="#ffffff"/>
</g>
<clipPath id="cp47">
<path transform="matrix(.1,0,0,-.1,-475,675)" d="M 6035 4285 L 6625 4285 L 6625 4875 L 6035 4875 Z "/>
</clipPath>
<g clip-path="url(#cp47)">
<use xlink:href="#font_2_3" transform="matrix(22,0,0,-22,147.166,225)" fill="#ffffff"/>
<use xlink:href="#font_2_2" transform="matrix(22,0,0,-22,159.024,225.308)" fill="#ffffff"/>
</g>
<clipPath id="cp48">
<path transform="matrix(.1,0,0,-.1,-475,675)" d="M 6635 4285 L 7225 4285 L 7225 4875 L 6635 4875 Z "/>
</clipPath>
<g clip-path="url(#cp48)">
<symbol id="font_2_9">
<path d="M 0 .70000007 L .479 .70000007 L .479 .605 C .44233335 .5636667 .40900005 .52066668 .37900005 .476 C .349 .432 .32266668 .38500003 .3 .335 C .27800004 .28566668 .26000003 .23333335 .24600002 .178 C .23200004 .12266668 .2226667 .06333334 .21800003 0 L .09300001 0 C .097 .055333336 .10633334 .11000001 .12100001 .164 C .13633335 .21800001 .15566668 .27033333 .17900002 .321 C .20300001 .37166668 .23066668 .42033337 .26200003 .467 C .29333336 .5136667 .32700003 .55733337 .36300005 .59800007 L 0 .59800007 L 0 .70000007 Z "/>
</symbol>
<use xlink:href="#font_2_9" transform="matrix(22,0,0,-22,212.77,225)" fill="#ffffff"/>
</g>
<clipPath id="cp49">
<path transform="matrix(.1,0,0,-.1,-475,675)" d="M 6025 6080 L 6035 6080 L 6035 6685 L 6025 6685 Z "/>
</clipPath>
<g clip-path="url(#cp49)">
<path transform="matrix(.1,0,0,-.1,-475,675)" stroke-width="10" stroke-linecap="butt" stroke-dasharray="20,20" stroke-miterlimit="4" stroke-linejoin="miter" fill="none" stroke="#5d5d5d" d="M 6030 6685 L 6030 6080 "/>
</g>
<clipPath id="cp50">
<path transform="matrix(.1,0,0,-.1,-475,675)" d="M 6025 4280 L 6035 4280 L 6035 6080 L 6025 6080 Z "/>
</clipPath>
<g clip-path="url(#cp50)">
<path transform="matrix(.1,0,0,-.1,-475,675)" stroke-width="10" stroke-linecap="butt" stroke-dasharray="20,20" stroke-miterlimit="4" stroke-linejoin="miter" fill="none" stroke="#5d5d5d" d="M 6030 6685 L 6030 4280 "/>
</g>
<clipPath id="cp51">
<path transform="matrix(.1,0,0,-.1,-475,675)" d="M 6025 3675 L 6035 3675 L 6035 4280 L 6025 4280 Z "/>
</clipPath>
<g clip-path="url(#cp51)">
<path transform="matrix(.1,0,0,-.1,-475,675)" stroke-width="10" stroke-linecap="butt" stroke-dasharray="20,20" stroke-miterlimit="4" stroke-linejoin="miter" fill="none" stroke="#5d5d5d" d="M 6030 6685 L 6030 3675 "/>
</g>
<clipPath id="cp52">
<path transform="matrix(.1,0,0,-.1,-475,675)" d="M 6625 6080 L 6635 6080 L 6635 6685 L 6625 6685 Z "/>
</clipPath>
<g clip-path="url(#cp52)">
<path transform="matrix(.1,0,0,-.1,-475,675)" stroke-width="10" stroke-linecap="butt" stroke-dasharray="20,20" stroke-miterlimit="4" stroke-linejoin="miter" fill="none" stroke="#5d5d5d" d="M 6630 6685 L 6630 6080 "/>
</g>
<clipPath id="cp53">
<path transform="matrix(.1,0,0,-.1,-475,675)" d="M 6625 4280 L 6635 4280 L 6635 6080 L 6625 6080 Z "/>
</clipPath>
<g clip-path="url(#cp53)">
<path transform="matrix(.1,0,0,-.1,-475,675)" stroke-width="10" stroke-linecap="butt" stroke-dasharray="20,20" stroke-miterlimit="4" stroke-linejoin="miter" fill="none" stroke="#5d5d5d" d="M 6630 6685 L 6630 4280 "/>
</g>
<clipPath id="cp54">
<path transform="matrix(.1,0,0,-.1,-475,675)" d="M 6625 3675 L 6635 3675 L 6635 4280 L 6625 4280 Z "/>
</clipPath>
<g clip-path="url(#cp54)">
<path transform="matrix(.1,0,0,-.1,-475,675)" stroke-width="10" stroke-linecap="butt" stroke-dasharray="20,20" stroke-miterlimit="4" stroke-linejoin="miter" fill="none" stroke="#5d5d5d" d="M 6630 6685 L 6630 3675 "/>
</g>
<clipPath id="cp55">
<path transform="matrix(.1,0,0,-.1,-475,675)" d="M 7225 6080 L 7235 6080 L 7235 6685 L 7225 6685 Z "/>
</clipPath>
<g clip-path="url(#cp55)">
<path transform="matrix(.1,0,0,-.1,-475,675)" stroke-width="10" stroke-linecap="butt" stroke-dasharray="20,20" stroke-miterlimit="4" stroke-linejoin="miter" fill="none" stroke="#5d5d5d" d="M 7230 6685 L 7230 6080 "/>
</g>
<clipPath id="cp56">
<path transform="matrix(.1,0,0,-.1,-475,675)" d="M 7225 4280 L 7235 4280 L 7235 6080 L 7225 6080 Z "/>
</clipPath>
<g clip-path="url(#cp56)">
<path transform="matrix(.1,0,0,-.1,-475,675)" stroke-width="10" stroke-linecap="butt" stroke-dasharray="20,20" stroke-miterlimit="4" stroke-linejoin="miter" fill="none" stroke="#5e5e5e" d="M 7230 6685 L 7230 4280 "/>
</g>
<clipPath id="cp57">
<path transform="matrix(.1,0,0,-.1,-475,675)" d="M 7225 3675 L 7235 3675 L 7235 4280 L 7225 4280 Z "/>
</clipPath>
<g clip-path="url(#cp57)">
<path transform="matrix(.1,0,0,-.1,-475,675)" stroke-width="10" stroke-linecap="butt" stroke-dasharray="20,20" stroke-miterlimit="4" stroke-linejoin="miter" fill="none" stroke="#5d5d5d" d="M 7230 6685 L 7230 3675 "/>
</g>
<clipPath id="cp58">
<path transform="matrix(.1,0,0,-.1,-475,675)" d="M 4825 5475 L 5430 5475 L 5430 5485 L 4825 5485 Z "/>
</clipPath>
<g clip-path="url(#cp58)">
<path transform="matrix(.1,0,0,-.1,-475,675)" stroke-width="10" stroke-linecap="butt" stroke-dasharray="20,20" stroke-miterlimit="4" stroke-linejoin="miter" fill="none" stroke="#5d5d5d" d="M 4825 5480 L 5430 5480 "/>
</g>
<clipPath id="cp59">
<path transform="matrix(.1,0,0,-.1,-475,675)" d="M 5430 5475 L 7230 5475 L 7230 5485 L 5430 5485 Z "/>
</clipPath>
<g clip-path="url(#cp59)">
<path transform="matrix(.1,0,0,-.1,-475,675)" stroke-width="10" stroke-linecap="butt" stroke-dasharray="20,20" stroke-miterlimit="4" stroke-linejoin="miter" fill="none" stroke="#5d5d5d" d="M 4825 5480 L 7230 5480 "/>
</g>
<clipPath id="cp60">
<path transform="matrix(.1,0,0,-.1,-475,675)" d="M 7230 5475 L 7835 5475 L 7835 5485 L 7230 5485 Z "/>
</clipPath>
<g clip-path="url(#cp60)">
<path transform="matrix(.1,0,0,-.1,-475,675)" stroke-width="10" stroke-linecap="butt" stroke-dasharray="20,20" stroke-miterlimit="4" stroke-linejoin="miter" fill="none" stroke="#5d5d5d" d="M 4825 5480 L 7835 5480 "/>
</g>
<clipPath id="cp61">
<path transform="matrix(.1,0,0,-.1,-475,675)" d="M 4825 4875 L 5430 4875 L 5430 4885 L 4825 4885 Z "/>
</clipPath>
<g clip-path="url(#cp61)">
<path transform="matrix(.1,0,0,-.1,-475,675)" stroke-width="10" stroke-linecap="butt" stroke-dasharray="20,20" stroke-miterlimit="4" stroke-linejoin="miter" fill="none" stroke="#5d5d5d" d="M 4825 4880 L 5430 4880 "/>
</g>
<clipPath id="cp62">
<path transform="matrix(.1,0,0,-.1,-475,675)" d="M 5430 4875 L 7230 4875 L 7230 4885 L 5430 4885 Z "/>
</clipPath>
<g clip-path="url(#cp62)">
<path transform="matrix(.1,0,0,-.1,-475,675)" stroke-width="10" stroke-linecap="butt" stroke-dasharray="20,20" stroke-miterlimit="4" stroke-linejoin="miter" fill="none" stroke="#5d5d5d" d="M 4825 4880 L 7230 4880 "/>
</g>
<clipPath id="cp63">
<path transform="matrix(.1,0,0,-.1,-475,675)" d="M 7230 4875 L 7835 4875 L 7835 4885 L 7230 4885 Z "/>
</clipPath>
<g clip-path="url(#cp63)">
<path transform="matrix(.1,0,0,-.1,-475,675)" stroke-width="10" stroke-linecap="butt" stroke-dasharray="20,20" stroke-miterlimit="4" stroke-linejoin="miter" fill="none" stroke="#5d5d5d" d="M 4825 4880 L 7835 4880 "/>
</g>
<clipPath id="cp64">
<path transform="matrix(.1,0,0,-.1,-475,675)" d="M 4825 4275 L 5430 4275 L 5430 4285 L 4825 4285 Z "/>
</clipPath>
<g clip-path="url(#cp64)">
<path transform="matrix(.1,0,0,-.1,-475,675)" stroke-width="10" stroke-linecap="butt" stroke-dasharray="20,20" stroke-miterlimit="4" stroke-linejoin="miter" fill="none" stroke="#5d5d5d" d="M 4825 4280 L 5430 4280 "/>
</g>
<clipPath id="cp65">
<path transform="matrix(.1,0,0,-.1,-475,675)" d="M 5430 4275 L 7230 4275 L 7230 4285 L 5430 4285 Z "/>
</clipPath>
<g clip-path="url(#cp65)">
<path transform="matrix(.1,0,0,-.1,-475,675)" stroke-width="10" stroke-linecap="butt" stroke-dasharray="20,20" stroke-miterlimit="4" stroke-linejoin="miter" fill="none" stroke="#5d5d5d" d="M 4825 4280 L 7230 4280 "/>
</g>
<clipPath id="cp66">
<path transform="matrix(.1,0,0,-.1,-475,675)" d="M 7230 4275 L 7835 4275 L 7835 4285 L 7230 4285 Z "/>
</clipPath>
<g clip-path="url(#cp66)">
<path transform="matrix(.1,0,0,-.1,-475,675)" stroke-width="10" stroke-linecap="butt" stroke-dasharray="20,20" stroke-miterlimit="4" stroke-linejoin="miter" fill="none" stroke="#5d5d5d" d="M 4825 4280 L 7835 4280 "/>
</g>
<clipPath id="cp67">
<path transform="matrix(.1,0,0,-.1,-475,675)" d="M 5425 6080 L 5435 6080 L 5435 6685 L 5425 6685 Z "/>
</clipPath>
<g clip-path="url(#cp67)">
<path transform="matrix(.1,0,0,-.1,-475,675)" stroke-width="10" stroke-linecap="butt" stroke-dasharray="20,20" stroke-miterlimit="4" stroke-linejoin="miter" fill="none" stroke="#5d5d5d" d="M 5430 6685 L 5430 6080 "/>
</g>
<clipPath id="cp68">
<path transform="matrix(.1,0,0,-.1,-475,675)" d="M 5425 4280 L 5435 4280 L 5435 6080 L 5425 6080 Z "/>
</clipPath>
<g clip-path="url(#cp68)">
<path transform="matrix(.1,0,0,-.1,-475,675)" stroke-width="10" stroke-linecap="butt" stroke-dasharray="20,20" stroke-miterlimit="4" stroke-linejoin="miter" fill="none" stroke="#5d5d5d" d="M 5430 6685 L 5430 4280 "/>
</g>
<clipPath id="cp69">
<path transform="matrix(.1,0,0,-.1,-475,675)" d="M 5425 3675 L 5435 3675 L 5435 4280 L 5425 4280 Z "/>
</clipPath>
<g clip-path="url(#cp69)">
<path transform="matrix(.1,0,0,-.1,-475,675)" stroke-width="10" stroke-linecap="butt" stroke-dasharray="20,20" stroke-miterlimit="4" stroke-linejoin="miter" fill="none" stroke="#5d5d5d" d="M 5430 6685 L 5430 3675 "/>
</g>
<clipPath id="cp70">
<path transform="matrix(.1,0,0,-.1,-475,675)" d="M 4825 6075 L 5430 6075 L 5430 6085 L 4825 6085 Z "/>
</clipPath>
<g clip-path="url(#cp70)">
<path transform="matrix(.1,0,0,-.1,-475,675)" stroke-width="10" stroke-linecap="butt" stroke-dasharray="20,20" stroke-miterlimit="4" stroke-linejoin="miter" fill="none" stroke="#5d5d5d" d="M 4825 6080 L 5430 6080 "/>
</g>
<clipPath id="cp71">
<path transform="matrix(.1,0,0,-.1,-475,675)" d="M 5430 6075 L 7230 6075 L 7230 6085 L 5430 6085 Z "/>
</clipPath>
<g clip-path="url(#cp71)">
<path transform="matrix(.1,0,0,-.1,-475,675)" stroke-width="10" stroke-linecap="butt" stroke-dasharray="20,20" stroke-miterlimit="4" stroke-linejoin="miter" fill="none" stroke="#5d5d5d" d="M 4825 6080 L 7230 6080 "/>
</g>
<clipPath id="cp72">
<path transform="matrix(.1,0,0,-.1,-475,675)" d="M 7230 6075 L 7835 6075 L 7835 6085 L 7230 6085 Z "/>
</clipPath>
<g clip-path="url(#cp72)">
<path transform="matrix(.1,0,0,-.1,-475,675)" stroke-width="10" stroke-linecap="butt" stroke-dasharray="20,20" stroke-miterlimit="4" stroke-linejoin="miter" fill="none" stroke="#5d5d5d" d="M 4825 6080 L 7835 6080 "/>
</g>
<clipPath id="cp73">
<path transform="matrix(.1,0,0,-.1,-475,675)" d="M 4825 3675 L 4835 3675 L 4835 6685 L 4825 6685 Z "/>
</clipPath>
<g clip-path="url(#cp73)">
<path transform="matrix(.1,0,0,-.1,-475,675)" stroke-width="10" stroke-linecap="butt" stroke-dasharray="20,20" stroke-miterlimit="4" stroke-linejoin="miter" fill="none" stroke="#5e5e5e" d="M 4830 6685 L 4830 3675 "/>
</g>
<clipPath id="cp74">
<path transform="matrix(.1,0,0,-.1,-475,675)" d="M 7825 3675 L 7835 3675 L 7835 6685 L 7825 6685 Z "/>
</clipPath>
<g clip-path="url(#cp74)">
<path transform="matrix(.1,0,0,-.1,-475,675)" stroke-width="10" stroke-linecap="butt" stroke-dasharray="20,20" stroke-miterlimit="4" stroke-linejoin="miter" fill="none" stroke="#5e5e5e" d="M 7830 6685 L 7830 3675 "/>
</g>
<clipPath id="cp75">
<path transform="matrix(.1,0,0,-.1,-475,675)" d="M 4825 6675 L 7835 6675 L 7835 6685 L 4825 6685 Z "/>
</clipPath>
<g clip-path="url(#cp75)">
<path transform="matrix(.1,0,0,-.1,-475,675)" stroke-width="10" stroke-linecap="butt" stroke-dasharray="20,20" stroke-miterlimit="4" stroke-linejoin="miter" fill="none" stroke="#5e5e5e" d="M 4825 6680 L 7835 6680 "/>
</g>
<clipPath id="cp76">
<path transform="matrix(.1,0,0,-.1,-475,675)" d="M 4825 3675 L 7835 3675 L 7835 3685 L 4825 3685 Z "/>
</clipPath>
<g clip-path="url(#cp76)">
<path transform="matrix(.1,0,0,-.1,-475,675)" stroke-width="10" stroke-linecap="butt" stroke-dasharray="20,20" stroke-miterlimit="4" stroke-linejoin="miter" fill="none" stroke="#5e5e5e" d="M 4825 3680 L 7835 3680 "/>
</g>
<clipPath id="cp77">
<path transform="matrix(.1,0,0,-.1,-475,675)" d="M 1940 3660.47 L 3789.53 3660.47 L 3789.53 5510 L 1940 5510 Z "/>
</clipPath>
<g clip-path="url(#cp77)">
<path transform="matrix(.1,0,0,-.1,-475,675)" d="M 1940 4893.49 L 2556.512 4893.49 L 2556.512 5509.998 L 1940 5509.998 Z " fill="#d6d5d5" fill-opacity=".5"/>
<path transform="matrix(.1,0,0,-.1,-475,675)" d="M 2556.51 4893.49 L 3173.018 4893.49 L 3173.018 5509.998 L 2556.51 5509.998 Z " fill="#d6d5d5" fill-opacity=".5"/>
<path transform="matrix(.1,0,0,-.1,-475,675)" d="M 3173.02 4893.49 L 3789.532 4893.49 L 3789.532 5509.998 L 3173.02 5509.998 Z " fill="#d6d5d5" fill-opacity=".5"/>
<path transform="matrix(.1,0,0,-.1,-475,675)" d="M 1940 4276.98 L 2556.512 4276.98 L 2556.512 4893.488 L 1940 4893.488 Z " fill="#d6d5d5" fill-opacity=".5"/>
<path transform="matrix(.1,0,0,-.1,-475,675)" d="M 2556.51 4276.98 L 3173.018 4276.98 L 3173.018 4893.488 L 2556.51 4893.488 Z " fill="#d6d5d5" fill-opacity=".5"/>
<path transform="matrix(.1,0,0,-.1,-475,675)" d="M 3173.02 4276.98 L 3789.532 4276.98 L 3789.532 4893.488 L 3173.02 4893.488 Z " fill="#d6d5d5" fill-opacity=".5"/>
<path transform="matrix(.1,0,0,-.1,-475,675)" d="M 1940 3660.47 L 2556.512 3660.47 L 2556.512 4276.982 L 1940 4276.982 Z " fill="#d6d5d5" fill-opacity=".5"/>
<path transform="matrix(.1,0,0,-.1,-475,675)" d="M 2556.51 3660.47 L 3173.018 3660.47 L 3173.018 4276.982 L 2556.51 4276.982 Z " fill="#d6d5d5" fill-opacity=".5"/>
<path transform="matrix(.1,0,0,-.1,-475,675)" d="M 3173.02 3660.47 L 3789.532 3660.47 L 3789.532 4276.982 L 3173.02 4276.982 Z " fill="#d6d5d5" fill-opacity=".5"/>
</g>
<clipPath id="cp78">
<path transform="matrix(.1,0,0,-.1,-475,675)" d="M 1940 4893.49 L 2556.512 4893.49 L 2556.512 5509.998 L 1940 5509.998 Z "/>
</clipPath>
<g clip-path="url(#cp78)">
<symbol id="font_2_c">
<path d="M .19500003 .272 L .016 .517 L .15400002 .517 L .262 .358 L .375 .517 L .507 .517 L .331 .27800004 L .52900007 0 L .39200003 0 L .261 .19100002 L .13400002 0 L 0 0 L .19500003 .272 Z "/>
</symbol>
<use xlink:href="#font_2_2" transform="matrix(15,0,0,-15,-276.46,142.21)" fill="#ff9300"/>
<use xlink:href="#font_2_c" transform="matrix(15,0,0,-15,-268.6,142)" fill="#ff9300"/>
</g>
<clipPath id="cp79">
<path transform="matrix(.1,0,0,-.1,-475,675)" d="M 2556.51 4893.49 L 3173.018 4893.49 L 3173.018 5509.998 L 2556.51 5509.998 Z "/>
</clipPath>
<g clip-path="url(#cp79)">
<use xlink:href="#font_2_3" transform="matrix(15,0,0,-15,-214.205,142)" fill="#ff9300"/>
<use xlink:href="#font_2_c" transform="matrix(15,0,0,-15,-206.6,142)" fill="#ff9300"/>
</g>
<clipPath id="cp80">
<path transform="matrix(.1,0,0,-.1,-475,675)" d="M 3173.02 4893.49 L 3789.532 4893.49 L 3789.532 5509.998 L 3173.02 5509.998 Z "/>
</clipPath>
<g clip-path="url(#cp80)">
<use xlink:href="#font_2_2" transform="matrix(15,0,0,-15,-153.46,142.21)" fill="#ff9300"/>
<use xlink:href="#font_2_c" transform="matrix(15,0,0,-15,-145.6,142)" fill="#ff9300"/>
</g>
<clipPath id="cp81">
<path transform="matrix(.1,0,0,-.1,-475,675)" d="M 1940 4276.98 L 2556.512 4276.98 L 2556.512 4893.488 L 1940 4893.488 Z "/>
</clipPath>
<g clip-path="url(#cp81)">
<use xlink:href="#font_2_3" transform="matrix(15,0,0,-15,-276.205,204)" fill="#ff9300"/>
<use xlink:href="#font_2_c" transform="matrix(15,0,0,-15,-268.6,204)" fill="#ff9300"/>
</g>
<clipPath id="cp82">
<path transform="matrix(.1,0,0,-.1,-475,675)" d="M 2556.51 4276.98 L 3173.018 4276.98 L 3173.018 4893.488 L 2556.51 4893.488 Z "/>
</clipPath>
<g clip-path="url(#cp82)">
<use xlink:href="#font_2_1" transform="matrix(15,0,0,-15,-214.265,200.73)" fill="#ff9300"/>
<use xlink:href="#font_2_6" transform="matrix(15,0,0,-15,-208.80501,204)" fill="#ff9300"/>
<use xlink:href="#font_2_c" transform="matrix(15,0,0,-15,-200.76502,204)" fill="#ff9300"/>
</g>
<clipPath id="cp83">
<path transform="matrix(.1,0,0,-.1,-475,675)" d="M 3173.02 4276.98 L 3789.532 4276.98 L 3789.532 4893.488 L 3173.02 4893.488 Z "/>
</clipPath>
<g clip-path="url(#cp83)">
<use xlink:href="#font_2_3" transform="matrix(15,0,0,-15,-153.205,204)" fill="#ff9300"/>
<use xlink:href="#font_2_c" transform="matrix(15,0,0,-15,-145.6,204)" fill="#ff9300"/>
</g>
<clipPath id="cp84">
<path transform="matrix(.1,0,0,-.1,-475,675)" d="M 1940 3660.47 L 2556.512 3660.47 L 2556.512 4276.982 L 1940 4276.982 Z "/>
</clipPath>
<g clip-path="url(#cp84)">
<use xlink:href="#font_2_2" transform="matrix(15,0,0,-15,-276.46,266.21)" fill="#ff9300"/>
<use xlink:href="#font_2_c" transform="matrix(15,0,0,-15,-268.6,266)" fill="#ff9300"/>
</g>
<clipPath id="cp85">
<path transform="matrix(.1,0,0,-.1,-475,675)" d="M 2556.51 3660.47 L 3173.018 3660.47 L 3173.018 4276.982 L 2556.51 4276.982 Z "/>
</clipPath>
<g clip-path="url(#cp85)">
<use xlink:href="#font_2_3" transform="matrix(15,0,0,-15,-214.205,266)" fill="#ff9300"/>
<use xlink:href="#font_2_c" transform="matrix(15,0,0,-15,-206.6,266)" fill="#ff9300"/>
</g>
<clipPath id="cp86">
<path transform="matrix(.1,0,0,-.1,-475,675)" d="M 3173.02 3660.47 L 3789.532 3660.47 L 3789.532 4276.982 L 3173.02 4276.982 Z "/>
</clipPath>
<g clip-path="url(#cp86)">
<use xlink:href="#font_2_2" transform="matrix(15,0,0,-15,-153.46,266.21)" fill="#ff9300"/>
<use xlink:href="#font_2_c" transform="matrix(15,0,0,-15,-145.6,266)" fill="#ff9300"/>
</g>
</g>
</svg>
