<?xml version="1.0" encoding="UTF-8" standalone="no"?>
<!DOCTYPE svg PUBLIC "-//W3C//DTD SVG 1.1//EN" "http://www.w3.org/Graphics/SVG/1.1/DTD/svg11.dtd">
<svg xmlns="http://www.w3.org/2000/svg" xmlns:xlink="http://www.w3.org/1999/xlink" version="1.1" width="427.74pt" height="264.72688pt" viewBox="0 0 427.74 264.72688">
<g enable-background="new">
<g>
<path transform="matrix(1,0,0,-1,0,264.72688)" d="M 0 0 L 427.74 0 L 427.74 264.72688 L 0 264.72688 Z " fill="#f3f3f3"/>
<path transform="matrix(1,0,0,-1,0,264.72688)" d="M 44.7 24.246876 L 420.54 24.246876 L 420.54 257.5269 L 44.7 257.5269 Z " fill="#f3f3f3"/>
<clipPath id="cp0">
<path transform="matrix(1,0,0,-1,0,264.72688)" d="M 44.7 24.246876 L 420.54 24.246876 L 420.54 257.5269 L 44.7 257.5269 Z "/>
</clipPath>
<g clip-path="url(#cp0)">
<path transform="matrix(1,0,0,-1,0,264.72688)" stroke-width="1" stroke-linecap="butt" stroke-linejoin="round" fill="none" stroke="#d5d5d5" d="M 61.783636 24.246876 L 61.783636 257.5269 "/>
</g>
<symbol id="font_1_31">
<path transform="matrix(.001,0,0,.001,-.11000001,0)" d="M 124 83 L 285 83 L 285 639 L 110 604 L 110 694 L 284 729 L 383 729 L 383 83 L 544 83 L 544 0 L 124 0 L 124 83 "/>
</symbol>
<symbol id="font_1_30">
<path transform="matrix(.001,0,0,.001,-.066,.013)" d="M 318 664 C 267 664 229 639 203 589 C 177 539 165 464 165 364 C 165 264 177 189 203 139 C 229 89 267 64 318 64 C 369 64 407 89 433 139 C 458 189 471 264 471 364 C 471 464 458 539 433 589 C 407 639 369 664 318 664 M 318 742 C 399 742 461 709 505 645 C 548 580 570 486 570 364 C 570 241 548 147 505 83 C 461 19 399 -13 318 -13 C 236 -13 173 19 130 83 C 87 147 66 241 66 364 C 66 486 87 580 130 645 C 173 709 236 742 318 742 "/>
</symbol>
<use xlink:href="#font_1_31" transform="matrix(14,0,0,-14,60.28067,254.62062)"/>
<use xlink:href="#font_1_30" transform="matrix(14,0,0,-14,68.56867,254.80263)"/>
<clipPath id="cp2">
<path transform="matrix(.014,0,0,-.014,47.0102,254.62062)" d="M -1021 -463 L 1794 -463 L 1794 1233 L -1021 1233 Z "/>
</clipPath>
<g clip-path="url(#cp2)">
<path transform="matrix(.014,0,0,-.014,47.0102,254.62062)" d="M 106 355 L 732 355 L 732 272 L 106 272 L 106 355 "/>
</g>
<clipPath id="cp3">
<path transform="matrix(1,0,0,-1,0,264.72688)" d="M 44.7 24.246876 L 420.54 24.246876 L 420.54 257.5269 L 44.7 257.5269 Z "/>
</clipPath>
<g clip-path="url(#cp3)">
<path transform="matrix(1,0,0,-1,0,264.72688)" stroke-width="1" stroke-linecap="butt" stroke-linejoin="round" fill="none" stroke="#d5d5d5" d="M 147.20182 24.246876 L 147.20182 257.5269 "/>
</g>
<symbol id="font_1_35">
<path transform="matrix(.001,0,0,.001,-.07700001,.013)" d="M 108 729 L 495 729 L 495 646 L 198 646 L 198 467 C 212 472 227 476 241 478 C 255 480 270 482 284 482 C 365 482 429 459 477 415 C 525 370 549 310 549 234 C 549 155 524 94 475 51 C 426 8 357 -13 269 -13 C 238 -13 207 -10 175 -6 C 143 -1 111 6 77 17 L 77 116 C 106 100 136 88 168 80 C 199 72 232 69 267 69 C 323 69 368 83 401 113 C 433 143 450 183 450 234 C 450 284 433 324 401 354 C 368 384 323 399 267 399 C 241 399 214 396 188 390 C 162 384 135 375 108 363 L 108 729 "/>
</symbol>
<use xlink:href="#font_1_35" transform="matrix(14,0,0,-14,149.68997,254.80263)"/>
<clipPath id="cp4">
<path transform="matrix(.014,0,0,-.014,136.8815,254.62062)" d="M -1021 -463 L 1794 -463 L 1794 1233 L -1021 1233 Z "/>
</clipPath>
<g clip-path="url(#cp4)">
<path transform="matrix(.014,0,0,-.014,136.8815,254.62062)" d="M 106 355 L 732 355 L 732 272 L 106 272 L 106 355 "/>
</g>
<clipPath id="cp5">
<path transform="matrix(1,0,0,-1,0,264.72688)" d="M 44.7 24.246876 L 420.54 24.246876 L 420.54 257.5269 L 44.7 257.5269 Z "/>
</clipPath>
<g clip-path="url(#cp5)">
<path transform="matrix(1,0,0,-1,0,264.72688)" stroke-width="1" stroke-linecap="butt" stroke-linejoin="round" fill="none" stroke="#d5d5d5" d="M 232.62 24.246876 L 232.62 257.5269 "/>
</g>
<use xlink:href="#font_1_30" transform="matrix(14,0,0,-14,229.09087,254.80263)"/>
<clipPath id="cp6">
<path transform="matrix(1,0,0,-1,0,264.72688)" d="M 44.7 24.246876 L 420.54 24.246876 L 420.54 257.5269 L 44.7 257.5269 Z "/>
</clipPath>
<g clip-path="url(#cp6)">
<path transform="matrix(1,0,0,-1,0,264.72688)" stroke-width="1" stroke-linecap="butt" stroke-linejoin="round" fill="none" stroke="#d5d5d5" d="M 318.03819 24.246876 L 318.03819 257.5269 "/>
</g>
<use xlink:href="#font_1_35" transform="matrix(14,0,0,-14,314.66307,254.80263)"/>
<clipPath id="cp7">
<path transform="matrix(1,0,0,-1,0,264.72688)" d="M 44.7 24.246876 L 420.54 24.246876 L 420.54 257.5269 L 44.7 257.5269 Z "/>
</clipPath>
<g clip-path="url(#cp7)">
<path transform="matrix(1,0,0,-1,0,264.72688)" stroke-width="1" stroke-linecap="butt" stroke-linejoin="round" fill="none" stroke="#d5d5d5" d="M 403.45637 24.246876 L 403.45637 257.5269 "/>
</g>
<use xlink:href="#font_1_31" transform="matrix(14,0,0,-14,396.09013,254.62062)"/>
<use xlink:href="#font_1_30" transform="matrix(14,0,0,-14,404.3781,254.80263)"/>
<clipPath id="cp8">
<path transform="matrix(1,0,0,-1,0,264.72688)" d="M 44.7 24.246876 L 420.54 24.246876 L 420.54 257.5269 L 44.7 257.5269 Z "/>
</clipPath>
<g clip-path="url(#cp8)">
<path transform="matrix(1,0,0,-1,0,264.72688)" stroke-width="1" stroke-linecap="butt" stroke-linejoin="round" fill="none" stroke="#d5d5d5" d="M 44.7 34.85051 L 420.54 34.85051 "/>
</g>
<symbol id="font_1_2e">
<path transform="matrix(.001,0,0,.001,-.10700001,0)" d="M 107 124 L 210 124 L 210 0 L 107 0 L 107 124 "/>
</symbol>
<use xlink:href="#font_1_31" transform="matrix(14,0,0,-14,20.47047,235.19667)"/>
<use xlink:href="#font_1_2e" transform="matrix(14,0,0,-14,29.33247,235.19667)"/>
<use xlink:href="#font_1_30" transform="matrix(14,0,0,-14,33.21047,235.37868)"/>
<clipPath id="cp9">
<path transform="matrix(.014,0,0,-.014,7.2,235.19667)" d="M -1021 -463 L 1794 -463 L 1794 1233 L -1021 1233 Z "/>
</clipPath>
<g clip-path="url(#cp9)">
<path transform="matrix(.014,0,0,-.014,7.2,235.19667)" d="M 106 355 L 732 355 L 732 272 L 106 272 L 106 355 "/>
</g>
<clipPath id="cp10">
<path transform="matrix(1,0,0,-1,0,264.72688)" d="M 44.7 24.246876 L 420.54 24.246876 L 420.54 257.5269 L 44.7 257.5269 Z "/>
</clipPath>
<g clip-path="url(#cp10)">
<path transform="matrix(1,0,0,-1,0,264.72688)" stroke-width="1" stroke-linecap="butt" stroke-linejoin="round" fill="none" stroke="#d5d5d5" d="M 44.7 87.86869 L 420.54 87.86869 "/>
</g>
<use xlink:href="#font_1_30" transform="matrix(14,0,0,-14,19.85447,182.3605)"/>
<use xlink:href="#font_1_2e" transform="matrix(14,0,0,-14,29.33247,182.1785)"/>
<use xlink:href="#font_1_35" transform="matrix(14,0,0,-14,33.364469,182.3605)"/>
<clipPath id="cp11">
<path transform="matrix(.014,0,0,-.014,7.2,182.1785)" d="M -1021 -463 L 1794 -463 L 1794 1233 L -1021 1233 Z "/>
</clipPath>
<g clip-path="url(#cp11)">
<path transform="matrix(.014,0,0,-.014,7.2,182.1785)" d="M 106 355 L 732 355 L 732 272 L 106 272 L 106 355 "/>
</g>
<clipPath id="cp12">
<path transform="matrix(1,0,0,-1,0,264.72688)" d="M 44.7 24.246876 L 420.54 24.246876 L 420.54 257.5269 L 44.7 257.5269 Z "/>
</clipPath>
<g clip-path="url(#cp12)">
<path transform="matrix(1,0,0,-1,0,264.72688)" stroke-width="1" stroke-linecap="butt" stroke-linejoin="round" fill="none" stroke="#d5d5d5" d="M 44.7 140.88687 L 420.54 140.88687 "/>
</g>
<use xlink:href="#font_1_30" transform="matrix(14,0,0,-14,19.858376,129.34232)"/>
<use xlink:href="#font_1_2e" transform="matrix(14,0,0,-14,29.336377,129.16031)"/>
<use xlink:href="#font_1_30" transform="matrix(14,0,0,-14,33.214376,129.34232)"/>
<clipPath id="cp13">
<path transform="matrix(1,0,0,-1,0,264.72688)" d="M 44.7 24.246876 L 420.54 24.246876 L 420.54 257.5269 L 44.7 257.5269 Z "/>
</clipPath>
<g clip-path="url(#cp13)">
<path transform="matrix(1,0,0,-1,0,264.72688)" stroke-width="1" stroke-linecap="butt" stroke-linejoin="round" fill="none" stroke="#d5d5d5" d="M 44.7 193.90506 L 420.54 193.90506 "/>
</g>
<use xlink:href="#font_1_30" transform="matrix(14,0,0,-14,19.858376,76.32412)"/>
<use xlink:href="#font_1_2e" transform="matrix(14,0,0,-14,29.336377,76.14212)"/>
<use xlink:href="#font_1_35" transform="matrix(14,0,0,-14,33.368375,76.32412)"/>
<clipPath id="cp14">
<path transform="matrix(1,0,0,-1,0,264.72688)" d="M 44.7 24.246876 L 420.54 24.246876 L 420.54 257.5269 L 44.7 257.5269 Z "/>
</clipPath>
<g clip-path="url(#cp14)">
<path transform="matrix(1,0,0,-1,0,264.72688)" stroke-width="1" stroke-linecap="butt" stroke-linejoin="round" fill="none" stroke="#d5d5d5" d="M 44.7 246.92324 L 420.54 246.92324 "/>
</g>
<use xlink:href="#font_1_31" transform="matrix(14,0,0,-14,20.474377,23.123948)"/>
<use xlink:href="#font_1_2e" transform="matrix(14,0,0,-14,29.336377,23.123948)"/>
<use xlink:href="#font_1_30" transform="matrix(14,0,0,-14,33.214376,23.305947)"/>
<clipPath id="cp15">
<path transform="matrix(1,0,0,-1,0,264.72688)" d="M 44.7 24.246876 L 420.54 24.246876 L 420.54 257.5269 L 44.7 257.5269 Z "/>
</clipPath>
<g clip-path="url(#cp15)">
<path transform="matrix(1,0,0,-1,0,264.72688)" stroke-width="1.7" stroke-linecap="butt" stroke-linejoin="round" fill="none" stroke="#2573ba" d="M 61.783636 34.85051 L 65.23488 34.850515 L 68.68612 34.850515 L 72.13735 34.850515 L 75.58859 34.850515 L 79.03983 34.850515 L 82.49107 34.850519 L 85.942317 34.850519 L 89.393558 34.85052 L 92.844799 34.85053 L 96.296039 34.850538 L 99.74728 34.850549 L 103.19851 34.850568 L 106.64975 34.850595 L 110.10099 34.850637 L 113.55223 34.850698 L 117.00347 34.850793 L 120.45471 34.85093 L 123.90595 34.851144 L 127.35719 34.851457 L 130.80843 34.851926 L 134.25968 34.852628 L 137.7109 34.85368 L 141.16216 34.85526 L 144.61339 34.85762 L 148.06462 34.86116 L 151.51587 34.866464 L 154.9671 34.874406 L 158.41835 34.8863 L 161.86959 34.904115 L 165.32083 34.93079 L 168.77207 34.970739 L 172.22332 35.03054 L 175.67455 35.12006 L 179.12578 35.254 L 182.57703 35.454317 L 186.02826 35.753648 L 189.4795 36.20042 L 192.93074 36.866109 L 196.38199 37.85538 L 199.83322 39.319875 L 203.28447 41.4755 L 206.7357 44.62187 L 210.18694 49.158468 L 213.63819 55.585416 L 217.08942 64.46693 L 220.54067 76.32805 L 223.9919 91.46546 L 227.44315 109.703357 L 230.89438 130.21242 L 234.34563 151.56134 L 237.79686 172.0704 L 241.2481 190.30829 L 244.69934 205.4457 L 248.15058 217.30683 L 251.60182 226.18834 L 255.05306 232.61528 L 258.5043 237.15189 L 261.95555 240.29825 L 265.40678 242.45388 L 268.85804 243.91837 L 272.30928 244.90764 L 275.7605 245.57334 L 279.21174 246.02011 L 282.66297 246.31945 L 286.11424 246.51975 L 289.56547 246.65369 L 293.0167 246.74321 L 296.46794 246.80301 L 299.91917 246.84296 L 303.37043 246.86963 L 306.82167 246.88745 L 310.2729 246.89934 L 313.72413 246.90729 L 317.17539 246.91259 L 320.62663 246.91613 L 324.07786 246.91849 L 327.52909 246.92008 L 330.98033 246.92113 L 334.43159 246.92183 L 337.8828 246.9223 L 341.33406 246.9226 L 344.78529 246.92282 L 348.23655 246.92296 L 351.68778 246.92305 L 355.139 246.92311 L 358.59025 246.92316 L 362.04148 246.92319 L 365.49275 246.9232 L 368.94398 246.92322 L 372.3952 246.92322 L 375.84645 246.92324 L 379.2977 246.92324 L 382.74894 246.92324 L 386.20018 246.92324 L 389.6514 246.92324 L 393.10264 246.92324 L 396.5539 246.92324 L 400.00514 246.92324 L 403.45637 246.92324 "/>
</g>
<clipPath id="cp16">
<path transform="matrix(1,0,0,-1,0,264.72688)" d="M 44.7 24.246876 L 420.54 24.246876 L 420.54 257.5269 L 44.7 257.5269 Z "/>
</clipPath>
<g clip-path="url(#cp16)">
<clipPath id="cp17">
<path transform="matrix(1,0,0,-1,237.74509,123.84)" d="M -3 -3 L 3 -3 L 3 3 L -3 3 Z "/>
</clipPath>
<g clip-path="url(#cp17)">
<path transform="matrix(1,0,0,-1,237.74509,123.84)" d="M 0 -2.5 C .663008 -2.5 1.29895 -2.236584 1.767767 -1.767767 C 2.236584 -1.29895 2.5 -.663008 2.5 0 C 2.5 .663008 2.236584 1.29895 1.767767 1.767767 C 1.29895 2.236584 .663008 2.5 0 2.5 C -.663008 2.5 -1.29895 2.236584 -1.767767 1.767767 C -2.236584 1.29895 -2.5 .663008 -2.5 0 C -2.5 -.663008 -2.236584 -1.29895 -1.767767 -1.767767 C -1.29895 -2.236584 -.663008 -2.5 0 -2.5 Z " fill="#f5294e"/>
<path transform="matrix(1,0,0,-1,237.74509,123.84)" stroke-width="1" stroke-linecap="butt" stroke-linejoin="round" fill="none" stroke="#f5294e" d="M 0 -2.5 C .663008 -2.5 1.29895 -2.236584 1.767767 -1.767767 C 2.236584 -1.29895 2.5 -.663008 2.5 0 C 2.5 .663008 2.236584 1.29895 1.767767 1.767767 C 1.29895 2.236584 .663008 2.5 0 2.5 C -.663008 2.5 -1.29895 2.236584 -1.767767 1.767767 C -2.236584 1.29895 -2.5 .663008 -2.5 0 C -2.5 -.663008 -2.236584 -1.29895 -1.767767 -1.767767 C -1.29895 -2.236584 -.663008 -2.5 0 -2.5 Z "/>
</g>
<clipPath id="cp18">
<path transform="matrix(1,0,0,-1,232.62,123.84)" d="M -3 -3 L 3 -3 L 3 3 L -3 3 Z "/>
</clipPath>
<g clip-path="url(#cp18)">
<path transform="matrix(1,0,0,-1,232.62,123.84)" d="M 0 -2.5 C .663008 -2.5 1.29895 -2.236584 1.767767 -1.767767 C 2.236584 -1.29895 2.5 -.663008 2.5 0 C 2.5 .663008 2.236584 1.29895 1.767767 1.767767 C 1.29895 2.236584 .663008 2.5 0 2.5 C -.663008 2.5 -1.29895 2.236584 -1.767767 1.767767 C -2.236584 1.29895 -2.5 .663008 -2.5 0 C -2.5 -.663008 -2.236584 -1.29895 -1.767767 -1.767767 C -1.29895 -2.236584 -.663008 -2.5 0 -2.5 Z " fill="#f5294e"/>
<path transform="matrix(1,0,0,-1,232.62,123.84)" stroke-width="1" stroke-linecap="butt" stroke-linejoin="round" fill="none" stroke="#f5294e" d="M 0 -2.5 C .663008 -2.5 1.29895 -2.236584 1.767767 -1.767767 C 2.236584 -1.29895 2.5 -.663008 2.5 0 C 2.5 .663008 2.236584 1.29895 1.767767 1.767767 C 1.29895 2.236584 .663008 2.5 0 2.5 C -.663008 2.5 -1.29895 2.236584 -1.767767 1.767767 C -2.236584 1.29895 -2.5 .663008 -2.5 0 C -2.5 -.663008 -2.236584 -1.29895 -1.767767 -1.767767 C -1.29895 -2.236584 -.663008 -2.5 0 -2.5 Z "/>
</g>
<clipPath id="cp19">
<path transform="matrix(1,0,0,-1,228.34909,123.84)" d="M -3 -3 L 3 -3 L 3 3 L -3 3 Z "/>
</clipPath>
<g clip-path="url(#cp19)">
<path transform="matrix(1,0,0,-1,228.34909,123.84)" d="M 0 -2.5 C .663008 -2.5 1.29895 -2.236584 1.767767 -1.767767 C 2.236584 -1.29895 2.5 -.663008 2.5 0 C 2.5 .663008 2.236584 1.29895 1.767767 1.767767 C 1.29895 2.236584 .663008 2.5 0 2.5 C -.663008 2.5 -1.29895 2.236584 -1.767767 1.767767 C -2.236584 1.29895 -2.5 .663008 -2.5 0 C -2.5 -.663008 -2.236584 -1.29895 -1.767767 -1.767767 C -1.29895 -2.236584 -.663008 -2.5 0 -2.5 Z " fill="#f5294e"/>
<path transform="matrix(1,0,0,-1,228.34909,123.84)" stroke-width="1" stroke-linecap="butt" stroke-linejoin="round" fill="none" stroke="#f5294e" d="M 0 -2.5 C .663008 -2.5 1.29895 -2.236584 1.767767 -1.767767 C 2.236584 -1.29895 2.5 -.663008 2.5 0 C 2.5 .663008 2.236584 1.29895 1.767767 1.767767 C 1.29895 2.236584 .663008 2.5 0 2.5 C -.663008 2.5 -1.29895 2.236584 -1.767767 1.767767 C -2.236584 1.29895 -2.5 .663008 -2.5 0 C -2.5 -.663008 -2.236584 -1.29895 -1.767767 -1.767767 C -1.29895 -2.236584 -.663008 -2.5 0 -2.5 Z "/>
</g>
<clipPath id="cp20">
<path transform="matrix(1,0,0,-1,220.66146,123.84)" d="M -3 -3 L 3 -3 L 3 3 L -3 3 Z "/>
</clipPath>
<g clip-path="url(#cp20)">
<path transform="matrix(1,0,0,-1,220.66146,123.84)" d="M 0 -2.5 C .663008 -2.5 1.29895 -2.236584 1.767767 -1.767767 C 2.236584 -1.29895 2.5 -.663008 2.5 0 C 2.5 .663008 2.236584 1.29895 1.767767 1.767767 C 1.29895 2.236584 .663008 2.5 0 2.5 C -.663008 2.5 -1.29895 2.236584 -1.767767 1.767767 C -2.236584 1.29895 -2.5 .663008 -2.5 0 C -2.5 -.663008 -2.236584 -1.29895 -1.767767 -1.767767 C -1.29895 -2.236584 -.663008 -2.5 0 -2.5 Z " fill="#f5294e"/>
<path transform="matrix(1,0,0,-1,220.66146,123.84)" stroke-width="1" stroke-linecap="butt" stroke-linejoin="round" fill="none" stroke="#f5294e" d="M 0 -2.5 C .663008 -2.5 1.29895 -2.236584 1.767767 -1.767767 C 2.236584 -1.29895 2.5 -.663008 2.5 0 C 2.5 .663008 2.236584 1.29895 1.767767 1.767767 C 1.29895 2.236584 .663008 2.5 0 2.5 C -.663008 2.5 -1.29895 2.236584 -1.767767 1.767767 C -2.236584 1.29895 -2.5 .663008 -2.5 0 C -2.5 -.663008 -2.236584 -1.29895 -1.767767 -1.767767 C -1.29895 -2.236584 -.663008 -2.5 0 -2.5 Z "/>
</g>
<clipPath id="cp21">
<path transform="matrix(1,0,0,-1,198.45273,123.84)" d="M -3 -3 L 3 -3 L 3 3 L -3 3 Z "/>
</clipPath>
<g clip-path="url(#cp21)">
<path transform="matrix(1,0,0,-1,198.45273,123.84)" d="M 0 -2.5 C .663008 -2.5 1.29895 -2.236584 1.767767 -1.767767 C 2.236584 -1.29895 2.5 -.663008 2.5 0 C 2.5 .663008 2.236584 1.29895 1.767767 1.767767 C 1.29895 2.236584 .663008 2.5 0 2.5 C -.663008 2.5 -1.29895 2.236584 -1.767767 1.767767 C -2.236584 1.29895 -2.5 .663008 -2.5 0 C -2.5 -.663008 -2.236584 -1.29895 -1.767767 -1.767767 C -1.29895 -2.236584 -.663008 -2.5 0 -2.5 Z " fill="#f5294e"/>
<path transform="matrix(1,0,0,-1,198.45273,123.84)" stroke-width="1" stroke-linecap="butt" stroke-linejoin="round" fill="none" stroke="#f5294e" d="M 0 -2.5 C .663008 -2.5 1.29895 -2.236584 1.767767 -1.767767 C 2.236584 -1.29895 2.5 -.663008 2.5 0 C 2.5 .663008 2.236584 1.29895 1.767767 1.767767 C 1.29895 2.236584 .663008 2.5 0 2.5 C -.663008 2.5 -1.29895 2.236584 -1.767767 1.767767 C -2.236584 1.29895 -2.5 .663008 -2.5 0 C -2.5 -.663008 -2.236584 -1.29895 -1.767767 -1.767767 C -1.29895 -2.236584 -.663008 -2.5 0 -2.5 Z "/>
</g>
<clipPath id="cp22">
<path transform="matrix(1,0,0,-1,259.95384,123.84)" d="M -3 -3 L 3 -3 L 3 3 L -3 3 Z "/>
</clipPath>
<g clip-path="url(#cp22)">
<path transform="matrix(1,0,0,-1,259.95384,123.84)" d="M 0 -2.5 C .663008 -2.5 1.29895 -2.236584 1.767767 -1.767767 C 2.236584 -1.29895 2.5 -.663008 2.5 0 C 2.5 .663008 2.236584 1.29895 1.767767 1.767767 C 1.29895 2.236584 .663008 2.5 0 2.5 C -.663008 2.5 -1.29895 2.236584 -1.767767 1.767767 C -2.236584 1.29895 -2.5 .663008 -2.5 0 C -2.5 -.663008 -2.236584 -1.29895 -1.767767 -1.767767 C -1.29895 -2.236584 -.663008 -2.5 0 -2.5 Z " fill="#f5294e"/>
<path transform="matrix(1,0,0,-1,259.95384,123.84)" stroke-width="1" stroke-linecap="butt" stroke-linejoin="round" fill="none" stroke="#f5294e" d="M 0 -2.5 C .663008 -2.5 1.29895 -2.236584 1.767767 -1.767767 C 2.236584 -1.29895 2.5 -.663008 2.5 0 C 2.5 .663008 2.236584 1.29895 1.767767 1.767767 C 1.29895 2.236584 .663008 2.5 0 2.5 C -.663008 2.5 -1.29895 2.236584 -1.767767 1.767767 C -2.236584 1.29895 -2.5 .663008 -2.5 0 C -2.5 -.663008 -2.236584 -1.29895 -1.767767 -1.767767 C -1.29895 -2.236584 -.663008 -2.5 0 -2.5 Z "/>
</g>
</g>
<clipPath id="cp23">
<path transform="matrix(1,0,0,-1,0,264.72688)" d="M 44.7 24.246876 L 420.54 24.246876 L 420.54 257.5269 L 44.7 257.5269 Z "/>
</clipPath>
<g clip-path="url(#cp23)">
<clipPath id="cp24">
<path transform="matrix(1,0,0,-1,331.70509,123.84)" d="M -4 -4 L 4 -4 L 4 4 L -4 4 Z "/>
</clipPath>
<g clip-path="url(#cp24)">
<path transform="matrix(1,0,0,-1,331.70509,123.84)" d="M -3.5 -3.5 L 3.5 3.5 M -3.5 3.5 L 3.5 -3.5 " fill="#14b03e"/>
<path transform="matrix(1,0,0,-1,331.70509,123.84)" stroke-width="1" stroke-linecap="butt" stroke-linejoin="round" fill="none" stroke="#14b03e" d="M -3.5 -3.5 L 3.5 3.5 M -3.5 3.5 L 3.5 -3.5 "/>
</g>
<clipPath id="cp25">
<path transform="matrix(1,0,0,-1,314.62144,123.84)" d="M -4 -4 L 4 -4 L 4 4 L -4 4 Z "/>
</clipPath>
<g clip-path="url(#cp25)">
<path transform="matrix(1,0,0,-1,314.62144,123.84)" d="M -3.5 -3.5 L 3.5 3.5 M -3.5 3.5 L 3.5 -3.5 " fill="#14b03e"/>
<path transform="matrix(1,0,0,-1,314.62144,123.84)" stroke-width="1" stroke-linecap="butt" stroke-linejoin="round" fill="none" stroke="#14b03e" d="M -3.5 -3.5 L 3.5 3.5 M -3.5 3.5 L 3.5 -3.5 "/>
</g>
<clipPath id="cp26">
<path transform="matrix(1,0,0,-1,308.4713,123.84)" d="M -4 -4 L 4 -4 L 4 4 L -4 4 Z "/>
</clipPath>
<g clip-path="url(#cp26)">
<path transform="matrix(1,0,0,-1,308.4713,123.84)" d="M -3.5 -3.5 L 3.5 3.5 M -3.5 3.5 L 3.5 -3.5 " fill="#14b03e"/>
<path transform="matrix(1,0,0,-1,308.4713,123.84)" stroke-width="1" stroke-linecap="butt" stroke-linejoin="round" fill="none" stroke="#14b03e" d="M -3.5 -3.5 L 3.5 3.5 M -3.5 3.5 L 3.5 -3.5 "/>
</g>
<clipPath id="cp27">
<path transform="matrix(1,0,0,-1,329.9967,123.84)" d="M -4 -4 L 4 -4 L 4 4 L -4 4 Z "/>
</clipPath>
<g clip-path="url(#cp27)">
<path transform="matrix(1,0,0,-1,329.9967,123.84)" d="M -3.5 -3.5 L 3.5 3.5 M -3.5 3.5 L 3.5 -3.5 " fill="#14b03e"/>
<path transform="matrix(1,0,0,-1,329.9967,123.84)" stroke-width="1" stroke-linecap="butt" stroke-linejoin="round" fill="none" stroke="#14b03e" d="M -3.5 -3.5 L 3.5 3.5 M -3.5 3.5 L 3.5 -3.5 "/>
</g>
</g>
<path transform="matrix(1,0,0,-1,0,264.72688)" stroke-width="3" stroke-linecap="square" stroke-miterlimit="10" stroke-linejoin="miter" fill="none" stroke="#f3f3f3" d="M 44.7 24.246876 L 44.7 257.5269 "/>
<path transform="matrix(1,0,0,-1,0,264.72688)" stroke-width="3" stroke-linecap="square" stroke-miterlimit="10" stroke-linejoin="miter" fill="none" stroke="#f3f3f3" d="M 420.54 24.246876 L 420.54 257.5269 "/>
<path transform="matrix(1,0,0,-1,0,264.72688)" stroke-width="3" stroke-linecap="square" stroke-miterlimit="10" stroke-linejoin="miter" fill="none" stroke="#f3f3f3" d="M 44.7 24.246876 L 420.54 24.246876 "/>
<path transform="matrix(1,0,0,-1,0,264.72688)" stroke-width="3" stroke-linecap="square" stroke-miterlimit="10" stroke-linejoin="miter" fill="none" stroke="#f3f3f3" d="M 44.7 257.5269 L 420.54 257.5269 "/>
<g>
<path transform="matrix(1,0,0,-1,0,264.72688)" d="M 54.5 184.68625 L 216.19063 184.68625 C 218.0573 184.68625 218.99063 185.61959 218.99063 187.48625 L 218.99063 247.72687 C 218.99063 249.59354 218.0573 250.52687 216.19063 250.52687 L 54.5 250.52687 C 52.63333 250.52687 51.7 249.59354 51.7 247.72687 L 51.7 187.48625 C 51.7 185.61959 52.63333 184.68625 54.5 184.68625 Z " fill="#f3f3f3" fill-opacity=".8"/>
<path transform="matrix(1,0,0,-1,0,264.72688)" stroke-width=".5" stroke-linecap="butt" stroke-miterlimit="10" stroke-linejoin="miter" fill="none" stroke="#d5d6d5" stroke-opacity=".8" d="M 54.5 184.68625 L 216.19063 184.68625 C 218.0573 184.68625 218.99063 185.61959 218.99063 187.48625 L 218.99063 247.72687 C 218.99063 249.59354 218.0573 250.52687 216.19063 250.52687 L 54.5 250.52687 C 52.63333 250.52687 51.7 249.59354 51.7 247.72687 L 51.7 187.48625 C 51.7 185.61959 52.63333 184.68625 54.5 184.68625 Z "/>
</g>
<path transform="matrix(1,0,0,-1,0,264.72688)" stroke-width="1.7" stroke-linecap="butt" stroke-linejoin="round" fill="none" stroke="#2573ba" d="M 57.3 239.18625 L 85.3 239.18625 "/>
<symbol id="font_1_74">
<path transform="matrix(.001,0,0,.001,-.027,0)" d="M 183 702 L 183 547 L 368 547 L 368 477 L 183 477 L 183 180 C 183 135 189 106 201 94 C 213 81 238 75 276 75 L 368 75 L 368 0 L 276 0 C 206 0 158 13 132 39 C 106 65 93 112 93 180 L 93 477 L 27 477 L 27 547 L 93 547 L 93 702 L 183 702 "/>
</symbol>
<symbol id="font_1_72">
<path transform="matrix(.001,0,0,.001,-.091000009,0)" d="M 411 463 C 401 469 390 473 378 476 C 366 478 353 480 339 480 C 288 480 249 463 222 430 C 194 397 181 350 181 288 L 181 0 L 91 0 L 91 547 L 181 547 L 181 462 C 199 495 224 520 254 536 C 284 552 321 560 365 560 C 371 560 378 559 386 559 C 393 558 401 557 411 555 L 411 463 "/>
</symbol>
<symbol id="font_1_61">
<path transform="matrix(.001,0,0,.001,-.060000004,.013)" d="M 343 275 C 270 275 220 266 192 250 C 164 233 150 205 150 165 C 150 133 160 107 181 89 C 202 70 231 61 267 61 C 317 61 357 78 387 114 C 417 149 432 196 432 255 L 432 275 L 343 275 M 522 312 L 522 0 L 432 0 L 432 83 C 411 49 385 25 355 10 C 325 -5 287 -13 243 -13 C 187 -13 142 2 109 33 C 76 64 60 106 60 159 C 60 220 80 266 122 298 C 163 329 224 345 306 345 L 432 345 L 432 354 C 432 395 418 427 391 450 C 364 472 326 484 277 484 C 245 484 215 480 185 472 C 155 464 127 453 100 439 L 100 522 C 132 534 164 544 195 550 C 226 556 256 560 286 560 C 365 560 424 539 463 498 C 502 457 522 395 522 312 "/>
</symbol>
<symbol id="font_1_69">
<path transform="matrix(.001,0,0,.001,-.094000007,0)" d="M 94 547 L 184 547 L 184 0 L 94 0 L 94 547 M 94 760 L 184 760 L 184 646 L 94 646 L 94 760 "/>
</symbol>
<symbol id="font_1_6e">
<path transform="matrix(.001,0,0,.001,-.091000009,0)" d="M 549 330 L 549 0 L 459 0 L 459 327 C 459 379 448 417 428 443 C 408 469 378 482 338 482 C 289 482 251 466 223 435 C 195 404 181 362 181 309 L 181 0 L 91 0 L 91 547 L 181 547 L 181 462 C 202 494 227 519 257 535 C 286 551 320 560 358 560 C 420 560 468 540 500 501 C 532 462 549 405 549 330 "/>
</symbol>
<symbol id="font_1_65">
<path transform="matrix(.001,0,0,.001,-.055000005,.013)" d="M 562 296 L 562 252 L 149 252 C 153 190 171 142 205 110 C 238 78 284 62 344 62 C 378 62 412 66 444 74 C 476 82 509 95 541 113 L 541 28 C 509 14 476 3 442 -3 C 408 -9 373 -13 339 -13 C 251 -13 182 12 131 62 C 80 112 55 181 55 268 C 55 357 79 428 127 481 C 175 533 241 560 323 560 C 397 560 455 536 498 489 C 540 441 562 377 562 296 M 472 322 C 471 371 457 410 431 440 C 404 469 368 484 324 484 C 274 484 234 469 204 441 C 174 413 156 373 152 322 L 472 322 "/>
</symbol>
<symbol id="font_1_64">
<path transform="matrix(.001,0,0,.001,-.055000005,.013)" d="M 454 464 L 454 760 L 544 760 L 544 0 L 454 0 L 454 82 C 435 49 411 25 382 10 C 353 -5 319 -13 279 -13 C 213 -13 159 13 117 65 C 75 117 55 187 55 273 C 55 359 75 428 117 481 C 159 533 213 560 279 560 C 319 560 353 552 382 536 C 411 520 435 496 454 464 M 148 273 C 148 207 161 155 188 117 C 215 79 253 61 301 61 C 348 61 385 79 413 117 C 440 155 454 207 454 273 C 454 339 440 390 413 428 C 385 466 348 485 301 485 C 253 485 215 466 188 428 C 161 390 148 339 148 273 "/>
</symbol>
<symbol id="font_1_20">
</symbol>
<symbol id="font_1_6d">
<path transform="matrix(.001,0,0,.001,-.091000009,0)" d="M 520 442 C 542 482 569 511 600 531 C 631 550 668 560 711 560 C 767 560 811 540 842 500 C 873 460 889 403 889 330 L 889 0 L 799 0 L 799 327 C 799 379 789 418 771 444 C 752 469 724 482 686 482 C 639 482 602 466 575 435 C 548 404 535 362 535 309 L 535 0 L 445 0 L 445 327 C 445 379 435 418 417 444 C 398 469 369 482 331 482 C 285 482 248 466 221 435 C 194 404 181 362 181 309 L 181 0 L 91 0 L 91 547 L 181 547 L 181 462 C 201 495 226 520 255 536 C 283 552 317 560 357 560 C 397 560 430 550 458 530 C 486 510 506 480 520 442 "/>
</symbol>
<symbol id="font_1_6f">
<path transform="matrix(.001,0,0,.001,-.055000005,.013)" d="M 306 484 C 258 484 220 465 192 427 C 164 389 150 338 150 273 C 150 207 163 156 191 118 C 219 80 257 62 306 62 C 354 62 392 80 420 118 C 448 156 462 207 462 273 C 462 337 448 389 420 427 C 392 465 354 484 306 484 M 306 560 C 384 560 445 534 490 484 C 534 433 557 363 557 273 C 557 183 534 113 490 63 C 445 12 384 -13 306 -13 C 227 -13 165 12 121 63 C 77 113 55 183 55 273 C 55 363 77 433 121 484 C 165 534 227 560 306 560 "/>
</symbol>
<symbol id="font_1_6c">
<path transform="matrix(.001,0,0,.001,-.094000007,0)" d="M 94 760 L 184 760 L 184 0 L 94 0 L 94 760 "/>
</symbol>
<use xlink:href="#font_1_74" transform="matrix(14,0,0,-14,96.878,30.440613)"/>
<use xlink:href="#font_1_72" transform="matrix(14,0,0,-14,103.262,30.440613)"/>
<use xlink:href="#font_1_61" transform="matrix(14,0,0,-14,108.58199,30.622612)"/>
<use xlink:href="#font_1_69" transform="matrix(14,0,0,-14,117.64,30.440613)"/>
<use xlink:href="#font_1_6e" transform="matrix(14,0,0,-14,121.49,30.440613)"/>
<use xlink:href="#font_1_65" transform="matrix(14,0,0,-14,129.862,30.622612)"/>
<use xlink:href="#font_1_64" transform="matrix(14,0,0,-14,138.472,30.622612)"/>
<use xlink:href="#font_1_20" transform="matrix(14,0,0,-14,132.29799,36.922616)"/>
<use xlink:href="#font_1_6d" transform="matrix(14,0,0,-14,152.318,30.440613)"/>
<use xlink:href="#font_1_6f" transform="matrix(14,0,0,-14,165.45,30.622612)"/>
<use xlink:href="#font_1_64" transform="matrix(14,0,0,-14,174.01799,30.622612)"/>
<use xlink:href="#font_1_65" transform="matrix(14,0,0,-14,182.90799,30.622612)"/>
<use xlink:href="#font_1_6c" transform="matrix(14,0,0,-14,192.06398,30.440613)"/>
<path transform="matrix(1,0,0,-1,0,264.72688)" d="M 71.3 216.13938 C 71.963008 216.13938 72.59895 216.40279 73.067768 216.87162 C 73.53658 217.34043 73.8 217.97637 73.8 218.63938 C 73.8 219.30239 73.53658 219.93833 73.067768 220.40714 C 72.59895 220.87596 71.963008 221.13938 71.3 221.13938 C 70.63699 221.13938 70.00105 220.87596 69.532238 220.40714 C 69.063419 219.93833 68.8 219.30239 68.8 218.63938 C 68.8 217.97637 69.063419 217.34043 69.532238 216.87162 C 70.00105 216.40279 70.63699 216.13938 71.3 216.13938 Z " fill="#f5294e"/>
<path transform="matrix(1,0,0,-1,0,264.72688)" stroke-width="1" stroke-linecap="butt" stroke-linejoin="round" fill="none" stroke="#f5294e" d="M 71.3 216.13938 C 71.963008 216.13938 72.59895 216.40279 73.067768 216.87162 C 73.53658 217.34043 73.8 217.97637 73.8 218.63938 C 73.8 219.30239 73.53658 219.93833 73.067768 220.40714 C 72.59895 220.87596 71.963008 221.13938 71.3 221.13938 C 70.63699 221.13938 70.00105 220.87596 69.532238 220.40714 C 69.063419 219.93833 68.8 219.30239 68.8 218.63938 C 68.8 217.97637 69.063419 217.34043 69.532238 216.87162 C 70.00105 216.40279 70.63699 216.13938 71.3 216.13938 Z "/>
<symbol id="font_1_67">
<path transform="matrix(.001,0,0,.001,-.055000005,.20700002)" d="M 454 280 C 454 344 440 395 414 431 C 387 467 349 485 301 485 C 253 485 215 467 188 431 C 161 395 148 344 148 280 C 148 215 161 165 188 129 C 215 93 253 75 301 75 C 349 75 387 93 414 129 C 440 165 454 215 454 280 M 544 68 C 544 -24 523 -93 482 -139 C 440 -184 377 -207 292 -207 C 260 -207 231 -204 203 -200 C 175 -195 147 -188 121 -178 L 121 -91 C 147 -105 173 -115 199 -122 C 225 -129 251 -133 278 -133 C 336 -133 380 -117 410 -87 C 439 -56 454 -10 454 52 L 454 96 C 435 64 411 40 382 24 C 353 8 319 0 279 0 C 211 0 157 25 116 76 C 75 127 55 195 55 280 C 55 364 75 432 116 483 C 157 534 211 560 279 560 C 319 560 353 552 382 536 C 411 520 435 496 454 464 L 454 547 L 544 547 L 544 68 "/>
</symbol>
<symbol id="font_1_73">
<path transform="matrix(.001,0,0,.001,-.054,.013)" d="M 443 531 L 443 446 C 417 458 391 468 364 475 C 336 481 308 485 279 485 C 234 485 200 478 178 464 C 156 450 145 430 145 403 C 145 382 153 366 169 354 C 185 342 217 330 265 320 L 296 313 C 360 299 405 279 432 255 C 458 230 472 195 472 151 C 472 100 452 60 412 31 C 372 1 316 -13 246 -13 C 216 -13 186 -10 154 -5 C 122 0 89 8 54 20 L 54 113 C 87 95 120 82 152 74 C 184 65 216 61 248 61 C 290 61 323 68 346 82 C 368 96 380 117 380 144 C 380 168 371 187 355 200 C 339 213 303 226 247 238 L 216 245 C 160 257 119 275 95 299 C 70 323 58 356 58 399 C 58 450 76 490 112 518 C 148 546 200 560 268 560 C 301 560 332 557 362 552 C 391 547 418 540 443 531 "/>
</symbol>
<symbol id="font_1_70">
<path transform="matrix(.001,0,0,.001,-.091000009,.20700002)" d="M 181 82 L 181 -207 L 91 -207 L 91 547 L 181 547 L 181 464 C 199 496 223 520 252 536 C 281 552 316 560 356 560 C 422 560 476 533 518 481 C 559 428 580 359 580 273 C 580 187 559 117 518 65 C 476 13 422 -13 356 -13 C 316 -13 281 -5 252 10 C 223 25 199 49 181 82 M 487 273 C 487 339 473 390 446 428 C 418 466 381 485 334 485 C 286 485 249 466 222 428 C 194 390 181 339 181 273 C 181 207 194 155 222 117 C 249 79 286 61 334 61 C 381 61 418 79 446 117 C 473 155 487 207 487 273 "/>
</symbol>
<use xlink:href="#font_1_74" transform="matrix(14,0,0,-14,96.878,50.987489)"/>
<use xlink:href="#font_1_72" transform="matrix(14,0,0,-14,103.262,50.987489)"/>
<use xlink:href="#font_1_61" transform="matrix(14,0,0,-14,108.58199,51.169488)"/>
<use xlink:href="#font_1_69" transform="matrix(14,0,0,-14,117.64,50.987489)"/>
<use xlink:href="#font_1_6e" transform="matrix(14,0,0,-14,121.49,50.987489)"/>
<use xlink:href="#font_1_69" transform="matrix(14,0,0,-14,130.40799,50.987489)"/>
<use xlink:href="#font_1_6e" transform="matrix(14,0,0,-14,134.258,50.987489)"/>
<use xlink:href="#font_1_67" transform="matrix(14,0,0,-14,142.63,53.885488)"/>
<use xlink:href="#font_1_20" transform="matrix(14,0,0,-14,136.456,57.46949)"/>
<use xlink:href="#font_1_73" transform="matrix(14,0,0,-14,155.958,51.169488)"/>
<use xlink:href="#font_1_61" transform="matrix(14,0,0,-14,163.336,51.169488)"/>
<use xlink:href="#font_1_6d" transform="matrix(14,0,0,-14,172.352,50.987489)"/>
<use xlink:href="#font_1_70" transform="matrix(14,0,0,-14,185.988,53.885488)"/>
<use xlink:href="#font_1_6c" transform="matrix(14,0,0,-14,194.92,50.987489)"/>
<use xlink:href="#font_1_65" transform="matrix(14,0,0,-14,198.266,51.169488)"/>
<use xlink:href="#font_1_73" transform="matrix(14,0,0,-14,206.862,51.169488)"/>
<path transform="matrix(1,0,0,-1,0,264.72688)" d="M 67.8 194.5925 L 74.8 201.5925 M 67.8 201.5925 L 74.8 194.5925 " fill="#14b03e"/>
<path transform="matrix(1,0,0,-1,0,264.72688)" stroke-width="1" stroke-linecap="butt" stroke-linejoin="round" fill="none" stroke="#14b03e" d="M 67.8 194.5925 L 74.8 201.5925 M 67.8 201.5925 L 74.8 194.5925 "/>
<symbol id="font_1_77">
<path transform="matrix(.001,0,0,.001,-.042000005,0)" d="M 42 547 L 132 547 L 244 120 L 356 547 L 462 547 L 574 120 L 686 547 L 776 547 L 633 0 L 527 0 L 409 448 L 291 0 L 185 0 L 42 547 "/>
</symbol>
<use xlink:href="#font_1_6e" transform="matrix(14,0,0,-14,97.774,71.53436)"/>
<use xlink:href="#font_1_65" transform="matrix(14,0,0,-14,106.145999,71.71636)"/>
<use xlink:href="#font_1_77" transform="matrix(14,0,0,-14,114.574,71.53436)"/>
<use xlink:href="#font_1_20" transform="matrix(14,0,0,-14,111.144008,78.016368)"/>
<use xlink:href="#font_1_73" transform="matrix(14,0,0,-14,130.646,71.71636)"/>
<use xlink:href="#font_1_61" transform="matrix(14,0,0,-14,138.024,71.71636)"/>
<use xlink:href="#font_1_6d" transform="matrix(14,0,0,-14,147.04001,71.53436)"/>
<use xlink:href="#font_1_70" transform="matrix(14,0,0,-14,160.67601,74.432369)"/>
<use xlink:href="#font_1_6c" transform="matrix(14,0,0,-14,169.608,71.53436)"/>
<use xlink:href="#font_1_65" transform="matrix(14,0,0,-14,172.95401,71.71636)"/>
<use xlink:href="#font_1_73" transform="matrix(14,0,0,-14,181.55,71.71636)"/>
</g>
</g>
</svg>
