<?xml version="1.0" encoding="UTF-8"?>
<svg xmlns="http://www.w3.org/2000/svg" xmlns:xlink="http://www.w3.org/1999/xlink" width="287.041pt" height="165.998pt" viewBox="0 0 287.041 165.998" version="1.1">
<defs>
<clipPath id="clip1">
  <path d="M 0 0 L 287.039062 0 L 287.039062 165.996094 L 0 165.996094 Z M 0 0 "/>
</clipPath>
</defs>
<g id="surface1">
<g clip-path="url(#clip1)" clip-rule="nonzero">
<path style=" stroke:none;fill-rule:nonzero;fill:rgb(94.099426%,94.099426%,94.099426%);fill-opacity:1;" d="M 0 165.996094 L 287.039062 165.996094 L 287.039062 0 L 0 0 Z M 0 165.996094 "/>
</g>
<path style=" stroke:none;fill-rule:nonzero;fill:rgb(41.999817%,41.999817%,41.999817%);fill-opacity:1;" d="M 163.597656 127.429688 C 163.597656 118.203125 162.425781 109.046875 162.492188 99.835938 C 162.546875 90.625 162.648438 81.363281 163.386719 72.085938 C 164.136719 63.136719 164.886719 54.222656 165.363281 45.257812 C 165.71875 40.898438 165.792969 36.519531 165.578125 32.148438 C 165.246094 27.886719 165.445312 23.5625 164.53125 19.398438 C 164.347656 18.558594 163.425781 14.027344 164.835938 14.148438 C 165.75 14.238281 165.585938 15.214844 165.585938 15.875 C 165.660156 17.117188 165.863281 18.347656 166.195312 19.546875 C 167.203125 23.53125 166.984375 28.15625 166.984375 32.25 C 166.984375 36.890625 166.894531 41.503906 166.746094 46.132812 C 166.609375 50.46875 166.121094 54.765625 165.925781 59.09375 C 165.535156 67.71875 164.324219 76.246094 164.125 84.863281 C 164.011719 89.625 163.929688 94.378906 163.871094 99.113281 C 163.824219 103.359375 164.253906 107.566406 164.445312 111.789062 C 164.902344 122.238281 164.847656 132.722656 165.488281 143.152344 C 165.5625 144.335938 165.488281 145.566406 165.621094 146.738281 C 165.691406 147.398438 166.496094 149.109375 165.125 148.941406 C 163.625 148.761719 164.179688 143.691406 164.144531 142.664062 C 163.960938 137.585938 163.949219 132.449219 163.574219 127.386719 C 163.597656 126.132812 163.785156 129.882812 163.597656 127.429688 "/>
<path style=" stroke:none;fill-rule:nonzero;fill:rgb(0%,0%,0%);fill-opacity:1;" d="M 91.980469 120.085938 L 92.140625 119.546875 C 86.535156 119.464844 80.84375 119.996094 75.230469 120.132812 C 74.234375 120.132812 72.1875 119.929688 71.304688 120.386719 C 70.21875 120.949219 71.761719 122.390625 70.992188 123.042969 C 70.0625 123.839844 69.847656 122 69.6875 121.542969 C 69.164062 120.042969 68.339844 120.546875 66.847656 120.644531 C 64.070312 120.824219 61.277344 120.832031 58.496094 120.960938 C 57.746094 120.960938 56.164062 120.722656 55.734375 121.484375 C 55.53125 121.84375 56.410156 124.703125 55.03125 124.0625 C 54.0625 123.613281 54.949219 122.039062 54.425781 121.484375 C 53.898438 120.929688 51.992188 121.257812 51.203125 121.257812 C 50.414062 121.257812 44.132812 121.761719 45.640625 120.125 C 46.160156 119.5625 48.105469 119.839844 48.714844 119.839844 L 52.777344 119.839844 C 55.824219 119.839844 58.839844 119.710938 61.886719 119.570312 C 67.621094 119.308594 73.359375 119.097656 79.136719 118.820312 C 81.800781 118.691406 84.449219 118.699219 87.113281 118.625 C 88.082031 118.625 90.351562 118.84375 91.164062 118.316406 C 92.226562 117.632812 91.441406 115.765625 92.007812 115.375 C 92.894531 114.765625 92.851562 116.433594 92.875 116.925781 C 92.875 117.675781 92.65625 117.953125 93.242188 118.253906 L 93.246094 118.257812 C 93.84375 118.355469 94.445312 118.355469 95.039062 118.257812 C 97.988281 118.210938 100.941406 118.109375 103.894531 118.078125 C 110.527344 118.019531 117.175781 118.445312 123.808594 118.265625 C 127.039062 118.175781 130.269531 118.09375 133.507812 118.078125 L 138.078125 118.078125 L 138.074219 118.074219 C 138.683594 117.992188 139.292969 117.992188 139.898438 118.074219 C 140.554688 118.285156 140.648438 118.695312 141.140625 119.09375 C 141.234375 119.722656 135.25 119.242188 134.8125 119.242188 L 134.808594 119.246094 C 131.996094 119.144531 129.1875 119.1875 126.386719 119.382812 C 123.777344 119.585938 121.160156 119.625 118.554688 119.5 C 117.417969 119.5 115.984375 119.125 114.875 119.320312 C 113.894531 119.492188 113.972656 119.566406 113.816406 120.601562 C 113.734375 121.140625 113.816406 122.933594 113.011719 122.746094 C 112.199219 122.558594 112.648438 120.878906 112.5625 120.339844 C 112.371094 119.199219 112.1875 119.304688 111 119.265625 C 109.816406 119.226562 108.601562 119.207031 107.398438 119.207031 C 104.769531 119.207031 102.148438 119.265625 99.5 119.320312 C 98.0625 119.320312 96.621094 119.367188 95.175781 119.417969 L 95.179688 119.417969 C 94.542969 119.390625 93.910156 119.414062 93.285156 119.484375 C 92.390625 119.679688 93.414062 120.0625 91.988281 120.0625 C 92.03125 119.898438 92.261719 120.085938 91.980469 120.085938 "/>
<path style=" stroke:none;fill-rule:nonzero;fill:rgb(0%,0%,0%);fill-opacity:1;" d="M 233.074219 74.246094 C 232.050781 72.964844 232.6875 72.707031 233.074219 71.246094 C 233.339844 70.058594 233.464844 68.839844 233.449219 67.625 C 233.464844 66.0625 233.386719 64.503906 233.214844 62.949219 C 233.117188 61.890625 233.371094 59.527344 232.53125 58.765625 C 231.871094 58.164062 230.097656 58.546875 229.207031 58.570312 C 227.453125 58.570312 225.710938 58.75 223.957031 58.789062 C 220.46875 58.878906 217.035156 59.007812 213.550781 59.230469 C 210.550781 59.433594 207.507812 59.566406 204.496094 59.980469 C 202.8125 60.191406 201.128906 60.421875 199.46875 60.730469 C 198.800781 60.851562 196.558594 61.601562 196.996094 60.355469 C 197.425781 59.109375 204.242188 58.902344 205.457031 58.773438 C 208.894531 58.40625 212.34375 58.136719 215.804688 57.910156 C 218.949219 57.707031 222.09375 57.617188 225.242188 57.527344 C 226.886719 57.480469 228.542969 57.4375 230.179688 57.363281 C 231.480469 57.3125 233.035156 56.6875 233.828125 57.617188 C 234.625 58.546875 234.367188 60.820312 234.421875 61.882812 C 234.484375 63.128906 234.675781 64.359375 234.734375 65.632812 C 234.875 68.585938 234.050781 71.484375 234.050781 74.347656 C 234.050781 75.382812 234.371094 75.503906 233.117188 75.847656 C 231.71875 76.214844 229.496094 75.847656 228.039062 75.800781 C 224.71875 75.734375 221.417969 75.671875 218.105469 75.734375 C 214.800781 75.792969 211.59375 75.898438 208.355469 75.972656 C 205.121094 76.046875 201.148438 76.625 197.90625 76.054688 C 197.011719 75.898438 195.207031 74.882812 197.042969 74.480469 C 198.878906 74.074219 197.21875 74.734375 198.257812 74.9375 L 198.257812 74.945312 C 199.132812 75.054688 200.011719 75.082031 200.894531 75.027344 C 204.179688 75.027344 207.390625 74.960938 210.644531 74.71875 C 214.484375 74.433594 218.539062 74.71875 222.390625 74.71875 L 227.886719 74.71875 C 229.332031 74.71875 231.847656 75.199219 233.054688 74.3125 C 232.980469 74.125 232.636719 74.570312 233.074219 74.246094 "/>
<path style=" stroke:none;fill-rule:nonzero;fill:rgb(0%,0%,0%);fill-opacity:1;" d="M 44.582031 63.558594 C 45.46875 63.054688 44.917969 59.199219 44.925781 58.308594 L 44.925781 52.308594 C 44.925781 51.6875 44.679688 50.898438 45.375 50.808594 C 46.207031 50.710938 45.992188 52.152344 46.023438 52.8125 C 46.09375 54.574219 45.984375 56.367188 45.941406 58.128906 C 45.859375 61.878906 45.804688 65.6875 45.730469 69.46875 C 45.730469 71.328125 45.617188 73.21875 45.527344 75.042969 C 45.464844 76.542969 45.839844 78.558594 44.4375 79.296875 C 44.027344 76.589844 44.558594 73.53125 44.632812 70.785156 L 44.636719 70.78125 C 44.765625 68.375 44.738281 65.960938 44.558594 63.558594 C 44.9375 63.355469 44.636719 63.882812 44.582031 63.558594 "/>
<path style=" stroke:none;fill-rule:nonzero;fill:rgb(0%,0%,0%);fill-opacity:1;" d="M 231.332031 94.976562 C 232.019531 95.621094 232.609375 97.976562 233.378906 96.566406 C 233.875 95.675781 233.125 93.566406 234.734375 93.925781 C 234.894531 94.226562 234.960938 94.570312 234.925781 94.910156 C 235.214844 94.941406 235.507812 94.851562 235.726562 94.660156 C 236.476562 94.570312 237.035156 94.210938 237.886719 94.503906 C 238.535156 94.707031 239.058594 95.191406 239.3125 95.824219 C 239.5625 96.460938 239.515625 97.171875 239.179688 97.765625 C 238.523438 98.71875 236.601562 99.265625 235.785156 98.207031 C 235.308594 97.585938 236.335938 95.117188 235.175781 95.207031 C 234.582031 95.257812 234.425781 98.160156 233.535156 98.671875 C 232.210938 99.421875 231.683594 97.277344 230.808594 96.625 C 230.75 97.316406 230.941406 99.09375 229.960938 99.191406 C 228.976562 99.289062 229.210938 96.632812 229.339844 96.101562 C 230.089844 97.511719 231.230469 96.042969 231.324219 94.960938 C 231.863281 95.476562 231.3125 95.207031 231.332031 94.976562 M 236.9375 95.613281 C 236.734375 96.597656 236.140625 97.8125 237.542969 97.570312 C 239.296875 97.269531 238.191406 95.65625 236.9375 95.613281 C 236.851562 96.054688 237.503906 95.636719 236.9375 95.613281 "/>
<path style=" stroke:none;fill-rule:nonzero;fill:rgb(0%,0%,0%);fill-opacity:1;" d="M 144.144531 132.035156 C 143.613281 132.175781 141.042969 134.546875 141.609375 132.273438 C 141.789062 131.523438 144.746094 130.171875 143.59375 129.273438 C 142.984375 128.792969 141.050781 130.773438 141.414062 128.6875 C 141.703125 126.984375 143.800781 127.871094 144.609375 128.183594 L 144.609375 128.1875 C 144.792969 128.359375 144.996094 128.515625 145.214844 128.652344 C 145.414062 128.613281 145.609375 128.53125 145.773438 128.410156 C 146.414062 128.410156 146.867188 127.765625 146.945312 128.890625 C 147.019531 130.015625 144.632812 131.101562 145.699219 132.214844 C 146.121094 132.648438 149.246094 132.394531 147.199219 133.617188 C 145.699219 134.515625 144.628906 133.273438 144.148438 132.035156 C 143.394531 132.242188 144.292969 132.410156 144.144531 132.035156 "/>
<path style=" stroke:none;fill-rule:nonzero;fill:rgb(0%,0%,0%);fill-opacity:1;" d="M 197.242188 84.828125 C 198.742188 83.207031 200.398438 81.6875 202.046875 80.179688 C 202.796875 79.519531 205.796875 76.03125 206.777344 76.480469 C 207.765625 76.929688 204.382812 79.351562 203.960938 79.742188 L 203.957031 79.742188 C 202.15625 81.265625 200.449219 82.882812 198.835938 84.597656 C 198.195312 85.347656 198.238281 85.347656 198.507812 86.179688 C 198.765625 87.011719 199.207031 87.542969 198.617188 88.324219 C 198.222656 88.847656 194.117188 90.058594 193.652344 89.578125 C 192.480469 88.402344 196.597656 88.078125 196.980469 87.9375 C 197.554688 87.726562 198.417969 87.277344 197.675781 86.625 C 197.070312 86.09375 196.511719 87.074219 196.367188 86.003906 C 197.375 86.003906 198.171875 85.953125 197.238281 84.832031 C 199.445312 82.480469 197.363281 84.972656 197.242188 84.828125 "/>
<path style=" stroke:none;fill-rule:nonzero;fill:rgb(96.099854%,16.099548%,30.599976%);fill-opacity:1;" d="M 106.136719 89.945312 C 106.226562 89.324219 105.316406 89.332031 105.519531 88.664062 C 105.726562 87.996094 106.867188 88.703125 107.324219 88.664062 C 108.824219 88.507812 109.6875 86.277344 110.746094 85.476562 C 111.203125 85.132812 111.675781 84.605469 112.089844 85.402344 C 112.503906 86.199219 111.339844 86.902344 110.984375 87.21875 C 109.960938 88.179688 108.09375 88.921875 108.8125 90.421875 C 108.949219 90.707031 111.339844 92.933594 109.742188 93.160156 C 109.335938 93.210938 108.714844 91.523438 108.339844 91.292969 C 107.542969 90.804688 107.222656 90.964844 106.480469 91.578125 C 106.171875 91.832031 103.96875 94.652344 103.480469 92.84375 C 103.109375 91.410156 106.046875 91.214844 106.101562 89.949219 C 106.136719 89.636719 106.136719 90.296875 106.136719 89.945312 "/>
<path style=" stroke:none;fill-rule:nonzero;fill:rgb(96.099854%,16.099548%,30.599976%);fill-opacity:1;" d="M 237.554688 108.730469 C 237.667969 110.230469 235.09375 111.167969 234.953125 112.699219 C 234.878906 113.5 236.910156 116.042969 236.136719 116.589844 C 235.203125 117.257812 234.417969 114.378906 233.886719 114.0625 C 232.734375 113.363281 231.363281 116.628906 230.511719 115.847656 C 229.664062 115.066406 232.761719 113.269531 232.761719 112.269531 C 232.761719 111.765625 230.601562 110.402344 232.113281 110.175781 C 232.800781 110.070312 233.191406 111.347656 233.789062 111.351562 C 234.394531 111.359375 234.875 110.527344 235.289062 110.070312 C 235.519531 109.800781 237.324219 107.160156 237.539062 108.734375 C 237.574219 108.984375 237.527344 108.527344 237.554688 108.730469 "/>
<path style=" stroke:none;fill-rule:nonzero;fill:rgb(0%,0%,0%);fill-opacity:1;" d="M 32.277344 31.285156 C 31.394531 31.066406 31.289062 32.734375 30.347656 32.589844 C 28.847656 32.363281 29.878906 30.953125 30.347656 30.421875 C 30.6875 30 31.28125 29.671875 31.035156 29.019531 C 30.8125 28.53125 30.234375 28.308594 29.738281 28.519531 C 29.371094 28.675781 28.238281 30.433594 28.335938 28.347656 C 28.402344 27.269531 29.753906 26.921875 30.585938 27.214844 C 32.085938 27.730469 31.476562 28.871094 32.765625 27.589844 C 33.421875 26.9375 34.621094 26.351562 34.3125 27.996094 C 34.066406 29.324219 33.019531 29.632812 33.429688 31.273438 L 32.304688 31.273438 C 32.03125 31.226562 32.636719 31.277344 32.277344 31.285156 "/>
<path style=" stroke:none;fill-rule:nonzero;fill:rgb(96.099854%,16.099548%,30.599976%);fill-opacity:1;" d="M 135.878906 82.105469 C 136.140625 82.519531 138.722656 84.207031 138.664062 84.617188 C 138.503906 85.816406 136.738281 84.617188 136.3125 84.292969 L 136.3125 84.296875 C 135.851562 83.875 135.328125 83.527344 134.761719 83.277344 C 134.011719 83.074219 133.554688 83.773438 132.980469 83.683594 C 131.425781 83.4375 133.152344 82.882812 132.980469 82.183594 C 132.847656 81.613281 130.902344 81.019531 132.765625 80.59375 C 133.398438 80.453125 133.882812 81.164062 134.519531 81.105469 C 135.152344 81.046875 135.789062 80.304688 136.296875 79.859375 C 136.800781 79.417969 138.351562 77.660156 138.664062 79.109375 C 138.859375 79.988281 136.414062 81.710938 135.867188 82.109375 C 136.253906 82.699219 136.765625 81.460938 135.878906 82.105469 "/>
<path style=" stroke:none;fill-rule:nonzero;fill:rgb(0%,0%,0%);fill-opacity:1;" d="M 43.554688 33.714844 C 43.132812 33.265625 42.804688 34.164062 42.394531 33.820312 C 41.804688 33.308594 42.5625 32.484375 42.851562 31.976562 L 42.855469 31.976562 C 43.351562 31.222656 43.78125 30.433594 44.152344 29.613281 C 44.335938 28.8125 44.445312 28 44.5 27.183594 C 45.011719 24.796875 46.136719 27.132812 46.636719 28.277344 C 47.539062 30.035156 48.308594 31.859375 48.9375 33.730469 C 48.355469 33.660156 47.789062 33.515625 47.246094 33.304688 C 47.726562 32.726562 46.8125 31.683594 46.375 31.429688 C 46.429688 30.617188 46.070312 29.835938 45.429688 29.34375 C 45.238281 30.132812 42.90625 33.28125 43.554688 33.714844 "/>
<path style=" stroke:none;fill-rule:nonzero;fill:rgb(0%,0%,0%);fill-opacity:1;" d="M 200.09375 66.882812 C 199.914062 66.210938 200.113281 65.496094 200.613281 65.015625 C 201.113281 64.535156 201.835938 64.359375 202.5 64.5625 C 203.097656 64.789062 203.027344 65.785156 203.304688 65.90625 C 203.824219 66.125 204.21875 64.839844 204.703125 64.652344 C 206.761719 63.902344 204.347656 66.796875 204.074219 67.246094 L 204.074219 67.25 C 203.660156 67.710938 203.613281 68.398438 203.960938 68.914062 C 204.273438 69.347656 205.765625 69.664062 204.4375 70.089844 C 202.636719 70.628906 203.15625 68.328125 202.34375 67.976562 C 201.765625 67.722656 200.09375 69.890625 199.851562 68.523438 C 199.683594 67.617188 203.070312 66.527344 202.15625 65.523438 C 201.609375 64.910156 200.871094 66.144531 200.738281 66.273438 C 200.410156 66.601562 201.144531 67.0625 200.082031 66.886719 C 200.011719 66.648438 200.191406 66.882812 200.09375 66.882812 "/>
<path style=" stroke:none;fill-rule:nonzero;fill:rgb(96.099854%,16.099548%,30.599976%);fill-opacity:1;" d="M 115.058594 68.195312 C 115.152344 69.695312 113.257812 69.933594 112.980469 71.195312 C 112.742188 72.269531 114.480469 72.941406 114.480469 74.121094 C 114.480469 74.4375 114.433594 75.171875 113.917969 75.105469 C 113.398438 75.039062 113.550781 74.289062 113.339844 73.898438 C 112.425781 72.234375 111.433594 72.683594 110.128906 73.277344 C 108.4375 74.027344 109.542969 73.136719 109.679688 72.292969 C 109.8125 71.453125 108.363281 70.402344 110.085938 70.289062 C 110.835938 70.242188 110.90625 70.867188 111.785156 70.445312 C 112.296875 70.066406 112.753906 69.625 113.140625 69.125 C 113.324219 68.90625 114.988281 66.34375 115.082031 68.179688 C 115.089844 68.703125 115.054688 67.953125 115.058594 68.195312 "/>
<path style=" stroke:none;fill-rule:nonzero;fill:rgb(0%,0%,0%);fill-opacity:1;" d="M 197.675781 74.382812 C 196.269531 74.269531 195.507812 75.132812 195.195312 73.371094 C 194.957031 72.074219 195.453125 70.453125 195.460938 69.132812 C 195.46875 67.8125 193.960938 61.484375 195.125 60.964844 C 196.289062 60.449219 196.535156 66.542969 196.578125 67.28125 L 196.582031 67.277344 C 196.667969 68.757812 196.632812 70.238281 196.480469 71.710938 C 196.417969 72.273438 196.101562 73.082031 196.339844 73.617188 C 196.6875 74.367188 197.28125 73.730469 197.675781 74.367188 C 197.203125 74.328125 197.367188 73.855469 197.675781 74.382812 "/>
<path style=" stroke:none;fill-rule:nonzero;fill:rgb(0%,0%,0%);fill-opacity:1;" d="M 185.285156 98.097656 C 184.679688 97.601562 182.816406 95.847656 182.722656 95.050781 C 182.59375 94 183.136719 94.390625 183.765625 94.816406 C 184.195312 95.109375 185.3125 97.066406 185.898438 96.839844 C 186.867188 96.496094 186.433594 94.058594 187.144531 93.765625 C 188.410156 93.242188 187.601562 95.949219 187.476562 96.292969 L 187.480469 96.296875 C 186.863281 97.734375 186.144531 99.125 185.324219 100.457031 C 185.023438 100.996094 183.824219 103.847656 183.277344 102.113281 C 183.066406 101.453125 184.96875 98.699219 185.292969 98.09375 C 184.179688 97.1875 184.683594 99.234375 185.285156 98.097656 "/>
<path style=" stroke:none;fill-rule:nonzero;fill:rgb(96.099854%,16.099548%,30.599976%);fill-opacity:1;" d="M 74.972656 101.195312 C 76.097656 101.628906 77.070312 102.636719 78.226562 102.117188 C 78.976562 101.78125 79.636719 99.867188 80.386719 99.980469 C 82.082031 100.257812 79.964844 102.425781 79.636719 102.777344 C 79.308594 103.128906 78.886719 103.324219 78.976562 103.953125 C 79.042969 104.394531 79.808594 104.703125 79.726562 105.183594 C 79.5 106.292969 78.15625 104.679688 77.632812 104.660156 C 77.257812 104.660156 75.027344 106.234375 75.089844 104.945312 C 75.128906 104.082031 76.78125 104.234375 75.792969 103.128906 C 75.515625 102.820312 72.671875 101.507812 74.980469 101.1875 C 75.09375 101.238281 74.636719 101.246094 74.972656 101.195312 "/>
<path style=" stroke:none;fill-rule:nonzero;fill:rgb(96.099854%,16.099548%,30.599976%);fill-opacity:1;" d="M 106.535156 67.632812 C 105.980469 68.9375 103.910156 69.230469 103.425781 70.429688 C 103 71.472656 105.171875 72.214844 104.511719 73.03125 C 104.167969 73.457031 103.011719 72.042969 102.457031 72.070312 C 100.890625 72.160156 101.519531 74.140625 100.597656 74.671875 C 99.363281 75.421875 100.425781 72.421875 100.488281 72.183594 L 100.492188 72.183594 C 100.734375 71.71875 100.757812 71.164062 100.546875 70.683594 C 100.472656 70.285156 99.878906 70.226562 100.269531 69.6875 C 100.65625 69.148438 101.1875 69.875 101.652344 69.90625 C 102.402344 69.945312 103 69.304688 103.566406 68.828125 C 104.261719 68.257812 105.753906 66.300781 106.566406 67.652344 C 106.480469 67.742188 106.464844 67.472656 106.535156 67.632812 "/>
<path style=" stroke:none;fill-rule:nonzero;fill:rgb(96.099854%,16.099548%,30.599976%);fill-opacity:1;" d="M 118.382812 84.003906 C 119.355469 84.132812 119.773438 84.476562 120.488281 83.824219 C 121.199219 83.171875 121.4375 80.945312 122.472656 80.972656 C 124.183594 81.023438 121.9375 83.777344 121.816406 84.265625 C 121.4375 85.8125 123.601562 85.59375 123.46875 87.046875 C 123.328125 88.5 122.230469 86.613281 121.4375 86.378906 C 120.070312 85.964844 119.542969 87.917969 118.53125 87.625 C 117.78125 87.414062 119.390625 86.050781 119.226562 85.621094 C 119.144531 85.410156 116.066406 84.242188 118.375 84 C 118.59375 84.027344 118.207031 84.019531 118.382812 84.003906 "/>
<path style=" stroke:none;fill-rule:nonzero;fill:rgb(0%,0%,0%);fill-opacity:1;" d="M 141.085938 119.101562 C 141.601562 118.433594 141.175781 116.769531 142.054688 116.214844 C 142.933594 115.660156 145.175781 116.964844 145.644531 117.910156 C 146.535156 119.679688 144.285156 120.207031 142.976562 120.609375 C 141.304688 121.136719 140.0625 121.0625 141.085938 119.101562 M 142.28125 119.214844 C 142.929688 119.070312 143.550781 118.832031 144.128906 118.511719 C 142.949219 117.828125 142.414062 117.46875 142.28125 119.214844 C 142.980469 119 142.320312 118.714844 142.28125 119.214844 "/>
<path style=" stroke:none;fill-rule:nonzero;fill:rgb(0%,0%,0%);fill-opacity:1;" d="M 212.984375 66.730469 C 214.011719 67.480469 215.125 68.132812 216.089844 68.921875 C 216.464844 69.222656 217.898438 70.796875 216.460938 70.796875 C 215.894531 70.796875 215.09375 69.613281 214.660156 69.296875 C 213.769531 68.667969 212.359375 68.246094 211.660156 67.390625 C 210.734375 66.234375 211.550781 65.972656 212.675781 65.367188 C 213.269531 65.050781 215.53125 63.164062 216.160156 63.355469 C 218.085938 63.964844 213.25 66.152344 212.964844 66.722656 C 214.132812 67.527344 213.214844 66.28125 212.984375 66.730469 "/>
<path style=" stroke:none;fill-rule:nonzero;fill:rgb(0%,0%,0%);fill-opacity:1;" d="M 109.457031 131.785156 C 109.519531 130.503906 110.433594 129.273438 111.003906 128.15625 C 111.570312 127.039062 112.273438 126.917969 112.109375 128.382812 C 112.007812 129.304688 111.0625 130.054688 110.964844 130.917969 C 110.78125 132.492188 112.019531 131.144531 112.839844 131.03125 C 114.019531 130.875 113.917969 131.546875 113.699219 132.679688 C 113.570312 133.316406 113.753906 134.929688 112.777344 134.644531 C 112.230469 134.503906 112.519531 133.558594 112.28125 133.285156 C 111.8125 132.738281 111.925781 133.113281 111.101562 133.15625 C 110.089844 133.214844 109.429688 133.015625 109.460938 131.785156 C 109.472656 131.382812 109.429688 132.933594 109.457031 131.785156 "/>
<path style=" stroke:none;fill-rule:nonzero;fill:rgb(0%,0%,0%);fill-opacity:1;" d="M 36.078125 31.390625 C 37.226562 30.640625 35.851562 30.324219 36.175781 29.320312 C 36.5 28.316406 37.675781 28.496094 38.171875 29.273438 C 38.75 30.234375 37.960938 30.847656 37.746094 31.726562 C 37.371094 33.226562 38.3125 32.476562 39.597656 32.417969 C 40.148438 32.417969 41.847656 32.613281 41.171875 33.648438 C 40.851562 34.160156 38.832031 34.121094 38.171875 34.160156 C 37.523438 34.285156 36.859375 34.144531 36.320312 33.777344 C 36.058594 33.46875 35.886719 33.089844 35.820312 32.6875 L 35.636719 32.195312 C 35.976562 32.09375 36.179688 31.742188 36.09375 31.398438 C 36.730469 30.957031 36.113281 31.765625 36.078125 31.390625 "/>
<path style=" stroke:none;fill-rule:nonzero;fill:rgb(96.099854%,16.099548%,30.599976%);fill-opacity:1;" d="M 111.003906 109.539062 C 110.253906 110.515625 109.128906 109.113281 108.339844 108.789062 C 108.003906 108.648438 107.023438 108.59375 106.839844 108.445312 C 106.515625 108.191406 106.800781 107.929688 106.535156 107.65625 C 106.140625 107.234375 104.597656 106.777344 104.882812 105.953125 C 105.164062 105.128906 107.050781 106.589844 107.5625 106.457031 C 108.632812 106.171875 109.0625 104.050781 109.589844 103.230469 C 110.386719 101.992188 111.308594 102.15625 110.765625 103.671875 C 110.382812 104.75 109.023438 105.78125 108.753906 106.808594 C 108.351562 108.367188 110.304688 108.203125 111.003906 109.546875 C 110.929688 109.632812 110.933594 109.421875 111.003906 109.539062 "/>
<path style=" stroke:none;fill-rule:nonzero;fill:rgb(96.099854%,16.099548%,30.599976%);fill-opacity:1;" d="M 122.328125 100.339844 C 121.4375 100.339844 120.894531 101.839844 119.984375 101.675781 C 118.4375 101.429688 121.015625 99.792969 121.148438 99.425781 C 121.480469 98.398438 120.445312 98.097656 121.8125 97.925781 C 122.351562 97.867188 122.355469 98.113281 122.929688 97.820312 C 123.503906 97.390625 123.976562 96.839844 124.308594 96.207031 C 124.96875 95.15625 126.214844 94.550781 125.703125 96.355469 C 125.386719 97.464844 123.886719 97.953125 123.59375 98.921875 C 123.238281 100.085938 125.09375 99.988281 124.972656 100.796875 C 124.800781 101.972656 122.769531 100.316406 122.320312 100.339844 Z M 122.328125 100.339844 "/>
<path style=" stroke:none;fill-rule:nonzero;fill:rgb(0%,0%,0%);fill-opacity:1;" d="M 35.253906 49.054688 C 36.101562 50.691406 36.460938 53.1875 34.097656 53.953125 C 33.21875 54.238281 32.507812 53.707031 33.046875 52.804688 C 33.492188 52.054688 35.023438 52.152344 34.867188 50.847656 C 34.746094 49.871094 33.367188 50.050781 33.132812 49.152344 C 32.988281 48.558594 33.882812 47.929688 34.441406 47.710938 C 34.824219 47.554688 37.441406 47.199219 37.703125 47.621094 C 38.101562 48.332031 35.636719 48.882812 35.253906 49.054688 C 35.433594 49.40625 36.023438 48.769531 35.253906 49.054688 "/>
<path style=" stroke:none;fill-rule:nonzero;fill:rgb(0%,0%,0%);fill-opacity:1;" d="M 189.15625 101.570312 C 187.722656 101.390625 187.171875 100.78125 187.480469 99.269531 C 187.640625 98.519531 187.929688 96.691406 188.554688 96.203125 C 188.972656 95.878906 191.289062 95.714844 191.332031 96.382812 C 191.402344 97.410156 189.234375 96.441406 189.3125 97.589844 C 189.359375 98.292969 190.761719 98.046875 190.0625 98.917969 C 189.804688 99.234375 187.417969 99.527344 189.191406 100.28125 C 189.777344 100.527344 191.804688 99.53125 192.019531 100.484375 C 192.238281 101.4375 189.695312 101.511719 189.183594 101.570312 C 188.882812 101.53125 189.503906 101.523438 189.15625 101.570312 "/>
<path style=" stroke:none;fill-rule:nonzero;fill:rgb(0%,0%,0%);fill-opacity:1;" d="M 44.046875 107.382812 L 44.046875 99.808594 C 44.046875 98.605469 44.0625 97.394531 44.097656 96.1875 C 44.097656 95.925781 43.894531 92.691406 44.984375 93.480469 C 45.480469 93.839844 45.09375 96.136719 45.09375 96.691406 L 45.09375 104.597656 C 45.09375 105.8125 45.570312 107.371094 44.078125 107.386719 C 44.03125 106.332031 44.316406 107.382812 44.046875 107.382812 "/>
<path style=" stroke:none;fill-rule:nonzero;fill:rgb(0%,0%,0%);fill-opacity:1;" d="M 68.636719 132.386719 C 68.351562 131.636719 67.578125 131.914062 68.007812 130.78125 C 68.261719 130.105469 69.199219 129.328125 69.949219 129.664062 C 72.140625 130.660156 68.5625 133.632812 69.417969 134.578125 C 69.921875 135.140625 71.667969 134.359375 71.78125 135.140625 C 71.894531 135.921875 70.019531 135.964844 69.671875 135.972656 C 67.148438 136.039062 67.84375 133.933594 68.636719 132.378906 C 68.5 132.011719 68.492188 132.695312 68.636719 132.386719 "/>
<path style=" stroke:none;fill-rule:nonzero;fill:rgb(0%,0%,0%);fill-opacity:1;" d="M 228.300781 87.132812 C 228.726562 85.078125 225.164062 83.03125 223.839844 81.882812 C 223.402344 81.5 218.746094 77.667969 220.292969 77.382812 C 221.042969 77.234375 222.351562 79.167969 222.898438 79.632812 C 223.867188 80.523438 224.894531 81.351562 225.898438 82.199219 C 226.703125 82.890625 228.066406 83.699219 228.488281 84.71875 L 228.488281 84.714844 C 228.46875 85.160156 228.503906 85.605469 228.589844 86.042969 C 228.542969 86.554688 228.894531 86.621094 228.308594 87.121094 C 228.382812 86.664062 228.648438 86.832031 228.300781 87.132812 "/>
<path style=" stroke:none;fill-rule:nonzero;fill:rgb(96.099854%,16.099548%,30.599976%);fill-opacity:1;" d="M 53.636719 104.582031 C 55.21875 105.144531 54.792969 103.785156 55.796875 103.269531 C 56.621094 102.84375 56.9375 103.605469 56.765625 104.371094 C 56.59375 105.136719 55.550781 105.660156 55.714844 106.621094 C 55.835938 107.3125 57.453125 108.210938 57.132812 108.8125 C 56.6875 109.644531 55.308594 107.859375 54.933594 107.738281 C 54.09375 107.46875 53.539062 108.667969 52.898438 108.316406 C 52.265625 107.964844 53.253906 106.816406 53.300781 106.480469 C 53.375 105.894531 52.183594 104.394531 53.636719 104.589844 C 53.746094 104.613281 53.367188 104.546875 53.636719 104.582031 "/>
<path style=" stroke:none;fill-rule:nonzero;fill:rgb(0%,0%,0%);fill-opacity:1;" d="M 31.296875 83.949219 C 29.878906 83.605469 30.703125 83.019531 31.4375 82.675781 C 32.160156 82.332031 33.386719 82.445312 32.636719 81.339844 C 31.886719 80.238281 31.183594 80.972656 30.953125 79.699219 C 31.042969 79.535156 31.113281 79.359375 31.167969 79.179688 C 31.261719 79.058594 31.289062 78.902344 31.25 78.757812 C 31.210938 78.609375 31.105469 78.492188 30.96875 78.429688 C 31.015625 77.785156 30.6875 77.90625 31.3125 77.320312 C 31.933594 76.734375 32.9375 76.765625 33.136719 77.644531 C 33.328125 78.523438 32.0625 79.144531 32.585938 80.023438 C 33.109375 80.902344 34.582031 80.945312 34.085938 82.320312 C 33.730469 83.371094 32.183594 83.820312 31.234375 83.941406 C 31.136719 83.90625 32.230469 83.800781 31.296875 83.949219 "/>
<path style=" stroke:none;fill-rule:nonzero;fill:rgb(0%,0%,0%);fill-opacity:1;" d="M 127.929688 129.078125 C 128.480469 129.175781 130.234375 129.136719 129.9375 130.074219 C 129.753906 130.660156 127.960938 130.554688 127.453125 130.9375 C 126.445312 131.6875 126.863281 131.824219 127.277344 132.789062 C 127.691406 133.757812 127.851562 134.746094 126.578125 135.039062 C 125.957031 135.1875 124.328125 134.738281 124.46875 133.785156 C 124.652344 132.652344 125.886719 134.289062 126.296875 133.335938 C 126.25 133.433594 125.609375 131.835938 125.621094 131.957031 C 125.621094 131.378906 125.8125 130.8125 126.167969 130.351562 C 126.683594 129.339844 126.695312 129.257812 127.921875 129.054688 C 128.488281 129.175781 127.585938 129.132812 127.929688 129.078125 "/>
<path style=" stroke:none;fill-rule:nonzero;fill:rgb(14.498901%,45.098877%,72.898865%);fill-opacity:1;" d="M 62.082031 40.007812 C 65.425781 40.195312 64.136719 44.382812 61.136719 44.246094 C 58.136719 44.109375 59.71875 39.792969 62.058594 40.007812 C 63.238281 40.074219 61.785156 39.976562 62.082031 40.007812 M 61.210938 42.648438 C 61.554688 42.648438 63.367188 42.289062 62.5 41.679688 C 62.003906 41.335938 60.3125 42.0625 61.210938 42.648438 C 61.738281 42.617188 61.136719 42.589844 61.210938 42.648438 "/>
<path style=" stroke:none;fill-rule:nonzero;fill:rgb(96.099854%,16.099548%,30.599976%);fill-opacity:1;" d="M 129.207031 67.082031 C 129.316406 67.683594 128.601562 67.683594 128.507812 68.09375 C 128.378906 68.640625 128.460938 68.339844 128.597656 68.980469 C 128.730469 69.617188 130.628906 71.441406 130.171875 71.980469 C 129.53125 72.730469 128.222656 70.585938 127.972656 70.269531 C 126.605469 68.542969 126.96875 70.074219 125.367188 70.058594 C 124.070312 70.058594 125.558594 69.1875 125.863281 68.761719 C 126.835938 67.433594 125.296875 67.613281 125.113281 66.332031 C 124.9375 65.050781 126.308594 65.800781 126.804688 66.21875 L 126.804688 66.222656 C 126.960938 66.496094 127.175781 66.726562 127.433594 66.902344 C 128.40625 67.164062 128.269531 66.226562 129.1875 67.082031 C 129.265625 67.421875 129.027344 66.917969 129.207031 67.082031 "/>
<path style=" stroke:none;fill-rule:nonzero;fill:rgb(96.099854%,16.099548%,30.599976%);fill-opacity:1;" d="M 82.960938 110.222656 C 83.105469 111.25 82.089844 111.675781 81.644531 112.359375 C 80.789062 113.671875 81.933594 113.238281 82.097656 114.273438 C 82.261719 115.308594 81.011719 114.617188 80.367188 114.511719 C 80.039062 114.460938 78.226562 114.640625 78.054688 114.421875 C 77.730469 114.023438 78.246094 113.972656 78.230469 113.605469 L 78.230469 112.71875 C 78.289062 112.207031 77.621094 112.15625 78.230469 111.683594 C 78.703125 111.339844 78.980469 111.757812 79.4375 111.734375 C 80.699219 111.652344 80.742188 111.210938 81.632812 110.285156 C 82.015625 109.886719 82.867188 108.90625 82.929688 110.226562 C 83.050781 110.851562 82.941406 109.847656 82.960938 110.222656 "/>
<path style=" stroke:none;fill-rule:nonzero;fill:rgb(0%,0%,0%);fill-opacity:1;" d="M 44.285156 92.382812 C 43.6875 90.296875 44.15625 87.546875 44.214844 85.398438 C 44.242188 84.199219 44.269531 83 44.304688 81.796875 C 44.304688 81.453125 44.144531 78.796875 45.21875 79.621094 C 45.683594 79.972656 45.3125 81.871094 45.300781 82.367188 C 45.253906 83.582031 45.210938 84.796875 45.179688 86.003906 C 45.144531 87.210938 45.128906 88.433594 45.128906 89.648438 C 45.128906 90.742188 45.585938 92.421875 44.277344 92.386719 C 44.003906 91.375 44.527344 92.382812 44.285156 92.382812 "/>
<path style=" stroke:none;fill-rule:nonzero;fill:rgb(14.498901%,45.098877%,72.898865%);fill-opacity:1;" d="M 58.492188 58.171875 C 55.683594 58.308594 57.90625 53.722656 59.570312 53.71875 C 60.183594 53.753906 60.742188 54.042969 61.132812 54.507812 C 61.519531 54.976562 61.695312 55.582031 61.617188 56.1875 C 61.304688 57.417969 59.625 58.167969 58.488281 58.183594 C 58 58.195312 59.554688 58.160156 58.492188 58.171875 M 59.488281 55.015625 C 58.429688 54.882812 57.878906 56.382812 59.019531 56.636719 C 60.3125 56.890625 60.867188 55.496094 59.488281 55.015625 C 58.921875 54.949219 59.636719 55.0625 59.488281 55.015625 "/>
<path style=" stroke:none;fill-rule:nonzero;fill:rgb(0%,0%,0%);fill-opacity:1;" d="M 35.832031 66.28125 C 35.730469 66.792969 35.585938 68.980469 34.480469 68.335938 C 34.210938 68.179688 34.382812 67.707031 34.191406 67.585938 C 33.785156 67.269531 33.785156 67.585938 33.257812 67.382812 C 31.292969 66.550781 32.132812 64.871094 32.636719 63.242188 C 32.792969 62.730469 32.808594 61.570312 33.652344 61.988281 C 34.503906 62.410156 33.605469 64.082031 33.46875 64.5625 C 32.546875 67.652344 35.507812 63.566406 35.820312 66.300781 C 35.730469 66.785156 35.808594 66.070312 35.832031 66.28125 "/>
<path style=" stroke:none;fill-rule:nonzero;fill:rgb(14.498901%,45.098877%,72.898865%);fill-opacity:1;" d="M 115.847656 55.007812 C 115.894531 54.109375 116.679688 52.503906 117.625 52.449219 C 118.75 52.574219 119.703125 53.335938 120.0625 54.410156 C 120.402344 56.660156 115.890625 57.671875 115.847656 55.019531 C 115.886719 54.550781 115.886719 56.15625 115.847656 55.007812 M 117.542969 55.148438 C 118.457031 55.148438 119.417969 54.074219 118.0625 54.136719 C 117.503906 54.136719 116.671875 54.886719 117.542969 55.148438 C 117.976562 55.128906 117.460938 55.113281 117.542969 55.144531 Z M 117.542969 55.148438 "/>
<path style=" stroke:none;fill-rule:nonzero;fill:rgb(0%,0%,0%);fill-opacity:1;" d="M 194.855469 100.632812 C 194.363281 100.632812 193.011719 100.632812 193.714844 99.769531 C 194.152344 99.238281 195.808594 99.925781 195.710938 99.019531 C 195.667969 98.597656 194.054688 98.082031 193.8125 97.519531 C 193.320312 96.378906 194.363281 95.78125 195.3125 95.539062 C 195.738281 95.433594 197.808594 95.300781 197.035156 96.289062 C 196.578125 96.867188 194.628906 96.238281 195.132812 97.472656 C 195.425781 98.183594 196.960938 98.261719 197.179688 99.144531 C 197.527344 100.515625 195.679688 100.5625 194.847656 100.644531 C 194.371094 100.632812 195.085938 100.632812 194.855469 100.632812 "/>
<path style=" stroke:none;fill-rule:nonzero;fill:rgb(96.099854%,16.099548%,30.599976%);fill-opacity:1;" d="M 101.964844 78.671875 C 102.042969 79.765625 100.007812 81.035156 99.652344 82.046875 C 99.40625 82.796875 100.402344 84.296875 99.238281 84.167969 C 98.84375 84.121094 98.925781 83.417969 98.433594 83.464844 C 98.140625 83.464844 97.949219 84.09375 97.683594 84.164062 C 96.84375 84.417969 96.933594 84.390625 97.238281 83.519531 C 97.621094 82.402344 97.925781 82.441406 97.347656 81.335938 C 96.769531 80.234375 96.433594 79.402344 97.898438 80.332031 C 98.992188 81.023438 98.867188 81.082031 99.761719 79.910156 C 99.933594 79.683594 101.675781 77.164062 101.929688 78.664062 C 101.972656 78.820312 101.917969 78.394531 101.964844 78.671875 "/>
<path style=" stroke:none;fill-rule:nonzero;fill:rgb(14.498901%,45.098877%,72.898865%);fill-opacity:1;" d="M 113.910156 47.253906 C 113.851562 49.585938 110.160156 50.34375 109.988281 47.675781 C 109.933594 46.707031 110.738281 44.984375 111.769531 44.75 C 112.796875 44.515625 114.019531 46.289062 113.910156 47.253906 C 113.875 48.785156 113.972656 46.632812 113.910156 47.253906 M 111.800781 47.875 C 112.550781 47.808594 113.410156 46.800781 112.332031 46.375 C 111.582031 46.050781 110.503906 47.875 111.800781 47.875 "/>
<path style=" stroke:none;fill-rule:nonzero;fill:rgb(14.498901%,45.098877%,72.898865%);fill-opacity:1;" d="M 139.628906 41.382812 C 139.8125 43.550781 135.347656 44.382812 135.828125 41.675781 C 135.960938 40.984375 136.6875 39.554688 137.382812 39.378906 C 138.433594 39.117188 139.585938 40.453125 139.632812 41.390625 C 139.6875 41.996094 139.59375 40.359375 139.628906 41.382812 "/>
<path style=" stroke:none;fill-rule:nonzero;fill:rgb(96.099854%,16.099548%,30.599976%);fill-opacity:1;" d="M 65.871094 107.726562 C 66.183594 107.089844 65.050781 106.375 65.578125 105.828125 C 66.109375 105.28125 66.574219 106.089844 67.078125 105.828125 C 67.902344 105.414062 67.4375 104.066406 67.992188 103.652344 C 68.742188 103.066406 69.046875 103.945312 69.054688 104.671875 C 69.054688 105.570312 68.234375 106.171875 68.230469 106.980469 C 68.230469 107.625 69.203125 108.660156 68.726562 109.3125 C 68.242188 109.964844 67.847656 108.601562 67.363281 108.398438 C 66.769531 108.152344 65.601562 108.886719 65.863281 107.714844 C 66.011719 107.449219 65.851562 107.832031 65.871094 107.726562 "/>
<path style=" stroke:none;fill-rule:nonzero;fill:rgb(14.498901%,45.098877%,72.898865%);fill-opacity:1;" d="M 99.921875 47.382812 C 103.003906 48.132812 101.152344 51.371094 98.648438 51.179688 C 95.867188 50.960938 97.621094 47.300781 99.921875 47.382812 C 100.097656 47.449219 98.179688 47.335938 99.921875 47.382812 M 100.453125 48.882812 C 99.875 48.53125 97.453125 48.582031 98.398438 49.738281 C 98.808594 50.242188 100.511719 49.519531 100.453125 48.882812 C 100.054688 48.601562 100.480469 49.144531 100.453125 48.882812 "/>
<path style=" stroke:none;fill-rule:nonzero;fill:rgb(0%,0%,0%);fill-opacity:1;" d="M 92.09375 133.691406 C 92.09375 133.160156 91.230469 132.820312 91.0625 132.289062 C 90.859375 131.621094 91.8125 130.445312 91.644531 130.089844 C 91.03125 128.753906 89.242188 131.777344 89.234375 129.675781 C 89.234375 127.9375 92.851562 127.671875 93.121094 129.429688 C 93.269531 130.414062 92.0625 130.863281 92.078125 131.597656 C 92.097656 132.332031 93.316406 132.496094 93.441406 133.359375 L 92.101562 133.695312 C 92.113281 133.261719 92.542969 133.585938 92.09375 133.691406 "/>
<path style=" stroke:none;fill-rule:nonzero;fill:rgb(14.498901%,45.098877%,72.898865%);fill-opacity:1;" d="M 77.957031 40.773438 C 78.257812 38.171875 81.601562 38.9375 81.542969 41.269531 C 81.476562 43.871094 77.636719 43.632812 77.957031 40.773438 C 77.945312 40.847656 77.875 41.582031 77.957031 40.773438 M 79.585938 41.449219 C 79.96875 41.449219 80.335938 40.699219 79.867188 40.59375 C 79.402344 40.488281 78.980469 41.472656 79.585938 41.449219 C 79.886719 41.425781 79.382812 41.449219 79.574219 41.441406 Z M 79.585938 41.449219 "/>
<path style=" stroke:none;fill-rule:nonzero;fill:rgb(0%,0%,0%);fill-opacity:1;" d="M 44.890625 109.105469 C 45.3125 109.765625 44.890625 111.027344 44.890625 111.730469 C 44.832031 112.824219 44.890625 113.929688 44.84375 115.023438 C 44.84375 115.773438 44.980469 119.230469 43.964844 119.417969 C 43.214844 119.554688 43.773438 115.457031 43.792969 114.714844 C 43.792969 113.214844 44.488281 110.125 43.726562 108.761719 C 44.007812 109.101562 44.46875 109.238281 44.890625 109.105469 C 45.085938 109.414062 44.40625 109.292969 44.890625 109.105469 "/>
<path style=" stroke:none;fill-rule:nonzero;fill:rgb(96.099854%,16.099548%,30.599976%);fill-opacity:1;" d="M 98.367188 92.6875 C 99.300781 92.867188 101.0625 89.835938 101.332031 91.570312 C 101.429688 92.222656 100.214844 92.859375 100.347656 93.527344 C 100.550781 94.503906 102.742188 94.765625 102.933594 95.65625 C 103.21875 96.992188 99.980469 94.695312 99.417969 94.652344 C 98.179688 94.554688 98.394531 95.175781 97.816406 94.066406 C 97.402344 93.277344 97.265625 92.6875 98.363281 92.6875 C 99.027344 92.808594 98.296875 92.6875 98.367188 92.6875 "/>
<path style=" stroke:none;fill-rule:nonzero;fill:rgb(14.498901%,45.098877%,72.898865%);fill-opacity:1;" d="M 61.792969 69.65625 C 60.515625 69.792969 59.726562 68.027344 60.292969 67.039062 C 60.601562 66.617188 60.980469 66.246094 61.402344 65.9375 C 61.6875 65.726562 61.402344 65.441406 61.867188 65.324219 C 62.617188 65.128906 63.972656 66.589844 64.117188 67.214844 C 64.4375 68.527344 63.101562 69.710938 61.816406 69.660156 C 60.964844 69.746094 62.222656 69.671875 61.792969 69.65625 M 61.25 67.632812 C 61.199219 68.855469 62.980469 68.382812 62.898438 67.445312 L 62.902344 67.445312 C 62.683594 67.042969 62.316406 66.746094 61.886719 66.601562 C 61.300781 66.683594 61.382812 67.082031 61.28125 67.652344 C 61.1875 68.222656 61.289062 67.449219 61.25 67.632812 "/>
<path style=" stroke:none;fill-rule:nonzero;fill:rgb(96.099854%,16.099548%,30.599976%);fill-opacity:1;" d="M 137.335938 91.097656 C 136.796875 91.097656 135.613281 90.210938 136.046875 89.597656 C 136.472656 88.984375 137.777344 89.964844 138.441406 89.734375 C 139.320312 89.417969 139.941406 87.769531 140.304688 87.019531 C 140.535156 86.53125 141.246094 84.207031 141.925781 84.125 C 143.789062 83.90625 141.320312 87.875 141.003906 88.386719 C 140.394531 89.347656 139.960938 89.886719 138.863281 90.097656 C 137.941406 90.261719 137.316406 89.976562 137.363281 91.140625 C 136.664062 91.082031 137.335938 90.882812 137.335938 91.097656 "/>
<path style=" stroke:none;fill-rule:nonzero;fill:rgb(96.099854%,16.099548%,30.599976%);fill-opacity:1;" d="M 127.96875 91.699219 C 127.308594 91.632812 128.472656 89.863281 128.390625 89.449219 C 128.308594 89.035156 126.480469 87.882812 127.3125 87.355469 C 128.144531 86.832031 128.433594 88.261719 129.140625 88.171875 C 129.6875 88.105469 129.84375 86.507812 130.558594 87.488281 C 130.933594 88.003906 130.253906 89.296875 130.394531 89.949219 C 130.527344 90.601562 131.785156 91.839844 131.144531 92.246094 C 130.496094 92.652344 130.046875 91.0625 129.574219 90.886719 C 128.722656 90.585938 128.824219 91.792969 127.984375 91.636719 C 127.753906 91.675781 128.160156 91.726562 127.96875 91.699219 "/>
<path style=" stroke:none;fill-rule:nonzero;fill:rgb(14.498901%,45.098877%,72.898865%);fill-opacity:1;" d="M 86.871094 48.320312 C 89.730469 48.367188 87.925781 52.308594 85.800781 52.070312 L 85.804688 52.070312 C 84.851562 51.824219 84.222656 50.933594 84.304688 49.960938 C 84.488281 48.820312 85.851562 48.332031 86.851562 48.289062 C 87.386719 48.324219 85.96875 48.355469 86.871094 48.320312 M 86.78125 49.820312 C 86.398438 49.820312 85.136719 50.359375 86.03125 50.652344 C 86.40625 50.773438 87.644531 49.902344 86.78125 49.820312 C 86.488281 49.839844 86.945312 49.855469 86.78125 49.839844 Z M 86.78125 49.820312 "/>
<path style=" stroke:none;fill-rule:nonzero;fill:rgb(14.498901%,45.098877%,72.898865%);fill-opacity:1;" d="M 127.976562 52.382812 C 127.816406 53.605469 126.230469 55.691406 124.859375 54.585938 L 124.859375 54.589844 C 124.59375 54.367188 124.425781 54.042969 124.394531 53.695312 C 124.363281 53.34375 124.480469 53 124.714844 52.734375 C 125.695312 51.699219 125.585938 53.027344 125.992188 53.132812 C 126.226562 53.203125 126.476562 53.152344 126.667969 53.003906 C 126.855469 52.855469 126.964844 52.625 126.957031 52.382812 C 127.066406 51.378906 125.832031 51.40625 125.566406 50.726562 C 125.199219 49.75 126.132812 49.648438 126.730469 49.976562 C 127.480469 50.417969 127.824219 51.566406 127.980469 52.339844 C 127.886719 53.101562 127.769531 51.339844 127.976562 52.382812 "/>
<path style=" stroke:none;fill-rule:nonzero;fill:rgb(14.498901%,45.098877%,72.898865%);fill-opacity:1;" d="M 188.046875 114.882812 C 185.332031 114.832031 187.136719 110.300781 189.320312 110.707031 C 190.308594 110.894531 191.503906 111.988281 191.277344 113.105469 C 191.03125 114.347656 189.117188 114.882812 188.046875 114.882812 M 188.363281 114.132812 C 188.929688 114.042969 189.972656 113.90625 190.238281 113.300781 L 190.238281 113.296875 C 190.324219 112.917969 190.238281 112.515625 190 112.203125 C 189.769531 111.890625 189.40625 111.699219 189.019531 111.679688 C 188.027344 111.730469 186.695312 113.863281 188.363281 114.132812 C 188.835938 114.039062 188.160156 114.085938 188.363281 114.132812 "/>
<path style=" stroke:none;fill-rule:nonzero;fill:rgb(14.498901%,45.098877%,72.898865%);fill-opacity:1;" d="M 94.019531 45.273438 C 93.046875 43.96875 93.351562 43.722656 93.925781 42.414062 C 94.320312 41.507812 94.191406 40.5625 95.617188 41.265625 C 96.539062 41.722656 97.21875 43.050781 96.640625 44.027344 C 96.15625 44.816406 94.785156 45.011719 94.019531 45.273438 M 95.644531 43.023438 C 95.351562 42.085938 94.894531 43.351562 94.960938 43.324219 C 95.023438 43.292969 95.710938 43.675781 95.644531 43.023438 C 95.589844 42.820312 95.636719 43.285156 95.636719 42.984375 Z M 95.644531 43.023438 "/>
<path style=" stroke:none;fill-rule:nonzero;fill:rgb(14.498901%,45.098877%,72.898865%);fill-opacity:1;" d="M 75.085938 56.957031 C 75.265625 59.207031 70.8125 60.203125 71.234375 56.957031 C 71.527344 54.773438 74.984375 54.585938 75.085938 56.957031 C 75.136719 57.589844 75.074219 56.441406 75.085938 56.957031 M 73.886719 57.175781 C 74.097656 56.066406 72.03125 56.253906 72.234375 57.339844 C 72.4375 58.425781 73.871094 57.265625 73.886719 57.175781 C 73.96875 56.71875 73.921875 56.988281 73.886719 57.175781 "/>
<path style=" stroke:none;fill-rule:nonzero;fill:rgb(96.099854%,16.099548%,30.599976%);fill-opacity:1;" d="M 115.027344 95.890625 C 114.277344 95.808594 114.703125 94.292969 113.972656 94.113281 C 113.355469 93.964844 113 95.695312 112.351562 94.863281 C 112.152344 94.617188 112.78125 93.214844 112.769531 92.824219 C 112.753906 92.433594 112.179688 92.335938 112.429688 91.976562 C 112.765625 91.480469 112.75 91.976562 113.179688 91.789062 C 113.398438 91.878906 113.640625 91.9375 113.878906 91.953125 C 114.441406 91.765625 114.457031 90.65625 115.015625 90.453125 C 115.566406 90.25 115.765625 90.453125 115.847656 91.074219 C 115.902344 91.871094 114.894531 92.320312 114.859375 93.089844 C 114.859375 93.328125 116.1875 96.007812 115.019531 95.828125 Z M 115.027344 95.890625 "/>
<path style=" stroke:none;fill-rule:nonzero;fill:rgb(14.498901%,45.098877%,72.898865%);fill-opacity:1;" d="M 72.066406 70.820312 C 72.066406 70.511719 72.679688 68.9375 73.238281 69.417969 C 73.804688 69.898438 72.894531 70.4375 73.640625 70.699219 C 74.519531 71.007812 74.527344 69.828125 74.5625 69.535156 C 74.609375 69.023438 73.621094 68.703125 74.917969 68.476562 C 76.894531 68.132812 76.066406 70.726562 75.222656 71.386719 C 74.160156 72.210938 72.078125 72.835938 72.0625 70.816406 C 72.105469 70.339844 72.066406 71.890625 72.066406 70.820312 "/>
<path style=" stroke:none;fill-rule:nonzero;fill:rgb(96.099854%,16.099548%,30.599976%);fill-opacity:1;" d="M 78.035156 75.8125 C 78.585938 75.753906 80.351562 78.8125 80.285156 79.074219 C 80.03125 79.292969 79.761719 79.492188 79.480469 79.675781 C 79.339844 79.886719 79.394531 80.328125 79.261719 80.476562 C 78.59375 81.226562 78.960938 80.769531 78.308594 80.476562 C 78.171875 80.304688 78.019531 80.140625 77.855469 79.992188 C 77.5625 79.851562 77.15625 80.171875 76.851562 79.992188 C 76.628906 79.847656 76.488281 79.597656 76.488281 79.328125 C 76.488281 79.058594 76.628906 78.808594 76.851562 78.664062 C 77.480469 78.148438 78.019531 78.890625 78.09375 77.703125 C 78.09375 77.28125 76.949219 76.066406 78.046875 75.875 C 78.277344 75.789062 77.84375 75.882812 78.035156 75.8125 "/>
<path style=" stroke:none;fill-rule:nonzero;fill:rgb(0%,0%,0%);fill-opacity:1;" d="M 228.855469 74.246094 C 228.007812 74.945312 226.496094 74.660156 225.5 74.652344 L 212.519531 74.652344 C 210.050781 74.652344 207.683594 74.945312 205.242188 74.953125 C 204.089844 74.953125 198.300781 75.664062 197.792969 74.578125 C 202.871094 75.410156 208.421875 74.414062 213.542969 74.375 C 218.664062 74.335938 223.761719 74.488281 228.855469 74.261719 C 228.464844 74.570312 228.230469 74.277344 228.855469 74.246094 "/>
<path style=" stroke:none;fill-rule:nonzero;fill:rgb(14.498901%,45.098877%,72.898865%);fill-opacity:1;" d="M 92.808594 40.339844 C 92.808594 43.101562 89.316406 42.46875 90.019531 39.703125 C 90.175781 39.074219 91.175781 37.453125 92.03125 37.582031 C 92.671875 37.695312 92.78125 39.832031 92.78125 40.335938 C 92.800781 41.621094 92.800781 40.25 92.808594 40.339844 M 91.730469 40.03125 C 91.421875 39.394531 91.441406 40.03125 91.113281 40.121094 C 91.214844 40.121094 91.535156 41.058594 91.730469 40.03125 C 91.683594 39.933594 91.707031 40.164062 91.726562 40.03125 Z M 91.730469 40.03125 "/>
<path style=" stroke:none;fill-rule:nonzero;fill:rgb(14.498901%,45.098877%,72.898865%);fill-opacity:1;" d="M 94.601562 48.617188 C 97.867188 50.523438 91.648438 54.105469 91.714844 49.863281 C 91.714844 48.777344 93.023438 47.097656 93.394531 48.894531 C 93.480469 49.320312 92.082031 49.960938 93.394531 50.3125 C 94.402344 50.589844 94.1875 49.773438 93.816406 49.324219 C 94.253906 49.324219 94.332031 48.820312 94.644531 48.621094 C 95.183594 48.957031 94.300781 48.820312 94.601562 48.617188 "/>
<path style=" stroke:none;fill-rule:nonzero;fill:rgb(14.498901%,45.098877%,72.898865%);fill-opacity:1;" d="M 87.339844 65.011719 C 87.386719 64.261719 88.035156 62.710938 88.976562 62.550781 C 89.78125 62.414062 90.640625 63.976562 90.734375 64.75 C 90.988281 66.84375 87.417969 67.511719 87.347656 65.011719 C 87.386719 63.917969 87.386719 66.257812 87.339844 65.011719 M 88.414062 65.011719 C 88.726562 65.296875 89.722656 65.257812 89.492188 64.644531 C 89.269531 64.03125 88.4375 64.53125 88.414062 65.011719 C 88.484375 65.066406 88.429688 64.75 88.417969 65.007812 Z M 88.414062 65.011719 "/>
<path style=" stroke:none;fill-rule:nonzero;fill:rgb(96.099854%,16.099548%,30.599976%);fill-opacity:1;" d="M 91.730469 99.410156 C 92.316406 99.363281 92.699219 100.039062 93.230469 99.949219 C 93.765625 99.859375 94.230469 98.871094 94.535156 98.449219 C 94.847656 98.027344 95.332031 97.105469 95.964844 97.765625 C 96.480469 98.304688 95.386719 99.265625 95.132812 99.671875 C 94.34375 100.910156 94.777344 100.511719 94.988281 101.644531 C 95.0625 102.035156 95.601562 102.394531 94.867188 102.484375 C 93.894531 102.621094 94.15625 101.5 93.132812 101.898438 C 92.59375 102.109375 92.542969 102.882812 91.9375 103.039062 C 91.882812 102.644531 91.882812 102.242188 91.9375 101.847656 C 92.023438 101.59375 92.609375 101.601562 92.601562 101.148438 C 92.597656 100.699219 92.167969 100.894531 92.132812 100.734375 C 92.09375 100.578125 91.765625 99.765625 91.695312 99.382812 C 92.03125 99.386719 91.808594 99.882812 91.730469 99.410156 "/>
<path style=" stroke:none;fill-rule:nonzero;fill:rgb(96.099854%,16.099548%,30.599976%);fill-opacity:1;" d="M 57.980469 115.632812 C 59.972656 116.324219 58.269531 116.960938 56.996094 116.773438 C 56.457031 116.691406 53.476562 115.355469 54.609375 114.476562 C 55.246094 113.988281 55.742188 115.046875 56.363281 114.941406 C 57.113281 114.804688 57.25 113.695312 57.863281 113.480469 C 60.113281 112.730469 58.042969 114.980469 57.972656 115.632812 C 58.300781 115.722656 58.054688 115.121094 57.980469 115.632812 "/>
<path style=" stroke:none;fill-rule:nonzero;fill:rgb(0%,0%,0%);fill-opacity:1;" d="M 31.601562 92.613281 C 31.644531 92.003906 31.167969 90.949219 31.601562 90.542969 C 32.417969 89.839844 32.851562 91.179688 32.960938 91.816406 C 33.0625 92.453125 32.75 93.175781 33.230469 93.601562 C 33.710938 94.027344 34.867188 93.5625 35.4375 93.429688 C 37.867188 92.851562 35.191406 94.675781 34.15625 94.847656 L 34.152344 94.847656 C 33.488281 95.035156 32.777344 94.871094 32.257812 94.417969 C 31.734375 93.964844 31.480469 93.28125 31.566406 92.597656 C 31.636719 92 31.601562 92.574219 31.601562 92.613281 "/>
<path style=" stroke:none;fill-rule:nonzero;fill:rgb(14.498901%,45.098877%,72.898865%);fill-opacity:1;" d="M 115.058594 59.582031 C 117.144531 59.207031 117.308594 63.054688 114.769531 62.875 C 112.480469 62.710938 112.851562 59.410156 115.058594 59.582031 C 115.445312 59.507812 114.96875 59.574219 115.058594 59.582031 M 114.675781 60.625 C 113.976562 60.753906 114.273438 62.078125 115.179688 61.660156 C 115.886719 61.300781 115.28125 60.507812 114.679688 60.617188 Z M 114.675781 60.625 "/>
<path style=" stroke:none;fill-rule:nonzero;fill:rgb(14.498901%,45.098877%,72.898865%);fill-opacity:1;" d="M 113.253906 80.972656 C 110.214844 80.851562 112.027344 77.273438 114.132812 77.539062 C 116.453125 77.832031 115.175781 80.972656 113.253906 80.972656 C 112.726562 80.957031 114.386719 80.972656 113.253906 80.972656 M 114.316406 79.179688 C 114.316406 78.429688 112.933594 78.488281 112.652344 79.015625 C 112.113281 80.050781 114.242188 80.351562 114.316406 79.179688 C 114.304688 78.957031 114.285156 79.539062 114.308594 79.1875 Z M 114.316406 79.179688 "/>
<path style=" stroke:none;fill-rule:nonzero;fill:rgb(14.498901%,45.098877%,72.898865%);fill-opacity:1;" d="M 78.792969 87.339844 C 76.542969 87.339844 76.949219 84.59375 78.675781 84.121094 C 80.871094 83.519531 81.8125 87.4375 78.792969 87.339844 C 77.769531 87.324219 79.230469 87.355469 78.792969 87.339844 M 78.792969 86.132812 C 79.445312 86.066406 79.683594 85.652344 78.898438 85.433594 C 78.117188 85.214844 77.953125 85.867188 78.792969 86.132812 C 78.9375 86.109375 78.660156 86.097656 78.761719 86.132812 Z M 78.792969 86.132812 "/>
<path style=" stroke:none;fill-rule:nonzero;fill:rgb(14.498901%,45.098877%,72.898865%);fill-opacity:1;" d="M 58.339844 87.582031 C 58.53125 86.734375 58.742188 85.8125 59.765625 85.691406 L 59.761719 85.691406 C 60.6875 85.6875 61.484375 86.335938 61.675781 87.242188 C 62.078125 89.410156 58.339844 90.167969 58.347656 87.578125 C 58.382812 87.378906 58.339844 88.359375 58.339844 87.582031 M 59.839844 86.882812 C 59.1875 86.933594 59.144531 88.269531 60.058594 87.976562 C 60.808594 87.722656 60.664062 86.859375 59.839844 86.882812 C 59.515625 86.90625 60.125 86.875 59.851562 86.882812 Z M 59.839844 86.882812 "/>
<path style=" stroke:none;fill-rule:nonzero;fill:rgb(14.498901%,45.098877%,72.898865%);fill-opacity:1;" d="M 69.027344 80.382812 C 69.027344 82.566406 65.277344 82.796875 65.804688 80.300781 C 65.886719 79.886719 66.765625 78.410156 67.171875 78.285156 C 68.113281 78.035156 69.027344 79.699219 69.027344 80.382812 M 67.136719 81.070312 C 67.722656 80.824219 68.460938 79.570312 67.265625 79.710938 C 66.578125 79.777344 66.699219 80.796875 67.136719 81.070312 C 67.320312 80.988281 67.003906 80.988281 67.136719 81.070312 "/>
<path style=" stroke:none;fill-rule:nonzero;fill:rgb(14.498901%,45.098877%,72.898865%);fill-opacity:1;" d="M 89.09375 77.027344 C 91.015625 76.230469 91.40625 80.304688 88.808594 80.34375 C 88.292969 80.378906 87.804688 80.148438 87.496094 79.734375 C 87.191406 79.320312 87.121094 78.78125 87.308594 78.304688 C 87.6875 77.367188 88.648438 77.742188 89.113281 77.03125 C 89.363281 76.910156 89.011719 77.15625 89.09375 77.027344 M 89.789062 78.527344 C 89.910156 77.738281 88.65625 77.777344 88.429688 78.476562 C 88.101562 79.429688 89.484375 79.089844 89.789062 78.527344 C 89.820312 78.296875 89.742188 78.597656 89.789062 78.519531 Z M 89.789062 78.527344 "/>
<path style=" stroke:none;fill-rule:nonzero;fill:rgb(0%,0%,0%);fill-opacity:1;" d="M 47.351562 33.003906 C 47.910156 33.160156 47.261719 33.003906 47.351562 33.003906 C 48.898438 33.4375 50.03125 34.257812 47.894531 34.390625 C 47.097656 34.441406 46.210938 34.519531 45.429688 34.53125 L 45.429688 34.535156 C 44.8125 34.574219 44.207031 34.457031 43.648438 34.1875 C 43.445312 34.023438 43.535156 33.4375 43.335938 33.296875 C 43.886719 33.363281 44.636719 33.207031 45.035156 33.234375 "/>
<path style=" stroke:none;fill-rule:nonzero;fill:rgb(14.498901%,45.098877%,72.898865%);fill-opacity:1;" d="M 128.363281 58.292969 C 128.070312 56.476562 130.402344 56.972656 131.007812 58.039062 C 131.605469 59.105469 130.394531 61.789062 128.929688 60.769531 C 128.671875 60.570312 128.511719 60.273438 128.488281 59.949219 C 128.472656 59.625 128.59375 59.308594 128.820312 59.082031 C 129.570312 58.519531 129.394531 59.335938 129.734375 59.367188 C 129.886719 59.367188 130.351562 59.75 130.292969 59.03125 C 130.210938 58.09375 129.054688 58.28125 128.371094 58.28125 C 128.3125 57.941406 128.792969 58.292969 128.363281 58.292969 "/>
<path style=" stroke:none;fill-rule:nonzero;fill:rgb(0%,0%,0%);fill-opacity:1;" d="M 149.347656 133.535156 C 149.429688 132.925781 148.84375 131.144531 149.777344 130.984375 C 150.929688 130.78125 150.730469 133.09375 150.75 133.640625 C 150.777344 134.1875 151.589844 135.84375 150.578125 136.046875 C 149.570312 136.25 149.164062 134.148438 149.339844 133.542969 C 149.453125 132.769531 149.230469 133.9375 149.347656 133.535156 "/>
<path style=" stroke:none;fill-rule:nonzero;fill:rgb(96.099854%,16.099548%,30.599976%);fill-opacity:1;" d="M 120.441406 50.179688 C 118.355469 49.941406 119.964844 48.898438 120.328125 48.019531 C 120.59375 47.382812 120.816406 44.734375 121.597656 46.902344 C 121.769531 47.375 121.292969 48.15625 121.542969 48.582031 C 121.78125 48.75 122.03125 48.902344 122.292969 49.03125 C 122.449219 49.390625 122.9375 49.105469 122.449219 49.742188 C 122.101562 50.199219 120.949219 50.183594 120.417969 50.183594 C 120.3125 50.164062 121.226562 50.179688 120.441406 50.179688 "/>
<path style=" stroke:none;fill-rule:nonzero;fill:rgb(0%,0%,0%);fill-opacity:1;" d="M 127.089844 119.253906 L 135.957031 119.253906 L 132.351562 119.253906 C 131.519531 119.253906 129.890625 118.96875 129.179688 119.488281 C 129.6875 120.089844 130.414062 123.75 129.179688 123.847656 C 127.800781 123.960938 128.632812 120.195312 128.925781 119.46875 C 128.3125 119.167969 127.679688 119.417969 127.058594 119.242188 C 130.054688 119.246094 127.6875 119.382812 127.089844 119.253906 "/>
<path style=" stroke:none;fill-rule:nonzero;fill:rgb(0%,0%,0%);fill-opacity:1;" d="M 194.722656 88.285156 C 192.777344 88.984375 194.027344 87.113281 194.410156 86.171875 C 194.921875 84.875 194.929688 83.703125 196.660156 84.550781 C 198.382812 85.398438 197.664062 85.855469 196.367188 86.003906 C 196.136719 86.003906 196.367188 85.449219 195.851562 85.71875 C 195.339844 85.988281 194.929688 87.734375 194.710938 88.292969 C 194.421875 88.390625 195 87.582031 194.722656 88.285156 "/>
<path style=" stroke:none;fill-rule:nonzero;fill:rgb(0%,0%,0%);fill-opacity:1;" d="M 44.890625 42.085938 C 46.152344 42.085938 45.730469 42.695312 45.753906 43.699219 C 45.773438 44.703125 45.800781 45.582031 45.828125 46.527344 C 45.929688 47.328125 45.945312 48.140625 45.886719 48.949219 C 45.707031 49.878906 45.886719 49.902344 44.875 49.871094 C 45.226562 47.367188 44.78125 44.757812 44.875 42.09375 C 45.167969 42.085938 44.820312 43.734375 44.890625 42.085938 "/>
<path style=" stroke:none;fill-rule:nonzero;fill:rgb(0%,0%,0%);fill-opacity:1;" d="M 228.300781 87.132812 C 228.992188 86.539062 228.449219 85.558594 228.484375 84.726562 C 229.5625 85.476562 229.234375 85.238281 230.09375 84.773438 C 230.644531 84.480469 230.773438 83.84375 231.082031 84.960938 C 231.402344 86.078125 228.832031 87.097656 230.46875 87.527344 C 229.660156 88.277344 227.167969 88.980469 228.300781 87.128906 C 228.648438 86.832031 228.183594 87.332031 228.300781 87.132812 "/>
<path style=" stroke:none;fill-rule:nonzero;fill:rgb(14.498901%,45.098877%,72.898865%);fill-opacity:1;" d="M 86.132812 104.207031 C 86.636719 102.660156 89.351562 105.496094 87.476562 106.882812 C 85.101562 108.628906 84.023438 104.476562 86.488281 104.46875 C 86.488281 104.851562 85.4375 107.417969 86.945312 106.140625 C 87.832031 105.390625 86.730469 104.6875 86.132812 104.214844 C 86.351562 103.535156 86.242188 104.296875 86.132812 104.207031 "/>
<path style=" stroke:none;fill-rule:nonzero;fill:rgb(0%,0%,0%);fill-opacity:1;" d="M 45.21875 79.59375 C 43.933594 80.058594 42.574219 80.3125 41.203125 80.34375 C 40.5625 80.34375 37.984375 79.714844 39.824219 79.136719 C 40.542969 79.136719 41.265625 79.183594 41.980469 79.277344 C 42.441406 79.277344 43.015625 79.082031 43.417969 79.089844 C 43.824219 79.097656 44.480469 79.03125 44.671875 79.042969 C 44.867188 79.058594 45.644531 78.539062 45.222656 79.558594 C 44.9375 79.683594 45.320312 79.339844 45.21875 79.59375 "/>
<path style=" stroke:none;fill-rule:nonzero;fill:rgb(0%,0%,0%);fill-opacity:1;" d="M 208.261719 69.957031 C 208.308594 70.390625 208.625 72.664062 207.4375 71.785156 C 206.878906 71.371094 207.03125 69.355469 207.03125 68.785156 C 207.03125 64.636719 208.753906 69.886719 208.261719 69.949219 C 208.308594 70.382812 208.277344 69.957031 208.261719 69.957031 "/>
<path style=" stroke:none;fill-rule:nonzero;fill:rgb(96.099854%,16.099548%,30.599976%);fill-opacity:1;" d="M 137.335938 91.097656 C 137.335938 89.972656 137.628906 90.394531 138.460938 90.226562 C 139.0625 90.105469 140.058594 89.09375 140.097656 90.316406 C 140.097656 90.675781 139.347656 90.796875 139.605469 91.570312 C 139.695312 91.863281 140.597656 92.816406 140.800781 93.21875 C 139.628906 93.574219 137.894531 91.976562 137.335938 91.097656 "/>
<path style=" stroke:none;fill-rule:nonzero;fill:rgb(0%,0%,0%);fill-opacity:1;" d="M 32.1875 111.234375 C 32.1875 110.792969 32.101562 109.21875 32.8125 109.097656 C 33.90625 108.882812 33.386719 110.5 33.386719 111.132812 C 33.386719 111.761719 33.78125 113.34375 33.066406 113.53125 C 32.355469 113.71875 32.277344 111.632812 32.222656 111.222656 C 32.160156 110.808594 32.277344 111.8125 32.1875 111.234375 "/>
<path style=" stroke:none;fill-rule:nonzero;fill:rgb(0%,0%,0%);fill-opacity:1;" d="M 44.285156 92.382812 C 44.863281 92.382812 45.492188 92.691406 44.988281 93.5 C 44.988281 93.5 44.238281 93.734375 44.136719 93.792969 C 43.449219 94.167969 40.984375 95.082031 40.449219 94.160156 C 39.699219 92.855469 44.308594 93.957031 44.28125 92.382812 C 44.527344 92.382812 44.296875 92.851562 44.285156 92.382812 "/>
<path style=" stroke:none;fill-rule:nonzero;fill:rgb(0%,0%,0%);fill-opacity:1;" d="M 44.863281 49.863281 C 45.894531 49.863281 46.050781 50.296875 45.382812 50.792969 L 45.386719 50.792969 C 44.894531 50.914062 44.390625 50.992188 43.886719 51.027344 C 43.511719 51.132812 43.136719 51.394531 42.714844 51.535156 C 42.101562 51.738281 40.800781 52.066406 41.277344 50.90625 C 41.589844 50.15625 44.277344 49.894531 44.875 49.863281 C 45.167969 49.871094 43.65625 49.921875 44.863281 49.863281 "/>
<path style=" stroke:none;fill-rule:nonzero;fill:rgb(0%,0%,0%);fill-opacity:1;" d="M 44.890625 109.105469 C 44.582031 109.238281 44.226562 109.167969 43.988281 108.933594 C 43.726562 108.648438 43.4375 108.679688 43.121094 109.03125 C 42.6875 109.03125 42.265625 109.300781 41.820312 109.308594 C 41.070312 109.308594 39.964844 109.097656 40.777344 108.324219 C 41.191406 107.941406 43.203125 108.046875 43.828125 107.820312 C 44.054688 107.738281 44.332031 106.914062 44.871094 107.363281 C 45.097656 107.558594 44.929688 108.863281 44.871094 109.097656 C 44.40625 109.292969 44.996094 108.527344 44.890625 109.105469 "/>
<path style=" stroke:none;fill-rule:nonzero;fill:rgb(0%,0%,0%);fill-opacity:1;" d="M 230.179688 86.570312 C 230.816406 86.1875 231.167969 85.480469 231.097656 84.746094 C 231.539062 85.496094 232.496094 87.632812 231.796875 88.421875 C 231.097656 89.210938 228.988281 88.421875 228.175781 88.300781 L 228.171875 88.300781 C 228.835938 88.382812 229.503906 88.230469 230.074219 87.875 C 230.59375 87.476562 231.121094 86.855469 230.195312 86.5625 C 230.285156 86.476562 230.824219 86.769531 230.179688 86.570312 "/>
<path style=" stroke:none;fill-rule:nonzero;fill:rgb(0%,0%,0%);fill-opacity:1;" d="M 44.582031 63.558594 C 44.53125 63.867188 44.609375 64.183594 44.800781 64.4375 C 44.253906 64.4375 40.144531 65.871094 40.804688 64.234375 C 41.296875 63.929688 41.824219 63.699219 42.386719 63.542969 C 43.101562 63.335938 43.855469 63.335938 44.570312 63.542969 C 44.636719 63.882812 44.019531 63.371094 44.582031 63.558594 "/>
<path style=" stroke:none;fill-rule:nonzero;fill:rgb(96.099854%,16.099548%,30.599976%);fill-opacity:1;" d="M 137.421875 91.195312 C 137.726562 91.691406 138.695312 92.066406 138.769531 92.554688 C 138.769531 92.636719 136.15625 94.910156 135.859375 94.84375 C 134.59375 94.566406 137.296875 91.890625 137.421875 91.199219 C 137.679688 91.632812 137.277344 92 137.421875 91.195312 "/>
<path style=" stroke:none;fill-rule:nonzero;fill:rgb(0%,0%,0%);fill-opacity:1;" d="M 55.472656 133.632812 C 55.578125 135.785156 54.4375 135.664062 54.300781 133.585938 C 54.144531 131.171875 55.753906 131.335938 55.472656 133.632812 C 55.496094 134.097656 55.496094 133.4375 55.472656 133.632812 "/>
<path style=" stroke:none;fill-rule:nonzero;fill:rgb(0%,0%,0%);fill-opacity:1;" d="M 231.332031 94.976562 C 231.199219 96.402344 229.558594 97.804688 229.308594 95.441406 C 229.257812 94.992188 229.117188 94.046875 229.625 93.792969 C 230.375 93.394531 230.535156 94.492188 231.125 94.640625 Z M 231.332031 94.976562 "/>
<path style=" stroke:none;fill-rule:nonzero;fill:rgb(0%,0%,0%);fill-opacity:1;" d="M 91.980469 120.085938 C 93.230469 120.085938 92.910156 120.582031 92.839844 121.585938 C 92.839844 121.992188 92.839844 123.191406 92.3125 123.296875 C 91.238281 123.523438 91.742188 120.550781 91.984375 120.101562 C 92.261719 120.085938 91.480469 121.015625 91.980469 120.085938 "/>
<path style=" stroke:none;fill-rule:nonzero;fill:rgb(0%,0%,0%);fill-opacity:1;" d="M 93.386719 134.523438 C 92.875 135.453125 89.0625 135.8125 89.6875 134.246094 C 90.039062 133.355469 92.6875 134.898438 93.386719 134.523438 C 93.339844 134.644531 92.980469 134.742188 93.386719 134.523438 "/>
<path style=" stroke:none;fill-rule:nonzero;fill:rgb(0%,0%,0%);fill-opacity:1;" d="M 43.738281 33.992188 C 44.679688 34.742188 45.382812 34.433594 46.425781 34.226562 C 47.277344 34.054688 48.136719 34.316406 48.90625 33.992188 C 48.859375 34.824219 47.40625 34.335938 46.921875 34.457031 C 46.546875 34.570312 46.1875 34.742188 45.871094 34.96875 C 45.871094 35.414062 45.679688 35.570312 45.300781 35.433594 C 44.941406 35.570312 44.761719 35.453125 44.753906 35.089844 C 44.292969 34.855469 43.929688 34.464844 43.730469 33.984375 C 44.371094 34.519531 43.738281 34.324219 43.738281 33.992188 "/>
<path style=" stroke:none;fill-rule:nonzero;fill:rgb(0%,0%,0%);fill-opacity:1;" d="M 32.277344 31.285156 C 32.761719 31.285156 34.351562 31.382812 34.292969 32.269531 C 34.210938 33.703125 32.394531 31.917969 32.277344 31.285156 C 32.636719 31.277344 32.445312 32.132812 32.277344 31.285156 "/>
<path style=" stroke:none;fill-rule:nonzero;fill:rgb(0%,0%,0%);fill-opacity:1;" d="M 93.386719 134.523438 C 93.003906 134.71875 90.800781 134.394531 90.515625 133.953125 C 91.332031 134.132812 92.636719 133.554688 93.425781 133.359375 L 93.421875 133.359375 C 93.519531 133.742188 93.519531 134.140625 93.421875 134.523438 C 92.980469 134.742188 93.460938 134.464844 93.386719 134.523438 "/>
<path style=" stroke:none;fill-rule:nonzero;fill:rgb(0%,0%,0%);fill-opacity:1;" d="M 34.339844 32.433594 C 34.285156 31.796875 33.636719 31.96875 33.496094 31.429688 C 34.042969 31.625 35.746094 30.996094 36.074219 31.429688 C 36.6875 32.128906 34.613281 32.457031 34.339844 32.472656 C 34.3125 32.195312 34.4375 32.425781 34.339844 32.433594 "/>
<path style=" stroke:none;fill-rule:nonzero;fill:rgb(0%,0%,0%);fill-opacity:1;" d="M 44.890625 34.421875 C 45.84375 34.421875 45.53125 34.210938 45.753906 35.171875 C 45.820312 35.9375 45.820312 36.707031 45.753906 37.472656 C 45.753906 38.476562 46.144531 40.839844 45.6875 41.6875 C 45.175781 42.65625 45.003906 41.972656 44.847656 41.28125 L 44.84375 41.285156 C 44.769531 40.523438 44.769531 39.757812 44.84375 38.996094 L 44.84375 34.421875 C 45.167969 34.414062 44.882812 36.964844 44.890625 34.421875 "/>
<path style=" stroke:none;fill-rule:nonzero;fill:rgb(93.699646%,84.298706%,7.798767%);fill-opacity:1;" d="M 139.980469 91.75 C 139.671875 91.632812 139.480469 91.324219 139.503906 90.996094 C 139.527344 90.664062 139.761719 90.390625 140.085938 90.320312 C 139.96875 90.785156 139.933594 91.269531 139.980469 91.75 C 139.707031 91.675781 139.882812 91.445312 139.980469 91.75 "/>
<path style=" stroke:none;fill-rule:nonzero;fill:rgb(0%,0%,0%);fill-opacity:1;" d="M 43.417969 79.121094 C 42.984375 79.382812 42.464844 79.449219 41.980469 79.308594 C 42.425781 79.089844 42.933594 79.023438 43.417969 79.121094 "/>
<path style=" stroke:none;fill-rule:nonzero;fill:rgb(0%,0%,0%);fill-opacity:1;" d="M 34.339844 32.433594 L 34.652344 32.433594 L 34.648438 32.433594 C 34.640625 32.625 34.519531 32.792969 34.34375 32.863281 C 34.164062 32.9375 33.964844 32.90625 33.816406 32.777344 L 34.332031 32.453125 C 34.4375 32.425781 34.136719 32.546875 34.339844 32.433594 "/>
<path style=" stroke:none;fill-rule:nonzero;fill:rgb(93.699646%,84.298706%,7.798767%);fill-opacity:1;" d="M 140.789062 93.226562 L 140.488281 92.632812 C 141.019531 92.785156 141.054688 92.851562 140.789062 93.226562 "/>
<path style=" stroke:none;fill-rule:nonzero;fill:rgb(96.099854%,16.099548%,30.599976%);fill-opacity:1;" d="M 136.210938 69.757812 C 136.289062 69.71875 136.339844 69.648438 136.371094 69.617188 C 137.5 68.65625 135.039062 67.835938 136.171875 67.308594 C 136.871094 66.988281 137.601562 67.996094 138.53125 67.597656 C 139.460938 67.199219 139.890625 65.757812 140.699219 65.46875 C 141.5 65.179688 141.722656 65.9375 141.5 66.679688 C 141.199219 67.738281 139.929688 67.96875 139.371094 68.777344 C 138.8125 69.597656 139.941406 71.058594 140.03125 72.097656 C 141.300781 72.808594 139.632812 74.726562 139.652344 72.988281 C 139.652344 72.988281 139.652344 72.976562 139.640625 72.988281 C 139.5 72.707031 139.410156 72.40625 139.320312 72.117188 C 138.8125 71.769531 138.449219 71.238281 138.300781 70.636719 C 138.28125 70.628906 138.261719 70.566406 138.230469 70.386719 L 138.222656 70.378906 C 138.210938 70.367188 138.199219 70.359375 138.199219 70.359375 C 138.109375 70.269531 138 70.199219 137.882812 70.148438 C 137.609375 70.277344 137.3125 70.316406 137.023438 70.269531 L 135.871094 70.96875 C 135.359375 71.398438 134.859375 71.566406 134.800781 70.699219 L 134.839844 70.699219 C 134.832031 70.699219 134.8125 70.6875 134.8125 70.6875 C 135.121094 70.457031 135.339844 70.097656 135.722656 69.949219 C 135.730469 69.917969 135.789062 69.886719 135.910156 69.878906 C 135.921875 69.878906 135.921875 69.886719 135.921875 69.886719 L 135.921875 69.878906 C 135.960938 69.867188 135.980469 69.886719 136.023438 69.867188 C 136.082031 69.867188 136.109375 69.859375 136.109375 69.847656 C 136.230469 69.835938 135.960938 69.796875 136.210938 69.757812 "/>
<path style=" stroke:none;fill-rule:nonzero;fill:rgb(0%,0%,0%);fill-opacity:1;" d="M 231.085938 94.632812 C 230.78125 94.570312 230.558594 94.328125 230.523438 94.023438 C 230.8125 94.09375 231.03125 94.332031 231.085938 94.632812 "/>
<path style=" stroke:none;fill-rule:nonzero;fill:rgb(0%,0%,0%);fill-opacity:1;" d="M 230.191406 93.769531 L 229.621094 93.769531 C 229.675781 93.664062 229.789062 93.597656 229.90625 93.597656 C 230.027344 93.597656 230.132812 93.664062 230.191406 93.769531 "/>
<path style=" stroke:none;fill-rule:nonzero;fill:rgb(100%,100%,100%);fill-opacity:1;" d="M 86.132812 104.207031 C 86.25 104.480469 86.367188 104.570312 86.488281 104.46875 C 85.84375 104.617188 85.722656 104.53125 86.132812 104.207031 C 86.242188 104.296875 86.058594 104.296875 86.132812 104.207031 "/>
<path style=" stroke:none;fill-rule:nonzero;fill:rgb(0%,0%,0%);fill-opacity:1;" d="M 44.984375 48.492188 C 45.0625 48.546875 45.101562 48.636719 45.101562 48.726562 C 45.101562 48.820312 45.0625 48.90625 44.984375 48.964844 Z M 44.984375 48.492188 "/>
<path style=" stroke:none;fill-rule:nonzero;fill:rgb(0%,0%,0%);fill-opacity:1;" d="M 34.648438 32.636719 C 34.570312 32.320312 34.738281 32.246094 35.160156 32.410156 L 34.648438 32.636719 C 34.648438 32.5625 34.820312 32.5625 34.648438 32.636719 "/>
<path style=" stroke:none;fill-rule:nonzero;fill:rgb(14.498901%,45.098877%,72.898865%);fill-opacity:1;" d="M 89.09375 77.027344 L 88.847656 77.417969 C 88.832031 77.25 88.9375 77.089844 89.09375 77.027344 "/>
<path style=" stroke:none;fill-rule:nonzero;fill:rgb(0%,0%,0%);fill-opacity:1;" d="M 231.316406 94.953125 C 231.171875 94.910156 231.082031 94.777344 231.078125 94.632812 C 231.21875 94.671875 231.320312 94.804688 231.316406 94.953125 "/>
<path style=" stroke:none;fill-rule:nonzero;fill:rgb(0%,0%,0%);fill-opacity:1;" d="M 229.304688 94.351562 L 229.304688 94.757812 C 229.207031 94.640625 229.207031 94.472656 229.304688 94.351562 "/>
<path style=" stroke:none;fill-rule:nonzero;fill:rgb(0%,0%,0%);fill-opacity:1;" d="M 230.53125 94.03125 C 230.378906 94.023438 230.25 93.921875 230.207031 93.777344 C 230.359375 93.769531 230.5 93.878906 230.53125 94.03125 "/>
<path style=" stroke:none;fill-rule:nonzero;fill:rgb(0%,0%,0%);fill-opacity:1;" d="M 141.339844 118.578125 C 141.359375 118.726562 141.292969 118.871094 141.164062 118.945312 C 141.144531 118.800781 141.207031 118.652344 141.339844 118.578125 "/>
<path style=" stroke:none;fill-rule:nonzero;fill:rgb(93.699646%,84.298706%,7.798767%);fill-opacity:1;" d="M 139.464844 72.4375 L 139.617188 72.746094 C 139.5 72.695312 139.4375 72.566406 139.464844 72.4375 "/>
<path style=" stroke:none;fill-rule:nonzero;fill:rgb(14.498901%,45.098877%,72.898865%);fill-opacity:1;" d="M 88.617188 77.449219 C 88.515625 77.550781 88.351562 77.570312 88.226562 77.5 C 88.324219 77.390625 88.492188 77.367188 88.617188 77.449219 "/>
<path style=" stroke:none;fill-rule:nonzero;fill:rgb(0%,0%,0%);fill-opacity:1;" d="M 48.9375 33.730469 L 48.898438 33.476562 C 49.039062 33.566406 49.054688 33.652344 48.9375 33.730469 C 48.898438 33.648438 48.96875 33.699219 48.9375 33.730469 "/>
<path style=" stroke:none;fill-rule:nonzero;fill:rgb(0%,0%,0%);fill-opacity:1;" d="M 93.453125 134.304688 L 93.453125 133.832031 C 93.519531 133.894531 93.554688 133.980469 93.554688 134.070312 C 93.554688 134.160156 93.519531 134.246094 93.453125 134.304688 "/>
<path style=" stroke:none;fill-rule:nonzero;fill:rgb(100%,100%,100%);fill-opacity:1;" d="M 78.761719 86.132812 C 77.972656 85.886719 78.011719 85.234375 78.867188 85.433594 C 79.617188 85.613281 79.460938 86.054688 78.761719 86.132812 C 78.664062 86.097656 78.9375 86.109375 78.761719 86.132812 "/>
<path style=" stroke:none;fill-rule:nonzero;fill:rgb(100%,100%,100%);fill-opacity:1;" d="M 59.851562 86.882812 C 60.601562 86.882812 60.960938 87.746094 60.066406 87.976562 C 59.179688 88.210938 59.179688 86.933594 59.851562 86.882812 C 60.128906 86.875 59.515625 86.90625 59.851562 86.882812 "/>
<path style=" stroke:none;fill-rule:nonzero;fill:rgb(0%,0%,0%);fill-opacity:1;" d="M 60.53125 107.605469 C 66.917969 100.945312 72.8125 93.910156 79.203125 87.28125 C 85.59375 80.652344 92.03125 74 98.703125 67.578125 C 105.15625 61.375 111.613281 55.210938 118 48.910156 C 121.046875 45.910156 124.320312 42.722656 127.144531 39.519531 C 129.976562 36.316406 133.03125 33.273438 135.59375 29.910156 C 136.105469 29.234375 138.890625 25.636719 139.34375 26.242188 C 139.628906 26.640625 138.890625 27.285156 138.441406 27.742188 L 138.441406 27.746094 C 137.621094 28.667969 136.847656 29.632812 136.136719 30.640625 C 133.757812 33.878906 130.472656 37.144531 127.644531 40.097656 C 124.4375 43.449219 121.214844 46.742188 117.957031 50.035156 C 114.90625 53.117188 111.753906 56.035156 108.6875 59.101562 C 102.570312 65.183594 96.222656 70.90625 90.183594 77.0625 C 86.84375 80.460938 83.519531 83.871094 80.207031 87.285156 C 77.253906 90.332031 74.507812 93.523438 71.644531 96.644531 C 64.605469 104.382812 57.332031 111.882812 50.355469 119.671875 C 49.5625 120.558594 48.691406 121.417969 47.929688 122.3125 C 47.503906 122.816406 46.613281 124.335938 46.210938 123.730469 C 45.804688 123.121094 49.480469 119.605469 50.179688 118.847656 C 53.621094 115.097656 57.167969 111.398438 60.527344 107.597656 C 61.414062 106.683594 58.886719 109.449219 60.53125 107.605469 "/>
<path style=" stroke:none;fill-rule:nonzero;fill:rgb(0%,0%,0%);fill-opacity:1;" d="M 222.59375 68.449219 C 221.707031 68.230469 221.636719 69.882812 220.65625 69.753906 C 219.15625 69.527344 220.195312 68.117188 220.65625 67.585938 C 221 67.164062 221.597656 66.835938 221.351562 66.183594 C 221.121094 65.691406 220.546875 65.46875 220.054688 65.679688 C 219.6875 65.835938 218.554688 67.59375 218.652344 65.507812 C 218.71875 64.429688 220.070312 64.082031 220.902344 64.375 C 222.402344 64.890625 221.785156 66.03125 223.074219 64.75 C 223.738281 64.097656 224.9375 63.511719 224.625 65.15625 C 224.378906 66.484375 223.328125 66.792969 223.738281 68.433594 L 222.613281 68.433594 C 222.386719 68.382812 222.96875 68.441406 222.59375 68.449219 "/>
<path style=" stroke:none;fill-rule:nonzero;fill:rgb(0%,0%,0%);fill-opacity:1;" d="M 226.390625 68.5625 C 227.535156 67.8125 226.160156 67.496094 226.488281 66.492188 C 226.8125 65.488281 227.988281 65.667969 228.484375 66.445312 C 229.0625 67.40625 228.273438 68.019531 228.058594 68.898438 C 227.683594 70.398438 228.625 69.648438 229.910156 69.589844 C 230.460938 69.589844 232.160156 69.785156 231.484375 70.820312 C 231.164062 71.332031 229.144531 71.292969 228.484375 71.332031 L 228.484375 71.328125 C 227.835938 71.453125 227.171875 71.316406 226.632812 70.945312 C 226.371094 70.644531 226.203125 70.273438 226.132812 69.882812 L 225.914062 69.367188 L 225.914062 69.363281 C 226.257812 69.265625 226.457031 68.914062 226.371094 68.570312 C 227.039062 68.125 226.425781 68.9375 226.390625 68.5625 "/>
</g>
</svg>
