<?xml version="1.0" encoding="UTF-8" standalone="no"?>
<!DOCTYPE svg PUBLIC "-//W3C//DTD SVG 1.1//EN" "http://www.w3.org/Graphics/SVG/1.1/DTD/svg11.dtd">
<svg xmlns="http://www.w3.org/2000/svg" xmlns:xlink="http://www.w3.org/1999/xlink" version="1.1" width="497pt" height="454pt" viewBox="0 0 497 454">
<g enable-background="new">
<g id="Layer-1" data-name="Layer">
<path transform="matrix(1,0,0,-1,0,454)" d="M 0 0 L 497 0 L 497 454 L 0 454 Z " fill="#f0f0f0"/>
<clipPath id="cp0">
<path transform="matrix(1,0,0,-1,0,454)" d="M 0 454 L 497 454 L 497 0 L 0 0 Z "/>
</clipPath>
<g clip-path="url(#cp0)">
<path transform="matrix(1,0,0,-1,34.5399,137.4639)" d="M 0 0 C -.837 -7.153 -.56 -14.342 -.376 -21.498 C .343 -49.554 1.282 -77.604 2.123 -105.656 C 2.712 -125.329 2.762 -144.992 1.192 -164.634 C -.218 -182.286 -.229 -199.953 .641 -217.635 C 1.08 -226.574 1.241 -235.526 1.609 -244.469 C 1.759 -248.105 2.261 -251.729 2.347 -255.365 C 2.403 -257.777 3.261 -258.511 5.705 -258.538 C 18.092 -258.675 30.458 -258.049 42.825 -257.604 C 85.039 -256.084 127.265 -256.359 169.489 -256.639 C 195.019 -256.808 220.554 -257.201 246.075 -257.914 C 276.334 -258.76 306.589 -259.877 336.83 -261.241 C 351.074 -261.884 431.867 -260.375 446.125 -259.583 C 447.34 -259.515 448.687 -259.201 450.106 -260.182 C 448.311 -261.225 446.67 -261.386 444.948 -261.436 C 424.046 -262.043 336.631 -262.895 315.775 -261.928 C 299.662 -261.181 283.529 -260.861 267.407 -260.296 C 223.772 -258.767 180.119 -258.43 136.462 -258.161 C 110.157 -257.998 83.856 -258.21 57.558 -258.591 C 41.652 -258.821 25.754 -259.63 9.855 -260.221 C 7.597 -260.305 4.839 -258.9 3.217 -260.697 C 1.894 -262.164 3.517 -264.975 1.773 -267.741 C 1.477 -265.654 1.028 -264.232 1.133 -262.853 C 1.335 -260.197 .033 -259.768 -2.233 -259.794 C -6.241 -259.84 -10.256 -259.651 -14.147 -257.916 C -12.073 -257.916 -9.997 -257.86 -7.925 -257.934 C -6.163 -257.996 -4.384 -258.082 -2.651 -258.382 C .384 -258.907 1.143 -257.704 .899 -254.78 C -.654 -236.159 -.572 -217.474 -1.096 -198.812 C -1.496 -184.54 -.138 -170.343 .655 -156.118 C 1.542 -140.225 1.622 -124.322 .999 -108.399 C .073 -84.771 -.161 -61.113 -1.317 -37.498 C -2.345 -16.478 -.908 4.46 -.487 25.434 C -.197 39.902 -1.396 54.37 -.716 68.833 C -.468 74.114 -.691 79.43 .181 84.687 C .403 86.023 .215 87.428 .215 89.193 C -2.328 87.429 -3.298 84.63 -6.069 83.593 C -6.442 85.043 -5.294 85.614 -4.644 86.262 C -.898 89.996 1.46 94.296 1.224 99.741 C 1.198 100.342 1.288 100.886 1.928 101.029 C 2.449 101.146 2.747 100.673 2.802 100.259 C 3.531 94.765 6.174 89.769 6.932 84.289 C 7 83.797 6.759 83.262 6.213 82.62 C 4.672 86.453 4.141 90.64 2.098 94.457 C 1.365 93.335 1.013 92.377 .997 91.282 C .671 68.457 .696 45.631 .86 22.804 C .898 17.618 .461 12.428 .246 7.24 C .17 5.418 .227 3.649 2.223 2.734 C 2.623 2.419 2.621 2.025 2.451 1.598 C 2.013 1.079 1.373 .838 .847 .443 C .607 .22 .155 .398 0 0 " fill="#08090a"/>
<path transform="matrix(1,0,0,-1,356.1132,224.1533)" d="M 0 0 C -13.76 -.715 -27.504 -1.975 -41.301 -.412 C -50.102 .585 -58.965 .034 -67.799 .108 C -86.046 .26 -104.14 2.435 -122.252 4.243 C -127.685 4.786 -133.087 6.383 -138.315 8.078 C -149.141 11.588 -160.49 12.928 -171.313 16.47 C -178.001 18.658 -184.958 20.013 -191.771 21.83 C -206.391 25.729 -219.688 32.489 -232.716 40.085 C -244.404 46.9 -255.028 55.108 -265.947 62.976 C -273.259 68.244 -281.179 72.667 -288.827 77.469 C -289.402 77.531 -289.683 77.884 -289.772 78.425 C -289.742 78.765 -289.606 79.053 -289.349 79.281 C -288.855 79.531 -288.4 79.453 -287.976 79.114 C -283.402 74.87 -277.79 72.144 -272.557 68.924 C -264.726 64.104 -257.783 58.118 -250.253 52.931 C -230.561 39.368 -210.067 27.452 -186.505 21.691 C -169.823 17.613 -153.197 13.289 -136.621 8.796 C -124.501 5.512 -112.116 4.648 -99.707 3.366 C -81.861 1.522 -63.988 1.95 -46.135 1.222 C -34.555 .75 -23.016 -.329 -11.423 .716 C -8.697 .073 -5.928 .624 -3.188 .415 C -2.122 .334 -.973 .808 0 0 " fill="#2674ba"/>
<path transform="matrix(1,0,0,-1,78.2449,131.0748)" d="M 0 0 C 1.691 -1.217 3.355 -2.474 5.079 -3.642 C 7.904 -5.557 10.664 -5.411 13.269 -3.184 C 15.449 -1.32 17.574 .611 19.782 2.442 C 22.898 5.027 26.239 5.381 29.415 2.715 C 34.426 -1.492 38.841 -.091 43.811 3.139 C 51.587 8.192 57.357 14.875 62.631 22.384 C 70.865 34.107 79.185 45.807 88.904 56.408 C 91.589 59.336 94.076 62.439 96.102 65.881 C 96.158 65.976 96.215 66.075 96.291 66.153 C 103.28 73.205 108.142 82.326 117.046 87.51 C 118.333 88.259 119.705 88.864 121.693 89.866 C 120.623 87.15 118.836 86.271 117.268 85.226 C 113.762 82.89 110.307 80.522 108.261 76.658 C 108.108 76.368 107.922 76.056 107.667 75.866 C 99.545 69.82 94.83 60.816 88.232 53.443 C 78.952 43.074 70.763 31.816 62.837 20.406 C 57.533 12.77 51.599 6.048 43.577 1.145 C 38.722 -1.822 34.381 -2.518 29.544 1.058 C 25.296 4.199 23.936 3.997 19.894 .713 C 18.268 -.608 16.795 -2.113 15.222 -3.5 C 11.266 -6.986 8.253 -7.199 3.906 -4.237 C 2.27 -3.123 .73 -1.867 -.854 -.675 C -.995 .087 -.672 .264 0 0 " fill="#ee2e50"/>
<path transform="matrix(1,0,0,-1,356.1132,224.1533)" d="M 0 0 C -3.786 .597 -7.686 -.642 -11.424 .716 C 4.322 1.396 20.033 2.398 35.801 .371 C 49.408 -1.378 63.134 -.294 76.795 .21 C 88.877 .655 100.403 -2.314 112.047 -4.693 C 112.652 -4.817 113.207 -5.186 113.792 -5.444 C 113.391 -6.82 112.565 -6.191 111.898 -6.058 C 104.979 -4.678 98.093 -3.104 91.137 -1.95 C 83.7 -.715 76.162 -1.25 68.675 -1.494 C 55.662 -1.918 42.681 -2.028 29.721 -.425 C 19.843 .796 9.918 .652 0 0 " fill="#2674ba"/>
<path transform="matrix(1,0,0,-1,472.7601,424.5265)" d="M 0 0 C 4.023 .905 5.069 .288 6.055 -3.508 C 6.31 -4.487 6.594 -5.398 7.234 -6.186 C 7.686 -6.743 8.605 -7.31 7.659 -8.059 C 6.884 -8.67 6.021 -8.43 5.281 -7.739 C 4.252 -6.778 3.856 -5.49 3.605 -4.219 C 3.182 -2.085 2.423 -1.453 .628 -3.099 C -.064 -3.735 -.719 -4.819 -1.864 -4.289 C -3.155 -3.691 -2.826 -2.351 -2.644 -1.35 C -1.699 3.829 .136 8.842 .16 14.196 C .163 14.838 .642 15.538 1.423 15.375 C 2.276 15.197 2.659 14.393 2.577 13.596 C 2.34 11.304 2.089 9.006 1.658 6.745 C 1.235 4.52 .585 2.337 0 0 " fill="#0d1110"/>
<path transform="matrix(1,0,0,-1,239.6528,58.0625)" d="M 0 0 C .984 -5.681 -1.129 -11.033 -.286 -16.466 C .102 -16.403 .436 -16.427 .688 -16.294 C 1.997 -15.608 3.07 -13.266 4.786 -15.092 C 6.546 -16.964 6.299 -19.589 6.066 -21.994 C 5.998 -22.701 5.252 -22.572 4.857 -22.055 C 4.597 -21.716 4.309 -21.265 4.322 -20.874 C 4.464 -16.566 3.121 -16.605 .495 -19.429 C -1.084 -21.128 -1.774 -19.76 -2.085 -18.311 C -2.762 -15.153 -2.467 -11.956 -2.17 -8.786 C -1.984 -6.807 -1.759 -4.833 -2.072 -2.869 C -2.404 -.776 -2.818 1.985 -.391 2.273 C 2.162 2.576 3.021 -.169 3.876 -3.28 C 2.152 -1.821 1.076 -.911 0 0 " fill="#ee2e50"/>
<path transform="matrix(1,0,0,-1,63.0409,69.022708)" d="M 0 0 C -1.741 -1.917 -6.77 -3.353 -8.661 -2.341 C -10.987 -1.097 -11.057 1.198 -10.869 3.439 C -10.269 10.557 -9.601 17.67 -8.957 24.785 C -8.878 25.66 -8.869 26.833 -7.746 26.78 C -6.439 26.719 -6.877 25.476 -6.95 24.69 C -7.577 17.9 -8.402 11.124 -8.856 4.324 C -9.201 -.854 -8.609 -1.189 -3.463 -.118 C -2.327 .118 -1.2 .589 0 0 " fill="#17181c"/>
<path transform="matrix(1,0,0,-1,227.9019,76.976718)" d="M 0 0 C 2.86 .461 5.328 .574 6.158 -2.773 C 7.095 -6.549 7.257 -10.221 4.885 -13.533 C 4.144 -14.568 2.991 -14.477 2.019 -13.515 C .084 -11.602 .185 -9.561 1.432 -7.219 C 1.71 -7.544 1.881 -7.663 1.938 -7.823 C 2.399 -9.126 1.045 -11.587 3.268 -11.58 C 5.091 -11.574 5.115 -9.15 5.273 -7.559 C 5.694 -3.328 4.784 -2.299 .844 -2.293 C -.948 -2.291 -1.839 -1.201 -1.874 .39 C -1.924 2.641 -.469 4.061 1.461 4.866 C 2.79 5.42 3.587 4.504 3.797 3.283 C 3.926 2.532 4.6 1.022 2.512 1.939 C 1.306 2.469 .681 1.288 0 0 " fill="#ee2e50"/>
<path transform="matrix(1,0,0,-1,199.7741,168.02622)" d="M 0 0 C 2.064 -3.043 1.937 -5.675 .968 -8.333 C .531 -9.531 -.719 -10.803 -1.686 -10.466 C -3.883 -9.702 -5.703 -9.187 -7.542 -11.154 C -7.866 -11.5 -8.7 -10.716 -8.967 -10.079 C -9.484 -8.845 -9.824 -7.572 -9.509 -6.216 C -9.178 -4.79 -9.314 -2.221 -7.824 -2.482 C -6.006 -2.799 -7.941 -4.828 -7.735 -6.119 C -7.635 -6.749 -7.718 -7.409 -7.718 -7.993 C -6.712 -8.327 -6.354 -7.731 -5.956 -7.202 C -5.401 -6.464 -5.593 -4.951 -4.307 -5.044 C -3.236 -5.121 -3.509 -6.438 -3.177 -7.194 C -2.888 -7.854 -2.577 -8.429 -1.757 -8.165 C -.966 -7.911 -.625 -7.255 -.354 -6.473 C .313 -4.546 -.81 -2.573 0 0 " fill="#2674ba"/>
<path transform="matrix(1,0,0,-1,147.5082,169.59079)" d="M 0 0 C -6.221 -3.017 -4.247 -7.912 -3.616 -13.007 C -5.764 -10.912 -5.594 -8.858 -6.04 -7.028 C -6.235 -6.23 -6.219 -4.953 -7.572 -6.119 C -8.123 -6.595 -8.552 -6.492 -8.905 -5.949 C -9.3 -5.341 -9.396 -4.512 -8.825 -4.14 C -5.189 -1.772 -6.915 1.757 -6.796 4.871 C -6.76 5.831 -7.173 6.819 -6.329 8.006 C -4.538 6.776 -5.322 4.84 -5.001 3.338 C -4.487 .94 -5.279 -2.82 0 0 " fill="#2674ba"/>
<path transform="matrix(1,0,0,-1,75.5974,70.12671)" d="M 0 0 C -.176 .04 -1.069 .119 -1.848 .458 C -2.549 .762 -3.228 1.397 -2.786 2.281 C -2.38 3.092 -1.702 3.715 -.664 3.103 C -.484 2.996 -.392 2.728 -.208 2.639 C 1.392 1.872 3.118 2.233 3.847 3.563 C 4.572 4.886 2.732 5.374 1.862 6.053 C .594 7.042 -1.254 7.715 -.541 9.807 C .091 11.663 1.694 12.419 3.588 12.549 C 4.405 12.605 5.302 12.414 5.528 11.621 C 5.894 10.338 4.67 10.706 4.048 10.522 C 3.106 10.242 1.903 10.167 1.715 9.022 C 1.551 8.024 2.694 7.709 3.314 7.123 C 4.597 5.909 6.864 5.029 5.919 2.753 C 5.032 .617 2.929 -.005 0 0 " fill="#1a1b1d"/>
<path transform="matrix(1,0,0,-1,211.4283,60.343996)" d="M 0 0 C 1.962 -2.692 1.845 -5.76 2.038 -8.766 C 2.138 -10.316 1.984 -11.963 4.54 -10.871 C 6.149 -10.184 7.19 -11.482 7.914 -12.789 C 9.066 -14.868 9.324 -17.115 9.158 -19.457 C 7.867 -19.497 7.857 -18.626 7.832 -17.909 C 7.786 -16.561 7.489 -15.276 6.85 -14.119 C 6.218 -12.974 5.168 -12.327 3.821 -12.688 C 2.4 -13.069 2.662 -14.282 2.603 -15.384 C 2.549 -16.39 3.518 -17.414 2.219 -18.961 C .305 -12.457 .524 -6.166 0 0 " fill="#ee2e50"/>
<path transform="matrix(1,0,0,-1,88.7747,66.83899)" d="M 0 0 C -.859 1.587 -2.145 2.399 -2.54 3.862 C -3.145 6.101 -1.905 8.271 .298 8.533 C 1.451 8.67 2.709 8.461 3.042 7.248 C 3.548 5.402 1.916 6.294 1.166 6.01 C -1.121 5.145 -.383 3.843 .714 2.507 C 1.608 1.419 3.733 .578 2.15 -1.195 C .521 -3.02 -1.878 -3.273 -4.242 -3.136 C -4.485 -3.122 -4.93 -2.687 -4.895 -2.54 C -4.807 -2.171 -4.571 -1.679 -4.263 -1.55 C -2.967 -1.006 -1.622 -.576 0 0 " fill="#1d1e1f"/>
<path transform="matrix(1,0,0,-1,456.734,427.8755)" d="M 0 0 C -.344 2.398 -1.798 5.067 -4.105 4.852 C -6.453 4.633 -5.526 1.334 -6.041 -.525 C -6.504 -2.199 -4.797 -3.096 -3.598 -3.034 C -1.019 -2.973 .289 -2.017 0 0 " fill="#171919"/>
<path transform="matrix(1,0,0,-1,184.3408,79.712009)" d="M 0 0 C -1.323 1.568 -1.024 3.197 -1.48 4.567 C -2.328 7.117 -3.595 9.602 -1.601 12.293 C -1.05 13.037 -1.894 14.401 -.575 16.36 C -.754 11.686 1.388 9.938 5.302 10.393 C 4.039 7.75 .295 9.642 .033 6.568 C -.14 4.547 0 2.5 0 0 " fill="#ee2e50"/>
<path transform="matrix(1,0,0,-1,487.25,398.0126)" d="M 0 0 C -.231 .358 -.288 .45 -.348 .54 C -1.029 1.549 -3.329 1.214 -2.809 3.005 C -2.542 3.922 -1.283 3.347 -.488 2.934 C 1.025 2.149 2.534 1.325 1.985 -.78 C 1.594 -2.281 -5.701 -5.775 -7.184 -5.209 C -7.429 -5.116 -7.729 -4.8 -7.755 -4.56 C -7.841 -3.777 -7.178 -3.391 -6.651 -3.069 C -4.603 -1.817 -2.058 -1.623 0 0 " fill="#2a2b2b"/>
<path transform="matrix(1,0,0,-1,190.916,77.16019)" d="M 0 0 C -.329 .92 .555 1.94 .263 2.856 C 1.707 1.309 1.54 1.169 0 0 M 3.985 1.555 C 3.762 2.567 3.289 3.4 2.565 4.114 C 1.31 5.352 .34 5.183 -.339 3.576 C -3.247 2.701 -3.225 .409 -2.654 -1.845 C -2.245 -3.465 -.722 -4.063 .802 -3.476 C 3.005 -2.628 4.592 -1.195 3.985 1.555 " fill="#ee2e50"/>
<path transform="matrix(1,0,0,-1,468.8499,427.2717)" d="M 0 0 C -1.191 -2.051 -3.034 -2.554 -5.228 -2.189 C -6.584 -1.964 -7.385 -1.109 -7.479 .283 C -7.625 2.459 -6.64 4.116 -4.95 5.379 C -4.083 6.028 -2.918 6.304 -2.259 5.408 C -1.247 4.031 -2.7 3.927 -3.539 3.512 C -4.722 2.927 -5.609 1.854 -5.157 .607 C -4.608 -.907 -3.126 -.263 -1.968 -.101 C -1.359 -.016 -.839 .711 0 0 " fill="#181c1b"/>
<path transform="matrix(1,0,0,-1,196.7747,75.7984)" d="M 0 0 C 1.654 -.178 .35 -2.648 2.261 -2.016 C 3.072 -1.748 3.902 -1.173 4.009 -.198 C 4.175 1.307 3.185 1.612 1.927 1.626 C 1.22 1.634 .582 1.972 .812 2.818 C .999 3.507 1.625 3.847 2.348 3.829 C 3.701 3.796 4.623 3.045 5.175 1.882 C 5.922 .31 6.193 -1.288 4.845 -2.712 C 3.938 -3.671 2.946 -4.875 1.506 -4.393 C -.729 -3.645 -.303 -1.785 0 0 " fill="#ee2e50"/>
<path transform="matrix(1,0,0,-1,66.6672,144.93161)" d="M 0 0 C .008 .215 0 .429 -.024 .642 C 2.015 4.218 3.926 7.874 6.143 11.336 C 7.312 13.162 8.704 15.327 11.576 13.857 C 11.292 13.632 11.007 13.407 10.723 13.181 C 8.659 13.08 7.745 11.46 6.802 10.032 C 4.691 6.836 3.003 3.401 1.47 -.107 C .98 -.072 .49 -.036 0 0 " fill="#ef4259"/>
<path transform="matrix(1,0,0,-1,181.5458,292.94593)" d="M 0 0 C .212 .423 .424 .845 .637 1.268 C 1.276 -1.4 1.916 -4.067 2.556 -6.735 C 2.294 -6.732 2.033 -6.73 1.771 -6.727 C .78 -4.59 .413 -2.289 0 0 " fill="#efd717"/>
<path transform="matrix(1,0,0,-1,223.7061,80.37219)" d="M 0 0 C -1.765 1.4 -1.102 2.801 -.725 4.681 C .64 3.029 .224 1.66 0 0 " fill="#ee2e50"/>
<path transform="matrix(1,0,0,-1,176.9472,260.26539)" d="M 0 0 C -.191 1.468 .186 3.777 -1.444 3.981 C -3.342 4.219 -3.912 1.886 -4.622 .344 C -4.884 -.223 -4.805 -.947 -4.882 -1.599 L -4.882 -1.6 C -6.72 -7.694 -7.664 -13.97 -8.663 -20.235 C -9.907 -27.211 -11.15 -34.187 -12.394 -41.163 C -12.575 -41.194 -12.756 -41.224 -12.937 -41.254 C -13.575 -39.115 -14.214 -36.976 -14.852 -34.836 C -15.56 -30.288 -16.267 -25.739 -16.974 -21.191 C -16.988 -21.034 -17.015 -20.874 -17.048 -20.713 C -17.117 -20.27 -17.186 -19.828 -17.255 -19.385 L -17.255 -19.383 C -17.937 -12.294 -18.616 -5.204 -19.304 1.885 C -19.355 2.407 -19.244 3.088 -19.864 3.302 C -20.726 3.599 -21.003 2.795 -21.261 2.259 C -22.943 -1.235 -23.808 -4.949 -24.12 -8.802 C -24.158 -8.968 -24.186 -9.136 -24.222 -9.302 C -24.308 -9.592 -24.415 -9.889 -24.394 -10.144 C -25.339 -14.993 -25.417 -19.941 -25.978 -24.834 C -25.739 -24.829 -25.501 -24.823 -25.262 -24.818 C -23.948 -20.239 -24.097 -15.472 -23.461 -10.806 C -23.057 -7.194 -22.58 -3.603 -20.44 .487 C -19.552 -7.855 -18.758 -15.307 -17.965 -22.76 C -17.409 -27.065 -17.118 -31.422 -15.508 -35.524 L -15.508 -35.525 C -15.125 -37.122 -14.792 -38.734 -14.34 -40.311 C -14.022 -41.423 -13.928 -43.135 -12.509 -43.052 C -11.19 -42.974 -11.01 -41.335 -10.833 -40.149 C -9.874 -33.742 -8.951 -27.331 -8.016 -20.92 C -7.944 -20.741 -7.915 -20.602 -7.918 -20.493 C -6.495 -14.22 -4.949 -7.971 -4.213 -1.563 C -3.448 -.196 -3.275 1.523 -1.688 2.893 C -.016 -9.306 1.646 -21.111 4.599 -32.68 C 5.764 -32.737 5.527 -32.089 5.235 -31.413 C 2.722 -21.07 1.369 -10.534 0 0 " fill="#efd717"/>
<path transform="matrix(1,0,0,-1,442.4409,275.3688)" d="M 0 0 C -4.276 -10.332 -8.552 -20.663 -12.828 -30.995 C -13.359 -31.958 -13.789 -32.998 -14.444 -33.869 C -15.66 -35.487 -16.303 -38.699 -18.324 -38.259 C -20.664 -37.75 -20.631 -34.617 -20.841 -32.321 C -21.696 -22.95 -20.415 -13.578 -20.838 -4.208 C -20.925 -2.279 -20.491 .37 -22.826 .85 C -25.061 1.309 -25.374 -1.38 -26.241 -2.94 C -30.107 -10.815 -32.149 -19.317 -34.728 -27.634 C -36.087 -30.6 -36.628 -33.913 -38.483 -36.819 C -39.526 -35.051 -39.428 -33.266 -39.416 -31.527 C -39.35 -22.039 -39.205 -12.552 -39.176 -3.064 C -39.17 -1.384 -38.517 1.327 -40.275 1.663 C -42.228 2.036 -42.708 -.699 -43.5 -2.336 L -43.5 -2.337 C -48.053 -10.55 -50.159 -19.672 -53.187 -28.451 C -54.365 -31.047 -55.529 -33.649 -56.732 -36.234 C -57.003 -36.818 -57.328 -37.509 -58.096 -37.506 C -59.099 -37.501 -59.249 -36.606 -59.434 -35.889 C -60.21 -32.894 -60.589 -29.839 -60.624 -26.749 C -60.71 -19.035 -60.565 -11.327 -60.253 -3.616 C -60.173 -1.624 -59.515 1.426 -62.235 2.071 C -64.521 2.614 -65.563 .046 -66.678 -1.691 C -71.106 -8.712 -73.287 -16.631 -75.762 -24.432 C -77.442 -29.245 -78.641 -34.256 -81.249 -38.839 C -82.628 -37.574 -82.729 -36.188 -82.838 -34.908 C -83.24 -30.178 -83.552 -25.44 -83.835 -20.702 C -84.162 -15.197 -83.621 -9.661 -84.392 -4.169 C -84.389 -2.957 -84.359 -1.745 -84.389 -.534 C -84.427 .992 -84.151 2.996 -85.97 3.416 C -88.108 3.91 -88.339 1.623 -89.123 .281 C -89.228 .102 -89.211 -.148 -89.251 -.365 C -90.454 -2.705 -91.24 -5.186 -91.751 -7.761 L -91.75 -7.761 L -91.751 -7.761 C -93.092 -11.615 -94.445 -15.466 -95.771 -19.326 C -96.845 -22.455 -97.839 -25.612 -98.964 -28.721 C -99.445 -30.05 -99.962 -31.939 -101.406 -31.984 C -102.978 -32.033 -103.253 -30.05 -103.716 -28.75 C -104.643 -26.144 -104.983 -23.421 -105.126 -20.663 C -105.544 -12.619 -105.97 -4.575 -106.466 3.465 C -106.572 5.184 -106.484 7.512 -108.477 7.946 C -110.467 8.38 -111.24 6.143 -112.167 4.708 C -112.881 3.601 -113.519 2.42 -114.009 1.198 C -116.341 -4.621 -118.753 -10.413 -120.422 -16.474 C -121.768 -21.367 -123.128 -26.255 -124.727 -32.034 C -126.2 -25.03 -126.736 -18.888 -126.971 -12.715 C -127.231 -5.87 -127.412 .978 -127.7 7.821 C -127.767 9.426 -127.649 11.597 -129.558 11.987 C -131.404 12.365 -131.75 10.206 -132.476 8.916 C -132.744 8.441 -132.906 7.905 -133.117 7.397 C -135.954 .572 -137.782 -6.556 -139.436 -13.735 C -140.563 -18.384 -141.69 -23.034 -142.816 -27.683 C -144.003 -19.268 -144.41 -10.999 -144.928 -2.738 C -145.114 .225 -145.332 3.222 -145.968 6.109 C -146.583 8.904 -148.423 9.318 -150.59 7.442 C -152.297 5.963 -153.462 4.077 -154.166 1.958 C -156.874 -6.189 -159.476 -14.37 -162.229 -22.501 C -162.971 -24.694 -163.143 -27.201 -165.258 -29.222 C -167.524 -24.342 -167.785 -19.404 -168.093 -14.478 C -168.45 -8.754 -168.702 -3.022 -169.195 2.69 C -169.355 4.534 -168.618 7.526 -171.036 7.82 C -173.746 8.15 -174.487 5.078 -175.256 3 C -177.399 -2.785 -178.733 -8.809 -180.07 -14.826 C -181.224 -20.017 -182.067 -25.305 -184.481 -30.883 C -185.967 -24.268 -186.803 -18.284 -187.379 -12.26 C -187.915 -6.663 -188.385 -1.06 -188.964 4.533 C -189.034 5.214 -189.038 6.274 -189.976 6.439 C -190.953 6.611 -191.172 5.609 -191.433 4.949 C -192.118 3.215 -192.933 1.485 -193.279 -.327 C -194.5 -6.698 -195.524 -13.106 -196.664 -19.493 C -197.387 -23.547 -197.94 -27.646 -199.493 -31.544 C -201.964 -22.664 -202.833 -13.602 -203.87 -4.563 C -204.41 .139 -204.511 4.901 -205.694 9.518 C -205.967 10.586 -206.225 11.919 -207.502 12.024 C -208.754 12.127 -209.358 10.867 -209.761 9.883 C -213.061 1.83 -215.679 -6.437 -217.294 -15.004 C -219.414 -19.478 -219.441 -24.586 -221.6 -29.507 C -224.137 -23.338 -224.338 -17.135 -225.117 -11.058 C -225.971 -4.387 -226.66 2.305 -227.49 8.98 C -227.618 10.01 -227.695 11.331 -229.176 11.486 C -230.345 11.608 -231.053 10.766 -231.448 9.86 C -232.107 8.351 -232.618 6.772 -233.107 5.196 C -236.453 -5.588 -238.46 -16.658 -239.947 -28.197 C -241.141 -26.117 -241.026 -24.215 -241.193 -22.369 C -242.068 -14.513 -242.941 -6.656 -243.818 1.199 C -244.269 5.239 -244.679 9.284 -245.22 13.311 C -245.343 14.226 -245.416 15.566 -246.559 15.766 C -247.753 15.974 -248.076 14.668 -248.494 13.843 C -250.003 10.862 -250.491 7.569 -251.036 4.337 C -252.905 -6.743 -254.641 -17.844 -256.585 -29.917 C -257.372 -27.403 -257.856 -25.858 -258.339 -24.312 C -258.599 -24.079 -258.86 -24.088 -259.124 -24.305 C -258.756 -25.9 -258.485 -27.526 -257.983 -29.078 C -257.705 -29.939 -257.658 -31.373 -256.436 -31.312 C -255.224 -31.252 -255.232 -29.819 -255.088 -28.939 C -253.474 -19.066 -252.009 -9.168 -250.356 .698 C -249.61 5.154 -249.362 9.767 -246.921 13.891 C -245.628 6.211 -244.6 -1.462 -243.67 -9.148 C -243.1 -13.855 -242.621 -18.573 -242.124 -23.288 C -242.328 -23.896 -242.045 -24.598 -241.915 -25.27 C -241.895 -25.458 -241.875 -25.646 -241.855 -25.833 C -241.855 -25.834 -241.855 -25.835 -241.855 -25.837 C -241.826 -26.387 -241.847 -26.945 -241.757 -27.485 C -241.582 -28.549 -241.547 -29.988 -240.208 -30.029 C -239.061 -30.064 -238.896 -28.675 -238.699 -27.748 C -238.311 -25.922 -238.001 -24.072 -237.783 -22.217 C -236.601 -12.162 -234.651 -2.278 -231.272 7.291 C -230.892 8.368 -230.765 9.66 -229.094 10.155 C -227.989 5.578 -227.808 .957 -227.189 -3.595 C -226.093 -11.654 -225.686 -19.819 -223.526 -27.713 C -223.219 -28.836 -223.128 -30.448 -221.619 -30.464 C -219.934 -30.482 -219.76 -28.763 -219.468 -27.551 C -218.465 -23.388 -217.592 -19.194 -216.67 -15.012 C -214.057 -6.364 -212.136 2.533 -207.677 11.47 C -207.131 9.461 -206.716 8.424 -206.579 7.352 C -205.452 -1.5 -204.45 -10.368 -203.253 -19.211 C -202.693 -23.344 -201.832 -27.439 -201.002 -31.53 C -200.844 -32.309 -200.584 -33.439 -199.472 -33.436 C -198.44 -33.433 -198.068 -32.53 -197.839 -31.629 C -197.676 -30.989 -197.422 -30.368 -197.31 -29.721 C -196.162 -23.102 -195.032 -16.48 -193.903 -9.858 C -193.119 -5.264 -192.556 -.613 -190.652 3.787 C -189.8 3.296 -190.07 2.701 -190.023 2.218 C -188.998 -8.31 -188.31 -18.879 -186.151 -29.268 C -185.907 -30.444 -185.902 -31.994 -184.358 -31.992 C -183.158 -31.99 -182.752 -30.641 -182.425 -29.565 C -182.266 -29.039 -182.136 -28.504 -182.006 -27.97 C -179.823 -18.996 -177.718 -10.001 -175.417 -1.057 C -174.705 1.71 -174.004 4.633 -171.341 6.792 C -171.086 6.142 -170.833 5.766 -170.802 5.373 C -170.328 -.677 -169.921 -6.734 -169.421 -12.782 C -168.995 -17.934 -169.024 -23.164 -167.11 -28.091 C -166.709 -29.121 -166.293 -30.27 -164.914 -30.223 C -163.744 -30.184 -163.311 -29.151 -162.884 -28.267 C -162.552 -27.578 -162.356 -26.821 -162.125 -26.086 C -159.712 -18.436 -157.318 -10.78 -154.888 -3.136 C -153.921 -.094 -153.002 2.999 -150.922 5.515 C -150.191 6.4 -149.378 7.766 -148.036 7.261 C -146.961 6.856 -146.98 5.471 -146.88 4.356 C -146.312 -2.019 -145.653 -8.38 -145.484 -14.791 C -145.366 -19.306 -144.884 -23.813 -144.473 -28.316 C -144.401 -29.107 -144.242 -30.247 -143.026 -30.171 C -142.117 -30.114 -141.837 -29.194 -141.666 -28.483 C -140.56 -23.882 -139.309 -19.309 -138.806 -14.584 C -137.075 -8.681 -135.412 -2.758 -133.583 3.113 C -132.758 5.76 -131.725 8.368 -129.914 10.642 C -129.107 9.694 -129.084 8.804 -129.046 7.918 C -128.792 1.851 -128.686 -4.227 -128.244 -10.28 C -127.747 -17.084 -126.98 -23.87 -126.245 -30.654 C -126.133 -31.69 -125.803 -33.14 -124.589 -33.199 C -123.537 -33.249 -123.318 -31.859 -122.982 -30.942 C -122.792 -30.427 -122.617 -29.899 -122.507 -29.362 C -120.588 -19.961 -117.582 -10.881 -114.269 -1.904 C -113.079 1.319 -111.61 4.492 -108.589 7.248 C -108.261 5.479 -107.927 4.312 -107.846 3.129 C -107.542 -1.277 -107.422 -5.696 -107.044 -10.094 C -106.487 -16.564 -106.63 -23.129 -104.705 -29.429 C -104.188 -31.124 -103.573 -33.209 -101.58 -33.284 C -99.624 -33.358 -98.637 -31.386 -98.09 -29.733 C -95.672 -22.423 -93.401 -15.065 -91.076 -7.725 C -89.806 -5.644 -89.215 -3.316 -88.628 -.987 C -88.499 -.687 -88.41 -.36 -88.234 -.091 C -87.716 .699 -87.605 2.233 -86.585 2.106 C -85.198 1.934 -85.625 .372 -85.576 -.604 C -85.347 -5.173 -85.228 -9.748 -85.07 -14.321 C -85.068 -21.998 -84.806 -29.655 -83.363 -37.225 C -83.129 -38.45 -82.815 -39.862 -81.444 -39.943 C -80.144 -40.019 -79.461 -38.779 -79.056 -37.571 C -77.735 -33.633 -76.405 -29.698 -75.079 -25.763 C -72.519 -17.992 -70.205 -10.13 -66.534 -2.771 L -66.534 -2.772 C -65.063 -1.707 -64.321 1.336 -62.592 .603 C -61.075 -.042 -61.557 -2.931 -61.575 -4.853 C -61.636 -11.257 -62.034 -17.665 -61.873 -24.061 C -61.769 -28.22 -61.684 -32.449 -60.551 -36.52 C -60.257 -37.574 -59.759 -38.682 -58.507 -38.905 C -57.191 -39.14 -56.5 -38.133 -55.93 -37.191 C -54.499 -34.829 -53.503 -32.264 -52.617 -29.657 C -52.385 -29.174 -52.11 -28.707 -51.928 -28.206 C -48.883 -19.793 -47.008 -10.964 -42.921 -2.923 C -42.385 -1.96 -42.03 -.837 -40.765 -.234 C -40.765 -10.425 -40.764 -20.327 -40.765 -30.228 C -40.765 -32.208 -40.778 -34.182 -40.238 -36.121 C -39.977 -37.059 -39.996 -38.365 -38.896 -38.507 C -37.637 -38.67 -37.101 -37.408 -36.668 -36.407 C -35.447 -33.586 -34.523 -30.666 -33.957 -27.639 C -30.863 -19.764 -28.921 -11.482 -25.525 -3.713 C -24.607 -2.739 -24.516 -1.061 -22.996 -.515 C -21.931 -2.021 -22.183 -3.614 -22.179 -5.125 C -22.156 -13.61 -22.208 -22.095 -22.188 -30.579 C -22.182 -33.012 -21.91 -35.444 -20.771 -37.638 C -19.454 -40.174 -17.762 -40.352 -15.915 -38.209 C -14.245 -36.271 -13.157 -33.984 -12.185 -31.639 C -8.097 -24.679 -5.901 -16.918 -2.869 -9.512 C -1.623 -6.468 .145 -3.589 .776 -.315 C .517 -.21 .259 -.105 0 0 " fill="#efd717"/>
<path transform="matrix(1,0,0,-1,127.1056,288.98939)" d="M 0 0 C .168 -.046 .339 -.08 .513 -.102 C -.218 4.194 -.949 8.489 -1.68 12.785 C -1.594 13.347 -1.87 13.993 -1.99 14.604 C -2.388 18.936 -2.669 23.284 -3.236 27.594 C -3.504 29.634 -2.53 33.227 -4.408 33.327 C -6.168 33.421 -6.325 29.712 -6.83 27.518 C -7.934 22.723 -7.898 17.734 -9.324 12.997 C -9.863 12.564 -10.056 12.002 -10.159 11.407 C -9.848 10.97 -9.539 10.532 -9.224 10.098 C -9.949 4.137 -10.693 -1.823 -11.387 -7.789 C -11.64 -9.963 -11.771 -12.151 -11.958 -14.332 C -13.916 -10.962 -14.245 -7.127 -15.04 -3.43 C -15.723 -.259 -15.977 3.006 -17.141 6.072 C -17.164 6.216 -17.187 6.361 -17.209 6.506 C -17.237 6.519 -17.256 6.536 -17.285 6.549 C -17.264 6.561 -17.244 6.579 -17.223 6.594 C -18.16 12.604 -19.098 18.615 -20.036 24.625 C -19.718 24.334 -19.424 24.026 -19.13 23.718 C -19.19 24.128 -19.256 24.536 -19.313 24.946 C -19.793 26.125 -20.19 27.332 -20.607 28.532 C -22.061 31.284 -21.294 34.69 -22.909 37.455 C -24.235 36.825 -23.747 35.747 -24.087 34.989 C -24.283 34.296 -24.48 33.601 -24.678 32.907 C -26.088 29.603 -26.078 26.053 -26.144 22.595 C -26.357 11.565 -27.769 .704 -29.925 -10.097 C -30.328 -12.113 -31.033 -11.136 -31.757 -10.784 C -31.712 -10.694 -31.668 -10.604 -31.636 -10.501 C -31.548 -9.35 -32.043 -8.338 -32.433 -7.315 C -38.053 7.426 -43.777 22.121 -48.97 37.031 C -53.94 51.299 -59.845 65.236 -64.843 79.509 C -66.436 84.06 -67.824 88.728 -70.443 92.861 C -70.659 92.929 -70.828 92.919 -70.979 92.878 L -70.968 92.891 C -70.202 94.103 -70.852 95.242 -71.208 96.357 C -72.542 100.529 -73.942 104.679 -75.743 108.68 C -76.812 111.138 -78.071 113.534 -78.26 116.283 C -80.959 124.146 -83.772 131.972 -86.301 139.888 C -87.27 142.921 -89.258 145.723 -88.793 149.151 C -88.866 151.603 -89.737 152.978 -92.453 151.863 L -92.634 151.715 C -92.634 151.715 -92.566 151.526 -92.568 151.525 C -90.026 144.507 -87.427 137.509 -84.948 130.468 C -80.46 117.718 -76.044 104.943 -71.597 92.178 C -70.703 89.575 -69.868 86.951 -68.907 84.373 C -62.202 66.389 -55.239 48.496 -48.823 30.41 C -43.808 16.274 -38.436 2.293 -32.712 -11.562 L -32.711 -11.562 C -32.086 -13.196 -31.531 -14.862 -30.796 -16.445 C -30.553 -16.969 -29.853 -17.596 -29.348 -17.608 C -28.555 -17.627 -28.553 -16.742 -28.481 -16.079 C -27.155 -3.849 -24.042 8.168 -24.351 20.605 C -24.424 23.558 -24.131 26.645 -23.124 29.711 C -22.135 28.679 -22.128 27.567 -21.878 26.5 C -20.337 19.906 -19.871 13.1 -17.927 6.589 C -17.927 6.588 -17.927 6.589 -17.927 6.588 C -16.995 -.86 -15.499 -8.191 -13.396 -15.398 C -11.135 -17.362 -11.393 -14.972 -11.263 -14.014 C -10.278 -6.726 -9.404 .577 -8.495 7.875 C -7.733 8.482 -7.246 9.246 -7.168 10.238 C -6.975 16.313 -4.922 22.189 -5.159 28.32 C -5.033 26.848 -5.222 25.323 -4.928 23.883 C -4.109 19.869 -5.006 15.529 -2.683 11.804 C -3.495 11.08 -3.215 10.131 -3.142 9.22 C -2.934 6.617 -2.209 4.143 -1.287 1.716 C -.858 1.144 -.429 .572 0 0 " fill="#efd717"/>
<path transform="matrix(1,0,0,-1,150.9261,285.4817)" d="M 0 0 C -.729 -4.579 -1.458 -9.158 -2.212 -13.889 C -3.297 -13.089 -3.341 -12.14 -3.552 -11.236 C -6.403 .955 -7.008 13.43 -8.318 25.818 C -8.513 27.664 -7.734 30.798 -9.819 30.979 C -11.873 31.157 -12.343 27.998 -12.875 26.057 C -16.047 14.487 -18.244 2.7 -20.493 -9.073 C -20.929 -9.617 -21.311 -10.191 -21.547 -10.843 C -21.39 -10.992 -21.232 -11.141 -21.074 -11.289 C -21.073 -12.819 -21.073 -14.349 -21.073 -15.878 C -21.386 -15.889 -21.698 -15.899 -22.01 -15.91 C -22.948 -13.811 -23.336 -11.582 -23.25 -9.241 C -22.997 -9.479 -22.743 -9.718 -22.49 -9.956 C -22.537 -9.631 -22.598 -9.312 -22.699 -9 C -23.072 -8.052 -23.417 -7.092 -23.935 -6.208 C -24.205 -5.549 -24.475 -4.889 -24.745 -4.23 C -25.101 -4.003 -25.392 -4.068 -25.619 -4.423 C -25.764 -4.963 -25.529 -5.462 -25.452 -5.978 C -24.997 -8.356 -24.642 -10.76 -24.05 -13.104 C -23.647 -14.699 -23.865 -17.283 -21.943 -17.413 C -19.723 -17.563 -20.399 -14.773 -19.61 -13.377 C -19.688 -12.671 -19.757 -11.967 -19.248 -11.367 C -19.278 -10.903 -19.413 -10.418 -19.324 -9.978 C -17.087 1.097 -14.882 12.18 -12.516 23.228 C -12.127 25.049 -11.805 27.081 -9.955 28.872 C -9.444 23.83 -8.993 19.213 -8.505 14.599 C -7.537 5.426 -6.563 -3.748 -4.417 -12.744 C -4.153 -13.854 -3.982 -15.452 -2.628 -15.399 C -1.162 -15.342 -.939 -13.78 -.702 -12.478 C .05 -8.342 .878 -4.219 .758 .017 C .5 .249 .247 .243 0 0 " fill="#efd717"/>
<path transform="matrix(1,0,0,-1,446.8422,427.2455)" d="M 0 0 C -.222 -1.329 -1.214 -2.227 -2.527 -2.173 C -3.857 -2.118 -3.65 -.713 -3.742 .138 C -3.878 1.392 -2.912 1.783 -1.789 1.836 C -.706 1.703 .211 1.263 0 0 M 1.49 2.13 C .612 3.651 -.839 4.119 -2.483 3.745 C -4.288 3.335 -5.836 2.982 -6.111 .377 C -6.501 -3.326 -5.878 -6.836 -5.201 -10.364 C -4.804 -12.431 -4.356 -14.584 -2.906 -16.335 C -1.462 -15.275 -2.319 -14.08 -2.313 -12.941 C -2.296 -9.273 -4.752 -4.998 .567 -2.578 C 2.087 -1.887 2.535 .321 1.49 2.13 " fill="#121313"/>
<path transform="matrix(1,0,0,-1,177.6368,163.4863)" d="M 0 0 C .779 -2.068 1.099 -4.082 -1.148 -6.337 C -1.19 -3.808 -.968 -1.859 0 0 M 1.78 -1.872 C 1.886 -.738 1.162 .661 .646 2.111 C .394 2.818 .274 3.778 -.72 3.681 C -1.617 3.594 -1.9 2.642 -2.019 1.945 C -2.591 -1.407 -3.461 -4.788 -3.381 -8.138 C -3.336 -10.037 -3.148 -12.367 -1.722 -14.063 C -1.32 -14.542 -.914 -15.661 .06 -14.808 C .729 -14.223 .229 -13.681 -.169 -13.116 C -1.68 -10.973 -1.877 -8.954 .202 -6.926 C 1.422 -5.737 1.755 -4.054 1.78 -1.872 " fill="#2674ba"/>
<path transform="matrix(1,0,0,-1,433.9661,421.4812)" d="M 0 0 C -.503 -1.636 -1.413 -2.082 -2.997 -1.943 C -2.482 -.489 -1.717 .174 0 0 M .402 -2.485 C .459 -2.398 .569 -2.345 .651 -2.273 C 1.77 -1.297 2.263 -.128 1.37 1.196 C .442 2.571 -1.18 2.517 -2.138 1.718 C -3.956 .201 -6.422 -1.158 -5.881 -4.2 C -5.249 -7.75 -3.648 -9.029 .875 -9.238 C -.956 -7.677 -3.169 -7.027 -3.349 -5.333 C -3.595 -3.026 -.536 -3.921 .402 -2.485 " fill="#131616"/>
<path transform="matrix(1,0,0,-1,153.803,177.55042)" d="M 0 0 C -.273 -1.631 -1.826 -2.482 -3.38 -2.717 C -4.332 -2.861 -4.041 -1.855 -4.061 -1.124 C -2.68 -.482 -5.474 2.28 -2.389 2.134 C -1.09 2.072 .235 1.403 0 0 M .933 2.186 C -.331 3.695 -1.833 4.73 -3.902 4.34 C -4.366 4.252 -5.158 3.591 -5.102 3.415 C -4.52 1.583 -5.952 .12 -5.898 -2.274 C -5.75 -3.12 -5.683 -4.98 -3.836 -5.256 C -1.67 -5.579 -.154 -3.994 1.002 -2.376 C 2.022 -.949 2.194 .682 .933 2.186 " fill="#2674ba"/>
<path transform="matrix(1,0,0,-1,68.0707,66.7175)" d="M 0 0 C -1.168 -.064 -1.557 .738 -1.359 1.749 C -1.158 2.781 -1.126 4.313 .2 4.259 C 1.069 4.224 1.42 2.858 1.496 1.755 C 1.456 .841 1.063 .058 0 0 M -.433 7.068 C -2.943 6.275 -2.596 3.602 -3.417 1.936 C -3.4 -.58 -2.176 -1.89 -.018 -1.875 C 2.083 -1.86 3.457 -.585 3.583 1.618 C 3.695 3.566 .882 7.484 -.433 7.068 " fill="#1c1e20"/>
<path transform="matrix(1,0,0,-1,183.6271,177.7956)" d="M 0 0 C -1.014 .027 -1.566 .528 -1.371 1.428 C -1.075 2.797 -.688 4.383 .843 4.721 C 2.086 4.995 1.885 3.624 1.966 2.857 C 2.124 1.356 1.398 .393 0 0 M .232 7.371 C -1.971 6.199 -2.766 3.809 -2.943 1.399 C -3.088 -.581 -2.11 -2.258 -.008 -2.127 C 2.37 -1.979 3.447 -.133 3.661 1.74 C 3.642 4.747 1.522 8.057 .232 7.371 " fill="#2674ba"/>
<path transform="matrix(1,0,0,-1,410.7743,234.2278)" d="M 0 0 C -1.12 .722 -2.245 .802 -3.353 -.529 C -2.246 -1.396 -.207 -.336 -.375 -2.245 C -.611 -4.924 -2.772 -5.888 -4.889 -6.812 C -6.189 -4.741 -3.465 -2.566 -5.594 -.388 C -6.777 -5.34 -7.989 -9.916 -8.509 -14.634 C -8.711 -16.474 -9.382 -18.759 -7.804 -19.957 C -6.265 -21.125 -5.206 -18.396 -3.537 -18.349 C -2.238 -19.9 -3.102 -22.435 -.803 -24.2 C -.963 -21.061 -.718 -18.257 -2.684 -16.378 C -4.445 -14.694 -5.137 -18.583 -7.329 -17.715 C -6.915 -13.662 -7.924 -9.098 -2.329 -7.23 C -.583 -6.647 .738 -5.049 .981 -2.973 C 1.113 -1.845 1.082 -.697 0 0 " fill="#efd717"/>
<path transform="matrix(1,0,0,-1,394.3312,251.8515)" d="M 0 0 C .725 1.007 1.274 1.524 1.89 1.94 C 2.654 2.456 4.733 1.955 3.87 3.663 C 3.103 5.183 1.761 3.809 .787 3.294 C .125 2.944 -.434 2.361 -.965 1.811 C -1.879 .863 -3.108 -.225 -2.176 -1.585 C -1.216 -2.986 .102 -1.784 1.049 -1.279 C 3.814 .197 4.897 -1.13 5.39 -3.628 C 5.691 -5.152 5.861 -6.74 5.294 -8.2 C 4.763 -9.565 4.226 -11.508 2.27 -10.976 C .164 -10.402 -.48 -8.561 .074 -6.471 C .261 -5.765 .773 -5.146 1.447 -3.922 C -1.345 -4.942 -1.612 -6.681 -1.422 -8.627 C -1.204 -10.846 .314 -12.1 2.082 -13.106 C 2.719 -13.468 3.318 -13.162 3.901 -12.751 C 6.317 -11.051 7.6 -5.844 6.449 -2.41 C 5.385 .766 3.376 1.778 0 0 " fill="#efd717"/>
<path transform="matrix(1,0,0,-1,344.2906,243.8568)" d="M 0 0 C -2.238 .083 -3.386 .951 -3.621 3.026 C -4.451 1.7 -4.598 .185 -6.441 -.041 C -7.105 -.123 -7.991 -1.492 -6.929 -1.497 C -3.614 -1.512 -5.651 -3.482 -5.659 -4.509 C -5.672 -6.251 -6.092 -7.985 -6.203 -9.732 C -6.285 -11.031 -5.73 -12.207 -4.442 -12.609 C -3.05 -13.043 -1.655 -12.947 -.829 -11.266 C -2.163 -10.457 -4.356 -12.407 -4.9 -9.747 C -5.594 -6.353 -3.445 -1.537 0 0 " fill="#efd717"/>
<path transform="matrix(1,0,0,-1,358.5465,247.673)" d="M 0 0 C .5 -1.796 1.207 -3.001 .683 -4.319 C .229 -5.458 -.627 -6.188 -1.863 -5.667 C -2.972 -5.199 -2.592 -4.232 -2.178 -3.423 C -1.663 -2.418 -1.1 -1.438 -.195 .217 C -3.197 -1.118 -4.046 -2.985 -3.825 -5.234 C -3.691 -6.601 -2.648 -7.766 -1.084 -7.441 C .736 -7.063 2.147 -6.004 2.127 -3.862 C 2.113 -2.428 2.465 -.729 0 0 " fill="#efd717"/>
<path transform="matrix(1,0,0,-1,387.1831,248.1324)" d="M 0 0 C -2.372 -3.899 -1.143 -6.923 3.122 -6.867 C -.329 -5.322 .139 -2.586 0 0 " fill="#efd717"/>
<path transform="matrix(1,0,0,-1,381.008,237.0768)" d="M 0 0 C .56 -2.567 .225 -4.79 -2.161 -6.384 C -2.617 -3.481 -2.126 -2.042 0 0 M -3.717 -10.471 C -3.478 -8.79 -2.247 -8.313 -1.353 -7.541 C .599 -5.858 1.687 -3.785 1.407 -1.152 C 1.257 .264 1.169 2.325 -.196 2.508 C -1.675 2.706 -1.881 .559 -2.615 -.618 C -4.102 -3.002 -2.616 -6.86 -6.337 -8.128 C -6.401 -8.149 -6.398 -8.835 -6.256 -8.917 C -4.185 -10.112 -5.471 -11.742 -5.558 -13.283 C -5.689 -15.596 -6.33 -18.073 -4.378 -20.872 C -4.378 -18.319 -4.468 -16.602 -4.353 -14.898 C -4.24 -13.225 -3.098 -12.204 -1.524 -12.227 C .23 -12.251 .779 -13.601 .798 -15.227 C .815 -16.623 .241 -18.059 1.438 -20.195 C 2.154 -17.219 2.383 -15.125 1.587 -12.834 C .632 -10.086 -1.864 -10.954 -3.717 -10.471 " fill="#efd717"/>
<path transform="matrix(1,0,0,-1,351.3502,251.8228)" d="M 0 0 C .13 -2.003 -1.467 -2.513 -3.06 -2.613 C -4.955 -2.732 -5.447 -1.476 -5.351 .416 C -5.096 1.449 -5.502 3.279 -3.385 3.253 C -1.36 3.227 -.127 1.959 0 0 M -3.863 6.423 C -6.013 5.007 -6.534 2.484 -6.607 .082 C -6.676 -2.223 -5.659 -4.005 -2.964 -4.063 C -.6 -4.114 1.378 -2.237 1.338 -.033 C 1.307 1.602 -2.972 7.01 -3.863 6.423 " fill="#efd717"/>
<path transform="matrix(1,0,0,-1,160.6402,178.9469)" d="M 0 0 C -.896 -.13 -1.468 .292 -1.661 1.137 C -1.86 2.007 -1.602 2.655 -.557 2.607 C .337 2.567 1.114 2.277 1.51 1.351 C 1.436 .416 .795 .116 0 0 M -.798 4.939 C -3.272 5.132 -2.997 3.066 -3.296 1.574 C -3.047 -.508 -2.343 -2.17 .036 -2.179 C 2.241 -2.187 3.671 -1.011 3.507 1.238 C 3.326 3.718 1.436 4.765 -.798 4.939 " fill="#2674ba"/>
<path transform="matrix(1,0,0,-1,66.3886,145.65631)" d="M 0 0 C -.038 -.021 -.081 -.024 -.12 -.042 C -2.259 -4.799 -4.413 -9.55 -6.524 -14.32 C -6.937 -15.255 -7.179 -16.268 -8.556 -15.648 C -15.931 -7.832 -22.54 .591 -28.557 9.486 C -28.501 9.541 -28.44 9.565 -28.382 9.604 C -28.574 9.566 -28.762 9.492 -28.94 9.32 C -29.146 9.455 -29.352 9.589 -29.558 9.723 C -30.412 9.56 -31.873 10.503 -31.736 8.53 C -29.735 8.68 -28.74 7.472 -28.077 5.819 C -22.178 -1.875 -16.736 -9.944 -9.601 -16.62 C -7.402 -19.087 -6.3 -17.613 -5.437 -15.438 C -3.502 -10.557 -1.763 -5.59 .897 -1.028 C .598 -.685 .298 -.342 0 0 " fill="#ee2e50"/>
<path transform="matrix(1,0,0,-1,66.6436,144.28922)" d="M 0 0 C -8.538 3.728 -17.797 5.367 -26.347 9.071 C -27.432 9.541 -28.642 9.841 -29.881 9.56 C -29.858 9.158 -29.836 8.757 -29.813 8.356 C -29.893 7.715 -29.467 7.521 -28.961 7.403 C -28.726 7.374 -28.493 7.331 -28.261 7.287 C -28.444 7.554 -28.631 7.818 -28.812 8.086 C -28.347 8.537 -27.819 8.437 -27.284 8.256 C -19.061 5.48 -10.834 2.717 -2.623 -.096 C -1.814 -.373 -1.11 -.96 -.358 -1.403 C -.369 -1.428 -.381 -1.454 -.392 -1.479 C -.349 -1.438 -.296 -1.417 -.257 -1.367 C -.163 -1.125 -.07 -.884 .024 -.642 C .072 -.642 .118 -.569 .162 -.423 C .206 -.278 .152 -.137 0 0 " fill="#2674ba"/>
<path transform="matrix(1,0,0,-1,100.757,251.8097)" d="M 0 0 C -7.313 9.97 -13.814 20.495 -21.046 30.532 C -32.271 46.11 -42.918 62.091 -51.911 79.104 C -52.994 76.15 -50.714 73.969 -50.138 71.394 C -42.956 58.324 -34.482 46.086 -25.87 33.953 C -17.507 22.172 -9.725 9.997 -1.391 -1.801 C -.591 -2.934 .041 -4.379 1.83 -4.241 C 2.532 -3.675 3.133 -3.089 2.261 -2.192 C .88 -2.114 .615 -.838 0 0 " fill="#19b04b"/>
<path transform="matrix(1,0,0,-1,308.2576,364.8262)" d="M 0 0 C 2.182 -1.175 4.676 -2.846 6.799 -.118 C 9.107 2.847 8.087 13.82 5.566 16.731 C 4.441 18.029 3.264 18.312 1.787 17.456 C .119 16.489 -1.427 15.368 -1.45 13.227 C -1.462 12.134 -.552 11.845 .449 11.9 C 1.635 11.965 2.561 12.504 3.264 13.425 C 4.579 15.147 5.34 14.086 5.731 12.806 C 6.849 9.143 6.832 5.404 6.107 1.662 C 5.981 1.013 5.827 .282 5.025 .169 C 2.688 -.161 .866 .923 -.384 2.706 C -1.473 4.259 -1.055 5.915 .459 7.09 C 1.787 8.12 3.227 9.006 5.237 10.379 C 1.575 10.238 -.507 8.756 -1.977 6.487 C -3.393 4.304 -2.49 1.34 0 0 " fill="#19b04b"/>
<path transform="matrix(1,0,0,-1,450.1099,385.7839)" d="M 0 0 C -23.622 .049 -47.15 .844 -70.57 2.935 C -78.991 3.688 -87.432 4.628 -96.011 4.542 C -96.412 4.423 -96.814 4.304 -97.215 4.184 C -101.356 4.756 -105.516 5.246 -109.563 6.208 C -130.887 11.273 -152.223 16.27 -172.977 23.506 C -186.388 28.182 -200.179 31.694 -213.852 35.562 C -232.041 40.708 -249.012 49.079 -266.414 56.284 C -285.528 64.198 -303.27 74.308 -317.304 89.958 C -318.585 89.536 -318.282 88.828 -317.645 88.061 C -312.892 83.968 -308.89 79.073 -303.695 75.434 C -294.178 68.768 -284.309 62.8 -273.585 58.22 C -250.383 48.314 -227.685 37.195 -202.985 31.094 C -188.866 27.606 -175.196 22.484 -161.28 18.254 C -147.995 14.215 -134.516 10.785 -121.042 7.405 C -112.717 5.318 -104.332 3.299 -95.668 3.067 C -95.156 2.966 -94.549 2.667 -94.323 3.17 C -85.407 2.13 -76.298 2.001 -67.323 1.213 C -45.356 -.716 -23.253 -1.889 -1.019 -1.427 C .649 -1.393 2.784 -1.782 3.664 -.122 C 2.373 -.077 1.187 -.003 0 0 " fill="#19b04b"/>
<path transform="matrix(1,0,0,-1,119.1702,279.0362)" d="M 0 0 C -.187 -.693 -.373 -1.386 -.56 -2.078 C .247 -1.913 .589 -2.469 .947 -3.03 C 2.936 -6.148 5.362 -8.924 7.78 -11.704 C 7.832 -11.12 7.884 -10.536 7.935 -9.953 C 8.159 -8.921 7.359 -8.307 6.937 -7.542 C 4.578 -5.07 3.187 -1.711 0 0 " fill="#19b04b"/>
<path transform="matrix(1,0,0,-1,128.3826,290.9584)" d="M 0 0 C .01 -1.001 -.277 -2.068 .647 -2.862 C 1.454 -3.376 1.105 -5.118 2.7 -4.795 C 3.342 -4.218 3.286 -3.458 3.249 -2.703 C 1.609 -2.471 1.261 -.687 0 0 " fill="#19b04b"/>
<path transform="matrix(1,0,0,-1,342.7937,352.3366)" d="M 0 0 C 2.19 1.044 3.205 3.25 4.872 5.005 C 5.873 3.149 6.291 .783 9.488 1.227 C 6.008 5.059 6.894 9.564 6.723 13.877 C 6.685 14.84 7.85 16.428 6.156 16.596 C 4.936 16.717 5.004 14.925 4.732 13.927 C 4.476 12.987 4.629 11.944 4.463 10.97 C 4.1 8.844 4.262 6.549 2.63 4.796 C 2.571 3.695 1.748 3.089 1.034 2.452 C .231 1.737 -.663 .941 -1.831 1.491 C -2.539 1.825 -2.397 2.608 -2.121 3.219 C -1.607 4.357 -.936 5.416 .557 4.889 C 1.252 4.643 1.811 4.795 2.423 4.989 L 2.423 4.99 C 1.993 6.275 1.212 7.166 -.25 6.879 C -2.18 6.5 -3.225 5.041 -3.884 3.356 C -4.338 2.195 -4.377 .862 -3.384 -.056 C -2.34 -1.02 -1.146 -.546 0 0 " fill="#19b04b"/>
<path transform="matrix(1,0,0,-1,330.6641,350.99983)" d="M 0 0 C .439 1.387 1.545 2.045 2.551 2.201 C 3.665 2.141 4.573 1.898 4.396 1.198 C 4.022 -.279 2.968 -1.271 1.312 -1.323 C .437 -1.35 -.336 -1.062 0 0 M .407 -3.096 C 3.165 -3.187 6.485 .122 6.376 2.853 C 6.292 4.964 4.391 6.202 2.774 5.002 C 1.211 3.841 -.274 2.448 -1.416 .882 C -2.793 -1.006 -1.736 -3.026 .407 -3.096 " fill="#19b04b"/>
<path transform="matrix(1,0,0,-1,320.002,351.9)" d="M 0 0 C .311 2.03 2.663 2.029 3.77 3.409 C 4.202 3.947 4.706 2.637 4.892 1.879 C 4.804 -.352 3.054 -.543 1.407 -.793 C .799 -.885 -.15 -.981 0 0 M 1.218 -2.225 C 2.557 -2.046 4.427 -1.4 5.774 .119 C 7.16 1.683 6.813 3.377 5.487 4.851 C 4.495 5.953 2.489 6.442 2.109 5.373 C 1.387 3.34 -.537 2.569 -1.417 .857 C -2.442 -1.136 -1.81 -2.175 1.218 -2.225 " fill="#19b04b"/>
<path transform="matrix(1,0,0,-1,106.8193,263.75489)" d="M 0 0 C 3.41 -3.162 5.398 -7.391 8.216 -10.999 C 9.085 -12.112 9.881 -13.282 10.711 -14.425 C 10.703 -14.488 10.695 -14.551 10.688 -14.614 C 10.745 -14.615 10.792 -14.627 10.853 -14.623 L 10.962 -12.238 C 6.616 -7.485 3.801 -1.619 -.32 3.297 C -.335 2.185 -.474 1.06 0 0 " fill="#19b04b"/>
</g>
</g>
</g>
</svg>
