<?xml version="1.0" encoding="UTF-8" standalone="no"?>
<!DOCTYPE svg PUBLIC "-//W3C//DTD SVG 1.1//EN" "http://www.w3.org/Graphics/SVG/1.1/DTD/svg11.dtd">
<svg xmlns="http://www.w3.org/2000/svg" xmlns:xlink="http://www.w3.org/1999/xlink" version="1.1" width="442.45875pt" height="285.18pt" viewBox="0 0 442.45875 285.18">
<g enable-background="new">
<g>
<path transform="matrix(1,0,0,-1,0,285.18)" d="M 0 0 L 442.45875 0 L 442.45875 285.18 L 0 285.18 Z " fill="#f3f3f3"/>
<path transform="matrix(1,0,0,-1,0,285.18)" d="M 54.965627 44.7 L 430.80564 44.7 L 430.80564 277.98 L 54.965627 277.98 Z " fill="#f3f3f3"/>
<clipPath id="cp0">
<path transform="matrix(1,0,0,-1,0,285.18)" d="M 54.965627 44.7 L 430.80564 44.7 L 430.80564 277.98 L 54.965627 277.98 Z "/>
</clipPath>
<g clip-path="url(#cp0)">
<path transform="matrix(1,0,0,-1,0,285.18)" stroke-width="1" stroke-linecap="butt" stroke-linejoin="round" fill="none" stroke="#d5d5d5" d="M 54.965627 44.7 L 54.965627 277.98 "/>
</g>
<symbol id="font_1_36">
<path transform="matrix(.001,0,0,.001,-.07,.013)" d="M 330 404 C 286 404 251 388 225 358 C 199 328 186 286 186 234 C 186 181 199 139 225 109 C 251 79 286 64 330 64 C 374 64 409 79 435 109 C 461 139 474 181 474 234 C 474 286 461 328 435 358 C 409 388 374 404 330 404 M 526 713 L 526 623 C 501 635 476 644 451 650 C 425 656 400 659 376 659 C 310 659 260 637 226 593 C 192 549 172 482 168 394 C 187 422 211 444 240 459 C 269 474 301 482 336 482 C 409 482 467 459 509 415 C 551 371 573 310 573 234 C 573 159 550 99 506 54 C 462 9 403 -13 330 -13 C 246 -13 181 19 137 83 C 92 147 70 241 70 364 C 70 479 97 571 152 639 C 206 707 280 742 372 742 C 396 742 421 739 447 735 C 472 730 498 723 526 713 "/>
</symbol>
<use xlink:href="#font_1_36" transform="matrix(14,0,0,-14,57.35578,254.80263)" fill="#686868"/>
<clipPath id="cp2">
<path transform="matrix(.014,0,0,-.014,44.645315,254.62062)" d="M -1021 -463 L 1794 -463 L 1794 1233 L -1021 1233 Z "/>
</clipPath>
<g clip-path="url(#cp2)">
<path transform="matrix(.014,0,0,-.014,44.645315,254.62062)" d="M 106 355 L 732 355 L 732 272 L 106 272 L 106 355 " fill="#686868"/>
</g>
<clipPath id="cp3">
<path transform="matrix(1,0,0,-1,0,285.18)" d="M 54.965627 44.7 L 430.80564 44.7 L 430.80564 277.98 L 54.965627 277.98 Z "/>
</clipPath>
<g clip-path="url(#cp3)">
<path transform="matrix(1,0,0,-1,0,285.18)" stroke-width="1" stroke-linecap="butt" stroke-linejoin="round" fill="none" stroke="#d5d5d5" d="M 117.60562 44.7 L 117.60562 277.98 "/>
</g>
<symbol id="font_1_34">
<path transform="matrix(.001,0,0,.001,-.049000004,0)" d="M 378 643 L 129 254 L 378 254 L 378 643 M 352 729 L 476 729 L 476 254 L 580 254 L 580 172 L 476 172 L 476 0 L 378 0 L 378 172 L 49 172 L 49 267 L 352 729 "/>
</symbol>
<use xlink:href="#font_1_34" transform="matrix(14,0,0,-14,119.701778,254.62062)" fill="#686868"/>
<clipPath id="cp4">
<path transform="matrix(.014,0,0,-.014,107.28531,254.62062)" d="M -1021 -463 L 1794 -463 L 1794 1233 L -1021 1233 Z "/>
</clipPath>
<g clip-path="url(#cp4)">
<path transform="matrix(.014,0,0,-.014,107.28531,254.62062)" d="M 106 355 L 732 355 L 732 272 L 106 272 L 106 355 " fill="#686868"/>
</g>
<clipPath id="cp5">
<path transform="matrix(1,0,0,-1,0,285.18)" d="M 54.965627 44.7 L 430.80564 44.7 L 430.80564 277.98 L 54.965627 277.98 Z "/>
</clipPath>
<g clip-path="url(#cp5)">
<path transform="matrix(1,0,0,-1,0,285.18)" stroke-width="1" stroke-linecap="butt" stroke-linejoin="round" fill="none" stroke="#d5d5d5" d="M 180.24562 44.7 L 180.24562 277.98 "/>
</g>
<symbol id="font_1_32">
<path transform="matrix(.001,0,0,.001,-.07300001,0)" d="M 192 83 L 536 83 L 536 0 L 73 0 L 73 83 C 110 121 161 173 226 239 C 290 304 331 346 348 365 C 380 400 402 430 414 455 C 426 479 433 504 433 528 C 433 566 419 598 392 622 C 365 646 330 659 286 659 C 255 659 222 653 188 643 C 154 632 117 616 78 594 L 78 694 C 118 710 155 722 189 730 C 223 738 255 742 284 742 C 359 742 419 723 464 685 C 509 647 532 597 532 534 C 532 504 526 475 515 449 C 504 422 484 390 454 354 C 446 344 420 317 376 272 C 332 227 271 164 192 83 "/>
</symbol>
<use xlink:href="#font_1_32" transform="matrix(14,0,0,-14,182.67778,254.62062)" fill="#686868"/>
<clipPath id="cp6">
<path transform="matrix(.014,0,0,-.014,169.92531,254.62062)" d="M -1021 -463 L 1794 -463 L 1794 1233 L -1021 1233 Z "/>
</clipPath>
<g clip-path="url(#cp6)">
<path transform="matrix(.014,0,0,-.014,169.92531,254.62062)" d="M 106 355 L 732 355 L 732 272 L 106 272 L 106 355 " fill="#686868"/>
</g>
<clipPath id="cp7">
<path transform="matrix(1,0,0,-1,0,285.18)" d="M 54.965627 44.7 L 430.80564 44.7 L 430.80564 277.98 L 54.965627 277.98 Z "/>
</clipPath>
<g clip-path="url(#cp7)">
<path transform="matrix(1,0,0,-1,0,285.18)" stroke-width="1" stroke-linecap="butt" stroke-linejoin="round" fill="none" stroke="#d5d5d5" d="M 242.88562 44.7 L 242.88562 277.98 "/>
</g>
<symbol id="font_1_30">
<path transform="matrix(.001,0,0,.001,-.066,.013)" d="M 318 664 C 267 664 229 639 203 589 C 177 539 165 464 165 364 C 165 264 177 189 203 139 C 229 89 267 64 318 64 C 369 64 407 89 433 139 C 458 189 471 264 471 364 C 471 464 458 539 433 589 C 407 639 369 664 318 664 M 318 742 C 399 742 461 709 505 645 C 548 580 570 486 570 364 C 570 241 548 147 505 83 C 461 19 399 -13 318 -13 C 236 -13 173 19 130 83 C 87 147 66 241 66 364 C 66 486 87 580 130 645 C 173 709 236 742 318 742 "/>
</symbol>
<use xlink:href="#font_1_30" transform="matrix(14,0,0,-14,239.35649,254.80263)" fill="#686868"/>
<clipPath id="cp8">
<path transform="matrix(1,0,0,-1,0,285.18)" d="M 54.965627 44.7 L 430.80564 44.7 L 430.80564 277.98 L 54.965627 277.98 Z "/>
</clipPath>
<g clip-path="url(#cp8)">
<path transform="matrix(1,0,0,-1,0,285.18)" stroke-width="1" stroke-linecap="butt" stroke-linejoin="round" fill="none" stroke="#d5d5d5" d="M 305.52565 44.7 L 305.52565 277.98 "/>
</g>
<use xlink:href="#font_1_32" transform="matrix(14,0,0,-14,302.0945,254.62062)" fill="#686868"/>
<clipPath id="cp9">
<path transform="matrix(1,0,0,-1,0,285.18)" d="M 54.965627 44.7 L 430.80564 44.7 L 430.80564 277.98 L 54.965627 277.98 Z "/>
</clipPath>
<g clip-path="url(#cp9)">
<path transform="matrix(1,0,0,-1,0,285.18)" stroke-width="1" stroke-linecap="butt" stroke-linejoin="round" fill="none" stroke="#d5d5d5" d="M 368.16563 44.7 L 368.16563 277.98 "/>
</g>
<use xlink:href="#font_1_34" transform="matrix(14,0,0,-14,364.3985,254.62062)" fill="#686868"/>
<clipPath id="cp10">
<path transform="matrix(1,0,0,-1,0,285.18)" d="M 54.965627 44.7 L 430.80564 44.7 L 430.80564 277.98 L 54.965627 277.98 Z "/>
</clipPath>
<g clip-path="url(#cp10)">
<path transform="matrix(1,0,0,-1,0,285.18)" stroke-width="1" stroke-linecap="butt" stroke-linejoin="round" fill="none" stroke="#d5d5d5" d="M 430.80564 44.7 L 430.80564 277.98 "/>
</g>
<use xlink:href="#font_1_36" transform="matrix(14,0,0,-14,427.33253,254.80263)" fill="#686868"/>
<symbol id="font_b_74">
<path transform="matrix(.001,0,0,.001,-.022000002,.010000001)" d="M 62 81 C 62 91 63 100 65 109 L 137 396 L 32 396 C 25 396 22 400 22 409 C 24 423 29 431 35 431 L 146 431 L 186 594 C 188 602 193 610 201 616 C 209 622 218 626 228 626 C 236 626 243 623 249 618 C 255 613 258 606 258 598 C 258 596 257 594 257 593 C 257 592 257 591 257 590 L 217 431 L 320 431 C 326 431 330 426 330 418 C 330 416 329 414 328 410 C 327 406 326 402 324 400 C 322 397 320 396 317 396 L 208 396 L 136 107 C 131 88 129 72 129 58 C 129 29 138 15 158 15 C 187 15 213 28 236 56 C 258 84 276 114 288 147 C 290 151 293 153 296 153 L 308 153 C 310 153 312 152 314 150 C 316 148 317 146 317 144 C 317 142 316 141 316 141 C 301 101 280 65 252 35 C 224 5 192 -10 156 -10 C 129 -10 107 -1 89 15 C 71 32 62 54 62 81 "/>
</symbol>
<use xlink:href="#font_b_74" transform="matrix(16.8,0,0,-16.8,239.75522,274.13236)" fill="#686868"/>
<clipPath id="cp12">
<path transform="matrix(1,0,0,-1,0,285.18)" d="M 54.965627 44.7 L 430.80564 44.7 L 430.80564 277.98 L 54.965627 277.98 Z "/>
</clipPath>
<g clip-path="url(#cp12)">
<path transform="matrix(1,0,0,-1,0,285.18)" stroke-width="1" stroke-linecap="butt" stroke-linejoin="round" fill="none" stroke="#d5d5d5" d="M 54.965627 64.14 L 430.80564 64.14 "/>
</g>
<symbol id="font_1_2e">
<path transform="matrix(.001,0,0,.001,-.10700001,0)" d="M 107 124 L 210 124 L 210 0 L 107 0 L 107 124 "/>
</symbol>
<use xlink:href="#font_1_30" transform="matrix(14,0,0,-14,30.124,226.54232)" fill="#686868"/>
<use xlink:href="#font_1_2e" transform="matrix(14,0,0,-14,39.602,226.3603)" fill="#686868"/>
<use xlink:href="#font_1_30" transform="matrix(14,0,0,-14,43.48,226.54232)" fill="#686868"/>
<clipPath id="cp13">
<path transform="matrix(1,0,0,-1,0,285.18)" d="M 54.965627 44.7 L 430.80564 44.7 L 430.80564 277.98 L 54.965627 277.98 Z "/>
</clipPath>
<g clip-path="url(#cp13)">
<path transform="matrix(1,0,0,-1,0,285.18)" stroke-width="1" stroke-linecap="butt" stroke-linejoin="round" fill="none" stroke="#d5d5d5" d="M 54.965627 103.02 L 430.80564 103.02 "/>
</g>
<use xlink:href="#font_1_30" transform="matrix(14,0,0,-14,30.124,187.66233)" fill="#686868"/>
<use xlink:href="#font_1_2e" transform="matrix(14,0,0,-14,39.602,187.48032)" fill="#686868"/>
<use xlink:href="#font_1_32" transform="matrix(14,0,0,-14,43.578,187.48032)" fill="#686868"/>
<clipPath id="cp14">
<path transform="matrix(1,0,0,-1,0,285.18)" d="M 54.965627 44.7 L 430.80564 44.7 L 430.80564 277.98 L 54.965627 277.98 Z "/>
</clipPath>
<g clip-path="url(#cp14)">
<path transform="matrix(1,0,0,-1,0,285.18)" stroke-width="1" stroke-linecap="butt" stroke-linejoin="round" fill="none" stroke="#d5d5d5" d="M 54.965627 141.9 L 430.80564 141.9 "/>
</g>
<use xlink:href="#font_1_30" transform="matrix(14,0,0,-14,30.124,148.78232)" fill="#686868"/>
<use xlink:href="#font_1_2e" transform="matrix(14,0,0,-14,39.602,148.60031)" fill="#686868"/>
<use xlink:href="#font_1_34" transform="matrix(14,0,0,-14,43.242,148.60031)" fill="#686868"/>
<clipPath id="cp15">
<path transform="matrix(1,0,0,-1,0,285.18)" d="M 54.965627 44.7 L 430.80564 44.7 L 430.80564 277.98 L 54.965627 277.98 Z "/>
</clipPath>
<g clip-path="url(#cp15)">
<path transform="matrix(1,0,0,-1,0,285.18)" stroke-width="1" stroke-linecap="butt" stroke-linejoin="round" fill="none" stroke="#d5d5d5" d="M 54.965627 180.78 L 430.80564 180.78 "/>
</g>
<use xlink:href="#font_1_30" transform="matrix(14,0,0,-14,30.124,109.902309)" fill="#686868"/>
<use xlink:href="#font_1_2e" transform="matrix(14,0,0,-14,39.602,109.72031)" fill="#686868"/>
<use xlink:href="#font_1_36" transform="matrix(14,0,0,-14,43.536,109.902309)" fill="#686868"/>
<clipPath id="cp16">
<path transform="matrix(1,0,0,-1,0,285.18)" d="M 54.965627 44.7 L 430.80564 44.7 L 430.80564 277.98 L 54.965627 277.98 Z "/>
</clipPath>
<g clip-path="url(#cp16)">
<path transform="matrix(1,0,0,-1,0,285.18)" stroke-width="1" stroke-linecap="butt" stroke-linejoin="round" fill="none" stroke="#d5d5d5" d="M 54.965627 219.66 L 430.80564 219.66 "/>
</g>
<symbol id="font_1_38">
<path transform="matrix(.001,0,0,.001,-.068,.013)" d="M 318 346 C 271 346 234 333 207 308 C 180 283 167 249 167 205 C 167 161 180 126 207 101 C 234 76 271 64 318 64 C 364 64 401 76 428 102 C 455 127 469 161 469 205 C 469 249 455 283 429 308 C 402 333 365 346 318 346 M 219 388 C 177 398 144 418 120 447 C 96 476 85 511 85 553 C 85 611 105 657 147 691 C 188 725 245 742 318 742 C 390 742 447 725 489 691 C 530 657 551 611 551 553 C 551 511 539 476 515 447 C 491 418 459 398 417 388 C 464 377 501 355 528 323 C 554 291 568 251 568 205 C 568 134 546 80 503 43 C 459 5 398 -13 318 -13 C 237 -13 175 5 132 43 C 89 80 68 134 68 205 C 68 251 81 291 108 323 C 134 355 171 377 219 388 M 183 544 C 183 506 194 476 218 455 C 242 434 275 424 318 424 C 360 424 393 434 417 455 C 441 476 453 506 453 544 C 453 582 441 611 417 632 C 393 653 360 664 318 664 C 275 664 242 653 218 632 C 194 611 183 582 183 544 "/>
</symbol>
<use xlink:href="#font_1_30" transform="matrix(14,0,0,-14,30.124,71.0223)" fill="#686868"/>
<use xlink:href="#font_1_2e" transform="matrix(14,0,0,-14,39.602,70.8403)" fill="#686868"/>
<use xlink:href="#font_1_38" transform="matrix(14,0,0,-14,43.508,71.0223)" fill="#686868"/>
<clipPath id="cp17">
<path transform="matrix(1,0,0,-1,0,285.18)" d="M 54.965627 44.7 L 430.80564 44.7 L 430.80564 277.98 L 54.965627 277.98 Z "/>
</clipPath>
<g clip-path="url(#cp17)">
<path transform="matrix(1,0,0,-1,0,285.18)" stroke-width="1" stroke-linecap="butt" stroke-linejoin="round" fill="none" stroke="#d5d5d5" d="M 54.965627 258.54 L 430.80564 258.54 "/>
</g>
<symbol id="font_1_31">
<path transform="matrix(.001,0,0,.001,-.11000001,0)" d="M 124 83 L 285 83 L 285 639 L 110 604 L 110 694 L 284 729 L 383 729 L 383 83 L 544 83 L 544 0 L 124 0 L 124 83 "/>
</symbol>
<use xlink:href="#font_1_31" transform="matrix(14,0,0,-14,30.740002,31.960312)" fill="#686868"/>
<use xlink:href="#font_1_2e" transform="matrix(14,0,0,-14,39.602,31.960312)" fill="#686868"/>
<use xlink:href="#font_1_30" transform="matrix(14,0,0,-14,43.48,32.14231)" fill="#686868"/>
<symbol id="font_b_66">
<path transform="matrix(.001,0,0,.001,-.053000004,.20400001)" d="M 97 -164 C 109 -173 124 -178 142 -178 C 166 -178 185 -151 200 -99 C 206 -73 223 9 251 151 L 297 396 L 211 396 C 204 396 201 400 201 409 C 203 423 208 431 214 431 L 303 431 L 315 496 C 319 516 322 533 326 548 C 329 562 332 576 336 588 C 340 600 345 614 353 630 C 364 652 379 670 399 684 C 418 698 439 705 462 705 C 476 705 490 702 504 697 C 518 691 529 683 538 673 C 547 662 552 649 552 635 C 552 617 546 602 535 590 C 523 578 510 572 494 572 C 483 572 474 575 466 582 C 458 588 455 597 455 608 C 455 622 460 635 470 646 C 480 657 492 663 507 665 C 494 674 479 679 461 679 C 451 679 441 674 432 665 C 423 655 417 645 415 635 C 411 617 401 571 387 497 L 375 431 L 478 431 C 484 431 488 426 488 418 C 487 416 486 413 485 409 C 484 405 483 401 481 399 C 479 397 477 396 475 396 L 368 396 L 322 152 C 316 116 309 80 301 44 C 293 8 283 -29 269 -68 C 255 -106 238 -139 216 -165 C 194 -191 169 -204 140 -204 C 117 -204 97 -197 79 -185 C 61 -172 53 -155 53 -134 C 53 -116 58 -101 69 -89 C 80 -77 94 -71 111 -71 C 121 -71 130 -74 138 -81 C 146 -87 150 -96 150 -107 C 150 -121 144 -134 134 -146 C 123 -158 111 -164 97 -164 "/>
</symbol>
<use xlink:href="#font_b_66" transform="matrix(0,-16.8,-16.8,-0,23.220952,136.9496)" fill="#686868"/>
<symbol id="font_12_28">
<path transform="matrix(.001,0,0,.001,-.097,.24900002)" d="M 310 -247 C 272 -217 240 -184 214 -146 C 187 -108 165 -67 148 -25 C 131 17 118 62 110 109 C 101 155 97 202 97 250 C 97 298 101 345 110 392 C 118 438 131 483 149 527 C 166 570 188 611 215 649 C 242 687 274 720 310 748 C 310 749 311 750 315 750 L 324 750 C 326 750 327 749 329 747 C 331 745 332 743 332 741 C 332 738 331 736 330 735 C 297 703 270 668 248 632 C 226 596 209 557 196 516 C 183 474 174 432 168 388 C 162 344 159 298 159 250 C 159 38 215 -122 329 -232 C 331 -234 332 -236 332 -240 C 332 -242 331 -244 329 -246 C 327 -248 326 -249 324 -249 L 315 -249 C 311 -249 310 -248 310 -247 "/>
</symbol>
<use xlink:href="#font_12_28" transform="matrix(0,-16.8,-16.8,-0,23.976952,128.00061)" fill="#686868"/>
<use xlink:href="#font_b_74" transform="matrix(0,-16.8,-16.8,-0,19.96175,122.74034)" fill="#686868"/>
<symbol id="font_12_29">
<path transform="matrix(.001,0,0,.001,-.056,.24900002)" d="M 65 -249 C 59 -249 56 -246 56 -240 C 56 -237 56 -235 58 -234 C 172 -122 229 38 229 250 C 229 462 172 623 60 733 C 57 734 56 737 56 741 C 56 743 57 745 59 747 C 61 749 63 750 65 750 L 74 750 C 76 750 77 749 79 748 C 127 710 167 664 199 610 C 231 556 254 498 269 437 C 283 376 291 314 291 250 C 291 202 287 156 279 110 C 271 64 258 20 241 -24 C 223 -68 201 -108 175 -146 C 148 -184 116 -217 79 -247 C 77 -248 76 -249 74 -249 L 65 -249 "/>
</symbol>
<use xlink:href="#font_12_29" transform="matrix(0,-16.8,-16.8,-0,23.976952,116.10816)" fill="#686868"/>
<clipPath id="cp19">
<path transform="matrix(1,0,0,-1,0,285.18)" d="M 54.965627 44.7 L 430.80564 44.7 L 430.80564 277.98 L 54.965627 277.98 Z "/>
</clipPath>
<g clip-path="url(#cp19)">
<path transform="matrix(1,0,0,-1,0,285.18)" stroke-width="1.7" stroke-linecap="butt" stroke-linejoin="round" fill="none" stroke="#008fd5" d="M -1 64.22067 L 39.305627 64.43183 L 63.108827 64.76295 L 80.02162 65.206539 L 93.176029 65.75859 L 104.451229 66.45164 L 113.84722 67.24745 L 121.990428 68.151119 L 129.50722 69.21075 L 136.39763 70.418239 L 142.66162 71.753818 L 148.29923 73.185527 L 153.31043 74.670009 L 158.32163 76.38202 L 163.33283 78.35087 L 167.71762 80.30877 L 172.10243 82.50893 L 176.48723 84.97347 L 180.87203 87.72438 L 184.63043 90.32627 L 188.38883 93.166439 L 192.14723 96.25583 L 195.90563 99.60352 L 199.66403 103.21615 L 204.04883 107.770359 L 208.43363 112.68944 L 212.81842 117.96512 L 217.20323 123.58045 L 222.21443 130.37978 L 227.85202 138.44982 L 234.11603 147.82022 L 244.13843 163.28374 L 254.16083 178.64946 L 260.42485 187.86638 L 266.06245 195.748 L 271.07365 202.34859 L 275.45845 207.77245 L 279.84324 212.84586 L 284.22804 217.55693 L 288.61283 221.90195 L 292.37123 225.33736 L 296.12965 228.51195 L 299.88804 231.43405 L 303.64643 234.11406 L 308.03123 236.95072 L 312.41603 239.49486 L 316.8008 241.7683 L 321.18565 243.79317 L 325.57044 245.5914 L 330.58164 247.39618 L 335.59284 248.96269 L 341.23045 250.4749 L 346.868 251.75711 L 353.13203 252.9513 L 360.02244 254.02935 L 367.5392 254.97414 L 375.68244 255.77895 L 385.07844 256.487 L 396.35365 257.1031 L 409.50804 257.59349 L 426.42085 257.9873 L 443.45875 258.2188 "/>
</g>
<path transform="matrix(1,0,0,-1,0,285.18)" stroke-width="3" stroke-linecap="square" stroke-miterlimit="10" stroke-linejoin="miter" fill="none" stroke="#f3f3f3" d="M 54.965627 44.7 L 54.965627 277.98 "/>
<path transform="matrix(1,0,0,-1,0,285.18)" stroke-width="3" stroke-linecap="square" stroke-miterlimit="10" stroke-linejoin="miter" fill="none" stroke="#f3f3f3" d="M 430.80564 44.7 L 430.80564 277.98 "/>
<path transform="matrix(1,0,0,-1,0,285.18)" stroke-width="3" stroke-linecap="square" stroke-miterlimit="10" stroke-linejoin="miter" fill="none" stroke="#f3f3f3" d="M 54.965627 44.7 L 430.80564 44.7 "/>
<path transform="matrix(1,0,0,-1,0,285.18)" stroke-width="3" stroke-linecap="square" stroke-miterlimit="10" stroke-linejoin="miter" fill="none" stroke="#f3f3f3" d="M 54.965627 277.98 L 430.80564 277.98 "/>
</g>
</g>
</svg>
