<?xml version="1.0" encoding="UTF-8" standalone="no"?>
<!DOCTYPE svg PUBLIC "-//W3C//DTD SVG 1.1//EN" "http://www.w3.org/Graphics/SVG/1.1/DTD/svg11.dtd">
<svg xmlns="http://www.w3.org/2000/svg" xmlns:xlink="http://www.w3.org/1999/xlink" version="1.1" width="455.8181pt" height="285.18pt" viewBox="0 0 455.8181 285.18">
<g enable-background="new">
<g>
<path transform="matrix(1,0,0,-1,0,285.18)" d="M 0 0 L 455.8181 0 L 455.8181 285.18 L 0 285.18 Z " fill="#f3f3f3"/>
<path transform="matrix(1,0,0,-1,0,285.18)" d="M 72.77812 44.7 L 448.61814 44.7 L 448.61814 277.98 L 72.77812 277.98 Z " fill="#f3f3f3"/>
<clipPath id="cp0">
<path transform="matrix(1,0,0,-1,0,285.18)" d="M 72.77812 44.7 L 448.6181 44.7 L 448.6181 277.98 L 72.77812 277.98 Z "/>
</clipPath>
<g clip-path="url(#cp0)">
<path transform="matrix(1,0,0,-1,0,285.18)" stroke-width="1" stroke-linecap="butt" stroke-linejoin="round" fill="none" stroke="#d5d5d5" d="M 89.86176 44.7 L 89.86176 277.98 "/>
</g>
<symbol id="font_1_31">
<path transform="matrix(.001,0,0,.001,-.11000001,0)" d="M 124 83 L 285 83 L 285 639 L 110 604 L 110 694 L 284 729 L 383 729 L 383 83 L 544 83 L 544 0 L 124 0 L 124 83 "/>
</symbol>
<symbol id="font_1_30">
<path transform="matrix(.001,0,0,.001,-.066,.013)" d="M 318 664 C 267 664 229 639 203 589 C 177 539 165 464 165 364 C 165 264 177 189 203 139 C 229 89 267 64 318 64 C 369 64 407 89 433 139 C 458 189 471 264 471 364 C 471 464 458 539 433 589 C 407 639 369 664 318 664 M 318 742 C 399 742 461 709 505 645 C 548 580 570 486 570 364 C 570 241 548 147 505 83 C 461 19 399 -13 318 -13 C 236 -13 173 19 130 83 C 87 147 66 241 66 364 C 66 486 87 580 130 645 C 173 709 236 742 318 742 "/>
</symbol>
<use xlink:href="#font_1_31" transform="matrix(14,0,0,-14,88.358798,254.62062)" fill="#686868"/>
<use xlink:href="#font_1_30" transform="matrix(14,0,0,-14,96.6468,254.80263)" fill="#686868"/>
<clipPath id="cp2">
<path transform="matrix(.014,0,0,-.014,75.088329,254.62062)" d="M -1021 -463 L 1794 -463 L 1794 1233 L -1021 1233 Z "/>
</clipPath>
<g clip-path="url(#cp2)">
<path transform="matrix(.014,0,0,-.014,75.088329,254.62062)" d="M 106 355 L 732 355 L 732 272 L 106 272 L 106 355 " fill="#686868"/>
</g>
<clipPath id="cp3">
<path transform="matrix(1,0,0,-1,0,285.18)" d="M 72.77812 44.7 L 448.6181 44.7 L 448.6181 277.98 L 72.77812 277.98 Z "/>
</clipPath>
<g clip-path="url(#cp3)">
<path transform="matrix(1,0,0,-1,0,285.18)" stroke-width="1" stroke-linecap="butt" stroke-linejoin="round" fill="none" stroke="#d5d5d5" d="M 175.36545 44.7 L 175.36545 277.98 "/>
</g>
<symbol id="font_1_35">
<path transform="matrix(.001,0,0,.001,-.07700001,.013)" d="M 108 729 L 495 729 L 495 646 L 198 646 L 198 467 C 212 472 227 476 241 478 C 255 480 270 482 284 482 C 365 482 429 459 477 415 C 525 370 549 310 549 234 C 549 155 524 94 475 51 C 426 8 357 -13 269 -13 C 238 -13 207 -10 175 -6 C 143 -1 111 6 77 17 L 77 116 C 106 100 136 88 168 80 C 199 72 232 69 267 69 C 323 69 368 83 401 113 C 433 143 450 183 450 234 C 450 284 433 324 401 354 C 368 384 323 399 267 399 C 241 399 214 396 188 390 C 162 384 135 375 108 363 L 108 729 "/>
</symbol>
<use xlink:href="#font_1_35" transform="matrix(14,0,0,-14,177.8536,254.80263)" fill="#686868"/>
<clipPath id="cp4">
<path transform="matrix(.014,0,0,-.014,165.04514,254.62062)" d="M -1021 -463 L 1794 -463 L 1794 1233 L -1021 1233 Z "/>
</clipPath>
<g clip-path="url(#cp4)">
<path transform="matrix(.014,0,0,-.014,165.04514,254.62062)" d="M 106 355 L 732 355 L 732 272 L 106 272 L 106 355 " fill="#686868"/>
</g>
<clipPath id="cp5">
<path transform="matrix(1,0,0,-1,0,285.18)" d="M 72.77812 44.7 L 448.6181 44.7 L 448.6181 277.98 L 72.77812 277.98 Z "/>
</clipPath>
<g clip-path="url(#cp5)">
<path transform="matrix(1,0,0,-1,0,285.18)" stroke-width="1" stroke-linecap="butt" stroke-linejoin="round" fill="none" stroke="#d5d5d5" d="M 260.86915 44.7 L 260.86915 277.98 "/>
</g>
<use xlink:href="#font_1_30" transform="matrix(14,0,0,-14,257.34004,254.80263)" fill="#686868"/>
<clipPath id="cp6">
<path transform="matrix(1,0,0,-1,0,285.18)" d="M 72.77812 44.7 L 448.6181 44.7 L 448.6181 277.98 L 72.77812 277.98 Z "/>
</clipPath>
<g clip-path="url(#cp6)">
<path transform="matrix(1,0,0,-1,0,285.18)" stroke-width="1" stroke-linecap="butt" stroke-linejoin="round" fill="none" stroke="#d5d5d5" d="M 346.37284 44.7 L 346.37284 277.98 "/>
</g>
<use xlink:href="#font_1_35" transform="matrix(14,0,0,-14,342.99769,254.80263)" fill="#686868"/>
<clipPath id="cp7">
<path transform="matrix(1,0,0,-1,0,285.18)" d="M 72.77812 44.7 L 448.6181 44.7 L 448.6181 277.98 L 72.77812 277.98 Z "/>
</clipPath>
<g clip-path="url(#cp7)">
<path transform="matrix(1,0,0,-1,0,285.18)" stroke-width="1" stroke-linecap="butt" stroke-linejoin="round" fill="none" stroke="#d5d5d5" d="M 431.8765 44.7 L 431.8765 277.98 "/>
</g>
<use xlink:href="#font_1_31" transform="matrix(14,0,0,-14,424.51026,254.62062)" fill="#686868"/>
<use xlink:href="#font_1_30" transform="matrix(14,0,0,-14,432.79826,254.80263)" fill="#686868"/>
<symbol id="font_8_b2">
<path transform="matrix(.001,0,0,.001,-.045,.010000001)" d="M 123 141 C 123 118 127 97 135 78 C 143 59 155 44 172 32 C 188 20 208 15 230 15 C 244 15 260 18 277 25 C 294 31 310 38 325 46 C 339 54 347 58 347 58 C 351 58 354 56 356 52 C 358 48 359 44 359 40 C 359 36 358 34 356 33 C 314 4 271 -10 229 -10 C 193 -10 161 -2 133 14 C 105 30 83 52 68 82 C 52 111 45 143 45 178 C 45 212 52 245 66 276 C 80 307 99 334 124 358 C 148 381 176 399 208 412 C 239 424 272 431 306 431 L 363 431 C 373 431 378 426 378 416 C 378 410 376 406 372 402 C 368 398 364 396 359 396 L 304 396 C 277 396 253 390 231 378 C 209 366 191 350 177 329 C 162 308 151 285 143 259 L 320 259 C 324 259 328 257 331 254 C 333 251 335 248 335 244 C 335 238 333 234 329 230 C 325 226 321 224 316 224 L 134 224 C 126 189 123 161 123 141 "/>
</symbol>
<use xlink:href="#font_8_b2" transform="matrix(16.8,0,0,-16.8,257.95414,273.8511)" fill="#686868"/>
<clipPath id="cp9">
<path transform="matrix(1,0,0,-1,0,285.18)" d="M 72.77812 44.7 L 448.6181 44.7 L 448.6181 277.98 L 72.77812 277.98 Z "/>
</clipPath>
<g clip-path="url(#cp9)">
<path transform="matrix(1,0,0,-1,0,285.18)" stroke-width="1" stroke-linecap="butt" stroke-linejoin="round" fill="none" stroke="#d5d5d5" d="M 72.77812 55.26512 L 448.61814 55.26512 "/>
</g>
<symbol id="font_1_2e">
<path transform="matrix(.001,0,0,.001,-.10700001,0)" d="M 107 124 L 210 124 L 210 0 L 107 0 L 107 124 "/>
</symbol>
<use xlink:href="#font_1_30" transform="matrix(14,0,0,-14,30.124,235.41719)" fill="#686868"/>
<use xlink:href="#font_1_2e" transform="matrix(14,0,0,-14,39.602,235.23519)" fill="#686868"/>
<use xlink:href="#font_1_30" transform="matrix(14,0,0,-14,43.48,235.41719)" fill="#686868"/>
<use xlink:href="#font_1_30" transform="matrix(14,0,0,-14,52.384,235.41719)" fill="#686868"/>
<use xlink:href="#font_1_30" transform="matrix(14,0,0,-14,61.288,235.41719)" fill="#686868"/>
<clipPath id="cp10">
<path transform="matrix(1,0,0,-1,0,285.18)" d="M 72.77812 44.7 L 448.6181 44.7 L 448.6181 277.98 L 72.77812 277.98 Z "/>
</clipPath>
<g clip-path="url(#cp10)">
<path transform="matrix(1,0,0,-1,0,285.18)" stroke-width="1" stroke-linecap="butt" stroke-linejoin="round" fill="none" stroke="#d5d5d5" d="M 72.77812 97.68352 L 448.61814 97.68352 "/>
</g>
<use xlink:href="#font_1_30" transform="matrix(14,0,0,-14,30.124,192.9988)" fill="#686868"/>
<use xlink:href="#font_1_2e" transform="matrix(14,0,0,-14,39.602,192.81679)" fill="#686868"/>
<use xlink:href="#font_1_30" transform="matrix(14,0,0,-14,43.48,192.9988)" fill="#686868"/>
<use xlink:href="#font_1_30" transform="matrix(14,0,0,-14,52.384,192.9988)" fill="#686868"/>
<use xlink:href="#font_1_31" transform="matrix(14,0,0,-14,61.904,192.81679)" fill="#686868"/>
<clipPath id="cp11">
<path transform="matrix(1,0,0,-1,0,285.18)" d="M 72.77812 44.7 L 448.6181 44.7 L 448.6181 277.98 L 72.77812 277.98 Z "/>
</clipPath>
<g clip-path="url(#cp11)">
<path transform="matrix(1,0,0,-1,0,285.18)" stroke-width="1" stroke-linecap="butt" stroke-linejoin="round" fill="none" stroke="#d5d5d5" d="M 72.77812 140.10192 L 448.61814 140.10192 "/>
</g>
<symbol id="font_1_32">
<path transform="matrix(.001,0,0,.001,-.07300001,0)" d="M 192 83 L 536 83 L 536 0 L 73 0 L 73 83 C 110 121 161 173 226 239 C 290 304 331 346 348 365 C 380 400 402 430 414 455 C 426 479 433 504 433 528 C 433 566 419 598 392 622 C 365 646 330 659 286 659 C 255 659 222 653 188 643 C 154 632 117 616 78 594 L 78 694 C 118 710 155 722 189 730 C 223 738 255 742 284 742 C 359 742 419 723 464 685 C 509 647 532 597 532 534 C 532 504 526 475 515 449 C 504 422 484 390 454 354 C 446 344 420 317 376 272 C 332 227 271 164 192 83 "/>
</symbol>
<use xlink:href="#font_1_30" transform="matrix(14,0,0,-14,30.124,150.5804)" fill="#686868"/>
<use xlink:href="#font_1_2e" transform="matrix(14,0,0,-14,39.602,150.39839)" fill="#686868"/>
<use xlink:href="#font_1_30" transform="matrix(14,0,0,-14,43.48,150.5804)" fill="#686868"/>
<use xlink:href="#font_1_30" transform="matrix(14,0,0,-14,52.384,150.5804)" fill="#686868"/>
<use xlink:href="#font_1_32" transform="matrix(14,0,0,-14,61.385999,150.39839)" fill="#686868"/>
<clipPath id="cp12">
<path transform="matrix(1,0,0,-1,0,285.18)" d="M 72.77812 44.7 L 448.6181 44.7 L 448.6181 277.98 L 72.77812 277.98 Z "/>
</clipPath>
<g clip-path="url(#cp12)">
<path transform="matrix(1,0,0,-1,0,285.18)" stroke-width="1" stroke-linecap="butt" stroke-linejoin="round" fill="none" stroke="#d5d5d5" d="M 72.77812 182.52031 L 448.61814 182.52031 "/>
</g>
<symbol id="font_1_33">
<path transform="matrix(.001,0,0,.001,-.076000008,.013)" d="M 406 393 C 453 383 490 362 516 330 C 542 298 556 258 556 212 C 556 140 531 84 482 45 C 432 6 362 -13 271 -13 C 240 -13 208 -10 176 -4 C 144 1 110 10 76 22 L 76 117 C 103 101 133 89 166 81 C 198 73 232 69 268 69 C 330 69 377 81 409 105 C 441 129 458 165 458 212 C 458 254 443 288 413 312 C 383 336 341 349 287 349 L 202 349 L 202 430 L 291 430 C 339 430 376 439 402 459 C 428 478 441 506 441 543 C 441 580 427 609 401 629 C 374 649 336 659 287 659 C 260 659 231 656 200 650 C 169 644 135 635 98 623 L 98 711 C 135 721 170 729 203 734 C 235 739 266 742 296 742 C 370 742 429 725 473 691 C 517 657 539 611 539 553 C 539 513 527 479 504 451 C 481 423 448 403 406 393 "/>
</symbol>
<use xlink:href="#font_1_30" transform="matrix(14,0,0,-14,30.124,108.161998)" fill="#686868"/>
<use xlink:href="#font_1_2e" transform="matrix(14,0,0,-14,39.602,107.979999)" fill="#686868"/>
<use xlink:href="#font_1_30" transform="matrix(14,0,0,-14,43.48,108.161998)" fill="#686868"/>
<use xlink:href="#font_1_30" transform="matrix(14,0,0,-14,52.384,108.161998)" fill="#686868"/>
<use xlink:href="#font_1_33" transform="matrix(14,0,0,-14,61.427999,108.161998)" fill="#686868"/>
<clipPath id="cp13">
<path transform="matrix(1,0,0,-1,0,285.18)" d="M 72.77812 44.7 L 448.6181 44.7 L 448.6181 277.98 L 72.77812 277.98 Z "/>
</clipPath>
<g clip-path="url(#cp13)">
<path transform="matrix(1,0,0,-1,0,285.18)" stroke-width="1" stroke-linecap="butt" stroke-linejoin="round" fill="none" stroke="#d5d5d5" d="M 72.77812 224.9387 L 448.61814 224.9387 "/>
</g>
<symbol id="font_1_34">
<path transform="matrix(.001,0,0,.001,-.049000004,0)" d="M 378 643 L 129 254 L 378 254 L 378 643 M 352 729 L 476 729 L 476 254 L 580 254 L 580 172 L 476 172 L 476 0 L 378 0 L 378 172 L 49 172 L 49 267 L 352 729 "/>
</symbol>
<use xlink:href="#font_1_30" transform="matrix(14,0,0,-14,30.124,65.7436)" fill="#686868"/>
<use xlink:href="#font_1_2e" transform="matrix(14,0,0,-14,39.602,65.5616)" fill="#686868"/>
<use xlink:href="#font_1_30" transform="matrix(14,0,0,-14,43.48,65.7436)" fill="#686868"/>
<use xlink:href="#font_1_30" transform="matrix(14,0,0,-14,52.384,65.7436)" fill="#686868"/>
<use xlink:href="#font_1_34" transform="matrix(14,0,0,-14,61.05,65.5616)" fill="#686868"/>
<clipPath id="cp14">
<path transform="matrix(1,0,0,-1,0,285.18)" d="M 72.77812 44.7 L 448.6181 44.7 L 448.6181 277.98 L 72.77812 277.98 Z "/>
</clipPath>
<g clip-path="url(#cp14)">
<path transform="matrix(1,0,0,-1,0,285.18)" stroke-width="1" stroke-linecap="butt" stroke-linejoin="round" fill="none" stroke="#d5d5d5" d="M 72.77812 267.35713 L 448.61814 267.35713 "/>
</g>
<use xlink:href="#font_1_30" transform="matrix(14,0,0,-14,30.124,23.325188)" fill="#686868"/>
<use xlink:href="#font_1_2e" transform="matrix(14,0,0,-14,39.602,23.143189)" fill="#686868"/>
<use xlink:href="#font_1_30" transform="matrix(14,0,0,-14,43.48,23.325188)" fill="#686868"/>
<use xlink:href="#font_1_30" transform="matrix(14,0,0,-14,52.384,23.325188)" fill="#686868"/>
<use xlink:href="#font_1_35" transform="matrix(14,0,0,-14,61.441999,23.325188)" fill="#686868"/>
<symbol id="font_8_70">
<path transform="matrix(.001,0,0,.001,.033,.193)" d="M -24 -193 C -30 -193 -33 -188 -33 -180 C -31 -165 -26 -158 -20 -158 C 0 -158 14 -156 22 -152 C 30 -148 37 -139 42 -124 L 155 325 C 159 337 162 353 162 373 C 162 401 152 416 133 416 C 112 416 96 403 86 378 C 76 353 66 322 57 284 C 57 280 54 278 49 278 L 37 278 C 35 278 34 279 32 281 C 30 283 29 286 29 288 C 36 317 43 342 50 362 C 56 382 67 400 81 417 C 95 433 112 442 134 442 C 156 442 176 435 194 422 C 211 409 222 392 227 370 C 245 391 265 408 287 422 C 309 435 332 442 356 442 C 384 442 408 434 429 419 C 449 404 465 384 475 360 C 485 336 491 310 491 282 C 491 239 480 195 458 149 C 436 103 406 65 369 35 C 331 5 291 -10 248 -10 C 228 -10 211 -4 195 6 C 179 16 166 31 158 49 L 113 -128 C 111 -138 110 -143 110 -145 C 110 -153 132 -158 176 -158 C 182 -158 186 -162 186 -171 C 184 -179 182 -185 180 -188 C 178 -191 175 -193 169 -193 L -24 -193 M 249 15 C 272 15 293 24 313 43 C 333 62 349 84 362 108 C 370 126 379 147 387 173 C 395 199 402 226 408 256 C 414 285 417 308 417 326 C 417 341 415 355 411 369 C 407 382 400 393 391 402 C 381 411 369 416 354 416 C 329 416 306 407 284 390 C 262 372 243 351 226 325 L 226 322 L 171 101 C 175 77 184 56 197 40 C 210 23 227 15 249 15 "/>
</symbol>
<use xlink:href="#font_8_70" transform="matrix(0,-16.8,-16.8,-0,23.03615,138.8944)" fill="#686868"/>
<symbol id="font_f_28">
<path transform="matrix(.001,0,0,.001,-.097,.24900002)" d="M 310 -247 C 272 -217 240 -184 214 -146 C 187 -108 165 -67 148 -25 C 131 17 118 62 110 109 C 101 155 97 202 97 250 C 97 298 101 345 110 392 C 118 438 131 483 149 527 C 166 570 188 611 215 649 C 242 687 274 720 310 748 C 310 749 311 750 315 750 L 324 750 C 326 750 327 749 329 747 C 331 745 332 743 332 741 C 332 738 331 736 330 735 C 297 703 270 668 248 632 C 226 596 209 557 196 516 C 183 474 174 432 168 388 C 162 344 159 298 159 250 C 159 38 215 -122 329 -232 C 331 -234 332 -236 332 -240 C 332 -242 331 -244 329 -246 C 327 -248 326 -249 324 -249 L 315 -249 C 311 -249 310 -248 310 -247 "/>
</symbol>
<use xlink:href="#font_f_28" transform="matrix(0,-16.8,-16.8,-0,23.976952,128.26276)" fill="#686868"/>
<use xlink:href="#font_8_b2" transform="matrix(0,-16.8,-16.8,-0,19.96175,122.61609)" fill="#686868"/>
<symbol id="font_f_29">
<path transform="matrix(.001,0,0,.001,-.056,.24900002)" d="M 65 -249 C 59 -249 56 -246 56 -240 C 56 -237 56 -235 58 -234 C 172 -122 229 38 229 250 C 229 462 172 623 60 733 C 57 734 56 737 56 741 C 56 743 57 745 59 747 C 61 749 63 750 65 750 L 74 750 C 76 750 77 749 79 748 C 127 710 167 664 199 610 C 231 556 254 498 269 437 C 283 376 291 314 291 250 C 291 202 287 156 279 110 C 271 64 258 20 241 -24 C 223 -68 201 -108 175 -146 C 148 -184 116 -217 79 -247 C 77 -248 76 -249 74 -249 L 65 -249 "/>
</symbol>
<use xlink:href="#font_f_29" transform="matrix(0,-16.8,-16.8,-0,23.976952,115.632167)" fill="#686868"/>
<clipPath id="cp16">
<path transform="matrix(1,0,0,-1,0,285.18)" d="M 72.77812 44.7 L 448.6181 44.7 L 448.6181 277.98 L 72.77812 277.98 Z "/>
</clipPath>
<g clip-path="url(#cp16)">
<path transform="matrix(1,0,0,-1,0,285.18)" stroke-width="1.7" stroke-linecap="butt" stroke-linejoin="round" fill="none" stroke="#008fd5" d="M 89.86176 55.303636 L 119.27503 55.480127 L 133.98166 55.772859 L 144.24211 56.189367 L 152.10845 56.72733 L 158.26471 57.35782 L 163.73694 58.141668 L 168.18314 58.988275 L 172.28731 59.986879 L 176.04947 61.132619 L 179.46962 62.40965 L 182.54776 63.790094 L 185.62589 65.430629 L 188.362 67.1444 L 191.09813 69.13713 L 193.49224 71.14229 L 195.88634 73.42395 L 198.28044 76.01605 L 200.67455 78.95542 L 203.06864 82.28152 L 205.46274 86.03611 L 207.85684 90.26264 L 210.25095 95.005329 L 212.64505 100.30782 L 215.03916 106.211589 L 217.43326 112.75354 L 219.82736 119.96329 L 222.22147 127.85972 L 224.95758 137.72948 L 227.6937 148.4757 L 230.77184 161.52686 L 234.19199 177.01145 L 240.34825 206.19876 L 244.45243 225.13794 L 247.18854 236.75572 L 249.24063 244.62924 L 250.9507 250.4923 L 252.66078 255.61305 L 254.02884 259.11314 L 255.3969 262.03767 L 256.76496 264.35105 L 257.791 265.6675 L 258.81706 266.6146 L 259.84309 267.18559 L 260.52714 267.35517 L 261.21116 267.35517 L 261.89518 267.18559 L 262.5792 266.84696 L 263.60527 266.02464 L 264.6313 264.83039 L 265.65736 263.2727 L 266.68339 261.36256 L 268.05146 258.29057 L 269.4195 254.65283 L 271.12959 249.37596 L 272.83967 243.3763 L 274.89173 235.36644 L 277.28584 225.13794 L 280.706 209.43199 L 290.96644 161.52686 L 294.04457 148.4757 L 296.78068 137.72948 L 299.51679 127.85972 L 302.25294 118.89159 L 304.64704 111.77868 L 307.04115 105.32992 L 309.4352 99.51444 L 311.8293 94.294528 L 314.22343 89.62829 L 316.61753 85.47187 L 319.01164 81.78112 L 321.40574 78.51278 L 323.79985 75.62538 L 326.19395 73.07981 L 328.58805 70.83967 L 330.98216 68.8714 L 333.71827 66.915729 L 336.45439 65.23412 L 339.53254 63.62465 L 342.61067 62.270536 L 346.0308 61.01802 L 349.79298 59.894407 L 353.89717 58.915189 L 358.34333 58.085088 L 363.47355 57.35782 L 369.62983 56.72733 L 376.81214 56.227 L 385.7045 55.837507 L 397.67503 55.54955 L 415.4598 55.365697 L 431.5345 55.304414 "/>
</g>
<path transform="matrix(1,0,0,-1,0,285.18)" stroke-width="3" stroke-linecap="square" stroke-miterlimit="10" stroke-linejoin="miter" fill="none" stroke="#f3f3f3" d="M 72.77812 44.7 L 72.77812 277.98 "/>
<path transform="matrix(1,0,0,-1,0,285.18)" stroke-width="3" stroke-linecap="square" stroke-miterlimit="10" stroke-linejoin="miter" fill="none" stroke="#f3f3f3" d="M 448.61814 44.7 L 448.61814 277.98 "/>
<path transform="matrix(1,0,0,-1,0,285.18)" stroke-width="3" stroke-linecap="square" stroke-miterlimit="10" stroke-linejoin="miter" fill="none" stroke="#f3f3f3" d="M 72.77812 44.7 L 448.61814 44.7 "/>
<path transform="matrix(1,0,0,-1,0,285.18)" stroke-width="3" stroke-linecap="square" stroke-miterlimit="10" stroke-linejoin="miter" fill="none" stroke="#f3f3f3" d="M 72.77812 277.98 L 448.61814 277.98 "/>
</g>
</g>
</svg>
