<?xml version="1.0" encoding="UTF-8" standalone="no"?>
<!DOCTYPE svg PUBLIC "-//W3C//DTD SVG 1.1//EN" "http://www.w3.org/Graphics/SVG/1.1/DTD/svg11.dtd">
<svg xmlns="http://www.w3.org/2000/svg" xmlns:xlink="http://www.w3.org/1999/xlink" version="1.1" width="436.45875pt" height="285.18pt" viewBox="0 0 436.45875 285.18">
<g enable-background="new">
<g>
<path transform="matrix(1,0,0,-1,0,285.18)" d="M 0 0 L 436.45875 0 L 436.45875 285.18 L 0 285.18 Z " fill="#f3f3f3"/>
<path transform="matrix(1,0,0,-1,0,285.18)" d="M 53.41875 44.7 L 429.25877 44.7 L 429.25877 277.98 L 53.41875 277.98 Z " fill="#f3f3f3"/>
<clipPath id="cp0">
<path transform="matrix(1,0,0,-1,0,285.18)" d="M 53.41875 44.7 L 429.25877 44.7 L 429.25877 277.98 L 53.41875 277.98 Z "/>
</clipPath>
<g clip-path="url(#cp0)">
<path transform="matrix(1,0,0,-1,0,285.18)" stroke-width="1" stroke-linecap="butt" stroke-linejoin="round" fill="none" stroke="#d5d5d5" d="M 53.41875 44.7 L 53.41875 277.98 "/>
</g>
<symbol id="font_1_30">
<path transform="matrix(.001,0,0,.001,-.066,.013)" d="M 318 664 C 267 664 229 639 203 589 C 177 539 165 464 165 364 C 165 264 177 189 203 139 C 229 89 267 64 318 64 C 369 64 407 89 433 139 C 458 189 471 264 471 364 C 471 464 458 539 433 589 C 407 639 369 664 318 664 M 318 742 C 399 742 461 709 505 645 C 548 580 570 486 570 364 C 570 241 548 147 505 83 C 461 19 399 -13 318 -13 C 236 -13 173 19 130 83 C 87 147 66 241 66 364 C 66 486 87 580 130 645 C 173 709 236 742 318 742 "/>
</symbol>
<use xlink:href="#font_1_30" transform="matrix(14,0,0,-14,49.889627,254.80263)" fill="#686868"/>
<clipPath id="cp2">
<path transform="matrix(1,0,0,-1,0,285.18)" d="M 53.41875 44.7 L 429.25877 44.7 L 429.25877 277.98 L 53.41875 277.98 Z "/>
</clipPath>
<g clip-path="url(#cp2)">
<path transform="matrix(1,0,0,-1,0,285.18)" stroke-width="1" stroke-linecap="butt" stroke-linejoin="round" fill="none" stroke="#d5d5d5" d="M 111.24029 44.7 L 111.24029 277.98 "/>
</g>
<symbol id="font_1_31">
<path transform="matrix(.001,0,0,.001,-.11000001,0)" d="M 124 83 L 285 83 L 285 639 L 110 604 L 110 694 L 284 729 L 383 729 L 383 83 L 544 83 L 544 0 L 124 0 L 124 83 "/>
</symbol>
<use xlink:href="#font_1_31" transform="matrix(14,0,0,-14,108.32716,254.62062)" fill="#686868"/>
<clipPath id="cp3">
<path transform="matrix(1,0,0,-1,0,285.18)" d="M 53.41875 44.7 L 429.25877 44.7 L 429.25877 277.98 L 53.41875 277.98 Z "/>
</clipPath>
<g clip-path="url(#cp3)">
<path transform="matrix(1,0,0,-1,0,285.18)" stroke-width="1" stroke-linecap="butt" stroke-linejoin="round" fill="none" stroke="#d5d5d5" d="M 169.06183 44.7 L 169.06183 277.98 "/>
</g>
<symbol id="font_1_32">
<path transform="matrix(.001,0,0,.001,-.07300001,0)" d="M 192 83 L 536 83 L 536 0 L 73 0 L 73 83 C 110 121 161 173 226 239 C 290 304 331 346 348 365 C 380 400 402 430 414 455 C 426 479 433 504 433 528 C 433 566 419 598 392 622 C 365 646 330 659 286 659 C 255 659 222 653 188 643 C 154 632 117 616 78 594 L 78 694 C 118 710 155 722 189 730 C 223 738 255 742 284 742 C 359 742 419 723 464 685 C 509 647 532 597 532 534 C 532 504 526 475 515 449 C 504 422 484 390 454 354 C 446 344 420 317 376 272 C 332 227 271 164 192 83 "/>
</symbol>
<use xlink:href="#font_1_32" transform="matrix(14,0,0,-14,165.6307,254.62062)" fill="#686868"/>
<clipPath id="cp4">
<path transform="matrix(1,0,0,-1,0,285.18)" d="M 53.41875 44.7 L 429.25877 44.7 L 429.25877 277.98 L 53.41875 277.98 Z "/>
</clipPath>
<g clip-path="url(#cp4)">
<path transform="matrix(1,0,0,-1,0,285.18)" stroke-width="1" stroke-linecap="butt" stroke-linejoin="round" fill="none" stroke="#d5d5d5" d="M 226.88336 44.7 L 226.88336 277.98 "/>
</g>
<symbol id="font_1_33">
<path transform="matrix(.001,0,0,.001,-.076000008,.013)" d="M 406 393 C 453 383 490 362 516 330 C 542 298 556 258 556 212 C 556 140 531 84 482 45 C 432 6 362 -13 271 -13 C 240 -13 208 -10 176 -4 C 144 1 110 10 76 22 L 76 117 C 103 101 133 89 166 81 C 198 73 232 69 268 69 C 330 69 377 81 409 105 C 441 129 458 165 458 212 C 458 254 443 288 413 312 C 383 336 341 349 287 349 L 202 349 L 202 430 L 291 430 C 339 430 376 439 402 459 C 428 478 441 506 441 543 C 441 580 427 609 401 629 C 374 649 336 659 287 659 C 260 659 231 656 200 650 C 169 644 135 635 98 623 L 98 711 C 135 721 170 729 203 734 C 235 739 266 742 296 742 C 370 742 429 725 473 691 C 517 657 539 611 539 553 C 539 513 527 479 504 451 C 481 423 448 403 406 393 "/>
</symbol>
<use xlink:href="#font_1_33" transform="matrix(14,0,0,-14,223.49423,254.80263)" fill="#686868"/>
<clipPath id="cp5">
<path transform="matrix(1,0,0,-1,0,285.18)" d="M 53.41875 44.7 L 429.25877 44.7 L 429.25877 277.98 L 53.41875 277.98 Z "/>
</clipPath>
<g clip-path="url(#cp5)">
<path transform="matrix(1,0,0,-1,0,285.18)" stroke-width="1" stroke-linecap="butt" stroke-linejoin="round" fill="none" stroke="#d5d5d5" d="M 284.7049 44.7 L 284.7049 277.98 "/>
</g>
<symbol id="font_1_34">
<path transform="matrix(.001,0,0,.001,-.049000004,0)" d="M 378 643 L 129 254 L 378 254 L 378 643 M 352 729 L 476 729 L 476 254 L 580 254 L 580 172 L 476 172 L 476 0 L 378 0 L 378 172 L 49 172 L 49 267 L 352 729 "/>
</symbol>
<use xlink:href="#font_1_34" transform="matrix(14,0,0,-14,280.93778,254.62062)" fill="#686868"/>
<clipPath id="cp6">
<path transform="matrix(1,0,0,-1,0,285.18)" d="M 53.41875 44.7 L 429.25877 44.7 L 429.25877 277.98 L 53.41875 277.98 Z "/>
</clipPath>
<g clip-path="url(#cp6)">
<path transform="matrix(1,0,0,-1,0,285.18)" stroke-width="1" stroke-linecap="butt" stroke-linejoin="round" fill="none" stroke="#d5d5d5" d="M 342.52644 44.7 L 342.52644 277.98 "/>
</g>
<symbol id="font_1_35">
<path transform="matrix(.001,0,0,.001,-.07700001,.013)" d="M 108 729 L 495 729 L 495 646 L 198 646 L 198 467 C 212 472 227 476 241 478 C 255 480 270 482 284 482 C 365 482 429 459 477 415 C 525 370 549 310 549 234 C 549 155 524 94 475 51 C 426 8 357 -13 269 -13 C 238 -13 207 -10 175 -6 C 143 -1 111 6 77 17 L 77 116 C 106 100 136 88 168 80 C 199 72 232 69 267 69 C 323 69 368 83 401 113 C 433 143 450 183 450 234 C 450 284 433 324 401 354 C 368 384 323 399 267 399 C 241 399 214 396 188 390 C 162 384 135 375 108 363 L 108 729 "/>
</symbol>
<use xlink:href="#font_1_35" transform="matrix(14,0,0,-14,339.1513,254.80263)" fill="#686868"/>
<clipPath id="cp7">
<path transform="matrix(1,0,0,-1,0,285.18)" d="M 53.41875 44.7 L 429.25877 44.7 L 429.25877 277.98 L 53.41875 277.98 Z "/>
</clipPath>
<g clip-path="url(#cp7)">
<path transform="matrix(1,0,0,-1,0,285.18)" stroke-width="1" stroke-linecap="butt" stroke-linejoin="round" fill="none" stroke="#d5d5d5" d="M 400.348 44.7 L 400.348 277.98 "/>
</g>
<symbol id="font_1_36">
<path transform="matrix(.001,0,0,.001,-.07,.013)" d="M 330 404 C 286 404 251 388 225 358 C 199 328 186 286 186 234 C 186 181 199 139 225 109 C 251 79 286 64 330 64 C 374 64 409 79 435 109 C 461 139 474 181 474 234 C 474 286 461 328 435 358 C 409 388 374 404 330 404 M 526 713 L 526 623 C 501 635 476 644 451 650 C 425 656 400 659 376 659 C 310 659 260 637 226 593 C 192 549 172 482 168 394 C 187 422 211 444 240 459 C 269 474 301 482 336 482 C 409 482 467 459 509 415 C 551 371 573 310 573 234 C 573 159 550 99 506 54 C 462 9 403 -13 330 -13 C 246 -13 181 19 137 83 C 92 147 70 241 70 364 C 70 479 97 571 152 639 C 206 707 280 742 372 742 C 396 742 421 739 447 735 C 472 730 498 723 526 713 "/>
</symbol>
<use xlink:href="#font_1_36" transform="matrix(14,0,0,-14,396.87489,254.80263)" fill="#686868"/>
<symbol id="font_1_78">
<path transform="matrix(.001,0,0,.001,-.029000001,0)" d="M 549 547 L 351 281 L 559 0 L 453 0 L 294 215 L 135 0 L 29 0 L 241 286 L 47 547 L 153 547 L 298 352 L 443 547 L 549 547 "/>
</symbol>
<symbol id="font_1_20">
</symbol>
<symbol id="font_1_28">
<path transform="matrix(.001,0,0,.001,-.086,.13100001)" d="M 310 759 C 266 683 234 609 213 536 C 191 463 181 389 181 314 C 181 238 191 164 213 91 C 234 17 266 -56 310 -131 L 232 -131 C 183 -54 146 20 122 94 C 98 168 86 241 86 314 C 86 386 98 459 122 533 C 146 607 182 682 232 759 L 310 759 "/>
</symbol>
<symbol id="font_1_48">
<path transform="matrix(.001,0,0,.001,-.098000008,0)" d="M 98 729 L 197 729 L 197 430 L 555 430 L 555 729 L 654 729 L 654 0 L 555 0 L 555 347 L 197 347 L 197 0 L 98 0 L 98 729 "/>
</symbol>
<symbol id="font_1_6f">
<path transform="matrix(.001,0,0,.001,-.055000005,.013)" d="M 306 484 C 258 484 220 465 192 427 C 164 389 150 338 150 273 C 150 207 163 156 191 118 C 219 80 257 62 306 62 C 354 62 392 80 420 118 C 448 156 462 207 462 273 C 462 337 448 389 420 427 C 392 465 354 484 306 484 M 306 560 C 384 560 445 534 490 484 C 534 433 557 363 557 273 C 557 183 534 113 490 63 C 445 12 384 -13 306 -13 C 227 -13 165 12 121 63 C 77 113 55 183 55 273 C 55 363 77 433 121 484 C 165 534 227 560 306 560 "/>
</symbol>
<symbol id="font_1_75">
<path transform="matrix(.001,0,0,.001,-.085,.013)" d="M 85 216 L 85 547 L 175 547 L 175 219 C 175 167 185 129 205 103 C 225 77 255 64 296 64 C 344 64 383 79 411 110 C 439 141 453 183 453 237 L 453 547 L 543 547 L 543 0 L 453 0 L 453 84 C 431 50 405 26 377 10 C 348 -5 315 -13 277 -13 C 214 -13 166 6 134 45 C 101 83 85 140 85 216 M 311 560 L 311 560 "/>
</symbol>
<symbol id="font_1_72">
<path transform="matrix(.001,0,0,.001,-.091000009,0)" d="M 411 463 C 401 469 390 473 378 476 C 366 478 353 480 339 480 C 288 480 249 463 222 430 C 194 397 181 350 181 288 L 181 0 L 91 0 L 91 547 L 181 547 L 181 462 C 199 495 224 520 254 536 C 284 552 321 560 365 560 C 371 560 378 559 386 559 C 393 558 401 557 411 555 L 411 463 "/>
</symbol>
<symbol id="font_1_73">
<path transform="matrix(.001,0,0,.001,-.054,.013)" d="M 443 531 L 443 446 C 417 458 391 468 364 475 C 336 481 308 485 279 485 C 234 485 200 478 178 464 C 156 450 145 430 145 403 C 145 382 153 366 169 354 C 185 342 217 330 265 320 L 296 313 C 360 299 405 279 432 255 C 458 230 472 195 472 151 C 472 100 452 60 412 31 C 372 1 316 -13 246 -13 C 216 -13 186 -10 154 -5 C 122 0 89 8 54 20 L 54 113 C 87 95 120 82 152 74 C 184 65 216 61 248 61 C 290 61 323 68 346 82 C 368 96 380 117 380 144 C 380 168 371 187 355 200 C 339 213 303 226 247 238 L 216 245 C 160 257 119 275 95 299 C 70 323 58 356 58 399 C 58 450 76 490 112 518 C 148 546 200 560 268 560 C 301 560 332 557 362 552 C 391 547 418 540 443 531 "/>
</symbol>
<symbol id="font_1_74">
<path transform="matrix(.001,0,0,.001,-.027,0)" d="M 183 702 L 183 547 L 368 547 L 368 477 L 183 477 L 183 180 C 183 135 189 106 201 94 C 213 81 238 75 276 75 L 368 75 L 368 0 L 276 0 C 206 0 158 13 132 39 C 106 65 93 112 93 180 L 93 477 L 27 477 L 27 547 L 93 547 L 93 702 L 183 702 "/>
</symbol>
<symbol id="font_1_64">
<path transform="matrix(.001,0,0,.001,-.055000005,.013)" d="M 454 464 L 454 760 L 544 760 L 544 0 L 454 0 L 454 82 C 435 49 411 25 382 10 C 353 -5 319 -13 279 -13 C 213 -13 159 13 117 65 C 75 117 55 187 55 273 C 55 359 75 428 117 481 C 159 533 213 560 279 560 C 319 560 353 552 382 536 C 411 520 435 496 454 464 M 148 273 C 148 207 161 155 188 117 C 215 79 253 61 301 61 C 348 61 385 79 413 117 C 440 155 454 207 454 273 C 454 339 440 390 413 428 C 385 466 348 485 301 485 C 253 485 215 466 188 428 C 161 390 148 339 148 273 "/>
</symbol>
<symbol id="font_1_79">
<path transform="matrix(.001,0,0,.001,-.030000002,.20700002)" d="M 322 -50 C 296 -114 271 -157 247 -177 C 223 -197 191 -207 151 -207 L 79 -207 L 79 -132 L 132 -132 C 156 -132 175 -126 189 -114 C 203 -102 218 -75 235 -31 L 251 9 L 30 547 L 125 547 L 296 119 L 467 547 L 562 547 L 322 -50 "/>
</symbol>
<symbol id="font_1_69">
<path transform="matrix(.001,0,0,.001,-.094000007,0)" d="M 94 547 L 184 547 L 184 0 L 94 0 L 94 547 M 94 760 L 184 760 L 184 646 L 94 646 L 94 760 "/>
</symbol>
<symbol id="font_1_6e">
<path transform="matrix(.001,0,0,.001,-.091000009,0)" d="M 549 330 L 549 0 L 459 0 L 459 327 C 459 379 448 417 428 443 C 408 469 378 482 338 482 C 289 482 251 466 223 435 C 195 404 181 362 181 309 L 181 0 L 91 0 L 91 547 L 181 547 L 181 462 C 202 494 227 519 257 535 C 286 551 320 560 358 560 C 420 560 468 540 500 501 C 532 462 549 405 549 330 "/>
</symbol>
<symbol id="font_1_67">
<path transform="matrix(.001,0,0,.001,-.055000005,.20700002)" d="M 454 280 C 454 344 440 395 414 431 C 387 467 349 485 301 485 C 253 485 215 467 188 431 C 161 395 148 344 148 280 C 148 215 161 165 188 129 C 215 93 253 75 301 75 C 349 75 387 93 414 129 C 440 165 454 215 454 280 M 544 68 C 544 -24 523 -93 482 -139 C 440 -184 377 -207 292 -207 C 260 -207 231 -204 203 -200 C 175 -195 147 -188 121 -178 L 121 -91 C 147 -105 173 -115 199 -122 C 225 -129 251 -133 278 -133 C 336 -133 380 -117 410 -87 C 439 -56 454 -10 454 52 L 454 96 C 435 64 411 40 382 24 C 353 8 319 0 279 0 C 211 0 157 25 116 76 C 75 127 55 195 55 280 C 55 364 75 432 116 483 C 157 534 211 560 279 560 C 319 560 353 552 382 536 C 411 520 435 496 454 464 L 454 547 L 544 547 L 544 68 "/>
</symbol>
<symbol id="font_1_29">
<path transform="matrix(.001,0,0,.001,-.080000009,.13100001)" d="M 80 759 L 158 759 C 206 682 243 607 267 533 C 291 459 304 386 304 314 C 304 241 291 168 267 94 C 243 20 206 -54 158 -131 L 80 -131 C 123 -56 155 17 177 91 C 198 164 209 238 209 314 C 209 389 198 463 177 536 C 155 609 123 683 80 759 "/>
</symbol>
<use xlink:href="#font_1_78" transform="matrix(16.8,0,0,-16.8,164.2947,274.44874)" fill="#686868"/>
<use xlink:href="#font_1_20" transform="matrix(16.8,0,0,-16.8,156.6003,282.22715)" fill="#686868"/>
<use xlink:href="#font_1_28" transform="matrix(16.8,0,0,-16.8,180.5403,276.64955)" fill="#686868"/>
<use xlink:href="#font_1_48" transform="matrix(16.8,0,0,-16.8,187.2939,274.44874)" fill="#686868"/>
<use xlink:href="#font_1_6f" transform="matrix(16.8,0,0,-16.8,199.20511,274.66716)" fill="#686868"/>
<use xlink:href="#font_1_75" transform="matrix(16.8,0,0,-16.8,209.9907,274.66716)" fill="#686868"/>
<use xlink:href="#font_1_72" transform="matrix(16.8,0,0,-16.8,220.7427,274.44874)" fill="#686868"/>
<use xlink:href="#font_1_73" transform="matrix(16.8,0,0,-16.8,227.02591,274.66716)" fill="#686868"/>
<use xlink:href="#font_1_20" transform="matrix(16.8,0,0,-16.8,217.71872,282.22715)" fill="#686868"/>
<use xlink:href="#font_1_73" transform="matrix(16.8,0,0,-16.8,241.12113,274.66716)" fill="#686868"/>
<use xlink:href="#font_1_74" transform="matrix(16.8,0,0,-16.8,249.42034,274.44874)" fill="#686868"/>
<use xlink:href="#font_1_75" transform="matrix(16.8,0,0,-16.8,256.98036,274.66716)" fill="#686868"/>
<use xlink:href="#font_1_64" transform="matrix(16.8,0,0,-16.8,267.12757,274.66716)" fill="#686868"/>
<use xlink:href="#font_1_79" transform="matrix(16.8,0,0,-16.8,277.37556,277.92634)" fill="#686868"/>
<use xlink:href="#font_1_69" transform="matrix(16.8,0,0,-16.8,288.39634,274.44874)" fill="#686868"/>
<use xlink:href="#font_1_6e" transform="matrix(16.8,0,0,-16.8,293.01637,274.44874)" fill="#686868"/>
<use xlink:href="#font_1_67" transform="matrix(16.8,0,0,-16.8,303.06275,277.92634)" fill="#686868"/>
<use xlink:href="#font_1_29" transform="matrix(16.8,0,0,-16.8,314.15074,276.64955)" fill="#686868"/>
<clipPath id="cp8">
<path transform="matrix(1,0,0,-1,0,285.18)" d="M 53.41875 44.7 L 429.25877 44.7 L 429.25877 277.98 L 53.41875 277.98 Z "/>
</clipPath>
<g clip-path="url(#cp8)">
<path transform="matrix(1,0,0,-1,0,285.18)" stroke-width="1" stroke-linecap="butt" stroke-linejoin="round" fill="none" stroke="#d5d5d5" d="M 53.41875 64.14 L 429.25877 64.14 "/>
</g>
<symbol id="font_1_2e">
<path transform="matrix(.001,0,0,.001,-.10700001,0)" d="M 107 124 L 210 124 L 210 0 L 107 0 L 107 124 "/>
</symbol>
<use xlink:href="#font_1_30" transform="matrix(14,0,0,-14,28.577126,226.54232)" fill="#686868"/>
<use xlink:href="#font_1_2e" transform="matrix(14,0,0,-14,38.055128,226.3603)" fill="#686868"/>
<use xlink:href="#font_1_30" transform="matrix(14,0,0,-14,41.933126,226.54232)" fill="#686868"/>
<clipPath id="cp9">
<path transform="matrix(1,0,0,-1,0,285.18)" d="M 53.41875 44.7 L 429.25877 44.7 L 429.25877 277.98 L 53.41875 277.98 Z "/>
</clipPath>
<g clip-path="url(#cp9)">
<path transform="matrix(1,0,0,-1,0,285.18)" stroke-width="1" stroke-linecap="butt" stroke-linejoin="round" fill="none" stroke="#d5d5d5" d="M 53.41875 103.02 L 429.25877 103.02 "/>
</g>
<use xlink:href="#font_1_30" transform="matrix(14,0,0,-14,28.577126,187.66233)" fill="#686868"/>
<use xlink:href="#font_1_2e" transform="matrix(14,0,0,-14,38.055128,187.48032)" fill="#686868"/>
<use xlink:href="#font_1_32" transform="matrix(14,0,0,-14,42.031126,187.48032)" fill="#686868"/>
<clipPath id="cp10">
<path transform="matrix(1,0,0,-1,0,285.18)" d="M 53.41875 44.7 L 429.25877 44.7 L 429.25877 277.98 L 53.41875 277.98 Z "/>
</clipPath>
<g clip-path="url(#cp10)">
<path transform="matrix(1,0,0,-1,0,285.18)" stroke-width="1" stroke-linecap="butt" stroke-linejoin="round" fill="none" stroke="#d5d5d5" d="M 53.41875 141.9 L 429.25877 141.9 "/>
</g>
<use xlink:href="#font_1_30" transform="matrix(14,0,0,-14,28.577126,148.78232)" fill="#686868"/>
<use xlink:href="#font_1_2e" transform="matrix(14,0,0,-14,38.055128,148.60031)" fill="#686868"/>
<use xlink:href="#font_1_34" transform="matrix(14,0,0,-14,41.695127,148.60031)" fill="#686868"/>
<clipPath id="cp11">
<path transform="matrix(1,0,0,-1,0,285.18)" d="M 53.41875 44.7 L 429.25877 44.7 L 429.25877 277.98 L 53.41875 277.98 Z "/>
</clipPath>
<g clip-path="url(#cp11)">
<path transform="matrix(1,0,0,-1,0,285.18)" stroke-width="1" stroke-linecap="butt" stroke-linejoin="round" fill="none" stroke="#d5d5d5" d="M 53.41875 180.78 L 429.25877 180.78 "/>
</g>
<use xlink:href="#font_1_30" transform="matrix(14,0,0,-14,28.577126,109.902309)" fill="#686868"/>
<use xlink:href="#font_1_2e" transform="matrix(14,0,0,-14,38.055128,109.72031)" fill="#686868"/>
<use xlink:href="#font_1_36" transform="matrix(14,0,0,-14,41.989126,109.902309)" fill="#686868"/>
<clipPath id="cp12">
<path transform="matrix(1,0,0,-1,0,285.18)" d="M 53.41875 44.7 L 429.25877 44.7 L 429.25877 277.98 L 53.41875 277.98 Z "/>
</clipPath>
<g clip-path="url(#cp12)">
<path transform="matrix(1,0,0,-1,0,285.18)" stroke-width="1" stroke-linecap="butt" stroke-linejoin="round" fill="none" stroke="#d5d5d5" d="M 53.41875 219.66 L 429.25877 219.66 "/>
</g>
<symbol id="font_1_38">
<path transform="matrix(.001,0,0,.001,-.068,.013)" d="M 318 346 C 271 346 234 333 207 308 C 180 283 167 249 167 205 C 167 161 180 126 207 101 C 234 76 271 64 318 64 C 364 64 401 76 428 102 C 455 127 469 161 469 205 C 469 249 455 283 429 308 C 402 333 365 346 318 346 M 219 388 C 177 398 144 418 120 447 C 96 476 85 511 85 553 C 85 611 105 657 147 691 C 188 725 245 742 318 742 C 390 742 447 725 489 691 C 530 657 551 611 551 553 C 551 511 539 476 515 447 C 491 418 459 398 417 388 C 464 377 501 355 528 323 C 554 291 568 251 568 205 C 568 134 546 80 503 43 C 459 5 398 -13 318 -13 C 237 -13 175 5 132 43 C 89 80 68 134 68 205 C 68 251 81 291 108 323 C 134 355 171 377 219 388 M 183 544 C 183 506 194 476 218 455 C 242 434 275 424 318 424 C 360 424 393 434 417 455 C 441 476 453 506 453 544 C 453 582 441 611 417 632 C 393 653 360 664 318 664 C 275 664 242 653 218 632 C 194 611 183 582 183 544 "/>
</symbol>
<use xlink:href="#font_1_30" transform="matrix(14,0,0,-14,28.577126,71.0223)" fill="#686868"/>
<use xlink:href="#font_1_2e" transform="matrix(14,0,0,-14,38.055128,70.8403)" fill="#686868"/>
<use xlink:href="#font_1_38" transform="matrix(14,0,0,-14,41.961126,71.0223)" fill="#686868"/>
<clipPath id="cp13">
<path transform="matrix(1,0,0,-1,0,285.18)" d="M 53.41875 44.7 L 429.25877 44.7 L 429.25877 277.98 L 53.41875 277.98 Z "/>
</clipPath>
<g clip-path="url(#cp13)">
<path transform="matrix(1,0,0,-1,0,285.18)" stroke-width="1" stroke-linecap="butt" stroke-linejoin="round" fill="none" stroke="#d5d5d5" d="M 53.41875 258.54 L 429.25877 258.54 "/>
</g>
<use xlink:href="#font_1_31" transform="matrix(14,0,0,-14,29.193127,31.960312)" fill="#686868"/>
<use xlink:href="#font_1_2e" transform="matrix(14,0,0,-14,38.055128,31.960312)" fill="#686868"/>
<use xlink:href="#font_1_30" transform="matrix(14,0,0,-14,41.933126,32.14231)" fill="#686868"/>
<symbol id="font_1_45">
<path transform="matrix(.001,0,0,.001,-.098000008,0)" d="M 98 729 L 559 729 L 559 646 L 197 646 L 197 430 L 544 430 L 544 347 L 197 347 L 197 83 L 568 83 L 568 0 L 98 0 L 98 729 "/>
</symbol>
<symbol id="font_1_61">
<path transform="matrix(.001,0,0,.001,-.060000004,.013)" d="M 343 275 C 270 275 220 266 192 250 C 164 233 150 205 150 165 C 150 133 160 107 181 89 C 202 70 231 61 267 61 C 317 61 357 78 387 114 C 417 149 432 196 432 255 L 432 275 L 343 275 M 522 312 L 522 0 L 432 0 L 432 83 C 411 49 385 25 355 10 C 325 -5 287 -13 243 -13 C 187 -13 142 2 109 33 C 76 64 60 106 60 159 C 60 220 80 266 122 298 C 163 329 224 345 306 345 L 432 345 L 432 354 C 432 395 418 427 391 450 C 364 472 326 484 277 484 C 245 484 215 480 185 472 C 155 464 127 453 100 439 L 100 522 C 132 534 164 544 195 550 C 226 556 256 560 286 560 C 365 560 424 539 463 498 C 502 457 522 395 522 312 "/>
</symbol>
<symbol id="font_1_6d">
<path transform="matrix(.001,0,0,.001,-.091000009,0)" d="M 520 442 C 542 482 569 511 600 531 C 631 550 668 560 711 560 C 767 560 811 540 842 500 C 873 460 889 403 889 330 L 889 0 L 799 0 L 799 327 C 799 379 789 418 771 444 C 752 469 724 482 686 482 C 639 482 602 466 575 435 C 548 404 535 362 535 309 L 535 0 L 445 0 L 445 327 C 445 379 435 418 417 444 C 398 469 369 482 331 482 C 285 482 248 466 221 435 C 194 404 181 362 181 309 L 181 0 L 91 0 L 91 547 L 181 547 L 181 462 C 201 495 226 520 255 536 C 283 552 317 560 357 560 C 397 560 430 550 458 530 C 486 510 506 480 520 442 "/>
</symbol>
<symbol id="font_1_4f">
<path transform="matrix(.001,0,0,.001,-.056,.013)" d="M 394 662 C 322 662 265 635 223 582 C 181 528 160 456 160 364 C 160 272 181 199 223 146 C 265 92 322 66 394 66 C 465 66 522 92 564 146 C 606 199 627 272 627 364 C 627 456 606 528 564 582 C 522 635 465 662 394 662 M 394 742 C 496 742 577 707 639 639 C 700 571 731 479 731 364 C 731 248 700 157 639 89 C 577 21 496 -13 394 -13 C 291 -13 209 21 148 89 C 86 157 56 248 56 364 C 56 479 86 571 148 639 C 209 707 291 742 394 742 "/>
</symbol>
<symbol id="font_1_63">
<path transform="matrix(.001,0,0,.001,-.055000005,.013)" d="M 488 526 L 488 442 C 462 456 437 466 411 473 C 385 480 360 484 334 484 C 276 484 230 465 198 428 C 166 391 150 339 150 273 C 150 206 166 154 198 117 C 230 80 276 62 334 62 C 360 62 385 65 411 72 C 437 79 462 90 488 104 L 488 21 C 462 9 436 0 410 -5 C 383 -10 354 -13 324 -13 C 242 -13 176 12 128 64 C 79 115 55 185 55 273 C 55 362 79 432 128 483 C 177 534 244 560 330 560 C 358 560 385 557 411 551 C 437 545 463 537 488 526 "/>
</symbol>
<symbol id="font_1_65">
<path transform="matrix(.001,0,0,.001,-.055000005,.013)" d="M 562 296 L 562 252 L 149 252 C 153 190 171 142 205 110 C 238 78 284 62 344 62 C 378 62 412 66 444 74 C 476 82 509 95 541 113 L 541 28 C 509 14 476 3 442 -3 C 408 -9 373 -13 339 -13 C 251 -13 182 12 131 62 C 80 112 55 181 55 268 C 55 357 79 428 127 481 C 175 533 241 560 323 560 C 397 560 455 536 498 489 C 540 441 562 377 562 296 M 472 322 C 471 371 457 410 431 440 C 404 469 368 484 324 484 C 274 484 234 469 204 441 C 174 413 156 373 152 322 L 472 322 "/>
</symbol>
<use xlink:href="#font_1_79" transform="matrix(0,-16.8,-16.8,-0,23.599476,201.8985)" fill="#686868"/>
<use xlink:href="#font_1_20" transform="matrix(0,-16.8,-16.8,-0,27.900277,209.6097)" fill="#686868"/>
<use xlink:href="#font_1_28" transform="matrix(0,-16.8,-16.8,-0,22.322676,185.66971)" fill="#686868"/>
<use xlink:href="#font_1_45" transform="matrix(0,-16.8,-16.8,-0,20.121876,178.9161)" fill="#686868"/>
<use xlink:href="#font_1_78" transform="matrix(0,-16.8,-16.8,-0,20.121876,169.45769)" fill="#686868"/>
<use xlink:href="#font_1_61" transform="matrix(0,-16.8,-16.8,-0,20.340275,158.9913)" fill="#686868"/>
<use xlink:href="#font_1_6d" transform="matrix(0,-16.8,-16.8,-0,20.121876,148.1721)" fill="#686868"/>
<use xlink:href="#font_1_20" transform="matrix(0,-16.8,-16.8,-0,27.900277,150.4905)" fill="#686868"/>
<use xlink:href="#font_1_4f" transform="matrix(0,-16.8,-16.8,-0,20.340275,127.05448)" fill="#686868"/>
<use xlink:href="#font_1_75" transform="matrix(0,-16.8,-16.8,-0,20.340275,113.34568)" fill="#686868"/>
<use xlink:href="#font_1_74" transform="matrix(0,-16.8,-16.8,-0,20.121876,103.668888)" fill="#686868"/>
<use xlink:href="#font_1_63" transform="matrix(0,-16.8,-16.8,-0,20.340275,96.61288)" fill="#686868"/>
<use xlink:href="#font_1_6f" transform="matrix(0,-16.8,-16.8,-0,20.340275,87.37287)" fill="#686868"/>
<use xlink:href="#font_1_6d" transform="matrix(0,-16.8,-16.8,-0,20.121876,76.48647)" fill="#686868"/>
<use xlink:href="#font_1_65" transform="matrix(0,-16.8,-16.8,-0,20.340275,60.72807)" fill="#686868"/>
<use xlink:href="#font_1_29" transform="matrix(0,-16.8,-16.8,-0,22.322676,49.976068)" fill="#686868"/>
<clipPath id="cp14">
<path transform="matrix(1,0,0,-1,0,285.18)" d="M 53.41875 44.7 L 429.25877 44.7 L 429.25877 277.98 L 53.41875 277.98 Z "/>
</clipPath>
<g clip-path="url(#cp14)">
<clipPath id="cp15">
<path transform="matrix(1,0,0,-1,82.32952,221.04)" d="M -3.5 -3.5 L 3.5 -3.5 L 3.5 3.5 L -3.5 3.5 Z "/>
</clipPath>
<g clip-path="url(#cp15)">
<path transform="matrix(1,0,0,-1,82.32952,221.04)" d="M 0 -3 C .795609 -3 1.55874 -2.683901 2.12132 -2.12132 C 2.683901 -1.55874 3 -.795609 3 0 C 3 .795609 2.683901 1.55874 2.12132 2.12132 C 1.55874 2.683901 .795609 3 0 3 C -.795609 3 -1.55874 2.683901 -2.12132 2.12132 C -2.683901 1.55874 -3 .795609 -3 0 C -3 -.795609 -2.683901 -1.55874 -2.12132 -2.12132 C -1.55874 -2.683901 -.795609 -3 0 -3 Z " fill="#008fd5"/>
<path transform="matrix(1,0,0,-1,82.32952,221.04)" stroke-width="1" stroke-linecap="butt" stroke-linejoin="round" fill="none" stroke="#008fd5" d="M 0 -3 C .795609 -3 1.55874 -2.683901 2.12132 -2.12132 C 2.683901 -1.55874 3 -.795609 3 0 C 3 .795609 2.683901 1.55874 2.12132 2.12132 C 1.55874 2.683901 .795609 3 0 3 C -.795609 3 -1.55874 2.683901 -2.12132 2.12132 C -2.683901 1.55874 -3 .795609 -3 0 C -3 -.795609 -2.683901 -1.55874 -2.12132 -2.12132 C -1.55874 -2.683901 -.795609 -3 0 -3 Z "/>
</g>
<clipPath id="cp16">
<path transform="matrix(1,0,0,-1,96.784908,221.04)" d="M -3.5 -3.5 L 3.5 -3.5 L 3.5 3.5 L -3.5 3.5 Z "/>
</clipPath>
<g clip-path="url(#cp16)">
<path transform="matrix(1,0,0,-1,96.784908,221.04)" d="M 0 -3 C .795609 -3 1.55874 -2.683901 2.12132 -2.12132 C 2.683901 -1.55874 3 -.795609 3 0 C 3 .795609 2.683901 1.55874 2.12132 2.12132 C 1.55874 2.683901 .795609 3 0 3 C -.795609 3 -1.55874 2.683901 -2.12132 2.12132 C -2.683901 1.55874 -3 .795609 -3 0 C -3 -.795609 -2.683901 -1.55874 -2.12132 -2.12132 C -1.55874 -2.683901 -.795609 -3 0 -3 Z " fill="#008fd5"/>
<path transform="matrix(1,0,0,-1,96.784908,221.04)" stroke-width="1" stroke-linecap="butt" stroke-linejoin="round" fill="none" stroke="#008fd5" d="M 0 -3 C .795609 -3 1.55874 -2.683901 2.12132 -2.12132 C 2.683901 -1.55874 3 -.795609 3 0 C 3 .795609 2.683901 1.55874 2.12132 2.12132 C 1.55874 2.683901 .795609 3 0 3 C -.795609 3 -1.55874 2.683901 -2.12132 2.12132 C -2.683901 1.55874 -3 .795609 -3 0 C -3 -.795609 -2.683901 -1.55874 -2.12132 -2.12132 C -1.55874 -2.683901 -.795609 -3 0 -3 Z "/>
</g>
<clipPath id="cp17">
<path transform="matrix(1,0,0,-1,111.24029,221.04)" d="M -3.5 -3.5 L 3.5 -3.5 L 3.5 3.5 L -3.5 3.5 Z "/>
</clipPath>
<g clip-path="url(#cp17)">
<path transform="matrix(1,0,0,-1,111.24029,221.04)" d="M 0 -3 C .795609 -3 1.55874 -2.683901 2.12132 -2.12132 C 2.683901 -1.55874 3 -.795609 3 0 C 3 .795609 2.683901 1.55874 2.12132 2.12132 C 1.55874 2.683901 .795609 3 0 3 C -.795609 3 -1.55874 2.683901 -2.12132 2.12132 C -2.683901 1.55874 -3 .795609 -3 0 C -3 -.795609 -2.683901 -1.55874 -2.12132 -2.12132 C -1.55874 -2.683901 -.795609 -3 0 -3 Z " fill="#008fd5"/>
<path transform="matrix(1,0,0,-1,111.24029,221.04)" stroke-width="1" stroke-linecap="butt" stroke-linejoin="round" fill="none" stroke="#008fd5" d="M 0 -3 C .795609 -3 1.55874 -2.683901 2.12132 -2.12132 C 2.683901 -1.55874 3 -.795609 3 0 C 3 .795609 2.683901 1.55874 2.12132 2.12132 C 1.55874 2.683901 .795609 3 0 3 C -.795609 3 -1.55874 2.683901 -2.12132 2.12132 C -2.683901 1.55874 -3 .795609 -3 0 C -3 -.795609 -2.683901 -1.55874 -2.12132 -2.12132 C -1.55874 -2.683901 -.795609 -3 0 -3 Z "/>
</g>
<clipPath id="cp18">
<path transform="matrix(1,0,0,-1,125.69567,221.04)" d="M -3.5 -3.5 L 3.5 -3.5 L 3.5 3.5 L -3.5 3.5 Z "/>
</clipPath>
<g clip-path="url(#cp18)">
<path transform="matrix(1,0,0,-1,125.69567,221.04)" d="M 0 -3 C .795609 -3 1.55874 -2.683901 2.12132 -2.12132 C 2.683901 -1.55874 3 -.795609 3 0 C 3 .795609 2.683901 1.55874 2.12132 2.12132 C 1.55874 2.683901 .795609 3 0 3 C -.795609 3 -1.55874 2.683901 -2.12132 2.12132 C -2.683901 1.55874 -3 .795609 -3 0 C -3 -.795609 -2.683901 -1.55874 -2.12132 -2.12132 C -1.55874 -2.683901 -.795609 -3 0 -3 Z " fill="#008fd5"/>
<path transform="matrix(1,0,0,-1,125.69567,221.04)" stroke-width="1" stroke-linecap="butt" stroke-linejoin="round" fill="none" stroke="#008fd5" d="M 0 -3 C .795609 -3 1.55874 -2.683901 2.12132 -2.12132 C 2.683901 -1.55874 3 -.795609 3 0 C 3 .795609 2.683901 1.55874 2.12132 2.12132 C 1.55874 2.683901 .795609 3 0 3 C -.795609 3 -1.55874 2.683901 -2.12132 2.12132 C -2.683901 1.55874 -3 .795609 -3 0 C -3 -.795609 -2.683901 -1.55874 -2.12132 -2.12132 C -1.55874 -2.683901 -.795609 -3 0 -3 Z "/>
</g>
<clipPath id="cp19">
<path transform="matrix(1,0,0,-1,140.15106,221.04)" d="M -3.5 -3.5 L 3.5 -3.5 L 3.5 3.5 L -3.5 3.5 Z "/>
</clipPath>
<g clip-path="url(#cp19)">
<path transform="matrix(1,0,0,-1,140.15106,221.04)" d="M 0 -3 C .795609 -3 1.55874 -2.683901 2.12132 -2.12132 C 2.683901 -1.55874 3 -.795609 3 0 C 3 .795609 2.683901 1.55874 2.12132 2.12132 C 1.55874 2.683901 .795609 3 0 3 C -.795609 3 -1.55874 2.683901 -2.12132 2.12132 C -2.683901 1.55874 -3 .795609 -3 0 C -3 -.795609 -2.683901 -1.55874 -2.12132 -2.12132 C -1.55874 -2.683901 -.795609 -3 0 -3 Z " fill="#008fd5"/>
<path transform="matrix(1,0,0,-1,140.15106,221.04)" stroke-width="1" stroke-linecap="butt" stroke-linejoin="round" fill="none" stroke="#008fd5" d="M 0 -3 C .795609 -3 1.55874 -2.683901 2.12132 -2.12132 C 2.683901 -1.55874 3 -.795609 3 0 C 3 .795609 2.683901 1.55874 2.12132 2.12132 C 1.55874 2.683901 .795609 3 0 3 C -.795609 3 -1.55874 2.683901 -2.12132 2.12132 C -2.683901 1.55874 -3 .795609 -3 0 C -3 -.795609 -2.683901 -1.55874 -2.12132 -2.12132 C -1.55874 -2.683901 -.795609 -3 0 -3 Z "/>
</g>
<clipPath id="cp20">
<path transform="matrix(1,0,0,-1,154.60645,221.04)" d="M -3.5 -3.5 L 3.5 -3.5 L 3.5 3.5 L -3.5 3.5 Z "/>
</clipPath>
<g clip-path="url(#cp20)">
<path transform="matrix(1,0,0,-1,154.60645,221.04)" d="M 0 -3 C .795609 -3 1.55874 -2.683901 2.12132 -2.12132 C 2.683901 -1.55874 3 -.795609 3 0 C 3 .795609 2.683901 1.55874 2.12132 2.12132 C 1.55874 2.683901 .795609 3 0 3 C -.795609 3 -1.55874 2.683901 -2.12132 2.12132 C -2.683901 1.55874 -3 .795609 -3 0 C -3 -.795609 -2.683901 -1.55874 -2.12132 -2.12132 C -1.55874 -2.683901 -.795609 -3 0 -3 Z " fill="#008fd5"/>
<path transform="matrix(1,0,0,-1,154.60645,221.04)" stroke-width="1" stroke-linecap="butt" stroke-linejoin="round" fill="none" stroke="#008fd5" d="M 0 -3 C .795609 -3 1.55874 -2.683901 2.12132 -2.12132 C 2.683901 -1.55874 3 -.795609 3 0 C 3 .795609 2.683901 1.55874 2.12132 2.12132 C 1.55874 2.683901 .795609 3 0 3 C -.795609 3 -1.55874 2.683901 -2.12132 2.12132 C -2.683901 1.55874 -3 .795609 -3 0 C -3 -.795609 -2.683901 -1.55874 -2.12132 -2.12132 C -1.55874 -2.683901 -.795609 -3 0 -3 Z "/>
</g>
<clipPath id="cp21">
<path transform="matrix(1,0,0,-1,154.60645,26.64)" d="M -3.5 -3.5 L 3.5 -3.5 L 3.5 3.5 L -3.5 3.5 Z "/>
</clipPath>
<g clip-path="url(#cp21)">
<path transform="matrix(1,0,0,-1,154.60645,26.64)" d="M 0 -3 C .795609 -3 1.55874 -2.683901 2.12132 -2.12132 C 2.683901 -1.55874 3 -.795609 3 0 C 3 .795609 2.683901 1.55874 2.12132 2.12132 C 1.55874 2.683901 .795609 3 0 3 C -.795609 3 -1.55874 2.683901 -2.12132 2.12132 C -2.683901 1.55874 -3 .795609 -3 0 C -3 -.795609 -2.683901 -1.55874 -2.12132 -2.12132 C -1.55874 -2.683901 -.795609 -3 0 -3 Z " fill="#008fd5"/>
<path transform="matrix(1,0,0,-1,154.60645,26.64)" stroke-width="1" stroke-linecap="butt" stroke-linejoin="round" fill="none" stroke="#008fd5" d="M 0 -3 C .795609 -3 1.55874 -2.683901 2.12132 -2.12132 C 2.683901 -1.55874 3 -.795609 3 0 C 3 .795609 2.683901 1.55874 2.12132 2.12132 C 1.55874 2.683901 .795609 3 0 3 C -.795609 3 -1.55874 2.683901 -2.12132 2.12132 C -2.683901 1.55874 -3 .795609 -3 0 C -3 -.795609 -2.683901 -1.55874 -2.12132 -2.12132 C -1.55874 -2.683901 -.795609 -3 0 -3 Z "/>
</g>
<clipPath id="cp22">
<path transform="matrix(1,0,0,-1,169.06183,221.04)" d="M -3.5 -3.5 L 3.5 -3.5 L 3.5 3.5 L -3.5 3.5 Z "/>
</clipPath>
<g clip-path="url(#cp22)">
<path transform="matrix(1,0,0,-1,169.06183,221.04)" d="M 0 -3 C .795609 -3 1.55874 -2.683901 2.12132 -2.12132 C 2.683901 -1.55874 3 -.795609 3 0 C 3 .795609 2.683901 1.55874 2.12132 2.12132 C 1.55874 2.683901 .795609 3 0 3 C -.795609 3 -1.55874 2.683901 -2.12132 2.12132 C -2.683901 1.55874 -3 .795609 -3 0 C -3 -.795609 -2.683901 -1.55874 -2.12132 -2.12132 C -1.55874 -2.683901 -.795609 -3 0 -3 Z " fill="#008fd5"/>
<path transform="matrix(1,0,0,-1,169.06183,221.04)" stroke-width="1" stroke-linecap="butt" stroke-linejoin="round" fill="none" stroke="#008fd5" d="M 0 -3 C .795609 -3 1.55874 -2.683901 2.12132 -2.12132 C 2.683901 -1.55874 3 -.795609 3 0 C 3 .795609 2.683901 1.55874 2.12132 2.12132 C 1.55874 2.683901 .795609 3 0 3 C -.795609 3 -1.55874 2.683901 -2.12132 2.12132 C -2.683901 1.55874 -3 .795609 -3 0 C -3 -.795609 -2.683901 -1.55874 -2.12132 -2.12132 C -1.55874 -2.683901 -.795609 -3 0 -3 Z "/>
</g>
<clipPath id="cp23">
<path transform="matrix(1,0,0,-1,183.51721,26.64)" d="M -3.5 -3.5 L 3.5 -3.5 L 3.5 3.5 L -3.5 3.5 Z "/>
</clipPath>
<g clip-path="url(#cp23)">
<path transform="matrix(1,0,0,-1,183.51721,26.64)" d="M 0 -3 C .795609 -3 1.55874 -2.683901 2.12132 -2.12132 C 2.683901 -1.55874 3 -.795609 3 0 C 3 .795609 2.683901 1.55874 2.12132 2.12132 C 1.55874 2.683901 .795609 3 0 3 C -.795609 3 -1.55874 2.683901 -2.12132 2.12132 C -2.683901 1.55874 -3 .795609 -3 0 C -3 -.795609 -2.683901 -1.55874 -2.12132 -2.12132 C -1.55874 -2.683901 -.795609 -3 0 -3 Z " fill="#008fd5"/>
<path transform="matrix(1,0,0,-1,183.51721,26.64)" stroke-width="1" stroke-linecap="butt" stroke-linejoin="round" fill="none" stroke="#008fd5" d="M 0 -3 C .795609 -3 1.55874 -2.683901 2.12132 -2.12132 C 2.683901 -1.55874 3 -.795609 3 0 C 3 .795609 2.683901 1.55874 2.12132 2.12132 C 1.55874 2.683901 .795609 3 0 3 C -.795609 3 -1.55874 2.683901 -2.12132 2.12132 C -2.683901 1.55874 -3 .795609 -3 0 C -3 -.795609 -2.683901 -1.55874 -2.12132 -2.12132 C -1.55874 -2.683901 -.795609 -3 0 -3 Z "/>
</g>
<clipPath id="cp24">
<path transform="matrix(1,0,0,-1,197.9726,221.04)" d="M -3.5 -3.5 L 3.5 -3.5 L 3.5 3.5 L -3.5 3.5 Z "/>
</clipPath>
<g clip-path="url(#cp24)">
<path transform="matrix(1,0,0,-1,197.9726,221.04)" d="M 0 -3 C .795609 -3 1.55874 -2.683901 2.12132 -2.12132 C 2.683901 -1.55874 3 -.795609 3 0 C 3 .795609 2.683901 1.55874 2.12132 2.12132 C 1.55874 2.683901 .795609 3 0 3 C -.795609 3 -1.55874 2.683901 -2.12132 2.12132 C -2.683901 1.55874 -3 .795609 -3 0 C -3 -.795609 -2.683901 -1.55874 -2.12132 -2.12132 C -1.55874 -2.683901 -.795609 -3 0 -3 Z " fill="#008fd5"/>
<path transform="matrix(1,0,0,-1,197.9726,221.04)" stroke-width="1" stroke-linecap="butt" stroke-linejoin="round" fill="none" stroke="#008fd5" d="M 0 -3 C .795609 -3 1.55874 -2.683901 2.12132 -2.12132 C 2.683901 -1.55874 3 -.795609 3 0 C 3 .795609 2.683901 1.55874 2.12132 2.12132 C 1.55874 2.683901 .795609 3 0 3 C -.795609 3 -1.55874 2.683901 -2.12132 2.12132 C -2.683901 1.55874 -3 .795609 -3 0 C -3 -.795609 -2.683901 -1.55874 -2.12132 -2.12132 C -1.55874 -2.683901 -.795609 -3 0 -3 Z "/>
</g>
<clipPath id="cp25">
<path transform="matrix(1,0,0,-1,212.42798,26.64)" d="M -3.5 -3.5 L 3.5 -3.5 L 3.5 3.5 L -3.5 3.5 Z "/>
</clipPath>
<g clip-path="url(#cp25)">
<path transform="matrix(1,0,0,-1,212.42798,26.64)" d="M 0 -3 C .795609 -3 1.55874 -2.683901 2.12132 -2.12132 C 2.683901 -1.55874 3 -.795609 3 0 C 3 .795609 2.683901 1.55874 2.12132 2.12132 C 1.55874 2.683901 .795609 3 0 3 C -.795609 3 -1.55874 2.683901 -2.12132 2.12132 C -2.683901 1.55874 -3 .795609 -3 0 C -3 -.795609 -2.683901 -1.55874 -2.12132 -2.12132 C -1.55874 -2.683901 -.795609 -3 0 -3 Z " fill="#008fd5"/>
<path transform="matrix(1,0,0,-1,212.42798,26.64)" stroke-width="1" stroke-linecap="butt" stroke-linejoin="round" fill="none" stroke="#008fd5" d="M 0 -3 C .795609 -3 1.55874 -2.683901 2.12132 -2.12132 C 2.683901 -1.55874 3 -.795609 3 0 C 3 .795609 2.683901 1.55874 2.12132 2.12132 C 1.55874 2.683901 .795609 3 0 3 C -.795609 3 -1.55874 2.683901 -2.12132 2.12132 C -2.683901 1.55874 -3 .795609 -3 0 C -3 -.795609 -2.683901 -1.55874 -2.12132 -2.12132 C -1.55874 -2.683901 -.795609 -3 0 -3 Z "/>
</g>
<clipPath id="cp26">
<path transform="matrix(1,0,0,-1,226.88336,221.04)" d="M -3.5 -3.5 L 3.5 -3.5 L 3.5 3.5 L -3.5 3.5 Z "/>
</clipPath>
<g clip-path="url(#cp26)">
<path transform="matrix(1,0,0,-1,226.88336,221.04)" d="M 0 -3 C .795609 -3 1.55874 -2.683901 2.12132 -2.12132 C 2.683901 -1.55874 3 -.795609 3 0 C 3 .795609 2.683901 1.55874 2.12132 2.12132 C 1.55874 2.683901 .795609 3 0 3 C -.795609 3 -1.55874 2.683901 -2.12132 2.12132 C -2.683901 1.55874 -3 .795609 -3 0 C -3 -.795609 -2.683901 -1.55874 -2.12132 -2.12132 C -1.55874 -2.683901 -.795609 -3 0 -3 Z " fill="#008fd5"/>
<path transform="matrix(1,0,0,-1,226.88336,221.04)" stroke-width="1" stroke-linecap="butt" stroke-linejoin="round" fill="none" stroke="#008fd5" d="M 0 -3 C .795609 -3 1.55874 -2.683901 2.12132 -2.12132 C 2.683901 -1.55874 3 -.795609 3 0 C 3 .795609 2.683901 1.55874 2.12132 2.12132 C 1.55874 2.683901 .795609 3 0 3 C -.795609 3 -1.55874 2.683901 -2.12132 2.12132 C -2.683901 1.55874 -3 .795609 -3 0 C -3 -.795609 -2.683901 -1.55874 -2.12132 -2.12132 C -1.55874 -2.683901 -.795609 -3 0 -3 Z "/>
</g>
<clipPath id="cp27">
<path transform="matrix(1,0,0,-1,241.33875,26.64)" d="M -3.5 -3.5 L 3.5 -3.5 L 3.5 3.5 L -3.5 3.5 Z "/>
</clipPath>
<g clip-path="url(#cp27)">
<path transform="matrix(1,0,0,-1,241.33875,26.64)" d="M 0 -3 C .795609 -3 1.55874 -2.683901 2.12132 -2.12132 C 2.683901 -1.55874 3 -.795609 3 0 C 3 .795609 2.683901 1.55874 2.12132 2.12132 C 1.55874 2.683901 .795609 3 0 3 C -.795609 3 -1.55874 2.683901 -2.12132 2.12132 C -2.683901 1.55874 -3 .795609 -3 0 C -3 -.795609 -2.683901 -1.55874 -2.12132 -2.12132 C -1.55874 -2.683901 -.795609 -3 0 -3 Z " fill="#008fd5"/>
<path transform="matrix(1,0,0,-1,241.33875,26.64)" stroke-width="1" stroke-linecap="butt" stroke-linejoin="round" fill="none" stroke="#008fd5" d="M 0 -3 C .795609 -3 1.55874 -2.683901 2.12132 -2.12132 C 2.683901 -1.55874 3 -.795609 3 0 C 3 .795609 2.683901 1.55874 2.12132 2.12132 C 1.55874 2.683901 .795609 3 0 3 C -.795609 3 -1.55874 2.683901 -2.12132 2.12132 C -2.683901 1.55874 -3 .795609 -3 0 C -3 -.795609 -2.683901 -1.55874 -2.12132 -2.12132 C -1.55874 -2.683901 -.795609 -3 0 -3 Z "/>
</g>
<clipPath id="cp28">
<path transform="matrix(1,0,0,-1,255.79413,221.04)" d="M -3.5 -3.5 L 3.5 -3.5 L 3.5 3.5 L -3.5 3.5 Z "/>
</clipPath>
<g clip-path="url(#cp28)">
<path transform="matrix(1,0,0,-1,255.79413,221.04)" d="M 0 -3 C .795609 -3 1.55874 -2.683901 2.12132 -2.12132 C 2.683901 -1.55874 3 -.795609 3 0 C 3 .795609 2.683901 1.55874 2.12132 2.12132 C 1.55874 2.683901 .795609 3 0 3 C -.795609 3 -1.55874 2.683901 -2.12132 2.12132 C -2.683901 1.55874 -3 .795609 -3 0 C -3 -.795609 -2.683901 -1.55874 -2.12132 -2.12132 C -1.55874 -2.683901 -.795609 -3 0 -3 Z " fill="#008fd5"/>
<path transform="matrix(1,0,0,-1,255.79413,221.04)" stroke-width="1" stroke-linecap="butt" stroke-linejoin="round" fill="none" stroke="#008fd5" d="M 0 -3 C .795609 -3 1.55874 -2.683901 2.12132 -2.12132 C 2.683901 -1.55874 3 -.795609 3 0 C 3 .795609 2.683901 1.55874 2.12132 2.12132 C 1.55874 2.683901 .795609 3 0 3 C -.795609 3 -1.55874 2.683901 -2.12132 2.12132 C -2.683901 1.55874 -3 .795609 -3 0 C -3 -.795609 -2.683901 -1.55874 -2.12132 -2.12132 C -1.55874 -2.683901 -.795609 -3 0 -3 Z "/>
</g>
<clipPath id="cp29">
<path transform="matrix(1,0,0,-1,284.7049,26.64)" d="M -3.5 -3.5 L 3.5 -3.5 L 3.5 3.5 L -3.5 3.5 Z "/>
</clipPath>
<g clip-path="url(#cp29)">
<path transform="matrix(1,0,0,-1,284.7049,26.64)" d="M 0 -3 C .795609 -3 1.55874 -2.683901 2.12132 -2.12132 C 2.683901 -1.55874 3 -.795609 3 0 C 3 .795609 2.683901 1.55874 2.12132 2.12132 C 1.55874 2.683901 .795609 3 0 3 C -.795609 3 -1.55874 2.683901 -2.12132 2.12132 C -2.683901 1.55874 -3 .795609 -3 0 C -3 -.795609 -2.683901 -1.55874 -2.12132 -2.12132 C -1.55874 -2.683901 -.795609 -3 0 -3 Z " fill="#008fd5"/>
<path transform="matrix(1,0,0,-1,284.7049,26.64)" stroke-width="1" stroke-linecap="butt" stroke-linejoin="round" fill="none" stroke="#008fd5" d="M 0 -3 C .795609 -3 1.55874 -2.683901 2.12132 -2.12132 C 2.683901 -1.55874 3 -.795609 3 0 C 3 .795609 2.683901 1.55874 2.12132 2.12132 C 1.55874 2.683901 .795609 3 0 3 C -.795609 3 -1.55874 2.683901 -2.12132 2.12132 C -2.683901 1.55874 -3 .795609 -3 0 C -3 -.795609 -2.683901 -1.55874 -2.12132 -2.12132 C -1.55874 -2.683901 -.795609 -3 0 -3 Z "/>
</g>
<clipPath id="cp30">
<path transform="matrix(1,0,0,-1,299.16029,26.64)" d="M -3.5 -3.5 L 3.5 -3.5 L 3.5 3.5 L -3.5 3.5 Z "/>
</clipPath>
<g clip-path="url(#cp30)">
<path transform="matrix(1,0,0,-1,299.16029,26.64)" d="M 0 -3 C .795609 -3 1.55874 -2.683901 2.12132 -2.12132 C 2.683901 -1.55874 3 -.795609 3 0 C 3 .795609 2.683901 1.55874 2.12132 2.12132 C 1.55874 2.683901 .795609 3 0 3 C -.795609 3 -1.55874 2.683901 -2.12132 2.12132 C -2.683901 1.55874 -3 .795609 -3 0 C -3 -.795609 -2.683901 -1.55874 -2.12132 -2.12132 C -1.55874 -2.683901 -.795609 -3 0 -3 Z " fill="#008fd5"/>
<path transform="matrix(1,0,0,-1,299.16029,26.64)" stroke-width="1" stroke-linecap="butt" stroke-linejoin="round" fill="none" stroke="#008fd5" d="M 0 -3 C .795609 -3 1.55874 -2.683901 2.12132 -2.12132 C 2.683901 -1.55874 3 -.795609 3 0 C 3 .795609 2.683901 1.55874 2.12132 2.12132 C 1.55874 2.683901 .795609 3 0 3 C -.795609 3 -1.55874 2.683901 -2.12132 2.12132 C -2.683901 1.55874 -3 .795609 -3 0 C -3 -.795609 -2.683901 -1.55874 -2.12132 -2.12132 C -1.55874 -2.683901 -.795609 -3 0 -3 Z "/>
</g>
<clipPath id="cp31">
<path transform="matrix(1,0,0,-1,313.61567,26.64)" d="M -3.5 -3.5 L 3.5 -3.5 L 3.5 3.5 L -3.5 3.5 Z "/>
</clipPath>
<g clip-path="url(#cp31)">
<path transform="matrix(1,0,0,-1,313.61567,26.64)" d="M 0 -3 C .795609 -3 1.55874 -2.683901 2.12132 -2.12132 C 2.683901 -1.55874 3 -.795609 3 0 C 3 .795609 2.683901 1.55874 2.12132 2.12132 C 1.55874 2.683901 .795609 3 0 3 C -.795609 3 -1.55874 2.683901 -2.12132 2.12132 C -2.683901 1.55874 -3 .795609 -3 0 C -3 -.795609 -2.683901 -1.55874 -2.12132 -2.12132 C -1.55874 -2.683901 -.795609 -3 0 -3 Z " fill="#008fd5"/>
<path transform="matrix(1,0,0,-1,313.61567,26.64)" stroke-width="1" stroke-linecap="butt" stroke-linejoin="round" fill="none" stroke="#008fd5" d="M 0 -3 C .795609 -3 1.55874 -2.683901 2.12132 -2.12132 C 2.683901 -1.55874 3 -.795609 3 0 C 3 .795609 2.683901 1.55874 2.12132 2.12132 C 1.55874 2.683901 .795609 3 0 3 C -.795609 3 -1.55874 2.683901 -2.12132 2.12132 C -2.683901 1.55874 -3 .795609 -3 0 C -3 -.795609 -2.683901 -1.55874 -2.12132 -2.12132 C -1.55874 -2.683901 -.795609 -3 0 -3 Z "/>
</g>
<clipPath id="cp32">
<path transform="matrix(1,0,0,-1,328.07106,26.64)" d="M -3.5 -3.5 L 3.5 -3.5 L 3.5 3.5 L -3.5 3.5 Z "/>
</clipPath>
<g clip-path="url(#cp32)">
<path transform="matrix(1,0,0,-1,328.07106,26.64)" d="M 0 -3 C .795609 -3 1.55874 -2.683901 2.12132 -2.12132 C 2.683901 -1.55874 3 -.795609 3 0 C 3 .795609 2.683901 1.55874 2.12132 2.12132 C 1.55874 2.683901 .795609 3 0 3 C -.795609 3 -1.55874 2.683901 -2.12132 2.12132 C -2.683901 1.55874 -3 .795609 -3 0 C -3 -.795609 -2.683901 -1.55874 -2.12132 -2.12132 C -1.55874 -2.683901 -.795609 -3 0 -3 Z " fill="#008fd5"/>
<path transform="matrix(1,0,0,-1,328.07106,26.64)" stroke-width="1" stroke-linecap="butt" stroke-linejoin="round" fill="none" stroke="#008fd5" d="M 0 -3 C .795609 -3 1.55874 -2.683901 2.12132 -2.12132 C 2.683901 -1.55874 3 -.795609 3 0 C 3 .795609 2.683901 1.55874 2.12132 2.12132 C 1.55874 2.683901 .795609 3 0 3 C -.795609 3 -1.55874 2.683901 -2.12132 2.12132 C -2.683901 1.55874 -3 .795609 -3 0 C -3 -.795609 -2.683901 -1.55874 -2.12132 -2.12132 C -1.55874 -2.683901 -.795609 -3 0 -3 Z "/>
</g>
<clipPath id="cp33">
<path transform="matrix(1,0,0,-1,342.52644,26.64)" d="M -3.5 -3.5 L 3.5 -3.5 L 3.5 3.5 L -3.5 3.5 Z "/>
</clipPath>
<g clip-path="url(#cp33)">
<path transform="matrix(1,0,0,-1,342.52644,26.64)" d="M 0 -3 C .795609 -3 1.55874 -2.683901 2.12132 -2.12132 C 2.683901 -1.55874 3 -.795609 3 0 C 3 .795609 2.683901 1.55874 2.12132 2.12132 C 1.55874 2.683901 .795609 3 0 3 C -.795609 3 -1.55874 2.683901 -2.12132 2.12132 C -2.683901 1.55874 -3 .795609 -3 0 C -3 -.795609 -2.683901 -1.55874 -2.12132 -2.12132 C -1.55874 -2.683901 -.795609 -3 0 -3 Z " fill="#008fd5"/>
<path transform="matrix(1,0,0,-1,342.52644,26.64)" stroke-width="1" stroke-linecap="butt" stroke-linejoin="round" fill="none" stroke="#008fd5" d="M 0 -3 C .795609 -3 1.55874 -2.683901 2.12132 -2.12132 C 2.683901 -1.55874 3 -.795609 3 0 C 3 .795609 2.683901 1.55874 2.12132 2.12132 C 1.55874 2.683901 .795609 3 0 3 C -.795609 3 -1.55874 2.683901 -2.12132 2.12132 C -2.683901 1.55874 -3 .795609 -3 0 C -3 -.795609 -2.683901 -1.55874 -2.12132 -2.12132 C -1.55874 -2.683901 -.795609 -3 0 -3 Z "/>
</g>
<clipPath id="cp34">
<path transform="matrix(1,0,0,-1,371.4372,26.64)" d="M -3.5 -3.5 L 3.5 -3.5 L 3.5 3.5 L -3.5 3.5 Z "/>
</clipPath>
<g clip-path="url(#cp34)">
<path transform="matrix(1,0,0,-1,371.4372,26.64)" d="M 0 -3 C .795609 -3 1.55874 -2.683901 2.12132 -2.12132 C 2.683901 -1.55874 3 -.795609 3 0 C 3 .795609 2.683901 1.55874 2.12132 2.12132 C 1.55874 2.683901 .795609 3 0 3 C -.795609 3 -1.55874 2.683901 -2.12132 2.12132 C -2.683901 1.55874 -3 .795609 -3 0 C -3 -.795609 -2.683901 -1.55874 -2.12132 -2.12132 C -1.55874 -2.683901 -.795609 -3 0 -3 Z " fill="#008fd5"/>
<path transform="matrix(1,0,0,-1,371.4372,26.64)" stroke-width="1" stroke-linecap="butt" stroke-linejoin="round" fill="none" stroke="#008fd5" d="M 0 -3 C .795609 -3 1.55874 -2.683901 2.12132 -2.12132 C 2.683901 -1.55874 3 -.795609 3 0 C 3 .795609 2.683901 1.55874 2.12132 2.12132 C 1.55874 2.683901 .795609 3 0 3 C -.795609 3 -1.55874 2.683901 -2.12132 2.12132 C -2.683901 1.55874 -3 .795609 -3 0 C -3 -.795609 -2.683901 -1.55874 -2.12132 -2.12132 C -1.55874 -2.683901 -.795609 -3 0 -3 Z "/>
</g>
</g>
<clipPath id="cp35">
<path transform="matrix(1,0,0,-1,0,285.18)" d="M 53.41875 44.7 L 429.25877 44.7 L 429.25877 277.98 L 53.41875 277.98 Z "/>
</clipPath>
<g clip-path="url(#cp35)">
<path transform="matrix(1,0,0,-1,0,285.18)" stroke-width="1.7" stroke-linecap="butt" stroke-linejoin="round" fill="none" stroke="#fc4f30" d="M 53.41875 67.37944 L 63.826627 68.365207 L 73.07807 69.483669 L 81.17309 70.694408 L 88.11167 71.939388 L 95.050258 73.40918 L 100.83241 74.83148 L 106.61456 76.457508 L 112.39672 78.311748 L 118.17887 80.42016 L 123.96103 82.80976 L 128.58675 84.94237 L 133.21248 87.28649 L 137.8382 89.85564 L 142.46392 92.66245 L 147.08965 95.71827 L 151.71537 99.032619 L 156.3411 102.612628 L 160.96681 106.462497 L 165.59253 110.582859 L 170.21826 114.97029 L 174.84398 119.61679 L 180.62613 125.76905 L 186.4083 132.269 L 193.34688 140.45803 L 201.4419 150.41158 L 229.19623 184.98204 L 236.13481 193.03919 L 241.91696 199.4058 L 247.69911 205.40868 L 252.32485 209.92748 L 256.95057 214.18262 L 261.5763 218.16846 L 266.20204 221.88362 L 270.82774 225.33063 L 275.45347 228.51519 L 280.0792 231.4457 L 284.7049 234.13265 L 289.33064 236.58809 L 293.95637 238.82517 L 298.58207 240.85764 L 304.36424 243.13195 L 310.1464 245.13591 L 315.92854 246.8962 L 321.7107 248.43822 L 328.64927 250.03397 L 335.58787 251.38742 L 342.52644 252.53249 L 350.62147 253.64484 L 359.8729 254.67134 L 370.2808 255.57523 L 381.8451 256.33695 L 394.56584 256.95274 L 410.75587 257.4955 L 430.4152 257.9124 L 437.45875 258.0172 "/>
</g>
<path transform="matrix(1,0,0,-1,0,285.18)" stroke-width="3" stroke-linecap="square" stroke-miterlimit="10" stroke-linejoin="miter" fill="none" stroke="#f3f3f3" d="M 53.41875 44.7 L 53.41875 277.98 "/>
<path transform="matrix(1,0,0,-1,0,285.18)" stroke-width="3" stroke-linecap="square" stroke-miterlimit="10" stroke-linejoin="miter" fill="none" stroke="#f3f3f3" d="M 429.25877 44.7 L 429.25877 277.98 "/>
<path transform="matrix(1,0,0,-1,0,285.18)" stroke-width="3" stroke-linecap="square" stroke-miterlimit="10" stroke-linejoin="miter" fill="none" stroke="#f3f3f3" d="M 53.41875 44.7 L 429.25877 44.7 "/>
<path transform="matrix(1,0,0,-1,0,285.18)" stroke-width="3" stroke-linecap="square" stroke-miterlimit="10" stroke-linejoin="miter" fill="none" stroke="#f3f3f3" d="M 53.41875 277.98 L 429.25877 277.98 "/>
</g>
</g>
</svg>
