<?xml version="1.0" encoding="UTF-8" standalone="no"?>
<!DOCTYPE svg PUBLIC "-//W3C//DTD SVG 1.1//EN" "http://www.w3.org/Graphics/SVG/1.1/DTD/svg11.dtd">
<svg xmlns="http://www.w3.org/2000/svg" xmlns:xlink="http://www.w3.org/1999/xlink" version="1.1" width="800pt" height="600pt" viewBox="0 0 800 600">
<g enable-background="new">
<g id="Layer-1" data-name="Layer">
<path transform="matrix(1,0,0,-1,0,600)" d="M 0 0 L 800 0 L 800 600 L 0 600 Z " fill="#f1f0f0"/>
<clipPath id="cp0">
<path transform="matrix(1,0,0,-1,0,600)" d="M 0 600 L 800 600 L 800 0 L 0 0 Z "/>
</clipPath>
<g clip-path="url(#cp0)">
<path transform="matrix(1,0,0,-1,344.0056,534.9694)" d="M 0 0 C -37.25 -.677 -74.499 -1.364 -111.749 -2.028 C -160.362 -2.894 -208.971 -3.842 -257.529 -6.505 C -266.507 -6.998 -275.502 -7.312 -284.493 -7.397 C -289.147 -7.441 -291.84 -8.661 -290.9 -13.954 C -290.675 -15.219 -291.03 -16.587 -291.124 -17.983 C -292.815 -17.575 -292.529 -16.241 -292.627 -15.231 C -293.327 -7.999 -293.308 -7.968 -300.498 -8.073 C -302.656 -8.104 -304.809 -8.401 -306.968 -8.469 C -307.744 -8.494 -308.777 -8.424 -308.881 -7.372 C -308.984 -6.33 -308.119 -6.034 -307.236 -5.924 C -304.827 -5.142 -302.339 -5.506 -299.909 -5.6 C -296.617 -5.727 -293.542 -5.518 -291.053 -3.047 C -289.871 -5.921 -287.402 -4.768 -285.422 -4.71 C -240.684 -3.407 -195.998 -.587 -151.229 -.167 C -86 .446 -20.79 3.09 44.458 1.572 C 46.102 1.533 47.741 1.298 49.383 1.155 C 47.808 -.609 45.693 .016 43.79 .002 C 30.149 -.1 16.515 .523 2.873 .465 C 1.892 .461 .882 .622 0 0 " fill="#08090d"/>
<path transform="matrix(1,0,0,-1,377.2466,216.14429)" d="M 0 0 C -21.108 -5.918 -42.336 -11.444 -63.301 -17.834 C -111.445 -32.509 -158.771 -49.391 -202.435 -74.913 C -229.998 -91.023 -254.707 -110.897 -277.143 -133.71 C -294.305 -151.161 -310.196 -169.738 -326.786 -187.69 C -328.249 -186.974 -327.951 -186.141 -326.949 -185.26 C -316.378 -173.302 -305.846 -161.31 -295.229 -149.393 C -258.508 -108.177 -215.522 -75.521 -164.952 -52.871 C -113.861 -29.987 -60.688 -13.472 -6.625 .494 C -5.51 .782 -4.342 .865 -3.199 1.043 C -2.158 .617 -.744 1.336 0 0 " fill="#14b03e"/>
<path transform="matrix(1,0,0,-1,50.2978,401.4043)" d="M 0 0 C .054 -.811 .108 -1.622 .162 -2.431 C -.564 -14.142 .583 -25.821 .796 -37.516 C 1.78 -38.815 1.676 -40.113 .789 -41.409 C .358 -54.384 1.004 -67.342 1.635 -80.29 C 2.549 -99.057 3.001 -117.826 2.655 -136.613 C 1.139 -139.249 -1.193 -139.873 -4.084 -139.66 C -7.219 -139.43 -10.379 -139.532 -13.529 -139.489 C -10.567 -137.837 -7.315 -138.495 -4.247 -138.662 C -.247 -138.88 .771 -137.492 .765 -133.543 C .73 -109.562 -.48 -85.617 -1.08 -61.655 C -2.081 -21.714 -3.513 18.238 -2.128 58.191 C -.249 112.437 .579 166.704 1.665 220.967 C 1.901 232.773 1.74 244.588 1.761 256.399 C 4.427 256.043 2.343 253.434 3.644 252.431 C 3.644 252.079 3.644 251.726 3.644 251.374 C 2.609 239.352 3.431 227.307 3.225 215.274 C 3.186 213.003 2.689 210.657 3.661 208.433 C 3.281 188.309 2.946 168.184 2.51 148.061 C 1.586 105.472 .574 62.885 -.31 20.296 C -.451 13.535 -.115 6.765 0 0 " fill="#1e1e2a"/>
<path transform="matrix(1,0,0,-1,344.0056,534.9694)" d="M 0 0 C 1.487 1.587 3.426 .923 5.171 .937 C 19.908 1.049 34.645 1.091 49.383 1.155 C 71.202 1.556 93.003 .753 114.809 .215 C 162.273 -.955 209.743 -1.942 257.199 -3.386 C 275.337 -3.937 293.443 -5.525 311.562 -6.665 C 312.577 -6.728 314.232 -6.208 314.082 -8.017 C 313.951 -9.596 312.369 -9.373 311.282 -9.309 C 305.298 -8.957 299.318 -8.548 293.34 -8.107 C 256.311 -5.373 219.21 -4.563 182.102 -3.802 C 141.165 -2.961 100.234 -1.802 59.296 -.977 C 41.348 -.615 23.39 -.752 5.437 -.609 C 3.623 -.594 1.812 -.212 0 0 " fill="#050606"/>
<path transform="matrix(1,0,0,-1,377.2466,216.14429)" d="M 0 0 C -1.091 .272 -2.389 -.092 -3.199 1.043 C 14.011 5.718 31.545 8.889 49.083 11.934 C 97.739 20.382 146.711 25.523 196.17 25.15 C 196.995 25.144 197.822 25.306 198.649 25.39 C 199.355 24.23 198.71 23.609 197.741 23.117 C 185.096 22.815 172.446 22.631 159.81 22.106 C 157.429 22.007 154.084 24.013 152.607 19.942 C 152.258 18.98 151.615 20.121 151.382 20.563 C 150.31 22.596 148.448 22.134 147.016 21.595 C 145.062 20.86 146.605 19.305 146.808 18.179 C 147.315 15.37 146.321 13.148 144.118 11.655 C 141.257 9.716 140.103 7.242 141.121 3.99 C 142.111 .83 145.175 2.721 147.171 1.853 C 143.528 -1.482 139.616 -.701 138.99 3.822 C 138.595 6.672 137.32 8.228 134.186 9.774 C 141.091 11.229 138.886 17.303 142.49 21.561 C 128.77 20.166 116.219 19.016 103.699 17.593 C 69.302 13.684 35.237 7.807 1.493 .07 C 1.015 -.039 .499 .02 0 0 " fill="#14b03e"/>
<path transform="matrix(1,0,0,-1,574.9873,193.0268)" d="M 0 0 C .303 .757 .605 1.515 .908 2.272 C 1.146 4.172 1.384 6.072 1.622 7.964 C 2.406 7.836 2.946 7.791 2.946 7.741 C 3 1.554 7.132 1.996 11.606 1.845 C 29.574 1.237 47.528 .247 65.489 -.548 C 70.308 -.762 75.139 -1.07 79.954 -.418 C 80.985 -.279 82.115 -.198 82.393 -1.451 C 82.711 -2.878 81.706 -3.67 80.449 -3.793 C 78.8 -3.953 77.112 -3.973 75.463 -3.818 C 56.729 -2.056 37.923 -1.487 19.152 -.333 C 16.127 -.147 13.881 -.295 13.929 -3.927 C 11.171 -3.918 12.381 -1.148 10.833 -.339 C 7.958 1.163 4.428 -.814 3.772 -4.07 C 2.738 -9.194 1.371 -14.252 -.108 -20.388 C -1.977 -15.509 .333 -11.756 -.077 -8.019 C -2.131 -7.425 -2.922 -9.773 -4.886 -9.678 C -5.637 -7.022 -3.401 -6.409 -1.865 -5.518 C .451 -4.174 1.955 -2.715 0 0 " fill="#14b03e"/>
<path transform="matrix(1,0,0,-1,680.2339,568.4634)" d="M 0 0 C -.883 -.575 -1.251 -.93 -1.69 -1.081 C -3.247 -1.618 -5.099 -1.848 -5.346 -3.92 C -5.507 -5.278 -4.493 -6.042 -3.308 -6.376 C -1.174 -6.976 .261 -5.662 1.313 -4.17 C 4.015 -.339 4.783 4.309 4.451 8.657 C 4.139 12.741 5.932 15.293 7.933 18.222 C 9.295 20.218 10.924 19.983 12.733 19.554 C 14.295 19.184 15.492 18.214 15.802 16.621 C 16.237 14.388 14.62 13.041 12.947 12.476 C 6.455 10.283 7.063 4.741 6.855 -.25 C 6.712 -3.694 8.536 -5.368 11.929 -3.346 C 14.444 -1.848 15.644 -2.861 16.309 -5.176 C 16.657 -6.392 17.737 -7.876 16.682 -8.921 C 15.219 -10.371 14.463 -8.545 13.63 -7.695 C 12.021 -6.054 10.154 -8.569 9.052 -7.699 C 4.568 -4.158 1.289 -6.701 -2.495 -9.072 C -4.479 -10.315 -6.754 -8.768 -7.896 -6.727 C -9.028 -4.703 -8.809 -2.543 -7.324 -.669 C -5.619 1.484 -3.754 1.696 0 0 " fill="#060707"/>
<path transform="matrix(1,0,0,-1,170.1469,79.51111)" d="M 0 0 C -2.717 10.511 -1.267 20.865 -1.221 32.215 C -4.631 28.591 -9.016 28.786 -11.741 25.532 C -13.121 23.884 -15.718 23.389 -17.688 24.848 C -20.228 26.73 -19.671 29.595 -19.06 32.186 C -18.52 34.474 -17.633 36.683 -14.848 37.173 C -13.249 37.454 -12.657 36.659 -12.974 35.214 C -13.106 34.614 -13.639 34.095 -14.014 33.557 C -15.152 31.92 -18.088 29.931 -15.467 28.331 C -12.835 26.724 -11.236 29.729 -10.144 32.027 C -9.374 33.646 -9.132 35.724 -6.453 33.569 C -4.817 32.252 -4.042 34.519 -3.166 35.554 C -2.409 36.448 -1.732 37.696 -.471 37.441 C 1.036 37.136 1.372 35.59 1.506 34.283 C 1.726 32.141 1.898 29.968 1.787 27.824 C 1.394 20.196 .762 12.579 1.76 4.945 C 1.973 3.318 1.968 1.618 0 0 " fill="#0c0c0e"/>
<path transform="matrix(1,0,0,-1,569.0392,114.17709)" d="M 0 0 C .015 -3.111 -.952 -5.852 -3.169 -8.112 C -4.946 -9.923 -6.98 -10.834 -9.454 -9.731 C -11.75 -8.706 -12.302 -6.642 -12.304 -4.36 C -12.305 -1.879 -11.601 .257 -9.124 1.342 C -8.243 1.727 -7.217 2.303 -6.343 1.509 C -5.291 .553 -6.159 -.252 -6.811 -.993 C -7.818 -2.138 -8.791 -3.292 -8.162 -4.981 C -7.903 -5.676 -7.365 -6.088 -6.636 -5.934 C -4.726 -5.527 -4.137 -3.891 -3.557 -2.342 C -2.635 .117 -3.115 2.533 -3.816 4.98 C -4.602 7.721 -5.701 9.112 -8.653 7.166 C -10.899 5.686 -13.578 4.818 -14.761 8.234 C -15.984 11.766 -14.119 14.588 -10.929 15.895 C -8.506 16.887 -6.265 16.971 -4.733 13.307 C -2.904 8.932 .155 5.083 0 0 " fill="#f5294e"/>
<path transform="matrix(1,0,0,-1,725.342,430.1572)" d="M 0 0 C -1.367 4.63 .254 8.837 .219 13.023 C .192 16.265 .628 19.615 .771 22.924 C .829 24.248 .871 26.132 2.368 26.15 C 4.268 26.172 3.569 24.202 3.638 22.997 C 3.706 21.838 3.522 20.664 3.596 19.507 C 3.686 18.102 3.098 15.955 5.083 15.805 C 7.211 15.645 6.803 17.83 6.866 19.21 C 6.98 21.697 6.9 24.193 6.94 26.685 C 6.962 28.06 6.124 30.223 8.232 30.287 C 10.139 30.345 9.859 28.067 10.005 26.687 C 10.214 24.712 10.153 22.703 10.129 20.709 C 10.102 18.462 9.287 16.045 12.502 15.001 C 13.721 14.604 14.132 12.667 12.594 12.54 C 8.756 12.224 9.65 9.318 9.081 7.186 C 8.825 6.226 8.831 5.195 8.562 4.24 C 8.129 2.703 7.963 .108 6.165 .444 C 3.68 .91 5.816 3.182 5.6 4.633 C 5.266 6.882 7.913 10.524 4.847 11.075 C 2.114 11.567 3.178 7.489 2.472 5.465 C 1.865 3.723 2.252 1.517 0 0 " fill="#2674ba"/>
<path transform="matrix(1,0,0,-1,624.67,254.52951)" d="M 0 0 C 2.445 11.349 -6.575 2.552 -9.257 6.219 C -4.735 8.669 3.451 7.536 1.32 16.585 C -1.549 16.301 -4.3 13.365 -7.368 15.69 C -7.18 17.042 -6.279 17.051 -5.499 17.112 C -.375 17.517 2.871 19.703 3.262 25.339 C 3.376 26.991 3.35 30.241 5.896 29.673 C 7.866 29.233 7.511 26.107 6.942 24.297 C 5.668 20.246 3.563 16.41 4.432 11.921 C 6.288 11.77 7.278 13.061 8.521 13.819 C 9.432 14.375 10.45 14.847 10.976 13.547 C 11.38 12.55 11.845 10.698 10.328 10.66 C 4.025 10.504 2.312 6.487 1.692 1.264 C 1.656 .963 1.011 .734 0 0 " fill="#14b03e"/>
<path transform="matrix(1,0,0,-1,546.5405,390.7196)" d="M 0 0 C .825 5.323 1.404 9.393 2.115 13.441 C 2.329 14.661 2.341 16.598 4.05 16.413 C 5.656 16.239 5.535 14.45 5.402 13.116 C 4.818 7.258 2.588 1.313 6.445 -4.299 C 6.62 -4.554 6.378 -5.314 6.094 -5.618 C 5.549 -6.201 4.675 -5.974 4.361 -5.472 C 2.191 -1.995 .356 -3.859 -1.812 -5.562 C -3.812 -7.133 -6.245 -8.427 -8.3 -5.607 C -9.91 -3.397 -8.111 1.166 -5.385 2.478 C -3.254 3.504 -1.649 2.49 0 0 " fill="#2674ba"/>
<path transform="matrix(1,0,0,-1,611.9544,236.2413)" d="M 0 0 C .299 -2.789 -1.27 -6.144 2.887 -6.975 C 2.513 -7.547 2.272 -8.065 2.178 -8.039 C -1.966 -6.906 -5.878 -6.441 -10.19 -8.276 C -11.953 -9.026 -13.455 -5.975 -13.871 -3.726 C -14.357 -1.096 -15.627 -1.539 -16.64 -3.209 C -17.946 -5.362 -19.049 -8.344 -21.96 -7.388 C -25.264 -6.304 -25.391 -2.831 -25.356 .242 C -25.342 1.468 -26.217 2.881 -24.607 3.965 C -22.896 3.525 -23.339 2.029 -23.131 .831 C -22.77 -1.249 -23.96 -4.918 -20.735 -4.602 C -17.971 -4.332 -19.523 -1.109 -19.75 .921 C -19.799 1.352 -19.56 1.816 -19.302 2.901 C -17.02 -.216 -15.51 .392 -14.062 3.28 C -13.525 4.35 -12.644 6.513 -10.866 5.617 C -9.302 4.829 -10.77 3.266 -10.978 2.049 C -11.006 1.886 -11.069 1.729 -11.103 1.566 C -11.612 -.87 -12.676 -3.87 -10.153 -5.303 C -7.402 -6.866 -5.268 -4.505 -3.404 -2.492 C -2.567 -1.587 -2.245 -.017 0 0 " fill="#14b03e"/>
<path transform="matrix(1,0,0,-1,124.1716,402.3664)" d="M 0 0 C -.044 -1.255 -1.022 -1.725 -1.905 -2.038 C -12.895 -5.933 -23.406 -10.818 -33.317 -16.979 C -34.318 -17.602 -35.604 -18.136 -36.351 -16.759 C -37.112 -15.355 -35.756 -14.662 -34.855 -14.059 C -25.007 -7.467 -14.672 -1.905 -2.975 .696 C -1.9 .935 -.674 1.529 0 0 " fill="#2674ba"/>
<path transform="matrix(1,0,0,-1,705.5066,471.1947)" d="M 0 0 C -3.589 -2.361 -6.503 -.809 -9.229 -.199 C -16.669 1.467 -24.022 3.519 -31.426 5.351 C -32.828 5.698 -34.166 6.181 -34.16 7.731 C -34.152 9.626 -32.395 9.629 -31.183 9.436 C -20.551 7.751 -10.374 4.587 0 0 " fill="#2674ba"/>
<path transform="matrix(1,0,0,-1,609.1618,208.4508)" d="M 0 0 C -2.072 2.824 -3.783 3.3 -5.919 1.82 C -6.818 1.196 -8.744 .629 -9.079 1.634 C -10.65 6.342 -12.762 3.805 -15.067 2.471 C -16.726 1.511 -18.884 .15 -20.477 2.036 C -22.184 4.057 -20.757 6.119 -19.207 7.708 C -17.665 9.289 -15.961 11.935 -13.547 9.618 C -11.689 7.836 -7.376 9.274 -7.526 4.896 C -7.545 4.32 -6.124 4.725 -5.366 5.055 C .013 7.395 .016 7.388 0 0 " fill="#14b03e"/>
<path transform="matrix(1,0,0,-1,485.9883,96.621799)" d="M 0 0 C -2.448 -4.037 -7.256 -.972 -7.976 -4.977 C -8.473 -7.742 -8.309 -10.62 -8.579 -13.435 C -8.679 -14.474 -8.22 -16.269 -9.757 -16.281 C -11.6 -16.296 -11.239 -14.416 -11.288 -13.177 C -11.348 -11.684 -11.216 -10.184 -11.153 -8.687 C -11.041 -6.002 -10.49 -2.996 -15.002 -4.254 C -15.833 -4.486 -16.716 -3.855 -16.933 -3.021 C -17.172 -2.102 -16.497 -1.322 -15.617 -1.243 C -10.415 -.778 -10.838 2.659 -11.49 6.301 C -11.72 7.585 -12.164 9.286 -10.392 9.633 C -8.366 10.031 -8.367 8.043 -8.495 6.913 C -9.156 1.053 -6.468 -1.248 0 0 " fill="#f5294e"/>
<path transform="matrix(1,0,0,-1,512.9752,246.9675)" d="M 0 0 C -1.859 -2.938 -4.584 -4.548 -7.966 -3.864 C -11.197 -3.21 -12.408 -.573 -12.162 2.587 C -11.848 6.611 -15.489 2.997 -16.477 5.323 C -11.413 6.43 -11.51 10.643 -11.164 14.63 C -11.121 15.126 -11.097 15.644 -10.932 16.105 C -10.118 18.383 -10.515 22.6 -7.071 21.682 C -3.838 20.821 -3.289 16.952 -4.234 13.594 C -4.737 11.802 -5.995 10.441 -7.293 9.115 C -8.201 8.189 -9.436 7.11 -9.562 5.99 C -9.83 3.616 -10.902 .742 -8.78 -1.103 C -6.746 -2.873 -4.412 -1.469 -2.281 -.464 C -1.587 -.137 -.71 -.198 .083 -.081 Z " fill="#14b03e"/>
<path transform="matrix(1,0,0,-1,178.4173,387.9343)" d="M 0 0 C -.587 -2.915 -2.516 -2.786 -4.006 -3.088 C -11.459 -4.6 -18.937 -5.992 -26.397 -7.473 C -27.967 -7.785 -29.8 -7.918 -30.219 -6.263 C -30.762 -4.12 -28.509 -4.261 -27.222 -3.956 C -18.395 -1.863 -9.527 -.017 0 0 " fill="#2674ba"/>
<path transform="matrix(1,0,0,-1,642.8647,454.65083)" d="M 0 0 C -10.332 -1.639 -19.872 1.083 -29.337 4.185 C -30.608 4.602 -31.899 5.327 -31.522 7.019 C -31.299 8.02 -30.304 8.079 -29.497 7.865 C -19.659 5.264 -9.831 2.627 0 0 " fill="#2674ba"/>
<path transform="matrix(1,0,0,-1,51.087,442.8129)" d="M 0 0 C .002 1.298 .004 2.596 .007 3.893 C 5.009 7.093 10.022 10.277 15.009 13.501 C 17.4 15.047 19.945 16.22 22.699 16.929 C 23.672 17.179 24.891 17.424 25.376 16.419 C 25.908 15.315 24.829 14.542 23.96 14.144 C 15.479 10.261 8.398 4.014 0 0 " fill="#2674ba"/>
<path transform="matrix(1,0,0,-1,606.706,420.61329)" d="M 0 0 C -2.726 -1.014 -2.825 -3.797 -4.361 -5.445 C -5.011 -6.143 -5.423 -7.406 -6.6 -6.775 C -7.193 -6.457 -7.693 -5.45 -7.737 -4.725 C -7.867 -2.572 -7.884 -.391 -7.685 1.754 C -7.534 3.39 -9.09 5.99 -6.642 6.429 C -4.874 6.746 -5.173 3.848 -4.166 2.519 C -2.134 2.844 -.635 6.362 1.871 3.883 C 4.503 1.278 4.119 -2.218 4.081 -5.533 C 4.077 -5.901 3.463 -6.608 3.278 -6.562 C 2.708 -6.423 1.903 -6.109 1.734 -5.658 C 1.055 -3.849 .581 -1.963 0 0 " fill="#2674ba"/>
<path transform="matrix(1,0,0,-1,671.2587,541.76956)" d="M 0 0 C -2.81 1.462 -5.061 2.52 -7.185 3.79 C -8.109 4.343 -9.381 5.201 -8.685 6.539 C -7.954 7.945 -6.662 7.404 -5.689 6.696 C -3.078 4.795 .072 4.135 2.916 2.788 C 5.14 1.735 6.207 -.253 3.686 -1.707 C -1.703 -4.815 -7.603 -6.806 -14.689 -9.138 C -10.901 -3.026 -5.093 -2.797 0 0 " fill="#0c0d0d"/>
<path transform="matrix(1,0,0,-1,550.9661,424.3249)" d="M 0 0 C -1.874 2.2 -4.081 4.122 -2.692 7.139 C -1.781 9.117 .113 9.867 2.17 10.168 C 3.61 10.38 5.077 10.046 5.475 8.611 C 6.032 6.605 4.067 7.331 3.186 7.021 C -1.887 5.234 .982 3.769 3.285 2.112 C 5.195 .737 7.395 -.938 5.91 -3.563 C 4.577 -5.919 1.926 -5.458 -.38 -5.011 C -1.939 -4.71 -3.41 -3.888 -3.541 -2.245 C -3.739 .239 -1.111 -1.377 0 0 " fill="#2674ba"/>
<path transform="matrix(1,0,0,-1,396.6557,404.9219)" d="M 0 0 C -10.02 -1.172 -19.154 .754 -28.163 3.616 C -29.454 4.026 -30.71 4.877 -30.268 6.489 C -30.026 7.371 -28.92 7.238 -28.112 7.064 C -19.215 5.148 -10.319 3.224 -1.432 1.261 C -1.046 1.175 -.751 .679 0 0 " fill="#2674ba"/>
<path transform="matrix(1,0,0,-1,549.1862,210.6677)" d="M 0 0 C -.474 -.48 -.947 -.96 -1.421 -1.44 C -3.973 .06 -4.652 -3.027 -6.42 -3.513 C -7.502 -3.811 -8.539 -4.827 -9.626 -3.935 C -10.627 -3.115 -10.487 -1.808 -10.168 -.684 C -9.517 1.612 -8.338 4.062 -6.267 4.847 C -1.936 6.49 -1.15 9.922 -.506 13.706 C -.377 14.465 -.3 15.377 1.481 15.718 C 2.036 10.306 -.78 5.24 0 0 " fill="#14b03e"/>
<path transform="matrix(1,0,0,-1,575.6174,370.8302)" d="M 0 0 C 4.993 -8.286 3.516 -17.054 2.572 -27.074 C -.72 -23.351 1.074 -20.149 .557 -17.322 C .214 -15.442 1.328 -12.672 -2.688 -13.584 C -4.663 -14.032 -5.289 -11.238 -4.107 -10.718 C .708 -8.602 -1.124 -4.917 -1.305 -1.544 C -1.345 -.808 -.914 -.323 0 0 " fill="#2674ba"/>
<path transform="matrix(1,0,0,-1,506.6514,107.62399)" d="M 0 0 C -.681 -1.741 -2.198 -2.547 -3.534 -1.653 C -5.683 -.214 -7.098 -1.03 -8.842 -2.202 C -10.172 -3.097 -11.714 -3.165 -12.738 -1.538 C -14.136 .683 -13.07 2.654 -11.86 4.458 C -10.463 6.54 -8.831 8.76 -5.919 8.031 C -4.036 7.56 -2.026 6.438 -2.473 3.891 C -2.853 1.724 -.806 1.312 0 0 " fill="#f5294e"/>
<path transform="matrix(1,0,0,-1,683.5437,423.3073)" d="M 0 0 C -2.169 -3.044 -5.031 -3.427 -7.739 -1.712 C -10.703 .167 -11.629 3.517 -10.889 6.834 C -10.485 8.649 -9.007 10.278 -7.828 11.852 C -6.707 13.348 -4.935 14.954 -3.261 13.643 C -1.536 12.293 -2.328 9.917 -3.42 8.238 C -7.415 2.091 -7.465 2.123 0 0 " fill="#2674ba"/>
<path transform="matrix(1,0,0,-1,511.7119,214.78)" d="M 0 0 C -1.599 -1.148 -2.941 -.689 -3.663 -.022 C -5.611 1.777 -7.232 1.61 -9.225 .085 C -10.351 -.777 -11.907 -1.62 -13.179 .021 C -14.237 1.384 -13.934 2.895 -13.039 4.185 C -12.008 5.669 -10.927 7.178 -9.6 8.381 C -8.223 9.629 -6.799 11.539 -4.493 9.988 C -2.544 8.677 -2.176 6.906 -3.194 4.801 C -4.687 1.71 -1.207 1.716 0 0 " fill="#14b03e"/>
<path transform="matrix(1,0,0,-1,212.9825,381.49183)" d="M 0 0 C 10.556 -1.471 20.173 -2.811 30.969 -4.316 C 23.923 -8.068 4.775 -5.358 0 0 " fill="#2674ba"/>
<path transform="matrix(1,0,0,-1,316.7786,393.6198)" d="M 0 0 C -10.489 .527 -19.855 .217 -28.867 3.347 C -30.098 3.775 -31.64 4.607 -31.154 6.13 C -30.69 7.583 -29.196 6.759 -28.142 6.493 C -20.562 4.58 -12.829 3.584 -5.096 2.59 C -3.621 2.4 -2.119 2.333 0 0 " fill="#2674ba"/>
<path transform="matrix(1,0,0,-1,142.3771,50.18268)" d="M 0 0 C -.874 -2.551 .179 -3.764 2.209 -4.438 C 2.941 -4.681 4.026 -4.751 3.655 -5.892 C 3.497 -6.378 2.616 -7.068 2.234 -6.974 C -1.152 -6.136 -4.797 -5.668 -7.749 -4 C -9.516 -3.001 -9.039 -.04 -7.591 1.849 C -6.177 3.694 -4.317 6.195 -2.164 5.59 C -.061 4.999 .223 2.057 0 0 " fill="#06070a"/>
<path transform="matrix(1,0,0,-1,564.4645,426.5499)" d="M 0 0 C -1.371 2.121 -.821 3.956 -.767 5.743 C -.71 7.604 .221 9.63 -3.438 9.284 C -5.49 9.09 -5.971 11.878 -4.092 12.705 C -.417 14.322 -1.143 16.374 -2.471 19.002 C -2.896 19.844 -3.21 21.224 -2.232 21.732 C -.862 22.444 -.274 21.019 .361 20.101 C 3.85 15.054 3.796 7.098 0 0 " fill="#2674ba"/>
<path transform="matrix(1,0,0,-1,593.2754,420.3683)" d="M 0 0 C -.063 -3.528 -1.505 -6.265 -5.306 -6.492 C -8.43 -6.68 -8.836 -3.923 -8.931 -1.579 C -9.054 1.438 -5.051 6.711 -3.052 6.152 C -.037 5.31 -.177 2.524 0 0 " fill="#2674ba"/>
<path transform="matrix(1,0,0,-1,565.5729,393.9834)" d="M 0 0 C -1.714 .767 -3.117 -.413 -4.665 -.891 C -6.004 -1.305 -7.327 -1.305 -8.254 -.034 C -9.116 1.149 -9.108 2.5 -8.486 3.748 C -7.244 6.24 -5.26 8.121 -2.55 8.657 C .41 9.241 -.215 6.029 .977 4.696 C 1.303 4.332 1.533 3.884 1.809 3.475 C 2.593 2.314 5.619 3.692 4.904 1.397 C 4.301 -.536 1.918 -.251 0 0 " fill="#2674ba"/>
<path transform="matrix(1,0,0,-1,526.8369,108.05289)" d="M 0 0 C -3.255 1.161 -1.299 4.239 -2.788 6.27 C -5.188 5.439 -5.722 2.93 -7.204 1.356 C -7.956 .558 -8.533 -.793 -9.964 -.137 C -11.312 .482 -10.979 1.8 -10.829 2.929 C -10.545 5.06 -10.248 7.192 -9.842 9.302 C -9.733 9.868 -9.212 10.356 -8.879 10.88 C -6.44 7.876 -2.245 12.122 -.025 8.846 C 1.895 6.013 1.406 2.989 0 0 " fill="#f5294e"/>
<path transform="matrix(1,0,0,-1,749.2545,425.0416)" d="M 0 0 C 2.856 1.008 2.833 5.805 5.6 4.567 C 8.324 3.349 6.372 -.241 6.421 -2.761 C 6.468 -5.2 5.804 -7.183 3.439 -3.873 C 2.218 -2.165 1.438 -3.769 .686 -4.35 C -2.656 -6.93 -3.64 -5.448 -3.571 -1.987 C -3.562 -1.488 -3.626 -.97 -3.512 -.496 C -3.115 1.159 -4.49 3.956 -2.35 4.271 C -.087 4.604 -1.097 1.369 0 0 " fill="#2674ba"/>
<path transform="matrix(1,0,0,-1,475.3647,420.8282)" d="M 0 0 C -7.928 -1.335 -15.305 .174 -22.222 4.083 C -23.088 4.572 -23.838 5.479 -23.258 6.546 C -23.058 6.914 -21.981 7.159 -21.505 6.967 C -14.513 4.138 -7.22 2.253 0 0 " fill="#2674ba"/>
<path transform="matrix(1,0,0,-1,116.9554,47.16809)" d="M 0 0 C -.553 1.058 -1.411 2.137 -2.72 1.387 C -3.848 .74 -3.288 -.344 -2.655 -1.16 C -1.526 -2.618 -1.066 -4.157 -2.452 -5.623 C -3.254 -6.472 -4.403 -6.907 -5.638 -6.432 C -7.699 -5.639 -8.014 -3.965 -8.009 -1.994 C -8.006 -.897 -6.91 1.175 -9.048 1.037 C -10.827 .923 -10.362 -1.294 -10.723 -2.627 C -10.531 -5.597 -9.886 -8.428 -6.921 -9.675 C -4.581 -10.659 -2.374 -9.861 -.702 -7.861 C 1.355 -5.4 1.435 -2.747 0 0 " fill="#1a1a1f"/>
<path transform="matrix(1,0,0,-1,696.3125,411.5419)" d="M 0 0 C -5.85 -1.839 -6.109 -6.71 -6.982 -11.27 C -7.189 -12.35 -7.28 -13.986 -8.734 -13.911 C -10.003 -13.845 -10.282 -12.391 -10.431 -11.207 C -10.556 -10.216 -10.657 -9.222 -10.811 -8.236 C -11.702 -2.521 -6.868 1.693 0 0 " fill="#2674ba"/>
<path transform="matrix(1,0,0,-1,124.6039,60.05139)" d="M 0 0 C -2.826 4.383 -2.231 8.834 -4.021 12.512 C -4.308 13.102 -4.08 13.993 -3.325 14.129 C -1.259 14.5 -1.842 11.761 -.22 11.395 C .059 11.712 .363 12.065 .675 12.41 C 2.201 14.095 4.204 17.212 6.033 15.673 C 8.299 13.767 4.49 12.504 3.512 10.901 C 1.646 7.845 1.663 4.231 0 0 " fill="#0f0f14"/>
<path transform="matrix(1,0,0,-1,549.3252,107.520999)" d="M 0 0 C .428 -1.259 -.418 -2.51 -1.188 -2.018 C -3.167 -.752 -5.124 -.401 -7.402 -.133 C -8.764 .026 -8.208 2.466 -8.167 3.894 C -8.125 5.396 -9.875 7.838 -6.544 7.934 C -1.49 8.079 -.34 6.609 0 0 " fill="#f5294e"/>
<path transform="matrix(1,0,0,-1,549.1344,438.26289)" d="M 0 0 C -7.163 -.491 -13.844 1.838 -20.526 4.087 C -21.262 4.334 -22.097 5.022 -21.832 5.938 C -21.468 7.192 -20.341 7.035 -19.356 6.768 C -12.839 5.008 -6.327 3.225 .186 1.449 C .124 .966 .062 .483 0 0 " fill="#2674ba"/>
<path transform="matrix(1,0,0,-1,491.2369,387.69563)" d="M 0 0 C 2.616 -1.535 2.564 -5.068 4.667 -7.173 C 6.707 -5.559 6.176 -2.168 9.457 -1.452 C 9.853 -5.513 8.018 -8.824 6.467 -12.111 C 5.558 -14.036 4.23 -13.022 3.592 -11.695 C 1.845 -8.065 .248 -4.362 -1.408 -.688 C -.939 -.458 -.469 -.229 0 0 " fill="#2674ba"/>
<path transform="matrix(1,0,0,-1,90.1946,56.366029)" d="M 0 0 C -2.882 -2.959 -5.69 -3.393 -8.888 -2.068 C -11.324 -1.059 -11.59 1.155 -11.607 3.298 C -11.63 6.168 -10.225 8.317 -7.595 9.587 C -6.84 9.951 -6.057 10.249 -5.296 9.627 C -4.321 8.831 -5.021 8.2 -5.552 7.583 C -6.969 5.938 -9.914 4.619 -8.336 2.033 C -6.89 -.337 -3.933 .417 -1.477 .577 C -1.189 .596 -.885 .357 0 0 " fill="#0f1014"/>
<path transform="matrix(1,0,0,-1,662.7596,417.298)" d="M 0 0 C .205 -.427 .391 -.864 .618 -1.278 C 1.353 -2.614 .294 -5.702 3.161 -4.902 C 5.705 -4.193 5.329 -1.702 4.892 .563 C 4.53 2.44 1.668 5.253 4.24 5.952 C 6.628 6.601 6.314 2.568 7.049 .578 C 7.548 -.776 7.524 -2.398 6.712 -3.753 C 5.336 -6.049 4.306 -9.796 .789 -8.055 C -2.616 -6.37 -2.286 -2.935 -1.286 .072 C -.858 .048 -.429 .024 0 0 " fill="#2674ba"/>
<path transform="matrix(1,0,0,-1,489.4981,217.9288)" d="M 0 0 C -2.349 4.88 -4.534 8.638 -7.882 12.627 C -4.266 11.562 -4.266 11.562 -.646 6.737 C 1.322 8.485 1.471 11.145 2.735 13.163 C 3.226 13.945 3.448 15.314 4.78 14.63 C 5.569 14.224 5.511 13.181 5.178 12.374 C 3.618 8.592 2.024 4.825 0 0 " fill="#14b03e"/>
<path transform="matrix(1,0,0,-1,102.8076,54.03412)" d="M 0 0 C -1.963 -3.234 -4.553 -4.633 -7.627 -3.249 C -10.021 -2.172 -10.653 .325 -10.1 2.74 C -9.198 6.682 -6.302 8.547 -2.087 9.792 C -2.407 7.177 -4.329 6.813 -5.281 5.666 C -6.431 4.282 -8.2 2.906 -7.253 .956 C -6.304 -.999 -4.165 -.586 -2.339 -.371 C -1.556 -.279 -.779 -.126 0 0 " fill="#1b1b20"/>
<path transform="matrix(1,0,0,-1,659.5986,567.7943)" d="M 0 0 C 3.029 2.592 5.335 1.426 7.467 -.303 C 8.784 -1.372 9.833 -2.892 9.139 -4.649 C 8.085 -7.318 5.473 -7.783 3.025 -8.251 C 1.563 -8.53 .355 -7.976 -.013 -6.412 C -.301 -5.188 .164 -4.038 1.19 -3.375 C 3.344 -1.983 2.916 -3.878 3.35 -5.028 C 3.859 -6.378 5.049 -5.701 5.828 -5.222 C 7.095 -4.443 6.27 -3.631 5.718 -2.781 C 4.5 -.907 2.113 -1.522 0 0 " fill="#202121"/>
<path transform="matrix(1,0,0,-1,669.9336,238.8135)" d="M 0 0 C -.428 -1.081 1.648 -2.18 -.005 -3.063 C -1.075 -3.633 -1.893 -2.693 -2.39 -1.831 C -3.327 -.205 -4.118 -.944 -5.066 -1.8 C -5.866 -2.523 -6.671 -3.858 -7.949 -2.689 C -9.206 -1.538 -8.84 .107 -8.63 1.546 C -8.36 3.397 -7.24 2.887 -6.082 2.294 C -5.766 2.133 -5.049 2.288 -4.788 2.559 C .11 7.661 -.355 3.12 0 0 " fill="#14b03e"/>
<path transform="matrix(1,0,0,-1,578.5601,412.0451)" d="M 0 0 C 2.211 -.356 2.036 -1.902 1.065 -2.85 C -1.658 -5.509 -3.488 -8.479 -3.982 -12.317 C -4.121 -13.395 -5.305 -14.929 -6.216 -13.097 C -7.557 -10.398 -6.48 -7.518 -5.322 -4.934 C -4.272 -2.592 -2.396 -.933 0 0 " fill="#2674ba"/>
<path transform="matrix(1,0,0,-1,205.6244,209.60709)" d="M 0 0 C 3.923 5.206 9.407 7.374 14.989 10.473 C 13.251 5.575 5.632 .369 0 0 " fill="#f5294e"/>
<path transform="matrix(1,0,0,-1,512.4186,397.2229)" d="M 0 0 C -2.419 .521 -4.829 1.907 -7.256 -.05 C -7.917 -.584 -9.347 .499 -9.366 1.51 C -9.421 4.424 -7.18 5.865 -5.007 7.037 C -2.782 8.237 -1.964 6.514 -1.744 4.743 C -1.537 3.088 .453 2.232 0 0 " fill="#2674ba"/>
<path transform="matrix(1,0,0,-1,488.7994,100.09839)" d="M 0 0 C 1.054 -.07 2.07 -.436 2.341 -1.481 C 2.596 -2.464 1.654 -2.713 .873 -3.075 C -1.722 -4.278 -2.237 -6.73 -2.582 -9.237 C -2.714 -10.193 -2.587 -11.497 -3.884 -11.528 C -5.363 -11.562 -5.499 -10.167 -5.707 -9.043 C -6.472 -4.901 -3.283 .143 0 0 " fill="#f5294e"/>
<path transform="matrix(1,0,0,-1,53.9589,192.97119)" d="M 0 0 C -1.494 14.313 -1.616 28.627 -.017 42.941 C .596 28.628 .639 14.314 0 0 " fill="#08080d"/>
<path transform="matrix(1,0,0,-1,535.8168,135.01761)" d="M 0 0 C -1.971 .369 -5.223 -1.089 -5.08 1.982 C -4.957 4.601 -1.73 4.11 .248 3.737 C 2.343 3.343 6.277 3.999 6.092 1.794 C 5.835 -1.283 2.065 .647 0 0 " fill="#f5294e"/>
<path transform="matrix(1,0,0,-1,189.0909,221.5716)" d="M 0 0 C 2.528 4.652 7.194 6.181 11.331 8.682 C 10.71 4.539 5.529 .598 0 0 " fill="#f5294e"/>
<path transform="matrix(1,0,0,-1,478.013,134.86899)" d="M 0 0 C 1.615 -.769 4.625 .845 4.683 -1.299 C 4.748 -3.686 1.651 -3.255 -.145 -3.22 C -2.188 -3.179 -5.861 -5.232 -5.973 -2.172 C -6.096 1.19 -2.112 -.653 0 0 " fill="#f5294e"/>
<path transform="matrix(1,0,0,-1,336.0679,156.6936)" d="M 0 0 C -3.597 -3.51 -7.472 -3.928 -11.263 -4.481 C -11.804 -4.56 -12.614 -4.388 -12.74 -3.508 C -12.859 -2.682 -12.282 -2.232 -11.689 -2.04 C -8.182 -.904 -4.695 .427 0 0 " fill="#f5294e"/>
<path transform="matrix(1,0,0,-1,500.2881,137.01459)" d="M 0 0 C -1.671 -.149 -3.276 -.054 -2.978 1.766 C -2.652 3.756 -.649 3.986 .978 3.888 C 2.997 3.766 6.767 3.708 6.474 2.275 C 5.831 -.865 1.939 1.194 0 0 " fill="#f5294e"/>
<path transform="matrix(1,0,0,-1,184.449,225.40149)" d="M 0 0 C -1.638 -4.545 -4.716 -6.642 -6.964 -9.362 C -7.441 -9.938 -8.396 -10.391 -9.143 -9.728 C -9.886 -9.069 -9.54 -8.164 -9.075 -7.49 C -6.98 -4.456 -4.139 -2.287 0 0 " fill="#f5294e"/>
<path transform="matrix(1,0,0,-1,354.089,153.729)" d="M 0 0 C -1.41 .143 -3.406 .301 -2.75 1.462 C -1.099 4.383 2.476 3.579 5.206 4.452 C 6.051 4.723 7.868 4.615 7.385 3.518 C 5.964 .292 2.175 1.464 0 0 " fill="#f5294e"/>
<path transform="matrix(1,0,0,-1,532.9645,102.0939)" d="M 0 0 C .15 1.639 -1.233 4.032 1.342 4.123 C 3.453 4.197 3.408 1.839 3.276 .218 C 3.111 -1.791 4.042 -5.402 2.089 -5.423 C -1.124 -5.458 .725 -1.794 0 0 " fill="#f5294e"/>
<path transform="matrix(1,0,0,-1,397.0119,142.76569)" d="M 0 0 C -3.185 -2.609 -6.278 -2.558 -9.08 -3.3 C -9.829 -3.499 -10.836 -3.32 -11.095 -2.34 C -11.434 -1.055 -10.383 -.508 -9.47 -.273 C -6.673 .451 -3.843 1.323 0 0 " fill="#f5294e"/>
<path transform="matrix(1,0,0,-1,420.4749,138.9154)" d="M 0 0 C 1.699 -.431 4.045 .586 4.205 -1.148 C 4.408 -3.352 1.904 -2.996 .419 -3.088 C -1.553 -3.212 -4.992 -4.69 -5.163 -2.286 C -5.383 .81 -1.617 -.776 0 0 " fill="#f5294e"/>
<path transform="matrix(1,0,0,-1,446.211,136.3002)" d="M 0 0 C 1.607 -.734 4.905 .352 4.468 -1.561 C 3.869 -4.189 .297 -2.994 -1.954 -3.579 C -3.16 -3.892 -4.9 -3.31 -4.738 -2.292 C -4.309 .417 -1.701 -.558 0 0 " fill="#f5294e"/>
<path transform="matrix(1,0,0,-1,742.0369,426.7693)" d="M 0 0 C -.476 -1.525 .943 -4.316 -1.194 -4.175 C -3.907 -3.995 -3.095 -.865 -3.224 1.102 C -3.322 2.606 -3.814 5.365 -1.833 5.177 C 1.271 4.881 -.752 1.701 0 0 " fill="#2674ba"/>
<path transform="matrix(1,0,0,-1,586.5417,383.364)" d="M 0 0 C .395 -3.027 .814 -6.051 1.164 -9.083 C 1.239 -9.728 1.052 -10.395 .222 -10.558 C -.614 -10.722 -1.094 -10.075 -1.228 -9.541 C -2.048 -6.276 -2.845 -2.977 -1.334 .191 C -.889 .127 -.445 .064 0 0 " fill="#2674ba"/>
<path transform="matrix(1,0,0,-1,716.14,424.0871)" d="M 0 0 C -.633 -1.56 .855 -4.722 -1.705 -4.785 C -3.789 -4.835 -3.088 -1.836 -3.031 -.146 C -2.976 1.466 -3.578 4.14 -.976 3.948 C .863 3.812 -.113 1.527 0 0 " fill="#2674ba"/>
<path transform="matrix(1,0,0,-1,308.7315,164.2266)" d="M 0 0 C -2.87 -2.721 -5.856 -3.033 -8.612 -3.775 C -9.401 -3.987 -10.324 -3.628 -10.541 -2.654 C -10.762 -1.656 -10.008 -1.073 -9.217 -.897 C -6.524 -.299 -3.909 1.017 0 0 " fill="#f5294e"/>
<path transform="matrix(1,0,0,-1,580.9169,197.68012)" d="M 0 0 C 2.468 -3.202 2.003 -6.877 1.917 -10.506 C -.804 -7.411 -.766 -3.778 0 0 " fill="#14b03e"/>
<path transform="matrix(1,0,0,-1,528.6879,206.10211)" d="M 0 0 C 2.199 -3.339 .915 -8.053 5.903 -9.909 C .734 -10.432 -1.282 -6.586 0 0 " fill="#14b03e"/>
<path transform="matrix(1,0,0,-1,510.7729,102.8613)" d="M 0 0 C -.778 -1.208 .787 -3.895 -1.845 -4.095 C -3.302 -4.205 -3.568 -2.294 -3.498 -.981 C -3.412 .635 -3.359 2.699 -1.293 2.871 C .105 2.987 .09 1.364 0 0 " fill="#f5294e"/>
<path transform="matrix(1,0,0,-1,628.0892,125.92059)" d="M 0 0 C 1.507 -.107 3.469 .107 3.4 -1.483 C 3.302 -3.759 .983 -3.872 -.787 -4.019 C -2.287 -4.144 -3.51 -3.252 -3.318 -1.7 C -3.061 .369 -1.171 -.158 0 0 " fill="#f5294e"/>
<path transform="matrix(1,0,0,-1,656.6689,244.7197)" d="M 0 0 C -2.908 2.571 -2.932 5.376 -1.146 8.805 C 1.347 5.805 -.359 2.758 0 0 " fill="#14b03e"/>
<path transform="matrix(1,0,0,-1,513.0581,247.04901)" d="M 0 0 C -.135 2.768 -.939 5.547 .153 8.582 C 3.813 6.441 -.503 1.203 4.41 .208 C 2.312 -2.067 1.305 .679 -.083 .081 C -.083 .081 0 0 0 0 " fill="#14b03e"/>
<path transform="matrix(1,0,0,-1,532.6798,397.1577)" d="M 0 0 C -3.345 2.367 -2.965 4.838 -2.071 7.358 C -1.985 7.598 -1.055 7.853 -.923 7.714 C 1.151 5.533 .167 3.021 0 0 " fill="#2674ba"/>
<path transform="matrix(1,0,0,-1,85.7342,336.585)" d="M 0 0 C -.718 -4.577 -2.79 -6.353 -6.016 -8.757 C -5.086 -4.572 -3.152 -2.607 0 0 " fill="#f5294e"/>
<path transform="matrix(1,0,0,-1,606.6529,128.483)" d="M 0 0 C -.176 -1.464 -1.214 -1.993 -2.384 -2.206 C -3.787 -2.462 -5.172 -2.178 -5.397 -.524 C -5.56 .677 -4.424 1.079 -3.422 1.22 C -2.08 1.408 -.782 1.313 0 0 " fill="#f5294e"/>
<path transform="matrix(1,0,0,-1,619.3068,391.1224)" d="M 0 0 C -.221 1.638 -.301 3.294 -.446 4.942 C -.537 5.973 -.817 7.075 -1.759 7.482 C -2.838 7.948 -3.559 6.962 -4.239 6.239 C -4.923 5.512 -5.576 4.756 -6.27 4.039 C -8.016 2.235 -9.495 1.381 -9.913 4.974 C -10.102 6.601 -10.07 8.764 -11.844 9.262 C -14.015 9.872 -14.745 7.526 -15.882 6.192 C -16.421 5.56 -16.903 4.882 -17.411 4.224 C -17.844 3.555 -18.173 2.778 -18.732 2.24 C -19.902 1.114 -21.143 -1.588 -22.716 .028 C -24.191 1.543 -21.564 2.44 -20.309 3.218 C -19.123 3.954 -19.168 5.065 -19.145 6.198 L -19.145 6.199 C -22.408 8.203 -24.189 5.91 -25.506 3.629 C -26.863 1.278 -27.617 -1.816 -25.176 -3.7 C -22.513 -5.754 -20.69 -3.061 -19.039 -1.285 C -17.276 .61 -16.034 3.028 -13.51 4.224 C -11.162 -4.054 -11.162 -4.054 -3.819 .622 C -3.643 .156 -3.503 -.316 -3.293 -.754 C -2.526 -2.345 -1.919 -4.92 .203 -4.133 C 2.702 -3.207 .192 -1.428 0 0 " fill="#2674ba"/>
<path transform="matrix(1,0,0,-1,660.7914,231.2067)" d="M 0 0 C -1.222 2.428 -2.274 4.062 -.983 5.99 C -.837 6.208 .103 6.245 .288 6.031 C 1.728 4.366 1.53 2.632 0 0 " fill="#14b03e"/>
<path transform="matrix(1,0,0,-1,648.4043,236.30951)" d="M 0 0 C 2.039 -2.536 -.813 -5.655 1.605 -7.753 C 4.376 .847 4.991 9.661 4.449 18.637 C 2.001 14.39 3.098 9.338 .464 3.756 C .744 7.942 .986 10.742 1.094 13.547 C 1.145 14.881 2.239 17.037 .032 17.181 C -1.518 17.283 -1.039 15.143 -1.303 13.909 C -2.332 9.109 -.449 3.319 -5.968 -.005 C -6.181 -.133 -6.039 -1.301 -6.02 -1.302 C -1.821 -1.562 -3.68 -4.805 -3.349 -6.859 C -3.052 -8.698 -2.083 -8.982 -.554 -8.613 C -.915 -5.799 -1.701 -2.949 0 0 " fill="#14b03e"/>
<path transform="matrix(1,0,0,-1,139.979,267.2862)" d="M 0 0 C -.367 -3.216 -1.786 -4.871 -4.6 -6.263 C -4.601 -2.871 -3.015 -1.334 0 0 " fill="#f5294e"/>
<path transform="matrix(1,0,0,-1,73.5654,354.38099)" d="M 0 0 C .269 -2.554 -.164 -4.358 -2.007 -5.57 C -2.143 -5.659 -3.034 -5.083 -3.029 -4.828 C -2.988 -2.927 -2.203 -1.384 0 0 " fill="#f5294e"/>
<path transform="matrix(1,0,0,-1,93.0682,326.3376)" d="M 0 0 C .219 2.648 1.533 4.234 3.542 5.626 C 3.733 1.872 3.733 1.872 0 0 " fill="#f5294e"/>
<path transform="matrix(1,0,0,-1,640.3484,230.72629)" d="M 0 0 C -1.972 1.762 -3.025 3.087 -2.605 5.022 C -2.471 5.641 -1.595 6.113 -1.037 5.627 C .44 4.339 .455 2.607 0 0 " fill="#14b03e"/>
<path transform="matrix(1,0,0,-1,581.1231,131.03601)" d="M 0 0 C -.191 -1.403 -1.305 -1.807 -2.409 -1.993 C -3.662 -2.203 -4.89 -1.617 -4.816 -.299 C -4.741 1.038 -3.347 1.252 -2.177 1.283 C -1.22 1.308 -.158 1.395 0 0 " fill="#f5294e"/>
<path transform="matrix(1,0,0,-1,113.4856,299.686)" d="M 0 0 C .838 -2.891 -.123 -4.273 -1.656 -5.317 C -2.295 -5.752 -3.026 -5.277 -3.098 -4.593 C -3.32 -2.488 -1.701 -1.63 0 0 " fill="#f5294e"/>
<path transform="matrix(1,0,0,-1,540.4594,90.73181)" d="M 0 0 C -.256 -1.08 -.446 -1.974 -1.42 -1.985 C -2.784 -2.001 -3.394 -.931 -3.472 .196 C -3.531 1.053 -2.672 1.575 -1.829 1.568 C -.694 1.558 -.279 .692 0 0 " fill="#f5294e"/>
<path transform="matrix(1,0,0,-1,630.3759,383.2563)" d="M 0 0 C 1.025 -.38 1.459 -1.261 1.383 -2.273 C 1.323 -3.09 .854 -3.884 -.191 -3.595 C -1.076 -3.351 -1.398 -2.587 -1.386 -1.706 C -1.373 -.804 -1.004 -.158 0 0 " fill="#2674ba"/>
<path transform="matrix(1,0,0,-1,557.8679,134.20542)" d="M 0 0 C -1.488 -.132 -2.335 .517 -2.452 1.56 C -2.546 2.399 -1.767 3.004 -.825 3.081 C .217 3.167 1.326 3.08 1.536 1.857 C 1.751 .614 .603 .328 0 0 " fill="#f5294e"/>
<path transform="matrix(1,0,0,-1,630.2615,395.0382)" d="M 0 0 C -1.191 .356 -1.353 1.296 -1.262 2.32 C -1.184 3.188 -.738 4.057 .137 4.059 C 1.282 4.06 1.777 3.146 1.669 2.037 C 1.57 1.021 1.203 .151 0 0 " fill="#2674ba"/>
<path transform="matrix(1,0,0,-1,61.2924,375.2879)" d="M 0 0 C -.932 2.431 .267 3.712 2.201 5.275 C 2.524 2.793 2.417 1.067 0 0 " fill="#f5294e"/>
<path transform="matrix(1,0,0,-1,39.9483,38.95697)" d="M 0 0 C 3.487 3.966 6.046 8.103 9.02 13.703 C 10.534 8.918 11.785 5.372 12.759 1.75 C 13.503 -1.013 12.168 -2.211 9.615 -.91 C 6.648 .602 3.655 .258 0 0 M 12.822 -5.085 C 15.529 -5.461 15.655 -3.441 15.425 -1.455 C 14.495 6.548 10.657 13.757 9.107 21.594 C 8.98 22.234 8.626 22.883 7.825 22.861 C 6.646 22.829 6.546 21.8 6.663 21.076 C 7.725 14.53 4.338 9.561 .975 4.553 C -2.196 -.169 -1.885 -1.257 3.787 -3.419 C 5.837 -4.2 7.319 -4.84 7.308 -7.411 C 7.253 -20.251 9.221 -32.949 10.215 -45.715 C 11.779 -65.806 10.054 -85.985 12.111 -106.048 C 13.64 -106.943 12.436 -109.135 13.993 -110.017 C 13.794 -88.229 14.143 -66.425 12.66 -44.671 C 11.856 -32.891 10.544 -21.146 9.5 -9.382 C 9.289 -7.015 8.926 -4.544 12.822 -5.085 " fill="#08080d"/>
<path transform="matrix(1,0,0,-1,546.7528,224.0216)" d="M 0 0 C 1.959 -5.07 1.059 -8.035 -2.763 -9.508 C -4.53 -10.189 -4.739 -9.14 -4.92 -7.888 C -3.547 -5.092 -3.817 -1.271 0 0 M 5.643 -15.487 C 6.159 -14.204 6.415 -12.189 4.339 -11.889 C 2.665 -11.647 1.613 -13.197 1.276 -14.66 C .753 -16.927 -.144 -18.72 -2.685 -17.601 C -4.971 -16.595 -6.469 -14.76 -4.697 -12.033 C -4.695 -12.036 -4.694 -12.04 -4.692 -12.044 C 3.02 -9.294 4.807 -5.348 1.207 .984 C 1.183 .959 1.159 .935 1.135 .911 C 1.11 .969 1.089 1.024 1.053 1.085 C -.406 3.954 -2.038 2.979 -3.501 1.175 C -5.76 -1.61 -6.831 -4.96 -7.476 -8.417 C -7.88 -10.582 -8.493 -12.381 -11.121 -12.206 C -13.879 -12.022 -12.55 -9.74 -12.936 -8.361 C -13.95 -4.737 -12.893 -.587 -15.914 2.61 C -16.086 -1.273 -15.668 -5.081 -15.322 -8.896 C -15.149 -10.804 -14.34 -13.059 -17.597 -13.303 C -21.166 -13.57 -19.963 -11.166 -20.015 -9.317 C -20.118 -5.729 -18.966 -1.943 -21.608 1.317 C -22.184 -7.467 -24.074 -16.308 -20.181 -25.984 C -19.104 -22.987 -19.763 -21.2 -19.962 -19.433 C -20.191 -17.401 -20.813 -15.513 -17.588 -15.188 C -14.681 -14.896 -14.781 -16.618 -14.559 -18.495 C -14.377 -20.027 -14.671 -21.833 -12.535 -22.856 C -12.562 -20.682 -12.544 -18.713 -12.623 -16.748 C -12.69 -15.095 -11.818 -14.306 -10.335 -14.011 C -9.102 -13.766 -8.327 -14.066 -7.496 -15.279 C -3.472 -21.157 .991 -22.267 8.478 -19.133 C 6.341 -18.55 4.642 -17.972 5.643 -15.487 " fill="#14b03e"/>
<path transform="matrix(1,0,0,-1,765.2059,445.1854)" d="M 0 0 C -.941 -.023 -1.407 .806 -1.231 1.727 C -.919 3.356 .469 3.57 1.773 3.718 C 2.605 3.812 2.805 3.149 2.8 2.398 C 2.125 1.322 1.491 .036 0 0 M 8.576 17.854 C 7.948 22.518 5.405 24.458 1.574 21.035 C .744 20.293 -.294 19.652 -2.27 20.176 C -1.2 21.833 1.799 21.855 .707 24.388 C .346 25.224 -.588 25.367 -1.45 25.169 C -3.745 24.641 -5.227 23.126 -6.07 21.02 C -6.652 19.565 -6.702 18.015 -5.39 16.885 C -3.614 15.356 -1.685 15.935 .213 16.727 C 5.553 18.954 5.452 18.901 5.822 13.25 C 6.072 9.425 5.222 7.066 .823 7.426 C .192 7.477 -.519 7.265 -1.107 6.991 C -3.547 5.852 -5.206 3.961 -5.129 1.221 C -5.066 -1.014 -3.964 -3.048 -1.677 -3.788 C 1.038 -4.666 2.569 -2.695 4.122 -.908 C 8.886 4.576 9.486 11.089 8.576 17.854 " fill="#2674ba"/>
<path transform="matrix(1,0,0,-1,623.323,439.648)" d="M 0 0 C -.738 -.525 -1.523 .442 -1.661 1.27 C -2.134 4.118 .295 4.547 2.277 5.989 C 2.912 3.121 1.833 1.304 0 0 M 5.623 15.52 C 4.596 18.773 .533 20.036 .235 23.898 C .165 24.808 -1.488 24.65 -2.41 24.231 C -5.577 22.792 -8.604 20.824 -7.74 16.878 C -6.883 12.961 -3.567 14.507 -1.163 15.099 C 1.747 15.816 2.822 14.301 3.457 11.996 C 4.181 9.372 2.284 9.136 .434 8.572 C -4.416 7.095 -6.023 4.413 -4.809 .149 C -4.206 -1.97 -3.371 -4.133 -.918 -4.559 C 1.805 -5.033 2.748 -2.687 3.727 -.834 C 5.531 2.582 6.378 6.288 6.55 11.062 C 6.718 12.028 6.174 13.777 5.623 15.52 " fill="#2674ba"/>
<path transform="matrix(1,0,0,-1,679.8087,256.1621)" d="M 0 0 C -.662 -.92 -1.485 -1.943 -2.858 -1.313 C -4.424 -.595 -4.188 .863 -3.921 2.137 C -3.222 5.47 -.799 7.414 2.579 9.735 C 3.355 5.493 1.916 2.663 0 0 M -.792 18.413 C -.478 20.741 1.643 19.756 2.341 20.867 C 3.229 22.279 3.652 23.995 1.646 24.453 C .015 24.824 -1.412 23.46 -2.579 22.193 C -4.089 20.553 -4.44 18.64 -3.709 16.637 C -3.105 14.985 -1.637 14.614 .001 14.881 C 1.271 15.088 2.741 15.789 3.099 13.696 C 3.392 11.99 2.217 11.445 .911 10.872 C -2.423 9.407 -4.979 7.112 -6.135 3.549 C -6.959 1.008 -7.061 -1.57 -4.465 -3.103 C -1.746 -4.709 .36 -3.081 1.962 -.997 C 4.927 2.861 5.878 7.404 5.879 12.161 C 5.882 18.175 4.904 19.087 -.792 18.413 " fill="#14b03e"/>
<path transform="matrix(1,0,0,-1,709.0914,405.1573)" d="M 0 0 C .595 .353 1.485 1.587 1.829 .545 C 2.716 -2.146 2.538 -5.077 .53 -7.189 C -.584 -8.361 -.752 -6.605 -1.037 -5.817 C -.692 -3.878 -.346 -1.939 0 0 M -1.594 -12.235 C -1.288 -11.337 -.674 -10.544 -.202 -9.702 L -.202 -9.701 C -.202 -9.702 -.202 -9.702 -.201 -9.702 C 4.39 -6.037 5.467 -2.043 3.283 3.34 C 3.232 3.599 3.123 3.879 2.922 4.191 C 2.921 4.191 2.921 4.191 2.921 4.192 L 2.921 4.191 L 2.921 4.192 C -.224 5.486 -1.982 4.885 -2.57 .992 C -3.39 -4.433 -5.86 -9.506 -5.668 -15.149 C -5.602 -17.093 -5.523 -19.666 -8.755 -19.907 C -10.019 -20.001 -11.316 -21.612 -9.909 -22.099 C -6.321 -23.342 -7.532 -26.383 -6.613 -28.611 C -6.203 -29.605 -5.741 -31.151 -4.369 -30.814 C -2.65 -30.393 -3.602 -28.941 -3.864 -27.922 C -4.714 -24.61 -3.979 -22.378 -.174 -21.871 C .745 -21.748 1.722 -21.292 1.881 -19.667 C -4.724 -19.825 -2.827 -15.847 -1.594 -12.235 " fill="#2674ba"/>
<path transform="matrix(1,0,0,-1,523.5535,378.5113)" d="M 0 0 C .181 -4.381 -1.567 -6.493 -4.783 -9.031 C -3.794 -5.171 -3.442 -2.226 0 0 M 1.174 -17.474 C -1.488 -17.698 -3.922 -17.465 -5.17 -14.767 C -6.469 -11.959 -3.543 -11.63 -2.262 -10.416 C .625 -7.681 2.808 -4.676 1.954 -.431 C 1.666 1 1.326 2.706 -.336 3.137 C -2.039 3.579 -3.044 2.178 -3.956 1.015 C -6.677 -2.458 -8.215 -6.625 -8.906 -10.784 C -9.585 -14.875 -7.731 -18.77 -3.572 -20.445 C .053 -21.905 3.199 -20.852 5.035 -17.02 C 3.506 -16.033 2.432 -17.369 1.174 -17.474 " fill="#2674ba"/>
<path transform="matrix(1,0,0,-1,68.1789,58.141115)" d="M 0 0 C -1.784 .281 -3.809 .119 -3.628 2.123 C -3.438 4.234 -1.656 5.725 .419 5.797 C 2.544 5.871 3.617 3.905 3.694 2.112 C 3.829 -1.028 .967 .851 0 0 M 1.177 14.975 C -.777 16.126 -2.935 15.967 -4.338 12.833 C -.48 13.001 2.342 11.798 3.789 8.408 C 2.845 7.424 2.217 8.415 1.506 8.468 C -1.901 8.723 -4.07 6.754 -5.841 4.231 C -7.153 2.364 -6.829 .308 -5.539 -1.327 C -3.585 -3.805 -.667 -3.586 1.741 -2.524 C 3.674 -1.673 5.087 -2.761 6.994 -2.983 C 6.89 3.82 8.258 10.808 1.177 14.975 " fill="#090b0f"/>
<path transform="matrix(1,0,0,-1,653.1037,575.6944)" d="M 0 0 C -2.17 .041 -2.417 1.964 -2.824 3.498 C -3.167 4.794 -2.611 5.942 -1.106 5.755 C .769 5.523 1.5 3.971 1.957 2.407 C 1.978 .971 1.363 -.026 0 0 M 3.435 5.816 C 2.065 8.06 .006 9.374 -2.882 8.394 C -5.861 7.383 -6.201 5.144 -5.918 2.458 C -5.365 -2.8 -4.909 -8.068 -4.387 -13.328 C -4.287 -14.327 -4.085 -15.33 -2.748 -15.422 C -1.551 -14.91 -1.911 -13.808 -1.833 -12.894 C -1.463 -8.522 -2.359 -3.953 3.127 -1.349 C 5.766 -.096 4.876 3.456 3.435 5.816 " fill="#0e0e0f"/>
<path transform="matrix(1,0,0,-1,506.2036,227.0037)" d="M 0 0 C 1.685 -4.256 1.199 -6.95 -1.9 -9.769 C -2.545 -6.264 -1.971 -3.6 0 0 " fill="#14b03e"/>
<path transform="matrix(1,0,0,-1,558.5339,209.32309)" d="M 0 0 C 1.183 2.425 2.105 3.874 4.509 4.208 C 4.398 1.605 2.914 .76 0 0 M 7.502 2.019 C 7.686 3.854 7.704 6.353 5.498 7.202 C 2.956 8.181 1.138 6.414 -.479 4.653 C -1.498 3.544 -2.39 2.366 -2.726 .854 C -3.71 -3.56 -5.943 -4.218 -9.348 -1.345 C -10.124 -1.526 -10.577 -2.026 -10.768 -2.785 C -9.47 -5.852 -7.28 -5.778 -4.651 -4.642 C -2.235 -3.597 .271 -2.763 2.708 -1.764 C 3.769 -1.328 4.412 -.651 5.405 -2.28 C 7.775 -6.166 9.57 -6.165 13.299 -2.478 C 8.979 -3.642 7.057 -2.405 7.502 2.019 " fill="#14b03e"/>
<path transform="matrix(1,0,0,-1,650.971,423.7401)" d="M 0 0 C -1.36 -.316 -3.046 -.111 -3.072 1.499 C -3.113 3.972 -1.234 5.507 .409 6.889 C 2.538 6.474 3.782 5.428 3.896 3.591 C 4.06 .96 1.937 .45 0 0 M .546 10.403 C -1.16 10.451 -6.013 4.362 -6.124 1.87 C -6.26 -1.178 -4.516 -2.703 -1.657 -3.012 C 2.425 -3.453 6.362 -.842 6.662 2.4 C 6.982 5.862 3.579 10.316 .546 10.403 " fill="#2674ba"/>
<path transform="matrix(1,0,0,-1,640.4671,567.2426)" d="M 0 0 C .541 -.202 1.018 -.941 .459 -1.563 C -.875 -3.046 -2.548 -3.137 -4.789 -2.633 C -3.289 -.41 -2.044 .764 0 0 M -3.443 -6.025 C -2.366 -5.622 -1.274 -5.33 -.294 -4.822 C 1.752 -3.761 4.315 -2.668 3.172 .235 C 2.031 3.134 -.714 3.037 -3.199 2.203 C -6.688 1.032 -8.907 -1.347 -8.122 -5.254 C -7.355 -9.075 -2.676 -10.725 2.823 -9.055 C .767 -7.226 -1.955 -8.39 -3.443 -6.025 " fill="#121314"/>
<path transform="matrix(1,0,0,-1,577.9028,243.35681)" d="M 0 0 C -2.432 -.044 -4.376 .601 -4.163 3.523 C -4.021 5.479 -3.712 7.998 -1.122 7.72 C 1.643 7.424 3.815 5.372 3.992 2.51 C 4.139 .131 1.858 .034 0 0 M -2.062 11.023 C -6.081 10.344 -6.016 6.478 -6.421 3.617 C -6.975 -.286 -4.372 -1.977 -.881 -2.201 C 2.72 -2.072 5.624 -1.104 6.071 2.837 C 6.396 5.703 .789 11.505 -2.062 11.023 " fill="#14b03e"/>
<path transform="matrix(1,0,0,-1,262.8186,179.6781)" d="M 0 0 C -3.193 -3.882 -6.999 -4.72 -10.707 -5.683 C -11.236 -5.821 -12.059 -5.739 -12.281 -4.878 C -12.49 -4.069 -11.965 -3.559 -11.396 -3.304 C -8.034 -1.792 -4.713 -.088 0 0 " fill="#f5294e"/>
<path transform="matrix(1,0,0,-1,280.4086,174.7645)" d="M 0 0 C -1.417 -.012 -3.418 -.073 -2.893 1.153 C -1.571 4.237 2.07 3.828 4.689 4.994 C 5.5 5.355 7.317 5.446 6.956 4.303 C 5.896 .941 2.002 1.693 0 0 " fill="#f5294e"/>
<path transform="matrix(1,0,0,-1,239.4677,191.1495)" d="M 0 0 C -2.556 -3.018 -5.49 -3.654 -8.149 -4.692 C -8.91 -4.989 -9.867 -4.734 -10.188 -3.788 C -10.517 -2.821 -9.831 -2.159 -9.064 -1.898 C -6.453 -1.009 -3.997 .584 0 0 " fill="#f5294e"/>
<path transform="matrix(1,0,0,-1,155.4967,252.8906)" d="M 0 0 C -1.525 -4.789 -4.749 -6.979 -7.835 -9.249 C -8.275 -9.573 -9.071 -9.802 -9.596 -9.085 C -10.09 -8.412 -9.791 -7.743 -9.358 -7.295 C -6.797 -4.644 -4.344 -1.83 0 0 " fill="#f5294e"/>
<path transform="matrix(1,0,0,-1,128.0111,283.0827)" d="M 0 0 C -.925 -3.845 -3.259 -5.733 -5.167 -7.857 C -5.713 -8.464 -6.683 -8.666 -7.395 -7.966 C -8.124 -7.25 -7.809 -6.35 -7.242 -5.772 C -5.309 -3.804 -3.833 -1.276 0 0 " fill="#f5294e"/>
<path transform="matrix(1,0,0,-1,162.4232,247.8811)" d="M 0 0 C -1.305 -.553 -3.131 -1.374 -3.114 -.041 C -3.072 3.314 .45 4.329 2.424 6.407 C 3.035 7.051 4.679 7.829 4.783 6.635 C 5.088 3.123 1.203 2.33 0 0 " fill="#f5294e"/>
<path transform="matrix(1,0,0,-1,105.2116,310.1643)" d="M 0 0 C .838 -2.891 -.123 -4.273 -1.656 -5.317 C -2.295 -5.752 -3.026 -5.277 -3.098 -4.593 C -3.32 -2.488 -1.701 -1.63 0 0 " fill="#f5294e"/>
</g>
</g>
</g>
</svg>
